<svg xmlns="http://www.w3.org/2000/svg" width="256" height="256" viewBox="0 0 256 256">
  <g fill="none">
    <circle cx="128" cy="128" r="128" fill="#F3BA2D"/>
    <path fill="#FFF" d="M178.155095,97.7529718 L175.823462,100.284723 L107.406683,168.708624 C104.741959,171.373626 102.010617,173.972002 99.4125117,176.770253 C98.0135318,178.302628 97.1474966,178.102753 95.7485167,176.770253 C90.2858332,171.17375 84.7565317,165.643873 79.1606121,160.180621 C77.628396,158.714871 77.5617779,157.78212 79.1606121,156.249745 C104.830783,130.621318 130.478748,104.970683 156.104507,79.2978395 C157.436869,77.965339 158.302904,77.6322139 159.768502,79.2978395 C165.364422,85.0942168 171.093578,90.690719 176.822733,96.4204712 L178.155095,97.7529718 Z M208,127.934109 C208,129.333234 206.667638,129.932859 205.934839,130.73236 L159.302175,177.369878 C149.575934,187.097132 139.849693,196.75776 130.19007,206.551639 C128.324763,208.483765 127.325492,208.483765 125.460185,206.551639 C120.330592,201.221637 114.734673,195.891635 109.738316,190.694883 C108.139482,189.095882 107.673155,188.163132 109.738316,186.297631 C135.275251,160.713621 160.701155,135.218445 186.01603,109.812101 C187.7481,108.079851 188.747372,108.013226 190.479442,109.812101 C195.742271,115.275354 201.138337,120.538731 206.467784,125.868733 C207.067347,126.468358 207.600291,127.067983 208,127.934109 Z M97.4805871,118.073605 L95.8151348,116.607854 C90.2192152,111.011352 84.6232955,105.348225 78.9607578,99.8183476 C77.6950141,98.6190971 77.5617779,97.7529718 78.9607578,96.4870963 L126.526075,48.8502027 C127.7252,47.6509522 128.457999,47.7842022 129.590507,48.8502027 C135.230839,54.6243716 140.937788,60.3541238 146.711356,66.0394594 C147.843864,67.1720848 147.9771,67.9049601 146.711356,69.1042106 L99.0794213,116.674479 L97.4805871,118.073605 Z M67.1693557,108.412976 C68.3018632,108.412976 68.7015718,109.145851 69.1678984,109.612226 C74.763818,115.208729 80.3597377,120.871856 86.0222754,126.401733 C87.2880192,127.667608 87.4212553,128.467109 86.0222754,129.732984 C80.3819437,135.329486 74.7860241,140.948197 69.2345165,146.589116 C67.7689185,148.121491 66.9028833,147.854991 65.5705215,146.589116 C60.107838,140.948197 54.6007425,135.396111 49.0492349,129.932859 C47.650255,128.533734 47.650255,127.667608 49.0492349,126.268483 C54.6451546,120.805231 60.107838,115.275354 65.6371396,109.745476 L67.1693557,108.412976 Z"/>
  </g>
</svg>
