<svg xmlns="http://www.w3.org/2000/svg" width="256" height="256" viewBox="0 0 256 256">
  <g fill="none">
    <circle cx="128" cy="128" r="128" fill="#ECB244"/>
    <path fill="#FFF" d="M120.768,158.768 L171.144,158.768 L171.144,185.568 L140.144,185.568 C140.656,193.232 140.92,200.344 141.432,208 L115.344,208 L115.344,185.84 L84.336,185.84 C84.336,177.096 83.304,168.344 84.856,160.136 C85.632,155.76 90.28,151.928 93.12,148.104 C102.945953,135.82493 112.850155,123.608682 122.832,111.456 C126.712,106.8 130.584,102.424 134.976,97.232 L86.656,97.232 L86.656,70.432 L115.344,70.432 L115.344,48 L140.4,48 L140.4,69.88 L171.664,69.88 C171.664,78.904 172.696,87.656 171.144,95.864 C170.368,100.24 165.72,104.072 162.624,107.896 C152.798047,120.175069 142.893845,132.391318 132.912,144.544 C129.0145,149.411788 124.964488,154.155478 120.768,158.768 L120.768,158.768 Z"/>
  </g>
</svg>
