<svg xmlns="http://www.w3.org/2000/svg" width="256" height="256" viewBox="0 0 256 256">
  <g fill="none">
    <path fill="#231F20" d="M127.943237,0 C57.3871397,0 0,57.3871397 0,127.943237 C0,198.499335 57.3871397,255.886475 127.943237,255.886475 C198.499335,255.886475 255.886475,198.499335 255.886475,127.943237 C255.886475,57.3871397 198.499335,0 127.943237,0 Z M127.943237,234.770732 C69.0235033,234.770732 21.1157428,186.862971 21.1157428,127.943237 C21.1157428,69.0235033 69.0235033,21.1157428 127.943237,21.1157428 C186.862971,21.1157428 234.770732,69.0235033 234.770732,127.943237 C234.770732,186.862971 186.862971,234.770732 127.943237,234.770732 Z"/>
    <circle cx="127.943" cy="127.943" r="100.811" fill="#F4B728"/>
    <polygon fill="#231F20" points="82.306 167.734 82.306 187.26 117.215 187.26 117.215 208.66 138.671 208.66 138.671 187.26 173.58 187.26 173.58 161.433 119.429 161.433 173.58 87.982 173.58 68.456 138.671 68.456 138.671 47.113 117.215 47.113 117.215 68.456 82.306 68.456 82.306 94.34 136.458 94.34"/>
  </g>
</svg>
