<svg width="1024" height="280" viewBox="0 0 1024 280" fill="none" xmlns="http://www.w3.org/2000/svg">
<g clip-path="url(#clip0_180_734)">
<path d="M136.007 -0.130859C169.134 -0.130859 197.037 8.79449 219.716 26.6451C242.65 44.2407 257.175 68.5941 263.291 99.7052H211.307C206.466 80.5796 197.419 66.1715 184.169 56.4812C170.918 46.5358 154.992 41.5631 136.39 41.5631C119.572 41.5631 104.664 45.6433 91.6684 53.8036C78.6726 61.7089 68.6072 73.1843 61.4722 88.2298C54.592 103.02 51.152 120.233 51.152 139.869C51.152 159.505 54.7193 176.845 61.8543 191.891C68.9893 206.682 78.9274 218.157 91.6684 226.317C104.664 234.223 119.572 238.175 136.39 238.175C155.246 238.175 171.427 233.202 184.933 223.257C198.439 213.057 207.485 198.394 212.072 179.268H264.055C259.978 199.924 251.951 217.774 239.974 232.82C228.253 247.865 213.473 259.468 195.636 267.629C177.798 275.789 157.922 279.869 136.007 279.869C109.506 279.869 85.935 274.004 65.2946 262.274C44.654 250.543 28.4727 234.095 16.7509 212.929C5.28396 191.764 -0.449463 167.41 -0.449463 139.869C-0.449463 112.328 5.28396 87.9748 16.7509 66.809C28.4727 45.6433 44.654 29.1952 65.2946 17.4648C85.935 5.7344 109.506 -0.130833 136.007 -0.130859Z" fill="#1C1A17"/>
<path d="M654.631 -0.130859C676.291 -0.130858 694.893 3.43927 710.437 10.5795C725.981 17.7198 737.83 27.4102 745.984 39.6506C754.393 51.891 759.235 65.6615 760.509 80.962H711.201C709.418 68.4666 703.684 58.1387 694.001 49.9784C684.317 41.8182 670.175 37.738 651.573 37.738C635.01 37.738 622.014 41.1806 612.585 48.0659C603.412 54.6961 598.825 63.7489 598.825 75.2243C598.825 85.9347 602.775 93.9675 610.674 99.3227C618.573 104.423 630.932 108.631 647.751 111.946L677.183 117.683C736.301 129.414 765.86 156.317 765.86 198.394C765.86 223.895 755.922 243.913 736.046 258.448C716.425 272.729 689.414 279.869 655.013 279.869C619.083 279.869 591.945 272.219 573.598 256.918C555.505 241.363 545.695 220.452 544.166 194.186H593.856C596.404 225.807 617.045 241.618 655.777 241.618C674.125 241.618 688.395 238.303 698.587 231.672C708.78 225.042 713.877 215.352 713.877 202.601C713.877 192.146 710.054 183.858 702.41 177.738C695.02 171.618 683.171 166.9 666.862 163.585L634.373 157.082C606.852 151.727 585.574 142.929 570.54 130.689C555.76 118.448 548.37 102 548.37 81.3446C548.37 65.024 552.702 50.7435 561.366 38.503C570.285 26.2626 582.771 16.8272 598.825 10.197C614.879 3.31176 633.481 -0.130859 654.631 -0.130859Z" fill="#1C1A17"/>
<path fill-rule="evenodd" clip-rule="evenodd" d="M535.613 273.749H479.807L458.402 214.459H336.852L315.448 273.749H263.082L367.813 5.98936H429.735L535.613 273.749ZM351.759 173.148H443.113L397.627 47.3008L351.759 173.148Z" fill="#1C1A17"/>
<path d="M851.228 116.918H973.879V5.98936H1023.55V273.749H973.879V159.76H851.228V273.749H801.557V5.98936H851.228V116.918Z" fill="#1C1A17"/>
</g>
<defs>
<clipPath id="clip0_180_734">
<rect width="1024" height="280" fill="white"/>
</clipPath>
</defs>
</svg>
