<svg width="256" height="256" viewBox="0 0 256 256" fill="none" xmlns="http://www.w3.org/2000/svg">
<rect width="256" height="256" fill="#FF85B4"/>
<path d="M128 255.999C198.692 255.999 255.999 198.692 255.999 128C255.999 57.3074 198.692 0 128 0C57.3074 0 0 57.3074 0 128C0 198.692 57.3074 255.999 128 255.999Z" fill="#FF85B4"/>
<path d="M130.844 194.237C147.81 194.237 161.564 180.483 161.564 163.517C161.564 146.551 147.81 132.798 130.844 132.798C113.879 132.798 100.125 146.551 100.125 163.517C100.125 180.483 113.879 194.237 130.844 194.237Z" fill="#0D0D0D"/>
<path d="M89.7971 154.636L79.3125 165.86L127.166 210.558L137.65 199.334L89.7971 154.636Z" fill="#0D0D0D"/>
<path d="M130.86 178.877C139.343 178.877 146.219 172 146.219 163.517C146.219 155.034 139.343 148.157 130.86 148.157C122.377 148.157 115.5 155.034 115.5 163.517C115.5 172 122.377 178.877 130.86 178.877Z" fill="#EBEBEB"/>
<path d="M130.843 61.7642C113.877 61.7642 100.124 75.5177 100.124 92.4836C100.124 109.45 113.877 123.203 130.843 123.203C147.809 123.203 161.562 109.45 161.562 92.4836C161.562 75.5177 147.809 61.7642 130.843 61.7642Z" fill="#0D0D0D"/>
<path d="M172.078 101.537L182.562 90.3125L134.515 45.433L124.03 56.6578L172.078 101.537Z" fill="#0D0D0D"/>
<path d="M130.828 77.1243C122.345 77.1243 115.468 84.0011 115.468 92.484C115.468 100.967 122.345 107.844 130.828 107.844C139.311 107.844 146.188 100.967 146.188 92.484C146.188 84.0011 139.311 77.1243 130.828 77.1243Z" fill="#EBEBEB"/>
</svg>
