<svg width="64" height="65" viewBox="0 0 64 65" fill="none" xmlns="http://www.w3.org/2000/svg">
<path d="M57.5459 64.8478H63.996V51.8516L56.4446 53.0888C55.6476 57.0315 56.0307 61.1217 57.5459 64.8478Z" fill="#706EFF"/>
<path d="M6.45013 0.853516H0V13.8498L7.55137 12.6125C8.34836 8.66984 7.96531 4.57968 6.45013 0.853516" fill="#706EFF"/>
<path d="M0 58.3983V64.8484H12.9963L11.7564 57.297C7.81453 56.5003 3.72528 56.8833 0 58.3983" fill="#706EFF"/>
<path d="M51 0.853516L52.2399 8.40755C56.1821 9.2022 60.2709 8.81826 63.9963 7.30365V0.853516H51Z" fill="#706EFF"/>
<path d="M37.5009 14.3137C32.7359 10.8473 29.2056 5.88776 27.0057 0.853516H18.6651C19.7628 5.38346 19.8659 10.0974 18.9673 14.6711C18.0688 19.2447 16.19 23.5693 13.4602 27.3473C9.99383 32.1122 5.03425 35.6426 0 37.8451V46.1831C4.53032 45.0862 9.24453 44.9839 13.8181 45.8834C18.3918 46.7828 22.7162 48.6626 26.4938 51.3933C31.2614 54.8597 34.7891 59.8193 36.9916 64.8535H45.3296C44.2327 60.3232 44.1304 55.609 45.0299 51.0354C45.9293 46.4617 47.8091 42.1373 50.5398 38.3597C54.0062 33.5948 58.9658 30.0671 64 27.8619V19.5186C59.4697 20.6155 54.7555 20.7178 50.1819 19.8183C45.6082 18.9189 41.2838 17.0391 37.5062 14.3084" fill="#706EFF"/>
</svg>
