<svg xmlns="http://www.w3.org/2000/svg" xmlns:xlink="http://www.w3.org/1999/xlink" width="50" height="50" viewBox="0 0 50 50">
  <defs>
    <circle id="50px-a" cx="25" cy="25" r="25"/>
    <circle id="50px-c" cx="9.444" cy="9.444" r="9.444"/>
  </defs>
  <g fill="none" fill-rule="evenodd">
    <mask id="50px-b" fill="#fff">
      <use xlink:href="#50px-a"/>
    </mask>
    <use fill="#DFE5FF" xlink:href="#50px-a"/>
    <path fill="#000" fill-rule="nonzero" d="M22.2222222,33.3333333 L22.2222222,14.4444444 L26.6666667,14.4444444 L26.6666667,33.3333333 L22.2222222,33.3333333 Z M35.8447217,14.4444444 C37.5183288,14.4444444 39.0052421,14.8228239 40.305506,15.579594 C41.60577,16.3363642 42.6206473,17.4001509 43.3501684,18.770986 C44.0796894,20.1418211 44.4444444,21.7093929 44.4444444,23.4737485 L44.4444444,24.3040293 C44.4444444,26.0770337 44.0796894,27.6467677 43.3501684,29.0132784 C42.6206473,30.3797891 41.6036244,31.4414136 40.2990691,32.1981838 C38.9945138,32.9549539 37.5011638,33.3333333 35.8189741,33.3333333 L30,33.3333333 L30,14.4444444 L35.8447217,14.4444444 Z M40,23.4445615 C40,21.5899685 39.5955505,20.1818727 38.7866394,19.2202318 C37.9777283,18.258591 36.7961905,17.7777778 35.2419905,17.7777778 L33.3333333,17.7777778 L33.3333333,30 L35.2147239,30 C36.7689239,30 37.9550061,29.5127473 38.7730061,28.5382274 C39.5910061,27.5637074 40,26.1491721 40,24.2945791 L40,23.4445615 Z" mask="url(#50px-b)"/>
    <g mask="url(#50px-b)">
      <g transform="translate(11.111 10)">
        <path fill="#4F6EF7" fill-rule="nonzero" d="M39.8550725,3.2748538 C37.8542269,3.2748538 36.2318841,2.17509174 36.2318841,0.81871345 C36.2318841,0.366554058 35.691183,0 35.0241546,0 L2.41230761,0 C1.08002005,0 0,0.738358117 0,1.63976924 L0,29.4713419 C0,30.3769631 1.08482983,31.1111111 2.42287645,31.1111111 L53.1327252,31.1111111 C54.4707809,31.1111111 55.5555556,30.372753 55.5555556,29.4713419 L55.5555556,1.63976924 C55.5555556,0.734148047 54.4735453,0 53.1432295,0 L44.6859903,0 C44.0189528,0 43.4782609,0.366554058 43.4782609,0.81871345 C43.4782609,2.17509174 41.8559088,3.2748538 39.8550725,3.2748538 Z"/>
        <path fill="#1A3B8B" d="M27.7777778 10C27.7777778 9.38635511 28.3133704 8.88888889 28.9763466 8.88888889L43.2458666 8.88888889C43.907771 8.88888889 44.4444444 9.38206567 44.4444444 10 44.4444444 10.6136449 43.9088428 11.1111111 43.2458666 11.1111111L28.9763466 11.1111111C28.3144421 11.1111111 27.7777778 10.6179343 27.7777778 10zM27.7777778 15.5555556C27.7777778 14.9419107 28.3133704 14.4444444 28.9763466 14.4444444L43.2458666 14.4444444C43.907771 14.4444444 44.4444444 14.9376212 44.4444444 15.5555556 44.4444444 16.1692004 43.9088428 16.6666667 43.2458666 16.6666667L28.9763466 16.6666667C28.3144421 16.6666667 27.7777778 16.1734899 27.7777778 15.5555556zM27.7777778 21.1111111C27.7777778 20.4974662 28.3440314 20 29.0240298 20L36.5315352 20C37.2197829 20 37.7777778 20.4931768 37.7777778 21.1111111 37.7777778 21.724756 37.2115242 22.2222222 36.5315353 22.2222222L29.0240299 22.2222222C28.3357822 22.2222222 27.7777778 21.7290433 27.7777778 21.1111111z"/>
      </g>
    </g>
    <g mask="url(#50px-b)">
      <g transform="translate(16.667 15.556)">
        <mask id="50px-d" fill="#fff">
          <use xlink:href="#50px-c"/>
        </mask>
        <use fill="#1A2C57" xlink:href="#50px-c"/>
        <path fill="#9FAFF5" d="M9.44666667 5.55555556C7.60904967 5.55555556 6.11333333 7.05079394 6.11333333 8.88888889 6.11333333 10.7269838 7.60904967 12.2222222 9.44666667 12.2222222 11.2842837 12.2222222 12.78 10.7269838 12.78 8.88888889 12.78 7.05079394 11.2842837 5.55555556 9.44666667 5.55555556M11.6707042 13.3333333L7.22707356 13.3333333C5.38584633 13.3333333 3.89333333 14.3835449 3.89333333 15.687567L3.89333333 19.1048416C5.57322428 19.6782609 7.45778644 20 9.44888889 20 11.4399913 20 13.3245535 19.6782609 15.0044444 19.1048416L15.0044444 15.687567C15.0044444 14.3873506 13.5174924 13.3333333 11.6707042 13.3333333z" mask="url(#50px-d)"/>
      </g>
    </g>
  </g>
</svg>
