<svg xmlns="http://www.w3.org/2000/svg" width="99" height="99" viewBox="0 0 99 99">
  <g fill="none" fill-rule="evenodd">
    <circle cx="49" cy="49" r="49" fill="#5AECB8" transform="translate(.067 .067)"/>
    <g stroke="#FFF" transform="translate(6.067 6.067)">
      <circle cx="42.902" cy="42.945" r="42" stroke-width="3.001" transform="translate(.098 .055)"/>
      <circle cx="32.987" cy="32.018" r="32" stroke-width="3" transform="translate(10.013 10.983)"/>
      <circle cx="22.781" cy="22.806" r="22" stroke-width="3" transform="translate(20.22 20.194)"/>
      <path stroke-width="2" d="M43.0000081,36.0000026 C44.9317358,36.0000026 46.681837,36.783968 47.9489399,38.0510709 C49.2160427,39.3181738 50.0000081,41.0682749 50.0000081,43.0000026 C50.0000081,44.9317303 49.2160427,46.6818315 47.9489399,47.9489344 C46.681837,49.2160372 44.9317358,50.0000026 43.0000081,50.0000026 C41.0682804,50.0000026 39.3181793,49.2160372 38.0510764,47.9489344 C36.7839735,46.6818315 36.0000081,44.9317303 36.0000081,43.0000026 C36.0000081,41.0682749 36.7839735,39.3181738 38.0510764,38.0510709 C39.3181793,36.783968 41.0682804,36.0000026 43.0000081,36.0000026 Z"/>
      <path stroke-width="2" d="M1.86482994,0.217661696 C2.87822939,0.217661696 3.700994,6.70019482 3.700994,14.6847288 C3.700994,22.6692628 2.87822939,29.1515706 1.86482994,29.1515706 C0.868254314,29.1515706 0.0560770499,22.8835391 0.029281301,15.0826806 L0.02859859,14.6847288 C0.02859859,6.70019482 0.851363202,0.217661696 1.86482994,0.217661696 Z" transform="translate(41.135 28.315)"/>
    </g>
  </g>
</svg>
