<svg xmlns="http://www.w3.org/2000/svg" width="248" height="248" viewBox="0 0 248 248">
  <g fill="none" fill-rule="evenodd">
    <path fill="#B3A369" fill-rule="nonzero" d="M0.38261625,124.076705 C0.38261625,192.307615 55.6839487,247.603655 123.888396,247.603655 C192.124599,247.603655 247.415346,192.307615 247.415346,124.076705 C247.410054,55.87755 192.114014,0.58151 123.877811,0.58151 C55.6786563,0.58151 0.37203125,55.87755 0.37203125,124.076705 L0.38261625,124.076705 Z"/>
    <path fill="#003057" fill-rule="nonzero" d="M224.580855,124.23548 C224.580855,179.78556 179.550148,224.81415 124.002185,224.81415 C68.454222,224.81415 23.423515,179.783443 23.423515,124.23548 C23.423515,68.6906925 68.452105,23.65681 124.002185,23.65681 C179.546973,23.65681 224.580855,68.687517 224.580855,124.23548"/>
    <path fill="#B3A369" fill-rule="nonzero" d="M123.401204,27.7252724 C122.982917,27.7179675 122.618835,27.7964341 122.334448,28.0173008 C121.76561,28.4590234 121.135168,31.1114021 120.630898,31.7426915 C120.124575,32.3740338 117.787238,34.0814473 116.587111,36.9235198 L115.071762,37.1757391 C115.071762,37.1757391 114.81823,34.5229264 114.18693,32.1851233 C113.555577,29.8493314 112.671582,28.8380405 112.671582,28.8380405 C112.671582,28.8380405 112.229626,28.585927 110.841964,28.8380405 C109.452154,29.090154 109.260459,29.5326811 109.260459,29.5326811 C109.260459,29.5326811 108.819721,30.9233384 109.13435,33.1340157 C109.451064,35.3447988 110.083274,37.8063405 110.083274,37.8063405 C110.083274,37.8063405 108.820483,37.9341332 107.176527,38.2487618 C105.534582,38.565465 104.333925,38.9454665 104.333925,38.9454665 C104.333925,38.9454665 103.954231,36.5434124 103.070711,34.3951867 C102.18517,32.2490779 101.241094,31.1121431 101.241094,31.1121431 C101.241094,31.1121431 100.607942,30.9231267 99.3453206,31.3023449 C98.0805189,31.6815631 97.7658269,31.9969855 97.7658269,31.9969855 C97.7658269,31.9969855 97.5128242,33.6398834 98.1441559,35.8485495 C98.7775623,38.0613437 99.5334372,40.2066057 99.5334372,40.2066057 C99.5334372,40.2066057 98.4598006,40.4585499 96.6928466,41.027356 C94.9238814,41.5961939 94.1023795,42.0383082 94.1023795,42.0383082 C94.1023795,42.0383082 93.3458061,40.0171024 92.2727623,37.8064252 C91.1976438,35.5956421 89.9965639,34.5854097 89.9965639,34.5854097 C89.9965639,34.5854097 89.4921569,34.3328939 88.1648296,34.9017212 C86.8395876,35.4705591 86.7135203,35.9747227 86.7135203,35.9747227 C86.7135203,35.9747227 86.7763423,37.996246 87.4722531,39.6380853 C88.1660998,41.2800305 89.4920828,43.8080461 89.4920828,43.8080461 C89.4920828,43.8080461 88.417917,44.2486679 86.7135203,45.0071149 C85.0070066,45.7655301 84.2512376,46.2703288 84.2512376,46.2703288 C84.2512376,46.2703288 83.49097,44.3773074 82.1012124,42.4187648 C80.7114019,40.4601164 79.3226499,39.4479787 79.3226499,39.4479787 C79.3226499,39.4479787 78.3769225,39.4497782 77.4288875,40.0185738 C76.4829061,40.5874117 76.2277017,41.2176426 76.2277017,41.2176426 C76.2277017,41.2176426 76.2902167,42.6697987 77.5549549,44.9430333 C78.8176395,47.2183849 79.8290363,48.5443679 79.8290363,48.5443679 C79.8290363,48.5443679 78.8800169,49.113301 77.3005973,50.1238616 C75.7233265,51.1344115 75.0285271,51.7033553 75.0285271,51.7033553 C75.0285271,51.7033553 73.8282939,49.8704567 72.3760319,48.16606 C70.9237699,46.4595463 69.3432177,45.5777099 69.3432177,45.5777099 C69.3432177,45.5777099 68.5846225,45.5129509 67.5114835,46.3984602 C66.4383762,47.2819372 66.438482,47.7237022 66.438482,47.7237022 C66.438482,47.7237022 66.6292872,49.113301 68.1440431,51.1989694 C69.6609794,53.2826267 70.9226056,54.6080804 70.9226056,54.6080804 C70.9226056,54.6080804 70.1023316,55.1760503 68.7125634,56.3136414 C67.3227529,57.4492002 66.438482,58.271443 66.438482,58.271443 C66.438482,58.271443 65.0499417,56.6287569 63.0913992,54.9243602 C61.1327508,53.2199635 60.058585,52.9644416 60.058585,52.9644416 C60.058585,52.9644416 59.4276343,52.9028051 58.4170632,53.9133656 C57.4065132,54.9239262 57.5342954,55.4287142 57.5342954,55.4287142 C57.5342954,55.4287142 57.6586585,56.4384809 59.7422205,58.713769 C61.8278889,60.9870036 62.7750347,61.6804269 62.7750347,61.6804269 C62.7750347,61.6804269 61.8276349,62.5673335 60.5649926,63.8924802 C59.3023079,65.2197334 58.8594315,65.8502818 58.8594315,65.8502818 C58.8594315,65.8502818 57.5344012,64.5864328 55.3862813,63.0696023 C53.2401726,61.554783 51.848986,61.2399851 51.848986,61.2399851 C51.848986,61.2399851 51.2811537,61.3039608 50.3956655,62.3770258 C49.5122414,63.4501331 49.5749152,64.0185476 49.5749152,64.0185476 C49.5749152,64.0185476 49.8290399,65.0291928 51.9751698,66.9231774 C54.1233955,68.8192685 55.5744932,69.6397118 55.5744932,69.6397118 C55.5744932,69.6397118 54.9449927,70.2719327 53.7448759,71.9137932 C52.5446428,73.5557384 52.1653822,74.2499027 52.1653822,74.2499027 C52.1653822,74.2499027 50.7740898,73.1764779 48.3738352,71.9137932 C45.9795082,70.6531197 44.7188347,70.5885512 44.7188347,70.5885512 C44.7188347,70.5885512 44.1516269,70.7161428 43.4556208,71.8537763 C42.7617741,72.9893351 42.7609802,73.6193543 42.7609802,73.6193543 C42.7609802,73.6193543 43.5795818,75.009694 45.9798787,76.464073 C48.3802392,77.916335 49.3290786,78.4198635 49.3290786,78.4198635 C49.3290786,78.4198635 48.8862445,79.1172774 47.8757581,80.8841573 C46.8652081,82.6531225 46.4864768,83.4104793 46.4864768,83.4104793 C46.4864768,83.4104793 45.1608114,82.4622538 42.5687566,81.578745 C39.9809358,80.6932039 38.7813378,80.6939026 38.7813378,80.6939026 C38.7813378,80.6939026 38.2131138,80.8199064 37.6442971,81.8929714 C36.9962834,83.1181851 37.0778302,83.85289 37.0778302,83.85289 C37.0778302,83.85289 37.8966117,85.1161039 40.803221,86.443357 C43.7078508,87.768599 44.2763712,87.8946664 44.2763712,87.8946664 C44.2763712,87.8946664 44.0243317,88.3363149 43.2033697,90.294921 C42.3824289,92.2534635 42.066329,93.2636959 42.066329,93.2636959 C42.066329,93.2636959 40.9269596,92.5687907 37.7703009,91.8103754 C34.6115252,91.0540242 33.9807651,91.4299717 33.9807651,91.4299717 C33.9807651,91.4299717 33.539741,91.4945719 33.0979972,92.7572248 C32.6562746,94.0199095 32.7816857,94.7791715 32.7816857,94.7791715 C32.7816857,94.7791715 33.2863361,95.7905259 36.4430372,96.8011182 C39.6018129,97.8116682 40.4227855,97.9381589 40.4227855,97.9381589 C40.4227855,97.9381589 40.1724185,98.5684533 39.6661273,100.46247 C39.1619003,102.358561 38.9073945,103.495284 38.9073945,103.495284 C38.9073945,103.495284 37.4550267,102.989638 34.6775227,102.610441 C31.8980075,102.231223 30.56959,102.738615 30.56959,102.738615 C30.56959,102.738615 30.0051026,103.180094 29.7488397,104.632378 C29.5592306,105.705379 29.9390416,106.147726 29.9390416,106.147726 C29.9390416,106.147726 30.3797269,107.033352 33.7906055,107.72722 C37.2015159,108.423131 37.8964212,108.42186 37.8964212,108.42186 C37.8964212,108.42186 37.5820573,109.621141 37.3299543,111.454675 C37.0778408,113.286197 37.0136428,114.043025 37.0136428,114.043025 C37.0136428,114.043025 35.8134096,113.726713 32.7817598,113.726713 C29.7501099,113.726713 28.6759441,114.169134 28.6759441,114.169134 C28.6759441,114.169134 28.1699388,114.107424 28.1074132,116.191081 C28.1074132,116.191081 28.0454909,117.51844 28.297615,117.770575 C28.5497286,118.022688 28.9920863,118.59141 32.4633418,118.843576 C35.9388207,119.09569 36.6333025,118.969686 36.6333025,118.969686 C36.6333025,118.969686 36.4431007,120.54865 36.4431007,123.011462 L36.4431007,127.117278 C36.4431007,127.117278 34.3602902,126.991867 31.8328039,127.43359 C29.3074346,127.875312 28.1074132,128.568619 28.1074132,128.568619 C28.1074132,128.568619 27.7280891,129.076128 27.8551938,130.276297 C27.9822985,131.476467 28.4216607,132.17006 28.4216607,132.17006 C28.4216607,132.17006 29.3698014,132.800513 32.6556607,132.548389 C35.9394452,132.296264 36.7614763,131.979868 36.7614763,131.979868 C36.7614763,131.979868 36.8235891,132.676351 37.0777879,134.82247 C37.3299014,136.970696 37.4540529,137.791245 37.4540529,137.791245 C37.4540529,137.791245 35.6865696,137.916084 33.2862091,138.611995 C30.8858487,139.305842 29.432634,140.315545 29.432634,140.315545 C29.432634,140.315545 29.1180055,141.075241 29.432634,142.275464 C29.7493372,143.475591 30.1913668,143.854957 30.1913668,143.854957 C30.1913668,143.854957 31.138936,144.296098 34.2331432,143.664766 C37.3293616,143.033424 38.3389589,142.591765 38.3389589,142.591765 C38.3389589,142.591765 38.5918768,143.53727 39.0335995,145.306182 C39.4753221,147.075094 39.7923323,148.212929 39.7923323,148.212929 C39.7923323,148.212929 38.1493286,148.655763 35.6865166,149.666249 C33.2215877,150.676799 32.0871932,151.812147 32.0871932,151.812147 C32.0871932,151.812147 32.0243077,152.442134 32.4014407,153.579736 C32.7806589,154.717411 33.2862832,155.095084 33.2862832,155.095084 C33.2862832,155.095084 34.3594964,155.475573 37.5161551,154.402508 C40.6749308,153.3294 41.3077021,153.011215 41.3077021,153.011215 C41.3077021,153.011215 41.6232197,154.022252 42.2545621,155.601682 C42.8859044,157.181113 43.3275635,158.318217 43.3275635,158.318217 C43.3275635,158.318217 41.496041,159.011809 39.3499322,160.211979 C37.2017065,161.412106 36.1289167,162.738301 36.1289167,162.738301 C36.1289167,162.738301 36.0671003,163.434921 36.571338,164.508007 C37.0776608,165.581115 37.7083787,165.959317 37.7083787,165.959317 C37.7083787,165.959317 38.5272448,166.403685 41.68601,164.824287 C44.8447751,163.244889 45.4755458,162.738301 45.4755458,162.738301 C45.4755458,162.738301 45.6661181,163.370607 46.6767316,165.264623 C47.6873027,167.158703 48.1941972,167.917118 48.1941972,167.917118 C48.1941972,167.917118 46.1722505,169.118198 44.5907457,170.1912 C43.0134748,171.264307 41.6240877,173.222003 41.6240877,173.222003 C41.6240877,173.222003 41.4961997,173.729987 42.2546362,174.865536 C43.0130514,176.003211 43.6439174,176.254817 43.6439174,176.254817 C43.6439174,176.254817 44.9701121,176.129088 47.4974925,174.487228 C50.0228618,172.843271 50.9087205,172.213146 50.9087205,172.213146 C50.9087205,172.213146 51.540158,173.285618 52.4882142,174.675429 C53.4341956,176.065239 54.129736,176.94951 54.129736,176.94951 C54.129736,176.94951 52.9913192,177.519851 51.0327767,179.413804 C49.0762453,181.307778 48.2563312,182.824926 48.2563312,182.824926 C48.2563312,182.824926 48.1279563,183.327724 48.9489077,184.338264 C49.7698274,185.348814 50.5284014,185.729556 50.5284014,185.729556 C50.5284014,185.729556 51.9191646,185.47703 54.3819765,183.39133 C56.8447885,181.307672 57.2245783,180.865008 57.2245783,180.865008 C57.2245783,180.865008 57.6029179,181.181944 58.9301393,182.696742 C60.2553813,184.213572 61.1380645,185.096997 61.1380645,185.096997 C61.1380645,185.096997 58.9306686,187.246069 57.7929928,188.698331 C56.655317,190.150593 56.0853147,191.602961 56.0853147,191.602961 C56.0853147,191.602961 56.1507935,192.361471 57.0342388,193.182455 C57.9197799,194.003374 58.6757606,194.191332 58.6757606,194.191332 C58.6757606,194.191332 60.1924852,193.622494 62.1489108,191.538837 C64.1075592,189.453169 64.6773497,188.508034 64.6773497,188.508034 C64.6773497,188.508034 65.181418,189.012007 66.8232468,190.401796 C68.4672031,191.791607 69.0973282,192.29757 69.0973282,192.29757 C69.0973282,192.29757 67.6461247,193.875687 66.5710062,195.644653 C65.4978989,197.413618 64.8013001,199.496217 64.8013001,199.496217 C64.8013001,199.496217 64.800683,200.00254 65.9383408,200.82347 C67.0759986,201.6444 67.5818737,201.64422 67.5818737,201.64422 C67.5818737,201.64422 68.8171432,201.245504 70.8028892,198.549378 C72.5718544,196.151134 73.0769706,195.454536 73.0769706,195.454536 C73.0769706,195.454536 73.6451099,195.834865 75.2870128,196.907856 C76.928958,197.982974 77.8133347,198.549378 77.8133347,198.549378 C77.8133347,198.549378 76.8510418,200.025879 75.9175612,201.834433 C74.8444539,203.917984 74.4683689,206.192489 74.4683689,206.192489 C74.4683689,206.192489 74.4673189,206.571633 75.6654265,207.267501 C76.8656597,207.961348 77.5612,207.960078 77.5612,207.960067 C77.5612,207.960067 78.8244139,207.20125 80.4038018,204.296705 C81.9810726,201.392075 82.1735079,201.013661 82.1735079,201.013661 C82.1735079,201.013661 82.6776609,201.455394 84.5737625,202.338903 C86.4677366,203.224444 87.2696562,203.664145 87.2696562,203.664145 C87.2696562,203.664145 85.8528539,206.349665 85.4048967,208.214425 C84.9569184,210.081407 84.8818495,211.573892 84.8818495,211.573892 C84.8818495,211.573892 84.9570348,212.168822 86.4489588,212.766822 C87.9408087,213.364821 88.2393057,212.990102 88.2393057,212.990102 C88.2393057,212.990102 89.5816954,211.797172 90.5526574,209.411419 C91.5215554,207.023655 91.894412,205.528841 91.894412,205.528841 C91.894412,205.528841 92.9380507,206.053423 94.5799324,206.649369 C96.2218776,207.245305 97.2675697,207.470119 97.2675697,207.470119 C97.2675697,207.470119 96.5950094,209.411091 96.1470416,211.573924 C95.6719763,213.867905 95.7749154,215.675611 95.7749154,215.675611 C95.7749154,215.675611 96.4458139,216.34724 97.6396748,216.647283 C98.833557,216.94524 99.4300217,216.647283 99.4300217,216.647283 C99.4300217,216.647283 100.474401,215.528554 101.220369,212.915647 C101.966294,210.30274 102.117617,208.888372 102.117617,208.888372 C102.117617,208.888372 103.22883,209.292422 104.954079,209.707058 C106.818944,210.157111 107.6396,210.155672 107.6396,210.155672 C107.6396,210.155672 107.169816,212.555079 106.965631,214.259476 C106.67809,216.676455 107.182709,218.381804 107.182709,218.381804 C107.182709,218.381804 107.745873,219.050448 108.700174,219.202555 C110.277445,219.454679 110.784149,219.076445 110.784149,219.076445 C110.784149,219.076445 111.982371,217.748239 112.361526,213.074856 C112.740744,208.401367 112.045458,207.139529 111.478747,206.318662 C110.909909,205.497742 103.058697,198.192452 95.8764573,190.401997 C87.6672605,181.496837 84.3197543,174.548843 84.3197543,174.548843 L103.773926,172.591041 C103.773926,172.591041 103.730771,174.854855 102.636885,177.77187 C100.36365,183.834958 98.4888353,184.788454 98.342974,185.917345 C98.1512796,187.369607 98.7833417,188.128551 100.108552,188.507812 C101.435805,188.88703 103.782605,187.976582 105.857901,187.432799 C111.415026,185.980537 116.08735,185.474998 116.08735,185.474998 L123.858646,191.854895 L132.322518,185.158612 C132.322518,185.158612 136.36313,186.106573 139.70926,186.233624 C143.057613,186.358644 145.915986,186.432443 146.405543,184.528063 C146.911855,182.571532 145.354516,179.973973 144.131461,177.265377 C142.908364,174.558793 141.795352,172.08656 141.795352,172.08656 C141.795352,172.08656 145.330742,172.970694 152.97417,173.854149 C160.617069,174.739691 164.216499,174.865102 164.216499,174.865102 C164.216499,174.865102 159.228635,183.896012 151.96542,190.463158 C149.706792,192.507121 146.465242,196.153971 143.373363,199.181281 C140.28339,202.208803 137.438777,204.928936 136.30089,206.191727 C134.931932,207.714908 135.226936,211.686294 135.35403,213.076105 C135.614484,215.953531 136.174558,218.25651 136.995552,219.139722 C136.995552,219.139722 137.123366,219.518464 138.765258,219.203761 C140.407203,218.887047 140.594875,218.571149 140.594875,218.571149 C140.594875,218.571149 141.037688,216.424193 140.720985,213.898824 C140.406356,211.371338 140.090436,210.171316 140.090436,210.171316 C140.090436,210.171316 140.722414,210.109076 142.933144,209.602785 C145.143927,209.098548 145.711706,208.846127 145.711706,208.846127 C145.711706,208.846127 145.963174,211.053735 146.594474,212.949932 C147.227881,214.843906 148.36418,216.675322 148.36418,216.675322 C148.36418,216.675322 148.553482,217.182174 150.259954,216.613294 C151.964351,216.044456 151.901476,215.66436 151.901476,215.66436 C151.901476,215.66436 152.216506,214.022838 151.585164,211.370448 C150.953832,208.718059 150.512163,207.456856 150.512163,207.456856 C150.512163,207.456856 151.207121,207.328397 153.292842,206.569939 C155.376394,205.813588 155.879181,205.558998 155.879181,205.558998 C155.879181,205.558998 156.699635,207.962428 157.270579,209.412573 C158.091499,211.498241 159.480621,213.011896 159.480621,213.011896 C159.480621,213.011896 159.669924,213.454021 161.376395,212.695585 C163.080792,211.939233 162.891744,211.560555 162.891744,211.560555 C162.891744,211.560555 162.952819,209.728927 162.006912,207.328672 C161.058866,204.928417 160.491563,203.601164 160.491563,203.601164 C160.491563,203.601164 160.996775,203.412624 163.017885,202.402096 C165.038985,201.391556 165.67038,200.948775 165.670274,200.948775 C165.670274,200.948775 166.637775,203.049898 167.43998,204.55011 C168.45053,206.446201 170.092476,207.897192 170.092476,207.897192 C170.092476,207.897192 170.472403,208.21163 171.860065,207.39069 C173.249875,206.569759 173.311374,206.127476 173.311374,206.127476 C173.311374,206.127476 173.187307,204.16978 171.860065,201.771536 C170.534823,199.371282 169.964291,198.486482 169.964291,198.486482 C169.964291,198.486482 170.595549,198.044664 172.364546,196.906988 C174.133511,195.771429 174.700655,195.201427 174.700655,195.201427 C174.700655,195.201427 175.978794,197.228666 176.974737,198.674577 C178.239433,200.5061 179.943512,201.645363 179.943512,201.645363 C179.943512,201.645363 180.450015,201.895593 181.775246,200.822549 C183.102499,199.749442 182.976432,199.37124 182.976432,199.37124 C182.976432,199.37124 182.723133,197.980582 181.270871,195.769905 C179.818609,193.559122 178.680404,192.422822 178.680404,192.422822 C178.680404,192.422822 178.996398,192.170963 180.892457,190.52906 C182.786431,188.887115 183.03846,188.507113 183.03846,188.507113 C183.03846,188.507113 184.117283,190.082479 185.754994,191.6661 C187.713643,193.56018 189.038038,194.192422 189.038038,194.192422 C189.038038,194.192422 189.480957,194.318077 190.745716,193.053265 C192.008401,191.79058 191.756668,191.539927 191.756668,191.539927 C191.756668,191.539927 191.313569,190.276925 189.544615,188.128699 C187.77566,185.980474 186.639985,185.095885 186.639985,185.095885 C186.639985,185.095885 187.208124,184.655337 188.850027,182.823815 C190.491972,180.992398 190.555588,180.801868 190.555588,180.801868 C190.555588,180.801868 191.599089,182.036926 193.522246,183.516286 C195.987175,185.410365 197.185609,185.6643 197.185609,185.6643 C197.185609,185.6643 197.503381,185.917048 198.641046,184.527259 C199.778711,183.13747 199.461797,182.947765 199.461797,182.947765 C199.461797,182.947765 199.145093,181.623793 196.809301,179.602694 C194.746497,177.819121 193.586275,177.012226 193.586275,177.012226 C193.586275,177.012226 194.281402,176.191296 195.544076,174.359731 C196.808772,172.528315 196.997397,172.211717 196.997397,172.211717 C196.997397,172.211717 198.612033,173.436296 200.470547,174.674 C202.743782,176.19083 204.195938,176.191466 204.195938,176.191466 C204.195938,176.191466 204.638147,176.254023 205.461163,174.864212 C206.280018,173.476519 206.217832,173.158651 206.217832,173.158651 C206.217832,173.158651 204.955994,171.580745 203.187029,170.318061 C201.42018,169.055376 199.523666,168.043979 199.523666,168.043979 C199.523666,168.043979 200.344194,166.71662 201.165188,165.137233 C201.986107,163.557845 202.302228,162.801123 202.302228,162.801123 C202.302228,162.801123 203.630011,163.807799 206.217832,164.885098 C209.249481,166.147782 210.071407,165.958099 210.071407,165.958099 C210.071407,165.958099 210.314576,166.080409 211.208447,164.442751 C211.966863,163.05294 211.586776,162.73719 211.586776,162.73719 C211.586776,162.73719 210.575909,161.411524 208.175654,160.146723 C205.775294,158.884038 204.386118,158.381145 204.386118,158.381145 C204.386118,158.381145 204.893405,157.179747 205.587304,155.34833 C206.281172,153.516914 206.472147,152.948076 206.472147,152.948076 C206.472147,152.948076 208.125524,153.796188 210.577962,154.527569 C213.547055,155.410994 214.491554,155.094036 214.491554,155.094036 C214.491554,155.094036 214.936262,155.094989 215.440489,153.642727 C215.946812,152.190465 215.692709,151.810993 215.692709,151.810993 C215.692709,151.810993 215.123066,150.800612 212.343509,149.665096 C209.566005,148.52742 207.925541,148.275814 207.925541,148.275814 C207.925541,148.275814 208.429123,146.821859 208.808309,145.305028 C209.187527,143.790315 209.37684,142.652533 209.37684,142.652533 C209.37684,142.652533 211.035404,143.190495 213.354471,143.663485 C216.45069,144.294828 217.588471,143.791659 217.588471,143.791659 C217.588471,143.791659 218.030522,143.725397 218.34514,142.148126 C218.661854,140.568738 218.407168,140.380537 218.407168,140.380537 C218.407168,140.380537 217.7759,139.493789 214.681778,138.672859 C211.58757,137.851886 210.197654,137.852109 210.197654,137.852109 C210.197654,137.852109 210.449979,136.400588 210.702093,134.569065 C210.956302,132.737648 211.018404,131.91657 211.018404,131.91657 C211.018404,131.91657 212.218849,132.420014 215.502528,132.547118 C218.786312,132.674212 219.356103,132.168789 219.356103,132.168789 C219.356103,132.168789 219.862098,131.85233 219.924623,130.275027 C219.989192,128.695639 219.672404,128.567349 219.672404,128.567349 C219.672404,128.567349 218.472171,127.810034 215.440521,127.36828 C212.408871,126.926547 211.398744,127.11605 211.398744,127.11605 C211.398744,127.11605 211.461302,125.535498 211.398744,122.755983 C211.334176,119.978479 211.208543,118.968564 211.208543,118.968564 C211.208543,118.968564 211.587285,119.284177 215.250319,118.842454 C218.913364,118.400721 219.418163,117.769453 219.418163,117.769453 C219.418163,117.769453 219.862055,117.326915 219.672446,115.747506 C219.482848,114.168118 219.165943,114.168012 219.165943,114.168012 C219.165943,114.168012 217.840596,113.598995 214.936072,113.66151 C212.029431,113.726078 210.766217,114.105995 210.766217,114.105995 C210.766217,114.105995 210.702495,112.905127 210.387888,111.009036 C210.071184,109.115062 209.883449,108.35654 209.883449,108.35654 C209.883449,108.35654 211.77827,108.294301 214.557785,107.53579 C217.335289,106.779439 217.902857,106.146509 217.902857,106.146509 C217.902857,106.146509 218.252902,105.664394 217.902857,104.124562 C217.588228,102.736869 217.082106,102.737398 217.082106,102.737398 C217.082106,102.737398 216.071546,102.103409 213.102358,102.545132 C210.135277,102.98894 208.872486,103.556084 208.872486,103.556084 C208.872486,103.556084 208.555995,101.850841 208.049661,100.209001 C207.545423,98.5670561 207.35502,97.9369311 207.35502,97.9369311 C207.35502,97.9369311 208.405264,97.944764 211.586903,96.6737172 C215.060265,95.2839067 214.998131,94.5877312 214.998131,94.5877312 C214.998131,94.5877312 215.123553,93.9577438 214.68182,92.8201421 C214.240097,91.6845833 213.732896,91.3668216 213.732896,91.3668216 C213.732896,91.3668216 211.903914,91.3044971 209.691119,91.873335 C207.482453,92.4400559 205.649343,93.2626162 205.649343,93.2626162 C205.649343,93.2626162 205.144089,91.9362099 204.450274,90.2318132 C203.754363,88.5252995 203.503414,87.8315586 203.503414,87.8315586 C203.503414,87.8315586 205.398023,87.3245265 207.671258,86.0618524 C209.94661,84.7991678 210.640033,83.9138384 210.640033,83.9138384 C210.640033,83.9138384 210.701214,82.9680263 210.00741,81.7679413 C209.311499,80.5677082 208.998532,80.6309006 208.998532,80.6309006 C208.998532,80.6309006 207.417662,80.6301988 205.206985,81.5157431 C202.996202,82.3991672 201.293393,83.4095055 201.293393,83.4095055 C201.293393,83.4095055 200.723931,82.2722531 199.778045,80.6929711 C198.829999,79.1157002 198.388763,78.4188897 198.388763,78.4188897 C198.388763,78.4188897 200.281361,77.5990179 202.554596,75.8945789 C204.829948,74.1880652 205.083035,73.4943243 205.083035,73.4943243 C205.083035,73.4943243 205.145804,72.9872922 204.26022,71.7246181 C203.376796,70.4619335 202.997007,70.5875774 202.997007,70.5875774 C202.997007,70.5875774 201.543792,70.652654 199.397683,71.8528025 C197.249457,73.0530356 195.670175,74.3150852 195.670175,74.3150852 C195.670175,74.3150852 195.040188,73.1774094 193.902586,71.66259 C192.767027,70.1456537 192.261064,69.5766041 192.261064,69.5766041 C192.261064,69.5766041 194.409184,68.2508328 195.988572,66.7340023 C197.565843,65.219183 198.260642,64.0194791 198.260642,64.0194791 C198.260642,64.0194791 198.197238,63.2619424 197.313782,62.3159292 C196.430358,61.3678836 195.922384,61.304977 195.922384,61.304977 C195.922384,61.304977 194.533738,61.6198278 192.325178,63.1345942 C190.112384,64.6515306 188.975978,65.8511286 188.975978,65.8511286 C188.975978,65.8511286 188.344329,65.0918243 186.892003,63.5770472 C185.437624,62.0601109 185.058258,61.6812737 185.058258,61.6812737 C185.058258,61.6812737 187.713187,59.2831361 188.723737,57.955883 C189.734287,56.6286298 190.239086,55.429561 190.239086,55.429561 C190.239086,55.429561 190.491295,54.8632318 189.166085,53.7880392 C187.876302,52.7462106 187.586591,52.8411792 187.586591,52.8411792 C187.586591,52.8411792 186.261666,53.3447712 184.365575,55.0491044 C182.471601,56.7556181 181.332761,58.272131 181.332761,58.272131 C181.332761,58.272131 180.892224,57.766602 179.060691,56.3143294 C177.229158,54.8620569 176.848638,54.6087684 176.848638,54.6087684 C176.848638,54.6087684 178.050459,53.4075826 179.819424,50.7551933 C181.588389,48.1026981 181.332761,47.5341778 181.332761,47.5341778 C181.332761,47.5341778 181.270733,47.0914919 180.197732,46.332992 C179.122613,45.5766408 178.428025,45.5783979 178.428025,45.5783979 C178.428025,45.5783979 177.290244,45.8929418 175.523396,47.9765355 C173.75443,50.0622039 172.744833,51.7040433 172.744833,51.7040433 C172.744833,51.7040433 171.987032,50.9449188 170.280539,49.9343371 C168.576143,48.9237872 168.006458,48.6090951 168.006458,48.6090951 C168.006458,48.6090951 169.268507,46.9025814 170.470752,44.3772121 C171.668762,41.8497258 171.543753,41.1561966 171.543753,41.1561966 C171.543753,41.1561966 171.543753,40.7775923 170.2165,40.0191559 C168.889247,39.2607407 168.386883,39.5147172 168.386883,39.5147172 C168.386883,39.5147172 167.248678,40.0825918 165.796416,42.2911627 C164.344154,44.5019458 163.522334,46.2088829 163.522334,46.2088829 C163.522334,46.2088829 162.702314,45.7671496 160.743772,44.8816297 C158.785123,43.9982056 158.345634,43.8706775 158.345634,43.8706775 C158.345634,43.8706775 159.608636,41.407548 160.429609,39.1343134 C161.250582,36.8589618 161.060168,35.975326 161.060168,35.975326 C161.060168,35.975326 160.805874,35.4065728 159.480674,34.9023246 C158.153421,34.3960017 157.64894,34.6501052 157.64894,34.6501052 C157.64894,34.6501052 156.576574,35.5342491 155.438898,37.7449475 C154.303339,39.9557306 153.669192,41.9768305 153.669192,41.9768305 C153.669192,41.9768305 152.974773,41.6597251 150.82659,40.9658783 C148.678364,40.2699675 148.302279,40.2071455 148.302279,40.2071455 C148.302279,40.2071455 149.249362,37.6189013 149.753589,35.2185409 C150.259912,32.8181804 149.94378,32.0616705 149.94378,32.0616705 C149.94378,32.0616705 149.817162,31.6821347 148.554499,31.3029377 C147.291814,30.9237195 146.532552,31.1747639 146.532552,31.1747639 C146.532552,31.1747639 145.509808,31.7807763 144.636778,34.3957794 C143.753354,37.0502857 143.373565,38.879903 143.373565,38.879903 L140.532974,38.3134361 C138.322191,37.8696282 137.690266,37.8069227 137.690266,37.8069227 C137.690266,37.8069227 138.384992,35.9750826 138.637126,33.0705586 C138.88925,30.1639176 138.511017,29.4712352 138.511017,29.4712352 C138.511017,29.4712352 137.941999,29.0303064 136.679282,28.8406867 C135.416598,28.6510776 134.909576,29.0288139 134.909576,29.0288139 C134.909576,29.0288139 133.964558,30.1657488 133.458267,32.5661092 C132.954029,34.9664697 132.763626,37.2384341 132.763626,37.2384341 L127.83705,36.6719672 C127.83705,36.6719672 127.773857,32.8824314 127.394628,31.050803 C127.017496,29.2192804 125.814711,28.2080954 124.804161,27.9559607 C124.298886,27.828856 123.826965,27.7342896 123.408635,27.7252724 L123.401204,27.7252724 Z"/>
    <path fill="#FFF" fill-rule="nonzero" d="M117.746369,6.2726411 L115.910507,6.40909234 L116.83462,19.5800078 L118.68075,19.4580369 L117.746295,6.27441938 L117.746295,6.27235531 L117.746369,6.2726411 Z M127.659433,6.27470518 L126.95859,19.4667907 L128.80472,19.5474166 L129.168579,12.6402807 L130.975439,19.6776121 L132.825697,19.7685796 L133.516209,6.58284511 L131.659706,6.49394805 L131.262769,14.2611152 L129.247067,6.3553904 L127.659317,6.27470518 L127.659433,6.27470518 Z M144.93627,7.93686773 C143.615368,7.96620511 142.652133,8.86172152 142.409948,10.3660194 C142.220339,11.5183025 142.436305,12.4705291 143.303058,14.3332774 L143.983229,15.8134838 C144.689566,17.1449709 144.831955,17.677714 144.690275,18.5486478 C144.569426,19.3821107 144.21902,19.8002182 143.677259,19.7064351 C142.952186,19.5939165 142.805224,19.1259431 143.023963,17.7445053 L143.098376,17.2131913 L141.285271,17.004381 C141.226948,17.3127538 141.196569,17.4343119 141.165364,17.7093631 C140.982,18.8366656 141.030342,19.4057152 141.378303,20.0641022 C141.761681,20.8287626 142.410457,21.2452824 143.400249,21.4141131 C145.085911,21.6724824 146.207815,20.8362568 146.474451,19.115157 C146.655719,18.0024618 146.380139,16.5911637 145.748796,15.2264397 L145.02728,13.7441163 C144.106332,11.7376237 144.05671,11.563077 144.179655,10.7525836 C144.310919,9.9691348 144.647215,9.58389373 145.13892,9.65894138 C145.557726,9.7214458 145.79229,10.0619864 145.777736,10.6058014 C145.773502,10.8870872 145.751591,11.1173109 145.645423,11.7987309 L147.456411,11.8814315 C147.623103,10.8188033 147.634323,10.7524354 147.617663,10.250283 C147.546849,9.01670709 146.75688,8.17615224 145.52342,7.97821274 C145.32221,7.94614442 145.128198,7.93321061 144.94042,7.93686455 L144.936186,7.93686455 L144.93627,7.93686773 Z M158.291365,11.1371366 L157.693895,12.7621458 L159.320915,13.3348155 L155.382554,24.138925 L157.117118,24.7612066 L161.040977,13.9655651 L162.734154,14.5919854 L163.331635,12.9712102 L158.291376,11.1374648 L158.291365,11.1371366 Z M101.952702,13.3326773 C101.200532,13.3326773 100.582051,13.9552235 100.582051,14.7137023 C100.582051,15.49297 101.200554,16.0864709 101.952702,16.0864709 C102.715299,16.0864709 103.333727,15.4930017 103.333727,14.7137023 C103.333727,13.955287 102.715309,13.3326773 101.952702,13.3326773 L101.952702,13.3326773 Z M83.2860549,13.4257089 L81.0491269,14.2443951 L83.8628316,27.2628866 L85.5436237,26.6571388 L84.8345134,23.7545201 L86.3808761,23.1880533 L87.7205137,25.8694455 L89.4199354,25.249228 L83.2860338,13.4257089 L83.2860549,13.4257089 Z M82.9283984,16.1092181 L85.6160357,21.637446 L84.4252232,22.0716004 L82.9283984,16.1092816 L82.9283984,16.1092181 Z M171.651868,16.2518721 L165.865261,28.1123646 L167.527423,28.9124424 L173.324404,17.0625349 L171.651868,16.2521262 L171.651868,16.2518721 Z M70.8604399,18.7740659 L69.2169069,19.5844747 L74.9993866,31.4386162 L76.6511758,30.6344102 L70.862451,18.7760347 L70.860334,18.7739177 L70.8604399,18.7740659 Z M181.07146,20.9074727 L180.188681,22.3754005 L181.675133,23.260243 L175.760341,33.1030228 L177.329461,34.0540215 L183.242136,24.2091247 L184.792627,25.1477178 L185.669203,23.6653944 L181.071291,20.9074727 L181.07146,20.9074727 Z M60.2013449,25.0547815 C59.7586378,25.0593331 59.2977246,25.203088 58.8224369,25.4889359 C57.3472055,26.3682318 57.1456671,27.7407888 58.2332335,29.5430967 L61.8284287,35.5240451 C62.4347375,36.5387762 62.785535,36.9604296 63.3231366,37.2792498 C63.9940668,37.6897256 64.8727806,37.7102075 65.5249224,37.3247336 C66.077089,36.9892738 66.3679648,36.3993294 66.4200959,35.4992445 L67.135409,36.1256648 L67.9871734,35.6191514 L64.5181513,29.8676858 L62.2502092,31.2404544 L63.0523511,32.5656964 L63.7511305,32.1563533 L64.7310686,33.7875018 C65.1061269,34.4084179 65.1708542,34.5133364 65.2437848,34.757109 C65.3792199,35.1259115 65.2503475,35.516498 64.9274733,35.6957021 C64.669104,35.8582242 64.3009789,35.8073844 64.0509083,35.5365143 C63.8654591,35.332319 63.8538473,35.3251953 63.4079542,34.5834515 L59.8024915,28.5901186 C59.2149181,27.6045493 59.1947749,27.263183 59.711524,26.9589701 C60.2657546,26.6339259 60.6172613,26.8704901 61.388188,28.1476656 C61.5381986,28.393534 61.6410954,28.5581942 61.8182036,28.9353378 L63.387324,27.9760722 C63.1555125,27.5124492 63.0242585,27.3071002 62.8845365,27.0572942 C62.0694915,25.7129992 61.175059,25.0440272 60.201239,25.0544885 L60.2013449,25.0547815 Z M193.094961,28.6602442 L187.171913,36.5287628 C186.230123,37.770595 186.060065,38.0760781 186.007986,38.7594457 C185.962153,39.5387134 186.382621,40.3718587 187.120258,40.9239723 C187.872428,41.5011194 188.776705,41.6661608 189.518396,41.3994717 C190.143503,41.1577738 190.395913,40.9234007 191.341874,39.6711529 L197.285563,31.7985591 L195.805356,30.6945436 L189.421331,39.1707999 C188.965023,39.7708636 188.606022,39.9012496 188.168491,39.5532677 C187.728853,39.2261383 187.7288,38.8405903 188.18712,38.2363879 L194.552622,29.772516 L193.095067,28.6602442 L193.094961,28.6602442 Z M47.6676464,34.9782085 L47.6676464,34.980389 C46.9888303,34.9673059 46.3481203,35.3206861 45.4307183,36.1567 L44.0930919,37.3475125 L52.9332605,47.1592783 L54.2977728,45.9229503 L50.5475073,41.7633628 C50.7392017,41.5737537 50.7836375,41.5297519 50.9919926,41.2630522 L55.5754035,44.7714505 L57.0494706,43.4524536 L51.8686423,39.6277756 C51.7919011,38.3776871 51.5276572,37.8388047 50.41945,36.611474 C49.6737367,35.7784345 49.06457,35.351859 48.3707232,35.110521 C48.1240927,35.0284872 47.8938055,34.9829717 47.6678157,34.9782085 L47.6676464,34.9782085 Z M47.5498036,36.7933878 C47.935521,36.7323017 48.3116589,36.9761907 48.8377864,37.5583234 C49.656642,38.4772072 49.8104209,38.6744058 49.9520693,38.9765017 C50.1187619,39.3765512 49.9973202,39.7586379 49.4951784,40.2045734 L49.3049765,40.3823696 L46.6111999,37.3990932 L46.8096686,37.223361 C47.0831427,36.975672 47.3183837,36.8300013 47.549793,36.7933454 L47.5498036,36.7933878 Z M203.816159,37.4508115 L202.654243,38.7264099 L203.935981,39.8903365 L196.253599,48.4162364 L197.62224,49.6504474 L205.304621,41.112163 L206.644259,42.3257333 L207.802046,41.0356335 L203.816159,37.4508115 Z M37.3776186,44.9449915 C36.6817077,44.9444782 35.9563706,45.2824202 35.4094437,45.8877128 C34.7843465,46.5898688 34.5354614,47.4860478 34.7313474,48.248697 C34.9188713,48.8842204 35.1378961,49.1563714 36.2943285,50.2064986 L41.1174896,54.5459252 C42.2863912,55.591882 42.5677405,55.7666933 43.2386178,55.9000643 C44.0199495,56.0167533 44.8855379,55.6842361 45.5148162,54.9945493 C46.1361557,54.2948808 46.3827862,53.4120918 46.1721447,52.6362113 C45.9869072,51.9862923 45.7868507,51.7269598 44.6172082,50.6642258 L39.7946822,46.3222588 C38.6271567,45.2679928 38.3424202,45.0891063 37.6734482,44.9642033 C37.5750077,44.9504428 37.4765672,44.9440918 37.3770682,44.9440918 L37.3776186,44.9449915 Z M37.2721814,46.7643413 C37.4828864,46.7883058 37.718572,46.9287687 38.0019642,47.1840154 L43.9497816,52.5467998 C44.5165025,53.046867 44.5893273,53.4326479 44.2288763,53.8326656 C43.8517433,54.2514717 43.4806649,54.2046331 42.928509,53.6941503 L36.9659785,48.3275553 C36.4117479,47.8274881 36.3368061,47.4395796 36.6910225,47.0395725 C36.8775091,46.8343293 37.063297,46.7427162 37.2740232,46.7666806 L37.2740232,46.7645636 L37.2721814,46.7643413 Z M214.793216,48.8173021 L204.245476,56.7684365 L207.024038,60.4504288 L208.400935,59.4105372 L206.734644,57.2004951 L210.193399,54.5852591 L211.299425,56.0469418 L212.674205,54.9987833 L211.568179,53.5598584 L214.528697,51.3333037 L216.099935,53.4255348 L217.466458,52.3773657 L214.793322,48.8173021 L214.793216,48.8173021 Z M28.2855164,55.1683021 L25.6041242,58.7138537 L36.1436087,66.6649881 L38.918043,62.9726226 L37.5452744,61.9244535 L35.8727385,64.1551364 L32.4202291,61.5564131 L33.5097431,60.0947304 L32.1349633,59.0631058 L31.037193,60.510287 L28.0746632,58.2733589 L29.658285,56.1977463 L28.2855164,55.1681856 L28.2855164,55.1683021 Z M220.223321,67.0023321 C219.586104,67.064519 219.06437,67.5665126 218.993239,68.2282868 C218.903584,68.9804569 219.46082,69.6686936 220.215065,69.7457524 C220.977661,69.8228429 221.647216,69.2719149 221.720146,68.5260428 C221.805567,67.7613824 221.260874,67.0816137 220.502448,67.0044491 C220.407606,66.994605 220.314384,66.9935995 220.223343,67.0023321 L220.223321,67.0023321 Z M20.8548464,69.0945632 L20.8527294,69.0966802 C19.8636141,69.080591 19.1238813,69.5672893 18.6303028,70.5583628 C17.8781327,72.1190152 18.4647851,73.3648697 20.339992,74.2920099 L26.6221895,77.3510749 C27.6806895,77.8678134 28.1988252,78.0335322 28.8322316,78.0043705 C29.6156804,77.9730918 30.3699146,77.5280137 30.6949799,76.844572 C30.9825215,76.269489 30.9053039,75.6166062 30.4448246,74.8123579 L31.3937487,74.967407 L31.8196256,74.0763617 L25.7931617,71.1386008 L24.6353744,73.5098525 L26.0309008,74.2003544 L26.3864933,73.4726356 L28.1044388,74.3119944 C28.7566336,74.6328786 28.8677443,74.6932978 29.07611,74.8433084 C29.3761524,75.0870916 29.4722007,75.4649761 29.3159238,75.8067128 C29.1721583,76.0879986 28.8411654,76.2290966 28.4827679,76.147825 C28.2243986,76.0873952 28.203525,76.0743016 27.4263319,75.6929981 L21.1497445,72.6374262 C20.1120969,72.1394443 19.9196616,71.8642237 20.1801373,71.3329308 C20.4655936,70.7349312 20.8994939,70.748914 22.2351092,71.4094286 C22.4809776,71.5240218 22.6602452,71.6082678 23.0186427,71.8270386 L23.8249233,70.1668872 C23.3769978,69.9188806 23.1508705,69.7977882 22.9008528,69.6665237 C22.1257662,69.2945985 21.441393,69.1034863 20.847892,69.093854 L20.8548464,69.0945632 Z M232.216126,80.7761692 C231.774171,80.7608209 231.310431,80.8940226 230.202542,81.2909495 L224.107911,83.5175042 C222.641041,84.0571805 222.341486,84.2328597 221.920626,84.7558434 C221.435145,85.4038571 221.33518,86.3223175 221.647734,87.1932513 C221.966533,88.0808565 222.652664,88.7156919 223.427708,88.8822998 C224.084031,89.0198201 224.400131,88.9753843 225.89613,88.4378145 L231.986633,86.1988753 C233.46811,85.6779662 233.761314,85.4959254 234.178046,84.9750376 C234.63645,84.3374501 234.744883,83.42931 234.432329,82.5417578 C234.10937,81.672888 233.431401,81.0341362 232.672996,80.8361967 C232.507351,80.8023247 232.363427,80.7813452 232.216105,80.7762433 L232.216126,80.7761692 Z M232.207658,82.6368005 L232.207658,82.6389175 C232.508114,82.6536836 232.699586,82.8155811 232.81547,83.1268225 C232.988408,83.6498167 232.775459,83.9661812 232.07741,84.2328491 L224.530305,86.9743641 C223.819787,87.2139768 223.446401,87.1106248 223.262963,86.6043019 C223.077514,86.0729879 223.30308,85.7626992 224.003087,85.518916 L231.538655,82.7692506 C231.803534,82.6731494 232.024062,82.6280679 232.204356,82.6369381 L232.207658,82.6368005 Z M17.9566734,88.046794 C17.1940771,88.046794 16.5839047,88.6569875 16.5839047,89.4154345 C16.5839047,90.1738497 17.1939924,90.8005876 17.9566734,90.8005876 C18.7172056,90.8005876 19.327325,90.1738603 19.327325,89.4154345 C19.327325,88.6570192 18.7171315,88.046794 17.9566734,88.046794 Z M238.145843,94.4701954 L225.2766,97.4409815 L225.688008,99.2354565 L231.582159,97.8585597 L231.999769,99.6447785 L233.672305,99.2437022 L233.275367,97.4781242 L236.878819,96.6511711 L237.459755,99.1981338 L239.138431,98.8032604 L238.146087,94.4699731 L238.145843,94.4701954 Z M7.86916839,103.409545 L7.17452776,107.815128 L20.2152478,109.876345 L20.9326356,105.328077 L19.2270745,105.057249 L18.8011976,107.790296 L14.517554,107.103922 L14.7945846,105.313575 L13.099291,105.057217 L12.8139935,106.837191 L9.15677013,106.26866 L9.57438013,103.70095 L7.86881908,103.40945 L7.86916839,103.409545 Z M235.055023,113.512928 C234.300736,113.471329 233.637163,114.021717 233.587201,114.788526 C233.53724,115.536568 234.110545,116.204376 234.866928,116.250209 C235.625343,116.319011 236.278544,115.733005 236.330622,114.984984 C236.384817,114.228633 235.813502,113.55675 235.055023,113.513034 L235.055023,113.512928 Z M6.26024839,117.36862 L6.26024839,117.370737 L6.16514851,119.220995 L11.5795877,119.493887 L11.5010258,121.000979 L6.08658664,120.703276 L5.97908538,122.561896 L19.1711709,123.246206 L19.2662665,121.408332 L13.2171507,121.094085 L13.2977767,119.593132 L19.3468925,119.894974 L19.4419881,118.061228 L6.26048761,117.36862 L6.26024839,117.36862 Z M239.902953,129.369893 L239.816156,131.081699 L228.352601,130.502827 L228.249186,132.344828 L239.729677,132.925765 L239.63039,134.726485 L241.352569,134.823656 L241.625461,129.464999 L239.903282,129.369893 L239.902953,129.369893 Z M7.95384839,131.687373 L6.23166889,131.799013 L6.60379515,137.13904 L8.32597465,137.0274 L8.19986496,135.313582 L19.652835,134.513504 L19.530864,132.685898 L8.069426,133.479773 L7.95364727,131.687309 L7.95384839,131.687373 Z M227.095103,141.612927 L226.359118,146.177709 L228.072935,146.450601 L228.513282,143.713425 L232.79068,144.385329 L232.492977,146.18605 L234.206794,146.450675 L234.483825,144.6562 L238.145177,145.230933 L237.729631,147.813038 L239.435192,148.08593 L240.131896,143.692732 L227.09541,141.612927 L227.095103,141.612927 Z M15.7126534,149.715004 C14.945876,149.715004 14.3296173,150.329283 14.3296173,151.089784 C14.3296173,151.837826 14.9459713,152.454296 15.7126534,152.454296 C16.4669405,152.454296 17.0895502,151.837815 17.0895502,151.089784 C17.0895502,150.329252 16.4669617,149.715004 15.7126534,149.715004 Z M225.517938,154.80276 C224.456051,154.813375 223.716054,155.37926 223.312024,156.498084 C222.697353,158.183745 223.47679,159.390223 225.681265,160.209079 C226.020895,160.315342 226.329332,160.414068 227.002273,160.63702 L227.630757,158.904573 C227.014022,158.708697 226.709799,158.599651 226.301387,158.464216 C225.013722,157.997481 224.718295,157.666647 224.92449,157.08118 C225.128686,156.526949 225.463987,156.468255 226.534998,156.8579 L233.365604,159.334578 C234.440723,159.753395 234.675922,159.993854 234.45713,160.552276 C234.248775,161.162766 233.812493,161.203222 232.433172,160.707325 C232.14147,160.588562 231.991735,160.520638 231.597941,160.335199 L230.967393,162.071774 C231.432043,162.294715 231.632829,162.362449 231.932861,162.470786 C234.095588,163.24799 235.475661,162.818726 236.09446,161.145544 C236.669543,159.516089 235.969207,158.33745 234.000218,157.618622 L227.163366,155.133688 C226.550018,154.908386 226.000498,154.798175 225.517716,154.802907 L225.517938,154.80276 Z M27.5255134,165.178948 L21.9931573,167.643242 L21.2530329,165.966578 L19.6797844,166.679827 L20.4178341,168.335744 L17.035609,169.846965 L15.974992,167.459095 L14.3996265,168.149597 L16.2106141,172.224398 L28.2701046,166.853357 L27.5258521,165.17881 L27.5255134,165.178948 Z M219.590338,166.648887 L218.790261,168.296548 L224.225446,170.946926 L223.557681,172.301065 L218.126729,169.650687 L217.318374,171.298348 L229.178866,177.084956 L229.983083,175.447562 L225.104033,173.061809 L225.773873,171.70767 L230.648795,174.074794 L231.455075,172.429144 L219.590349,166.648781 L219.590338,166.648887 Z M31.3043584,175.021622 C30.6376092,174.982034 30.3288554,175.098152 28.9620037,175.896123 L23.3387225,179.121267 C21.9843717,179.913025 21.720276,180.135966 21.4078068,180.721401 C21.0535903,181.421493 21.1085371,182.346093 21.5752615,183.175427 C22.0461564,183.965121 22.8137065,184.479499 23.6013363,184.529566 C24.2722666,184.558781 24.5934155,184.421822 25.9519473,183.652991 L31.5669722,180.409323 C32.9296851,179.630056 33.1874299,179.415572 33.5000049,178.800933 C33.8771379,178.098777 33.8178619,177.173912 33.3532227,176.375909 C32.8864878,175.557054 32.1108613,175.048868 31.304496,175.02177 L31.3043584,175.021622 Z M31.3477781,176.842983 C31.561087,176.866482 31.7271445,176.994179 31.8604943,177.223387 C32.1376202,177.710953 31.9730869,178.059792 31.3209133,178.438968 L24.3807522,182.445602 C23.7285575,182.81649 23.328455,182.765481 23.0638724,182.307087 C22.7888317,181.832022 22.9492368,181.468607 23.6013893,181.089389 L30.5519237,177.084871 C30.8759305,176.899433 31.134575,176.819548 31.3478627,176.842983 L31.3477781,176.842983 Z M213.367438,178.422477 L212.420578,179.989586 L218.366384,183.566152 L211.304178,181.868847 L210.363521,183.429711 L221.672535,190.239676 L222.61732,188.680824 L215.941784,184.665933 L223.86815,186.576208 L224.686836,185.232442 L213.368295,178.422477 L213.367438,178.422477 Z M205.265362,191.148822 C204.556791,191.138237 203.826542,191.473464 203.286919,192.06054 C202.661811,192.773122 202.417033,193.658769 202.623282,194.42978 C202.819147,195.102785 203.002606,195.343435 204.200659,196.418596 L209.005296,200.751883 C210.161707,201.804085 210.46592,201.979108 211.130552,202.087393 C211.899394,202.201997 212.767099,201.863298 213.398494,201.171547 C214.019411,200.49018 214.255879,199.593853 214.062121,198.83332 C213.866256,198.189488 213.672223,197.90907 212.505385,196.865146 L207.67799,192.517463 C206.525707,191.477751 206.231867,191.292461 205.565118,191.173697 C205.465407,191.157819 205.366575,191.15041 205.265351,191.148928 L205.265362,191.148822 Z M205.151647,192.95981 C205.360267,192.984049 205.594989,193.124258 205.877302,193.37742 L211.841737,198.736076 C212.385542,199.242388 212.471026,199.623967 212.102234,200.034432 C211.733421,200.440737 211.366598,200.391983 210.793611,199.875244 L204.833303,194.516588 C204.279072,194.010265 204.206089,193.630729 204.574881,193.230722 C204.758245,193.026538 204.943059,192.935676 205.151679,192.959894 L205.151647,192.95981 Z M37.4005669,192.986696 C36.6400346,192.986696 36.0257871,193.590549 36.0257871,194.359464 C36.0257871,195.13037 36.6400664,195.736361 37.4005669,195.736361 C38.1652273,195.736361 38.7753467,195.130391 38.7753467,194.359464 C38.7753467,193.590623 38.1652484,192.986696 37.4005669,192.986696 Z M195.974452,200.022016 L192.672779,202.992802 L193.809819,204.260144 L195.757248,202.517324 L203.439629,211.061853 L204.816526,209.833782 L195.974346,200.022016 L195.974452,200.022016 Z M52.1454719,200.47064 L51.0186986,201.766879 L52.9827454,203.482813 L45.4513062,212.15341 L46.8427044,213.358724 L55.5070562,203.383632 L52.1454719,200.47064 L52.1454719,200.47064 Z M61.6926126,208.419763 L55.5379644,220.222038 L57.4730082,221.586551 L66.5260412,211.801671 L65.0664755,210.778324 L63.1045458,213.029753 L61.7400334,212.072552 L63.1644569,209.444931 L61.6925068,208.419509 L61.6926126,208.419763 Z M185.886418,208.756747 C185.370314,208.789349 184.840852,208.989914 184.377208,209.348015 C183.637529,209.893947 183.218998,210.731051 183.277321,211.531171 C183.333527,212.191686 183.476637,212.474305 184.430874,213.74947 L188.332082,218.936543 C189.278063,220.17213 189.532421,220.425217 190.165827,220.658722 C190.905507,220.921252 191.811795,220.737369 192.561954,220.201832 C193.303698,219.616322 193.711802,218.797943 193.663852,218.029049 C193.613891,217.335202 193.443674,217.044315 192.51231,215.806622 L188.606974,210.59478 C187.658929,209.346702 187.406529,209.141353 186.783602,208.880962 C186.50075,208.778605 186.196018,208.737387 185.886354,208.756917 L185.886418,208.756747 Z M185.880067,210.520208 C186.134128,210.526559 186.382833,210.713141 186.661536,211.090803 L191.499199,217.493458 C191.947166,218.097703 191.946923,218.495699 191.519839,218.8187 C191.082266,219.15833 190.714998,219.013464 190.260754,218.427965 L185.433464,212.017054 C184.981305,211.421129 184.981506,211.025155 185.410707,210.702186 C185.574785,210.57796 185.727569,210.516419 185.880003,210.520261 L185.880067,210.520208 Z M60.9135566,213.606784 L61.94932,214.326246 L57.9200339,218.973696 L60.9135778,213.606784 L60.9135566,213.606784 Z M73.1487581,215.806463 L72.3734915,217.328057 L74.8399024,218.595399 L72.8697163,222.451091 L71.2550804,221.60553 L70.4694723,223.164382 L72.0861194,223.983069 L70.4053272,227.274369 L68.0857303,226.098058 L67.2980581,227.627908 L71.2695501,229.643609 L77.2691281,217.880499 L73.148811,215.806897 L73.1487581,215.806463 Z M173.890437,216.188931 C173.605976,216.194223 173.328024,216.258263 173.077954,216.383261 C172.484135,216.656216 172.142441,217.238413 172.015326,218.134338 L171.359966,217.425217 L170.481337,217.861435 L173.408724,223.912668 L175.790349,222.744613 L175.110178,221.330563 L174.384534,221.692348 L173.545176,219.986787 C173.234718,219.322091 173.177622,219.209265 173.121363,218.963429 C173.033825,218.594637 173.178733,218.232905 173.512097,218.068255 C173.814215,217.922405 174.153241,218.029091 174.384534,218.291525 C174.544971,218.495731 174.555122,218.525252 174.944788,219.304541 L177.998349,225.579012 C178.510917,226.620787 178.494626,226.955908 177.95495,227.218416 C177.379867,227.501787 177.040025,227.218459 176.391969,225.882907 C176.27112,225.639124 176.171833,225.453865 176.034312,225.064221 L174.378395,225.882907 C174.572175,226.372548 174.681338,226.602528 174.804272,226.844237 C175.80646,228.892434 177.115613,229.544153 178.713736,228.756523 C180.253536,227.993926 180.577437,226.670854 179.650254,224.770635 L176.588437,218.496165 C176.077954,217.425174 175.771688,216.996164 175.259067,216.614893 C174.855355,216.330992 174.36456,216.179891 173.890427,216.189016 L173.890437,216.188931 Z M85.8380561,221.624117 C84.7807205,221.586011 83.9435528,222.217194 83.4481748,223.445478 C83.0272834,224.470646 82.9618787,225.891989 83.2869229,227.379711 L83.6425154,228.977834 C84.0884085,231.132305 84.1018303,231.326645 83.7913723,232.087178 C83.5038307,232.828921 83.0775516,233.120337 82.6212005,232.924462 C82.2357266,232.780696 82.0681025,232.399329 82.2077292,231.872164 C82.2806599,231.59922 82.3504997,231.376744 82.600528,230.751636 L80.8680811,230.236856 C80.4659463,231.249523 80.4430192,231.297579 80.336767,231.805976 C80.1242308,233.012455 80.7123228,234.026815 81.866617,234.493614 C83.3855645,235.097859 84.795169,234.47509 85.4390545,232.868605 C85.882873,231.787241 85.8888853,230.802413 85.4659298,228.795814 L85.124807,227.197691 C84.7393437,225.745429 84.7357236,225.179978 85.0545121,224.371602 C85.3712153,223.592334 85.7968805,223.259859 86.3052357,223.466097 C86.9886562,223.739042 87.0225282,224.233404 86.5016403,225.518952 L86.2990329,226.017188 L88.0169784,226.641544 C88.1586692,226.370664 88.2022476,226.240288 88.3043399,225.99858 C88.7377322,224.925472 88.8122082,224.358434 88.6371853,223.64998 C88.414244,222.799846 87.8897996,222.257417 86.9646494,221.88853 C86.5682412,221.724971 86.1904096,221.636607 85.8378762,221.623905 L85.8380561,221.624117 Z M161.581141,221.768835 L159.848694,222.393181 L161.721709,227.547123 L162.422553,235.498257 L164.246031,234.826364 L163.532782,229.924556 L166.14389,234.144055 L168.025162,233.461809 L163.445879,226.91234 L161.581119,221.768666 L161.581141,221.768835 Z M136.981601,227.255676 L132.485093,227.811801 L133.142516,234.931907 L134.77991,234.737566 C134.884066,233.979151 135.140647,233.549188 135.538643,233.499227 C135.932447,233.451277 136.183047,233.754569 136.260159,234.417148 L136.779067,238.576735 C136.866605,239.289317 136.670899,239.719598 136.222942,239.765431 C135.637433,239.823754 135.345541,239.326619 135.189253,238.070137 L135.131353,237.542951 L133.328622,237.768295 C133.328622,238.128757 133.348945,238.305166 133.386522,238.657277 C133.659477,240.751307 134.727959,241.782604 136.359425,241.588792 C137.207442,241.482529 137.956596,241.031386 138.341995,240.39798 C138.746215,239.756211 138.793975,239.178905 138.629368,237.768242 L138.244836,234.563845 C137.996893,232.544862 137.162519,231.453231 135.968637,231.609572 C135.410226,231.670012 135.019311,231.998359 134.542097,232.779744 L134.289877,229.418159 L137.146981,229.085314 L136.98159,227.255676 L136.981601,227.255676 Z M111.282279,227.419002 C110.661363,227.956561 110.298647,228.170569 109.446417,228.562288 L109.295496,229.943313 L110.277498,230.048739 L109.107326,241.19792 L111.029986,241.39225 L112.491668,227.567181 L111.282226,227.418325 L111.282279,227.419002 Z M118.1439,227.89864 C117.461326,227.932618 116.87317,228.198175 116.477609,228.659426 C116.006714,229.242829 115.826959,229.848228 115.754029,231.171247 C115.63734,233.490315 115.724391,233.801408 116.609921,234.545216 C115.497226,234.911933 115.4081,235.216114 115.228896,238.529092 C115.158083,239.86259 115.28976,240.593696 115.708524,241.21673 C116.125245,241.820985 116.849375,242.181806 117.686966,242.23181 C119.489274,242.32771 120.400431,241.169393 120.533802,238.744158 C120.698409,235.547912 120.614248,235.185905 119.568334,234.687986 C120.505953,234.065006 120.625955,233.74481 120.740516,231.413199 C120.813447,230.119288 120.697965,229.476567 120.314629,228.880632 C119.92708,228.288877 119.245862,227.9361 118.441613,227.89863 C118.340526,227.894396 118.24143,227.894396 118.14391,227.89863 L118.1439,227.89864 Z M126.372043,227.99581 C125.549007,228.025025 124.87416,228.355108 124.47627,228.940606 C124.049133,229.532361 123.94051,230.179157 123.980098,231.483441 C124.061391,233.812988 124.17537,234.105875 125.117139,234.776752 C124.04202,235.253892 123.968772,235.53848 124.085514,238.870183 C124.141826,240.195319 124.331975,240.914358 124.809105,241.501932 C125.273744,242.066589 126.030614,242.368378 126.859948,242.339216 C128.662256,242.270413 129.473808,241.051656 129.382142,238.615836 C129.275879,235.411227 129.156978,235.061076 128.07553,234.658846 C128.95689,233.950402 129.043676,233.626586 128.9645,231.315891 C128.929041,230.001128 128.759109,229.368569 128.319472,228.814338 C127.879824,228.25799 127.18042,227.96649 126.372043,227.995652 L126.372043,227.99581 Z M118.358881,229.575304 C118.833936,229.583772 118.993737,229.92462 118.968757,230.730974 L118.869575,232.575093 C118.825859,233.383523 118.619018,233.675086 118.137718,233.656351 C117.643896,233.625125 117.465517,233.315419 117.509233,232.496552 L117.608415,230.656562 C117.650014,229.848133 117.852547,229.533705 118.358881,229.575304 Z M126.41957,229.662101 C126.907136,229.643366 127.101593,229.953422 127.130755,230.774373 L127.190666,232.614364 C127.219881,233.420729 127.041344,233.742936 126.574587,233.763789 C126.07035,233.782524 125.855263,233.461968 125.838591,232.66189 L125.772435,230.809515 C125.739092,230.001075 125.917386,229.691316 126.419528,229.662101 L126.41957,229.662101 Z M150.651811,231.462821 C149.891278,231.396136 149.221565,231.963248 149.167476,232.740431 C149.094545,233.490537 149.649443,234.143684 150.409943,234.21037 C151.168369,234.279066 151.831721,233.732478 151.910896,232.974042 C151.962975,232.203083 151.412406,231.533635 150.651916,231.462821 L150.651811,231.462821 Z M97.7162256,231.638554 C96.9578103,231.638554 96.3373176,232.244555 96.3373176,233.005077 C96.3373176,233.765609 96.9577891,234.377846 97.7162256,234.377846 C98.4725767,234.377846 99.0951335,233.76563 99.0951335,233.005077 C99.0951335,232.244545 98.472545,231.638554 97.7162256,231.638554 Z M118.038367,235.634814 C118.580107,235.682764 118.764329,236.004093 118.724741,236.902156 L118.608973,239.240383 C118.548532,240.134233 118.327846,240.466549 117.790286,240.439452 C117.213139,240.410343 117.047643,240.105675 117.099774,239.161842 L117.213489,236.823616 C117.273929,235.885986 117.47787,235.607823 118.038367,235.63492 L118.038367,235.634814 Z M126.634551,235.750583 C127.180473,235.731847 127.39086,236.053822 127.434629,236.939278 L127.51317,239.289889 C127.542385,240.173313 127.347885,240.507482 126.806134,240.526217 C126.245659,240.565805 126.043485,240.260618 126.012259,239.327148 L125.919217,237.007551 C125.890108,236.063687 126.071959,235.769318 126.63453,235.750583 L126.634551,235.750583 Z"/>
    <g stroke="#003057" transform="translate(40.878 26.409)">
      <path fill="#FFF" fill-rule="nonzero" stroke-width="1.011" d="M145.90364,130.72475 C145.318131,128.216105 135.618725,124.136117 135.618725,124.136117 L138.189927,118.351944 C138.189927,118.351944 146.707677,121.243977 150.401842,121.083509 C154.098124,120.923072 154.919096,109.992546 155.062841,109.19232 C155.865025,104.6938 156.029621,97.6631376 155.942136,94.5945461 C155.752527,87.9603974 154.55656,83.0124391 153.677264,81.1642981 C151.943653,77.4721443 149.545515,78.7681716 146.716039,79.6474676 C143.901064,80.5059111 141.054652,81.38309 141.054652,81.38309 L136.929042,74.4282158 C136.929042,74.4282158 143.671687,71.1695177 147.159444,68.9959938 C150.639051,66.8123083 147.588666,63.3203168 145.41546,61.1678571 C143.236008,58.9862886 128.442412,41.5856071 121.437259,35.9353341 C114.4157,30.2702421 113.650933,33.7558826 111.044377,40.2859808 C108.439832,46.8095163 107.137665,50.7270248 102.791253,62.0328633 L96.2528981,60.7285795 C96.2528981,60.7285795 104.522959,38.331778 105.837616,33.9591145 C107.137771,29.618947 103.878967,28.5268925 101.695388,28.093966 C100.245243,27.810595 98.0052448,26.7417323 92.8902553,26.066621 L71.8292808,26.120795 C68.9996986,26.7187946 65.3782525,27.8835151 64.2864098,28.0939449 C62.1278107,28.5273371 58.846249,29.6191375 60.1525439,33.9590934 C61.4631786,38.3326037 69.7309104,60.7285584 69.7309104,60.7285584 L63.1989069,62.0328421 C58.846249,50.7270036 57.5438706,46.8094951 54.9330804,40.2859596 C52.3306523,33.7560731 51.5596409,30.2699033 44.5444321,35.9353129 C37.5371621,41.5861151 22.7435661,58.9862674 20.5641146,61.1678359 C18.4033986,63.3201898 15.3508963,66.8122871 18.8263752,68.9959726 C22.3143444,71.169179 29.0546607,74.4281946 29.0546607,74.4281946 L24.9249229,81.3830689 C24.9249229,81.3830689 22.0974577,80.5058899 19.2635357,79.6474464 C16.4444326,78.7681505 14.0419552,77.4722289 12.3065444,81.1642769 C11.4356106,83.0124179 10.2396115,87.9609054 10.0500341,94.5945249 C9.95627217,97.9116522 10.3209043,104.279271 10.8959873,108.262935 L12.4983446,117.091355 L24.7473066,118.351922 L28.1227573,117.70809 L31.4420016,124.019396 C27.7478366,125.10076 24.4828933,127.059408 22.0970343,128.151145 C19.6987909,129.224252 19.1841482,132.799653 21.8782529,137.281766 L30.8024664,149.723375 C34.5342082,154.109375 38.4390147,157.543044 43.9215154,161.193281 C50.3868334,165.500106 64.7305669,162.428868 64.7305669,162.428868 L83.5083569,182.745717 L101.054053,162.011819 C101.054053,162.011819 118.79663,163.345317 123.09414,160.79285 C128.747059,157.4174 132.718551,153.569117 136.151796,149.217094 C136.151796,149.217094 147.028942,135.546567 145.903227,130.725099 L145.90364,130.72475 Z"/>
      <g stroke-width=".961">
        <path fill="#B3A369" fill-rule="nonzero" d="M77.344595,37.890066 L77.344595,36.0356799 C74.7338048,33.2165768 68.10389,24.6239914 73.9732725,16.5762159 C74.9588418,9.2879141 78.4280756,6.7708011 79.4113162,5.48525285 C80.3843424,4.18096915 80.7135888,0.58249255 82.7762877,1.14307415 C84.8536998,1.67231356 85.1682861,2.21618145 85.9371804,2.75368775 C86.6955957,3.3016732 86.6955957,6.13538355 86.8039861,8.09593725 C86.9144194,10.0587138 87.1248598,13.6340093 89.2980238,15.926191 C91.4795923,18.2056708 94.4133309,25.2775093 90.71906,29.834881 C87.36859,33.9958445 87.5936271,36.693961 88.1519858,37.890066 L77.3447008,37.890066 L77.344595,37.890066 Z"/>
        <path d="M89.9725,30.825637 C87.1283105,33.9530811 85.0697397,35.5971433 85.0697397,37.1200073 L85.0697397,40.3891845 M85.3906134,2.4271405 C84.8572352,3.1918009 83.7946071,11.732414 85.5010467,21.4547365 C86.2615789,25.8094055 84.2008911,26.6824563 82.2423486,30.5975302 C80.279572,34.508476 79.4148834,36.590228 79.8441051,38.9713237 M74.0699876,15.3635982 C73.857462,18.961969 72.9927522,27.7734523 80.8189836,33.6396592 M82.5629682,1.02304025 C83.2172271,2.0064926 82.3421016,16.4623212 82.2358388,18.7486812 C82.1233309,21.0240328 77.9894544,24.730794 77.4518422,30.6017642"/>
        <path fill="#FFF" fill-rule="nonzero" stroke-linejoin="round" d="M155.3878,109.967565 C156.798357,112.588729 158.534085,117.802053 150.599675,119.321 M13.4710002,111.17055 C11.7248986,113.656332 10.6352787,115.087741 10.6352787,117.806816 M70.8162962,94.3769185 C70.8162962,87.6221008 76.2919167,82.5809945 83.0430297,82.5809945 C89.8020815,82.5809945 95.2919917,87.621254 95.2919917,94.3769185 C95.2919917,94.5477816 100.617834,94.4311137 100.617834,94.4311137 C100.567873,84.7463679 92.7103102,77.7470367 83.0065115,77.7470367 C73.301125,77.7470367 65.4417625,84.7458387 65.4417625,94.4311137 L70.8152377,94.3769185 L70.8162962,94.3769185 Z M102.463329,99.0787755 L102.463329,99.4413223 C102.463329,99.6767751 102.27372,99.8663842 102.023681,99.8663842 L64.4003573,99.8663842 C64.1711603,99.8663842 63.9607199,99.6767751 63.9607199,99.4413223 L63.9607199,99.0787755 L63.9607199,99.0017167 C63.5398285,98.9475215 63.2001876,98.5829212 63.2001876,98.1307829 L63.2001876,96.107566 C63.2001876,96.0305072 62.6688736,95.9429692 62.6605114,95.4929056 L62.6605114,94.9949131 C62.6605114,94.7573857 62.8542804,94.5552757 63.0918184,94.5552757 L102.928466,94.5552757 C103.159748,94.5552757 103.355602,94.7573857 103.355602,94.9949131 L103.355602,95.4929056 C103.355602,95.730433 103.170164,95.9846318 102.943052,95.9846318 C102.943052,95.9846318 102.878484,96.0304649 102.878484,96.107566 L102.878484,98.1307829 C102.878484,98.4579017 102.743048,98.7433368 102.474253,98.8975603 C102.474253,98.8975603 102.463668,99.0017167 102.463668,99.0788284 L102.463329,99.0787755 Z M70.3812527,113.790867 C71.5230567,115.322305 71.8980832,119.20827 69.4519427,120.143984 C65.103413,121.800431 62.7341724,118.96672 56.3625317,123.934049 C58.7170591,119.433519 62.3986279,118.272662 64.1488577,117.912243 C66.2095455,117.483021 70.9809459,117.103813 70.3807764,113.790867 L70.3812527,113.790867 Z M70.3812527,103.949993 C71.0355116,105.966858 70.2166454,106.952534 66.957852,108.296405 C63.6949199,109.659118 64.7826345,112.388566 65.4930997,113.257489 C66.1389964,111.453064 69.9728834,110.367572 71.1899467,108.794429 C72.2859176,107.371382 71.8004366,105.100159 70.3815174,103.950098 L70.3812527,103.949993 Z M95.7323277,114.354518 C94.6321228,115.319235 94.5238383,116.96732 94.6738277,117.932037 C94.8217637,118.878018 97.7430543,122.824424 110.644476,120.563679 C108.810942,120.269893 108.744257,120.184461 108.227497,119.676074 C109.190097,118.665524 110.273577,118.517652 110.571545,117.561191 C106.406348,118.809268 94.4484731,118.371685 95.8425176,114.327474 L95.7320843,114.354571 L95.7323277,114.354518 Z M95.7748794,104.672419 C94.3142553,106.347601 93.4766642,108.295876 95.8624174,109.573062 C97.7814779,110.604464 99.9941663,111.044165 100.238045,112.78815 C101.33825,111.692179 101.690307,109.591903 99.4441697,108.423002 C98.4794528,107.910434 94.8498563,107.3708 95.7749853,104.672525 L95.7748794,104.672419 Z M71.4696024,99.9858041 C74.1825379,105.267719 75.6555465,108.151602 83.2676434,108.151602 C91.8584294,108.151602 93.1064009,103.746866 94.6941509,100.252546 C89.9685835,103.678064 87.0263769,104.711477 83.0442999,104.711477 C79.0875211,104.711477 76.3080059,104.007204 71.4696024,99.98591 L71.4696024,99.9858041 Z M95.8256874,119.633681 C95.8151024,124.755128 95.7923447,125.35752 95.7923447,125.35752 C95.7923447,125.35752 95.8818938,126.65143 95.0255673,127.511991 L95.0255673,132.241792 L101.105591,132.241792 L101.105591,127.511991 C100.238786,126.651483 100.345059,125.35752 100.345059,125.35752 C100.345059,125.35752 100.317961,126.282649 100.305471,121.161203 C100.305471,121.161203 99.8845798,121.17581 97.8801301,120.479846 C96.0361172,119.842259 95.8256874,119.633893 95.8256874,119.633893 L95.8256874,119.633681 Z M98.179368,110.675066 C96.283277,109.883308 95.7936149,109.537391 95.7936149,109.537391 L95.7936149,114.379711 C95.7936149,114.379711 95.224777,115.715326 97.1895647,116.82167 C98.520946,117.569712 100.285783,117.817613 100.285783,117.817613 L100.285783,112.760735 C100.285783,112.760735 99.9961563,111.433482 98.1792622,110.675066 L98.179368,110.675066 Z M95.8386011,106.420531 C95.8386011,106.420531 95.8280161,104.597371 95.8032472,104.19313 C95.751169,103.468057 95.7803836,102.784584 95.5073753,101.984464 C95.1510736,101.8011 94.9698161,101.334386 94.8948214,100.796827 C94.7072975,100.519701 94.4593439,100.215499 94.175994,99.8841881 L101.787668,99.8841881 C101.61473,100.071712 101.639732,100.271737 101.504296,100.425928 C101.44809,101.186461 101.260513,101.899043 100.702112,102.044904 C100.699995,102.474126 100.579178,102.79501 100.418741,103.028357 C100.360418,103.41382 100.360418,103.799315 100.339565,104.19313 C100.32083,104.514004 100.310457,109.02296 100.310457,109.02296 C100.310457,109.02296 99.9124819,108.527063 99.0540172,108.241628 C98.1955737,107.956172 97.4412866,107.772818 96.5807261,107.174872 C96.189007,106.901916 95.828556,106.237252 95.828556,106.237252 M85.3398795,104.598906 C85.3835955,103.873833 85.3398795,102.819567 85.6169948,102.019341 C85.9732965,101.835988 86.1483089,101.3672 86.2295487,100.831704 C86.4191578,100.554589 86.6587705,100.250376 86.9567382,99.9170017 L79.1492422,99.9170017 C79.3242652,100.106611 79.4805421,100.306636 79.6118067,100.460806 C79.6722471,101.221338 79.8660055,101.93392 80.4119269,102.079782 C80.4225119,102.509004 80.5411062,102.829888 80.7119587,103.063234 C80.7535578,103.448697 80.7515466,104.17794 80.7848894,104.571808 C80.7848894,104.571808 81.4037414,104.761417 83.1540241,104.728075 C84.9001257,104.694732 85.3397207,104.598895 85.3397207,104.598895 L85.3398795,104.598906 Z M85.4621892,108.112067 L85.4976489,125.264001 C85.4976489,125.264001 85.4184731,126.560029 86.2748525,127.416355 L86.2748525,132.23994 L80.1863605,132.23994 L80.1863605,127.416355 C81.04274,126.559976 80.9614472,125.264001 80.9614472,125.264001 L80.9864278,108.059142 C80.9864278,108.059142 81.4093938,108.136201 83.1013108,108.136201 C85.2620268,108.136201 85.4704455,108.084123 85.4704455,108.084123 M68.1449175,107.743233 C68.9700182,107.278594 70.0097828,106.653507 70.2701738,106.080541 C70.2701738,106.080541 70.3117728,105.195 70.3117728,104.228166 C70.3117728,103.47806 70.3346364,102.81962 70.6076447,102.0195 C70.9660317,101.834062 71.145204,101.367305 71.2181346,100.831863 C71.4077437,100.554748 71.6556973,100.250535 71.939079,99.9171604 L64.7650952,99.9171604 C64.9359583,100.104684 64.475479,100.30472 64.6088288,100.460965 C64.6692692,101.221497 64.8546972,101.932068 65.4130771,102.079941 C65.4151941,102.507077 65.5360113,102.830047 65.6964482,103.061329 C65.7547715,103.446803 65.7547715,103.834351 65.775624,104.228219 C65.7943594,104.547018 65.8069556,109.007982 65.8069556,109.007982 C65.8069556,109.007982 67.3280201,108.203734 68.1447587,107.743286 L68.1449175,107.743233 Z M68.3205649,116.880734 C66.3953652,117.599562 65.8056748,117.55791 65.8056748,117.55791 L65.8056748,112.71559 C65.8056748,112.71559 66.7328679,111.702976 67.9309311,111.00082 C69.2477051,110.227797 70.2979488,109.67145 70.2979488,109.67145 L70.2979488,115.061861 C70.2979488,115.061861 70.0645813,116.230762 68.3206708,116.880787 L68.3205649,116.880734 Z M67.2277696,120.680961 C67.8007356,120.653863 68.7363438,120.445519 69.4655444,120.18715 C69.9406098,120.018372 70.3510855,119.587086 70.3510855,119.587086 L70.3114976,125.35644 C70.3114976,125.35644 70.2323218,126.650351 71.0907653,127.510911 L71.0907653,132.238596 L65.0022733,132.238596 L65.0022733,127.510911 C65.8565357,126.650404 65.7752958,125.35644 65.7752958,125.35644 L65.8023934,120.889147 C65.8023934,120.889147 66.0566028,120.734955 67.2275578,120.680781 L67.2277696,120.680961 Z M59.7267093,134.241405 C59.7267093,133.764265 59.4787663,132.795388 60.6018242,132.2745 L105.617712,132.2745 C106.594919,132.416191 106.482401,133.983131 106.482401,134.460197 M91.8899198,141.189081 L70.5664373,141.189081 M101.587897,145.973289 C97.8894978,144.773162 94.4784816,144.552253 92.7848816,146.200401 C88.8676906,150.00719 104.525764,150.992654 105.723986,157.626909 M62.5541216,146.30731 C65.166923,146.090613 70.6341813,145.457175 70.9263273,147.397035 C71.3576343,150.232757 61.5728921,155.114559 58.5207073,157.296127 M3.61101983,120.312137 C-0.743649175,118.686916 0.341842575,115.955351 0.775298325,114.446989 C1.21077581,112.930158 3.16941363,109.004711 4.68836113,106.827377 C8.39099413,105.316685 10.9975504,107.927581 13.3934651,111.192525 C17.0918641,109.233876 25.7863831,109.867283 26.2203681,122.496246 C21.6592916,128.155516 14.4816031,130.437113 15.9984336,136.418697 C28.3998196,140.550446 66.8953476,130.757309 70.5905711,136.18534 C70.3717898,141.854666 71.2344038,145.342953 71.026038,148.169677 C75.3703337,148.169677 86.452617,147.171617 92.1060655,147.832132 C91.8914547,141.9691 91.6935152,136.184398 91.6935152,136.184398 C97.5565467,127.716398 133.647163,145.644212 153.451698,131.281637 C150.401312,127.791551 150.872133,129.02301 148.232234,128.797973 C145.636051,128.583362 135.180929,122.709481 142.800012,111.416345 C147.456883,104.49693 154.111143,107.488674 155.428976,110.091103 C159.335687,105.74469 161.721229,105.10091 164.549012,107.269882 C165.415817,110.312011 165.201154,111.618412 165.638737,114.231108 C166.070044,116.841898 164.990724,119.444326 159.110968,122.269886 C160.85707,119.238236 161.069616,117.827573 161.290419,115.32295 C155.852376,119.88191 149.543186,123.584543 148.232763,120.106947 C146.932608,116.618978 154.554655,115.95424 150.849799,112.262404 C147.155528,108.580729 140.633686,120.536169 150.414321,127.931379 C154.171044,130.767101 153.898057,131.631895 153.673019,135.561576 C153.460494,139.457915 153.673019,141.426725 153.673019,144.027459 C153.673019,146.640261 150.733036,147.311244 145.636358,148.169687 C132.580819,150.342894 113.002803,147.94465 101.475738,145.975629 C103.436398,151.424257 106.261852,155.116305 105.832524,157.735564 C105.394961,160.337992 103.873876,160.788066 92.3366492,159.031591 C80.8117012,157.29798 69.2962797,159.910887 63.4078442,161.654872 C57.5405787,163.380121 56.0173972,160.338098 57.9756222,158.175264 C59.9279196,155.993696 62.32828,150.780583 62.544955,146.417446 C51.451875,145.975713 25.7589045,153.75391 10.996005,146.86334 C9.36655007,146.094498 9.90627922,143.385744 9.68960427,140.764792 C9.4708229,138.143628 8.82697969,132.930304 11.2252761,131.204949 C13.6130404,129.452708 17.0904246,127.279396 20.9952311,126.635616 C21.87241,123.370567 21.2223428,122.710063 20.7806096,121.17852 C17.7469486,123.137168 10.5565581,122.709957 10.5565581,117.934323 C8.38959691,115.546559 7.29987116,115.108975 4.47018311,114.894311 C3.72425816,116.55912 3.38246851,117.934323 3.60967553,120.311714 L3.61101983,120.312137 Z M155.37875,109.971651 C156.789307,112.592814 158.525035,117.806139 150.590625,119.325086 M13.4619501,111.174636 C11.7158485,113.660417 10.6262286,115.093838 10.6262286,117.810902"/>
      </g>
    </g>
    <path fill="#003057" fill-rule="nonzero" d="M82.6761472,60.797458 C75.4751717,61.0520273 68.5282362,67.1147977 65.4966922,73.5576755 C62.4652541,80.0002358 60.8230972,86.5666405 60.1918078,95.1553095 C59.5584014,103.746096 59.8122085,110.82111 61.8333296,124.717098 C64.6505273,144.097174 76.7370096,163.242264 76.7370096,163.242264 C76.7370096,163.242264 82.1706076,162.486495 86.0877986,162.107234 C90.0031901,161.728005 95.8127673,161.220327 95.8127673,161.220327 C95.8127673,161.220327 83.8125528,145.558761 78.8873523,121.810255 C76.4015709,109.829094 78.7591786,98.3147309 78.7591786,98.3147309 C78.7591786,98.3147309 95.0558446,104.05794 123.73061,104.05794 C152.405375,104.05794 169.078867,98.3147309 169.078867,98.3147309 C169.078867,98.3147309 171.386291,106.808664 168.698473,122.064295 C164.783611,144.295971 151.89902,161.220327 151.89902,161.220327 C151.89902,161.220327 156.57198,161.978266 160.99344,162.609609 C165.414689,163.24094 170.594353,163.620561 170.594353,163.620561 C170.594353,163.620561 180.972522,148.971979 185.752073,125.473279 C188.025307,114.292344 188.445849,103.604669 187.647846,95.0308193 C186.84979,86.4590863 184.832025,80.0043533 182.97351,75.3247248 C178.804608,64.8400706 170.719256,60.9238323 164.656168,60.7968123 C158.84278,60.6761433 153.034896,67.9981054 154.676947,74.5678973 C156.318681,81.1353606 164.27786,81.8926115 164.27786,81.8926115 C164.27786,81.8926115 155.814941,87.704094 142.678109,85.3038394 C134.806362,83.8663964 132.318464,77.9770083 132.318464,77.9770083 C132.318464,77.9770083 134.868496,77.3131065 134.214237,74.6919535 C133.962155,73.6813824 131.435675,73.4287396 131.435675,73.4287396 C131.435675,73.4287396 132.066805,70.3985717 133.583689,69.2608959 C135.179695,68.0627797 138.381763,67.872779 137.625465,65.5975332 C136.762787,63.0179687 129.666921,64.3343193 123.478612,64.3343193 C117.288504,64.3343193 111.094162,62.8783526 110.34051,65.5975332 C109.709168,67.8728848 111.856812,67.6190565 114.130046,69.2608959 C116.405398,70.9049581 116.284306,73.5486677 116.284306,73.5486677 C116.284306,73.5486677 114.003767,73.1772506 113.497487,74.9441941 C112.857835,77.1862029 115.405645,78.0949252 115.405645,78.0949252 C115.405645,78.0949252 112.867679,83.9151933 103.77273,85.4300126 C93.1422142,87.2032118 83.4400032,82.0187847 83.4400032,82.0187847 L83.1795169,81.8947391 C83.1795169,81.8947391 90.1301572,81.8932572 93.0346812,74.9442047 C95.2580604,69.6289469 89.8760113,60.5454292 82.677047,60.7973522 L82.6761472,60.797458 Z M205.208107,139.763675 C203.971885,139.806333 202.966839,140.411117 201.602645,141.628434 C201.602645,141.628434 203.330117,142.145057 200.517259,147.772709 C200.181799,148.441576 202.981341,147.718938 204.86907,145.595798 C206.208813,144.089341 207.381208,140.091598 206.543617,139.906361 C206.058136,139.798013 205.620171,139.749491 205.208107,139.763717 L205.208107,139.763675 Z M45.0358872,140.859434 C43.5021207,140.800582 41.2579949,141.588423 41.0768855,143.669011 C40.9956245,144.592076 44.6782201,146.935436 44.6782201,146.935436 C43.840629,142.918217 46.462216,141.235308 45.9496903,141.031017 C45.7055155,140.933 45.3898708,140.873004 45.0359084,140.859424 L45.0358872,140.859434 Z M55.8770442,142.569123 C55.0636823,142.587859 54.2194332,142.863535 53.3754912,143.505642 C50.8230243,145.447566 53.3701987,147.419128 54.0205199,147.692115 C54.0205199,147.692115 54.8776509,148.810103 57.9009809,148.610036 C62.9246219,148.274576 61.9716544,147.152481 61.9716544,147.152481 C61.2962784,145.713874 58.7854635,142.50556 55.8790342,142.56907 L55.8769172,142.56907 L55.8770442,142.569123 Z M62.6848928,152.982541 C62.6848928,152.982541 52.4192423,155.550356 50.9672978,159.511369 C50.4068221,161.040689 50.8799081,161.884631 52.8072884,162.424361 C56.1577584,163.36198 58.3333993,163.530387 58.3333993,163.530387 C58.3333993,163.530387 55.8899579,162.312795 56.6588523,160.181187 C58.1653095,155.997254 62.6853162,152.982541 62.6853162,152.982541 L62.6848928,152.982541 Z M105.543558,163.383573 C104.382913,163.412682 103.362307,163.92796 103.376914,165.167781 C103.389404,165.613674 103.572758,166.033793 103.910303,166.325568 C104.322864,166.656857 104.882281,166.754896 105.369869,166.842413 L105.729589,166.881683 C106.338015,166.958742 106.528566,166.977265 106.666118,167.173183 C106.707717,167.221133 106.732275,167.309031 106.732275,167.386122 C106.732275,167.542388 106.663049,167.668667 106.527603,167.756184 C106.317163,167.91245 105.972854,167.952588 105.799884,167.952588 C104.899789,167.961057 104.505339,167.493919 104.288664,167.191792 L103.244633,168.049748 C103.867614,168.906138 104.981314,169.110471 105.762699,169.091714 C106.931601,169.070862 108.163165,168.556664 108.13194,167.183556 C108.113204,166.004176 107.271877,165.759768 107.01554,165.680592 C106.788417,165.61179 106.707728,165.613378 105.884638,165.486262 C105.317907,165.419577 105.064894,165.379735 104.931565,165.254715 C104.844027,165.185913 104.790986,165.096417 104.790986,164.981824 C104.790986,164.66095 105.162096,164.502323 105.562124,164.483577 C106.310166,164.472992 106.732719,164.953255 106.941032,165.167887 L107.881689,164.396748 C107.304542,163.625843 106.381054,163.373306 105.543463,163.383732 L105.543558,163.383573 Z M98.9072921,163.916962 C98.7999708,163.919079 98.6933587,163.924371 98.5889165,163.935592 C97.4408674,164.062686 96.477209,164.668095 96.6001008,165.905778 C96.6459339,166.34333 96.8597932,166.755563 97.2285852,167.007676 C97.6682332,167.309804 98.2233106,167.348503 98.7150367,167.386005 L99.0982137,167.37542 C99.7107677,167.406752 99.8887439,167.41342 100.051277,167.578028 C100.0888,167.638468 100.121455,167.726271 100.133977,167.803372 C100.148584,167.949222 100.083201,168.085758 99.9665225,168.194106 C99.7706576,168.360799 99.4199342,168.427643 99.2532734,168.438059 C98.355242,168.533959 97.9239033,168.084499 97.6737797,167.82197 L96.7168957,168.764035 C97.4065614,169.564155 98.5508528,169.678568 99.3176302,169.582721 C100.480287,169.476458 101.665277,168.85333 101.51116,167.478105 C101.388226,166.307087 100.529062,166.143019 100.272821,166.084696 C100.037368,166.047225 99.9672528,166.016634 99.1192673,165.987526 C98.5525464,165.956194 98.293415,165.949102 98.1537989,165.840743 C98.0725378,165.784537 98.0092607,165.665689 97.9863442,165.578182 C97.9530014,165.236467 98.3119705,165.061772 98.7119988,165.003459 C99.4621049,164.936774 99.9133963,165.363593 100.148807,165.578182 L101.031575,164.72229 C100.464589,164.10058 99.6637809,163.885821 98.9124576,163.899476 L98.9072921,163.916962 Z M147.407762,164.287024 C146.436747,164.274005 145.581109,164.673842 145.433448,165.740345 C145.379253,166.177907 145.482774,166.657821 145.776635,166.976673 C146.12251,167.378818 146.65791,167.552296 147.116272,167.70853 L147.48427,167.816031 C148.078089,167.980639 148.244231,168.031436 148.350505,168.246047 C148.381836,168.30437 148.389775,168.371331 148.381519,168.477594 C148.3649,168.615114 148.262713,168.722922 148.121032,168.810439 C147.891835,168.935459 147.545505,168.90581 147.378844,168.868339 C146.487058,168.741245 146.177023,168.215488 146.001947,167.89254 L144.84416,168.556166 C145.3213,169.512521 146.394862,169.901202 147.163757,170.007476 C148.318051,170.153326 149.60995,169.852797 149.80789,168.477626 C149.974582,167.308724 149.191684,166.938249 148.945794,166.840232 C148.731183,166.713138 148.648155,166.69526 147.843896,166.461892 C147.30422,166.305637 147.065411,166.206423 146.946648,166.09183 C146.879962,166.002175 146.83704,165.894282 146.841221,165.777593 C146.901661,165.467146 147.295021,165.351251 147.688847,165.409595 C148.430591,165.507506 148.762483,166.03175 148.945816,166.31511 L150.004316,165.682498 C149.550092,164.853205 148.673252,164.453473 147.829416,164.317985 C147.687725,164.299991 147.546383,164.288771 147.407667,164.286971 L147.407762,164.287024 Z M94.4457146,164.549575 L90.3088849,165.058152 L90.9807889,170.544993 L95.3492184,170.007465 L95.2127672,168.860051 L92.2253627,169.228049 L92.0661748,167.95044 L94.2472141,167.669281 L94.1128375,166.616984 L91.9359264,166.881609 L91.8263505,165.994702 L94.5738989,165.663921 L94.4457252,164.549638 L94.4457146,164.549575 Z M152.48327,165.097433 L151.705939,170.582157 L156.072251,171.179627 L156.227301,170.017817 L153.244024,169.600207 L153.419756,168.343239 L155.592539,168.634739 L155.749663,167.572111 L153.581008,167.251671 L153.692648,166.381298 L156.444325,166.755499 L156.593182,165.661857 L152.483238,165.097433 L152.48327,165.097433 Z M86.6826756,165.568794 C86.3461679,165.549529 86.0090144,165.590175 85.7048015,165.632833 L83.5505423,165.905725 L84.2224464,171.392565 L85.6221009,171.227175 L85.4008956,169.364426 L86.1100059,169.277629 L87.3255873,171.02045 L88.8492981,170.815789 L87.4827746,168.878628 C88.1974738,168.555669 88.4840521,167.856635 88.4006952,167.154437 C88.3298498,166.568928 88.0210112,166.120653 87.6605708,165.866454 C87.3542727,165.667467 87.0191939,165.588027 86.6826968,165.568751 L86.6826756,165.568794 Z M184.59816,165.684572 L180.510974,166.482575 L181.555004,171.909505 L185.890302,171.078413 L185.654617,169.939255 L182.712728,170.505722 L182.474978,169.25701 L184.620875,168.8394 L184.420342,167.756131 L182.259944,168.186147 L182.08835,167.309582 L184.807002,166.782396 L184.598202,165.684572 L184.59816,165.684572 Z M158.788754,165.837557 L158.309127,171.343028 L159.706664,171.458806 L159.863788,169.600186 L160.574962,169.655969 L161.422598,171.605514 L162.952449,171.760563 L162.011791,169.569151 C162.78275,169.394128 163.206309,168.780812 163.264632,168.068198 C163.322955,167.474379 163.111964,166.977096 162.805677,166.656159 C162.288938,166.129005 161.553577,166.092201 160.934672,166.033877 L158.788669,165.837473 L158.788754,165.837557 Z M79.3843181,166.327526 C79.2201447,166.319058 79.044656,166.323292 78.8571322,166.344039 C77.0798048,166.529478 76.2717459,167.952747 76.4258635,169.511283 C76.6008865,171.176091 77.779685,172.218926 79.4070229,172.035593 C80.3092354,171.948056 80.6093731,171.499527 80.7197746,171.314078 L80.7714612,171.810249 L81.8403345,171.673798 L81.5364285,168.703012 L79.2726146,168.946965 L79.3780518,170.046852 L80.3952068,169.922806 C80.3785354,170.48541 79.801293,170.747261 79.3429096,170.807649 C78.2489498,170.90556 77.9499236,169.898609 77.8916002,169.286055 C77.8457672,168.808915 77.897422,168.33168 78.2161787,167.971186 C78.4182887,167.727393 78.767509,167.551862 79.1175549,167.506018 C79.9343464,167.437215 80.3570584,168.029764 80.4820673,168.204797 L81.3958492,167.359236 C81.127837,167.074827 80.5334469,166.385299 79.3842758,166.327611 L79.3843181,166.327526 Z M57.3812786,166.344039 L56.6122148,171.810239 L58.0138805,172.01491 L58.2412887,170.377517 L59.0227581,170.485029 C59.8333044,170.58294 60.3314875,170.603369 60.8544923,170.274154 C61.0232595,170.144975 61.4860993,169.82263 61.6132251,168.86836 C61.6444509,168.66209 61.761034,167.806261 61.0984448,167.210326 C60.6462959,166.804021 60.0792257,166.714641 59.547954,166.656275 L57.3813103,166.344102 L57.3812786,166.344039 Z M177.362254,166.530102 C176.90386,166.530102 176.063051,166.617428 175.385822,167.346714 C174.719073,168.069722 174.664306,168.906519 174.664306,169.306632 C174.664306,170.817323 175.617687,172.260906 177.438741,172.260906 C178.184676,172.260906 178.910797,171.977619 179.427556,171.450486 C179.467144,171.392163 179.520175,171.343525 179.572275,171.274765 L178.590272,170.398189 C178.433995,170.6128 178.119716,171.041154 177.486257,171.041154 C176.786165,171.041154 176.142491,170.504547 176.142491,169.32522 C176.142491,168.333405 176.714134,167.747843 177.370563,167.747843 C177.985234,167.747843 178.320058,168.16559 178.509721,168.409405 L179.533078,167.572111 C179.376801,167.386661 179.119925,167.034721 178.549001,166.753424 C178.228117,166.617989 177.833201,166.530102 177.362317,166.530102 L177.362254,166.530102 Z M164.397746,166.588002 L166.068164,172.114113 L167.616644,172.114113 L169.293308,166.588002 L167.899899,166.588002 L166.837271,170.251365 L165.778771,166.588002 L164.397746,166.588002 L164.397746,166.588002 Z M171.067142,166.617005 L171.038245,172.141105 L172.468914,172.141105 L172.504056,166.617005 L171.067248,166.617005 L171.067142,166.617005 Z M86.1701499,166.755518 C86.3444002,166.755256 86.505144,166.77669 86.6270408,166.840306 C86.714547,166.879894 86.9120631,167.005157 86.9474911,167.338542 C86.9745887,167.571899 86.9227222,167.845871 86.6539267,168.002169 C86.4768185,168.108431 86.2444037,168.13808 85.733942,168.20684 L85.2584427,168.254367 L85.0847852,166.871331 L85.6367717,166.803163 C85.8097095,166.778077 85.9958996,166.755848 86.1701605,166.755637 L86.1701499,166.755518 Z M72.1280889,166.943647 C72.024557,166.940472 71.9183154,166.942589 71.8097133,166.949998 C71.3096461,166.979107 70.6441989,167.131658 70.0482634,167.69839 C69.2418981,168.477657 69.210757,169.451583 69.2399187,169.97046 C69.2899328,170.739301 69.5932354,171.461146 70.1495724,171.977905 C70.9059236,172.669688 71.7544701,172.676896 72.1982992,172.647735 C72.7087926,172.610158 73.3721757,172.472436 73.957632,171.886938 C74.7723066,171.099308 74.7910949,170.11702 74.7535711,169.618996 C74.6539451,168.16758 73.6810989,166.989258 72.1279619,166.943743 L72.1280889,166.943647 Z M63.3375639,167.094537 L63.0398608,172.600039 L64.4477717,172.678579 L64.5490701,170.817948 L65.2643832,170.855101 L66.174037,172.765376 L67.7080152,172.843917 L66.6846574,170.691775 C67.4493178,170.506336 67.8461494,169.861911 67.8940995,169.170181 C67.9190801,168.557627 67.6960435,168.070611 67.3772551,167.766398 C66.8480263,167.260075 66.10642,167.220869 65.5042393,167.18959 L63.3375957,167.094537 L63.3375639,167.094537 Z M160.079171,167.105143 L160.629105,167.144424 C160.981236,167.173533 161.382026,167.221694 161.596637,167.386312 C161.682058,167.457126 161.849163,167.629799 161.809575,167.952779 C161.794968,168.16739 161.681613,168.429602 161.389901,168.525438 C161.185706,168.596252 160.951481,168.59604 160.436828,168.556452 L159.969606,168.477911 L160.079171,167.105143 L160.079171,167.105143 Z M58.6219464,167.67161 L59.1532605,167.748139 C59.701246,167.825198 60.2745296,167.895144 60.1786824,168.663985 C60.1307853,168.976528 59.961764,169.209166 59.6763077,169.288341 C59.4971248,169.334174 59.2901881,169.307394 58.9609946,169.267701 L58.4007305,169.180904 L58.6219359,167.671694 L58.6219464,167.67161 Z M71.8796589,168.157451 C72.7735093,168.069913 73.2043717,168.799526 73.2710572,169.70593 C73.2939737,170.17474 73.2464788,170.662423 72.9568097,171.020799 C72.8318009,171.177065 72.5528649,171.421642 72.1236538,171.450815 C71.2610292,171.500776 70.7928017,170.809088 70.7198711,169.854808 C70.665697,168.948415 71.0378974,168.224189 71.8796695,168.157504 L71.8796589,168.157451 Z M64.676884,168.304222 L65.2247424,168.33313 C65.5768736,168.353982 65.9755576,168.371236 66.1964137,168.525396 C66.2776747,168.596209 66.444579,168.77933 66.4341634,169.091863 C66.4216731,169.306474 66.3206604,169.581091 66.028959,169.679002 C65.83519,169.776913 65.6009333,169.755637 65.0779602,169.736902 L64.5983327,169.695515 L64.6768946,168.304222 L64.676884,168.304222 Z M125.429491,176.722589 L124.100121,176.751592 L124.155904,180.042892 L122.086431,176.788851 L120.726047,176.819865 L120.833548,182.343965 L122.1463,182.315068 L122.096656,179.003127 L124.143372,182.267541 L125.52228,182.256956 L125.429237,176.722589 L125.429491,176.722589 Z M128.584351,176.778372 L128.106787,182.304483 L129.576726,182.422326 C130.528953,182.509864 131.102554,182.557962 131.615186,182.401685 C132.588212,182.139156 132.926985,181.360343 133.058239,181.018649 C133.179088,180.68736 133.24608,180.345305 133.283583,180.005633 C133.373132,179.030479 133.075534,178.280489 132.710924,177.870003 C132.06708,177.109471 131.094488,177.025458 129.729764,176.898332 L128.584467,176.778372 L128.584351,176.778372 Z M116.244358,177.150498 L114.877834,177.334497 L113.676648,183.083846 L115.055556,182.899847 L115.208541,182.120442 L117.240756,181.84755 L117.598412,182.519454 L119.080736,182.325113 L116.244273,177.150424 L116.244358,177.150498 Z M129.857726,178.132501 L130.436599,178.184155 C130.869991,178.244596 131.565912,178.309693 131.765969,179.176499 C131.824292,179.430698 131.823975,179.693449 131.805239,179.947638 C131.784387,180.149748 131.754008,180.305993 131.701824,180.48309 C131.410122,181.310308 130.772111,181.291742 130.159589,181.252154 L129.584856,181.194254 L129.857747,178.132437 L129.857726,178.132501 Z M115.808256,179.031813 L116.740646,180.873814 L115.417521,181.076411 L115.808256,179.031813 L115.808256,179.031813 Z"/>
    <path stroke="#003057" stroke-width=".652" d="M103.873749,120.964715 L143.783433,120.964715 C144.037632,120.964715 144.223081,121.166825 144.223081,121.404363 L144.223081,121.743983 C144.223081,121.979435 144.037642,122.1753 143.783433,122.1753 L103.873749,122.1753 C103.634136,122.1753 103.438282,121.979435 103.438282,121.743983 L103.438282,121.404363 C103.438282,121.166825 103.634147,120.964715 103.873749,120.964715 L103.873749,120.964715 Z M105.281448,125.037823 L142.906889,125.037823 C143.156917,125.037823 143.344441,125.237848 143.344441,125.487887 L143.344441,125.852519 C143.344441,126.085886 143.156917,126.27757 142.906889,126.27757 L105.281448,126.27757 C105.052251,126.27757 104.843885,126.085886 104.843885,125.852519 L104.843885,125.487887 C104.843885,125.237848 105.052251,125.037823 105.281448,125.037823 Z M136.759121,126.279232 C136.759121,127.127249 136.82369,127.975266 137.709231,127.975266 C138.667703,127.975266 138.559365,126.937619 138.559365,126.314692 C138.09263,126.314692 137.305043,126.279232 136.759068,126.279232 L136.759121,126.279232 Z M136.463038,128.402795 C136.463038,130.528051 139.017516,130.128044 139.017516,129.009103 M141.228405,126.279232 C141.228405,127.127249 141.151346,127.975266 140.267869,127.975266 C139.319823,127.975266 139.421916,126.937619 139.421916,126.314692 C139.886565,126.314692 140.674121,126.279232 141.228352,126.279232 L141.228405,126.279232 Z M135.64958,126.315644 C135.64958,127.317832 135.810017,128.490862 136.685111,128.490862 C137.170602,128.490862 137.42061,128.42841 137.689416,127.974123 C137.689416,127.974123 138.141564,129.036751 138.985443,129.036751 C139.83346,129.036751 140.291844,127.974123 140.291844,127.974123 C140.556469,128.428357 140.814827,128.490862 141.302394,128.490862 C142.171263,128.490862 142.333796,127.317832 142.333796,126.315644 M138.96332,129.007833 C138.96332,130.128785 141.51367,130.526781 141.51367,128.401524 M126.104027,126.426046 C126.104027,127.274063 126.051949,128.12208 125.149737,128.12208 C124.199627,128.12208 124.312146,127.084433 124.312146,126.461506 C124.768454,126.461506 125.560223,126.426152 126.103974,126.426152 L126.104027,126.426046 Z M126.406991,128.54982 C126.406991,130.675076 123.844151,130.275069 123.844151,129.156129 M121.641624,126.426046 C121.641624,127.274063 121.702065,128.12208 122.595915,128.12208 C123.55227,128.12208 123.443932,127.084433 123.443932,126.461506 C122.977197,126.461506 122.181247,126.426152 121.641624,126.426152 L121.641624,126.426046 Z M121.349288,128.54982 C121.349288,130.675076 123.897521,130.275069 123.897521,129.156129 M120.531279,126.46267 C120.531279,127.464858 120.697971,128.637887 121.568926,128.637887 C122.060663,128.637887 122.300297,128.575436 122.566986,128.121149 C122.566986,128.121149 123.035806,129.183777 123.86513,129.183777 C124.711084,129.183777 125.184021,128.121149 125.184021,128.121149 C125.461147,128.575383 125.70076,128.637887 126.182081,128.637887 C127.050951,128.637887 127.211366,127.464858 127.211366,126.46267 M111.048071,126.306816 C111.048071,127.154834 110.983503,128.002851 110.097962,128.002851 C109.141607,128.002851 109.247828,126.965203 109.247828,126.342276 C109.714563,126.342276 110.50215,126.306816 111.048124,126.306816 L111.048071,126.306816 Z M111.344991,128.430379 C111.344991,130.555635 108.790513,130.155628 108.790513,129.034624 M106.578989,126.306763 C106.578989,127.154781 106.656048,128.002798 107.539525,128.002798 C108.487571,128.002798 108.385478,126.96515 108.385478,126.342223 C107.920828,126.342223 107.133273,126.306763 106.579042,126.306763 L106.578989,126.306763 Z M105.472222,126.343282 C105.472222,127.345469 105.636829,128.518499 106.505688,128.518499 C106.991169,128.518499 107.251613,128.456048 107.516238,128.001761 C107.516238,128.001761 107.972547,129.064389 108.820522,129.064389 C109.666475,129.064389 110.118666,128.001761 110.118666,128.001761 C110.387451,128.455995 110.635405,128.518499 111.120907,128.518499 C111.998086,128.518499 112.158554,127.345469 112.158554,126.343282 M106.293406,128.42895 C106.293406,130.554206 108.843756,130.15621 108.843756,129.035259 M105.472433,126.343282 C105.472433,127.345469 105.637041,128.518499 106.5059,128.518499 C106.991381,128.518499 107.251825,128.456048 107.51645,128.001761 M136.574392,151.695225 L141.454183,151.695225 M135.906055,158.462215 L135.906055,154.61171 C135.906055,154.134559 136.297774,153.744904 136.779106,153.744904 L141.092176,153.744904 C141.569316,153.744904 141.958981,154.134538 141.958981,154.61171 L141.958981,158.462215 M121.030319,158.689115 L121.030319,154.619818 C121.030319,154.142678 121.422038,153.753012 121.901253,153.753012 L126.216334,153.753012 C126.693474,153.753012 127.08314,154.142646 127.08314,154.619818 L127.08314,158.689115 M106.517543,151.670731 L111.395323,151.670731 M105.904354,158.279476 L105.904354,154.610291 C105.904354,154.135226 106.296073,153.745603 106.775288,153.745603 L111.090369,153.745603 C111.567509,153.745603 111.957175,154.135236 111.957175,154.610291 L111.957175,158.279476 M121.7483,151.703015 L126.628091,151.703015"/>
  </g>
</svg>
