<svg xmlns="http://www.w3.org/2000/svg" width="25.576" height="30.177" viewBox="0 0 25.576 30.177"><defs><style>.a{fill:#253b80;}.b{fill:#179bd7;}.c{fill:#222d65;}</style></defs><path class="a" d="M7.266,29.154l.523-3.322L6.624,25.8H1.061L4.927,1.292a.316.316,0,0,1,.314-.268h9.38c3.114,0,5.263.648,6.385,1.927a4.393,4.393,0,0,1,1.023,1.917,6.921,6.921,0,0,1,.007,2.644l-.012.077v.676l.526.3a3.69,3.69,0,0,1,1.065.812,3.781,3.781,0,0,1,.864,1.938,8.2,8.2,0,0,1-.123,2.812A9.9,9.9,0,0,1,23.2,17.308a6.547,6.547,0,0,1-1.825,2,7.4,7.4,0,0,1-2.458,1.109,12.258,12.258,0,0,1-3.072.355h-.73a2.2,2.2,0,0,0-2.171,1.853l-.055.3-.924,5.855-.042.215a.185.185,0,0,1-.058.125.155.155,0,0,1-.1.035H7.266Z"/><path class="b" d="M23.048,7.667q-.042.268-.1.55c-1.237,6.351-5.469,8.545-10.874,8.545H9.326a1.336,1.336,0,0,0-1.321,1.132L6.6,26.83l-.4,2.533a.7.7,0,0,0,.7.814h4.881a1.175,1.175,0,0,0,1.16-.99l.048-.248.919-5.832.059-.32a1.174,1.174,0,0,1,1.16-.992h.73c4.729,0,8.431-1.92,9.513-7.476.452-2.321.218-4.259-.978-5.622a4.667,4.667,0,0,0-1.336-1.03Z"/><path class="c" d="M21.754,7.151a9.757,9.757,0,0,0-1.2-.267,15.284,15.284,0,0,0-2.426-.177H10.773A1.172,1.172,0,0,0,9.614,7.7L8.05,17.6l-.045.289a1.336,1.336,0,0,1,1.321-1.132h2.752c5.4,0,9.637-2.195,10.874-8.545.037-.188.068-.371.1-.55a6.594,6.594,0,0,0-1.017-.429q-.138-.046-.277-.087Z"/><path class="a" d="M9.614,7.7a1.169,1.169,0,0,1,1.159-.991h7.352a15.284,15.284,0,0,1,2.426.177,9.757,9.757,0,0,1,1.481.353,6.693,6.693,0,0,1,1.017.429c.368-2.347,0-3.945-1.272-5.392C20.378.682,17.853,0,14.622,0H5.242A1.341,1.341,0,0,0,3.917,1.133L.01,25.9A.806.806,0,0,0,.8,26.83H6.6L8.05,17.6,9.614,7.7Z"/></svg>