<svg xmlns="http://www.w3.org/2000/svg" xmlns:xlink="http://www.w3.org/1999/xlink" width="498" height="730" viewBox="0 0 498 730"><defs><style>.a,.ab,.b,.c,.e,.y{fill:none;}.a{clip-rule:evenodd;}.c{fill-rule:evenodd;}.d,.t,.z{fill:#fff;}.e,.t{stroke:#d5dade;}.f{clip-path:url(#c);}.g{clip-path:url(#d);}.h{clip-path:url(#e);}.i{clip-path:url(#f);}.j{fill:#d7d7d7;}.k{clip-path:url(#g);}.l{clip-path:url(#i);}.m{clip-path:url(#j);}.n{clip-path:url(#n);}.o{clip-path:url(#o);}.p{clip-path:url(#p);}.q{fill:url(#q);}.r{clip-path:url(#r);}.s{fill:#73808c;}.aa,.u{fill:#434d5a;}.u{opacity:0.5;}.v{fill:#74818d;}.w,.x{fill:#4f6ef7;}.y{stroke:#fff;stroke-linecap:round;stroke-linejoin:round;stroke-miterlimit:10;stroke-width:1.75px;}.ab,.z{stroke:#4f6ef7;}.ac{fill:#f0f0f0;}.ad{fill:#d80027;}.ae{fill:#0052b4;}.af,.ag{stroke:none;}.ag{fill:#4f6ef7;}.ah{filter:url(#a);}</style><filter id="a" x="0" y="0" width="498" height="730" filterUnits="userSpaceOnUse"><feOffset input="SourceAlpha"/><feGaussianBlur stdDeviation="7" result="b"/><feFlood flood-opacity="0.078"/><feComposite operator="in" in2="b"/><feComposite in="SourceGraphic"/></filter><clipPath id="c"><path class="a" d="M20,0A20,20,0,0,0,40-20,20,20,0,0,0,20-40,20,20,0,0,0,0-20,20,20,0,0,0,20,0Z" transform="translate(0 40)"/></clipPath><clipPath id="d"><path class="b" d="M-55,911H1385V-113H-55Z" transform="translate(55 113)"/></clipPath><clipPath id="e"><rect class="b" width="50" height="50"/></clipPath><clipPath id="f"><path class="b" d="M0,0H40V-40H0Z" transform="translate(0 40)"/></clipPath><clipPath id="g"><path class="a" d="M0-40H40V0H0Z" transform="translate(0 40)"/></clipPath><clipPath id="i"><rect class="b" width="86" height="79"/></clipPath><clipPath id="j"><path class="a" d="M-39.847,19.576-40-47.733c20.542.055,84.927-5.752,85.017,33.846C45.125,24.078-19.309,19.6-39.847,19.576Z" transform="translate(39.999 48.003)"/></clipPath><clipPath id="n"><rect class="b" width="107.653" height="95.999"/></clipPath><clipPath id="o"><path class="b" d="M-55.656-43.829,33.612-66.086,52,7.656-37.27,29.913Z" transform="translate(55.656 66.086)"/></clipPath><clipPath id="p"><rect class="b" width="92" height="76"/></clipPath><linearGradient id="q" x1="0.047" y1="-0.354" x2="0.268" y2="0.891" gradientUnits="objectBoundingBox"><stop offset="0" stop-color="#1a38bd"/><stop offset="0.1" stop-color="#1834b0"/><stop offset="0.2" stop-color="#152fa2"/><stop offset="0.3" stop-color="#132b95"/><stop offset="0.4" stop-color="#112688"/><stop offset="0.5" stop-color="#0f227b"/><stop offset="0.6" stop-color="#0c1e6d"/><stop offset="0.7" stop-color="#0a1960"/><stop offset="0.8" stop-color="#081553"/><stop offset="0.9" stop-color="#051045"/><stop offset="1" stop-color="#030c38"/></linearGradient><clipPath id="r"><path class="a" d="M18.7-11.659a4.04,4.04,0,0,0,2-.521,5.3,5.3,0,0,0,1.618-1.4,7.047,7.047,0,0,0,1.073-1.978,6.814,6.814,0,0,0,.393-2.3,4.58,4.58,0,0,0-.484-2.3,2.01,2.01,0,0,0-1.859-.8,4.414,4.414,0,0,0-1.028.13,2.634,2.634,0,0,0-1.207.642L17.23-11.774a5.247,5.247,0,0,0,.926.115Zm3.93-13.125a5.623,5.623,0,0,1,2.509.521,5,5,0,0,1,1.753,1.41,5.927,5.927,0,0,1,1.028,2.085,9.591,9.591,0,0,1,.333,2.576,10.473,10.473,0,0,1-.771,4,10.413,10.413,0,0,1-2.1,3.281A9.862,9.862,0,0,1,22.237-8.7a9.5,9.5,0,0,1-3.93.813q-.272,0-.952-.015A13.754,13.754,0,0,1,15.8-8.04a18.022,18.022,0,0,1-1.859-.368,9.335,9.335,0,0,1-1.859-.675l5.23-22.294L22-32.113l-1.851,7.9a6.872,6.872,0,0,1,1.186-.419A5.274,5.274,0,0,1,22.63-24.784Z" transform="translate(-12.08 32.113)"/></clipPath></defs><g transform="translate(-590.5 -226)"><g class="ah" transform="matrix(1, 0, 0, 1, 590.5, 226)"><path class="d" d="M4.957,0H451.043C453.781,0,456,3.236,456,7.227V680.773c0,3.991-2.219,7.227-4.957,7.227H4.957C2.219,688,0,684.764,0,680.773V7.227C0,3.236,2.219,0,4.957,0Z" transform="translate(21 21)"/></g><path d="M7.02-7.336a12.065,12.065,0,0,1-4.16-2.051,3.935,3.935,0,0,1-1.465-3.176,4.119,4.119,0,0,1,.768-2.449,5.037,5.037,0,0,1,2.15-1.682,7.841,7.841,0,0,1,3.164-.6,7.235,7.235,0,0,1,3.264.7,5.218,5.218,0,0,1,2.15,1.887,4.833,4.833,0,0,1,.75,2.631H10.617a2.679,2.679,0,0,0-.8-2.039,3.326,3.326,0,0,0-2.373-.762,3.431,3.431,0,0,0-2.244.639,2.068,2.068,0,0,0-.768,1.67A1.867,1.867,0,0,0,5.3-11.027a9.077,9.077,0,0,0,2.73,1.172,13.983,13.983,0,0,1,3.182,1.313A5.215,5.215,0,0,1,13.055-6.8a4.463,4.463,0,0,1,.609,2.355,4.175,4.175,0,0,1-.75,2.484A4.756,4.756,0,0,1,10.787-.334,8.389,8.389,0,0,1,7.57.234,8.689,8.689,0,0,1,4.318-.381a5.819,5.819,0,0,1-2.5-1.846A4.69,4.69,0,0,1,.867-5.191H3.9a2.654,2.654,0,0,0,1,2.279,4.368,4.368,0,0,0,2.666.744,3.627,3.627,0,0,0,2.262-.609,1.969,1.969,0,0,0,.785-1.641A2.2,2.2,0,0,0,10.324-5.6,2.706,2.706,0,0,0,9.264-6.48,12.9,12.9,0,0,0,7.02-7.336Zm10.605-10.2a1.643,1.643,0,0,1,1.207.439,1.505,1.505,0,0,1,.445,1.119,1.472,1.472,0,0,1-.445,1.1,1.656,1.656,0,0,1-1.207.434,1.669,1.669,0,0,1-1.207-.428,1.467,1.467,0,0,1-.445-1.107,1.505,1.505,0,0,1,.445-1.119A1.643,1.643,0,0,1,17.625-17.531ZM16.16,0V-12.68h2.918V0ZM32.883-12.68V-.363a5.51,5.51,0,0,1-.727,2.895,4.671,4.671,0,0,1-2.039,1.834,6.965,6.965,0,0,1-3.035.627,7.058,7.058,0,0,1-1.664-.217A6.657,6.657,0,0,1,23.7,4.09a4.278,4.278,0,0,1-1.354-1.184L23.707,1.16A4.441,4.441,0,0,0,25.2,2.314a4.043,4.043,0,0,0,1.723.381,3.091,3.091,0,0,0,2.238-.779A2.941,2.941,0,0,0,29.965-.3v-.844A4.149,4.149,0,0,1,26.707.234,4.434,4.434,0,0,1,24.035-.6a5.365,5.365,0,0,1-1.775-2.3,8.322,8.322,0,0,1-.627-3.3v-.246a8.616,8.616,0,0,1,.621-3.387,5.146,5.146,0,0,1,1.775-2.273,4.589,4.589,0,0,1,2.7-.809,4.115,4.115,0,0,1,3.387,1.488l.117-1.254ZM27.445-2.156A2.66,2.66,0,0,0,29.965-3.6v-5.52a2.649,2.649,0,0,0-2.5-1.418A2.482,2.482,0,0,0,25.84-10a3.168,3.168,0,0,0-.973,1.465,6.427,6.427,0,0,0-.316,2.086V-6.2a5.3,5.3,0,0,0,.727,2.918A2.411,2.411,0,0,0,27.445-2.156ZM42.234-12.914a3.888,3.888,0,0,1,2.982,1.119A5.179,5.179,0,0,1,46.266-8.18V0H43.348V-8.2A2.452,2.452,0,0,0,42.8-10a2.3,2.3,0,0,0-1.67-.533,2.729,2.729,0,0,0-1.465.4,2.9,2.9,0,0,0-1.031,1.113V0H35.719V-12.68h2.742l.094,1.465a4.636,4.636,0,0,1,1.617-1.26A4.8,4.8,0,0,1,42.234-12.914ZM67.9-5.684a5.967,5.967,0,0,1-.838,3.234A5.253,5.253,0,0,1,64.77-.439,7.682,7.682,0,0,1,61.5.234a7.759,7.759,0,0,1-3.311-.674,5.126,5.126,0,0,1-2.262-2,6.092,6.092,0,0,1-.814-3.24V-17.062h3.023V-5.684a3.5,3.5,0,0,0,.885,2.619A3.4,3.4,0,0,0,61.5-2.2a3.41,3.41,0,0,0,2.49-.855,3.529,3.529,0,0,0,.873-2.625V-17.062H67.9Zm9.047-7.23a4.535,4.535,0,0,1,2.7.8,4.875,4.875,0,0,1,1.693,2.25,9.215,9.215,0,0,1,.574,3.4v.246a8.982,8.982,0,0,1-.58,3.328A5.155,5.155,0,0,1,79.641-.6a4.318,4.318,0,0,1-2.66.832,4.288,4.288,0,0,1-3.3-1.371V4.875H70.758V-12.68h2.684l.117,1.277A4.213,4.213,0,0,1,76.945-12.914ZM79-6.469A5.454,5.454,0,0,0,78.287-9.4a2.366,2.366,0,0,0-2.15-1.131,2.574,2.574,0,0,0-2.461,1.418v5.566A2.6,2.6,0,0,0,76.16-2.109a2.333,2.333,0,0,0,2.133-1.148A5.609,5.609,0,0,0,79-6.223Zm17.18-9.387a2.04,2.04,0,0,0-1.488.516,1.956,1.956,0,0,0-.527,1.465v1.2h2.566v2.156H94.16V0H91.242V-10.523H89.309V-12.68h1.934v-1.2a4.888,4.888,0,0,1,.539-2.379,3.516,3.516,0,0,1,1.547-1.488,5.289,5.289,0,0,1,2.391-.5,6.666,6.666,0,0,1,1.617.211l-.07,2.285A4.9,4.9,0,0,0,96.176-15.855Zm2.063,9.4a7.517,7.517,0,0,1,.709-3.316,5.468,5.468,0,0,1,2.045-2.3,5.787,5.787,0,0,1,3.141-.838,5.861,5.861,0,0,1,3.17.838,5.455,5.455,0,0,1,2.051,2.3,7.517,7.517,0,0,1,.709,3.316v.246a7.517,7.517,0,0,1-.709,3.316,5.429,5.429,0,0,1-2.045,2.3,5.84,5.84,0,0,1-3.152.832A5.87,5.87,0,0,1,101-.6a5.417,5.417,0,0,1-2.051-2.3,7.517,7.517,0,0,1-.709-3.316Zm2.918.246a5.308,5.308,0,0,0,.75,2.953,2.508,2.508,0,0,0,2.25,1.148,2.57,2.57,0,0,0,1.67-.545,3.186,3.186,0,0,0,1-1.471,6.32,6.32,0,0,0,.322-2.086v-.246a6.334,6.334,0,0,0-.322-2.08,3.2,3.2,0,0,0-1-1.482,2.594,2.594,0,0,0-1.687-.551,2.529,2.529,0,0,0-1.664.551,3.243,3.243,0,0,0-.99,1.482,6.334,6.334,0,0,0-.322,2.08Zm16.969-6.7a3.769,3.769,0,0,1,.557.047,2.364,2.364,0,0,1,.463.105l-.023,2.754a7.334,7.334,0,0,0-1.16-.094,2.6,2.6,0,0,0-2.625,1.465V0h-2.918V-12.68H115.2l.082,1.43a3.543,3.543,0,0,1,1.2-1.23A3.123,3.123,0,0,1,118.125-12.914Zm18.387,4.031a3.6,3.6,0,0,1,2.145,1.436,4.238,4.238,0,0,1,.727,2.455,4.529,4.529,0,0,1-1.559,3.709A6.715,6.715,0,0,1,133.441,0h-6.293V-17.062h5.859a7.362,7.362,0,0,1,4.43,1.143,4.038,4.038,0,0,1,1.547,3.475,3.7,3.7,0,0,1-.639,2.133A3.981,3.981,0,0,1,136.512-8.883Zm-6.328-5.73v4.723h2.848a3.354,3.354,0,0,0,2.162-.621,2.119,2.119,0,0,0,.768-1.746,2.14,2.14,0,0,0-.715-1.8,3.641,3.641,0,0,0-2.238-.557Zm3.258,12.176a3.075,3.075,0,0,0,2.162-.7,2.406,2.406,0,0,0,.756-1.857q0-2.672-2.789-2.672h-3.387v5.227Zm10.266-15.094a1.643,1.643,0,0,1,1.207.439,1.505,1.505,0,0,1,.445,1.119,1.472,1.472,0,0,1-.445,1.1,1.656,1.656,0,0,1-1.207.434,1.669,1.669,0,0,1-1.207-.428,1.467,1.467,0,0,1-.445-1.107,1.505,1.505,0,0,1,.445-1.119A1.643,1.643,0,0,1,143.707-17.531ZM142.242,0V-12.68h2.918V0Zm10.922-2.18a4.6,4.6,0,0,0,1-.117v2.25a5.985,5.985,0,0,1-1.9.281,3.372,3.372,0,0,1-2.437-.855,3.645,3.645,0,0,1-.891-2.73v-7.172h-2.062V-12.68h2.063v-3.094h2.918v3.094h2.227v2.156h-2.227v6.973a1.408,1.408,0,0,0,.328,1.084A1.459,1.459,0,0,0,153.164-2.18Zm9.879-14.883a7.479,7.479,0,0,1,3.346.7,5.015,5.015,0,0,1,2.15,1.934,5.39,5.39,0,0,1,.738,2.818,5.344,5.344,0,0,1-.732,2.848,4.683,4.683,0,0,1-2.133,1.828,8.142,8.142,0,0,1-3.369.633h-3.516V0h-3.035V-17.062Zm0,8.32a3.33,3.33,0,0,0,2.408-.762,2.783,2.783,0,0,0,.779-2.086,3.343,3.343,0,0,0-.34-1.506,2.6,2.6,0,0,0-1.055-1.1,3.52,3.52,0,0,0-1.793-.416h-3.516v5.871Zm18.445,5.789a6.549,6.549,0,0,0,.48,2.754V0h-2.977a5.222,5.222,0,0,1-.328-1.184,4.531,4.531,0,0,1-1.43,1.031,4.426,4.426,0,0,1-1.887.387,4.911,4.911,0,0,1-2.227-.492,3.77,3.77,0,0,1-1.535-1.359,3.552,3.552,0,0,1-.551-1.945,3.585,3.585,0,0,1,1.506-3.105,7.257,7.257,0,0,1,4.271-1.078h1.758v-.82a2.17,2.17,0,0,0-.551-1.576,2.168,2.168,0,0,0-1.629-.568,2.733,2.733,0,0,0-1.137.223,1.812,1.812,0,0,0-.762.609,1.481,1.481,0,0,0-.27.867H171.3a3.2,3.2,0,0,1,.65-1.916,4.539,4.539,0,0,1,1.852-1.441,6.586,6.586,0,0,1,2.748-.545,6.293,6.293,0,0,1,2.566.492,3.86,3.86,0,0,1,1.74,1.477,4.382,4.382,0,0,1,.627,2.4ZM175.91-2.1a3.048,3.048,0,0,0,1.623-.434,2.788,2.788,0,0,0,1.037-1.043V-5.941h-1.523a4.013,4.013,0,0,0-2.309.551,1.781,1.781,0,0,0-.785,1.547,1.653,1.653,0,0,0,.516,1.26A2.018,2.018,0,0,0,175.91-2.1ZM194.555-12.68,189.5,1.922a6.446,6.446,0,0,1-1.377,2.256,3.364,3.364,0,0,1-2.561.943,5.758,5.758,0,0,1-1.395-.211V2.672l.539.023a2.832,2.832,0,0,0,1.588-.369,2.461,2.461,0,0,0,.861-1.295l.4-1.078L183.105-12.68h3.152l2.637,8.508,2.555-8.508Z" transform="translate(635.5 302)"/><line class="e" x2="460" transform="translate(610 342)"/><g transform="translate(995.5 314.5)"><g class="f" transform="translate(0 -40)"><g class="g" transform="translate(-55 -73)"><g class="h" transform="translate(50 68)"><g class="i" transform="translate(5 5)"><path class="j" d="M-5-45H45V5H-5Z" transform="translate(0 40)"/></g><g class="k" transform="translate(5 5)"><g class="i"><g class="l" transform="translate(-40 -14)"><g class="m" transform="translate(0.001 5.997)"><g class="i" transform="translate(39.999 8.003)"><path d="M-61.717-47.471,36.667-72,57.281,10.678-41.1,35.208Z" transform="translate(0 40)"/></g></g><g class="m" transform="translate(0.001 5.997)"><g class="i" transform="translate(39.999 8.003)"><g transform="translate(-55.656 -26.086)"><g class="n"><g class="o"><g transform="translate(0 22.257) rotate(-14)"><g class="p"><rect class="d" width="92" height="76"/></g></g></g></g></g><g transform="translate(-9.389 2.341) rotate(-14)"><path class="q" d="M9.677,0,48.489,9.677,38.812,48.489,0,38.812Z" transform="translate(0 0)"/></g></g></g><g class="r" transform="translate(52.08 21.887)"><g class="i" transform="translate(-12.08 -7.887)"><path class="d" d="M7.08-37.113H33.253V-2.887H7.08Z" transform="translate(0 40)"/></g></g></g></g></g></g></g></g></g><g transform="translate(635.5 544)"><path class="s" d="M6.451-1.219V0H.855V-8.531H6.416v1.225H2.373v2.314H5.859v1.2H2.373v2.578ZM16.448,0H14.936V-2.754l.146-3.791L12.6,0H11.514L9.03-6.539l.152,3.785V0H7.665V-8.531H9.633l2.426,6.492,2.42-6.492h1.969Zm6.534-1.957H19.706L19.027,0H17.439l3.217-8.531h1.365L25.249,0H23.661Zm-.428-1.225-1.213-3.5-1.213,3.5ZM26.31,0V-8.531h1.512V0Zm8.708-1.219V0H29.645V-8.531h1.518v7.313ZM43.9-1.957H40.621L39.941,0H38.353L41.57-8.531h1.365L46.164,0H44.576Zm-.428-1.225-1.213-3.5-1.213,3.5Zm6.194-5.35a3.948,3.948,0,0,1,2.01.5A3.469,3.469,0,0,1,53.028-6.6a4.519,4.519,0,0,1,.483,2.133v.416a4.515,4.515,0,0,1-.483,2.136A3.432,3.432,0,0,1,51.66-.5,4.1,4.1,0,0,1,49.6,0H47.131V-8.531h2.531Zm2.326,4.049a3.227,3.227,0,0,0-.6-2.1,2.11,2.11,0,0,0-1.729-.727H48.648v6.088H49.6a2.164,2.164,0,0,0,1.778-.741,3.225,3.225,0,0,0,.606-2.095ZM57.52-8.531a3.948,3.948,0,0,1,2.01.5A3.469,3.469,0,0,1,60.886-6.6a4.519,4.519,0,0,1,.483,2.133v.416a4.515,4.515,0,0,1-.483,2.136A3.432,3.432,0,0,1,59.518-.5a4.1,4.1,0,0,1-2.057.5H54.989V-8.531H57.52Zm2.326,4.049a3.227,3.227,0,0,0-.6-2.1,2.11,2.11,0,0,0-1.729-.727H56.506v6.088h.955A2.164,2.164,0,0,0,59.24-1.96a3.225,3.225,0,0,0,.606-2.095ZM69.31-.076V0H67.681L65.987-3.27H64.364V0H62.847V-8.531H65.87a3.5,3.5,0,0,1,2.282.662,2.331,2.331,0,0,1,.806,1.91,2.456,2.456,0,0,1-.4,1.43,2.578,2.578,0,0,1-1.148.9ZM64.364-4.488h1.512a1.627,1.627,0,0,0,1.163-.381,1.332,1.332,0,0,0,.4-1.014,1.393,1.393,0,0,0-.387-1.049,1.643,1.643,0,0,0-1.184-.375H64.364Zm11.62,3.27V0h-5.6V-8.531h5.561v1.225H71.906v2.314h3.486v1.2H71.906v2.578Zm3.868-2.449a6.032,6.032,0,0,1-2.08-1.025,1.968,1.968,0,0,1-.732-1.588,2.059,2.059,0,0,1,.384-1.225A2.519,2.519,0,0,1,78.5-8.347a3.921,3.921,0,0,1,1.582-.3,3.618,3.618,0,0,1,1.632.349,2.609,2.609,0,0,1,1.075.943,2.417,2.417,0,0,1,.375,1.315H81.651a1.339,1.339,0,0,0-.4-1.02,1.663,1.663,0,0,0-1.187-.381,1.716,1.716,0,0,0-1.122.319,1.034,1.034,0,0,0-.384.835.933.933,0,0,0,.434.773,4.538,4.538,0,0,0,1.365.586,6.992,6.992,0,0,1,1.591.656,2.607,2.607,0,0,1,.923.873,2.232,2.232,0,0,1,.3,1.178A2.088,2.088,0,0,1,82.8-.979a2.378,2.378,0,0,1-1.063.812,4.2,4.2,0,0,1-1.608.284A4.345,4.345,0,0,1,78.5-.19a2.91,2.91,0,0,1-1.248-.923A2.345,2.345,0,0,1,76.776-2.6h1.518a1.327,1.327,0,0,0,.5,1.14,2.184,2.184,0,0,0,1.333.372,1.813,1.813,0,0,0,1.131-.3.984.984,0,0,0,.393-.82A1.1,1.1,0,0,0,81.5-2.8a1.353,1.353,0,0,0-.53-.442A6.448,6.448,0,0,0,79.852-3.668Zm7.29,0a6.032,6.032,0,0,1-2.08-1.025,1.968,1.968,0,0,1-.732-1.588,2.059,2.059,0,0,1,.384-1.225,2.519,2.519,0,0,1,1.075-.841,3.921,3.921,0,0,1,1.582-.3A3.618,3.618,0,0,1,89-8.3a2.609,2.609,0,0,1,1.075.943,2.417,2.417,0,0,1,.375,1.315H88.94a1.339,1.339,0,0,0-.4-1.02,1.663,1.663,0,0,0-1.187-.381,1.716,1.716,0,0,0-1.122.319,1.034,1.034,0,0,0-.384.835.933.933,0,0,0,.434.773,4.538,4.538,0,0,0,1.365.586,6.992,6.992,0,0,1,1.591.656,2.607,2.607,0,0,1,.923.873,2.232,2.232,0,0,1,.3,1.178,2.088,2.088,0,0,1-.375,1.242,2.378,2.378,0,0,1-1.063.812,4.2,4.2,0,0,1-1.608.284A4.345,4.345,0,0,1,85.791-.19a2.91,2.91,0,0,1-1.248-.923A2.345,2.345,0,0,1,84.065-2.6h1.518a1.327,1.327,0,0,0,.5,1.14,2.184,2.184,0,0,0,1.333.372,1.813,1.813,0,0,0,1.131-.3.984.984,0,0,0,.393-.82,1.1,1.1,0,0,0-.146-.589,1.353,1.353,0,0,0-.53-.442A6.448,6.448,0,0,0,87.142-3.668Z" transform="translate(0 13)"/><g transform="translate(0 23)"><g class="t"><rect class="af" width="408" height="45" rx="3"/><rect class="b" x="0.5" y="0.5" width="407" height="44" rx="2.5"/></g><path class="u" d="M3.568-3.247a5.2,5.2,0,0,1-1.993-.766A1.592,1.592,0,0,1,.9-5.373a1.853,1.853,0,0,1,.342-1.08,2.373,2.373,0,0,1,.967-.786,3.33,3.33,0,0,1,1.432-.294,3.448,3.448,0,0,1,1.5.308,2.331,2.331,0,0,1,.981.831,2.1,2.1,0,0,1,.338,1.166H5.188A1.129,1.129,0,0,0,5-5.838a1.386,1.386,0,0,0-.537-.482,1.724,1.724,0,0,0-.824-.188,1.949,1.949,0,0,0-.827.154,1.086,1.086,0,0,0-.482.4,1,1,0,0,0-.154.537.816.816,0,0,0,.14.489,1.189,1.189,0,0,0,.506.352,6.1,6.1,0,0,0,1.056.308,6.96,6.96,0,0,1,1.511.5,2.182,2.182,0,0,1,.865.7,1.756,1.756,0,0,1,.284,1.012A1.9,1.9,0,0,1,6.187-.913a2.319,2.319,0,0,1-1,.772,3.808,3.808,0,0,1-1.5.277A3.653,3.653,0,0,1,2.047-.2,2.526,2.526,0,0,1,1-1.094,2.151,2.151,0,0,1,.649-2.276H1.928a1.331,1.331,0,0,0,.287.8,1.462,1.462,0,0,0,.646.448,2.43,2.43,0,0,0,.817.137,2.358,2.358,0,0,0,.858-.14,1.218,1.218,0,0,0,.543-.383.885.885,0,0,0,.185-.55,1.05,1.05,0,0,0-.13-.533,1.182,1.182,0,0,0-.5-.417A4.28,4.28,0,0,0,3.568-3.247ZM13.85-1.613a4.923,4.923,0,0,0,.068.8,3.059,3.059,0,0,0,.191.7V0H12.777A2.894,2.894,0,0,1,12.6-.772a2.935,2.935,0,0,1-.919.66A2.762,2.762,0,0,1,10.5.137,2.846,2.846,0,0,1,9.192-.154a2.172,2.172,0,0,1-.882-.79A2.052,2.052,0,0,1,8-2.051a2.171,2.171,0,0,1,.407-1.333,2.455,2.455,0,0,1,1.155-.824,5.093,5.093,0,0,1,1.767-.277h1.244v-.588a1.409,1.409,0,0,0-.4-1.063,1.593,1.593,0,0,0-1.152-.386,2,2,0,0,0-.82.161,1.386,1.386,0,0,0-.564.431.957.957,0,0,0-.2.584H8.156a1.753,1.753,0,0,1,.369-1.046,2.667,2.667,0,0,1,1.039-.824A3.531,3.531,0,0,1,11.1-7.533a3.494,3.494,0,0,1,1.439.277,2.147,2.147,0,0,1,.967.834,2.522,2.522,0,0,1,.349,1.364Zm-3.165.656a2.154,2.154,0,0,0,.817-.154,2.127,2.127,0,0,0,.653-.407,1.859,1.859,0,0,0,.417-.547V-3.6H11.533a3.315,3.315,0,0,0-1.675.345,1.117,1.117,0,0,0-.581,1.022,1.285,1.285,0,0,0,.164.649,1.168,1.168,0,0,0,.479.455A1.611,1.611,0,0,0,10.685-.957ZM19,0a3.269,3.269,0,0,1-.978.137A1.684,1.684,0,0,1,16.78-.328a2.065,2.065,0,0,1-.468-1.511V-6.433H14.965V-7.4h1.347v-1.8H17.59v1.8h1.381v.964H17.59v4.6a.9.9,0,0,0,.219.708.9.9,0,0,0,.595.181,2.281,2.281,0,0,0,.314-.024,2.393,2.393,0,0,0,.273-.051Zm.944-3.773a4.4,4.4,0,0,1,.41-1.928,3.206,3.206,0,0,1,1.172-1.343A3.214,3.214,0,0,1,23.3-7.533a3.256,3.256,0,0,1,1.791.489A3.2,3.2,0,0,1,26.266-5.7a4.4,4.4,0,0,1,.41,1.928v.157a4.377,4.377,0,0,1-.41,1.924,3.21,3.21,0,0,1-1.172,1.34,3.226,3.226,0,0,1-1.781.489,3.226,3.226,0,0,1-1.781-.489,3.233,3.233,0,0,1-1.176-1.34,4.347,4.347,0,0,1-.414-1.924Zm1.278.157a3.848,3.848,0,0,0,.236,1.374,2.206,2.206,0,0,0,.708.988,1.818,1.818,0,0,0,1.148.366,1.807,1.807,0,0,0,1.142-.366,2.206,2.206,0,0,0,.708-.988A3.848,3.848,0,0,0,25.4-3.616v-.157a3.8,3.8,0,0,0-.239-1.374,2.253,2.253,0,0,0-.711-.991A1.807,1.807,0,0,0,23.3-6.508a1.782,1.782,0,0,0-1.138.369,2.24,2.24,0,0,0-.7.991,3.848,3.848,0,0,0-.236,1.374Zm9.68.369a5.2,5.2,0,0,1-1.993-.766,1.592,1.592,0,0,1-.673-1.36,1.853,1.853,0,0,1,.342-1.08,2.373,2.373,0,0,1,.967-.786,3.33,3.33,0,0,1,1.432-.294,3.448,3.448,0,0,1,1.5.308,2.331,2.331,0,0,1,.981.831A2.1,2.1,0,0,1,33.8-5.229H32.521a1.129,1.129,0,0,0-.185-.608A1.386,1.386,0,0,0,31.8-6.32a1.724,1.724,0,0,0-.824-.188,1.949,1.949,0,0,0-.827.154,1.086,1.086,0,0,0-.482.4,1,1,0,0,0-.154.537.816.816,0,0,0,.14.489,1.189,1.189,0,0,0,.506.352,6.1,6.1,0,0,0,1.056.308,6.96,6.96,0,0,1,1.511.5,2.182,2.182,0,0,1,.865.7,1.756,1.756,0,0,1,.284,1.012,1.9,1.9,0,0,1-.355,1.138,2.319,2.319,0,0,1-1,.772,3.808,3.808,0,0,1-1.5.277A3.653,3.653,0,0,1,29.38-.2a2.526,2.526,0,0,1-1.042-.892,2.151,2.151,0,0,1-.355-1.183H29.26a1.331,1.331,0,0,0,.287.8,1.462,1.462,0,0,0,.646.448,2.43,2.43,0,0,0,.817.137,2.358,2.358,0,0,0,.858-.14,1.218,1.218,0,0,0,.543-.383.885.885,0,0,0,.185-.55,1.05,1.05,0,0,0-.13-.533,1.182,1.182,0,0,0-.5-.417A4.28,4.28,0,0,0,30.9-3.247ZM39-7.533q2.372,0,2.372,2.687V0H40.089V-4.86a1.738,1.738,0,0,0-.366-1.23,1.46,1.46,0,0,0-1.1-.383,1.823,1.823,0,0,0-1.056.321,2.26,2.26,0,0,0-.742.861V0H35.543V-10.5h1.278v3.979a2.791,2.791,0,0,1,.957-.749A2.8,2.8,0,0,1,39-7.533Zm5.046-2.557a.746.746,0,0,1,.557.205.71.71,0,0,1,.2.52.69.69,0,0,1-.2.509.753.753,0,0,1-.557.2.73.73,0,0,1-.55-.2.7.7,0,0,1-.195-.509.724.724,0,0,1,.195-.52A.723.723,0,0,1,44.041-10.09ZM43.392,0V-7.4H44.67V0Zm8.983-9.782a5.4,5.4,0,0,1,2.844.714,4.534,4.534,0,0,1,1.794,2.044,7.457,7.457,0,0,1,.612,3.141q0,.294-.007.444a5.615,5.615,0,0,1-.332,1.729,3.1,3.1,0,0,1-.913,1.333,2.322,2.322,0,0,1-1.552.52,1.758,1.758,0,0,1-1.049-.3,1.589,1.589,0,0,1-.591-.854,2.664,2.664,0,0,1-.834.858,1.853,1.853,0,0,1-.991.3A1.609,1.609,0,0,1,49.975-.52a3.009,3.009,0,0,1-.485-1.812q0-.157.027-.526a5.832,5.832,0,0,1,.537-2.054,3.711,3.711,0,0,1,1.073-1.374,2.2,2.2,0,0,1,1.343-.482,3.05,3.05,0,0,1,.81.1,2.47,2.47,0,0,1,.595.243,5.832,5.832,0,0,1,.571.393L54.1-2.249a3.372,3.372,0,0,0-.014.349,1.406,1.406,0,0,0,.253.964.832.832,0,0,0,.629.267,1.3,1.3,0,0,0,.919-.362,2.363,2.363,0,0,0,.6-.991,5.121,5.121,0,0,0,.246-1.415q.014-.355.014-.513a5.468,5.468,0,0,0-1.094-3.657,4.107,4.107,0,0,0-3.3-1.278,4.371,4.371,0,0,0-2.471.7,4.731,4.731,0,0,0-1.665,1.976,7.536,7.536,0,0,0-.67,2.939q-.014.314-.014.451a6.56,6.56,0,0,0,.513,2.71,3.864,3.864,0,0,0,1.49,1.747,4.363,4.363,0,0,0,2.352.608,5.37,5.37,0,0,0,1.224-.144,3.777,3.777,0,0,0,1.039-.39l.26.772a3.515,3.515,0,0,1-1.159.451,6.4,6.4,0,0,1-1.391.157A5.438,5.438,0,0,1,49,2.379,4.666,4.666,0,0,1,47.173.325a7.312,7.312,0,0,1-.636-3.168q0-.28.007-.424a8.2,8.2,0,0,1,.824-3.353A5.8,5.8,0,0,1,49.4-8.941,5.329,5.329,0,0,1,52.375-9.782Zm-.7,8.948a1.17,1.17,0,0,0,.772-.338,2.491,2.491,0,0,0,.636-1.022l.007-.055L53.4-5.694a1.758,1.758,0,0,0-.82-.2,1.4,1.4,0,0,0-.916.345,2.517,2.517,0,0,0-.69,1.029,5.948,5.948,0,0,0-.362,1.661q-.021.232-.021.451a2.063,2.063,0,0,0,.277,1.166A.911.911,0,0,0,51.671-.834Zm11.02-6.7a2.593,2.593,0,0,1,1.559.468,2.9,2.9,0,0,1,.988,1.319,5.354,5.354,0,0,1,.338,1.986v.144a5.212,5.212,0,0,1-.338,1.938,2.986,2.986,0,0,1-.988,1.333A2.52,2.52,0,0,1,62.7.137a2.593,2.593,0,0,1-2.167-.978L60.476,0H59.307V-10.5h1.278v3.9A2.568,2.568,0,0,1,62.691-7.533ZM64.3-3.76a3.706,3.706,0,0,0-.461-1.965,1.6,1.6,0,0,0-1.466-.749,1.844,1.844,0,0,0-1.09.311,2.12,2.12,0,0,0-.694.844v3.233a2.188,2.188,0,0,0,.708.841,1.849,1.849,0,0,0,1.09.314,1.589,1.589,0,0,0,1.439-.749A3.564,3.564,0,0,0,64.3-3.616Zm3.658-6.33a.746.746,0,0,1,.557.205.71.71,0,0,1,.2.52.69.69,0,0,1-.2.509.753.753,0,0,1-.557.2.73.73,0,0,1-.55-.2.7.7,0,0,1-.195-.509.724.724,0,0,1,.195-.52A.723.723,0,0,1,67.955-10.09ZM67.306,0V-7.4h1.278V0Zm6.461,0a3.269,3.269,0,0,1-.978.137,1.684,1.684,0,0,1-1.241-.465,2.065,2.065,0,0,1-.468-1.511V-6.433H69.733V-7.4H71.08v-1.8h1.278v1.8h1.381v.964H72.358v4.6a.9.9,0,0,0,.219.708.9.9,0,0,0,.595.181,2.281,2.281,0,0,0,.314-.024,2.393,2.393,0,0,0,.273-.051Zm4.84-7.533a2.6,2.6,0,0,1,1.565.468,2.874,2.874,0,0,1,.984,1.319,5.4,5.4,0,0,1,.335,1.986v.144a5.212,5.212,0,0,1-.338,1.938,3,3,0,0,1-.984,1.333,2.505,2.505,0,0,1-1.542.482,2.715,2.715,0,0,1-2.112-.848V2.844H75.237V-7.4H76.4l.068.807A2.614,2.614,0,0,1,78.607-7.533ZM80.213-3.76A4.131,4.131,0,0,0,80-5.137a2.127,2.127,0,0,0-.663-.974,1.709,1.709,0,0,0-1.111-.362A1.851,1.851,0,0,0,77.2-6.2a2.037,2.037,0,0,0-.684.745v3.562a1.854,1.854,0,0,0,1.723,1,1.675,1.675,0,0,0,1.1-.366A2.161,2.161,0,0,0,80-2.235a4.162,4.162,0,0,0,.215-1.381Zm8.552,2.146a4.924,4.924,0,0,0,.068.8,3.058,3.058,0,0,0,.191.7V0H87.692a2.894,2.894,0,0,1-.178-.772,2.935,2.935,0,0,1-.919.66,2.762,2.762,0,0,1-1.179.25,2.846,2.846,0,0,1-1.309-.291,2.172,2.172,0,0,1-.882-.79,2.052,2.052,0,0,1-.311-1.107,2.171,2.171,0,0,1,.407-1.333,2.455,2.455,0,0,1,1.155-.824,5.093,5.093,0,0,1,1.767-.277h1.244v-.588a1.409,1.409,0,0,0-.4-1.063,1.593,1.593,0,0,0-1.152-.386,2,2,0,0,0-.82.161,1.386,1.386,0,0,0-.564.431.957.957,0,0,0-.2.584H83.071a1.753,1.753,0,0,1,.369-1.046,2.667,2.667,0,0,1,1.039-.824,3.531,3.531,0,0,1,1.531-.318,3.494,3.494,0,0,1,1.439.277,2.147,2.147,0,0,1,.967.834,2.522,2.522,0,0,1,.349,1.364ZM85.6-.957a2.154,2.154,0,0,0,.817-.154,2.127,2.127,0,0,0,.653-.407,1.859,1.859,0,0,0,.417-.547V-3.6H86.448a3.315,3.315,0,0,0-1.675.345,1.117,1.117,0,0,0-.581,1.022,1.285,1.285,0,0,0,.164.649,1.168,1.168,0,0,0,.479.455A1.611,1.611,0,0,0,85.6-.957ZM96.272-7.4,93.305,1.142a3.767,3.767,0,0,1-.79,1.3,1.833,1.833,0,0,1-1.4.55,2.4,2.4,0,0,1-.373-.038,3.093,3.093,0,0,1-.345-.072V1.859q.075.014.171.024a1.622,1.622,0,0,0,.171.01,1.648,1.648,0,0,0,1.008-.27,1.905,1.905,0,0,0,.584-.947l.28-.759L89.969-7.4h1.395L93.2-1.859,94.912-7.4Zm1.969,5.968a.776.776,0,0,1,.584.215.758.758,0,0,1,.208.55.715.715,0,0,1-.208.533.8.8,0,0,1-.584.205.781.781,0,0,1-.578-.208.718.718,0,0,1-.208-.53.758.758,0,0,1,.208-.55A.767.767,0,0,1,98.242-1.429Zm8.833-.909a2.264,2.264,0,0,1-.444,1.22,2.967,2.967,0,0,1-1.077.913,3.094,3.094,0,0,1-1.432.342,3.193,3.193,0,0,1-1.815-.5A3.044,3.044,0,0,1,101.2-1.692a4.569,4.569,0,0,1-.369-1.863v-.287A4.569,4.569,0,0,1,101.2-5.7a3.044,3.044,0,0,1,1.111-1.333,3.193,3.193,0,0,1,1.815-.5,3.177,3.177,0,0,1,1.507.349,2.633,2.633,0,0,1,1.036.96,2.815,2.815,0,0,1,.41,1.371h-1.21a1.89,1.89,0,0,0-.26-.837,1.647,1.647,0,0,0-.608-.6,1.732,1.732,0,0,0-.875-.219,1.776,1.776,0,0,0-1.183.379,2.071,2.071,0,0,0-.643.978,4.276,4.276,0,0,0-.191,1.309v.287a3.582,3.582,0,0,0,.468,1.9,1.673,1.673,0,0,0,1.548.766,1.873,1.873,0,0,0,.831-.188,1.7,1.7,0,0,0,.632-.52,1.419,1.419,0,0,0,.28-.742Zm1.115-1.436A4.4,4.4,0,0,1,108.6-5.7a3.206,3.206,0,0,1,1.172-1.343,3.214,3.214,0,0,1,1.774-.489,3.256,3.256,0,0,1,1.791.489A3.2,3.2,0,0,1,114.512-5.7a4.4,4.4,0,0,1,.41,1.928v.157a4.377,4.377,0,0,1-.41,1.924,3.21,3.21,0,0,1-1.172,1.34,3.226,3.226,0,0,1-1.781.489,3.226,3.226,0,0,1-1.781-.489,3.233,3.233,0,0,1-1.176-1.34,4.346,4.346,0,0,1-.414-1.924Zm1.278.157a3.848,3.848,0,0,0,.236,1.374,2.206,2.206,0,0,0,.708.988,1.818,1.818,0,0,0,1.148.366,1.807,1.807,0,0,0,1.142-.366,2.206,2.206,0,0,0,.708-.988,3.848,3.848,0,0,0,.236-1.374v-.157a3.8,3.8,0,0,0-.239-1.374,2.253,2.253,0,0,0-.711-.991,1.807,1.807,0,0,0-1.148-.369,1.782,1.782,0,0,0-1.138.369,2.24,2.24,0,0,0-.7.991,3.848,3.848,0,0,0-.236,1.374Zm14.958-3.917a2.454,2.454,0,0,1,1.846.649A2.818,2.818,0,0,1,126.9-4.86V0h-1.278V-4.874a1.608,1.608,0,0,0-.4-1.241,1.7,1.7,0,0,0-1.172-.359,1.722,1.722,0,0,0-.861.208,1.526,1.526,0,0,0-.578.564,1.98,1.98,0,0,0-.256.8V0h-1.278V-4.867A1.408,1.408,0,0,0,119.5-6.474a1.865,1.865,0,0,0-1.053.277,1.752,1.752,0,0,0-.636.769V0H116.53V-7.4h1.21l.041.8a2.57,2.57,0,0,1,.93-.694,3.056,3.056,0,0,1,1.251-.243,2.706,2.706,0,0,1,1.282.291,1.869,1.869,0,0,1,.831.885,2.73,2.73,0,0,1,.981-.861A2.9,2.9,0,0,1,124.425-7.533Z" transform="translate(12 27)"/></g></g><g transform="translate(635.5 632)"><path class="s" d="M4.131-8.531A3.74,3.74,0,0,1,5.8-8.183a2.508,2.508,0,0,1,1.075.967,2.7,2.7,0,0,1,.369,1.409,2.672,2.672,0,0,1-.366,1.424,2.342,2.342,0,0,1-1.066.914,4.071,4.071,0,0,1-1.685.316H2.373V0H.855V-8.531Zm0,4.16a1.665,1.665,0,0,0,1.2-.381,1.391,1.391,0,0,0,.39-1.043,1.672,1.672,0,0,0-.17-.753A1.3,1.3,0,0,0,5.027-7.1a1.76,1.76,0,0,0-.9-.208H2.373v2.936Zm8.2,2.414H9.059L8.379,0H6.792l3.217-8.531h1.365L14.6,0H13.014Zm-.428-1.225-1.213-3.5-1.213,3.5Zm6.317-.486a6.032,6.032,0,0,1-2.08-1.025,1.968,1.968,0,0,1-.732-1.588A2.059,2.059,0,0,1,15.8-7.506a2.519,2.519,0,0,1,1.075-.841,3.921,3.921,0,0,1,1.582-.3,3.618,3.618,0,0,1,1.632.349,2.609,2.609,0,0,1,1.075.943,2.417,2.417,0,0,1,.375,1.315H20.023a1.339,1.339,0,0,0-.4-1.02,1.663,1.663,0,0,0-1.187-.381,1.716,1.716,0,0,0-1.122.319,1.034,1.034,0,0,0-.384.835.933.933,0,0,0,.434.773,4.538,4.538,0,0,0,1.365.586,6.992,6.992,0,0,1,1.591.656,2.607,2.607,0,0,1,.923.873,2.232,2.232,0,0,1,.3,1.178,2.088,2.088,0,0,1-.375,1.242,2.378,2.378,0,0,1-1.063.812A4.2,4.2,0,0,1,18.5.117,4.345,4.345,0,0,1,16.873-.19a2.91,2.91,0,0,1-1.248-.923A2.345,2.345,0,0,1,15.148-2.6h1.518a1.327,1.327,0,0,0,.5,1.14,2.184,2.184,0,0,0,1.333.372,1.813,1.813,0,0,0,1.131-.3.984.984,0,0,0,.393-.82,1.1,1.1,0,0,0-.146-.589,1.353,1.353,0,0,0-.53-.442A6.448,6.448,0,0,0,18.224-3.668Zm7.29,0a6.032,6.032,0,0,1-2.08-1.025A1.968,1.968,0,0,1,22.7-6.281a2.059,2.059,0,0,1,.384-1.225,2.519,2.519,0,0,1,1.075-.841,3.921,3.921,0,0,1,1.582-.3,3.618,3.618,0,0,1,1.632.349,2.609,2.609,0,0,1,1.075.943,2.417,2.417,0,0,1,.375,1.315H27.312a1.339,1.339,0,0,0-.4-1.02,1.663,1.663,0,0,0-1.187-.381,1.716,1.716,0,0,0-1.122.319,1.034,1.034,0,0,0-.384.835.933.933,0,0,0,.434.773,4.538,4.538,0,0,0,1.365.586,6.992,6.992,0,0,1,1.591.656,2.607,2.607,0,0,1,.923.873,2.232,2.232,0,0,1,.3,1.178,2.088,2.088,0,0,1-.375,1.242A2.378,2.378,0,0,1,27.4-.167a4.2,4.2,0,0,1-1.608.284A4.345,4.345,0,0,1,24.163-.19a2.91,2.91,0,0,1-1.248-.923A2.345,2.345,0,0,1,22.437-2.6h1.518a1.327,1.327,0,0,0,.5,1.14,2.184,2.184,0,0,0,1.333.372,1.813,1.813,0,0,0,1.131-.3.984.984,0,0,0,.393-.82,1.1,1.1,0,0,0-.146-.589,1.353,1.353,0,0,0-.53-.442A6.448,6.448,0,0,0,25.513-3.668ZM39.635-8.531,37.678,0H36.207L34.619-6.17,33,0H31.526L29.569-8.531h1.506l1.307,6.363,1.6-6.363h1.271L36.834-2.15l1.289-6.381Zm7.928,4.482a5.165,5.165,0,0,1-.442,2.218A3.326,3.326,0,0,1,45.876-.387a3.42,3.42,0,0,1-1.857.5,3.428,3.428,0,0,1-1.852-.5,3.366,3.366,0,0,1-1.26-1.447,5.083,5.083,0,0,1-.451-2.215v-.428A5.112,5.112,0,0,1,40.9-6.691a3.373,3.373,0,0,1,1.254-1.45,3.4,3.4,0,0,1,1.849-.507,3.434,3.434,0,0,1,1.86.5A3.335,3.335,0,0,1,47.118-6.7a5.155,5.155,0,0,1,.445,2.221ZM46.04-4.488a3.706,3.706,0,0,0-.53-2.159,1.734,1.734,0,0,0-1.5-.747,1.787,1.787,0,0,0-1.084.334,2.078,2.078,0,0,0-.7.987,4.561,4.561,0,0,0-.243,1.585v.439a4.536,4.536,0,0,0,.246,1.588,2.1,2.1,0,0,0,.706.993,1.789,1.789,0,0,0,1.087.337,1.717,1.717,0,0,0,1.5-.75,3.765,3.765,0,0,0,.524-2.168ZM55.5-.076V0H53.869L52.175-3.27H50.552V0H49.035V-8.531h3.023a3.5,3.5,0,0,1,2.282.662,2.331,2.331,0,0,1,.806,1.91,2.456,2.456,0,0,1-.4,1.43,2.578,2.578,0,0,1-1.148.9ZM50.552-4.488h1.512a1.627,1.627,0,0,0,1.163-.381,1.332,1.332,0,0,0,.4-1.014,1.393,1.393,0,0,0-.387-1.049,1.643,1.643,0,0,0-1.184-.375H50.552Zm8.555-4.043a3.948,3.948,0,0,1,2.01.5A3.469,3.469,0,0,1,62.474-6.6a4.519,4.519,0,0,1,.483,2.133v.416a4.515,4.515,0,0,1-.483,2.136A3.432,3.432,0,0,1,61.105-.5a4.1,4.1,0,0,1-2.057.5H56.576V-8.531h2.531Zm2.326,4.049a3.227,3.227,0,0,0-.6-2.1,2.11,2.11,0,0,0-1.729-.727H58.094v6.088h.955a2.164,2.164,0,0,0,1.778-.741,3.225,3.225,0,0,0,.606-2.095Z" transform="translate(0 13)"/><g transform="translate(0 23)"><g class="t"><rect class="af" width="408" height="45" rx="3"/><rect class="b" x="0.5" y="0.5" width="407" height="44" rx="2.5"/></g><path class="u" d="M7.123-2.577a2.508,2.508,0,0,1-.7,1.866A3.118,3.118,0,0,1,4.484.116V1.422H3.466V.123a3.6,3.6,0,0,1-1.36-.417,2.518,2.518,0,0,1-.981-.991A3.3,3.3,0,0,1,.752-2.933H2.03a1.876,1.876,0,0,0,.554,1.521A2.034,2.034,0,0,0,3.931-.95a2.1,2.1,0,0,0,1.408-.434,1.473,1.473,0,0,0,.506-1.179A1.445,1.445,0,0,0,5.4-3.63a3.875,3.875,0,0,0-1.48-.786A4.988,4.988,0,0,1,1.842-5.53a2.484,2.484,0,0,1-.708-1.853,2.844,2.844,0,0,1,.3-1.326,2.359,2.359,0,0,1,.848-.923,3.074,3.074,0,0,1,1.3-.437v-1.5H4.614v1.5A2.575,2.575,0,0,1,6.4-9.1a3.5,3.5,0,0,1,.632,2.2H5.763a2.855,2.855,0,0,0-.195-1.09,1.663,1.663,0,0,0-.574-.745A1.533,1.533,0,0,0,4.081-9a1.668,1.668,0,0,0-1.248.431A1.6,1.6,0,0,0,2.413-7.4a1.593,1.593,0,0,0,.178.776,1.631,1.631,0,0,0,.6.584,5.923,5.923,0,0,0,1.176.513,6.857,6.857,0,0,1,1.524.68,2.653,2.653,0,0,1,.916.933A2.673,2.673,0,0,1,7.123-2.577ZM11.991,0a3.269,3.269,0,0,1-.978.137A1.684,1.684,0,0,1,9.773-.328,2.065,2.065,0,0,1,9.3-1.839V-6.433H7.958V-7.4H9.3v-1.8h1.278v1.8h1.381v.964H10.583v4.6a.9.9,0,0,0,.219.708.9.9,0,0,0,.595.181,2.281,2.281,0,0,0,.314-.024,2.392,2.392,0,0,0,.273-.051Zm4.492-7.533a1.934,1.934,0,0,1,.308.031,1.014,1.014,0,0,1,.253.065v1.169a3.4,3.4,0,0,0-.622-.055,1.852,1.852,0,0,0-1.049.28,1.712,1.712,0,0,0-.632.786V0H13.461V-7.4h1.244l.027.841a2.089,2.089,0,0,1,.725-.721A1.991,1.991,0,0,1,16.483-7.533Zm1.183,3.76a4.4,4.4,0,0,1,.41-1.928,3.206,3.206,0,0,1,1.172-1.343,3.214,3.214,0,0,1,1.774-.489,3.256,3.256,0,0,1,1.791.489A3.2,3.2,0,0,1,23.989-5.7a4.4,4.4,0,0,1,.41,1.928v.157a4.377,4.377,0,0,1-.41,1.924,3.21,3.21,0,0,1-1.172,1.34,3.226,3.226,0,0,1-1.781.489,3.226,3.226,0,0,1-1.781-.489,3.233,3.233,0,0,1-1.176-1.34,4.347,4.347,0,0,1-.414-1.924Zm1.278.157a3.848,3.848,0,0,0,.236,1.374,2.206,2.206,0,0,0,.708.988,1.818,1.818,0,0,0,1.148.366,1.807,1.807,0,0,0,1.142-.366,2.206,2.206,0,0,0,.708-.988,3.848,3.848,0,0,0,.236-1.374v-.157a3.8,3.8,0,0,0-.239-1.374,2.253,2.253,0,0,0-.711-.991,1.807,1.807,0,0,0-1.148-.369,1.782,1.782,0,0,0-1.138.369,2.24,2.24,0,0,0-.7.991,3.848,3.848,0,0,0-.236,1.374ZM29.466-7.533q2.372,0,2.372,2.687V0H30.559V-4.86a1.738,1.738,0,0,0-.366-1.23,1.46,1.46,0,0,0-1.1-.383,1.823,1.823,0,0,0-1.056.321,2.26,2.26,0,0,0-.742.861V0H26.013V-7.4h1.21l.041.909a2.815,2.815,0,0,1,.964-.772A2.784,2.784,0,0,1,29.466-7.533ZM39.727-7.4V-.157a3.288,3.288,0,0,1-.4,1.658,2.624,2.624,0,0,1-1.1,1.056,3.544,3.544,0,0,1-1.637.362,3.864,3.864,0,0,1-.943-.13,3.83,3.83,0,0,1-1-.417,2.452,2.452,0,0,1-.8-.738l.663-.745a2.479,2.479,0,0,0,1.982,1,1.95,1.95,0,0,0,1.432-.516A1.978,1.978,0,0,0,38.449-.1V-.731a2.588,2.588,0,0,1-2.064.868,2.52,2.52,0,0,1-1.535-.485,3.117,3.117,0,0,1-1.019-1.336,4.929,4.929,0,0,1-.359-1.931V-3.76a5.111,5.111,0,0,1,.355-1.976,2.986,2.986,0,0,1,1.019-1.326A2.608,2.608,0,0,1,36.4-7.533a2.552,2.552,0,0,1,2.112.95l.055-.813ZM36.7-.93a1.847,1.847,0,0,0,1.75-1.087v-3.4a2.058,2.058,0,0,0-.69-.776,1.859,1.859,0,0,0-1.046-.284,1.692,1.692,0,0,0-1.1.359,2.082,2.082,0,0,0-.649.974A4.287,4.287,0,0,0,34.75-3.76v.144a4.193,4.193,0,0,0,.208,1.371,2.073,2.073,0,0,0,.646.96A1.678,1.678,0,0,0,36.7-.93Zm8.84-9.023a4.264,4.264,0,0,1,1.89.386,2.758,2.758,0,0,1,1.2,1.07,3.029,3.029,0,0,1,.407,1.579,3.136,3.136,0,0,1-.4,1.634,2.556,2.556,0,0,1-1.186,1.029,4.626,4.626,0,0,1-1.9.352H43.187V0H41.86V-9.953Zm0,4.983a2.259,2.259,0,0,0,1.637-.52,1.891,1.891,0,0,0,.53-1.415,2.137,2.137,0,0,0-.229-.988,1.7,1.7,0,0,0-.718-.718,2.5,2.5,0,0,0-1.22-.27H43.187v3.91ZM56.093-1.613a4.923,4.923,0,0,0,.068.8,3.059,3.059,0,0,0,.191.7V0H55.02a2.894,2.894,0,0,1-.178-.772,2.935,2.935,0,0,1-.919.66,2.762,2.762,0,0,1-1.179.25,2.846,2.846,0,0,1-1.309-.291,2.172,2.172,0,0,1-.882-.79,2.052,2.052,0,0,1-.311-1.107,2.171,2.171,0,0,1,.407-1.333A2.455,2.455,0,0,1,51.8-4.208a5.093,5.093,0,0,1,1.767-.277h1.244v-.588a1.409,1.409,0,0,0-.4-1.063,1.593,1.593,0,0,0-1.152-.386,2,2,0,0,0-.82.161,1.386,1.386,0,0,0-.564.431.957.957,0,0,0-.2.584H50.4a1.753,1.753,0,0,1,.369-1.046,2.667,2.667,0,0,1,1.039-.824,3.531,3.531,0,0,1,1.531-.318,3.494,3.494,0,0,1,1.439.277,2.147,2.147,0,0,1,.967.834,2.522,2.522,0,0,1,.349,1.364Zm-3.165.656a2.154,2.154,0,0,0,.817-.154,2.127,2.127,0,0,0,.653-.407,1.859,1.859,0,0,0,.417-.547V-3.6H53.776A3.315,3.315,0,0,0,52.1-3.25a1.117,1.117,0,0,0-.581,1.022,1.285,1.285,0,0,0,.164.649,1.168,1.168,0,0,0,.479.455A1.611,1.611,0,0,0,52.928-.957Zm7.787-2.29a5.2,5.2,0,0,1-1.993-.766,1.592,1.592,0,0,1-.673-1.36,1.853,1.853,0,0,1,.342-1.08,2.373,2.373,0,0,1,.967-.786,3.33,3.33,0,0,1,1.432-.294,3.448,3.448,0,0,1,1.5.308,2.331,2.331,0,0,1,.981.831,2.1,2.1,0,0,1,.338,1.166H62.335a1.129,1.129,0,0,0-.185-.608,1.386,1.386,0,0,0-.537-.482,1.724,1.724,0,0,0-.824-.188,1.949,1.949,0,0,0-.827.154,1.086,1.086,0,0,0-.482.4,1,1,0,0,0-.154.537.816.816,0,0,0,.14.489,1.189,1.189,0,0,0,.506.352,6.1,6.1,0,0,0,1.056.308,6.96,6.96,0,0,1,1.511.5,2.182,2.182,0,0,1,.865.7,1.756,1.756,0,0,1,.284,1.012,1.9,1.9,0,0,1-.355,1.138,2.319,2.319,0,0,1-1,.772,3.808,3.808,0,0,1-1.5.277A3.653,3.653,0,0,1,59.194-.2a2.526,2.526,0,0,1-1.042-.892A2.151,2.151,0,0,1,57.8-2.276h1.278a1.331,1.331,0,0,0,.287.8,1.462,1.462,0,0,0,.646.448,2.43,2.43,0,0,0,.817.137,2.358,2.358,0,0,0,.858-.14,1.218,1.218,0,0,0,.543-.383.885.885,0,0,0,.185-.55,1.05,1.05,0,0,0-.13-.533,1.182,1.182,0,0,0-.5-.417A4.28,4.28,0,0,0,60.715-3.247Zm7.254,0a5.2,5.2,0,0,1-1.993-.766,1.592,1.592,0,0,1-.673-1.36,1.853,1.853,0,0,1,.342-1.08,2.373,2.373,0,0,1,.967-.786,3.33,3.33,0,0,1,1.432-.294,3.448,3.448,0,0,1,1.5.308,2.331,2.331,0,0,1,.981.831,2.1,2.1,0,0,1,.338,1.166H69.589a1.129,1.129,0,0,0-.185-.608,1.386,1.386,0,0,0-.537-.482,1.724,1.724,0,0,0-.824-.188,1.949,1.949,0,0,0-.827.154,1.086,1.086,0,0,0-.482.4,1,1,0,0,0-.154.537.816.816,0,0,0,.14.489,1.189,1.189,0,0,0,.506.352,6.1,6.1,0,0,0,1.056.308,6.96,6.96,0,0,1,1.511.5,2.182,2.182,0,0,1,.865.7,1.756,1.756,0,0,1,.284,1.012,1.9,1.9,0,0,1-.355,1.138,2.319,2.319,0,0,1-1,.772,3.808,3.808,0,0,1-1.5.277A3.653,3.653,0,0,1,66.448-.2a2.526,2.526,0,0,1-1.042-.892,2.151,2.151,0,0,1-.355-1.183h1.278a1.331,1.331,0,0,0,.287.8,1.462,1.462,0,0,0,.646.448,2.43,2.43,0,0,0,.817.137,2.358,2.358,0,0,0,.858-.14,1.218,1.218,0,0,0,.543-.383.885.885,0,0,0,.185-.55,1.05,1.05,0,0,0-.13-.533,1.182,1.182,0,0,0-.5-.417A4.28,4.28,0,0,0,67.969-3.247ZM81.846-7.4,79.7,0H78.668L76.877-5.585,75.127,0H74.094L71.948-7.4h1.271l1.449,5.489L76.384-7.4h1.032L79.16-1.784,80.582-7.4Zm.985,3.623a4.4,4.4,0,0,1,.41-1.928,3.206,3.206,0,0,1,1.172-1.343,3.214,3.214,0,0,1,1.774-.489,3.256,3.256,0,0,1,1.791.489A3.2,3.2,0,0,1,89.155-5.7a4.4,4.4,0,0,1,.41,1.928v.157a4.377,4.377,0,0,1-.41,1.924,3.21,3.21,0,0,1-1.172,1.34A3.226,3.226,0,0,1,86.2.137a3.226,3.226,0,0,1-1.781-.489,3.233,3.233,0,0,1-1.176-1.34,4.346,4.346,0,0,1-.414-1.924Zm1.278.157a3.848,3.848,0,0,0,.236,1.374,2.206,2.206,0,0,0,.708.988A1.818,1.818,0,0,0,86.2-.889a1.807,1.807,0,0,0,1.142-.366,2.206,2.206,0,0,0,.708-.988,3.848,3.848,0,0,0,.236-1.374v-.157a3.8,3.8,0,0,0-.239-1.374,2.253,2.253,0,0,0-.711-.991,1.807,1.807,0,0,0-1.148-.369,1.782,1.782,0,0,0-1.138.369,2.24,2.24,0,0,0-.7.991,3.848,3.848,0,0,0-.236,1.374ZM94.2-7.533a1.934,1.934,0,0,1,.308.031,1.014,1.014,0,0,1,.253.065v1.169a3.4,3.4,0,0,0-.622-.055,1.852,1.852,0,0,0-1.049.28,1.712,1.712,0,0,0-.632.786V0H91.179V-7.4h1.244l.027.841a2.089,2.089,0,0,1,.725-.721A1.991,1.991,0,0,1,94.2-7.533Zm7.691-2.967V0h-1.169l-.062-.786a2.564,2.564,0,0,1-2.105.923,2.5,2.5,0,0,1-1.518-.485,3.152,3.152,0,0,1-1.029-1.34,4.855,4.855,0,0,1-.366-1.928V-3.76a5.026,5.026,0,0,1,.362-1.976,3.032,3.032,0,0,1,1.025-1.326,2.585,2.585,0,0,1,1.538-.472,2.539,2.539,0,0,1,2.044.868V-10.5ZM98.87-.93A1.845,1.845,0,0,0,100.613-2V-5.428a2.054,2.054,0,0,0-.687-.766,1.859,1.859,0,0,0-1.042-.28,1.692,1.692,0,0,0-1.1.359,2.082,2.082,0,0,0-.649.974,4.286,4.286,0,0,0-.208,1.381v.144a4.193,4.193,0,0,0,.208,1.371,2.073,2.073,0,0,0,.646.96A1.678,1.678,0,0,0,98.87-.93Zm7.766.93V-8.442l-2.543.937V-8.647l3.623-1.36h.2V0Zm5.011,0V-.9l3.261-3.63a13.469,13.469,0,0,0,.937-1.138,3.551,3.551,0,0,0,.461-.834,2.286,2.286,0,0,0,.133-.776,1.983,1.983,0,0,0-.205-.906,1.555,1.555,0,0,0-.595-.643,1.748,1.748,0,0,0-.923-.236,1.9,1.9,0,0,0-1.477.554,2.114,2.114,0,0,0-.506,1.483h-1.278a3.217,3.217,0,0,1,.376-1.552,2.723,2.723,0,0,1,1.114-1.1,3.618,3.618,0,0,1,1.771-.407,3.6,3.6,0,0,1,1.6.332,2.423,2.423,0,0,1,1.039.933,2.65,2.65,0,0,1,.362,1.395,3.384,3.384,0,0,1-.5,1.692,10.36,10.36,0,0,1-1.364,1.808l-2.666,2.905h4.99V0ZM123.96-5.113a2.318,2.318,0,0,1,1.316.926,2.586,2.586,0,0,1,.4,1.412,2.894,2.894,0,0,1-.41,1.565,2.663,2.663,0,0,1-1.125,1,3.669,3.669,0,0,1-1.617.345,3.8,3.8,0,0,1-1.6-.328,2.684,2.684,0,0,1-1.138-.954,2.6,2.6,0,0,1-.42-1.487h1.278a1.8,1.8,0,0,0,.229.916,1.541,1.541,0,0,0,.653.612,2.177,2.177,0,0,0,1,.215A1.917,1.917,0,0,0,123.9-1.36a1.827,1.827,0,0,0,.5-1.388,1.657,1.657,0,0,0-.557-1.364,2.384,2.384,0,0,0-1.548-.455h-.9V-5.592h.9a2.4,2.4,0,0,0,1.077-.219,1.491,1.491,0,0,0,.66-.608,1.784,1.784,0,0,0,.219-.889,1.808,1.808,0,0,0-.434-1.309,1.726,1.726,0,0,0-1.3-.448,1.985,1.985,0,0,0-.937.212,1.545,1.545,0,0,0-.629.6,1.764,1.764,0,0,0-.226.906h-1.278a2.6,2.6,0,0,1,.386-1.388,2.7,2.7,0,0,1,1.083-.991,3.419,3.419,0,0,1,1.6-.362,3.662,3.662,0,0,1,1.586.321,2.366,2.366,0,0,1,1.049.954,2.974,2.974,0,0,1,.373,1.535,2.122,2.122,0,0,1-.171.807,2.455,2.455,0,0,1-.523.779A2.608,2.608,0,0,1,123.96-5.113Z" transform="translate(12 27)"/><g transform="translate(377 14)"><path class="b" d="M0,0H17V17H0Z"/><path class="v" d="M12.088,12.885a7.243,7.243,0,0,1-3.842,1.093A7.154,7.154,0,0,1,1.181,8.2,7.017,7.017,0,0,1,3.362,4.308L1.319,2.3l.924-.908L15.174,14.1l-.924.908-2.162-2.125Zm-7.8-7.669A5.734,5.734,0,0,0,2.515,8.2a5.8,5.8,0,0,0,3.355,4,5.972,5.972,0,0,0,5.267-.251l-1.324-1.3a2.978,2.978,0,0,1-3.645-.4,2.851,2.851,0,0,1-.409-3.582ZM8.844,9.7,6.727,7.615a1.585,1.585,0,0,0,.365,1.721A1.654,1.654,0,0,0,8.843,9.7ZM14,11.149l-.935-.918a5.687,5.687,0,0,0,.915-2.03,5.788,5.788,0,0,0-2.732-3.684,5.971,5.971,0,0,0-4.6-.592L5.618,2.912a7.287,7.287,0,0,1,2.629-.488A7.154,7.154,0,0,1,15.313,8.2,6.967,6.967,0,0,1,14,11.149ZM8.066,5.318a2.968,2.968,0,0,1,2.259.841,2.861,2.861,0,0,1,.855,2.221L8.065,5.318Z" transform="translate(0.253 0.299)"/></g></g></g><g transform="translate(-0.5 109)"><g transform="translate(422 -132)"><path class="w" d="M4.425,0h399.15C406.019,0,408,1.6,408,3.571V46.429C408,48.4,406.019,50,403.575,50H4.425C1.981,50,0,48.4,0,46.429V3.571C0,1.6,1.981,0,4.425,0Z" transform="translate(214 882)"/><path class="d" d="M-45.824-3.812a4.359,4.359,0,0,1-.645,2.07,3.814,3.814,0,0,1-1.582,1.4,5.336,5.336,0,0,1-2.383.5,4.683,4.683,0,0,1-2.531-.668A4.28,4.28,0,0,1-54.6-2.418a6.961,6.961,0,0,1-.566-2.918v-.7a6.793,6.793,0,0,1,.586-2.918,4.418,4.418,0,0,1,1.656-1.918,4.6,4.6,0,0,1,2.5-.672,5.176,5.176,0,0,1,2.4.516A3.806,3.806,0,0,1-46.477-9.6a4.865,4.865,0,0,1,.66,2.105h-2.445a2.349,2.349,0,0,0-.566-1.535,2.169,2.169,0,0,0-1.6-.5,1.9,1.9,0,0,0-1.7.844,4.911,4.911,0,0,0-.555,2.641v.711a7.089,7.089,0,0,0,.227,1.973,2.142,2.142,0,0,0,.719,1.137,2.1,2.1,0,0,0,1.3.375,2.251,2.251,0,0,0,1.574-.48,2.14,2.14,0,0,0,.59-1.48Zm5.508-4.8a2.876,2.876,0,0,1,.383.027,2.055,2.055,0,0,1,.328.066l-.031,2.281a6.15,6.15,0,0,0-.836-.062,1.62,1.62,0,0,0-1.648.836V0H-44.48V-8.453h2.219l.07,1.023A2.337,2.337,0,0,1-41.4-8.3,1.978,1.978,0,0,1-40.316-8.609Zm9.172,5.148h-5.344a2.077,2.077,0,0,0,.656,1.254,1.948,1.948,0,0,0,1.344.465,2.752,2.752,0,0,0,1.129-.23,2.329,2.329,0,0,0,.887-.691l1.133,1.3a3.456,3.456,0,0,1-1.3,1.078,4.346,4.346,0,0,1-2,.438A4.466,4.466,0,0,1-36.9-.391a3.761,3.761,0,0,1-1.469-1.484,4.25,4.25,0,0,1-.512-2.07v-.3A5.152,5.152,0,0,1-38.4-6.5a3.635,3.635,0,0,1,1.375-1.551A3.942,3.942,0,0,1-34.9-8.609a3.884,3.884,0,0,1,2.039.508A3.244,3.244,0,0,1-31.582-6.66a5.138,5.138,0,0,1,.438,2.2Zm-2.312-1.766a1.608,1.608,0,0,0-.379-1.086,1.392,1.392,0,0,0-1.082-.4,1.306,1.306,0,0,0-1.051.445,2.406,2.406,0,0,0-.5,1.227h3.008Zm10.43,3.141a6.366,6.366,0,0,0,.086,1.164,3.052,3.052,0,0,0,.258.789V0h-2.367a2.507,2.507,0,0,1-.227-.758,2.684,2.684,0,0,1-2.117.914,3.2,3.2,0,0,1-1.453-.328,2.6,2.6,0,0,1-1.035-.906,2.327,2.327,0,0,1-.379-1.3,2.394,2.394,0,0,1,.992-2.059,4.935,4.935,0,0,1,2.922-.723h.961v-.477a1.3,1.3,0,0,0-.3-.91,1.149,1.149,0,0,0-.891-.324,1.264,1.264,0,0,0-.84.254.893.893,0,0,0-.3.723h-2.359a2.282,2.282,0,0,1,.449-1.375,3.024,3.024,0,0,1,1.273-.977,4.722,4.722,0,0,1,1.9-.359,4.414,4.414,0,0,1,1.773.336,2.682,2.682,0,0,1,1.211,1.008,2.943,2.943,0,0,1,.438,1.641Zm-3.836.453a1.8,1.8,0,0,0,.906-.223,1.457,1.457,0,0,0,.57-.543V-3.812h-.9a1.8,1.8,0,0,0-1.223.355,1.177,1.177,0,0,0-.4.926.822.822,0,0,0,.285.648A1.114,1.114,0,0,0-26.863-1.633Zm9.172-.148a3.4,3.4,0,0,0,.656-.055V-.062a4.1,4.1,0,0,1-1.391.219A2.217,2.217,0,0,1-20.91-2.375V-6.734h-1.2V-8.453h1.2v-2.094h2.359v2.094h1.422v1.719h-1.422v4.086a.928.928,0,0,0,.2.684A.96.96,0,0,0-17.691-1.781Zm9.211-1.68h-5.344a2.077,2.077,0,0,0,.656,1.254,1.948,1.948,0,0,0,1.344.465,2.752,2.752,0,0,0,1.129-.23,2.329,2.329,0,0,0,.887-.691l1.133,1.3a3.456,3.456,0,0,1-1.3,1.078,4.346,4.346,0,0,1-2,.438,4.466,4.466,0,0,1-2.254-.547A3.761,3.761,0,0,1-15.7-1.875a4.25,4.25,0,0,1-.512-2.07v-.3A5.152,5.152,0,0,1-15.738-6.5a3.635,3.635,0,0,1,1.375-1.551,3.942,3.942,0,0,1,2.125-.559A3.884,3.884,0,0,1-10.2-8.1,3.244,3.244,0,0,1-8.918-6.66a5.138,5.138,0,0,1,.438,2.2Zm-2.312-1.766a1.608,1.608,0,0,0-.379-1.086,1.392,1.392,0,0,0-1.082-.4,1.306,1.306,0,0,0-1.051.445,2.406,2.406,0,0,0-.5,1.227h3.008ZM3.316-2.258H-.715L-1.457,0H-4.066L.152-11.375H2.434L6.676,0H4.059ZM2.66-4.242,1.293-8.391-.066-4.242ZM14.629-2.961a2.858,2.858,0,0,1-.469,1.609,3.188,3.188,0,0,1-1.27,1.109,3.934,3.934,0,0,1-1.777.4A3.975,3.975,0,0,1,8.957-.4,3.444,3.444,0,0,1,7.633-1.922a5.258,5.258,0,0,1-.441-2.2v-.2a5.258,5.258,0,0,1,.441-2.2,3.452,3.452,0,0,1,1.32-1.523A3.939,3.939,0,0,1,11.1-8.609a4.044,4.044,0,0,1,1.84.4,2.955,2.955,0,0,1,1.246,1.156,3.431,3.431,0,0,1,.445,1.777H12.418A1.529,1.529,0,0,0,12.051-6.3a1.266,1.266,0,0,0-1-.406,1.2,1.2,0,0,0-1.18.645,3.945,3.945,0,0,0-.32,1.738v.2a3.973,3.973,0,0,0,.316,1.75,1.213,1.213,0,0,0,1.2.633,1.411,1.411,0,0,0,.977-.328,1.157,1.157,0,0,0,.375-.891Zm8.344,0A2.858,2.858,0,0,1,22.5-1.352a3.188,3.188,0,0,1-1.27,1.109,3.934,3.934,0,0,1-1.777.4A3.975,3.975,0,0,1,17.3-.4a3.444,3.444,0,0,1-1.324-1.523,5.258,5.258,0,0,1-.441-2.2v-.2a5.258,5.258,0,0,1,.441-2.2A3.452,3.452,0,0,1,17.3-8.055a3.939,3.939,0,0,1,2.145-.555,4.044,4.044,0,0,1,1.84.4,2.955,2.955,0,0,1,1.246,1.156,3.431,3.431,0,0,1,.445,1.777H20.762A1.529,1.529,0,0,0,20.395-6.3a1.266,1.266,0,0,0-1-.406,1.2,1.2,0,0,0-1.18.645,3.945,3.945,0,0,0-.32,1.738v.2a3.973,3.973,0,0,0,.316,1.75,1.213,1.213,0,0,0,1.2.633,1.411,1.411,0,0,0,.977-.328,1.157,1.157,0,0,0,.375-.891ZM23.879-4.3a5.03,5.03,0,0,1,.473-2.219A3.587,3.587,0,0,1,25.73-8.055a4.065,4.065,0,0,1,2.164-.555,4.1,4.1,0,0,1,2.176.555,3.58,3.58,0,0,1,1.383,1.531A5.03,5.03,0,0,1,31.926-4.3v.164a5,5,0,0,1-.473,2.215A3.592,3.592,0,0,1,30.074-.4,4.065,4.065,0,0,1,27.91.156,4.1,4.1,0,0,1,25.734-.4a3.585,3.585,0,0,1-1.383-1.527,5,5,0,0,1-.473-2.215Zm2.359.164a3.328,3.328,0,0,0,.4,1.746,1.38,1.38,0,0,0,1.273.652A1.364,1.364,0,0,0,29.168-2.4a3.332,3.332,0,0,0,.4-1.742V-4.3a3.357,3.357,0,0,0-.4-1.742,1.374,1.374,0,0,0-1.273-.664,1.358,1.358,0,0,0-1.258.668,3.362,3.362,0,0,0-.4,1.738ZM40.59-8.453V0H38.379l-.062-.883a2.681,2.681,0,0,1-.977.77,3.09,3.09,0,0,1-1.32.27,2.752,2.752,0,0,1-2.066-.766,3.292,3.292,0,0,1-.746-2.375V-8.453h2.352v5.484a1.227,1.227,0,0,0,.309.922,1.183,1.183,0,0,0,.855.3,1.575,1.575,0,0,0,1.508-.758V-8.453ZM46.9-8.609a2.531,2.531,0,0,1,1.969.762,3.638,3.638,0,0,1,.7,2.488V0H47.207V-5.367a1.376,1.376,0,0,0-.32-1.043,1.434,1.434,0,0,0-.992-.293,1.58,1.58,0,0,0-.8.2,1.5,1.5,0,0,0-.551.555V0H42.184V-8.453h2.211l.078.977a2.962,2.962,0,0,1,1.063-.844A3.184,3.184,0,0,1,46.9-8.609Zm7.977,6.828a3.4,3.4,0,0,0,.656-.055V-.062a4.1,4.1,0,0,1-1.391.219A2.217,2.217,0,0,1,51.66-2.375V-6.734h-1.2V-8.453h1.2v-2.094H54.02v2.094h1.422v1.719H54.02v4.086a.928.928,0,0,0,.2.684A.96.96,0,0,0,54.879-1.781Z" transform="translate(418.382 912)"/></g><g transform="translate(4.5 -28)"><path class="w" d="M-117.852,0V-8.282h1.1V0Zm10.559-1.342a4.1,4.1,0,0,0,.057.668,2.545,2.545,0,0,0,.159.583V0h-1.109a2.409,2.409,0,0,1-.148-.643,2.442,2.442,0,0,1-.765.549,2.3,2.3,0,0,1-.981.208,2.369,2.369,0,0,1-1.089-.242,1.807,1.807,0,0,1-.734-.657,1.707,1.707,0,0,1-.259-.922,1.806,1.806,0,0,1,.338-1.109,2.042,2.042,0,0,1,.961-.685,4.238,4.238,0,0,1,1.47-.23h1.035v-.489a1.172,1.172,0,0,0-.333-.885,1.325,1.325,0,0,0-.959-.321,1.667,1.667,0,0,0-.683.134,1.153,1.153,0,0,0-.469.358.8.8,0,0,0-.168.486h-1.064a1.459,1.459,0,0,1,.307-.87A2.22,2.22,0,0,1-110.86-6a2.938,2.938,0,0,1,1.274-.265,2.908,2.908,0,0,1,1.2.23,1.787,1.787,0,0,1,.8.694,2.1,2.1,0,0,1,.29,1.135Zm-2.634.546a1.792,1.792,0,0,0,.68-.128,1.77,1.77,0,0,0,.543-.338,1.547,1.547,0,0,0,.347-.455V-2.992h-.865a2.758,2.758,0,0,0-1.394.287.929.929,0,0,0-.484.85,1.07,1.07,0,0,0,.137.54.972.972,0,0,0,.4.378A1.34,1.34,0,0,0-109.927-.8Zm9.261-5.359V-.131A2.736,2.736,0,0,1-101,1.249a2.184,2.184,0,0,1-.919.879,2.949,2.949,0,0,1-1.362.3,3.215,3.215,0,0,1-.785-.108,3.187,3.187,0,0,1-.833-.347,2.04,2.04,0,0,1-.663-.614l.552-.62a2.063,2.063,0,0,0,1.65.836,1.623,1.623,0,0,0,1.192-.429,1.646,1.646,0,0,0,.435-1.226V-.609a2.154,2.154,0,0,1-1.718.722,2.1,2.1,0,0,1-1.277-.4,2.594,2.594,0,0,1-.848-1.112,4.1,4.1,0,0,1-.3-1.607v-.119a4.253,4.253,0,0,1,.3-1.644,2.485,2.485,0,0,1,.848-1.1,2.17,2.17,0,0,1,1.291-.393,2.124,2.124,0,0,1,1.758.791l.046-.677Zm-2.52,5.381a1.537,1.537,0,0,0,1.456-.9V-4.505a1.713,1.713,0,0,0-.575-.646,1.547,1.547,0,0,0-.87-.236,1.408,1.408,0,0,0-.919.3,1.732,1.732,0,0,0-.54.811,3.567,3.567,0,0,0-.174,1.149v.119a3.489,3.489,0,0,0,.174,1.141,1.725,1.725,0,0,0,.538.8A1.4,1.4,0,0,0-103.185-.774Zm6.645-5.5a1.609,1.609,0,0,1,.256.026.844.844,0,0,1,.21.054v.973a2.828,2.828,0,0,0-.518-.046,1.541,1.541,0,0,0-.873.233,1.425,1.425,0,0,0-.526.654V0h-1.064V-6.155h1.035l.023.7a1.739,1.739,0,0,1,.6-.6A1.657,1.657,0,0,1-96.541-6.269Zm6.417,3.481h-4.164a2.575,2.575,0,0,0,.239,1.041,1.783,1.783,0,0,0,.629.737,1.682,1.682,0,0,0,.953.27,1.877,1.877,0,0,0,.924-.216,2.252,2.252,0,0,0,.7-.62l.643.5a2.685,2.685,0,0,1-.91.856,2.755,2.755,0,0,1-1.411.333,2.856,2.856,0,0,1-1.485-.381A2.582,2.582,0,0,1-95-1.325a3.3,3.3,0,0,1-.35-1.536v-.245a3.585,3.585,0,0,1,.375-1.681,2.753,2.753,0,0,1,.993-1.1,2.473,2.473,0,0,1,1.323-.381,2.483,2.483,0,0,1,1.425.384A2.274,2.274,0,0,1-90.4-4.824a4.159,4.159,0,0,1,.273,1.564Zm-1.064-.933a2.3,2.3,0,0,0-.39-1.209,1.236,1.236,0,0,0-1.084-.486,1.377,1.377,0,0,0-1.061.464,2.331,2.331,0,0,0-.532,1.311h3.066Zm7.27.933h-4.164a2.575,2.575,0,0,0,.239,1.041,1.783,1.783,0,0,0,.629.737,1.682,1.682,0,0,0,.953.27,1.877,1.877,0,0,0,.924-.216,2.252,2.252,0,0,0,.7-.62l.643.5a2.685,2.685,0,0,1-.91.856,2.755,2.755,0,0,1-1.411.333A2.856,2.856,0,0,1-87.8-.267a2.582,2.582,0,0,1-.993-1.058,3.3,3.3,0,0,1-.35-1.536v-.245a3.585,3.585,0,0,1,.375-1.681,2.753,2.753,0,0,1,.993-1.1,2.473,2.473,0,0,1,1.323-.381,2.483,2.483,0,0,1,1.425.384,2.274,2.274,0,0,1,.839,1.061,4.159,4.159,0,0,1,.273,1.564Zm-1.064-.933a2.3,2.3,0,0,0-.39-1.209,1.236,1.236,0,0,0-1.084-.486,1.377,1.377,0,0,0-1.061.464,2.331,2.331,0,0,0-.532,1.311h3.066ZM-77.146,0a2.72,2.72,0,0,1-.813.114,1.4,1.4,0,0,1-1.032-.387,1.718,1.718,0,0,1-.39-1.257V-5.353H-80.5v-.8h1.121v-1.5h1.064v1.5h1.149v.8h-1.149v3.828a.745.745,0,0,0,.182.589.753.753,0,0,0,.495.151A1.9,1.9,0,0,0-77.38-.8a1.991,1.991,0,0,0,.228-.043Zm.786-3.14a3.661,3.661,0,0,1,.341-1.6,2.668,2.668,0,0,1,.976-1.118,2.675,2.675,0,0,1,1.476-.407,2.709,2.709,0,0,1,1.49.407A2.661,2.661,0,0,1-71.1-4.744a3.661,3.661,0,0,1,.341,1.6v.131a3.642,3.642,0,0,1-.341,1.6,2.671,2.671,0,0,1-.976,1.115,2.685,2.685,0,0,1-1.482.407,2.685,2.685,0,0,1-1.482-.407,2.691,2.691,0,0,1-.978-1.115,3.617,3.617,0,0,1-.344-1.6Zm1.064.131a3.2,3.2,0,0,0,.2,1.143,1.835,1.835,0,0,0,.589.822,1.513,1.513,0,0,0,.956.3,1.5,1.5,0,0,0,.95-.3,1.835,1.835,0,0,0,.589-.822,3.2,3.2,0,0,0,.2-1.143V-3.14a3.161,3.161,0,0,0-.2-1.143,1.875,1.875,0,0,0-.592-.825,1.5,1.5,0,0,0-.956-.307,1.483,1.483,0,0,0-.947.307,1.864,1.864,0,0,0-.586.825,3.2,3.2,0,0,0-.2,1.143ZM-63.891,0A2.72,2.72,0,0,1-64.7.114a1.4,1.4,0,0,1-1.032-.387,1.718,1.718,0,0,1-.39-1.257V-5.353h-1.121v-.8h1.121v-1.5h1.064v1.5h1.149v.8h-1.149v3.828a.745.745,0,0,0,.182.589.753.753,0,0,0,.495.151,1.9,1.9,0,0,0,.262-.02A1.991,1.991,0,0,0-63.9-.848Zm4.1-6.269q1.974,0,1.974,2.236V0h-1.064V-4.045a1.446,1.446,0,0,0-.3-1.024,1.215,1.215,0,0,0-.919-.319,1.517,1.517,0,0,0-.879.267A1.881,1.881,0,0,0-61.6-4.4V0h-1.064V-8.737H-61.6v3.311a2.323,2.323,0,0,1,.8-.623A2.328,2.328,0,0,1-59.794-6.269Zm8.528,3.481h-4.164a2.575,2.575,0,0,0,.239,1.041,1.783,1.783,0,0,0,.629.737,1.682,1.682,0,0,0,.953.27,1.877,1.877,0,0,0,.924-.216,2.252,2.252,0,0,0,.7-.62l.643.5a2.685,2.685,0,0,1-.91.856,2.755,2.755,0,0,1-1.411.333,2.856,2.856,0,0,1-1.485-.381,2.582,2.582,0,0,1-.993-1.058,3.3,3.3,0,0,1-.35-1.536v-.245a3.585,3.585,0,0,1,.375-1.681,2.753,2.753,0,0,1,.993-1.1A2.473,2.473,0,0,1-53.8-6.269a2.483,2.483,0,0,1,1.425.384,2.274,2.274,0,0,1,.839,1.061,4.159,4.159,0,0,1,.273,1.564Zm-1.064-.933a2.3,2.3,0,0,0-.39-1.209A1.236,1.236,0,0,0-53.8-5.415a1.377,1.377,0,0,0-1.061.464A2.331,2.331,0,0,0-55.4-3.641h3.066ZM-41.55-7.389h-2.657V0H-45.3V-7.389h-2.651v-.893h6.4Zm6.047,4.6h-4.164a2.575,2.575,0,0,0,.239,1.041,1.783,1.783,0,0,0,.629.737,1.682,1.682,0,0,0,.953.27,1.877,1.877,0,0,0,.924-.216,2.252,2.252,0,0,0,.7-.62l.643.5a2.685,2.685,0,0,1-.91.856A2.755,2.755,0,0,1-37.9.114a2.856,2.856,0,0,1-1.485-.381,2.582,2.582,0,0,1-.993-1.058,3.3,3.3,0,0,1-.35-1.536v-.245a3.585,3.585,0,0,1,.375-1.681,2.753,2.753,0,0,1,.993-1.1,2.473,2.473,0,0,1,1.323-.381,2.483,2.483,0,0,1,1.425.384,2.274,2.274,0,0,1,.839,1.061A4.159,4.159,0,0,1-35.5-3.259Zm-1.064-.933a2.3,2.3,0,0,0-.39-1.209,1.236,1.236,0,0,0-1.084-.486,1.377,1.377,0,0,0-1.061.464,2.331,2.331,0,0,0-.532,1.311h3.066Zm4.824-2.548a1.609,1.609,0,0,1,.256.026.844.844,0,0,1,.21.054v.973a2.828,2.828,0,0,0-.518-.046,1.541,1.541,0,0,0-.873.233,1.425,1.425,0,0,0-.526.654V0h-1.064V-6.155h1.035l.023.7a1.739,1.739,0,0,1,.6-.6A1.657,1.657,0,0,1-31.742-6.269Zm8.021,0a2.042,2.042,0,0,1,1.536.54,2.345,2.345,0,0,1,.523,1.684V0h-1.064V-4.056a1.338,1.338,0,0,0-.333-1.032,1.417,1.417,0,0,0-.976-.3,1.433,1.433,0,0,0-.717.173,1.27,1.27,0,0,0-.481.469,1.648,1.648,0,0,0-.213.666V0h-1.064V-4.05a1.172,1.172,0,0,0-1.314-1.337,1.552,1.552,0,0,0-.876.23,1.458,1.458,0,0,0-.529.64V0h-1.064V-6.155h1.007l.034.666a2.139,2.139,0,0,1,.774-.577,2.543,2.543,0,0,1,1.041-.2,2.252,2.252,0,0,1,1.067.242,1.555,1.555,0,0,1,.691.737,2.272,2.272,0,0,1,.816-.717A2.415,2.415,0,0,1-23.721-6.269ZM-17.878-2.7a4.331,4.331,0,0,1-1.658-.637,1.324,1.324,0,0,1-.56-1.132,1.542,1.542,0,0,1,.284-.9,1.974,1.974,0,0,1,.8-.654,2.771,2.771,0,0,1,1.192-.245,2.869,2.869,0,0,1,1.251.256,1.94,1.94,0,0,1,.816.691,1.748,1.748,0,0,1,.282.97H-16.53a.94.94,0,0,0-.154-.506,1.153,1.153,0,0,0-.447-.4,1.434,1.434,0,0,0-.685-.156,1.622,1.622,0,0,0-.688.128.9.9,0,0,0-.4.336.836.836,0,0,0-.128.447.679.679,0,0,0,.117.407.989.989,0,0,0,.421.293,5.079,5.079,0,0,0,.879.256,5.792,5.792,0,0,1,1.257.415,1.816,1.816,0,0,1,.72.586,1.461,1.461,0,0,1,.236.842,1.584,1.584,0,0,1-.3.947,1.93,1.93,0,0,1-.836.643,3.169,3.169,0,0,1-1.251.23,3.04,3.04,0,0,1-1.357-.282,2.1,2.1,0,0,1-.867-.742,1.79,1.79,0,0,1-.3-.984h1.064A1.108,1.108,0,0,0-19-1.226a1.216,1.216,0,0,0,.538.373,2.022,2.022,0,0,0,.68.114,1.962,1.962,0,0,0,.714-.117,1.013,1.013,0,0,0,.452-.319.737.737,0,0,0,.154-.458.874.874,0,0,0-.108-.444.984.984,0,0,0-.415-.347A3.562,3.562,0,0,0-17.878-2.7Zm6.5-.438a3.661,3.661,0,0,1,.341-1.6,2.668,2.668,0,0,1,.976-1.118,2.675,2.675,0,0,1,1.476-.407,2.709,2.709,0,0,1,1.49.407,2.661,2.661,0,0,1,.978,1.118,3.661,3.661,0,0,1,.341,1.6v.131a3.642,3.642,0,0,1-.341,1.6A2.671,2.671,0,0,1-7.089-.293,2.685,2.685,0,0,1-8.571.114a2.685,2.685,0,0,1-1.482-.407,2.691,2.691,0,0,1-.978-1.115,3.617,3.617,0,0,1-.344-1.6Zm1.064.131a3.2,3.2,0,0,0,.2,1.143,1.835,1.835,0,0,0,.589.822,1.513,1.513,0,0,0,.956.3,1.5,1.5,0,0,0,.95-.3,1.835,1.835,0,0,0,.589-.822,3.2,3.2,0,0,0,.2-1.143V-3.14a3.161,3.161,0,0,0-.2-1.143,1.874,1.874,0,0,0-.592-.825,1.5,1.5,0,0,0-.956-.307,1.483,1.483,0,0,0-.947.307,1.864,1.864,0,0,0-.586.825,3.2,3.2,0,0,0-.2,1.143Zm8.528-4.955a1.021,1.021,0,0,0-.785.3,1.209,1.209,0,0,0-.279.856v.654h1.308v.8H-2.847V0H-3.911V-5.353h-.967v-.8h.967v-.654a2.038,2.038,0,0,1,.538-1.516A2.031,2.031,0,0,1-1.88-8.857a3.065,3.065,0,0,1,.722.091l-.057.848A3.262,3.262,0,0,0-1.784-7.964ZM8.559-2.679a2.766,2.766,0,0,1-.407,1.53A2.534,2.534,0,0,1,7.06-.2,3.567,3.567,0,0,1,5.55.114,3.588,3.588,0,0,1,4.011-.2a2.446,2.446,0,0,1-1.064-.944,2.855,2.855,0,0,1-.39-1.533v-5.6H3.65v5.6a1.868,1.868,0,0,0,.509,1.425A1.944,1.944,0,0,0,5.55-.774a1.942,1.942,0,0,0,1.394-.481A1.875,1.875,0,0,0,7.45-2.679v-5.6H8.559ZM12.308-2.7a4.331,4.331,0,0,1-1.658-.637,1.324,1.324,0,0,1-.56-1.132,1.542,1.542,0,0,1,.284-.9,1.974,1.974,0,0,1,.8-.654,2.771,2.771,0,0,1,1.192-.245,2.869,2.869,0,0,1,1.251.256,1.94,1.94,0,0,1,.816.691,1.748,1.748,0,0,1,.282.97H13.657a.94.94,0,0,0-.154-.506,1.153,1.153,0,0,0-.447-.4,1.434,1.434,0,0,0-.685-.156,1.622,1.622,0,0,0-.688.128.9.9,0,0,0-.4.336.836.836,0,0,0-.128.447.679.679,0,0,0,.117.407.989.989,0,0,0,.421.293,5.079,5.079,0,0,0,.879.256,5.792,5.792,0,0,1,1.257.415,1.816,1.816,0,0,1,.72.586,1.461,1.461,0,0,1,.236.842,1.584,1.584,0,0,1-.3.947,1.93,1.93,0,0,1-.836.643A3.169,3.169,0,0,1,12.4.114a3.04,3.04,0,0,1-1.357-.282,2.1,2.1,0,0,1-.867-.742,1.79,1.79,0,0,1-.3-.984h1.064a1.108,1.108,0,0,0,.239.668,1.216,1.216,0,0,0,.538.373,2.022,2.022,0,0,0,.68.114,1.962,1.962,0,0,0,.714-.117,1.013,1.013,0,0,0,.452-.319.737.737,0,0,0,.154-.458.874.874,0,0,0-.108-.444.984.984,0,0,0-.415-.347A3.562,3.562,0,0,0,12.308-2.7Zm8.823-.085H16.968a2.575,2.575,0,0,0,.239,1.041,1.783,1.783,0,0,0,.629.737,1.682,1.682,0,0,0,.953.27,1.877,1.877,0,0,0,.924-.216,2.252,2.252,0,0,0,.7-.62l.643.5a2.685,2.685,0,0,1-.91.856,2.755,2.755,0,0,1-1.411.333,2.856,2.856,0,0,1-1.485-.381,2.582,2.582,0,0,1-.993-1.058,3.3,3.3,0,0,1-.35-1.536v-.245a3.585,3.585,0,0,1,.375-1.681,2.753,2.753,0,0,1,.993-1.1,2.474,2.474,0,0,1,1.323-.381,2.483,2.483,0,0,1,1.425.384,2.274,2.274,0,0,1,.839,1.061,4.159,4.159,0,0,1,.273,1.564ZM20.068-3.72a2.3,2.3,0,0,0-.39-1.209,1.236,1.236,0,0,0-1.084-.486,1.377,1.377,0,0,0-1.061.464A2.331,2.331,0,0,0,17-3.641h3.066Zm9.916,2.378a4.1,4.1,0,0,0,.057.668,2.545,2.545,0,0,0,.159.583V0H29.091a2.408,2.408,0,0,1-.148-.643,2.442,2.442,0,0,1-.765.549A2.3,2.3,0,0,1,27.2.114a2.369,2.369,0,0,1-1.089-.242,1.807,1.807,0,0,1-.734-.657,1.707,1.707,0,0,1-.259-.922,1.806,1.806,0,0,1,.338-1.109,2.043,2.043,0,0,1,.961-.685,4.238,4.238,0,0,1,1.47-.23H28.92v-.489a1.172,1.172,0,0,0-.333-.885,1.325,1.325,0,0,0-.959-.321,1.667,1.667,0,0,0-.683.134,1.153,1.153,0,0,0-.469.358.8.8,0,0,0-.168.486H25.246a1.459,1.459,0,0,1,.307-.87A2.22,2.22,0,0,1,26.417-6a2.938,2.938,0,0,1,1.274-.265,2.908,2.908,0,0,1,1.2.23,1.787,1.787,0,0,1,.8.694,2.1,2.1,0,0,1,.29,1.135ZM27.35-.8a1.792,1.792,0,0,0,.68-.128,1.77,1.77,0,0,0,.543-.338,1.547,1.547,0,0,0,.347-.455V-2.992h-.865a2.758,2.758,0,0,0-1.394.287.929.929,0,0,0-.484.85,1.07,1.07,0,0,0,.137.54.972.972,0,0,0,.4.378A1.34,1.34,0,0,0,27.35-.8ZM34.53-6.269q1.974,0,1.974,2.236V0H35.44V-4.045a1.446,1.446,0,0,0-.3-1.024,1.215,1.215,0,0,0-.919-.319,1.517,1.517,0,0,0-.879.267,1.881,1.881,0,0,0-.617.717V0H31.657V-6.155h1.007L32.7-5.4a2.342,2.342,0,0,1,.8-.643A2.317,2.317,0,0,1,34.53-6.269Zm8.528-2.469V0h-.973l-.051-.654a2.134,2.134,0,0,1-1.752.768,2.083,2.083,0,0,1-1.263-.4,2.623,2.623,0,0,1-.856-1.115,4.04,4.04,0,0,1-.3-1.6v-.119a4.182,4.182,0,0,1,.3-1.644,2.523,2.523,0,0,1,.853-1.1,2.151,2.151,0,0,1,1.28-.393,2.113,2.113,0,0,1,1.7.722V-8.737ZM40.543-.774a1.535,1.535,0,0,0,1.451-.893v-2.85a1.709,1.709,0,0,0-.572-.637,1.547,1.547,0,0,0-.867-.233,1.408,1.408,0,0,0-.919.3,1.732,1.732,0,0,0-.54.811,3.567,3.567,0,0,0-.174,1.149v.119A3.489,3.489,0,0,0,39.1-1.869a1.725,1.725,0,0,0,.538.8A1.4,1.4,0,0,0,40.543-.774ZM50.852-8.282a3.548,3.548,0,0,1,1.573.321,2.3,2.3,0,0,1,1,.89,2.521,2.521,0,0,1,.338,1.314,2.61,2.61,0,0,1-.336,1.36,2.127,2.127,0,0,1-.987.856,3.85,3.85,0,0,1-1.584.293H48.895V0h-1.1V-8.282Zm0,4.147a1.88,1.88,0,0,0,1.362-.432,1.574,1.574,0,0,0,.441-1.178,1.779,1.779,0,0,0-.191-.822,1.417,1.417,0,0,0-.6-.6,2.079,2.079,0,0,0-1.015-.225H48.895v3.254Zm6.667-2.133a1.609,1.609,0,0,1,.256.026.844.844,0,0,1,.21.054v.973a2.828,2.828,0,0,0-.518-.046,1.541,1.541,0,0,0-.873.233,1.425,1.425,0,0,0-.526.654V0H55V-6.155H56.04l.023.7a1.739,1.739,0,0,1,.6-.6A1.657,1.657,0,0,1,57.519-6.269ZM59.607-8.4a.621.621,0,0,1,.464.171.591.591,0,0,1,.168.432.574.574,0,0,1-.168.424.627.627,0,0,1-.464.168.607.607,0,0,1-.458-.168.585.585,0,0,1-.162-.424.6.6,0,0,1,.162-.432A.6.6,0,0,1,59.607-8.4ZM59.067,0V-6.155h1.064V0Zm7.4-6.155L64.261,0h-.808l-2.23-6.155H62.31l1.559,4.716,1.513-4.716Zm5.644,4.812a4.1,4.1,0,0,0,.057.668,2.545,2.545,0,0,0,.159.583V0H71.219a2.409,2.409,0,0,1-.148-.643,2.442,2.442,0,0,1-.765.549,2.3,2.3,0,0,1-.981.208,2.369,2.369,0,0,1-1.089-.242A1.807,1.807,0,0,1,67.5-.785a1.707,1.707,0,0,1-.259-.922,1.806,1.806,0,0,1,.338-1.109,2.042,2.042,0,0,1,.961-.685,4.238,4.238,0,0,1,1.47-.23h1.035v-.489a1.172,1.172,0,0,0-.333-.885,1.325,1.325,0,0,0-.959-.321,1.667,1.667,0,0,0-.683.134,1.153,1.153,0,0,0-.469.358.8.8,0,0,0-.168.486H67.373a1.459,1.459,0,0,1,.307-.87A2.22,2.22,0,0,1,68.545-6a2.938,2.938,0,0,1,1.274-.265,2.908,2.908,0,0,1,1.2.23,1.787,1.787,0,0,1,.8.694,2.1,2.1,0,0,1,.29,1.135ZM69.478-.8a1.792,1.792,0,0,0,.68-.128,1.77,1.77,0,0,0,.543-.338,1.547,1.547,0,0,0,.347-.455V-2.992h-.865A2.758,2.758,0,0,0,68.79-2.7a.929.929,0,0,0-.484.85,1.07,1.07,0,0,0,.137.54.972.972,0,0,0,.4.378A1.34,1.34,0,0,0,69.478-.8Zm9.233-1.149a1.884,1.884,0,0,1-.37,1.015,2.469,2.469,0,0,1-.9.759,2.574,2.574,0,0,1-1.192.284A2.657,2.657,0,0,1,74.743-.3a2.533,2.533,0,0,1-.924-1.109,3.8,3.8,0,0,1-.307-1.55V-3.2a3.8,3.8,0,0,1,.307-1.55,2.533,2.533,0,0,1,.924-1.109,2.657,2.657,0,0,1,1.51-.412,2.644,2.644,0,0,1,1.254.29,2.191,2.191,0,0,1,.862.8,2.342,2.342,0,0,1,.341,1.141H77.7a1.573,1.573,0,0,0-.216-.7,1.371,1.371,0,0,0-.506-.5,1.441,1.441,0,0,0-.728-.182,1.478,1.478,0,0,0-.984.316,1.723,1.723,0,0,0-.535.813A3.558,3.558,0,0,0,74.575-3.2v.239a2.981,2.981,0,0,0,.39,1.581,1.392,1.392,0,0,0,1.288.637A1.558,1.558,0,0,0,76.945-.9a1.415,1.415,0,0,0,.526-.432,1.181,1.181,0,0,0,.233-.617Zm5.774-4.209L82.016.95a3.134,3.134,0,0,1-.657,1.078,1.525,1.525,0,0,1-1.169.458,2,2,0,0,1-.31-.031,2.574,2.574,0,0,1-.287-.06V1.547q.063.011.142.02a1.35,1.35,0,0,0,.142.009,1.371,1.371,0,0,0,.839-.225A1.586,1.586,0,0,0,81.2.563l.233-.631-2.2-6.087H80.4l1.525,4.608,1.428-4.608Zm7.1-2.127a3.548,3.548,0,0,1,1.573.321,2.3,2.3,0,0,1,1,.89,2.521,2.521,0,0,1,.338,1.314,2.61,2.61,0,0,1-.336,1.36,2.127,2.127,0,0,1-.987.856,3.85,3.85,0,0,1-1.584.293H89.629V0h-1.1V-8.282Zm0,4.147a1.88,1.88,0,0,0,1.362-.432,1.574,1.574,0,0,0,.441-1.178,1.779,1.779,0,0,0-.191-.822,1.417,1.417,0,0,0-.6-.6,2.079,2.079,0,0,0-1.015-.225H89.629v3.254Zm3.806,1a3.661,3.661,0,0,1,.341-1.6,2.668,2.668,0,0,1,.976-1.118,2.675,2.675,0,0,1,1.476-.407,2.709,2.709,0,0,1,1.49.407,2.661,2.661,0,0,1,.978,1.118,3.661,3.661,0,0,1,.341,1.6v.131a3.642,3.642,0,0,1-.341,1.6,2.671,2.671,0,0,1-.976,1.115A2.685,2.685,0,0,1,98.2.114a2.685,2.685,0,0,1-1.482-.407,2.691,2.691,0,0,1-.978-1.115,3.617,3.617,0,0,1-.344-1.6Zm1.064.131a3.2,3.2,0,0,0,.2,1.143,1.835,1.835,0,0,0,.589.822,1.513,1.513,0,0,0,.956.3,1.5,1.5,0,0,0,.95-.3,1.835,1.835,0,0,0,.589-.822,3.2,3.2,0,0,0,.2-1.143V-3.14a3.161,3.161,0,0,0-.2-1.143,1.875,1.875,0,0,0-.592-.825,1.5,1.5,0,0,0-.956-.307,1.483,1.483,0,0,0-.947.307,1.864,1.864,0,0,0-.586.825,3.2,3.2,0,0,0-.2,1.143ZM102.429,0V-8.737h1.064V0Zm3.4-8.4a.621.621,0,0,1,.464.171.591.591,0,0,1,.168.432.574.574,0,0,1-.168.424.627.627,0,0,1-.464.168.607.607,0,0,1-.458-.168.585.585,0,0,1-.162-.424.6.6,0,0,1,.162-.432A.6.6,0,0,1,105.825-8.4Zm-.54,8.4V-6.155h1.064V0Zm7.691-1.945a1.884,1.884,0,0,1-.37,1.015,2.469,2.469,0,0,1-.9.759,2.574,2.574,0,0,1-1.192.284,2.657,2.657,0,0,1-1.51-.412,2.533,2.533,0,0,1-.924-1.109,3.8,3.8,0,0,1-.307-1.55V-3.2a3.8,3.8,0,0,1,.307-1.55,2.533,2.533,0,0,1,.924-1.109,2.657,2.657,0,0,1,1.51-.412,2.644,2.644,0,0,1,1.254.29,2.191,2.191,0,0,1,.862.8,2.342,2.342,0,0,1,.341,1.141h-1.007a1.573,1.573,0,0,0-.216-.7,1.371,1.371,0,0,0-.506-.5,1.441,1.441,0,0,0-.728-.182,1.478,1.478,0,0,0-.984.316,1.723,1.723,0,0,0-.535.813,3.558,3.558,0,0,0-.159,1.089v.239a2.981,2.981,0,0,0,.39,1.581,1.392,1.392,0,0,0,1.288.637A1.558,1.558,0,0,0,111.21-.9a1.415,1.415,0,0,0,.526-.432,1.181,1.181,0,0,0,.233-.617Zm5.774-4.209L116.282.95a3.134,3.134,0,0,1-.657,1.078,1.525,1.525,0,0,1-1.169.458,2,2,0,0,1-.31-.031,2.574,2.574,0,0,1-.287-.06V1.547q.063.011.142.02a1.35,1.35,0,0,0,.142.009,1.371,1.371,0,0,0,.839-.225,1.586,1.586,0,0,0,.486-.788l.233-.631-2.2-6.087h1.16l1.525,4.608,1.428-4.608Z" transform="translate(778.5 746)"/><g transform="translate(-0.5 97.5)"><g transform="translate(-39 3)"><g class="x" transform="translate(675 634)"><path class="af" d="M 12.57143020629883 15.5 L 3.428570032119751 15.5 C 1.813750028610229 15.5 0.5 14.18624973297119 0.5 12.57143020629883 L 0.5 3.428570032119751 C 0.5 1.813750028610229 1.813750028610229 0.5 3.428570032119751 0.5 L 12.57143020629883 0.5 C 14.18624973297119 0.5 15.5 1.813750028610229 15.5 3.428570032119751 L 15.5 12.57143020629883 C 15.5 14.18624973297119 14.18624973297119 15.5 12.57143020629883 15.5 Z"/><path class="ag" d="M 3.428569793701172 1 C 2.089449882507324 1 1 2.089449882507324 1 3.428569793701172 L 1 12.57143020629883 C 1 13.91055011749268 2.089449882507324 15 3.428569793701172 15 L 12.57143020629883 15 C 13.91055011749268 15 15 13.91055011749268 15 12.57143020629883 L 15 3.428569793701172 C 15 2.089449882507324 13.91055011749268 1 12.57143020629883 1 L 3.428569793701172 1 M 3.428569793701172 0 L 12.57143020629883 0 C 14.46498012542725 0 16 1.535019874572754 16 3.428569793701172 L 16 12.57143020629883 C 16 14.46498012542725 14.46498012542725 16 12.57143020629883 16 L 3.428569793701172 16 C 1.535019874572754 16 0 14.46498012542725 0 12.57143020629883 L 0 3.428569793701172 C 0 1.535019874572754 1.535019874572754 0 3.428569793701172 0 Z"/></g><path class="y" d="M18.347,15l-3.906,4.394L12,17.441" transform="translate(667.538 624.7)"/></g></g></g></g><g transform="translate(-0.5)"><path class="s" d="M2.373-7.307v2.49H5.8V-3.6H2.373V0H.855V-8.531H6.293v1.225ZM13.741-2.842a2.983,2.983,0,0,1-.419,1.617,2.627,2.627,0,0,1-1.146,1,3.841,3.841,0,0,1-1.635.337A3.879,3.879,0,0,1,8.886-.22a2.563,2.563,0,0,1-1.131-1,3.046,3.046,0,0,1-.407-1.62V-8.531H8.86v5.689A1.752,1.752,0,0,0,9.3-1.532a1.7,1.7,0,0,0,1.239.431,1.705,1.705,0,0,0,1.245-.428,1.765,1.765,0,0,0,.437-1.312V-8.531h1.518ZM20.7-1.219V0H15.329V-8.531h1.518v7.313Zm6.522,0V0H21.851V-8.531h1.518v7.313ZM36.589,0,32.833-6V0H31.315V-8.531h1.518L36.6-2.52V-8.531h1.506V0Zm8.057-1.957H41.371L40.691,0H39.1L42.32-8.531h1.365L46.914,0H45.326Zm-.428-1.225-1.213-3.5-1.213,3.5ZM56.664,0H55.152V-2.754L55.3-6.545,52.814,0H51.73L49.246-6.539,49.4-2.754V0H47.881V-8.531H49.85l2.426,6.492L54.7-8.531h1.969Zm7.342-1.219V0h-5.6V-8.531h5.561v1.225H59.928v2.314h3.486v1.2H59.928v2.578Z" transform="translate(636 377)"/><g transform="translate(636 387)"><g class="z"><rect class="af" width="408" height="49" rx="3"/><rect class="b" x="0.5" y="0.5" width="407" height="48" rx="2.5"/></g><path class="aa" d="M4.095-4.279a7.038,7.038,0,0,1-2.427-1.2A2.3,2.3,0,0,1,.813-7.328a2.4,2.4,0,0,1,.448-1.429,2.938,2.938,0,0,1,1.254-.981,4.574,4.574,0,0,1,1.846-.352,4.22,4.22,0,0,1,1.9.407,3.044,3.044,0,0,1,1.254,1.1,2.819,2.819,0,0,1,.438,1.535H6.193a1.562,1.562,0,0,0-.468-1.189,1.94,1.94,0,0,0-1.384-.444,2,2,0,0,0-1.309.373,1.206,1.206,0,0,0-.448.974,1.089,1.089,0,0,0,.506.9,5.3,5.3,0,0,0,1.593.684,8.157,8.157,0,0,1,1.856.766A3.042,3.042,0,0,1,7.615-3.965a2.6,2.6,0,0,1,.355,1.374,2.436,2.436,0,0,1-.437,1.449,2.774,2.774,0,0,1-1.241.947A4.894,4.894,0,0,1,4.416.137a5.069,5.069,0,0,1-1.9-.359A3.4,3.4,0,0,1,1.063-1.3,2.736,2.736,0,0,1,.506-3.028H2.276A1.548,1.548,0,0,0,2.861-1.7a2.548,2.548,0,0,0,1.555.434A2.116,2.116,0,0,0,5.735-1.62a1.148,1.148,0,0,0,.458-.957,1.286,1.286,0,0,0-.171-.687A1.579,1.579,0,0,0,5.4-3.78,7.523,7.523,0,0,0,4.095-4.279ZM15.2-1.723a3.821,3.821,0,0,0,.28,1.606V0H13.748a3.046,3.046,0,0,1-.191-.69,2.643,2.643,0,0,1-.834.6,2.582,2.582,0,0,1-1.1.226,2.865,2.865,0,0,1-1.3-.287,2.2,2.2,0,0,1-.9-.793,2.072,2.072,0,0,1-.321-1.135A2.091,2.091,0,0,1,9.985-3.89a4.233,4.233,0,0,1,2.492-.629H13.5V-5a1.266,1.266,0,0,0-.321-.919,1.265,1.265,0,0,0-.95-.332,1.594,1.594,0,0,0-.663.13,1.057,1.057,0,0,0-.444.355.864.864,0,0,0-.157.506h-1.7a1.869,1.869,0,0,1,.379-1.118,2.647,2.647,0,0,1,1.08-.841,3.842,3.842,0,0,1,1.6-.318,3.671,3.671,0,0,1,1.5.287,2.252,2.252,0,0,1,1.015.861,2.556,2.556,0,0,1,.366,1.4Zm-3.254.5a1.778,1.778,0,0,0,.947-.253,1.626,1.626,0,0,0,.6-.608V-3.466h-.889a2.341,2.341,0,0,0-1.347.321,1.039,1.039,0,0,0-.458.9.964.964,0,0,0,.3.735A1.177,1.177,0,0,0,11.95-1.224Zm7.876-.048a2.683,2.683,0,0,0,.581-.068V-.027A3.491,3.491,0,0,1,19.3.137a1.967,1.967,0,0,1-1.422-.5,2.126,2.126,0,0,1-.52-1.593V-6.139h-1.2V-7.4h1.2V-9.2h1.7v1.8h1.3v1.258h-1.3v4.067a.822.822,0,0,0,.191.632A.851.851,0,0,0,19.826-1.271Zm1.327-2.5A4.385,4.385,0,0,1,21.566-5.7a3.19,3.19,0,0,1,1.193-1.343,3.376,3.376,0,0,1,1.832-.489,3.419,3.419,0,0,1,1.849.489,3.182,3.182,0,0,1,1.2,1.343,4.385,4.385,0,0,1,.414,1.935v.144a4.385,4.385,0,0,1-.414,1.935,3.167,3.167,0,0,1-1.193,1.34A3.407,3.407,0,0,1,24.6.137a3.424,3.424,0,0,1-1.842-.485,3.16,3.16,0,0,1-1.2-1.34,4.385,4.385,0,0,1-.414-1.935Zm1.7.144A3.1,3.1,0,0,0,23.292-1.9a1.463,1.463,0,0,0,1.313.67,1.5,1.5,0,0,0,.974-.318,1.858,1.858,0,0,0,.581-.858,3.687,3.687,0,0,0,.188-1.217v-.144A3.7,3.7,0,0,0,26.16-4.98a1.868,1.868,0,0,0-.584-.865,1.513,1.513,0,0,0-.984-.321,1.475,1.475,0,0,0-.971.321,1.892,1.892,0,0,0-.578.865,3.7,3.7,0,0,0-.188,1.213Zm9.154.533a4.956,4.956,0,0,1-1.962-.786,1.67,1.67,0,0,1-.69-1.408,1.955,1.955,0,0,1,.352-1.125,2.415,2.415,0,0,1,1-.82,3.532,3.532,0,0,1,1.507-.3,3.778,3.778,0,0,1,1.583.308,2.43,2.43,0,0,1,1.036.844A2.107,2.107,0,0,1,35.2-5.175H33.5a1.052,1.052,0,0,0-.147-.543,1.058,1.058,0,0,0-.434-.4,1.487,1.487,0,0,0-.7-.15,1.371,1.371,0,0,0-.9.26.809.809,0,0,0-.314.649.657.657,0,0,0,.133.417,1.125,1.125,0,0,0,.461.308,5.334,5.334,0,0,0,.909.26,7.214,7.214,0,0,1,1.5.465,2.293,2.293,0,0,1,.916.711,1.8,1.8,0,0,1,.321,1.094,1.927,1.927,0,0,1-.373,1.162,2.406,2.406,0,0,1-1.056.8,4.094,4.094,0,0,1-1.579.284,3.719,3.719,0,0,1-1.682-.355,2.677,2.677,0,0,1-1.08-.923,2.159,2.159,0,0,1-.369-1.2h1.647a1.091,1.091,0,0,0,.461.916,1.827,1.827,0,0,0,1.049.294,1.663,1.663,0,0,0,.967-.243.753.753,0,0,0,.345-.646.783.783,0,0,0-.123-.444,1.1,1.1,0,0,0-.468-.342A4.772,4.772,0,0,0,32.008-3.09Zm8.416-4.443q2.413,0,2.413,2.782V0h-1.7V-4.765a1.467,1.467,0,0,0-.318-1.063,1.326,1.326,0,0,0-.974-.318,1.637,1.637,0,0,0-.865.226,1.673,1.673,0,0,0-.6.629V0h-1.7V-10.5h1.7v3.91a2.665,2.665,0,0,1,.906-.7A2.639,2.639,0,0,1,40.424-7.533Zm5.059-2.693a.959.959,0,0,1,.7.256.878.878,0,0,1,.26.653.859.859,0,0,1-.26.643.966.966,0,0,1-.7.253.974.974,0,0,1-.7-.25.856.856,0,0,1-.26-.646.878.878,0,0,1,.26-.653A.959.959,0,0,1,45.483-10.227ZM44.629,0V-7.4h1.7V0Z" transform="translate(12 36.533)"/><path class="u" d="M1.772-6.343v2.437H4.746v.762H1.772V0H.825V-7.109h4.4v.767Zm5-.864a.533.533,0,0,1,.4.146.507.507,0,0,1,.144.371.493.493,0,0,1-.144.364.538.538,0,0,1-.4.144.521.521,0,0,1-.393-.144.5.5,0,0,1-.139-.364.517.517,0,0,1,.139-.371A.516.516,0,0,1,6.773-7.207ZM6.309,0V-5.283h.913V0Zm4.532-5.381a1.381,1.381,0,0,1,.22.022.725.725,0,0,1,.181.046v.835a2.427,2.427,0,0,0-.444-.039,1.323,1.323,0,0,0-.75.2,1.223,1.223,0,0,0-.452.562V0H8.683V-5.283h.889l.02.6a1.492,1.492,0,0,1,.518-.515A1.422,1.422,0,0,1,10.841-5.381Zm3.116,3.062a3.717,3.717,0,0,1-1.423-.547,1.137,1.137,0,0,1-.481-.972,1.324,1.324,0,0,1,.244-.771,1.7,1.7,0,0,1,.691-.562,2.379,2.379,0,0,1,1.023-.21,2.463,2.463,0,0,1,1.074.22,1.665,1.665,0,0,1,.7.593,1.5,1.5,0,0,1,.242.833h-.913a.806.806,0,0,0-.132-.435.99.99,0,0,0-.383-.344,1.231,1.231,0,0,0-.588-.134,1.392,1.392,0,0,0-.591.11.775.775,0,0,0-.344.288.718.718,0,0,0-.11.383.583.583,0,0,0,.1.349.849.849,0,0,0,.361.251,4.36,4.36,0,0,0,.754.22,4.971,4.971,0,0,1,1.079.356,1.559,1.559,0,0,1,.618.5,1.254,1.254,0,0,1,.2.723,1.359,1.359,0,0,1-.254.813,1.656,1.656,0,0,1-.718.552,2.72,2.72,0,0,1-1.074.2A2.609,2.609,0,0,1,12.87-.144a1.8,1.8,0,0,1-.745-.637,1.536,1.536,0,0,1-.254-.845h.913a.951.951,0,0,0,.205.574,1.044,1.044,0,0,0,.461.32,1.736,1.736,0,0,0,.583.1,1.684,1.684,0,0,0,.613-.1.87.87,0,0,0,.388-.273.632.632,0,0,0,.132-.393.75.75,0,0,0-.093-.381.844.844,0,0,0-.356-.3A3.057,3.057,0,0,0,13.956-2.319ZM19.514,0a2.335,2.335,0,0,1-.7.1,1.2,1.2,0,0,1-.886-.332,1.475,1.475,0,0,1-.334-1.079V-4.595h-.962v-.688h.962V-6.567h.913v1.284h.986v.688h-.986v3.286a.639.639,0,0,0,.156.505.646.646,0,0,0,.425.129,1.629,1.629,0,0,0,.225-.017,1.709,1.709,0,0,0,.2-.037Zm8.209,0L24.153-5.5V0h-.947V-7.109h.947L27.737-1.6V-7.109h.938V0Zm6.524-1.152a3.517,3.517,0,0,0,.049.574,2.185,2.185,0,0,0,.137.5V0H33.48a2.067,2.067,0,0,1-.127-.552,2.1,2.1,0,0,1-.657.471A1.973,1.973,0,0,1,31.854.1a2.033,2.033,0,0,1-.935-.208,1.551,1.551,0,0,1-.63-.564,1.465,1.465,0,0,1-.222-.791,1.551,1.551,0,0,1,.291-.952,1.753,1.753,0,0,1,.825-.588,3.638,3.638,0,0,1,1.262-.2h.889v-.42a1.006,1.006,0,0,0-.286-.759,1.137,1.137,0,0,0-.823-.276,1.431,1.431,0,0,0-.586.115.99.99,0,0,0-.4.308.684.684,0,0,0-.144.417h-.913a1.252,1.252,0,0,1,.264-.747,1.905,1.905,0,0,1,.742-.588,2.522,2.522,0,0,1,1.094-.227,2.5,2.5,0,0,1,1.028.2,1.534,1.534,0,0,1,.691.6,1.8,1.8,0,0,1,.249.974Zm-2.261.469a1.538,1.538,0,0,0,.583-.11,1.519,1.519,0,0,0,.466-.291,1.328,1.328,0,0,0,.3-.391V-2.568h-.742a2.368,2.368,0,0,0-1.2.247.8.8,0,0,0-.415.73.918.918,0,0,0,.117.464.834.834,0,0,0,.342.325A1.151,1.151,0,0,0,31.986-.684Zm9.332-4.7a1.753,1.753,0,0,1,1.318.464,2.013,2.013,0,0,1,.449,1.445V0h-.913V-3.481a1.149,1.149,0,0,0-.286-.886,1.216,1.216,0,0,0-.837-.256,1.23,1.23,0,0,0-.615.149,1.09,1.09,0,0,0-.413.4,1.414,1.414,0,0,0-.183.571V0h-.913V-3.477A1.006,1.006,0,0,0,37.8-4.624a1.332,1.332,0,0,0-.752.2,1.252,1.252,0,0,0-.454.549V0h-.913V-5.283h.864l.029.571a1.836,1.836,0,0,1,.664-.5,2.183,2.183,0,0,1,.894-.173,1.933,1.933,0,0,1,.916.208,1.335,1.335,0,0,1,.593.632,1.95,1.95,0,0,1,.7-.615A2.073,2.073,0,0,1,41.317-5.381Zm7.408,2.988H45.151a2.21,2.21,0,0,0,.205.894,1.53,1.53,0,0,0,.54.632,1.444,1.444,0,0,0,.818.232,1.611,1.611,0,0,0,.793-.186,1.933,1.933,0,0,0,.6-.532l.552.43a2.3,2.3,0,0,1-.781.735A2.364,2.364,0,0,1,46.664.1,2.451,2.451,0,0,1,45.39-.229a2.216,2.216,0,0,1-.852-.908,2.829,2.829,0,0,1-.3-1.318v-.21a3.077,3.077,0,0,1,.322-1.443,2.363,2.363,0,0,1,.852-.945,2.123,2.123,0,0,1,1.135-.327,2.132,2.132,0,0,1,1.223.33,1.952,1.952,0,0,1,.72.911A3.57,3.57,0,0,1,48.725-2.8Zm-.913-.8a1.974,1.974,0,0,0-.334-1.038,1.061,1.061,0,0,0-.93-.417,1.182,1.182,0,0,0-.911.4,2,2,0,0,0-.457,1.125h2.632Z" transform="translate(12 17.5)"/><path class="aa" d="M7.15,0,2.769-7V0H1V-9.953H2.769l4.4,7.014V-9.953H8.921V0Zm9.516-1.723a3.82,3.82,0,0,0,.28,1.606V0H15.211a3.046,3.046,0,0,1-.191-.69,2.643,2.643,0,0,1-.834.6,2.582,2.582,0,0,1-1.1.226,2.865,2.865,0,0,1-1.3-.287,2.2,2.2,0,0,1-.9-.793,2.072,2.072,0,0,1-.321-1.135,2.091,2.091,0,0,1,.878-1.812,4.233,4.233,0,0,1,2.492-.629h1.025V-5a1.266,1.266,0,0,0-.321-.919,1.265,1.265,0,0,0-.95-.332,1.594,1.594,0,0,0-.663.13,1.057,1.057,0,0,0-.444.355.864.864,0,0,0-.157.506h-1.7a1.869,1.869,0,0,1,.379-1.118,2.647,2.647,0,0,1,1.08-.841,3.842,3.842,0,0,1,1.6-.318,3.671,3.671,0,0,1,1.5.287,2.252,2.252,0,0,1,1.015.861,2.556,2.556,0,0,1,.366,1.4Zm-3.254.5a1.778,1.778,0,0,0,.947-.253,1.626,1.626,0,0,0,.6-.608V-3.466h-.889a2.341,2.341,0,0,0-1.347.321,1.039,1.039,0,0,0-.458.9.964.964,0,0,0,.3.735A1.177,1.177,0,0,0,13.413-1.224Zm7.438-1.935-.745.759V0h-1.7V-10.5h1.7v6.022l.506-.629L22.635-7.4h2.051L21.945-4.32,24.973,0H23ZM31.618-1.723A3.82,3.82,0,0,0,31.9-.116V0H30.162a3.046,3.046,0,0,1-.191-.69,2.643,2.643,0,0,1-.834.6,2.582,2.582,0,0,1-1.1.226,2.865,2.865,0,0,1-1.3-.287,2.2,2.2,0,0,1-.9-.793,2.072,2.072,0,0,1-.321-1.135A2.091,2.091,0,0,1,26.4-3.89a4.233,4.233,0,0,1,2.492-.629h1.025V-5a1.266,1.266,0,0,0-.321-.919,1.265,1.265,0,0,0-.95-.332,1.594,1.594,0,0,0-.663.13,1.057,1.057,0,0,0-.444.355.864.864,0,0,0-.157.506h-1.7a1.869,1.869,0,0,1,.379-1.118,2.647,2.647,0,0,1,1.08-.841,3.842,3.842,0,0,1,1.6-.318,3.671,3.671,0,0,1,1.5.287,2.252,2.252,0,0,1,1.015.861,2.556,2.556,0,0,1,.366,1.4Zm-3.254.5a1.778,1.778,0,0,0,.947-.253,1.626,1.626,0,0,0,.6-.608V-3.466h-.889a2.341,2.341,0,0,0-1.347.321,1.039,1.039,0,0,0-.458.9.964.964,0,0,0,.3.735A1.177,1.177,0,0,0,28.364-1.224Zm13.064-6.31a2.353,2.353,0,0,1,1.8.66,2.968,2.968,0,0,1,.622,2.088V0h-1.7V-4.792a1.394,1.394,0,0,0-.325-1.056,1.4,1.4,0,0,0-.974-.3,1.383,1.383,0,0,0-.892.287,1.546,1.546,0,0,0-.509.772l.007.157V0h-1.7V-4.771a1.415,1.415,0,0,0-.332-1.06,1.365,1.365,0,0,0-.974-.314,1.435,1.435,0,0,0-1.388.8V0h-1.7V-7.4h1.6l.055.779a2.494,2.494,0,0,1,.913-.68,3,3,0,0,1,1.22-.236,2.55,2.55,0,0,1,1.217.277,1.851,1.851,0,0,1,.8.851,2.624,2.624,0,0,1,.95-.831A2.828,2.828,0,0,1,41.428-7.533ZM45.25-3.767A4.385,4.385,0,0,1,45.664-5.7a3.19,3.19,0,0,1,1.193-1.343,3.376,3.376,0,0,1,1.832-.489,3.419,3.419,0,0,1,1.849.489,3.182,3.182,0,0,1,1.2,1.343,4.385,4.385,0,0,1,.414,1.935v.144a4.385,4.385,0,0,1-.414,1.935,3.167,3.167,0,0,1-1.193,1.34A3.407,3.407,0,0,1,48.7.137,3.424,3.424,0,0,1,46.86-.349a3.16,3.16,0,0,1-1.2-1.34,4.385,4.385,0,0,1-.414-1.935Zm1.7.144A3.1,3.1,0,0,0,47.39-1.9a1.463,1.463,0,0,0,1.313.67,1.5,1.5,0,0,0,.974-.318,1.858,1.858,0,0,0,.581-.858,3.687,3.687,0,0,0,.188-1.217v-.144a3.7,3.7,0,0,0-.188-1.213,1.868,1.868,0,0,0-.584-.865,1.513,1.513,0,0,0-.984-.321,1.475,1.475,0,0,0-.971.321,1.892,1.892,0,0,0-.578.865,3.7,3.7,0,0,0-.188,1.213Zm9.455,2.352a2.683,2.683,0,0,0,.581-.068V-.027a3.491,3.491,0,0,1-1.107.164,1.967,1.967,0,0,1-1.422-.5,2.126,2.126,0,0,1-.52-1.593V-6.139h-1.2V-7.4h1.2V-9.2h1.7v1.8h1.3v1.258h-1.3v4.067a.822.822,0,0,0,.191.632A.851.851,0,0,0,56.407-1.271Zm1.327-2.5A4.385,4.385,0,0,1,58.148-5.7a3.19,3.19,0,0,1,1.193-1.343,3.376,3.376,0,0,1,1.832-.489,3.419,3.419,0,0,1,1.849.489,3.182,3.182,0,0,1,1.2,1.343,4.385,4.385,0,0,1,.414,1.935v.144a4.385,4.385,0,0,1-.414,1.935,3.167,3.167,0,0,1-1.193,1.34,3.407,3.407,0,0,1-1.839.485,3.424,3.424,0,0,1-1.842-.485,3.16,3.16,0,0,1-1.2-1.34,4.385,4.385,0,0,1-.414-1.935Zm1.7.144A3.1,3.1,0,0,0,59.874-1.9a1.463,1.463,0,0,0,1.313.67,1.5,1.5,0,0,0,.974-.318,1.858,1.858,0,0,0,.581-.858,3.687,3.687,0,0,0,.188-1.217v-.144a3.7,3.7,0,0,0-.188-1.213,1.868,1.868,0,0,0-.584-.865,1.513,1.513,0,0,0-.984-.321,1.475,1.475,0,0,0-.971.321,1.892,1.892,0,0,0-.578.865,3.7,3.7,0,0,0-.188,1.213Z" transform="translate(216 36.533)"/><path class="u" d="M5.142-.762V0H.825V-7.109h.947V-.762Zm4.976-.391a3.517,3.517,0,0,0,.049.574,2.185,2.185,0,0,0,.137.5V0H9.351a2.067,2.067,0,0,1-.127-.552,2.1,2.1,0,0,1-.657.471A1.973,1.973,0,0,1,7.725.1,2.033,2.033,0,0,1,6.79-.11a1.551,1.551,0,0,1-.63-.564,1.465,1.465,0,0,1-.222-.791,1.551,1.551,0,0,1,.291-.952,1.753,1.753,0,0,1,.825-.588,3.638,3.638,0,0,1,1.262-.2H9.2v-.42a1.006,1.006,0,0,0-.286-.759A1.138,1.138,0,0,0,8.1-4.658a1.431,1.431,0,0,0-.586.115.99.99,0,0,0-.4.308.684.684,0,0,0-.144.417H6.05a1.252,1.252,0,0,1,.264-.747,1.905,1.905,0,0,1,.742-.588A2.522,2.522,0,0,1,8.15-5.381a2.5,2.5,0,0,1,1.028.2,1.534,1.534,0,0,1,.691.6,1.8,1.8,0,0,1,.249.974ZM7.857-.684a1.538,1.538,0,0,0,.583-.11,1.519,1.519,0,0,0,.466-.291,1.328,1.328,0,0,0,.3-.391V-2.568H8.462a2.368,2.368,0,0,0-1.2.247.8.8,0,0,0-.415.73.918.918,0,0,0,.117.464A.834.834,0,0,0,7.31-.8,1.151,1.151,0,0,0,7.857-.684Zm5.562-1.636A3.717,3.717,0,0,1,12-2.866a1.137,1.137,0,0,1-.481-.972,1.324,1.324,0,0,1,.244-.771,1.7,1.7,0,0,1,.691-.562,2.379,2.379,0,0,1,1.023-.21,2.463,2.463,0,0,1,1.074.22,1.665,1.665,0,0,1,.7.593,1.5,1.5,0,0,1,.242.833h-.913a.806.806,0,0,0-.132-.435.99.99,0,0,0-.383-.344,1.231,1.231,0,0,0-.588-.134,1.392,1.392,0,0,0-.591.11.775.775,0,0,0-.344.288.718.718,0,0,0-.11.383.583.583,0,0,0,.1.349.849.849,0,0,0,.361.251,4.36,4.36,0,0,0,.754.22,4.971,4.971,0,0,1,1.079.356,1.559,1.559,0,0,1,.618.5,1.254,1.254,0,0,1,.2.723,1.359,1.359,0,0,1-.254.813,1.656,1.656,0,0,1-.718.552A2.72,2.72,0,0,1,13.5.1a2.609,2.609,0,0,1-1.165-.242,1.8,1.8,0,0,1-.745-.637,1.536,1.536,0,0,1-.254-.845h.913a.951.951,0,0,0,.205.574,1.044,1.044,0,0,0,.461.32,1.736,1.736,0,0,0,.583.1,1.684,1.684,0,0,0,.613-.1.87.87,0,0,0,.388-.273A.632.632,0,0,0,14.63-1.4a.75.75,0,0,0-.093-.381.844.844,0,0,0-.356-.3A3.057,3.057,0,0,0,13.419-2.319ZM18.976,0a2.335,2.335,0,0,1-.7.1,1.2,1.2,0,0,1-.886-.332,1.475,1.475,0,0,1-.334-1.079V-4.595H16.1v-.688h.962V-6.567h.913v1.284h.986v.688H17.97v3.286a.639.639,0,0,0,.156.505.646.646,0,0,0,.425.129,1.629,1.629,0,0,0,.225-.017,1.709,1.709,0,0,0,.2-.037Zm8.209,0L23.616-5.5V0h-.947V-7.109h.947L27.2-1.6V-7.109h.938V0Zm6.524-1.152a3.517,3.517,0,0,0,.049.574,2.185,2.185,0,0,0,.137.5V0h-.952a2.067,2.067,0,0,1-.127-.552,2.1,2.1,0,0,1-.657.471A1.973,1.973,0,0,1,31.316.1a2.033,2.033,0,0,1-.935-.208,1.551,1.551,0,0,1-.63-.564,1.465,1.465,0,0,1-.222-.791,1.551,1.551,0,0,1,.291-.952,1.753,1.753,0,0,1,.825-.588,3.638,3.638,0,0,1,1.262-.2H32.8v-.42a1.006,1.006,0,0,0-.286-.759,1.138,1.138,0,0,0-.823-.276,1.431,1.431,0,0,0-.586.115.99.99,0,0,0-.4.308.684.684,0,0,0-.144.417h-.913a1.252,1.252,0,0,1,.264-.747,1.905,1.905,0,0,1,.742-.588,2.522,2.522,0,0,1,1.094-.227,2.5,2.5,0,0,1,1.028.2,1.534,1.534,0,0,1,.691.6,1.8,1.8,0,0,1,.249.974Zm-2.261.469a1.538,1.538,0,0,0,.583-.11,1.519,1.519,0,0,0,.466-.291,1.328,1.328,0,0,0,.3-.391V-2.568h-.742a2.368,2.368,0,0,0-1.2.247.8.8,0,0,0-.415.73.918.918,0,0,0,.117.464A.834.834,0,0,0,30.9-.8,1.151,1.151,0,0,0,31.448-.684Zm9.332-4.7a1.753,1.753,0,0,1,1.318.464,2.013,2.013,0,0,1,.449,1.445V0h-.913V-3.481a1.149,1.149,0,0,0-.286-.886,1.216,1.216,0,0,0-.837-.256,1.23,1.23,0,0,0-.615.149,1.09,1.09,0,0,0-.413.4A1.414,1.414,0,0,0,39.3-3.5V0h-.913V-3.477a1.006,1.006,0,0,0-1.128-1.147,1.332,1.332,0,0,0-.752.2,1.252,1.252,0,0,0-.454.549V0H35.14V-5.283H36l.029.571a1.836,1.836,0,0,1,.664-.5,2.183,2.183,0,0,1,.894-.173,1.933,1.933,0,0,1,.916.208,1.335,1.335,0,0,1,.593.632,1.95,1.95,0,0,1,.7-.615A2.073,2.073,0,0,1,40.78-5.381Zm7.408,2.988H44.613a2.21,2.21,0,0,0,.205.894,1.53,1.53,0,0,0,.54.632,1.444,1.444,0,0,0,.818.232,1.611,1.611,0,0,0,.793-.186,1.933,1.933,0,0,0,.6-.532l.552.43a2.3,2.3,0,0,1-.781.735A2.364,2.364,0,0,1,46.127.1a2.451,2.451,0,0,1-1.274-.327A2.216,2.216,0,0,1,44-1.138a2.829,2.829,0,0,1-.3-1.318v-.21a3.077,3.077,0,0,1,.322-1.443,2.363,2.363,0,0,1,.852-.945,2.123,2.123,0,0,1,1.135-.327,2.132,2.132,0,0,1,1.223.33,1.952,1.952,0,0,1,.72.911A3.57,3.57,0,0,1,48.187-2.8Zm-.913-.8a1.974,1.974,0,0,0-.334-1.038,1.061,1.061,0,0,0-.93-.417,1.182,1.182,0,0,0-.911.4,2,2,0,0,0-.457,1.125h2.632Z" transform="translate(216 17.5)"/><line class="ab" y2="48" transform="translate(204 0.5)"/></g></g><g transform="translate(635.5 456)"><path class="s" d="M3.387-8.531a3.948,3.948,0,0,1,2.01.5A3.469,3.469,0,0,1,6.753-6.6a4.519,4.519,0,0,1,.483,2.133v.416a4.515,4.515,0,0,1-.483,2.136A3.432,3.432,0,0,1,5.385-.5,4.1,4.1,0,0,1,3.328,0H.855V-8.531H3.387ZM5.713-4.482a3.227,3.227,0,0,0-.6-2.1,2.11,2.11,0,0,0-1.729-.727H2.373v6.088h.955A2.164,2.164,0,0,0,5.106-1.96a3.225,3.225,0,0,0,.606-2.095ZM13.5-1.957H10.225L9.545,0H7.958l3.217-8.531H12.54L15.768,0H14.18Zm-.428-1.225L11.86-6.68l-1.213,3.5Zm9.135-4.125H19.554V0H18.042V-7.307H15.417V-8.531h6.791Zm6.727,6.088V0h-5.6V-8.531H28.9v1.225H24.857v2.314h3.486v1.2H24.857v2.578ZM40-4.049a5.165,5.165,0,0,1-.442,2.218A3.326,3.326,0,0,1,38.311-.387a3.42,3.42,0,0,1-1.857.5,3.428,3.428,0,0,1-1.852-.5,3.366,3.366,0,0,1-1.26-1.447,5.083,5.083,0,0,1-.451-2.215v-.428a5.112,5.112,0,0,1,.448-2.215,3.373,3.373,0,0,1,1.254-1.45,3.4,3.4,0,0,1,1.849-.507,3.434,3.434,0,0,1,1.86.5A3.335,3.335,0,0,1,39.554-6.7,5.155,5.155,0,0,1,40-4.477Zm-1.523-.439a3.706,3.706,0,0,0-.53-2.159,1.734,1.734,0,0,0-1.5-.747,1.787,1.787,0,0,0-1.084.334,2.078,2.078,0,0,0-.7.987,4.561,4.561,0,0,0-.243,1.585v.439a4.536,4.536,0,0,0,.246,1.588,2.1,2.1,0,0,0,.706.993,1.789,1.789,0,0,0,1.087.337,1.717,1.717,0,0,0,1.5-.75,3.765,3.765,0,0,0,.524-2.168Zm4.512-2.818v2.49h3.428V-3.6H42.988V0H41.47V-8.531h5.438v1.225ZM55.78-4.441a1.8,1.8,0,0,1,1.072.718A2.119,2.119,0,0,1,57.215-2.5a2.264,2.264,0,0,1-.779,1.854A3.357,3.357,0,0,1,54.245,0H51.1V-8.531h2.93a3.681,3.681,0,0,1,2.215.571,2.019,2.019,0,0,1,.773,1.737A1.849,1.849,0,0,1,56.7-5.156,1.991,1.991,0,0,1,55.78-4.441ZM52.616-7.307v2.361H54.04a1.677,1.677,0,0,0,1.081-.311,1.06,1.06,0,0,0,.384-.873,1.07,1.07,0,0,0-.357-.9,1.82,1.82,0,0,0-1.119-.278Zm1.629,6.088a1.538,1.538,0,0,0,1.081-.349A1.2,1.2,0,0,0,55.7-2.5q0-1.336-1.395-1.336H52.616v2.613ZM58.8,0V-8.531h1.512V0Zm9.8-.076V0H66.972L65.279-3.27H63.656V0H62.138V-8.531h3.023a3.5,3.5,0,0,1,2.282.662,2.331,2.331,0,0,1,.806,1.91,2.456,2.456,0,0,1-.4,1.43,2.578,2.578,0,0,1-1.148.9ZM63.656-4.488h1.512a1.627,1.627,0,0,0,1.163-.381,1.332,1.332,0,0,0,.4-1.014,1.393,1.393,0,0,0-.387-1.049,1.643,1.643,0,0,0-1.184-.375H63.656ZM75.645-7.307H72.991V0H71.479V-7.307H68.854V-8.531h6.791Zm7.928-1.225V0H82.061V-3.779H78.294V0H76.776V-8.531h1.518v3.539h3.768V-8.531Z" transform="translate(0 13)"/><g transform="translate(0 23)"><g class="t"><rect class="af" width="124" height="45" rx="3"/><rect class="b" x="0.5" y="0.5" width="123" height="44" rx="2.5"/></g><path class="aa" d="M4.095-4.279a7.038,7.038,0,0,1-2.427-1.2A2.3,2.3,0,0,1,.813-7.328a2.4,2.4,0,0,1,.448-1.429,2.938,2.938,0,0,1,1.254-.981,4.574,4.574,0,0,1,1.846-.352,4.22,4.22,0,0,1,1.9.407,3.044,3.044,0,0,1,1.254,1.1,2.819,2.819,0,0,1,.438,1.535H6.193a1.562,1.562,0,0,0-.468-1.189,1.94,1.94,0,0,0-1.384-.444,2,2,0,0,0-1.309.373,1.206,1.206,0,0,0-.448.974,1.089,1.089,0,0,0,.506.9,5.3,5.3,0,0,0,1.593.684,8.157,8.157,0,0,1,1.856.766A3.042,3.042,0,0,1,7.615-3.965a2.6,2.6,0,0,1,.355,1.374,2.436,2.436,0,0,1-.437,1.449,2.774,2.774,0,0,1-1.241.947A4.894,4.894,0,0,1,4.416.137a5.069,5.069,0,0,1-1.9-.359A3.4,3.4,0,0,1,1.063-1.3,2.736,2.736,0,0,1,.506-3.028H2.276A1.548,1.548,0,0,0,2.861-1.7a2.548,2.548,0,0,0,1.555.434A2.116,2.116,0,0,0,5.735-1.62a1.148,1.148,0,0,0,.458-.957,1.286,1.286,0,0,0-.171-.687A1.579,1.579,0,0,0,5.4-3.78,7.523,7.523,0,0,0,4.095-4.279ZM15.6-3.165H10.781a2.443,2.443,0,0,0,.294,1,1.8,1.8,0,0,0,.667.684,1.906,1.906,0,0,0,.981.246,2.218,2.218,0,0,0,1.846-.9l.909.882a3.179,3.179,0,0,1-1.121.991,3.543,3.543,0,0,1-1.736.4,3.691,3.691,0,0,1-1.887-.468A3.174,3.174,0,0,1,9.5-1.613a3.84,3.84,0,0,1-.431-1.825v-.28A4.387,4.387,0,0,1,9.5-5.725a3.252,3.252,0,0,1,1.2-1.336,3.218,3.218,0,0,1,1.723-.472,3.179,3.179,0,0,1,1.757.458,2.783,2.783,0,0,1,1.063,1.282A4.828,4.828,0,0,1,15.6-3.883Zm-1.682-1.36a2.042,2.042,0,0,0-.39-1.179,1.31,1.31,0,0,0-1.107-.461,1.371,1.371,0,0,0-1.08.465A2.433,2.433,0,0,0,10.815-4.4h3.1ZM20.5-7.533a2.645,2.645,0,0,1,1.576.465,2.844,2.844,0,0,1,.988,1.313A5.376,5.376,0,0,1,23.4-3.773v.144a5.239,5.239,0,0,1-.338,1.941,3.007,3.007,0,0,1-.988,1.34,2.519,2.519,0,0,1-1.552.485,2.5,2.5,0,0,1-1.928-.8V2.844h-1.7V-7.4h1.565l.068.745A2.458,2.458,0,0,1,20.5-7.533Zm1.2,3.76a3.181,3.181,0,0,0-.414-1.712,1.38,1.38,0,0,0-1.254-.66,1.5,1.5,0,0,0-1.436.827v3.247a1.517,1.517,0,0,0,1.449.841,1.361,1.361,0,0,0,1.244-.67A3.272,3.272,0,0,0,21.7-3.63Zm5.989,2.5a2.683,2.683,0,0,0,.581-.068V-.027a3.491,3.491,0,0,1-1.107.164,1.967,1.967,0,0,1-1.422-.5,2.126,2.126,0,0,1-.52-1.593V-6.139h-1.2V-7.4h1.2V-9.2h1.7v1.8h1.3v1.258h-1.3v4.067a.822.822,0,0,0,.191.632A.851.851,0,0,0,27.688-1.271Zm8.067-1.894H30.935a2.443,2.443,0,0,0,.294,1,1.8,1.8,0,0,0,.667.684,1.906,1.906,0,0,0,.981.246,2.218,2.218,0,0,0,1.846-.9l.909.882A3.179,3.179,0,0,1,34.51-.26a3.543,3.543,0,0,1-1.736.4,3.691,3.691,0,0,1-1.887-.468A3.174,3.174,0,0,1,29.65-1.613a3.84,3.84,0,0,1-.431-1.825v-.28a4.387,4.387,0,0,1,.438-2.006,3.252,3.252,0,0,1,1.2-1.336,3.218,3.218,0,0,1,1.723-.472,3.179,3.179,0,0,1,1.757.458A2.783,2.783,0,0,1,35.4-5.793a4.828,4.828,0,0,1,.352,1.911Zm-1.682-1.36a2.042,2.042,0,0,0-.39-1.179,1.31,1.31,0,0,0-1.107-.461A1.371,1.371,0,0,0,31.5-5.7,2.433,2.433,0,0,0,30.969-4.4h3.1ZM45.12-7.533a2.353,2.353,0,0,1,1.8.66,2.968,2.968,0,0,1,.622,2.088V0h-1.7V-4.792a1.394,1.394,0,0,0-.325-1.056,1.4,1.4,0,0,0-.974-.3,1.383,1.383,0,0,0-.892.287,1.546,1.546,0,0,0-.509.772l.007.157V0h-1.7V-4.771a1.415,1.415,0,0,0-.332-1.06,1.365,1.365,0,0,0-.974-.314,1.435,1.435,0,0,0-1.388.8V0h-1.7V-7.4h1.6l.055.779a2.494,2.494,0,0,1,.913-.68,3,3,0,0,1,1.22-.236,2.55,2.55,0,0,1,1.217.277,1.851,1.851,0,0,1,.8.851,2.624,2.624,0,0,1,.95-.831A2.828,2.828,0,0,1,45.12-7.533Zm7.753,0a2.616,2.616,0,0,1,1.583.475,2.866,2.866,0,0,1,.981,1.323,5.434,5.434,0,0,1,.328,1.969v.144a5.342,5.342,0,0,1-.332,1.955,2.92,2.92,0,0,1-.981,1.326,2.566,2.566,0,0,1-1.565.479A2.417,2.417,0,0,1,50.87-.8l-.082.8H49.25V-10.5h1.7v3.808A2.385,2.385,0,0,1,52.873-7.533Zm1.189,3.767a3.47,3.47,0,0,0-.373-1.726,1.321,1.321,0,0,0-1.248-.653,1.515,1.515,0,0,0-1.49.93v3.021a1.532,1.532,0,0,0,1.5.943,1.316,1.316,0,0,0,1.23-.639,3.413,3.413,0,0,0,.376-1.733Zm9.352.6H58.6a2.443,2.443,0,0,0,.294,1,1.8,1.8,0,0,0,.667.684,1.906,1.906,0,0,0,.981.246,2.218,2.218,0,0,0,1.846-.9l.909.882a3.179,3.179,0,0,1-1.121.991,3.543,3.543,0,0,1-1.736.4,3.691,3.691,0,0,1-1.887-.468A3.174,3.174,0,0,1,57.31-1.613a3.84,3.84,0,0,1-.431-1.825v-.28a4.387,4.387,0,0,1,.438-2.006,3.252,3.252,0,0,1,1.2-1.336,3.218,3.218,0,0,1,1.723-.472A3.179,3.179,0,0,1,62-7.075a2.783,2.783,0,0,1,1.063,1.282,4.828,4.828,0,0,1,.352,1.911Zm-1.682-1.36a2.042,2.042,0,0,0-.39-1.179,1.31,1.31,0,0,0-1.107-.461,1.371,1.371,0,0,0-1.08.465A2.433,2.433,0,0,0,58.63-4.4h3.1Zm6.3-3.008a2.2,2.2,0,0,1,.325.027,1.379,1.379,0,0,1,.27.062l-.014,1.606a4.278,4.278,0,0,0-.677-.055,1.516,1.516,0,0,0-1.531.854V0h-1.7V-7.4h1.62l.048.834a2.067,2.067,0,0,1,.7-.718A1.822,1.822,0,0,1,68.036-7.533Z" transform="translate(12 27)"/><g transform="translate(104 20)"><path class="s" d="M11.757,14.343l-4-3.75,1.334-1.25,2.666,2.5,2.666-2.5,1.334,1.25Z" transform="translate(-7.757 -9.343)"/></g><g transform="translate(142)"><g class="t"><rect class="af" width="124" height="45" rx="3"/><rect class="b" x="0.5" y="0.5" width="123" height="44" rx="2.5"/></g><path class="aa" d="M.738,0V-1.176l3.24-3.514a11.608,11.608,0,0,0,.834-1.022A3.475,3.475,0,0,0,5.24-6.48a1.958,1.958,0,0,0,.126-.684A1.625,1.625,0,0,0,4.98-8.292a1.363,1.363,0,0,0-1.07-.431,1.54,1.54,0,0,0-1.234.5,1.945,1.945,0,0,0-.427,1.316H.547a3.247,3.247,0,0,1,.4-1.606A2.924,2.924,0,0,1,2.119-9.666a3.683,3.683,0,0,1,1.812-.424,3.919,3.919,0,0,1,1.7.335A2.425,2.425,0,0,1,6.7-8.8a2.8,2.8,0,0,1,.369,1.459A3.385,3.385,0,0,1,6.549-5.6,11.142,11.142,0,0,1,5.031-3.678L2.871-1.367h4.58V0ZM11.424,0H9.632L13.59-8.586H8.47V-9.953h6.911v.943Z" transform="translate(12 27)"/><g transform="translate(104 20)"><path class="s" d="M11.757,14.343l-4-3.75,1.334-1.25,2.666,2.5,2.666-2.5,1.334,1.25Z" transform="translate(-7.757 -9.343)"/></g></g><g transform="translate(284)"><g class="t"><rect class="af" width="124" height="45" rx="3"/><rect class="b" x="0.5" y="0.5" width="123" height="44" rx="2.5"/></g><path class="aa" d="M.738,0V-1.176l3.24-3.514a11.608,11.608,0,0,0,.834-1.022A3.475,3.475,0,0,0,5.24-6.48a1.958,1.958,0,0,0,.126-.684A1.625,1.625,0,0,0,4.98-8.292a1.363,1.363,0,0,0-1.07-.431,1.54,1.54,0,0,0-1.234.5,1.945,1.945,0,0,0-.427,1.316H.547a3.247,3.247,0,0,1,.4-1.606A2.924,2.924,0,0,1,2.119-9.666a3.683,3.683,0,0,1,1.812-.424,3.919,3.919,0,0,1,1.7.335A2.425,2.425,0,0,1,6.7-8.8a2.8,2.8,0,0,1,.369,1.459A3.385,3.385,0,0,1,6.549-5.6,11.142,11.142,0,0,1,5.031-3.678L2.871-1.367h4.58V0ZM15.252-4.184q0,4.32-3.261,4.32A2.98,2.98,0,0,1,9.574-.9,5.085,5.085,0,0,1,8.71-4.184V-5.811a5.041,5.041,0,0,1,.854-3.264,2.98,2.98,0,0,1,2.413-1.015,2.99,2.99,0,0,1,2.417,1.015,5.026,5.026,0,0,1,.858,3.264Zm-1.7-1.88a3.991,3.991,0,0,0-.39-2.047,1.307,1.307,0,0,0-1.183-.612,1.3,1.3,0,0,0-1.172.612,3.962,3.962,0,0,0-.393,2.047v2.119a4.065,4.065,0,0,0,.4,2.075,1.3,1.3,0,0,0,1.179.639,1.282,1.282,0,0,0,1.172-.632,4.181,4.181,0,0,0,.386-2.082ZM23.613-2.208h-1.23V0h-1.7V-2.208H16.408L16.36-3.247l4.272-6.706h1.75v6.378h1.23ZM20.68-3.575V-7.649l-.123.219L18.13-3.575Zm7.185-6.515a2.967,2.967,0,0,1,1.788.537A3.284,3.284,0,0,1,30.771-8.1a5.381,5.381,0,0,1,.376,2.054v.561a6.527,6.527,0,0,1-1.145,4A4.409,4.409,0,0,1,26.218.055h-.137V-1.367H26.2A3.332,3.332,0,0,0,28.6-2.1a3.029,3.029,0,0,0,.837-2.044,2.873,2.873,0,0,1-.885.636,2.471,2.471,0,0,1-1.049.232,2.668,2.668,0,0,1-1.576-.455,2.793,2.793,0,0,1-.971-1.213,4.2,4.2,0,0,1-.325-1.668,3.974,3.974,0,0,1,.386-1.764,3.01,3.01,0,0,1,1.118-1.254A3.173,3.173,0,0,1,27.865-10.09Zm.007,5.482a1.616,1.616,0,0,0,.94-.291,1.87,1.87,0,0,0,.639-.755v-.67a3.507,3.507,0,0,0-.215-1.3,1.867,1.867,0,0,0-.578-.817,1.287,1.287,0,0,0-.8-.277,1.29,1.29,0,0,0-.827.277,1.743,1.743,0,0,0-.533.745,2.8,2.8,0,0,0-.185,1.036,2.907,2.907,0,0,0,.174,1.022,1.682,1.682,0,0,0,.526.749A1.334,1.334,0,0,0,27.872-4.607Z" transform="translate(12 27)"/><g transform="translate(104 20)"><path class="s" d="M11.757,14.343l-4-3.75,1.334-1.25,2.666,2.5,2.666-2.5,1.334,1.25Z" transform="translate(-7.757 -9.343)"/></g></g></g></g><g transform="translate(635.5 720)"><path class="s" d="M7.389-2.789a3.439,3.439,0,0,1-.478,1.512A2.748,2.748,0,0,1,5.783-.252,3.816,3.816,0,0,1,4.037.117a3.336,3.336,0,0,1-1.828-.5,3.219,3.219,0,0,1-1.2-1.409A5.059,5.059,0,0,1,.586-3.926V-4.6a4.97,4.97,0,0,1,.431-2.139A3.261,3.261,0,0,1,2.241-8.15a3.416,3.416,0,0,1,1.854-.5,3.641,3.641,0,0,1,1.711.372,2.734,2.734,0,0,1,1.1,1.037A3.693,3.693,0,0,1,7.395-5.7H5.883a2.2,2.2,0,0,0-.507-1.286A1.689,1.689,0,0,0,4.1-7.418a1.683,1.683,0,0,0-1.479.724,3.642,3.642,0,0,0-.5,2.083v.686a3.885,3.885,0,0,0,.466,2.074,1.6,1.6,0,0,0,1.456.738A2.238,2.238,0,0,0,5.03-1.3a1.291,1.291,0,0,0,.58-.557,2.669,2.669,0,0,0,.267-.929Zm8.169-1.26a5.165,5.165,0,0,1-.442,2.218A3.326,3.326,0,0,1,13.87-.387a3.42,3.42,0,0,1-1.857.5,3.428,3.428,0,0,1-1.852-.5A3.366,3.366,0,0,1,8.9-1.834,5.083,5.083,0,0,1,8.45-4.049v-.428A5.112,5.112,0,0,1,8.9-6.691a3.373,3.373,0,0,1,1.254-1.45A3.4,3.4,0,0,1,12-8.648a3.434,3.434,0,0,1,1.86.5A3.335,3.335,0,0,1,15.112-6.7a5.155,5.155,0,0,1,.445,2.221Zm-1.523-.439a3.706,3.706,0,0,0-.53-2.159A1.734,1.734,0,0,0,12-7.395a1.787,1.787,0,0,0-1.084.334,2.078,2.078,0,0,0-.7.987,4.561,4.561,0,0,0-.243,1.585v.439a4.536,4.536,0,0,0,.246,1.588,2.1,2.1,0,0,0,.706.993,1.789,1.789,0,0,0,1.087.337,1.717,1.717,0,0,0,1.5-.75,3.765,3.765,0,0,0,.524-2.168ZM23.3-2.842a2.983,2.983,0,0,1-.419,1.617,2.627,2.627,0,0,1-1.146,1A3.841,3.841,0,0,1,20.1.117,3.879,3.879,0,0,1,18.444-.22a2.563,2.563,0,0,1-1.131-1,3.046,3.046,0,0,1-.407-1.62V-8.531h1.512v5.689a1.752,1.752,0,0,0,.442,1.31A1.7,1.7,0,0,0,20.1-1.1a1.705,1.705,0,0,0,1.245-.428,1.765,1.765,0,0,0,.437-1.312V-8.531H23.3ZM30.16,0,26.4-6V0H24.886V-8.531H26.4L30.172-2.52V-8.531h1.506V0Zm9.469-7.307H36.975V0H35.463V-7.307H32.838V-8.531h6.791Zm7.594,7.23V0H45.595L43.9-3.27H42.278V0H40.761V-8.531h3.023a3.5,3.5,0,0,1,2.282.662,2.331,2.331,0,0,1,.806,1.91,2.456,2.456,0,0,1-.4,1.43,2.578,2.578,0,0,1-1.148.9ZM42.278-4.488H43.79a1.627,1.627,0,0,0,1.163-.381,1.332,1.332,0,0,0,.4-1.014,1.393,1.393,0,0,0-.387-1.049,1.643,1.643,0,0,0-1.184-.375H42.278ZM52.667-8.531h1.682L51.5-3.135V0H49.966V-3.135l-2.854-5.4h1.682l1.934,4.014Z" transform="translate(0 13)"/><g transform="translate(0 23)"><g class="t"><rect class="af" width="408" height="45" rx="3"/><rect class="b" x="0.5" y="0.5" width="407" height="44" rx="2.5"/></g><path class="aa" d="M8.313-3.315a3.481,3.481,0,0,1-.489,1.887A3.064,3.064,0,0,1,6.487-.256,4.481,4.481,0,0,1,4.58.137,4.526,4.526,0,0,1,2.649-.256,2.99,2.99,0,0,1,1.33-1.425a3.554,3.554,0,0,1-.475-1.89V-9.953H2.618v6.638a2.044,2.044,0,0,0,.516,1.528,1.986,1.986,0,0,0,1.446.5,1.989,1.989,0,0,0,1.453-.5,2.059,2.059,0,0,0,.509-1.531V-9.953H8.313Zm5.476-4.218a2.268,2.268,0,0,1,1.74.653,3.021,3.021,0,0,1,.612,2.109V0h-1.7V-4.785a1.43,1.43,0,0,0-.318-1.049,1.344,1.344,0,0,0-.974-.311,1.592,1.592,0,0,0-.854.232,1.691,1.691,0,0,0-.6.649V0h-1.7V-7.4h1.6l.055.854a2.7,2.7,0,0,1,.943-.735A2.8,2.8,0,0,1,13.789-7.533Zm5-2.693a.959.959,0,0,1,.7.256.878.878,0,0,1,.26.653.859.859,0,0,1-.26.643.966.966,0,0,1-.7.253.974.974,0,0,1-.7-.25.856.856,0,0,1-.26-.646.878.878,0,0,1,.26-.653A.959.959,0,0,1,18.793-10.227ZM17.939,0V-7.4h1.7V0Zm6.4-1.271a2.683,2.683,0,0,0,.581-.068V-.027a3.491,3.491,0,0,1-1.107.164,1.967,1.967,0,0,1-1.422-.5,2.126,2.126,0,0,1-.52-1.593V-6.139h-1.2V-7.4h1.2V-9.2h1.7v1.8h1.3v1.258h-1.3v4.067a.822.822,0,0,0,.191.632A.851.851,0,0,0,24.338-1.271ZM32.4-3.165H27.586a2.443,2.443,0,0,0,.294,1,1.8,1.8,0,0,0,.667.684,1.906,1.906,0,0,0,.981.246,2.218,2.218,0,0,0,1.846-.9l.909.882a3.179,3.179,0,0,1-1.121.991,3.543,3.543,0,0,1-1.736.4,3.691,3.691,0,0,1-1.887-.468A3.174,3.174,0,0,1,26.3-1.613a3.84,3.84,0,0,1-.431-1.825v-.28a4.387,4.387,0,0,1,.438-2.006,3.252,3.252,0,0,1,1.2-1.336,3.218,3.218,0,0,1,1.723-.472,3.179,3.179,0,0,1,1.757.458,2.783,2.783,0,0,1,1.063,1.282A4.828,4.828,0,0,1,32.4-3.883Zm-1.682-1.36a2.042,2.042,0,0,0-.39-1.179,1.31,1.31,0,0,0-1.107-.461,1.371,1.371,0,0,0-1.08.465A2.433,2.433,0,0,0,27.62-4.4h3.1ZM39.891-10.5V0H38.353l-.082-.772A2.415,2.415,0,0,1,36.3.137a2.52,2.52,0,0,1-1.535-.485,3.091,3.091,0,0,1-1.015-1.34,4.977,4.977,0,0,1-.355-1.928V-3.76a5.155,5.155,0,0,1,.352-1.976,2.974,2.974,0,0,1,1.012-1.326,2.6,2.6,0,0,1,1.555-.472,2.387,2.387,0,0,1,1.88.813V-10.5ZM36.726-1.258a1.526,1.526,0,0,0,1.463-.889V-5.277a1.511,1.511,0,0,0-1.449-.868,1.356,1.356,0,0,0-1.241.663,3.257,3.257,0,0,0-.407,1.723v.144a3.23,3.23,0,0,0,.4,1.706A1.346,1.346,0,0,0,36.726-1.258ZM48.4-4.279a7.038,7.038,0,0,1-2.427-1.2,2.3,2.3,0,0,1-.854-1.853,2.4,2.4,0,0,1,.448-1.429,2.938,2.938,0,0,1,1.254-.981,4.574,4.574,0,0,1,1.846-.352,4.22,4.22,0,0,1,1.9.407,3.044,3.044,0,0,1,1.254,1.1,2.819,2.819,0,0,1,.438,1.535H50.5a1.562,1.562,0,0,0-.468-1.189,1.94,1.94,0,0,0-1.384-.444,2,2,0,0,0-1.309.373,1.206,1.206,0,0,0-.448.974,1.089,1.089,0,0,0,.506.9,5.3,5.3,0,0,0,1.593.684,8.157,8.157,0,0,1,1.856.766,3.042,3.042,0,0,1,1.077,1.019,2.6,2.6,0,0,1,.355,1.374,2.436,2.436,0,0,1-.437,1.449A2.774,2.774,0,0,1,50.6-.195a4.894,4.894,0,0,1-1.876.332,5.069,5.069,0,0,1-1.9-.359A3.4,3.4,0,0,1,45.371-1.3a2.736,2.736,0,0,1-.557-1.729h1.771a1.548,1.548,0,0,0,.584,1.33,2.548,2.548,0,0,0,1.555.434,2.116,2.116,0,0,0,1.319-.355,1.148,1.148,0,0,0,.458-.957,1.286,1.286,0,0,0-.171-.687,1.579,1.579,0,0,0-.619-.516A7.523,7.523,0,0,0,48.4-4.279Zm8.135,3.008a2.683,2.683,0,0,0,.581-.068V-.027a3.491,3.491,0,0,1-1.107.164,1.967,1.967,0,0,1-1.422-.5,2.126,2.126,0,0,1-.52-1.593V-6.139h-1.2V-7.4h1.2V-9.2h1.7v1.8h1.3v1.258h-1.3v4.067a.822.822,0,0,0,.191.632A.851.851,0,0,0,56.538-1.271Zm7.671-.451a3.82,3.82,0,0,0,.28,1.606V0H62.753a3.046,3.046,0,0,1-.191-.69,2.643,2.643,0,0,1-.834.6,2.582,2.582,0,0,1-1.1.226,2.865,2.865,0,0,1-1.3-.287,2.2,2.2,0,0,1-.9-.793,2.072,2.072,0,0,1-.321-1.135A2.091,2.091,0,0,1,58.99-3.89a4.233,4.233,0,0,1,2.492-.629h1.025V-5a1.266,1.266,0,0,0-.321-.919,1.265,1.265,0,0,0-.95-.332,1.594,1.594,0,0,0-.663.13,1.057,1.057,0,0,0-.444.355.864.864,0,0,0-.157.506h-1.7a1.869,1.869,0,0,1,.379-1.118,2.647,2.647,0,0,1,1.08-.841,3.842,3.842,0,0,1,1.6-.318,3.671,3.671,0,0,1,1.5.287,2.252,2.252,0,0,1,1.015.861,2.556,2.556,0,0,1,.366,1.4Zm-3.254.5a1.778,1.778,0,0,0,.947-.253,1.626,1.626,0,0,0,.6-.608V-3.466h-.889a2.341,2.341,0,0,0-1.347.321,1.039,1.039,0,0,0-.458.9.964.964,0,0,0,.3.735A1.177,1.177,0,0,0,60.955-1.224Zm7.876-.048a2.683,2.683,0,0,0,.581-.068V-.027A3.491,3.491,0,0,1,68.3.137a1.967,1.967,0,0,1-1.422-.5,2.126,2.126,0,0,1-.52-1.593V-6.139h-1.2V-7.4h1.2V-9.2h1.7v1.8h1.3v1.258h-1.3v4.067a.822.822,0,0,0,.191.632A.851.851,0,0,0,68.831-1.271ZM76.9-3.165H72.079a2.443,2.443,0,0,0,.294,1,1.8,1.8,0,0,0,.667.684,1.906,1.906,0,0,0,.981.246,2.218,2.218,0,0,0,1.846-.9l.909.882a3.179,3.179,0,0,1-1.121.991,3.543,3.543,0,0,1-1.736.4,3.691,3.691,0,0,1-1.887-.468,3.174,3.174,0,0,1-1.237-1.282,3.84,3.84,0,0,1-.431-1.825v-.28A4.387,4.387,0,0,1,70.8-5.725,3.252,3.252,0,0,1,72-7.062a3.218,3.218,0,0,1,1.723-.472,3.179,3.179,0,0,1,1.757.458,2.783,2.783,0,0,1,1.063,1.282A4.828,4.828,0,0,1,76.9-3.883Zm-1.682-1.36a2.042,2.042,0,0,0-.39-1.179,1.31,1.31,0,0,0-1.107-.461,1.371,1.371,0,0,0-1.08.465A2.433,2.433,0,0,0,72.113-4.4h3.1ZM80.747-3.09a4.956,4.956,0,0,1-1.962-.786,1.67,1.67,0,0,1-.69-1.408,1.955,1.955,0,0,1,.352-1.125,2.415,2.415,0,0,1,1-.82,3.532,3.532,0,0,1,1.507-.3,3.778,3.778,0,0,1,1.583.308,2.43,2.43,0,0,1,1.036.844,2.107,2.107,0,0,1,.362,1.207h-1.7a1.052,1.052,0,0,0-.147-.543,1.058,1.058,0,0,0-.434-.4,1.487,1.487,0,0,0-.7-.15,1.371,1.371,0,0,0-.9.26.809.809,0,0,0-.314.649.657.657,0,0,0,.133.417,1.125,1.125,0,0,0,.461.308,5.334,5.334,0,0,0,.909.26,7.214,7.214,0,0,1,1.5.465,2.293,2.293,0,0,1,.916.711,1.8,1.8,0,0,1,.321,1.094,1.927,1.927,0,0,1-.373,1.162,2.406,2.406,0,0,1-1.056.8A4.094,4.094,0,0,1,80.98.137,3.719,3.719,0,0,1,79.3-.219a2.677,2.677,0,0,1-1.08-.923,2.159,2.159,0,0,1-.369-1.2H79.5a1.091,1.091,0,0,0,.461.916,1.827,1.827,0,0,0,1.049.294,1.663,1.663,0,0,0,.967-.243.753.753,0,0,0,.345-.646.783.783,0,0,0-.123-.444,1.1,1.1,0,0,0-.468-.342A4.772,4.772,0,0,0,80.747-3.09Z" transform="translate(40 27)"/><g transform="translate(388 20)"><path class="s" d="M11.757,14.343l-4-3.75,1.334-1.25,2.666,2.5,2.666-2.5,1.334,1.25Z" transform="translate(-7.757 -9.343)"/></g><g transform="translate(12 13.002)"><circle class="ac" cx="9" cy="9" r="9" transform="translate(0 -0.002)"/><g transform="translate(0.31 1.957)"><path class="ad" d="M244.87,191.565h9.391a9.011,9.011,0,0,0-.31-2.348H244.87Z" transform="translate(-236.571 -184.521)"/><path class="ad" d="M244.87,58h8.07a9.047,9.047,0,0,0-2.077-2.348H244.87Z" transform="translate(-236.571 -55.652)"/><path class="ad" d="M102.246,458.3a8.961,8.961,0,0,0,5.6-1.957h-11.2A8.961,8.961,0,0,0,102.246,458.3Z" transform="translate(-93.556 -442.261)"/><path class="ad" d="M9.83,325.13H25.188a8.945,8.945,0,0,0,1.011-2.348H8.819A8.945,8.945,0,0,0,9.83,325.13Z" transform="translate(-8.819 -313.391)"/></g><path class="ae" d="M4.169,1.405h.82l-.763.554.291.9L3.755,2.3l-.763.554.252-.775A9.049,9.049,0,0,0,1.5,4.027h.263l-.486.353q-.113.189-.218.385l.232.714L.857,5.164q-.161.342-.294.7l.255.786h.943L1,7.2l.291.9L.527,7.546.07,7.878A9.087,9.087,0,0,0,0,9H9V0A8.957,8.957,0,0,0,4.169,1.405ZM4.518,8.1l-.763-.554L2.992,8.1l.291-.9L2.52,6.649h.943l.291-.9.291.9h.943L4.226,7.2ZM4.226,4.581l.291.9-.763-.554-.763.554.291-.9L2.52,4.027h.943l.291-.9.291.9h.943ZM7.746,8.1l-.763-.554L6.22,8.1l.291-.9-.763-.554h.943l.291-.9.291.9h.943L7.454,7.2ZM7.454,4.581l.291.9-.763-.554-.763.554.291-.9-.763-.554h.943l.291-.9.291.9h.943Zm0-2.622.291.9L6.983,2.3l-.763.554.291-.9-.763-.554h.943l.291-.9.291.9h.943Z"/></g></g></g></g></svg>