<svg width="120" height="70" viewBox="0 0 120 70" fill="none" xmlns="http://www.w3.org/2000/svg">
<g id="Group 5">
<g id="venmo 2">
<path id="Vector" d="M107.907 18H80.093C73.4142 18 68 23.4142 68 30.093V57.907C68 64.5858 73.4142 70 80.093 70H107.907C114.586 70 120 64.5858 120 57.907V30.093C120 23.4142 114.586 18 107.907 18Z" fill="#3396CD"/>
<path id="Vector_2" d="M106.815 28.5815C107.933 30.4257 108.435 32.3274 108.435 34.7288C108.435 42.3877 101.898 52.3343 96.5922 59.318H84.476L79.6177 30.2595L90.2303 29.2517L92.8112 49.9277C95.2096 46.0157 98.1754 39.8684 98.1754 35.6801C98.1754 33.3855 97.7824 31.8255 97.1677 30.5406L106.815 28.5815Z" fill="white"/>
</g>
<g id="Group">
<circle id="Base" cx="26" cy="26" r="26" fill="#214497"/>
<rect id="gradient 3" width="52" height="52" rx="22.5" fill="url(#paint0_linear)"/>
<rect id="gradient 2" width="52" height="52" rx="22.5" fill="url(#paint1_linear)"/>
<rect id="gradient 1" width="52" height="52" rx="12" fill="url(#paint2_linear)"/>
<path id="Shape" fill-rule="evenodd" clip-rule="evenodd" d="M32.6079 20.336C31.6699 19.8742 30.559 19.6431 29.2733 19.6431C28.6571 19.6431 28.0814 19.7111 27.5462 19.8469C27.01 19.9832 26.505 20.159 25.9698 20.4034L28.4301 9.90332L22.2031 10.8813L15.2534 40.5081C16.0299 40.8889 16.8532 41.1874 17.724 41.4045C18.594 41.6218 19.4176 41.7846 20.1944 41.8936C20.9709 42.0019 21.6609 42.0629 22.2635 42.077C22.8662 42.0903 23.288 42.0974 23.5289 42.0974C25.4032 42.0974 27.1444 41.7369 28.7511 41.0172C30.3581 40.2978 31.7503 39.3199 32.9292 38.0834C34.1075 36.8472 35.0381 35.3936 35.7212 33.7228C36.4042 32.0519 36.7456 30.2792 36.7456 28.4046C36.7456 27.1822 36.5978 26.0411 36.3035 24.9816C36.0085 23.9218 35.5534 22.9986 34.9377 22.2103C34.3214 21.4226 33.5449 20.798 32.6079 20.336ZM26.7023 36.3922C25.8721 36.8543 24.9881 37.0848 24.0511 37.0848H23.328C23.1402 37.0848 22.8719 37.0691 22.0972 36.9315L24.7166 25.7527C25.1984 25.3184 25.7182 25.0364 26.3209 24.9C26.9235 24.7643 27.3116 24.7277 27.6869 24.7277C28.8379 24.7277 29.7285 25.0629 30.1573 25.7967C30.5854 26.5299 30.8 27.5488 30.8 28.8528C30.8 29.9126 30.6255 30.9315 30.2777 31.9094C29.9294 32.8874 29.4542 33.7634 28.8519 34.5379C28.2492 35.3121 27.5322 35.9305 26.7023 36.3922Z" fill="white"/>
</g>
<g id="Group 2">
<g id="Rectangle" filter="url(#filter0_d)">
<rect x="44" y="24" width="32" height="22" rx="11" fill="white"/>
</g>
<g id="Group 4">
<path id="Path" d="M56 35C56 35.5523 56.4477 36 57 36H63C63.5523 36 64 35.5523 64 35C64 34.4477 63.5523 34 63 34H57C56.4477 34 56 34.4477 56 35Z" fill="#4F6EF7"/>
<path id="Shape_2" fill-rule="evenodd" clip-rule="evenodd" d="M64.7236 28.9999C67.8196 28.9249 70.4877 31.1705 70.9493 34.2399C71.1682 35.9581 70.6356 37.6874 69.4884 38.983C68.3411 40.2785 66.6913 41.0138 64.9631 40.9999H62.9677C62.4166 40.9999 61.97 40.5522 61.97 39.9999C61.97 39.4476 62.4166 38.9999 62.9677 38.9999H64.9631C66.0887 39.0047 67.164 38.5329 67.924 37.7007C68.684 36.8684 69.058 35.7532 68.9539 34.6299C68.6973 32.5152 66.8782 30.943 64.7535 30.9999H62.9677C62.4166 30.9999 61.97 30.5522 61.97 29.9999C61.97 29.4499 62.4089 28.9999 63.2171 28.9999H64.7236ZM55.1956 38.9999H56.9814C57.5325 38.9999 57.9791 39.4476 57.9791 39.9999C57.9791 40.5522 57.5325 40.9999 56.9814 40.9999H54.986C53.2606 41.0005 51.6188 40.2549 50.4816 38.9542C49.3444 37.6535 48.8225 35.9242 49.0497 34.2099C49.5168 31.1808 52.1379 28.9589 55.1956 28.9999H56.9814C57.5325 28.9999 57.9791 29.4476 57.9791 29.9999C57.9791 30.5522 57.5325 30.9999 56.9814 30.9999H54.986C53.8604 30.995 52.7851 31.4669 52.0251 32.2991C51.2651 33.1313 50.8911 34.2465 50.9952 35.3699C51.2518 37.4846 53.071 39.0567 55.1956 38.9999Z" fill="#4F6EF7"/>
</g>
</g>
</g>
<defs>
<filter id="filter0_d" x="34" y="14" width="52" height="42" filterUnits="userSpaceOnUse" color-interpolation-filters="sRGB">
<feFlood flood-opacity="0" result="BackgroundImageFix"/>
<feColorMatrix in="SourceAlpha" type="matrix" values="0 0 0 0 0 0 0 0 0 0 0 0 0 0 0 0 0 0 127 0"/>
<feOffset/>
<feGaussianBlur stdDeviation="5"/>
<feColorMatrix type="matrix" values="0 0 0 0 0 0 0 0 0 0 0 0 0 0 0 0 0 0 0.1 0"/>
<feBlend mode="normal" in2="BackgroundImageFix" result="effect1_dropShadow"/>
<feBlend mode="normal" in="SourceGraphic" in2="effect1_dropShadow" result="shape"/>
</filter>
<linearGradient id="paint0_linear" x1="51.3235" y1="2.4999" x2="4.32328" y2="2.4999" gradientUnits="userSpaceOnUse">
<stop stop-color="#253483"/>
<stop offset="1" stop-color="#16225C"/>
</linearGradient>
<linearGradient id="paint1_linear" x1="6.38066" y1="12.7613" x2="6.38066" y2="52" gradientUnits="userSpaceOnUse">
<stop stop-color="#142F94"/>
<stop offset="1" stop-color="#081A52"/>
</linearGradient>
<linearGradient id="paint2_linear" x1="0" y1="0" x2="0" y2="52" gradientUnits="userSpaceOnUse">
<stop stop-color="#060F3C"/>
<stop offset="1" stop-color="#142F94"/>
</linearGradient>
</defs>
</svg>
