<svg xmlns="http://www.w3.org/2000/svg" width="15" height="17" viewBox="0 0 15 17">
  <path fill="#4F6EF7" d="M13.5714286,3.57142857 L5,3.57142857 C4.21428571,3.57142857 3.57142857,4.21428571 3.57142857,5 L3.57142857,15 L5,15 L5,5 L13.5714286,5 L13.5714286,3.57142857 Z M15.7142857,6.42857143 L7.85714286,6.42857143 C7.07142857,6.42857143 6.42857143,7.07142857 6.42857143,7.85714286 L6.42857143,17.8571429 C6.42857143,18.6428571 7.07142857,19.2857143 7.85714286,19.2857143 L15.7142857,19.2857143 C16.5,19.2857143 17.1428571,18.6428571 17.1428571,17.8571429 L17.1428571,7.85714286 C17.1428571,7.07142857 16.5,6.42857143 15.7142857,6.42857143 Z M15.7142857,17.8571429 L7.85714286,17.8571429 L7.85714286,7.85714286 L15.7142857,7.85714286 L15.7142857,17.8571429 Z" transform="translate(-3 -3)"/>
</svg>
