<svg xmlns="http://www.w3.org/2000/svg" xmlns:xlink="http://www.w3.org/1999/xlink" width="120" height="70" viewBox="0 0 120 70">
  <defs>
    <linearGradient id="connect-coinbase-a" x1="98.699%" x2="8.314%" y1="50%" y2="50%">
      <stop offset="0%" stop-color="#253483"/>
      <stop offset="100%" stop-color="#16225C"/>
    </linearGradient>
    <linearGradient id="connect-coinbase-b" x1="50%" x2="50%" y1="24.541%" y2="100%">
      <stop offset="0%" stop-color="#142F94"/>
      <stop offset="100%" stop-color="#081A52"/>
    </linearGradient>
    <linearGradient id="connect-coinbase-c" x1="50%" x2="50%" y1="0%" y2="100%">
      <stop offset="0%" stop-color="#060F3C"/>
      <stop offset="100%" stop-color="#142F94"/>
    </linearGradient>
    <rect id="connect-coinbase-e" width="32" height="22" x="0" y="0" rx="11"/>
    <filter id="connect-coinbase-d" width="193.8%" height="236.4%" x="-46.9%" y="-68.2%" filterUnits="objectBoundingBox">
      <feOffset in="SourceAlpha" result="shadowOffsetOuter1"/>
      <feGaussianBlur in="shadowOffsetOuter1" result="shadowBlurOuter1" stdDeviation="5"/>
      <feColorMatrix in="shadowBlurOuter1" values="0 0 0 0 0   0 0 0 0 0   0 0 0 0 0  0 0 0 0.1 0"/>
    </filter>
  </defs>
  <g fill="none" fill-rule="evenodd">
    <g transform="translate(68 18)">
      <rect width="52" height="52" fill="#1652F0" rx="12"/>
      <path fill="#FFF" fill-rule="nonzero" d="M31.7357422,31.1566667 C30.3976563,32.5 28.5847656,33.28 26.5992188,33.28 C22.5849609,33.28 19.3044922,29.9866667 19.3044922,25.9566667 C19.3044922,21.9266667 22.5849609,18.6333333 26.5992187,18.6333333 C28.6279297,18.6333333 30.4408203,19.4566667 31.7357422,20.7566667 L35.75,16.7266667 C33.4191406,14.43 30.1818359,13 26.5992187,13 C19.4339844,13 13.65,18.8066667 13.65,26 C13.65,33.1933333 19.4339844,39 26.5992187,39 C30.1818359,39 33.4191406,37.5266667 35.75,35.1866667 L31.7357422,31.1566667 Z"/>
    </g>
    <g fill-rule="nonzero">
      <circle cx="26" cy="26" r="26" fill="#214497"/>
      <rect width="52" height="52" fill="url(#connect-coinbase-a)" rx="22.5"/>
      <rect width="52" height="52" fill="url(#connect-coinbase-b)" rx="22.5"/>
      <rect width="52" height="52" fill="url(#connect-coinbase-c)" rx="12"/>
      <path fill="#FFF" d="M24.0510231,37.0846053 C24.9880515,37.0846053 25.8719776,36.8540476 26.7021945,36.3920086 C27.532108,35.9302775 28.2491411,35.3118656 28.8517766,34.5376965 C29.4541087,33.7632196 29.9292986,32.8871618 30.2776499,31.9092153 C30.6253943,30.9312688 30.7998734,29.9123822 30.7998734,28.8525554 C30.7998734,27.5486268 30.58534,26.5297401 30.1571834,25.7965111 C29.7284202,25.0626666 28.8378183,24.7274497 27.6868634,24.7274497 C27.3115058,24.7274497 26.9234036,24.7640804 26.3207681,24.8998294 C25.7181326,25.0361939 25.1983367,25.3181577 24.7164711,25.7524928 L22.097161,36.9313105 C22.871848,37.0689064 23.1400906,37.0846053 23.3279212,37.0846053 L24.0510231,37.0846053 L24.0510231,37.0846053 Z M29.2732574,19.642867 C30.5589405,19.642867 31.6698411,19.8740402 32.6077799,20.3357714 C33.5448084,20.7978103 34.3213161,21.4223785 34.9376064,22.2100918 C35.55329,22.9984207 36.0084528,23.9215751 36.3033982,24.9814019 C36.5977368,26.0409208 36.7455131,27.1820123 36.7455131,28.4043685 C36.7455131,30.2789966 36.4041409,32.0517363 35.7210933,33.7225872 C35.0380457,35.3934382 34.1073896,36.8469677 32.9291249,38.0831757 C31.7502533,39.3196916 30.358062,40.2976381 28.7510339,41.0170151 C27.1443093,41.7367 25.4031599,42.0971581 23.5287996,42.0971581 C23.2878667,42.0971581 22.8660826,42.0900782 22.2634471,42.0768419 C21.6608116,42.0626821 20.9707848,42.0017336 20.1942771,41.8933807 C19.4174659,41.7844122 18.5939247,41.621575 17.7239569,41.4042536 C16.8530788,41.18724 16.0298411,40.8886538 15.2533333,40.5078796 L22.2030622,10.8810576 L28.4299925,9.90311111 L25.9696858,20.4031842 C26.5049573,20.1587744 27.0098846,19.9830088 27.5460663,19.8466442 C28.0813378,19.7108953 28.6569669,19.642867 29.2732574,19.642867 L29.2732574,19.642867 Z"/>
    </g>
    <g transform="translate(44 24)">
      <use fill="#000" filter="url(#connect-coinbase-d)" xlink:href="#connect-coinbase-e"/>
      <use fill="#FFF" xlink:href="#connect-coinbase-e"/>
      <g fill="#4F6EF7" fill-rule="nonzero" transform="translate(4.998 4.998)">
        <path d="M7.00227207,6.00182382 C7.00227207,6.55410857 7.44998732,7.00182382 8.00227207,7.00182382 L14.0022721,7.00182382 C14.5545568,7.00182382 15.0022721,6.55410857 15.0022721,6.00182382 C15.0022721,5.44953907 14.5545568,5.00182382 14.0022721,5.00182382 L8.00227207,5.00182382 C7.44998732,5.00182382 7.00227207,5.44953907 7.00227207,6.00182382 Z"/>
        <path d="M7.9838872,10.0018238 L6.19799965,10.0018238 C4.07339408,10.0586645 2.254223,8.48650361 1.99767194,6.37182382 C1.89354209,5.24845356 2.26756589,4.13324594 3.02757001,3.30102946 C3.78757413,2.46881298 4.86287627,1.99698587 5.98848211,2.00182382 L7.9838872,2.00182382 C8.5349031,2.00182382 8.98158975,1.55410857 8.98158975,1.00182382 C8.98158975,0.449539066 8.5349031,0.00182381562 7.9838872,0.00182381562 L6.19799965,0.00182381562 C3.14031933,-0.039131017 0.51927346,2.18279991 0.0521519739,5.21182382 C-0.175033097,6.92619609 0.346874691,8.65544772 1.48404182,9.95614438 C2.62120894,11.256841 4.26302691,12.0024682 5.98848211,12.0018242 L7.9838872,12.0018242 C8.5349031,12.0018242 8.98158975,11.5541086 8.98158975,11.0018238 C8.98158975,10.4495391 8.5349031,10.0018238 7.9838872,10.0018238 L7.9838872,10.0018238 Z M21.9517228,5.24182382 C21.4901,2.17245219 18.8220727,-0.0731659014 15.7260589,0.00182381562 L14.2195281,0.00182381562 C13.411389,0.00182381562 12.9723999,0.451823816 12.9723999,1.00182382 C12.9723999,1.55410857 13.4190866,2.00182382 13.9701025,2.00182382 L15.75599,2.00182382 C17.8805956,1.94498311 19.6997667,3.51714402 19.9563177,5.63182382 C20.0604476,6.75519407 19.6864238,7.87040169 18.9264197,8.70261817 C18.1664155,9.53483465 17.0911134,10.0066618 15.9655076,10.0018238 L13.9701025,10.0018238 C13.4190866,10.0018238 12.9723999,10.4495391 12.9723999,11.0018238 C12.9723999,11.5541086 13.4190866,12.0018238 13.9701025,12.0018238 L15.9655076,12.0018238 C17.6937023,12.0157835 19.3435868,11.2804353 20.4908244,9.98490443 C21.638062,8.6893736 22.1706907,6.96009469 21.9517228,5.24182382 Z"/>
      </g>
    </g>
  </g>
</svg>
