<svg xmlns="http://www.w3.org/2000/svg" width="8" height="8" viewBox="0 0 8 8">
  <path d="M4.9456,3.9792 L7.2816,6.31573333 C7.53200811,6.5783008 7.52715581,6.99270915 7.2706684,7.24934139 C7.01418099,7.50597362 6.59977544,7.51105985 6.33706667,7.2608 L4.0016,4.92426667 L1.66293333,7.2608 C1.4955233,7.43633916 1.24613684,7.50737805 1.01135522,7.44640506 C0.776573596,7.38543208 0.5932676,7.20202258 0.532427153,6.96720657 C0.471586707,6.73239057 0.54276637,6.48304425 0.7184,6.31573333 L3.0528,3.9792 L0.7168,1.6416 C0.5417697,1.47386864 0.47120894,1.22455365 0.532377658,0.989973599 C0.593546376,0.755393544 0.776866475,0.572280119 1.01151538,0.511376054 C1.24616429,0.450471988 1.49539952,0.521313939 1.66293333,0.696533333 L4.0016,3.03306667 L6.33653333,0.695466667 C6.50406714,0.520247272 6.75330238,0.449405321 6.98795129,0.510309387 C7.22260019,0.571213452 7.40592029,0.754326878 7.46708901,0.988906932 C7.52825773,1.22348699 7.45769697,1.47280198 7.28266667,1.64053333 L4.9456,3.9792 Z" opacity=".748"/>
</svg>
