<svg xmlns="http://www.w3.org/2000/svg" xmlns:xlink="http://www.w3.org/1999/xlink" width="17" height="16" viewBox="0 0 17 16">
  <defs>
    <polygon id="hide-qr-b" points="-2.341 7.47 18.403 7.47 18.403 8.591 -2.341 8.591"/>
    <filter id="hide-qr-a" width="104.8%" height="278.4%" x="-2.4%" y="-44.6%" filterUnits="objectBoundingBox">
      <feOffset dy="1" in="SourceAlpha" result="shadowOffsetOuter1"/>
      <feColorMatrix in="shadowOffsetOuter1" values="0 0 0 0 0.960784314   0 0 0 0 0.960784314   0 0 0 0 0.968627451  0 0 0 1 0"/>
    </filter>
  </defs>
  <g fill="none" fill-rule="evenodd">
    <g stroke-linecap="square" stroke-width="1.2" transform="translate(1.714 1.714)">
      <polygon stroke="#4F6EF7" points="5.046 5.046 0 5.046 0 0 5.046 0 5.046 0"/>
      <polygon stroke="#4F6EF7" points="12.334 5.046 7.288 5.046 7.288 0 7.288 0 12.334 0"/>
      <polygon stroke="#BAC4F4" points="12.334 5.046 7.849 5.046 12.334 .561"/>
      <polygon stroke="#4F6EF7" points="5.046 12.334 0 12.334 0 7.288 5.046 7.288 5.046 7.288"/>
      <polygon stroke="#BAC4F4" points="5.046 12.334 .561 12.334 5.046 7.849"/>
      <polyline stroke="#BAC4F4" points="12.334 10.092 12.334 7.288 10.092 7.288 10.092 8.97 7.849 8.97 7.849 7.288"/>
      <polyline stroke="#BAC4F4" points="12.334 12.334 7.849 12.334 7.849 11.213"/>
      <polygon stroke="#4F6EF7" points="2.803 2.803 2.243 2.803 2.243 2.243 2.803 2.243"/>
      <polygon stroke="#4F6EF7" points="10.092 2.803 9.531 2.803 9.531 2.803 9.531 2.243 10.092 2.243"/>
      <polygon stroke="#4F6EF7" points="2.803 10.092 2.243 10.092 2.243 9.531 2.803 9.531"/>
    </g>
    <g transform="rotate(-45 8.03 8.03)">
      <use fill="#000" filter="url(#hide-qr-a)" xlink:href="#hide-qr-b"/>
      <use fill="#4F6EF7" xlink:href="#hide-qr-b"/>
    </g>
  </g>
</svg>
