<svg xmlns="http://www.w3.org/2000/svg" xmlns:xlink="http://www.w3.org/1999/xlink" width="19" height="18" viewBox="0 0 19 18">
  <defs>
    <polygon id="hide-qr-round-b" points="-2.22 7.875 19.78 7.875 19.78 9.064 -2.22 9.064"/>
    <filter id="hide-qr-round-a" width="104.5%" height="268.2%" x="-2.3%" y="-42%" filterUnits="objectBoundingBox">
      <feOffset dy="1" in="SourceAlpha" result="shadowOffsetOuter1"/>
      <feColorMatrix in="shadowOffsetOuter1" values="0 0 0 0 0.960784314   0 0 0 0 0.960784314   0 0 0 0 0.968627451  0 0 0 1 0"/>
    </filter>
  </defs>
  <g fill="none" fill-rule="evenodd" transform="translate(.5 .5)">
    <rect width="5.58" height="5.58" x="2" y="2" stroke="#4F6EF7" stroke-width="1.25" rx=".5"/>
    <rect width="5.58" height="5.58" x="10.06" y="2" stroke="#4F6EF7" stroke-width="1.25" rx=".5"/>
    <path stroke="#A4B4F8" stroke-width="1.25" d="M15.64,3.20710678 L15.64,7.08 C15.64,7.35614237 15.4161424,7.58 15.14,7.58 L11.2671068,7.58 C10.9909644,7.58 10.7671068,7.35614237 10.7671068,7.08 C10.7671068,6.94739176 10.8197852,6.8202148 10.9135534,6.72644661 L14.7864466,2.85355339 C14.9817088,2.65829124 15.2982912,2.65829124 15.4935534,2.85355339 C15.5873216,2.94732158 15.64,3.07449854 15.64,3.20710678 Z"/>
    <rect width="5.58" height="5.58" x="2" y="10.06" stroke="#4F6EF7" stroke-width="1.25" rx=".5"/>
    <path stroke="#A4B4F8" stroke-width="1.25" d="M7.58,11.2671068 L7.58,15.14 C7.58,15.4161424 7.35614237,15.64 7.08,15.64 L3.20710678,15.64 C2.93096441,15.64 2.70710678,15.4161424 2.70710678,15.14 C2.70710678,15.0073918 2.7597852,14.8802148 2.85355339,14.7864466 L6.72644661,10.9135534 C6.92170876,10.7182912 7.23829124,10.7182912 7.43355339,10.9135534 C7.52732158,11.0073216 7.58,11.1344985 7.58,11.2671068 Z"/>
    <polyline stroke="#A4B4F8" stroke-linecap="square" stroke-width="1.25" points="15.633 13.154 15.633 10.056 13.154 10.056 13.154 11.915 10.675 11.915 10.675 10.056"/>
    <polyline stroke="#A4B4F8" stroke-linecap="square" stroke-width="1.25" points="15.633 15.633 10.675 15.633 10.675 14.393"/>
    <polygon stroke="#4F6EF7" stroke-linecap="square" stroke-width="1.25" points="5.098 5.098 4.479 5.098 4.479 4.479 5.098 4.479"/>
    <polygon stroke="#4F6EF7" stroke-linecap="square" stroke-width="1.25" points="13.154 5.098 12.534 5.098 12.534 5.098 12.534 4.479 13.154 4.479"/>
    <polygon stroke="#4F6EF7" stroke-linecap="square" stroke-width="1.25" points="5.098 13.154 4.479 13.154 4.479 12.534 5.098 12.534"/>
    <g transform="rotate(-45 8.78 8.47)">
      <use fill="#000" filter="url(#hide-qr-round-a)" xlink:href="#hide-qr-round-b"/>
      <use fill="#4F6EF7" xlink:href="#hide-qr-round-b"/>
    </g>
  </g>
</svg>
