<svg xmlns="http://www.w3.org/2000/svg" width="18" height="18" viewBox="0 0 18 18">
  <g fill="none" fill-rule="evenodd" stroke="#4F6EF7" stroke-linecap="square" stroke-width="1.5" transform="translate(1 1)">
    <polygon points="6.374 6.374 0 6.374 0 0 6.374 0 6.374 0"/>
    <polygon points="15.58 6.374 9.206 6.374 9.206 0 9.206 0 15.58 0"/>
    <polygon points="6.374 15.58 0 15.58 0 9.206 6.374 9.206 6.374 9.206"/>
    <polyline points="15.58 12.747 15.58 9.206 12.747 9.206 12.747 11.331 9.915 11.331 9.915 9.206"/>
    <polyline points="15.58 15.58 9.915 15.58 9.915 14.164"/>
    <polygon points="3.541 3.541 2.833 3.541 2.833 2.833 3.541 2.833"/>
    <polygon points="12.747 3.541 12.039 3.541 12.039 3.541 12.039 2.833 12.747 2.833"/>
    <polygon points="3.541 12.747 2.833 12.747 2.833 12.039 3.541 12.039"/>
  </g>
</svg>
