<svg xmlns="http://www.w3.org/2000/svg" width="20" height="20" viewBox="0 0 20 20">
  <g fill="none">
    <path fill="#4F6EF7" d="M19.8412818,10 C19.8423262,13.754368 17.7571011,17.1930094 14.4417989,18.904 C14.1587302,19.0506667 13.8677249,19.184 13.5687831,19.304 C12.5967836,19.6913804 11.5698466,19.9204642 10.526455,19.9826667 C10.3271605,19.9942222 10.1252205,20 9.92063492,20 L9.66534392,20 L9.66534392,20 C8.95174715,19.981916 8.24217083,19.886251 7.5489418,19.7146667 L7.5489418,19.7146667 C7.11566174,19.6073521 6.69008566,19.470595 6.27513228,19.3053333 C5.97707231,19.1862222 5.68606702,19.0528889 5.4021164,18.9053333 C2.17514953,17.2026845 0.133292201,13.8544812 0.0831432452,10.1833706 C0.0329942896,6.51226007 1.982619,3.10865551 5.16185339,1.31708937 C8.34108778,-0.474476768 12.2386255,-0.365872509 15.3148148,1.6 C15.5793651,1.77777778 15.8381834,1.96533333 16.0912698,2.16266667 C18.4644482,4.05964013 19.8459797,6.94697962 19.8412818,10 Z"/>
    <path fill="#F7F7F7" d="M13.795325,7.22711022 C13.4158027,7.43794564 13.2627751,7.92598935 13.4487818,8.3323238 C14.1923561,9.92853545 13.8643917,11.8466922 12.6384582,13.0716433 C11.4125246,14.2965944 9.57170173,14.5454868 8.09021266,13.6865986 C6.60872359,12.8277104 5.82865847,11.0593671 6.16285306,9.31743341 C6.49704765,7.57549972 7.86833321,6.26220487 9.55098092,6.07258711 L9.55098092,7.127641 C9.55220942,7.17064769 9.57499577,7.2097694 9.61089726,7.23051088 C9.64956415,7.25355328 9.69692114,7.25355328 9.73558803,7.23051088 L12.9516381,5.24027626 C12.9932652,5.2163499 13.0204236,5.17181324 13.0236997,5.12210342 C13.0236997,5.05749094 12.9516381,5.01243223 12.9516381,5.01243223 L9.74530419,3.03324975 C9.70532655,3.00297605 9.65468432,2.99271433 9.60684886,3.00519433 C9.54207444,3.03154942 9.55017124,3.12421733 9.55017124,3.12421733 L9.55017124,4.25493584 C7.08582846,4.44757396 5.03298412,6.31334331 4.4981534,8.84656506 C3.96332269,11.3797868 5.0729263,13.9816702 7.22887055,15.2497595 C9.3848148,16.5178488 12.077488,16.1523991 13.8554972,14.3503935 C15.6335064,12.5483879 16.0765744,9.73577586 14.9458806,7.42859916 C14.678812,7.04331576 14.1670233,6.95368971 13.795325,7.22711022 Z"/>
  </g>
</svg>
