<svg xmlns="http://www.w3.org/2000/svg" xmlns:xlink="http://www.w3.org/1999/xlink" width="336" height="402" viewBox="0 0 336 402">
  <defs>
    <rect id="amount-empty-b" width="300" height="366" x="0" y="0" rx="8"/>
    <filter id="amount-empty-a" width="118%" height="114.8%" x="-9%" y="-7.4%" filterUnits="objectBoundingBox">
      <feMorphology in="SourceAlpha" operator="dilate" radius="2" result="shadowSpreadOuter1"/>
      <feOffset in="shadowSpreadOuter1" result="shadowOffsetOuter1"/>
      <feGaussianBlur in="shadowOffsetOuter1" result="shadowBlurOuter1" stdDeviation="7"/>
      <feColorMatrix in="shadowBlurOuter1" values="0 0 0 0 0   0 0 0 0 0   0 0 0 0 0  0 0 0 0.1 0"/>
    </filter>
    <path id="amount-empty-c" d="M29.0625,80.625 C32.2083333,80.625 34.9322917,79.9322917 37.234375,78.546875 C39.5364583,77.1614583 41.3229167,75.0260417 42.59375,72.140625 C43.8645833,69.2552083 44.5,65.625 44.5,61.25 L44.5,61.25 L44.5,53.1875 C44.5,48.8125 43.859375,45.1875 42.578125,42.3125 C41.296875,39.4375 39.5,37.3125 37.1875,35.9375 C34.875,34.5625 32.1458333,33.875 29,33.875 C25.8541667,33.875 23.125,34.5625 20.8125,35.9375 C18.5,37.3125 16.703125,39.4375 15.421875,42.3125 C14.140625,45.1875 13.5,48.8125 13.5,53.1875 L13.5,53.1875 L13.5,61.25 C13.5,65.625 14.1458333,69.2552083 15.4375,72.140625 C16.7291667,75.0260417 18.5364583,77.1614583 20.859375,78.546875 C23.1822917,79.9322917 25.9166667,80.625 29.0625,80.625 Z M29.0625,73.03125 C27.0416667,73.03125 25.515625,72.21875 24.484375,70.59375 C23.453125,68.96875 22.9375,66.2708333 22.9375,62.5 L22.9375,62.5 L22.9375,51.90625 C22.9375,48.1770833 23.4479167,45.5052083 24.46875,43.890625 C25.4895833,42.2760417 27,41.46875 29,41.46875 C31,41.46875 32.5104167,42.2760417 33.53125,43.890625 C34.5520833,45.5052083 35.0625,48.1770833 35.0625,51.90625 L35.0625,51.90625 L35.0625,62.5 C35.0625,66.2708333 34.5625,68.96875 33.5625,70.59375 C32.5625,72.21875 31.0625,73.03125 29.0625,73.03125 Z"/>
    <path id="amount-empty-d" d="M18.7890625,17.15625 C19.6536458,17.15625 20.4153646,17 21.0742188,16.6875 C21.7330729,16.375 22.2473958,15.9140625 22.6171875,15.3046875 C22.9869792,14.6953125 23.171875,13.9609375 23.171875,13.1015625 L23.171875,13.1015625 L23.171875,5.625 L20.71875,5.625 L20.71875,13.1015625 C20.71875,13.8151042 20.5546875,14.3398438 20.2265625,14.6757812 C19.8984375,15.0117188 19.4192708,15.1796875 18.7890625,15.1796875 C17.4921875,15.1796875 16.84375,14.4869792 16.84375,13.1015625 L16.84375,13.1015625 L16.84375,5.625 L14.3828125,5.625 L14.3828125,13.1015625 C14.3828125,13.9609375 14.5677083,14.6953125 14.9375,15.3046875 C15.3072917,15.9140625 15.8242188,16.375 16.4882812,16.6875 C17.1523438,17 17.9192708,17.15625 18.7890625,17.15625 Z M29.2421875,17.15625 C30.0807292,17.15625 30.8111979,17.03125 31.4335938,16.78125 C32.0559896,16.53125 32.5364583,16.1679688 32.875,15.6914062 C33.2135417,15.2148438 33.3828125,14.6458333 33.3828125,13.984375 C33.3828125,13.0677083 33.0716146,12.3164062 32.4492188,11.7304688 C31.8268229,11.1445312 30.8776042,10.65625 29.6015625,10.265625 C28.8463542,10.03125 28.2890625,9.79296875 27.9296875,9.55078125 C27.5703125,9.30859375 27.390625,9.01302083 27.390625,8.6640625 C27.390625,8.4296875 27.4570312,8.21744792 27.5898438,8.02734375 C27.7226562,7.83723958 27.9205729,7.6875 28.1835938,7.578125 C28.4466146,7.46875 28.765625,7.4140625 29.140625,7.4140625 C29.7291667,7.4140625 30.1757812,7.55598958 30.4804688,7.83984375 C30.7851562,8.12369792 30.9375,8.50520833 30.9375,8.984375 L30.9375,8.984375 L33.3828125,8.984375 C33.3828125,8.296875 33.2083333,7.68619792 32.859375,7.15234375 C32.5104167,6.61848958 32.0182292,6.20442708 31.3828125,5.91015625 C30.7473958,5.61588542 30.015625,5.46875 29.1875,5.46875 C28.3645833,5.46875 27.6328125,5.60026042 26.9921875,5.86328125 C26.3515625,6.12630208 25.8502604,6.49869792 25.4882812,6.98046875 C25.1263021,7.46223958 24.9453125,8.01822917 24.9453125,8.6484375 C24.9453125,9.27864583 25.1119792,9.82291667 25.4453125,10.28125 C25.7786458,10.7395833 26.2226562,11.1210938 26.7773438,11.4257812 C27.3320312,11.7304688 27.9947917,12.0078125 28.765625,12.2578125 C29.3645833,12.4505208 29.8177083,12.6302083 30.125,12.796875 C30.4322917,12.9635417 30.6432292,13.1380208 30.7578125,13.3203125 C30.8723958,13.5026042 30.9296875,13.7291667 30.9296875,14 C30.9296875,14.3645833 30.7877604,14.6588542 30.5039062,14.8828125 C30.2200521,15.1067708 29.7994792,15.21875 29.2421875,15.21875 C28.5390625,15.21875 27.9986979,15.0742188 27.6210938,14.7851562 C27.2434896,14.4960938 27.0546875,14.0260417 27.0546875,13.375 L27.0546875,13.375 L24.59375,13.375 C24.59375,14.203125 24.8151042,14.9023438 25.2578125,15.4726562 C25.7005208,16.0429688 26.2747396,16.4661458 26.9804688,16.7421875 C27.6861979,17.0182292 28.4401042,17.15625 29.2421875,17.15625 Z M38.453125,17 C39.4739583,17 40.3802083,16.7721354 41.171875,16.3164062 C41.9635417,15.8606771 42.5807292,15.2213542 43.0234375,14.3984375 C43.4661458,13.5755208 43.6875,12.6302083 43.6875,11.5625 L43.6875,11.5625 L43.6875,11.0625 C43.6875,10 43.4661458,9.05598958 43.0234375,8.23046875 C42.5807292,7.40494792 41.9648438,6.76432292 41.1757812,6.30859375 C40.3867188,5.85286458 39.484375,5.625 38.46875,5.625 L38.46875,5.625 L34.921875,5.625 L34.921875,17 L38.453125,17 Z M38.453125,15.0234375 L37.375,15.0234375 L37.375,7.609375 L38.46875,7.609375 C39.359375,7.609375 40.0364583,7.90104167 40.5,8.484375 C40.9635417,9.06770833 41.1953125,9.921875 41.1953125,11.046875 L41.1953125,11.046875 L41.1953125,11.5625 C41.1953125,12.6875 40.9609375,13.5455729 40.4921875,14.1367188 C40.0234375,14.7278646 39.34375,15.0234375 38.453125,15.0234375 L38.453125,15.0234375 Z"/>
    <path id="amount-empty-e" d="M2.58744531,15 L2.58744531,11.0966797 L4.93900781,11.0966797 C5.68640365,11.0966797 6.32100651,10.9793294 6.84281641,10.7446289 C7.3646263,10.5099284 7.75997135,10.1669922 8.02885156,9.71582031 C8.29773177,9.26464844 8.43217188,8.72005208 8.43217188,8.08203125 C8.43217188,7.48502604 8.29659245,6.95865885 8.02543359,6.50292969 C7.75427474,6.04720052 7.35551172,5.69059245 6.82914453,5.43310547 C6.30277734,5.17561849 5.67273177,5.046875 4.93900781,5.046875 L4.93900781,5.046875 L1.26127344,5.046875 L1.26127344,15 L2.58744531,15 Z M4.93900781,10.0302734 L2.58744531,10.0302734 L2.58744531,6.12011719 L4.93900781,6.12011719 C5.42663802,6.12011719 5.8333763,6.2101237 6.15922266,6.39013672 C6.48506901,6.57014974 6.72432682,6.80940755 6.87699609,7.10791016 C7.02966536,7.40641276 7.106,7.73567708 7.106,8.09570312 C7.106,8.69270833 6.92940495,9.16438802 6.57621484,9.51074219 C6.22302474,9.85709635 5.67728906,10.0302734 4.93900781,10.0302734 L4.93900781,10.0302734 Z M12.1167422,15.1367188 C12.5451276,15.1367188 12.938194,15.0535482 13.2959414,14.887207 C13.6536888,14.7208659 13.9601667,14.5009766 14.215375,14.2275391 C14.2563906,14.5647786 14.3156354,14.8222656 14.3931094,15 L14.3931094,15 L15.7261172,15 L15.7261172,14.890625 C15.6440859,14.6992188 15.5802839,14.4656576 15.5347109,14.1899414 C15.489138,13.9142253 15.4663516,13.6464844 15.4663516,13.3867188 L15.4663516,13.3867188 L15.4663516,9.94140625 C15.4663516,9.40364583 15.3501406,8.94905599 15.1177188,8.57763672 C14.8852969,8.20621745 14.5628685,7.92822266 14.1504336,7.74365234 C13.7379987,7.55908203 13.2583438,7.46679688 12.7114688,7.46679688 C12.13725,7.46679688 11.6268333,7.57275391 11.1802188,7.78466797 C10.7336042,7.99658203 10.38725,8.27115885 10.1411563,8.60839844 C9.8950625,8.94563802 9.77201563,9.29427083 9.77201563,9.65429688 L9.77201563,9.65429688 L11.0503359,9.65429688 C11.0503359,9.44466146 11.117556,9.24983724 11.2519961,9.06982422 C11.3864362,8.8898112 11.5744245,8.74625651 11.8159609,8.63916016 C12.0574974,8.5320638 12.3309349,8.47851562 12.6362734,8.47851562 C13.1375755,8.47851562 13.5215273,8.60725911 13.7881289,8.86474609 C14.0547305,9.12223307 14.1880313,9.4765625 14.1880313,9.92773438 L14.1880313,9.92773438 L14.1880313,10.515625 L12.9438906,10.515625 C12.2648542,10.515625 11.6758242,10.6079102 11.1768008,10.7924805 C10.6777773,10.9770508 10.2926862,11.2516276 10.0215273,11.6162109 C9.75036849,11.9807943 9.61478906,12.4251302 9.61478906,12.9492188 C9.61478906,13.3548177 9.71846745,13.7239583 9.92582422,14.0566406 C10.133181,14.3893229 10.4271263,14.6525065 10.8076602,14.8461914 C11.188194,15.0398763 11.6245547,15.1367188 12.1167422,15.1367188 Z M12.3013125,14.0429688 C12.0005313,14.0429688 11.7453229,13.9871419 11.5356875,13.8754883 C11.3260521,13.7638346 11.1665469,13.6123047 11.0571719,13.4208984 C10.9477969,13.2294922 10.8931094,13.0130208 10.8931094,12.7714844 C10.8931094,12.3203125 11.0867943,11.9796549 11.4741641,11.7495117 C11.8615339,11.5193685 12.4198021,11.4042969 13.1489688,11.4042969 L13.1489688,11.4042969 L14.1880313,11.4042969 L14.1880313,12.9355469 C14.0923281,13.1315104 13.9533307,13.3138021 13.7710391,13.4824219 C13.5887474,13.6510417 13.3711367,13.7866211 13.118207,13.8891602 C12.8652773,13.9916992 12.5929792,14.0429688 12.3013125,14.0429688 Z M17.7837344,17.9873047 C18.3761823,17.9873047 18.844444,17.8038737 19.1885195,17.4370117 C19.5325951,17.0701497 19.7957786,16.6383464 19.9780703,16.1416016 L19.9780703,16.1416016 L22.9448672,7.60351562 L21.5845156,7.60351562 L19.8686953,13.140625 L18.0366641,7.60351562 L16.6421328,7.60351562 L19.2808047,14.9179688 L19.0005313,15.6767578 C18.8501406,16.1279297 18.6553164,16.4435221 18.4160586,16.6235352 C18.1768008,16.8035482 17.8407005,16.8935547 17.4077578,16.8935547 C17.3576276,16.8935547 17.3006615,16.8901367 17.2368594,16.8833008 C17.1730573,16.8764648 17.1160911,16.8684896 17.0659609,16.859375 L17.0659609,16.859375 L17.0659609,17.8779297 C17.1434349,17.9007161 17.2585065,17.9246419 17.4111758,17.949707 C17.5638451,17.9747721 17.6880313,17.9873047 17.7837344,17.9873047 Z M30.0610781,15 L31.8110781,9.41503906 L33.6020938,15 L34.6343203,15 L36.7808047,7.60351562 L35.5161563,7.60351562 L34.0942813,13.2158203 L32.3511172,7.60351562 L31.3188906,7.60351562 L29.6030703,13.0927734 L28.1538516,7.60351562 L26.8823672,7.60351562 L29.0288516,15 L30.0610781,15 Z M38.82475,6.34570312 C39.0617292,6.34570312 39.2474388,6.27848307 39.3818789,6.14404297 C39.516319,6.00960286 39.5835391,5.83984375 39.5835391,5.63476562 C39.5835391,5.42513021 39.516319,5.25195312 39.3818789,5.11523438 C39.2474388,4.97851562 39.0617292,4.91015625 38.82475,4.91015625 C38.5877708,4.91015625 38.4043398,4.97851562 38.274457,5.11523438 C38.1445742,5.25195312 38.0796328,5.42513021 38.0796328,5.63476562 C38.0796328,5.83984375 38.1445742,6.00960286 38.274457,6.14404297 C38.4043398,6.27848307 38.5877708,6.34570312 38.82475,6.34570312 Z M39.4536563,15 L39.4536563,7.60351562 L38.1753359,7.60351562 L38.1753359,15 L39.4536563,15 Z M43.6304141,15.1367188 C43.9904401,15.1367188 44.3162865,15.0911458 44.6079531,15 L44.6079531,15 L44.6011172,13.9814453 C44.5327578,13.9996745 44.441612,14.0167643 44.3276797,14.0327148 C44.2137474,14.0486654 44.1089297,14.0566406 44.0132266,14.0566406 C43.7625755,14.0566406 43.5643333,13.9962565 43.4185,13.8754883 C43.2726667,13.7547201 43.19975,13.5188802 43.19975,13.1679688 L43.19975,13.1679688 L43.19975,8.56738281 L44.5806094,8.56738281 L44.5806094,7.60351562 L43.19975,7.60351562 L43.19975,5.80566406 L41.9214297,5.80566406 L41.9214297,7.60351562 L40.57475,7.60351562 L40.57475,8.56738281 L41.9214297,8.56738281 L41.9214297,13.1611328 C41.9214297,13.8583984 42.0775169,14.3619792 42.3896914,14.671875 C42.7018659,14.9817708 43.1154401,15.1367188 43.6304141,15.1367188 Z M47.3286563,15 L47.3286563,9.70898438 C47.5109479,9.34895833 47.758181,9.06184896 48.0703555,8.84765625 C48.3825299,8.63346354 48.7345807,8.52636719 49.1265078,8.52636719 C49.6186953,8.52636719 49.9866966,8.65397135 50.2305117,8.90917969 C50.4743268,9.16438802 50.5962344,9.57454427 50.5962344,10.1396484 L50.5962344,10.1396484 L50.5962344,15 L51.8745547,15 L51.8745547,10.1533203 C51.8745547,8.36230469 51.0838646,7.46679688 49.5024844,7.46679688 C49.0604271,7.46679688 48.6548281,7.55452474 48.2856875,7.72998047 C47.9165469,7.9054362 47.5975365,8.15494792 47.3286563,8.47851562 L47.3286563,8.47851562 L47.3286563,4.5 L46.0503359,4.5 L46.0503359,15 L47.3286563,15 Z"/>
    <path id="amount-empty-g" d="M8,0 L292,0 C296.418278,-8.11624501e-16 300,3.581722 300,8 L300,48 L300,48 L0,48 L0,8 C-5.41083001e-16,3.581722 3.581722,8.11624501e-16 8,0 Z"/>
    <filter id="amount-empty-f" width="100.3%" height="104.2%" x="-.2%" y="-1%" filterUnits="objectBoundingBox">
      <feOffset dy="1" in="SourceAlpha" result="shadowOffsetOuter1"/>
      <feColorMatrix in="shadowOffsetOuter1" values="0 0 0 0 0   0 0 0 0 0   0 0 0 0 0  0 0 0 0.05 0"/>
    </filter>
    <path id="amount-empty-h" d="M14.668457,12.5 C15.5314128,12.5 16.2010091,12.3039551 16.6772461,11.9118652 C17.1534831,11.5197754 17.3916016,10.953125 17.3916016,10.2119141 C17.3916016,9.78580729 17.280599,9.41072591 17.0585938,9.08666992 C16.8365885,8.76261393 16.5089518,8.54329427 16.0756836,8.42871094 C16.440918,8.27832031 16.72111,8.05989583 16.9162598,7.7734375 C17.1114095,7.48697917 17.2089844,7.16113281 17.2089844,6.79589844 C17.2089844,6.08333333 16.9726562,5.55249023 16.5,5.20336914 C16.0273438,4.85424805 15.3505859,4.6796875 14.4697266,4.6796875 L14.4697266,4.6796875 L11.7841797,4.6796875 L11.7841797,12.5 L14.668457,12.5 Z M14.4804688,7.96679688 L13.175293,7.96679688 L13.175293,5.80224609 L14.4697266,5.80224609 C14.9352214,5.80224609 15.277181,5.88728841 15.4956055,6.05737305 C15.7140299,6.22745768 15.8232422,6.50227865 15.8232422,6.88183594 C15.8232422,7.22558594 15.7059733,7.49235026 15.4714355,7.68212891 C15.2368978,7.87190755 14.9065755,7.96679688 14.4804688,7.96679688 L14.4804688,7.96679688 Z M14.668457,11.3828125 L13.175293,11.3828125 L13.175293,8.98730469 L14.7275391,8.98730469 C15.5797526,8.98730469 16.0058594,9.39550781 16.0058594,10.2119141 C16.0058594,10.5664062 15.8903809,10.850179 15.6594238,11.0632324 C15.4284668,11.2762858 15.0981445,11.3828125 14.668457,11.3828125 L14.668457,11.3828125 Z M20.4047852,12.6074219 C20.7270508,12.6074219 21.0152995,12.5483398 21.2695312,12.4301758 C21.523763,12.3120117 21.7421875,12.1544596 21.9248047,11.9575195 C21.9677734,12.1938477 22.0179036,12.3746745 22.0751953,12.5 L22.0751953,12.5 L23.4394531,12.5 L23.4394531,12.4086914 C23.2926432,12.097168 23.2192383,11.6764323 23.2192383,11.1464844 L23.2192383,11.1464844 L23.2192383,8.58447266 C23.2192383,8.15120443 23.1234538,7.78417969 22.9318848,7.48339844 C22.7403158,7.18261719 22.4744466,6.95703125 22.1342773,6.80664062 C21.7941081,6.65625 21.4020182,6.58105469 20.9580078,6.58105469 C20.4853516,6.58105469 20.0655111,6.66430664 19.6984863,6.83081055 C19.3314616,6.99731445 19.048584,7.2175293 18.8498535,7.49145508 C18.651123,7.76538086 18.5517578,8.05810547 18.5517578,8.36962891 L18.5517578,8.36962891 L19.8891602,8.36962891 C19.8891602,8.22281901 19.9303385,8.09033203 20.0126953,7.97216797 C20.0950521,7.85400391 20.2114258,7.76090495 20.3618164,7.69287109 C20.512207,7.62483724 20.6858724,7.59082031 20.8828125,7.59082031 C21.2122396,7.59082031 21.4611003,7.67765299 21.6293945,7.85131836 C21.7976888,8.02498372 21.8818359,8.26578776 21.8818359,8.57373047 L21.8818359,8.57373047 L21.8818359,8.94970703 L21.0761719,8.94970703 C20.2311198,8.94970703 19.5785319,9.11442057 19.1184082,9.44384766 C18.6582845,9.77327474 18.4282227,10.2477214 18.4282227,10.8671875 C18.4282227,11.1966146 18.5123698,11.4938151 18.6806641,11.7587891 C18.8489583,12.023763 19.0834961,12.2314453 19.3842773,12.3818359 C19.6850586,12.5322266 20.0252279,12.6074219 20.4047852,12.6074219 Z M20.6625977,11.5385742 C20.3797201,11.5385742 20.1595052,11.4642741 20.0019531,11.3156738 C19.844401,11.1670736 19.765625,10.9746094 19.765625,10.7382812 C19.765625,10.4339193 19.8855794,10.1975911 20.1254883,10.0292969 C20.3653971,9.8610026 20.718099,9.77685547 21.1835938,9.77685547 L21.1835938,9.77685547 L21.8818359,9.77685547 L21.8818359,10.8618164 C21.7815755,11.0480143 21.6231283,11.2073568 21.4064941,11.3398438 C21.18986,11.4723307 20.9418945,11.5385742 20.6625977,11.5385742 Z M26.9736328,12.6074219 C27.3997396,12.6074219 27.7918294,12.5161133 28.1499023,12.3334961 C28.5079753,12.1508789 28.7944336,11.9038086 29.0092773,11.5922852 C29.2241211,11.2807617 29.3369141,10.9388021 29.3476562,10.5664062 L29.3476562,10.5664062 L28.0854492,10.5664062 C28.074707,10.7526042 28.0192057,10.9191081 27.9189453,11.065918 C27.8186849,11.2127279 27.6844076,11.3273112 27.5161133,11.409668 C27.347819,11.4920247 27.1616211,11.5332031 26.9575195,11.5332031 C26.0909831,11.5332031 25.6577148,10.9173177 25.6577148,9.68554688 L25.6577148,9.68554688 L25.6577148,9.50292969 C25.6577148,8.96582031 25.7543945,8.52360026 25.9477539,8.17626953 C26.1411133,7.8289388 26.4759115,7.65527344 26.9521484,7.65527344 C27.1777344,7.65527344 27.3737793,7.70540365 27.5402832,7.80566406 C27.7067871,7.90592448 27.8365885,8.04109701 27.9296875,8.21118164 C28.0227865,8.38126628 28.074707,8.57014974 28.0854492,8.77783203 L28.0854492,8.77783203 L29.3476562,8.77783203 C29.3369141,8.34814453 29.2312826,7.96679688 29.0307617,7.63378906 C28.8302409,7.30078125 28.5518392,7.04207357 28.1955566,6.85766602 C27.8392741,6.67325846 27.4301758,6.58105469 26.9682617,6.58105469 C26.3953451,6.58105469 25.9101562,6.70996094 25.5126953,6.96777344 C25.1152344,7.22558594 24.8171387,7.57560221 24.6184082,8.01782227 C24.4196777,8.46004232 24.3203125,8.95507812 24.3203125,9.50292969 L24.3203125,9.50292969 L24.3203125,9.68554688 C24.3203125,10.2333984 24.4187826,10.7284342 24.6157227,11.1706543 C24.8126628,11.6128743 25.1107585,11.9628906 25.5100098,12.2207031 C25.9092611,12.4785156 26.3971354,12.6074219 26.9736328,12.6074219 Z M31.6572266,12.5 L31.6572266,10.6147461 L32.2426758,10.0185547 L33.9345703,12.5 L35.4814453,12.5 L33.1020508,9.10546875 L35.2558594,6.68847656 L33.6445312,6.68847656 L32.0546875,8.48779297 L31.6572266,8.98193359 L31.6572266,4.25 L30.3251953,4.25 L30.3251953,12.5 L31.6572266,12.5 Z"/>
  </defs>
  <g fill="none" fill-rule="evenodd" transform="translate(18 18)">
    <use fill="#000" filter="url(#amount-empty-a)" xlink:href="#amount-empty-b"/>
    <use fill="#FFF" xlink:href="#amount-empty-b"/>
    <path fill="#FFF" d="M10,48 L290,48 C295.522847,48 300,52.4771525 300,58 L300,358 C300,362.418278 296.418278,366 292,366 L8,366 C3.581722,366 5.41083001e-16,362.418278 0,358 L0,58 C-6.76353751e-16,52.4771525 4.4771525,48 10,48 Z"/>
    <path fill="#434D5A" fill-rule="nonzero" d="M107.878418,78 L108.574219,75.8833008 L112.353516,75.8833008 L113.049316,78 L115.50293,78 L111.525879,67.3359375 L109.387207,67.3359375 L105.432129,78 L107.878418,78 Z M111.738281,74.0229492 L109.182129,74.0229492 L110.456543,70.1337891 L111.738281,74.0229492 Z M118.527832,78 L118.527832,72.4335938 C118.654785,72.2041016 118.822021,72.0270996 119.029541,71.9025879 C119.237061,71.7780762 119.482422,71.7158203 119.765625,71.7158203 C120.019531,71.7158203 120.228271,71.7524414 120.391846,71.8256836 C120.55542,71.8989258 120.681152,72.0283203 120.769043,72.2138672 C120.856934,72.3994141 120.900879,72.6582031 120.900879,72.9902344 L120.900879,72.9902344 L120.900879,78 L123.112793,78 L123.112793,72.7119141 C123.112793,72.6337891 123.110352,72.5776367 123.105469,72.543457 C123.227539,72.2797852 123.393555,72.0759277 123.603516,71.9318848 C123.813477,71.7878418 124.067383,71.7158203 124.365234,71.7158203 C124.614258,71.7158203 124.820557,71.75 124.984131,71.8183594 C125.147705,71.8867188 125.273438,72.0124512 125.361328,72.1955566 C125.449219,72.3786621 125.493164,72.6362305 125.493164,72.9682617 L125.493164,72.9682617 L125.493164,78 L127.705078,78 L127.705078,72.9755859 C127.705078,71.9013672 127.485352,71.125 127.045898,70.6464844 C126.606445,70.1679688 125.983887,69.9287109 125.178223,69.9287109 C124.660645,69.9287109 124.202881,70.0324707 123.804932,70.2399902 C123.406982,70.4475098 123.076172,70.7441406 122.8125,71.1298828 C122.62207,70.7246094 122.349854,70.4230957 121.99585,70.2253418 C121.641846,70.0275879 121.220703,69.9287109 120.732422,69.9287109 C120.249023,69.9287109 119.815674,70.0178223 119.432373,70.1960449 C119.049072,70.3742676 118.725586,70.6293945 118.461914,70.9614258 L118.461914,70.9614258 L118.388672,70.0751953 L116.315918,70.0751953 L116.315918,78 L118.527832,78 Z M131.645508,78.1464844 C132.46582,78.1464844 133.127441,77.8608398 133.630371,77.2895508 C133.674316,77.5727539 133.745117,77.8095703 133.842773,78 L133.842773,78 L136.062012,78 L136.062012,77.8754883 C135.95459,77.6606445 135.874023,77.4140625 135.820312,77.1357422 C135.766602,76.8574219 135.739746,76.4936523 135.739746,76.0444336 L135.739746,76.0444336 L135.739746,72.7265625 C135.739746,72.1210938 135.603027,71.6083984 135.32959,71.1884766 C135.056152,70.7685547 134.677734,70.4536133 134.194336,70.2436523 C133.710938,70.0336914 133.156738,69.9287109 132.531738,69.9287109 C131.85791,69.9287109 131.263428,70.0410156 130.748291,70.265625 C130.233154,70.4902344 129.835205,70.7954102 129.554443,71.1811523 C129.273682,71.5668945 129.133301,71.996582 129.133301,72.4702148 L129.133301,72.4702148 L131.345215,72.4702148 C131.345215,72.1772461 131.439209,71.951416 131.627197,71.7927246 C131.815186,71.6340332 132.077637,71.5546875 132.414551,71.5546875 C132.785645,71.5546875 133.063965,71.6560059 133.249512,71.8586426 C133.435059,72.0612793 133.527832,72.3457031 133.527832,72.7119141 L133.527832,72.7119141 L133.527832,73.1586914 L132.626953,73.1586914 C131.420898,73.1586914 130.507812,73.3845215 129.887695,73.8361816 C129.267578,74.2878418 128.95752,74.9311523 128.95752,75.7661133 C128.95752,76.2202148 129.075928,76.6279297 129.312744,76.9892578 C129.549561,77.3505859 129.873047,77.6337891 130.283203,77.8388672 C130.693359,78.0439453 131.147461,78.1464844 131.645508,78.1464844 Z M132.143555,76.4692383 C131.845703,76.4692383 131.607666,76.3911133 131.429443,76.2348633 C131.251221,76.0786133 131.162109,75.8759766 131.162109,75.6269531 C131.162109,75.2705078 131.287842,74.9812012 131.539307,74.7590332 C131.790771,74.5368652 132.172852,74.4257812 132.685547,74.4257812 L132.685547,74.4257812 L133.527832,74.4257812 L133.527832,75.7514648 C133.415527,75.9516602 133.237305,76.1213379 132.993164,76.260498 C132.749023,76.3996582 132.46582,76.4692383 132.143555,76.4692383 Z M143.671875,78 L143.671875,76.2202148 L139.885254,76.2202148 L143.562012,71.3569336 L143.562012,70.0751953 L137.175293,70.0751953 L137.175293,71.8549805 L140.712891,71.8549805 L137.050781,76.6743164 L137.050781,78 L143.671875,78 Z M148.286133,78.1464844 C149.072266,78.1464844 149.748535,77.9731445 150.314941,77.6264648 C150.881348,77.2797852 151.312256,76.8024902 151.607666,76.1945801 C151.903076,75.5866699 152.050781,74.8945312 152.050781,74.1181641 L152.050781,74.1181641 L152.050781,73.9643555 C152.050781,73.1879883 151.903076,72.4946289 151.607666,71.8842773 C151.312256,71.2739258 150.880127,70.7954102 150.311279,70.4487305 C149.742432,70.1020508 149.0625,69.9287109 148.271484,69.9287109 C147.485352,69.9287109 146.809082,70.1020508 146.242676,70.4487305 C145.67627,70.7954102 145.245361,71.2739258 144.949951,71.8842773 C144.654541,72.4946289 144.506836,73.1879883 144.506836,73.9643555 L144.506836,73.9643555 L144.506836,74.1181641 C144.506836,74.8945312 144.654541,75.5866699 144.949951,76.1945801 C145.245361,76.8024902 145.67749,77.2797852 146.246338,77.6264648 C146.815186,77.9731445 147.495117,78.1464844 148.286133,78.1464844 Z M148.286133,76.3666992 C147.739258,76.3666992 147.341309,76.1628418 147.092285,75.755127 C146.843262,75.3474121 146.71875,74.8017578 146.71875,74.1181641 L146.71875,74.1181641 L146.71875,73.9643555 C146.71875,73.2954102 146.843262,72.7521973 147.092285,72.3347168 C147.341309,71.9172363 147.734375,71.7084961 148.271484,71.7084961 C148.818359,71.7084961 149.216309,71.9160156 149.465332,72.3310547 C149.714355,72.7460938 149.838867,73.2905273 149.838867,73.9643555 L149.838867,73.9643555 L149.838867,74.1181641 C149.838867,74.796875 149.714355,75.3413086 149.465332,75.7514648 C149.216309,76.1616211 148.823242,76.3666992 148.286133,76.3666992 Z M155.463867,78 L155.463867,72.4189453 C155.595703,72.1943359 155.767822,72.0209961 155.980225,71.8989258 C156.192627,71.7768555 156.442871,71.7158203 156.730957,71.7158203 C157.150879,71.7158203 157.460938,71.807373 157.661133,71.9904785 C157.861328,72.173584 157.961426,72.4995117 157.961426,72.9682617 L157.961426,72.9682617 L157.961426,78 L160.17334,78 L160.17334,72.9755859 C160.17334,71.8964844 159.956055,71.1188965 159.521484,70.6428223 C159.086914,70.166748 158.47168,69.9287109 157.675781,69.9287109 C157.207031,69.9287109 156.779785,70.019043 156.394043,70.199707 C156.008301,70.3803711 155.67627,70.644043 155.397949,70.9907227 L155.397949,70.9907227 L155.324707,70.0751953 L153.251953,70.0751953 L153.251953,78 L155.463867,78 Z M163.081055,78.0805664 C163.325195,78.0805664 163.54248,78.0292969 163.73291,77.9267578 C163.92334,77.8242188 164.069824,77.6838379 164.172363,77.5056152 C164.274902,77.3273926 164.326172,77.128418 164.326172,76.9086914 C164.326172,76.6889648 164.274902,76.4899902 164.172363,76.3117676 C164.069824,76.1335449 163.92334,75.9931641 163.73291,75.890625 C163.54248,75.7880859 163.325195,75.7368164 163.081055,75.7368164 C162.836914,75.7368164 162.62085,75.7880859 162.432861,75.890625 C162.244873,75.9931641 162.099609,76.1335449 161.99707,76.3117676 C161.894531,76.4899902 161.843262,76.6889648 161.843262,76.9086914 C161.843262,77.128418 161.894531,77.3273926 161.99707,77.5056152 C162.099609,77.6838379 162.244873,77.8242188 162.432861,77.9267578 C162.62085,78.0292969 162.836914,78.0805664 163.081055,78.0805664 Z M169.482422,78.1464844 C170.092773,78.1464844 170.648193,78.0219727 171.148682,77.7729492 C171.64917,77.5239258 172.045898,77.1772461 172.338867,76.7329102 C172.631836,76.2885742 172.77832,75.7856445 172.77832,75.2241211 L172.77832,75.2241211 L170.705566,75.2241211 C170.700684,75.5756836 170.583496,75.8540039 170.354004,76.059082 C170.124512,76.2641602 169.819336,76.3666992 169.438477,76.3666992 C168.886719,76.3666992 168.511963,76.1689453 168.314209,75.7734375 C168.116455,75.3779297 168.017578,74.8310547 168.017578,74.1328125 L168.017578,74.1328125 L168.017578,73.9423828 C168.017578,73.2587891 168.117676,72.7155762 168.317871,72.3127441 C168.518066,71.9099121 168.886719,71.7084961 169.423828,71.7084961 C169.824219,71.7084961 170.136719,71.8354492 170.361328,72.0893555 C170.585938,72.3432617 170.700684,72.6655273 170.705566,73.0561523 L170.705566,73.0561523 L172.77832,73.0561523 C172.77832,72.4165039 172.63916,71.861084 172.36084,71.3898926 C172.08252,70.9187012 171.693115,70.557373 171.192627,70.3059082 C170.692139,70.0544434 170.117188,69.9287109 169.467773,69.9287109 C168.676758,69.9287109 168.006592,70.1020508 167.457275,70.4487305 C166.907959,70.7954102 166.495361,71.2714844 166.219482,71.8769531 C165.943604,72.4824219 165.805664,73.1708984 165.805664,73.9423828 L165.805664,73.9423828 L165.805664,74.1328125 C165.805664,74.9042969 165.943604,75.5927734 166.219482,76.1982422 C166.495361,76.8037109 166.90918,77.2797852 167.460938,77.6264648 C168.012695,77.9731445 168.686523,78.1464844 169.482422,78.1464844 Z M177.407227,78.1464844 C178.193359,78.1464844 178.869629,77.9731445 179.436035,77.6264648 C180.002441,77.2797852 180.43335,76.8024902 180.72876,76.1945801 C181.02417,75.5866699 181.171875,74.8945312 181.171875,74.1181641 L181.171875,74.1181641 L181.171875,73.9643555 C181.171875,73.1879883 181.02417,72.4946289 180.72876,71.8842773 C180.43335,71.2739258 180.001221,70.7954102 179.432373,70.4487305 C178.863525,70.1020508 178.183594,69.9287109 177.392578,69.9287109 C176.606445,69.9287109 175.930176,70.1020508 175.36377,70.4487305 C174.797363,70.7954102 174.366455,71.2739258 174.071045,71.8842773 C173.775635,72.4946289 173.62793,73.1879883 173.62793,73.9643555 L173.62793,73.9643555 L173.62793,74.1181641 C173.62793,74.8945312 173.775635,75.5866699 174.071045,76.1945801 C174.366455,76.8024902 174.798584,77.2797852 175.367432,77.6264648 C175.936279,77.9731445 176.616211,78.1464844 177.407227,78.1464844 Z M177.407227,76.3666992 C176.860352,76.3666992 176.462402,76.1628418 176.213379,75.755127 C175.964355,75.3474121 175.839844,74.8017578 175.839844,74.1181641 L175.839844,74.1181641 L175.839844,73.9643555 C175.839844,73.2954102 175.964355,72.7521973 176.213379,72.3347168 C176.462402,71.9172363 176.855469,71.7084961 177.392578,71.7084961 C177.939453,71.7084961 178.337402,71.9160156 178.586426,72.3310547 C178.835449,72.7460938 178.959961,73.2905273 178.959961,73.9643555 L178.959961,73.9643555 L178.959961,74.1181641 C178.959961,74.796875 178.835449,75.3413086 178.586426,75.7514648 C178.337402,76.1616211 177.944336,76.3666992 177.407227,76.3666992 Z M184.63623,78 L184.63623,72.4335938 C184.763184,72.2041016 184.93042,72.0270996 185.137939,71.9025879 C185.345459,71.7780762 185.59082,71.7158203 185.874023,71.7158203 C186.12793,71.7158203 186.33667,71.7524414 186.500244,71.8256836 C186.663818,71.8989258 186.789551,72.0283203 186.877441,72.2138672 C186.965332,72.3994141 187.009277,72.6582031 187.009277,72.9902344 L187.009277,72.9902344 L187.009277,78 L189.221191,78 L189.221191,72.7119141 C189.221191,72.6337891 189.21875,72.5776367 189.213867,72.543457 C189.335938,72.2797852 189.501953,72.0759277 189.711914,71.9318848 C189.921875,71.7878418 190.175781,71.7158203 190.473633,71.7158203 C190.722656,71.7158203 190.928955,71.75 191.092529,71.8183594 C191.256104,71.8867188 191.381836,72.0124512 191.469727,72.1955566 C191.557617,72.3786621 191.601562,72.6362305 191.601562,72.9682617 L191.601562,72.9682617 L191.601562,78 L193.813477,78 L193.813477,72.9755859 C193.813477,71.9013672 193.59375,71.125 193.154297,70.6464844 C192.714844,70.1679688 192.092285,69.9287109 191.286621,69.9287109 C190.769043,69.9287109 190.311279,70.0324707 189.91333,70.2399902 C189.515381,70.4475098 189.18457,70.7441406 188.920898,71.1298828 C188.730469,70.7246094 188.458252,70.4230957 188.104248,70.2253418 C187.750244,70.0275879 187.329102,69.9287109 186.84082,69.9287109 C186.357422,69.9287109 185.924072,70.0178223 185.540771,70.1960449 C185.157471,70.3742676 184.833984,70.6293945 184.570312,70.9614258 L184.570312,70.9614258 L184.49707,70.0751953 L182.424316,70.0751953 L182.424316,78 L184.63623,78 Z"/>
    <g transform="translate(26 120)">
      <g transform="translate(0 44)">
        <g transform="translate(218)">
          <circle cx="15" cy="15" r="15" fill="#F5F7FA"/>
          <path fill="#434D5A" fill-rule="nonzero" stroke="#434D5A" stroke-width=".2" d="M14.4454148,8.54135472 C14.7878605,8.35297895 15.2124086,8.35302869 15.5547325,8.54147456 C15.7355749,8.64102648 15.8785532,8.78474887 15.9724838,8.95270342 L15.9724838,8.95270342 L16.0955438,13.9000132 L20.5858798,13.900619 C20.8681362,13.907016 21.122509,14.0327349 21.3061471,14.2329275 C21.4875547,14.4306883 21.5997449,14.7012712 21.6,14.9995036 C21.6002538,15.2977396 21.4885228,15.5684987 21.3074507,15.7665423 C21.1241516,15.9670217 20.8699901,16.0931371 20.5852981,16.1 L20.5852981,16.1 L16.0999865,16.0990218 L16.099381,20.5858798 C16.092984,20.8681362 15.9672651,21.122509 15.7670725,21.3061471 C15.5693117,21.4875547 15.2987288,21.5997449 15.0004964,21.6 C14.7022604,21.6002538 14.4315013,21.4885228 14.2334577,21.3074507 C14.0329783,21.1241516 13.9068629,20.8699901 13.9,20.5853199 L13.9,20.5853199 L13.9,16.0980285 L9.4409087,16.0992987 C8.75659248,15.8678184 8.63421836,15.7234007 8.54135472,15.5545852 C8.35297895,15.2121395 8.35302869,14.7875914 8.54147456,14.4452675 C8.64102466,14.2644284 8.7847436,14.121452 8.95269419,14.0275214 L8.95269419,14.0275214 L13.9009937,13.9034756 L13.900705,9.44089795 C14.1321831,8.7565912 14.2766002,8.63421787 14.4454148,8.54135472 Z"/>
        </g>
        <circle cx="15" cy="15" r="15" fill="#F5F7FA"/>
        <path fill="#434D5A" fill-rule="nonzero" stroke="#434D5A" stroke-width=".2" d="M20.5858798,13.900619 C20.8681362,13.907016 21.122509,14.0327349 21.3061471,14.2329275 C21.4875547,14.4306883 21.5997449,14.7012712 21.6,14.9995036 C21.6002538,15.2977396 21.4885228,15.5684987 21.3074507,15.7665423 C21.1241516,15.9670217 20.8699901,16.0931371 20.5853187,16.1 L20.5853187,16.1 L15.9439684,16.0999443 L14.0718559,16.0988338 L9.44089966,16.0992956 C8.7565914,15.8678171 8.63421795,15.7234 8.54135472,15.5545852 C8.35297895,15.2121395 8.35302869,14.7875914 8.54147456,14.4452675 C8.64102743,14.2644233 8.78475161,14.1214441 8.95270823,14.0275135 L8.95270823,14.0275135 L14.0551542,13.9011105 L15.9274081,13.9 Z"/>
      </g>
      <g fill-rule="nonzero" transform="translate(95)">
        <use fill="#000" xlink:href="#amount-empty-c"/>
        <use fill="#DFDFDF" xlink:href="#amount-empty-c"/>
        <g opacity=".249">
          <use fill="#000" xlink:href="#amount-empty-d"/>
          <use fill="#262E40" xlink:href="#amount-empty-d"/>
        </g>
        <path fill="#434D5A" d="M3.9375,112.242188 L3.9375,111.099609 C4.65234375,111.021484 5.21386719,110.780273 5.62207031,110.375977 C6.03027344,109.97168 6.234375,109.431641 6.234375,108.755859 C6.234375,108.287109 6.13867188,107.889648 5.94726562,107.563477 C5.75585938,107.237305 5.484375,106.962891 5.1328125,106.740234 C4.78125,106.517578 4.33007812,106.306641 3.77929688,106.107422 C3.41992188,105.974609 3.13867188,105.842773 2.93554688,105.711914 C2.73242188,105.581055 2.58691406,105.436523 2.49902344,105.27832 C2.41113281,105.120117 2.3671875,104.929688 2.3671875,104.707031 C2.3671875,104.351562 2.46484375,104.069336 2.66015625,103.860352 C2.85546875,103.651367 3.1484375,103.546875 3.5390625,103.546875 C3.91796875,103.546875 4.21386719,103.685547 4.42675781,103.962891 C4.63964844,104.240234 4.74609375,104.623047 4.74609375,105.111328 L4.74609375,105.111328 L6.20507812,105.111328 C6.20507812,104.330078 6.015625,103.703125 5.63671875,103.230469 C5.2578125,102.757812 4.73242188,102.474609 4.06054688,102.380859 L4.06054688,102.380859 L4.06054688,101.091797 L3.12304688,101.091797 L3.12304688,102.369141 C2.67773438,102.419922 2.2890625,102.546875 1.95703125,102.75 C1.625,102.953125 1.36816406,103.222656 1.18652344,103.558594 C1.00488281,103.894531 0.9140625,104.279297 0.9140625,104.712891 C0.9140625,105.185547 1.01269531,105.585938 1.20996094,105.914062 C1.40722656,106.242188 1.68359375,106.517578 2.0390625,106.740234 C2.39453125,106.962891 2.84570312,107.167969 3.39257812,107.355469 C3.89648438,107.53125 4.25390625,107.727539 4.46484375,107.944336 C4.67578125,108.161133 4.78125,108.435547 4.78125,108.767578 C4.78125,109.123047 4.66503906,109.404297 4.43261719,109.611328 C4.20019531,109.818359 3.87109375,109.921875 3.4453125,109.921875 C3.05078125,109.921875 2.71875,109.803711 2.44921875,109.567383 C2.1796875,109.331055 2.04492188,108.939453 2.04492188,108.392578 L2.04492188,108.392578 L0.5859375,108.392578 C0.5859375,108.974609 0.696289062,109.459961 0.916992188,109.848633 C1.13769531,110.237305 1.4296875,110.53125 1.79296875,110.730469 C2.15625,110.929688 2.56054688,111.052734 3.00585938,111.099609 L3.00585938,111.099609 L3.00585938,112.242188 L3.9375,112.242188 Z M11.3554688,111 L11.3554688,102.439453 L11.1738281,102.439453 L7.81640625,103.669922 L7.81640625,104.888672 L9.89648438,104.191406 L9.89648438,111 L11.3554688,111 Z M20.203125,107.953125 L20.203125,106.78125 L17.1035156,106.78125 L17.1035156,107.953125 L20.203125,107.953125 Z M27.6152344,112.242188 L27.6152344,111.099609 C28.3300781,111.021484 28.8916016,110.780273 29.2998047,110.375977 C29.7080078,109.97168 29.9121094,109.431641 29.9121094,108.755859 C29.9121094,108.287109 29.8164062,107.889648 29.625,107.563477 C29.4335938,107.237305 29.1621094,106.962891 28.8105469,106.740234 C28.4589844,106.517578 28.0078125,106.306641 27.4570312,106.107422 C27.0976562,105.974609 26.8164062,105.842773 26.6132812,105.711914 C26.4101562,105.581055 26.2646484,105.436523 26.1767578,105.27832 C26.0888672,105.120117 26.0449219,104.929688 26.0449219,104.707031 C26.0449219,104.351562 26.1425781,104.069336 26.3378906,103.860352 C26.5332031,103.651367 26.8261719,103.546875 27.2167969,103.546875 C27.5957031,103.546875 27.8916016,103.685547 28.1044922,103.962891 C28.3173828,104.240234 28.4238281,104.623047 28.4238281,105.111328 L28.4238281,105.111328 L29.8828125,105.111328 C29.8828125,104.330078 29.6933594,103.703125 29.3144531,103.230469 C28.9355469,102.757812 28.4101562,102.474609 27.7382812,102.380859 L27.7382812,102.380859 L27.7382812,101.091797 L26.8007812,101.091797 L26.8007812,102.369141 C26.3554688,102.419922 25.9667969,102.546875 25.6347656,102.75 C25.3027344,102.953125 25.0458984,103.222656 24.8642578,103.558594 C24.6826172,103.894531 24.5917969,104.279297 24.5917969,104.712891 C24.5917969,105.185547 24.6904297,105.585938 24.8876953,105.914062 C25.0849609,106.242188 25.3613281,106.517578 25.7167969,106.740234 C26.0722656,106.962891 26.5234375,107.167969 27.0703125,107.355469 C27.5742188,107.53125 27.9316406,107.727539 28.1425781,107.944336 C28.3535156,108.161133 28.4589844,108.435547 28.4589844,108.767578 C28.4589844,109.123047 28.3427734,109.404297 28.1103516,109.611328 C27.8779297,109.818359 27.5488281,109.921875 27.1230469,109.921875 C26.7285156,109.921875 26.3964844,109.803711 26.1269531,109.567383 C25.8574219,109.331055 25.7226562,108.939453 25.7226562,108.392578 L25.7226562,108.392578 L24.2636719,108.392578 C24.2636719,108.974609 24.3740234,109.459961 24.5947266,109.848633 C24.8154297,110.237305 25.1074219,110.53125 25.4707031,110.730469 C25.8339844,110.929688 26.2382812,111.052734 26.6835938,111.099609 L26.6835938,111.099609 L26.6835938,112.242188 L27.6152344,112.242188 Z M36.8964844,111 L36.8964844,109.828125 L32.9707031,109.828125 L34.8222656,107.847656 C35.3925781,107.25 35.8261719,106.702148 36.1230469,106.204102 C36.4199219,105.706055 36.5683594,105.207031 36.5683594,104.707031 C36.5683594,104.226562 36.4628906,103.80957 36.2519531,103.456055 C36.0410156,103.102539 35.734375,102.830078 35.3320312,102.638672 C34.9296875,102.447266 34.4453125,102.351562 33.8789062,102.351562 C33.28125,102.351562 32.7636719,102.472656 32.3261719,102.714844 C31.8886719,102.957031 31.5546875,103.285156 31.3242188,103.699219 C31.09375,104.113281 30.9785156,104.572266 30.9785156,105.076172 L30.9785156,105.076172 L32.4375,105.076172 C32.4375,104.607422 32.5595703,104.231445 32.8037109,103.948242 C33.0478516,103.665039 33.4003906,103.523438 33.8613281,103.523438 C34.2519531,103.523438 34.5576172,103.646484 34.7783203,103.892578 C34.9990234,104.138672 35.109375,104.460938 35.109375,104.859375 C35.109375,105.054688 35.0732422,105.25 35.0009766,105.445312 C34.9287109,105.640625 34.8066406,105.860352 34.6347656,106.104492 C34.4628906,106.348633 34.2246094,106.640625 33.9199219,106.980469 L33.9199219,106.980469 L31.1425781,109.992188 L31.1425781,111 L36.8964844,111 Z M40.7636719,111.117188 C42.6269531,111.117188 43.5585938,109.882812 43.5585938,107.414062 L43.5585938,107.414062 L43.5585938,106.019531 C43.5585938,104.734375 43.3134766,103.801758 42.8232422,103.22168 C42.3330078,102.641602 41.6425781,102.351562 40.7519531,102.351562 C39.8613281,102.351562 39.171875,102.641602 38.6835938,103.22168 C38.1953125,103.801758 37.9511719,104.734375 37.9511719,106.019531 L37.9511719,106.019531 L37.9511719,107.414062 C37.9511719,108.703125 38.1982422,109.642578 38.6923828,110.232422 C39.1865234,110.822266 39.8769531,111.117188 40.7636719,111.117188 Z M40.7636719,109.945312 C40.3183594,109.945312 39.9814453,109.762695 39.7529297,109.397461 C39.5244141,109.032227 39.4101562,108.439453 39.4101562,107.619141 L39.4101562,107.619141 L39.4101562,105.802734 C39.4101562,104.982422 39.5224609,104.397461 39.7470703,104.047852 C39.9716797,103.698242 40.3066406,103.523438 40.7519531,103.523438 C41.2050781,103.523438 41.5429688,103.698242 41.765625,104.047852 C41.9882812,104.397461 42.0996094,104.982422 42.0996094,105.802734 L42.0996094,105.802734 L42.0996094,107.619141 C42.0996094,108.447266 41.9892578,109.041992 41.7685547,109.40332 C41.5478516,109.764648 41.2128906,109.945312 40.7636719,109.945312 Z M47.5957031,111.117188 C49.4589844,111.117188 50.390625,109.882812 50.390625,107.414062 L50.390625,107.414062 L50.390625,106.019531 C50.390625,104.734375 50.1455078,103.801758 49.6552734,103.22168 C49.1650391,102.641602 48.4746094,102.351562 47.5839844,102.351562 C46.6933594,102.351562 46.0039062,102.641602 45.515625,103.22168 C45.0273438,103.801758 44.7832031,104.734375 44.7832031,106.019531 L44.7832031,106.019531 L44.7832031,107.414062 C44.7832031,108.703125 45.0302734,109.642578 45.5244141,110.232422 C46.0185547,110.822266 46.7089844,111.117188 47.5957031,111.117188 Z M47.5957031,109.945312 C47.1503906,109.945312 46.8134766,109.762695 46.5849609,109.397461 C46.3564453,109.032227 46.2421875,108.439453 46.2421875,107.619141 L46.2421875,107.619141 L46.2421875,105.802734 C46.2421875,104.982422 46.3544922,104.397461 46.5791016,104.047852 C46.8037109,103.698242 47.1386719,103.523438 47.5839844,103.523438 C48.0371094,103.523438 48.375,103.698242 48.5976562,104.047852 C48.8203125,104.397461 48.9316406,104.982422 48.9316406,105.802734 L48.9316406,105.802734 L48.9316406,107.619141 C48.9316406,108.447266 48.8212891,109.041992 48.6005859,109.40332 C48.3798828,109.764648 48.0449219,109.945312 47.5957031,109.945312 Z M54.4277344,111.117188 C56.2910156,111.117188 57.2226562,109.882812 57.2226562,107.414062 L57.2226562,107.414062 L57.2226562,106.019531 C57.2226562,104.734375 56.9775391,103.801758 56.4873047,103.22168 C55.9970703,102.641602 55.3066406,102.351562 54.4160156,102.351562 C53.5253906,102.351562 52.8359375,102.641602 52.3476562,103.22168 C51.859375,103.801758 51.6152344,104.734375 51.6152344,106.019531 L51.6152344,106.019531 L51.6152344,107.414062 C51.6152344,108.703125 51.8623047,109.642578 52.3564453,110.232422 C52.8505859,110.822266 53.5410156,111.117188 54.4277344,111.117188 Z M54.4277344,109.945312 C53.9824219,109.945312 53.6455078,109.762695 53.4169922,109.397461 C53.1884766,109.032227 53.0742188,108.439453 53.0742188,107.619141 L53.0742188,107.619141 L53.0742188,105.802734 C53.0742188,104.982422 53.1865234,104.397461 53.4111328,104.047852 C53.6357422,103.698242 53.9707031,103.523438 54.4160156,103.523438 C54.8691406,103.523438 55.2070312,103.698242 55.4296875,104.047852 C55.6523438,104.397461 55.7636719,104.982422 55.7636719,105.802734 L55.7636719,105.802734 L55.7636719,107.619141 C55.7636719,108.447266 55.6533203,109.041992 55.4326172,109.40332 C55.2119141,109.764648 54.8769531,109.945312 54.4277344,109.945312 Z" opacity=".75"/>
      </g>
    </g>
    <g fill-rule="nonzero" transform="translate(14 288)">
      <rect width="272" height="60" fill="#1A3B8B" rx="8"/>
      <g transform="translate(75.06 19)">
        <g fill="#FFF" transform="translate(62.026)">
          <path d="M66.356,5.52 L62.904,5.52 L60.904,13.948 L60.624,15.105 C60.431,15.158 60.239,15.21 60.046,15.245 C59.6836737,15.3160558 59.3152259,15.3512258 58.946,15.35 C58.5858513,15.362165 58.2273293,15.2963279 57.895,15.157 C57.6542815,15.0476339 57.4613661,14.8547185 57.352,14.614 C57.2449169,14.3533357 57.2027084,14.0705734 57.229,13.79 C57.256098,13.446689 57.3146774,13.1065932 57.404,12.774 L58.455,8.393 L59.137,5.485 L55.615,5.485 L54.02,12.214 C53.8370021,12.97223 53.725514,13.7459508 53.687,14.525 C53.6469644,15.1903139 53.7609178,15.8558975 54.02,16.47 C54.2862419,17.043948 54.7363291,17.5126862 55.299,17.802 C56.0926457,18.1724102 56.9654908,18.3410709 57.84,18.293 C58.5049838,18.299225 59.1687359,18.234526 59.82,18.1 C59.838,18.1 59.873,18.082 59.89,18.082 C59.7595496,18.7374798 59.4215432,19.3335493 58.926,19.782 C58.2891624,20.2655398 57.4987741,20.5021234 56.701,20.448 C56.3144717,20.4530346 55.9280965,20.4296382 55.545,20.378 L54.862,23.234 C55.3678884,23.2925769 55.8767316,23.3219589 56.386,23.322 C57.3148794,23.3349817 58.240963,23.2171594 59.137,22.972 C59.8808237,22.7526572 60.5717355,22.3830364 61.167,21.886 C61.7459043,21.3691145 62.2266297,20.7518618 62.586,20.064 C63.0026443,19.2372941 63.3089291,18.3594571 63.497,17.453 L65.883,7.425 L66.356,5.52 Z M51.9,12.725 C51.6879515,13.5899697 51.6227103,14.4844153 51.707,15.371 C51.8219319,16.3783393 52.0816072,17.3638256 52.478,18.297 L49.149,18.297 C48.9280058,17.9153152 48.7683906,17.5012606 48.676,17.07 C48.2382843,17.4248839 47.7549827,17.7195062 47.239,17.946 C46.6797877,18.1845777 46.0769285,18.3037872 45.469,18.296 C44.787309,18.3133597 44.1104913,18.1766288 43.489,17.896 C42.9605795,17.6444977 42.4985333,17.2725317 42.14,16.81 C41.7822988,16.3355835 41.5259893,15.7926704 41.387,15.215 C41.2283901,14.5729238 41.15178,13.9133371 41.159,13.252 C41.1554542,12.2210531 41.3457595,11.198629 41.72,10.238 C42.0852591,9.32112487 42.6202904,8.48142769 43.297,7.763 C44.5590671,6.34640861 46.3588948,5.52616045 48.256,5.503 L53.6,5.503 L51.9,12.725 Z M49.467,8.425 C47.855,8.425 47.557,8.425 46.891,8.758 C46.4236497,9.01463142 46.0165548,9.36819714 45.697,9.795 C45.3467701,10.2363879 45.0742123,10.7341609 44.891,11.267 C44.6951074,11.8245989 44.5937127,12.4109982 44.591,13.002 C44.5629548,13.6135519 44.6895207,14.2223063 44.959,14.772 C45.2524351,15.2325716 45.7837071,15.4844109 46.326,15.42 C46.6592239,15.4252343 46.9891469,15.3533631 47.29,15.21 C47.6317428,15.030918 47.939949,14.7940965 48.201,14.51 C48.2363333,14.1246667 48.289,13.7216667 48.359,13.301 C48.429,12.88 48.517,12.477 48.587,12.127 L49.467,8.425 Z M40.215,10.58 C40.2248198,11.6456117 40.0345248,12.7035978 39.654,13.699 C39.3050959,14.6084165 38.7746518,15.4372567 38.095,16.135 C37.4186328,16.8246778 36.6074411,17.3676282 35.712,17.73 C34.7558211,18.1213632 33.7311243,18.317871 32.698,18.308 C32.1634409,18.3041478 31.6300564,18.2573303 31.103,18.168 L30.052,22.391 L26.598,22.391 L30.611,5.537 L35.219,5.537 C35.985967,5.51802431 36.7488717,5.65407509 37.462,5.937 C38.6535679,6.40871106 39.5594211,7.40577741 39.915,8.637 C40.1245169,9.2642864 40.2253007,9.9227631 40.213,10.584 L40.215,10.58 Z M31.752,15.364 C32.6376671,15.5398729 33.5552494,15.4568982 34.395,15.125 C34.8832263,14.9033076 35.3190843,14.5809295 35.674,14.179 C36.0333234,13.7474512 36.3124012,13.2550007 36.498,12.725 C36.7009679,12.1208827 36.8023432,11.4872871 36.798,10.85 C36.82076,10.2527609 36.6685225,9.66188512 36.36,9.15 C36.0159958,8.64492006 35.4243529,8.36710845 34.816,8.425 L33.449,8.425 L31.752,15.364 Z M24.498,15.364 C24.1378513,15.376165 23.7793293,15.3103279 23.447,15.171 C23.2062815,15.0616339 23.0133661,14.8687185 22.904,14.628 C22.7969169,14.3673357 22.7547084,14.0845734 22.781,13.804 C22.808098,13.460689 22.8666774,13.1205932 22.956,12.788 L24.007,8.407 L27.932,8.407 L28.65,5.498 L24.706,5.498 L25.617,1.825 L21.937,2.403 L19.607,12.251 C19.4238726,13.0098824 19.3123836,13.784279 19.274,14.564 C19.2339644,15.2293139 19.3479178,15.8948975 19.607,16.509 C19.8732419,17.082948 20.3233291,17.5516862 20.886,17.841 C21.6796457,18.2114102 22.5524908,18.3800709 23.427,18.332 C24.0919835,18.3382174 24.7557347,18.2735184 25.407,18.139 C25.46,18.121 25.547,18.104 25.6,18.086 L26.318,15.086 C26.0847626,15.1669868 25.8443446,15.2255845 25.6,15.261 C25.2361017,15.333055 24.8659623,15.3688965 24.495,15.368 L24.498,15.364 Z"/>
          <polygon points="15.718 5.52 12.669 18.311 16.12 18.311 19.151 5.52"/>
          <polygon points="19.52 4.048 20.046 1.825 16.594 1.825 16.068 4.05"/>
          <path d="M8.077,5.537 C8.74129589,5.52312562 9.40010782,5.65987953 10.004,5.937 C10.5285962,6.18693404 10.9897931,6.55240437 11.353,7.006 C11.7123474,7.47818681 11.9802805,8.01337467 12.143,8.584 C12.3233174,9.21640167 12.411888,9.87141992 12.406,10.529 C12.4119922,11.5694141 12.2079171,12.6003334 11.806,13.56 C11.4280519,14.4823565 10.881369,15.3261203 10.194,16.048 C8.7681575,17.5139912 6.80700564,18.336433 4.762,18.3260981 C4.622,18.3260981 4.377,18.3260981 4.026,18.308 C3.62687107,18.3040757 3.228659,18.2689689 2.835,18.203 C2.379,18.133 1.906,18.045 1.416,17.923 C0.926438727,17.8040819 0.450802011,17.6338047 -0.003,17.415 L4.012,0.561 L7.604,0 L6.185,5.975 C6.47704189,5.83898999 6.78232049,5.73343263 7.096,5.66 C7.4155327,5.57278835 7.74582727,5.53137527 8.077,5.537 Z M5.064,15.455 C5.5990432,15.4637293 6.12620997,15.3253653 6.588,15.055 C7.06739876,14.7893773 7.49004327,14.4323038 7.832,14.004 C8.18738558,13.5568272 8.4658578,13.0536171 8.656,12.515 C8.85189261,11.9574011 8.95328729,11.3710018 8.956,10.78 C8.98662609,10.1794793 8.85976738,9.5813819 8.588,9.045 C8.26044385,8.59936038 7.71800136,8.36502828 7.169,8.432 C6.90166202,8.43100444 6.63536212,8.46530064 6.377,8.534 C6.02900387,8.61166344 5.70819799,8.78121746 5.448,9.025 L3.942,15.384 C4.17901847,15.4298504 4.41892417,15.4592539 4.66,15.472 C4.79398053,15.4553593 4.92909511,15.4496737 5.064,15.455 L5.064,15.455 Z"/>
        </g>
        <g transform="translate(0 .897)">
          <use fill="#000" xlink:href="#amount-empty-e"/>
          <use fill="#97AAFF" xlink:href="#amount-empty-e"/>
        </g>
      </g>
    </g>
    <use fill="#000" filter="url(#amount-empty-f)" xlink:href="#amount-empty-g"/>
    <use fill="#FFF" xlink:href="#amount-empty-g"/>
    <g transform="translate(241 14)">
      <g transform="translate(27)">
        <circle cx="10" cy="10" r="10" fill="#C9D2E6" opacity=".2"/>
        <path fill="#9BA3AE" fill-rule="nonzero" d="M10.9788242,9.99524148 L13.3763494,12.3887321 C13.6386865,12.6569753 13.636114,13.0859697 13.3705788,13.3510581 C13.1050436,13.6161464 12.675326,13.6187146 12.4066307,13.3568189 L10.0095021,10.964912 L7.61039047,13.3584027 C7.43858394,13.5381037 7.18274819,13.6107901 6.94190762,13.5483277 C6.70106705,13.4858653 6.51301901,13.2980569 6.45054984,13.0575961 C6.38808067,12.8171353 6.46099424,12.5617598 6.64106844,12.3903159 L9.03700721,9.99524148 L6.63948199,7.60175082 C6.4637852,7.42910512 6.39437013,7.17563144 6.45764527,6.93776212 C6.52092041,6.6998928 6.7071583,6.51419616 6.94550599,6.45131923 C7.18385369,6.3884423 7.43766932,6.45805133 7.61039047,6.63366403 L10.0095021,9.02755063 L12.4070274,6.63247619 C12.6763469,6.37473293 13.1026026,6.37905257 13.3666257,6.64220069 C13.6306488,6.9053488 13.6356728,7.33087954 13.3779358,7.60016704 L10.9788242,9.99524148 Z"/>
      </g>
      <circle cx="10" cy="10" r="10" fill="#C9D2E6" opacity=".2"/>
      <path fill="#9BA3AE" fill-rule="nonzero" d="M7.60615758,13.3552246 C7.43435105,13.5349256 7.1785153,13.607612 6.93767473,13.5451496 C6.69683416,13.4826872 6.50878612,13.2948788 6.44631695,13.0544179 C6.38384779,12.8139571 6.45676135,12.5585816 6.63683555,12.3871378 L12.4027945,6.62929804 C12.672114,6.37155478 13.0983697,6.37587442 13.3623928,6.63902254 C13.6264159,6.90217065 13.6314399,7.32770138 13.3737029,7.59698889 L7.60615758,13.3552246 Z" transform="rotate(45 9.994 10.003)"/>
    </g>
    <g transform="translate(17 15)">
      <g fill-rule="nonzero">
        <use fill="#000" xlink:href="#amount-empty-h"/>
        <use fill="#9BA3AE" xlink:href="#amount-empty-h"/>
      </g>
      <polyline stroke="#9BA3AE" stroke-linecap="round" stroke-linejoin="round" stroke-width="2" points=".088 5.732 3.313 8.778 .088 11.824" transform="rotate(180 1.7 8.778)"/>
    </g>
    <path fill="#1A3B8B" fill-rule="nonzero" d="M148.465414,30.8860375 C149.047527,30.8860375 149.596651,30.7428074 150.112409,30.4557736 C150.627978,30.1689311 151.073423,29.7847533 151.4478,29.303814 C151.821988,28.8226835 152.117192,28.2784476 152.333599,27.6709151 C152.549629,27.0633826 152.658022,26.4304168 152.658022,25.7720175 C152.658022,24.9619742 152.524746,24.3290084 152.258761,23.8735024 C151.9924,23.417614 151.439128,23.2093663 150.724117,23.2093663 C150.490933,23.2093663 150.249831,23.2321225 149.875454,23.3164542 C149.501077,23.4011684 149.178163,23.5763335 148.878812,23.8461568 L147.251611,30.7908057 C147.732872,30.8762848 147.899513,30.8860375 148.016199,30.8860375 L148.465414,30.8860375 L148.465414,30.8860375 Z M151.709638,20.0506564 C152.508346,20.0506564 153.198474,20.1942689 153.781153,20.4811114 C154.363265,20.7681452 154.845658,21.1561475 155.228517,21.6455009 C155.611,22.1352367 155.893762,22.7087305 156.076992,23.3671298 C156.259845,24.0253378 156.351648,24.7342213 156.351648,25.4935891 C156.351648,26.6581697 156.139577,27.7594538 155.715245,28.7974414 C155.290914,29.8354289 154.712759,30.7384092 153.980783,31.5063822 C153.248429,32.2745465 152.383554,32.8820791 151.385215,33.3289797 C150.387065,33.7760716 149.305406,34 148.140992,34 C147.991316,34 147.72929,33.9956018 147.354913,33.9873789 C146.980536,33.9785824 146.551869,33.9407192 146.069477,33.8734068 C145.586896,33.805712 145.075285,33.7045521 144.534833,33.5695449 C143.993814,33.434729 143.482392,33.2492374 143,33.0126879 L147.3174,14.6075325 L151.185774,14 L149.65735,20.5229904 C149.989879,20.3711551 150.303556,20.2619637 150.63665,20.1772495 C150.969178,20.0929179 151.326778,20.0506564 151.709638,20.0506564 L151.709638,20.0506564 Z"/>
  </g>
</svg>
