<svg xmlns="http://www.w3.org/2000/svg" xmlns:xlink="http://www.w3.org/1999/xlink" width="336" height="402" viewBox="0 0 336 402">
  <defs>
    <rect id="amount-awaiting-b" width="300" height="366" x="0" y="0" rx="8"/>
    <filter id="amount-awaiting-a" width="118%" height="114.8%" x="-9%" y="-7.4%" filterUnits="objectBoundingBox">
      <feMorphology in="SourceAlpha" operator="dilate" radius="2" result="shadowSpreadOuter1"/>
      <feOffset in="shadowSpreadOuter1" result="shadowOffsetOuter1"/>
      <feGaussianBlur in="shadowOffsetOuter1" result="shadowBlurOuter1" stdDeviation="7"/>
      <feColorMatrix in="shadowBlurOuter1" values="0 0 0 0 0   0 0 0 0 0   0 0 0 0 0  0 0 0 0.1 0"/>
    </filter>
    <path id="amount-awaiting-c" d="M14.6640625,67 L14.6640625,35.6972656 L13.9980469,35.6972656 L0.849609375,40.359375 L0.849609375,45.5800781 L8.19726562,43.3671875 L8.19726562,67 L14.6640625,67 Z M39.9726562,67 L39.9726562,35.6972656 L39.3066406,35.6972656 L26.1582031,40.359375 L26.1582031,45.5800781 L33.5058594,43.3671875 L33.5058594,67 L39.9726562,67 Z M59.3730469,67 L71.3613281,39.328125 L71.3613281,35.71875 L49.1464844,35.71875 L49.1464844,40.9394531 L64.5292969,40.9394531 L52.5410156,67 L59.3730469,67 Z M79.4824219,67.2363281 C80.1985677,67.2363281 80.8359375,67.0859375 81.3945312,66.7851562 C81.953125,66.484375 82.3828125,66.0725911 82.6835938,65.5498047 C82.984375,65.0270182 83.1347656,64.4433594 83.1347656,63.7988281 C83.1347656,63.1542969 82.984375,62.570638 82.6835938,62.0478516 C82.3828125,61.5250651 81.953125,61.1132812 81.3945312,60.8125 C80.8359375,60.5117188 80.1985677,60.3613281 79.4824219,60.3613281 C78.766276,60.3613281 78.132487,60.5117188 77.5810547,60.8125 C77.0296224,61.1132812 76.6035156,61.5250651 76.3027344,62.0478516 C76.0019531,62.570638 75.8515625,63.1542969 75.8515625,63.7988281 C75.8515625,64.4433594 76.0019531,65.0270182 76.3027344,65.5498047 C76.6035156,66.0725911 77.0296224,66.484375 77.5810547,66.7851562 C78.132487,67.0859375 78.766276,67.2363281 79.4824219,67.2363281 Z M109.732422,67 L109.732422,61.7792969 L96.5839844,61.7792969 L101.740234,56.3867188 C103.344401,54.7252604 104.644206,53.2607422 105.639648,51.9931641 C106.635091,50.7255859 107.408529,49.4544271 107.959961,48.1796875 C108.511393,46.9049479 108.787109,45.5872396 108.787109,44.2265625 C108.787109,42.3502604 108.393229,40.742513 107.605469,39.4033203 C106.817708,38.0641276 105.657552,37.0400391 104.125,36.3310547 C102.592448,35.6220703 100.723307,35.2675781 98.5175781,35.2675781 C96.3548177,35.2675781 94.4427083,35.7294922 92.78125,36.6533203 C91.1197917,37.5771484 89.8378906,38.8304036 88.9355469,40.4130859 C88.0332031,41.9957682 87.5820312,43.7395833 87.5820312,45.6445312 L87.5820312,45.6445312 L94.0703125,45.6445312 C94.0703125,44.65625 94.2421875,43.7718099 94.5859375,42.9912109 C94.9296875,42.210612 95.4274089,41.5983073 96.0791016,41.1542969 C96.7307943,40.7102865 97.500651,40.4882812 98.3886719,40.4882812 C99.6347656,40.4882812 100.597982,40.8714193 101.27832,41.6376953 C101.958659,42.4039714 102.298828,43.4746094 102.298828,44.8496094 C102.298828,45.7376302 101.994466,46.7294922 101.385742,47.8251953 C100.777018,48.9208984 99.7565104,50.2636719 98.3242188,51.8535156 L98.3242188,51.8535156 L88.2050781,62.5527344 L88.2050781,67 L109.732422,67 Z M123.460938,67.4296875 C125.609375,67.4296875 127.532227,67.0644531 129.229492,66.3339844 C130.926758,65.6035156 132.26237,64.5436198 133.236328,63.1542969 C134.210286,61.764974 134.697266,60.1178385 134.697266,58.2128906 C134.697266,56.4654948 134.253255,54.96875 133.365234,53.7226562 C132.477214,52.4765625 131.18099,51.5455729 129.476562,50.9296875 C130.966146,50.2421875 132.129883,49.296875 132.967773,48.09375 C133.805664,46.890625 134.224609,45.594401 134.224609,44.2050781 C134.224609,42.2858073 133.777018,40.6565755 132.881836,39.3173828 C131.986654,37.9781901 130.729818,36.9684245 129.111328,36.2880859 C127.492839,35.6077474 125.609375,35.2675781 123.460938,35.2675781 C121.570312,35.2675781 119.83724,35.6184896 118.261719,36.3203125 C116.686198,37.0221354 115.436523,38.0211589 114.512695,39.3173828 C113.588867,40.6136068 113.126953,42.1067708 113.126953,43.796875 L113.126953,43.796875 L119.615234,43.796875 C119.615234,43.1380208 119.797852,42.5579427 120.163086,42.0566406 C120.52832,41.5553385 121.01888,41.1686198 121.634766,40.8964844 C122.250651,40.624349 122.916667,40.4882812 123.632812,40.4882812 C124.979167,40.4882812 125.999674,40.8427734 126.694336,41.5517578 C127.388997,42.2607422 127.736328,43.1809896 127.736328,44.3125 C127.736328,45.6158854 127.356771,46.639974 126.597656,47.3847656 C125.838542,48.1295573 124.728516,48.5019531 123.267578,48.5019531 L123.267578,48.5019531 L119.916016,48.5019531 L119.916016,53.5507812 L123.267578,53.5507812 C126.576172,53.5507812 128.230469,55.0690104 128.230469,58.1054688 C128.230469,58.9075521 128.047852,59.6165365 127.682617,60.2324219 C127.317383,60.8483073 126.787435,61.3317057 126.092773,61.6826172 C125.398112,62.0335286 124.578125,62.2089844 123.632812,62.2089844 C122.802083,62.2089844 122.05013,62.0442708 121.376953,61.7148438 C120.703776,61.3854167 120.173828,60.9270833 119.787109,60.3398438 C119.400391,59.7526042 119.207031,59.1009115 119.207031,58.3847656 L119.207031,58.3847656 L112.71875,58.3847656 C112.71875,60.3613281 113.227214,62.0299479 114.244141,63.390625 C115.261068,64.7513021 116.589518,65.7646484 118.229492,66.4306641 C119.869466,67.0966797 121.613281,67.4296875 123.460938,67.4296875 Z"/>
    <path id="amount-awaiting-d" d="M56.7890625,17.15625 C57.6536458,17.15625 58.4153646,17 59.0742188,16.6875 C59.7330729,16.375 60.2473958,15.9140625 60.6171875,15.3046875 C60.9869792,14.6953125 61.171875,13.9609375 61.171875,13.1015625 L61.171875,13.1015625 L61.171875,5.625 L58.71875,5.625 L58.71875,13.1015625 C58.71875,13.8151042 58.5546875,14.3398438 58.2265625,14.6757812 C57.8984375,15.0117188 57.4192708,15.1796875 56.7890625,15.1796875 C55.4921875,15.1796875 54.84375,14.4869792 54.84375,13.1015625 L54.84375,13.1015625 L54.84375,5.625 L52.3828125,5.625 L52.3828125,13.1015625 C52.3828125,13.9609375 52.5677083,14.6953125 52.9375,15.3046875 C53.3072917,15.9140625 53.8242188,16.375 54.4882812,16.6875 C55.1523438,17 55.9192708,17.15625 56.7890625,17.15625 Z M67.2421875,17.15625 C68.0807292,17.15625 68.8111979,17.03125 69.4335938,16.78125 C70.0559896,16.53125 70.5364583,16.1679688 70.875,15.6914062 C71.2135417,15.2148438 71.3828125,14.6458333 71.3828125,13.984375 C71.3828125,13.0677083 71.0716146,12.3164062 70.4492188,11.7304688 C69.8268229,11.1445312 68.8776042,10.65625 67.6015625,10.265625 C66.8463542,10.03125 66.2890625,9.79296875 65.9296875,9.55078125 C65.5703125,9.30859375 65.390625,9.01302083 65.390625,8.6640625 C65.390625,8.4296875 65.4570312,8.21744792 65.5898438,8.02734375 C65.7226562,7.83723958 65.9205729,7.6875 66.1835938,7.578125 C66.4466146,7.46875 66.765625,7.4140625 67.140625,7.4140625 C67.7291667,7.4140625 68.1757812,7.55598958 68.4804688,7.83984375 C68.7851562,8.12369792 68.9375,8.50520833 68.9375,8.984375 L68.9375,8.984375 L71.3828125,8.984375 C71.3828125,8.296875 71.2083333,7.68619792 70.859375,7.15234375 C70.5104167,6.61848958 70.0182292,6.20442708 69.3828125,5.91015625 C68.7473958,5.61588542 68.015625,5.46875 67.1875,5.46875 C66.3645833,5.46875 65.6328125,5.60026042 64.9921875,5.86328125 C64.3515625,6.12630208 63.8502604,6.49869792 63.4882812,6.98046875 C63.1263021,7.46223958 62.9453125,8.01822917 62.9453125,8.6484375 C62.9453125,9.27864583 63.1119792,9.82291667 63.4453125,10.28125 C63.7786458,10.7395833 64.2226562,11.1210938 64.7773438,11.4257812 C65.3320312,11.7304688 65.9947917,12.0078125 66.765625,12.2578125 C67.3645833,12.4505208 67.8177083,12.6302083 68.125,12.796875 C68.4322917,12.9635417 68.6432292,13.1380208 68.7578125,13.3203125 C68.8723958,13.5026042 68.9296875,13.7291667 68.9296875,14 C68.9296875,14.3645833 68.7877604,14.6588542 68.5039062,14.8828125 C68.2200521,15.1067708 67.7994792,15.21875 67.2421875,15.21875 C66.5390625,15.21875 65.9986979,15.0742188 65.6210938,14.7851562 C65.2434896,14.4960938 65.0546875,14.0260417 65.0546875,13.375 L65.0546875,13.375 L62.59375,13.375 C62.59375,14.203125 62.8151042,14.9023438 63.2578125,15.4726562 C63.7005208,16.0429688 64.2747396,16.4661458 64.9804688,16.7421875 C65.6861979,17.0182292 66.4401042,17.15625 67.2421875,17.15625 Z M76.453125,17 C77.4739583,17 78.3802083,16.7721354 79.171875,16.3164062 C79.9635417,15.8606771 80.5807292,15.2213542 81.0234375,14.3984375 C81.4661458,13.5755208 81.6875,12.6302083 81.6875,11.5625 L81.6875,11.5625 L81.6875,11.0625 C81.6875,10 81.4661458,9.05598958 81.0234375,8.23046875 C80.5807292,7.40494792 79.9648438,6.76432292 79.1757812,6.30859375 C78.3867188,5.85286458 77.484375,5.625 76.46875,5.625 L76.46875,5.625 L72.921875,5.625 L72.921875,17 L76.453125,17 Z M76.453125,15.0234375 L75.375,15.0234375 L75.375,7.609375 L76.46875,7.609375 C77.359375,7.609375 78.0364583,7.90104167 78.5,8.484375 C78.9635417,9.06770833 79.1953125,9.921875 79.1953125,11.046875 L79.1953125,11.046875 L79.1953125,11.5625 C79.1953125,12.6875 78.9609375,13.5455729 78.4921875,14.1367188 C78.0234375,14.7278646 77.34375,15.0234375 76.453125,15.0234375 L76.453125,15.0234375 Z"/>
    <path id="amount-awaiting-f" d="M8,0 L292,0 C296.418278,-8.11624501e-16 300,3.581722 300,8 L300,48 L300,48 L0,48 L0,8 C-5.41083001e-16,3.581722 3.581722,8.11624501e-16 8,0 Z"/>
    <filter id="amount-awaiting-e" width="100.3%" height="104.2%" x="-.2%" y="-1%" filterUnits="objectBoundingBox">
      <feOffset dy="1" in="SourceAlpha" result="shadowOffsetOuter1"/>
      <feColorMatrix in="shadowOffsetOuter1" values="0 0 0 0 0   0 0 0 0 0   0 0 0 0 0  0 0 0 0.05 0"/>
    </filter>
    <path id="amount-awaiting-g" d="M14.668457,12.5 C15.5314128,12.5 16.2010091,12.3039551 16.6772461,11.9118652 C17.1534831,11.5197754 17.3916016,10.953125 17.3916016,10.2119141 C17.3916016,9.78580729 17.280599,9.41072591 17.0585938,9.08666992 C16.8365885,8.76261393 16.5089518,8.54329427 16.0756836,8.42871094 C16.440918,8.27832031 16.72111,8.05989583 16.9162598,7.7734375 C17.1114095,7.48697917 17.2089844,7.16113281 17.2089844,6.79589844 C17.2089844,6.08333333 16.9726562,5.55249023 16.5,5.20336914 C16.0273438,4.85424805 15.3505859,4.6796875 14.4697266,4.6796875 L14.4697266,4.6796875 L11.7841797,4.6796875 L11.7841797,12.5 L14.668457,12.5 Z M14.4804688,7.96679688 L13.175293,7.96679688 L13.175293,5.80224609 L14.4697266,5.80224609 C14.9352214,5.80224609 15.277181,5.88728841 15.4956055,6.05737305 C15.7140299,6.22745768 15.8232422,6.50227865 15.8232422,6.88183594 C15.8232422,7.22558594 15.7059733,7.49235026 15.4714355,7.68212891 C15.2368978,7.87190755 14.9065755,7.96679688 14.4804688,7.96679688 L14.4804688,7.96679688 Z M14.668457,11.3828125 L13.175293,11.3828125 L13.175293,8.98730469 L14.7275391,8.98730469 C15.5797526,8.98730469 16.0058594,9.39550781 16.0058594,10.2119141 C16.0058594,10.5664062 15.8903809,10.850179 15.6594238,11.0632324 C15.4284668,11.2762858 15.0981445,11.3828125 14.668457,11.3828125 L14.668457,11.3828125 Z M20.4047852,12.6074219 C20.7270508,12.6074219 21.0152995,12.5483398 21.2695312,12.4301758 C21.523763,12.3120117 21.7421875,12.1544596 21.9248047,11.9575195 C21.9677734,12.1938477 22.0179036,12.3746745 22.0751953,12.5 L22.0751953,12.5 L23.4394531,12.5 L23.4394531,12.4086914 C23.2926432,12.097168 23.2192383,11.6764323 23.2192383,11.1464844 L23.2192383,11.1464844 L23.2192383,8.58447266 C23.2192383,8.15120443 23.1234538,7.78417969 22.9318848,7.48339844 C22.7403158,7.18261719 22.4744466,6.95703125 22.1342773,6.80664062 C21.7941081,6.65625 21.4020182,6.58105469 20.9580078,6.58105469 C20.4853516,6.58105469 20.0655111,6.66430664 19.6984863,6.83081055 C19.3314616,6.99731445 19.048584,7.2175293 18.8498535,7.49145508 C18.651123,7.76538086 18.5517578,8.05810547 18.5517578,8.36962891 L18.5517578,8.36962891 L19.8891602,8.36962891 C19.8891602,8.22281901 19.9303385,8.09033203 20.0126953,7.97216797 C20.0950521,7.85400391 20.2114258,7.76090495 20.3618164,7.69287109 C20.512207,7.62483724 20.6858724,7.59082031 20.8828125,7.59082031 C21.2122396,7.59082031 21.4611003,7.67765299 21.6293945,7.85131836 C21.7976888,8.02498372 21.8818359,8.26578776 21.8818359,8.57373047 L21.8818359,8.57373047 L21.8818359,8.94970703 L21.0761719,8.94970703 C20.2311198,8.94970703 19.5785319,9.11442057 19.1184082,9.44384766 C18.6582845,9.77327474 18.4282227,10.2477214 18.4282227,10.8671875 C18.4282227,11.1966146 18.5123698,11.4938151 18.6806641,11.7587891 C18.8489583,12.023763 19.0834961,12.2314453 19.3842773,12.3818359 C19.6850586,12.5322266 20.0252279,12.6074219 20.4047852,12.6074219 Z M20.6625977,11.5385742 C20.3797201,11.5385742 20.1595052,11.4642741 20.0019531,11.3156738 C19.844401,11.1670736 19.765625,10.9746094 19.765625,10.7382812 C19.765625,10.4339193 19.8855794,10.1975911 20.1254883,10.0292969 C20.3653971,9.8610026 20.718099,9.77685547 21.1835938,9.77685547 L21.1835938,9.77685547 L21.8818359,9.77685547 L21.8818359,10.8618164 C21.7815755,11.0480143 21.6231283,11.2073568 21.4064941,11.3398438 C21.18986,11.4723307 20.9418945,11.5385742 20.6625977,11.5385742 Z M26.9736328,12.6074219 C27.3997396,12.6074219 27.7918294,12.5161133 28.1499023,12.3334961 C28.5079753,12.1508789 28.7944336,11.9038086 29.0092773,11.5922852 C29.2241211,11.2807617 29.3369141,10.9388021 29.3476562,10.5664062 L29.3476562,10.5664062 L28.0854492,10.5664062 C28.074707,10.7526042 28.0192057,10.9191081 27.9189453,11.065918 C27.8186849,11.2127279 27.6844076,11.3273112 27.5161133,11.409668 C27.347819,11.4920247 27.1616211,11.5332031 26.9575195,11.5332031 C26.0909831,11.5332031 25.6577148,10.9173177 25.6577148,9.68554688 L25.6577148,9.68554688 L25.6577148,9.50292969 C25.6577148,8.96582031 25.7543945,8.52360026 25.9477539,8.17626953 C26.1411133,7.8289388 26.4759115,7.65527344 26.9521484,7.65527344 C27.1777344,7.65527344 27.3737793,7.70540365 27.5402832,7.80566406 C27.7067871,7.90592448 27.8365885,8.04109701 27.9296875,8.21118164 C28.0227865,8.38126628 28.074707,8.57014974 28.0854492,8.77783203 L28.0854492,8.77783203 L29.3476562,8.77783203 C29.3369141,8.34814453 29.2312826,7.96679688 29.0307617,7.63378906 C28.8302409,7.30078125 28.5518392,7.04207357 28.1955566,6.85766602 C27.8392741,6.67325846 27.4301758,6.58105469 26.9682617,6.58105469 C26.3953451,6.58105469 25.9101562,6.70996094 25.5126953,6.96777344 C25.1152344,7.22558594 24.8171387,7.57560221 24.6184082,8.01782227 C24.4196777,8.46004232 24.3203125,8.95507812 24.3203125,9.50292969 L24.3203125,9.50292969 L24.3203125,9.68554688 C24.3203125,10.2333984 24.4187826,10.7284342 24.6157227,11.1706543 C24.8126628,11.6128743 25.1107585,11.9628906 25.5100098,12.2207031 C25.9092611,12.4785156 26.3971354,12.6074219 26.9736328,12.6074219 Z M31.6572266,12.5 L31.6572266,10.6147461 L32.2426758,10.0185547 L33.9345703,12.5 L35.4814453,12.5 L33.1020508,9.10546875 L35.2558594,6.68847656 L33.6445312,6.68847656 L32.0546875,8.48779297 L31.6572266,8.98193359 L31.6572266,4.25 L30.3251953,4.25 L30.3251953,12.5 L31.6572266,12.5 Z"/>
  </defs>
  <g fill="none" fill-rule="evenodd" transform="translate(18 18)">
    <use fill="#000" filter="url(#amount-awaiting-a)" xlink:href="#amount-awaiting-b"/>
    <use fill="#FFF" xlink:href="#amount-awaiting-b"/>
    <path fill="#FFF" d="M10,48 L290,48 C295.522847,48 300,52.4771525 300,58 L300,358 C300,362.418278 296.418278,366 292,366 L8,366 C3.581722,366 5.41083001e-16,362.418278 0,358 L0,58 C-6.76353751e-16,52.4771525 4.4771525,48 10,48 Z"/>
    <path fill="#434D5A" fill-rule="nonzero" d="M107.878418,78 L108.574219,75.8833008 L112.353516,75.8833008 L113.049316,78 L115.50293,78 L111.525879,67.3359375 L109.387207,67.3359375 L105.432129,78 L107.878418,78 Z M111.738281,74.0229492 L109.182129,74.0229492 L110.456543,70.1337891 L111.738281,74.0229492 Z M118.527832,78 L118.527832,72.4335938 C118.654785,72.2041016 118.822021,72.0270996 119.029541,71.9025879 C119.237061,71.7780762 119.482422,71.7158203 119.765625,71.7158203 C120.019531,71.7158203 120.228271,71.7524414 120.391846,71.8256836 C120.55542,71.8989258 120.681152,72.0283203 120.769043,72.2138672 C120.856934,72.3994141 120.900879,72.6582031 120.900879,72.9902344 L120.900879,72.9902344 L120.900879,78 L123.112793,78 L123.112793,72.7119141 C123.112793,72.6337891 123.110352,72.5776367 123.105469,72.543457 C123.227539,72.2797852 123.393555,72.0759277 123.603516,71.9318848 C123.813477,71.7878418 124.067383,71.7158203 124.365234,71.7158203 C124.614258,71.7158203 124.820557,71.75 124.984131,71.8183594 C125.147705,71.8867188 125.273438,72.0124512 125.361328,72.1955566 C125.449219,72.3786621 125.493164,72.6362305 125.493164,72.9682617 L125.493164,72.9682617 L125.493164,78 L127.705078,78 L127.705078,72.9755859 C127.705078,71.9013672 127.485352,71.125 127.045898,70.6464844 C126.606445,70.1679688 125.983887,69.9287109 125.178223,69.9287109 C124.660645,69.9287109 124.202881,70.0324707 123.804932,70.2399902 C123.406982,70.4475098 123.076172,70.7441406 122.8125,71.1298828 C122.62207,70.7246094 122.349854,70.4230957 121.99585,70.2253418 C121.641846,70.0275879 121.220703,69.9287109 120.732422,69.9287109 C120.249023,69.9287109 119.815674,70.0178223 119.432373,70.1960449 C119.049072,70.3742676 118.725586,70.6293945 118.461914,70.9614258 L118.461914,70.9614258 L118.388672,70.0751953 L116.315918,70.0751953 L116.315918,78 L118.527832,78 Z M131.645508,78.1464844 C132.46582,78.1464844 133.127441,77.8608398 133.630371,77.2895508 C133.674316,77.5727539 133.745117,77.8095703 133.842773,78 L133.842773,78 L136.062012,78 L136.062012,77.8754883 C135.95459,77.6606445 135.874023,77.4140625 135.820312,77.1357422 C135.766602,76.8574219 135.739746,76.4936523 135.739746,76.0444336 L135.739746,76.0444336 L135.739746,72.7265625 C135.739746,72.1210938 135.603027,71.6083984 135.32959,71.1884766 C135.056152,70.7685547 134.677734,70.4536133 134.194336,70.2436523 C133.710938,70.0336914 133.156738,69.9287109 132.531738,69.9287109 C131.85791,69.9287109 131.263428,70.0410156 130.748291,70.265625 C130.233154,70.4902344 129.835205,70.7954102 129.554443,71.1811523 C129.273682,71.5668945 129.133301,71.996582 129.133301,72.4702148 L129.133301,72.4702148 L131.345215,72.4702148 C131.345215,72.1772461 131.439209,71.951416 131.627197,71.7927246 C131.815186,71.6340332 132.077637,71.5546875 132.414551,71.5546875 C132.785645,71.5546875 133.063965,71.6560059 133.249512,71.8586426 C133.435059,72.0612793 133.527832,72.3457031 133.527832,72.7119141 L133.527832,72.7119141 L133.527832,73.1586914 L132.626953,73.1586914 C131.420898,73.1586914 130.507812,73.3845215 129.887695,73.8361816 C129.267578,74.2878418 128.95752,74.9311523 128.95752,75.7661133 C128.95752,76.2202148 129.075928,76.6279297 129.312744,76.9892578 C129.549561,77.3505859 129.873047,77.6337891 130.283203,77.8388672 C130.693359,78.0439453 131.147461,78.1464844 131.645508,78.1464844 Z M132.143555,76.4692383 C131.845703,76.4692383 131.607666,76.3911133 131.429443,76.2348633 C131.251221,76.0786133 131.162109,75.8759766 131.162109,75.6269531 C131.162109,75.2705078 131.287842,74.9812012 131.539307,74.7590332 C131.790771,74.5368652 132.172852,74.4257812 132.685547,74.4257812 L132.685547,74.4257812 L133.527832,74.4257812 L133.527832,75.7514648 C133.415527,75.9516602 133.237305,76.1213379 132.993164,76.260498 C132.749023,76.3996582 132.46582,76.4692383 132.143555,76.4692383 Z M143.671875,78 L143.671875,76.2202148 L139.885254,76.2202148 L143.562012,71.3569336 L143.562012,70.0751953 L137.175293,70.0751953 L137.175293,71.8549805 L140.712891,71.8549805 L137.050781,76.6743164 L137.050781,78 L143.671875,78 Z M148.286133,78.1464844 C149.072266,78.1464844 149.748535,77.9731445 150.314941,77.6264648 C150.881348,77.2797852 151.312256,76.8024902 151.607666,76.1945801 C151.903076,75.5866699 152.050781,74.8945312 152.050781,74.1181641 L152.050781,74.1181641 L152.050781,73.9643555 C152.050781,73.1879883 151.903076,72.4946289 151.607666,71.8842773 C151.312256,71.2739258 150.880127,70.7954102 150.311279,70.4487305 C149.742432,70.1020508 149.0625,69.9287109 148.271484,69.9287109 C147.485352,69.9287109 146.809082,70.1020508 146.242676,70.4487305 C145.67627,70.7954102 145.245361,71.2739258 144.949951,71.8842773 C144.654541,72.4946289 144.506836,73.1879883 144.506836,73.9643555 L144.506836,73.9643555 L144.506836,74.1181641 C144.506836,74.8945312 144.654541,75.5866699 144.949951,76.1945801 C145.245361,76.8024902 145.67749,77.2797852 146.246338,77.6264648 C146.815186,77.9731445 147.495117,78.1464844 148.286133,78.1464844 Z M148.286133,76.3666992 C147.739258,76.3666992 147.341309,76.1628418 147.092285,75.755127 C146.843262,75.3474121 146.71875,74.8017578 146.71875,74.1181641 L146.71875,74.1181641 L146.71875,73.9643555 C146.71875,73.2954102 146.843262,72.7521973 147.092285,72.3347168 C147.341309,71.9172363 147.734375,71.7084961 148.271484,71.7084961 C148.818359,71.7084961 149.216309,71.9160156 149.465332,72.3310547 C149.714355,72.7460938 149.838867,73.2905273 149.838867,73.9643555 L149.838867,73.9643555 L149.838867,74.1181641 C149.838867,74.796875 149.714355,75.3413086 149.465332,75.7514648 C149.216309,76.1616211 148.823242,76.3666992 148.286133,76.3666992 Z M155.463867,78 L155.463867,72.4189453 C155.595703,72.1943359 155.767822,72.0209961 155.980225,71.8989258 C156.192627,71.7768555 156.442871,71.7158203 156.730957,71.7158203 C157.150879,71.7158203 157.460938,71.807373 157.661133,71.9904785 C157.861328,72.173584 157.961426,72.4995117 157.961426,72.9682617 L157.961426,72.9682617 L157.961426,78 L160.17334,78 L160.17334,72.9755859 C160.17334,71.8964844 159.956055,71.1188965 159.521484,70.6428223 C159.086914,70.166748 158.47168,69.9287109 157.675781,69.9287109 C157.207031,69.9287109 156.779785,70.019043 156.394043,70.199707 C156.008301,70.3803711 155.67627,70.644043 155.397949,70.9907227 L155.397949,70.9907227 L155.324707,70.0751953 L153.251953,70.0751953 L153.251953,78 L155.463867,78 Z M163.081055,78.0805664 C163.325195,78.0805664 163.54248,78.0292969 163.73291,77.9267578 C163.92334,77.8242188 164.069824,77.6838379 164.172363,77.5056152 C164.274902,77.3273926 164.326172,77.128418 164.326172,76.9086914 C164.326172,76.6889648 164.274902,76.4899902 164.172363,76.3117676 C164.069824,76.1335449 163.92334,75.9931641 163.73291,75.890625 C163.54248,75.7880859 163.325195,75.7368164 163.081055,75.7368164 C162.836914,75.7368164 162.62085,75.7880859 162.432861,75.890625 C162.244873,75.9931641 162.099609,76.1335449 161.99707,76.3117676 C161.894531,76.4899902 161.843262,76.6889648 161.843262,76.9086914 C161.843262,77.128418 161.894531,77.3273926 161.99707,77.5056152 C162.099609,77.6838379 162.244873,77.8242188 162.432861,77.9267578 C162.62085,78.0292969 162.836914,78.0805664 163.081055,78.0805664 Z M169.482422,78.1464844 C170.092773,78.1464844 170.648193,78.0219727 171.148682,77.7729492 C171.64917,77.5239258 172.045898,77.1772461 172.338867,76.7329102 C172.631836,76.2885742 172.77832,75.7856445 172.77832,75.2241211 L172.77832,75.2241211 L170.705566,75.2241211 C170.700684,75.5756836 170.583496,75.8540039 170.354004,76.059082 C170.124512,76.2641602 169.819336,76.3666992 169.438477,76.3666992 C168.886719,76.3666992 168.511963,76.1689453 168.314209,75.7734375 C168.116455,75.3779297 168.017578,74.8310547 168.017578,74.1328125 L168.017578,74.1328125 L168.017578,73.9423828 C168.017578,73.2587891 168.117676,72.7155762 168.317871,72.3127441 C168.518066,71.9099121 168.886719,71.7084961 169.423828,71.7084961 C169.824219,71.7084961 170.136719,71.8354492 170.361328,72.0893555 C170.585938,72.3432617 170.700684,72.6655273 170.705566,73.0561523 L170.705566,73.0561523 L172.77832,73.0561523 C172.77832,72.4165039 172.63916,71.861084 172.36084,71.3898926 C172.08252,70.9187012 171.693115,70.557373 171.192627,70.3059082 C170.692139,70.0544434 170.117188,69.9287109 169.467773,69.9287109 C168.676758,69.9287109 168.006592,70.1020508 167.457275,70.4487305 C166.907959,70.7954102 166.495361,71.2714844 166.219482,71.8769531 C165.943604,72.4824219 165.805664,73.1708984 165.805664,73.9423828 L165.805664,73.9423828 L165.805664,74.1328125 C165.805664,74.9042969 165.943604,75.5927734 166.219482,76.1982422 C166.495361,76.8037109 166.90918,77.2797852 167.460938,77.6264648 C168.012695,77.9731445 168.686523,78.1464844 169.482422,78.1464844 Z M177.407227,78.1464844 C178.193359,78.1464844 178.869629,77.9731445 179.436035,77.6264648 C180.002441,77.2797852 180.43335,76.8024902 180.72876,76.1945801 C181.02417,75.5866699 181.171875,74.8945312 181.171875,74.1181641 L181.171875,74.1181641 L181.171875,73.9643555 C181.171875,73.1879883 181.02417,72.4946289 180.72876,71.8842773 C180.43335,71.2739258 180.001221,70.7954102 179.432373,70.4487305 C178.863525,70.1020508 178.183594,69.9287109 177.392578,69.9287109 C176.606445,69.9287109 175.930176,70.1020508 175.36377,70.4487305 C174.797363,70.7954102 174.366455,71.2739258 174.071045,71.8842773 C173.775635,72.4946289 173.62793,73.1879883 173.62793,73.9643555 L173.62793,73.9643555 L173.62793,74.1181641 C173.62793,74.8945312 173.775635,75.5866699 174.071045,76.1945801 C174.366455,76.8024902 174.798584,77.2797852 175.367432,77.6264648 C175.936279,77.9731445 176.616211,78.1464844 177.407227,78.1464844 Z M177.407227,76.3666992 C176.860352,76.3666992 176.462402,76.1628418 176.213379,75.755127 C175.964355,75.3474121 175.839844,74.8017578 175.839844,74.1181641 L175.839844,74.1181641 L175.839844,73.9643555 C175.839844,73.2954102 175.964355,72.7521973 176.213379,72.3347168 C176.462402,71.9172363 176.855469,71.7084961 177.392578,71.7084961 C177.939453,71.7084961 178.337402,71.9160156 178.586426,72.3310547 C178.835449,72.7460938 178.959961,73.2905273 178.959961,73.9643555 L178.959961,73.9643555 L178.959961,74.1181641 C178.959961,74.796875 178.835449,75.3413086 178.586426,75.7514648 C178.337402,76.1616211 177.944336,76.3666992 177.407227,76.3666992 Z M184.63623,78 L184.63623,72.4335938 C184.763184,72.2041016 184.93042,72.0270996 185.137939,71.9025879 C185.345459,71.7780762 185.59082,71.7158203 185.874023,71.7158203 C186.12793,71.7158203 186.33667,71.7524414 186.500244,71.8256836 C186.663818,71.8989258 186.789551,72.0283203 186.877441,72.2138672 C186.965332,72.3994141 187.009277,72.6582031 187.009277,72.9902344 L187.009277,72.9902344 L187.009277,78 L189.221191,78 L189.221191,72.7119141 C189.221191,72.6337891 189.21875,72.5776367 189.213867,72.543457 C189.335938,72.2797852 189.501953,72.0759277 189.711914,71.9318848 C189.921875,71.7878418 190.175781,71.7158203 190.473633,71.7158203 C190.722656,71.7158203 190.928955,71.75 191.092529,71.8183594 C191.256104,71.8867188 191.381836,72.0124512 191.469727,72.1955566 C191.557617,72.3786621 191.601562,72.6362305 191.601562,72.9682617 L191.601562,72.9682617 L191.601562,78 L193.813477,78 L193.813477,72.9755859 C193.813477,71.9013672 193.59375,71.125 193.154297,70.6464844 C192.714844,70.1679688 192.092285,69.9287109 191.286621,69.9287109 C190.769043,69.9287109 190.311279,70.0324707 189.91333,70.2399902 C189.515381,70.4475098 189.18457,70.7441406 188.920898,71.1298828 C188.730469,70.7246094 188.458252,70.4230957 188.104248,70.2253418 C187.750244,70.0275879 187.329102,69.9287109 186.84082,69.9287109 C186.357422,69.9287109 185.924072,70.0178223 185.540771,70.1960449 C185.157471,70.3742676 184.833984,70.6293945 184.570312,70.9614258 L184.570312,70.9614258 L184.49707,70.0751953 L182.424316,70.0751953 L182.424316,78 L184.63623,78 Z"/>
    <g transform="translate(26 128)">
      <g transform="translate(0 36)">
        <g transform="translate(218)">
          <circle cx="15" cy="15" r="15" fill="#F5F7FA"/>
          <path fill="#434D5A" fill-rule="nonzero" stroke="#434D5A" stroke-width=".2" d="M14.4454148,8.54135472 C14.7878605,8.35297895 15.2124086,8.35302869 15.5547325,8.54147456 C15.7355749,8.64102648 15.8785532,8.78474887 15.9724838,8.95270342 L15.9724838,8.95270342 L16.0955438,13.9000132 L20.5858798,13.900619 C20.8681362,13.907016 21.122509,14.0327349 21.3061471,14.2329275 C21.4875547,14.4306883 21.5997449,14.7012712 21.6,14.9995036 C21.6002538,15.2977396 21.4885228,15.5684987 21.3074507,15.7665423 C21.1241516,15.9670217 20.8699901,16.0931371 20.5852981,16.1 L20.5852981,16.1 L16.0999865,16.0990218 L16.099381,20.5858798 C16.092984,20.8681362 15.9672651,21.122509 15.7670725,21.3061471 C15.5693117,21.4875547 15.2987288,21.5997449 15.0004964,21.6 C14.7022604,21.6002538 14.4315013,21.4885228 14.2334577,21.3074507 C14.0329783,21.1241516 13.9068629,20.8699901 13.9,20.5853199 L13.9,20.5853199 L13.9,16.0980285 L9.4409087,16.0992987 C8.75659248,15.8678184 8.63421836,15.7234007 8.54135472,15.5545852 C8.35297895,15.2121395 8.35302869,14.7875914 8.54147456,14.4452675 C8.64102466,14.2644284 8.7847436,14.121452 8.95269419,14.0275214 L8.95269419,14.0275214 L13.9009937,13.9034756 L13.900705,9.44089795 C14.1321831,8.7565912 14.2766002,8.63421787 14.4454148,8.54135472 Z"/>
        </g>
        <circle cx="15" cy="15" r="15" fill="#F5F7FA"/>
        <path fill="#434D5A" fill-rule="nonzero" stroke="#434D5A" stroke-width=".2" d="M20.5858798,13.900619 C20.8681362,13.907016 21.122509,14.0327349 21.3061471,14.2329275 C21.4875547,14.4306883 21.5997449,14.7012712 21.6,14.9995036 C21.6002538,15.2977396 21.4885228,15.5684987 21.3074507,15.7665423 C21.1241516,15.9670217 20.8699901,16.0931371 20.5853187,16.1 L20.5853187,16.1 L15.9439684,16.0999443 L14.0718559,16.0988338 L9.44089966,16.0992956 C8.7565914,15.8678171 8.63421795,15.7234 8.54135472,15.5545852 C8.35297895,15.2121395 8.35302869,14.7875914 8.54147456,14.4452675 C8.64102743,14.2644233 8.78475161,14.1214441 8.95270823,14.0275135 L8.95270823,14.0275135 L14.0551542,13.9011105 L15.9274081,13.9 Z"/>
      </g>
      <g fill-rule="nonzero" transform="translate(57)">
        <use fill="#000" xlink:href="#amount-awaiting-c"/>
        <use fill="#303133" xlink:href="#amount-awaiting-c"/>
        <g opacity=".249">
          <use fill="#000" xlink:href="#amount-awaiting-d"/>
          <use fill="#262E40" xlink:href="#amount-awaiting-d"/>
        </g>
        <path fill="#434D5A" d="M41.9375,104.242188 L41.9375,103.099609 C42.6523438,103.021484 43.2138672,102.780273 43.6220703,102.375977 C44.0302734,101.97168 44.234375,101.431641 44.234375,100.755859 C44.234375,100.287109 44.1386719,99.8896484 43.9472656,99.5634766 C43.7558594,99.2373047 43.484375,98.9628906 43.1328125,98.7402344 C42.78125,98.5175781 42.3300781,98.3066406 41.7792969,98.1074219 C41.4199219,97.9746094 41.1386719,97.8427734 40.9355469,97.7119141 C40.7324219,97.5810547 40.5869141,97.4365234 40.4990234,97.2783203 C40.4111328,97.1201172 40.3671875,96.9296875 40.3671875,96.7070312 C40.3671875,96.3515625 40.4648438,96.0693359 40.6601562,95.8603516 C40.8554688,95.6513672 41.1484375,95.546875 41.5390625,95.546875 C41.9179688,95.546875 42.2138672,95.6855469 42.4267578,95.9628906 C42.6396484,96.2402344 42.7460938,96.6230469 42.7460938,97.1113281 L42.7460938,97.1113281 L44.2050781,97.1113281 C44.2050781,96.3300781 44.015625,95.703125 43.6367188,95.2304688 C43.2578125,94.7578125 42.7324219,94.4746094 42.0605469,94.3808594 L42.0605469,94.3808594 L42.0605469,93.0917969 L41.1230469,93.0917969 L41.1230469,94.3691406 C40.6777344,94.4199219 40.2890625,94.546875 39.9570312,94.75 C39.625,94.953125 39.3681641,95.2226562 39.1865234,95.5585938 C39.0048828,95.8945312 38.9140625,96.2792969 38.9140625,96.7128906 C38.9140625,97.1855469 39.0126953,97.5859375 39.2099609,97.9140625 C39.4072266,98.2421875 39.6835938,98.5175781 40.0390625,98.7402344 C40.3945312,98.9628906 40.8457031,99.1679688 41.3925781,99.3554688 C41.8964844,99.53125 42.2539062,99.7275391 42.4648438,99.9443359 C42.6757812,100.161133 42.78125,100.435547 42.78125,100.767578 C42.78125,101.123047 42.6650391,101.404297 42.4326172,101.611328 C42.2001953,101.818359 41.8710938,101.921875 41.4453125,101.921875 C41.0507812,101.921875 40.71875,101.803711 40.4492188,101.567383 C40.1796875,101.331055 40.0449219,100.939453 40.0449219,100.392578 L40.0449219,100.392578 L38.5859375,100.392578 C38.5859375,100.974609 38.6962891,101.459961 38.9169922,101.848633 C39.1376953,102.237305 39.4296875,102.53125 39.7929688,102.730469 C40.15625,102.929688 40.5605469,103.052734 41.0058594,103.099609 L41.0058594,103.099609 L41.0058594,104.242188 L41.9375,104.242188 Z M49.3554688,103 L49.3554688,94.4394531 L49.1738281,94.4394531 L45.8164062,95.6699219 L45.8164062,96.8886719 L47.8964844,96.1914062 L47.8964844,103 L49.3554688,103 Z M58.203125,99.953125 L58.203125,98.78125 L55.1035156,98.78125 L55.1035156,99.953125 L58.203125,99.953125 Z M65.6152344,104.242188 L65.6152344,103.099609 C66.3300781,103.021484 66.8916016,102.780273 67.2998047,102.375977 C67.7080078,101.97168 67.9121094,101.431641 67.9121094,100.755859 C67.9121094,100.287109 67.8164062,99.8896484 67.625,99.5634766 C67.4335938,99.2373047 67.1621094,98.9628906 66.8105469,98.7402344 C66.4589844,98.5175781 66.0078125,98.3066406 65.4570312,98.1074219 C65.0976562,97.9746094 64.8164062,97.8427734 64.6132812,97.7119141 C64.4101562,97.5810547 64.2646484,97.4365234 64.1767578,97.2783203 C64.0888672,97.1201172 64.0449219,96.9296875 64.0449219,96.7070312 C64.0449219,96.3515625 64.1425781,96.0693359 64.3378906,95.8603516 C64.5332031,95.6513672 64.8261719,95.546875 65.2167969,95.546875 C65.5957031,95.546875 65.8916016,95.6855469 66.1044922,95.9628906 C66.3173828,96.2402344 66.4238281,96.6230469 66.4238281,97.1113281 L66.4238281,97.1113281 L67.8828125,97.1113281 C67.8828125,96.3300781 67.6933594,95.703125 67.3144531,95.2304688 C66.9355469,94.7578125 66.4101562,94.4746094 65.7382812,94.3808594 L65.7382812,94.3808594 L65.7382812,93.0917969 L64.8007812,93.0917969 L64.8007812,94.3691406 C64.3554688,94.4199219 63.9667969,94.546875 63.6347656,94.75 C63.3027344,94.953125 63.0458984,95.2226562 62.8642578,95.5585938 C62.6826172,95.8945312 62.5917969,96.2792969 62.5917969,96.7128906 C62.5917969,97.1855469 62.6904297,97.5859375 62.8876953,97.9140625 C63.0849609,98.2421875 63.3613281,98.5175781 63.7167969,98.7402344 C64.0722656,98.9628906 64.5234375,99.1679688 65.0703125,99.3554688 C65.5742188,99.53125 65.9316406,99.7275391 66.1425781,99.9443359 C66.3535156,100.161133 66.4589844,100.435547 66.4589844,100.767578 C66.4589844,101.123047 66.3427734,101.404297 66.1103516,101.611328 C65.8779297,101.818359 65.5488281,101.921875 65.1230469,101.921875 C64.7285156,101.921875 64.3964844,101.803711 64.1269531,101.567383 C63.8574219,101.331055 63.7226562,100.939453 63.7226562,100.392578 L63.7226562,100.392578 L62.2636719,100.392578 C62.2636719,100.974609 62.3740234,101.459961 62.5947266,101.848633 C62.8154297,102.237305 63.1074219,102.53125 63.4707031,102.730469 C63.8339844,102.929688 64.2382812,103.052734 64.6835938,103.099609 L64.6835938,103.099609 L64.6835938,104.242188 L65.6152344,104.242188 Z M74.8964844,103 L74.8964844,101.828125 L70.9707031,101.828125 L72.8222656,99.8476562 C73.3925781,99.25 73.8261719,98.7021484 74.1230469,98.2041016 C74.4199219,97.7060547 74.5683594,97.2070312 74.5683594,96.7070312 C74.5683594,96.2265625 74.4628906,95.8095703 74.2519531,95.4560547 C74.0410156,95.1025391 73.734375,94.8300781 73.3320312,94.6386719 C72.9296875,94.4472656 72.4453125,94.3515625 71.8789062,94.3515625 C71.28125,94.3515625 70.7636719,94.4726562 70.3261719,94.7148438 C69.8886719,94.9570312 69.5546875,95.2851562 69.3242188,95.6992188 C69.09375,96.1132812 68.9785156,96.5722656 68.9785156,97.0761719 L68.9785156,97.0761719 L70.4375,97.0761719 C70.4375,96.6074219 70.5595703,96.2314453 70.8037109,95.9482422 C71.0478516,95.6650391 71.4003906,95.5234375 71.8613281,95.5234375 C72.2519531,95.5234375 72.5576172,95.6464844 72.7783203,95.8925781 C72.9990234,96.1386719 73.109375,96.4609375 73.109375,96.859375 C73.109375,97.0546875 73.0732422,97.25 73.0009766,97.4453125 C72.9287109,97.640625 72.8066406,97.8603516 72.6347656,98.1044922 C72.4628906,98.3486328 72.2246094,98.640625 71.9199219,98.9804688 L71.9199219,98.9804688 L69.1425781,101.992188 L69.1425781,103 L74.8964844,103 Z M78.7636719,103.117188 C80.6269531,103.117188 81.5585938,101.882812 81.5585938,99.4140625 L81.5585938,99.4140625 L81.5585938,98.0195312 C81.5585938,96.734375 81.3134766,95.8017578 80.8232422,95.2216797 C80.3330078,94.6416016 79.6425781,94.3515625 78.7519531,94.3515625 C77.8613281,94.3515625 77.171875,94.6416016 76.6835938,95.2216797 C76.1953125,95.8017578 75.9511719,96.734375 75.9511719,98.0195312 L75.9511719,98.0195312 L75.9511719,99.4140625 C75.9511719,100.703125 76.1982422,101.642578 76.6923828,102.232422 C77.1865234,102.822266 77.8769531,103.117188 78.7636719,103.117188 Z M78.7636719,101.945312 C78.3183594,101.945312 77.9814453,101.762695 77.7529297,101.397461 C77.5244141,101.032227 77.4101562,100.439453 77.4101562,99.6191406 L77.4101562,99.6191406 L77.4101562,97.8027344 C77.4101562,96.9824219 77.5224609,96.3974609 77.7470703,96.0478516 C77.9716797,95.6982422 78.3066406,95.5234375 78.7519531,95.5234375 C79.2050781,95.5234375 79.5429688,95.6982422 79.765625,96.0478516 C79.9882812,96.3974609 80.0996094,96.9824219 80.0996094,97.8027344 L80.0996094,97.8027344 L80.0996094,99.6191406 C80.0996094,100.447266 79.9892578,101.041992 79.7685547,101.40332 C79.5478516,101.764648 79.2128906,101.945312 78.7636719,101.945312 Z M85.5957031,103.117188 C87.4589844,103.117188 88.390625,101.882812 88.390625,99.4140625 L88.390625,99.4140625 L88.390625,98.0195312 C88.390625,96.734375 88.1455078,95.8017578 87.6552734,95.2216797 C87.1650391,94.6416016 86.4746094,94.3515625 85.5839844,94.3515625 C84.6933594,94.3515625 84.0039062,94.6416016 83.515625,95.2216797 C83.0273438,95.8017578 82.7832031,96.734375 82.7832031,98.0195312 L82.7832031,98.0195312 L82.7832031,99.4140625 C82.7832031,100.703125 83.0302734,101.642578 83.5244141,102.232422 C84.0185547,102.822266 84.7089844,103.117188 85.5957031,103.117188 Z M85.5957031,101.945312 C85.1503906,101.945312 84.8134766,101.762695 84.5849609,101.397461 C84.3564453,101.032227 84.2421875,100.439453 84.2421875,99.6191406 L84.2421875,99.6191406 L84.2421875,97.8027344 C84.2421875,96.9824219 84.3544922,96.3974609 84.5791016,96.0478516 C84.8037109,95.6982422 85.1386719,95.5234375 85.5839844,95.5234375 C86.0371094,95.5234375 86.375,95.6982422 86.5976562,96.0478516 C86.8203125,96.3974609 86.9316406,96.9824219 86.9316406,97.8027344 L86.9316406,97.8027344 L86.9316406,99.6191406 C86.9316406,100.447266 86.8212891,101.041992 86.6005859,101.40332 C86.3798828,101.764648 86.0449219,101.945312 85.5957031,101.945312 Z M92.4277344,103.117188 C94.2910156,103.117188 95.2226562,101.882812 95.2226562,99.4140625 L95.2226562,99.4140625 L95.2226562,98.0195312 C95.2226562,96.734375 94.9775391,95.8017578 94.4873047,95.2216797 C93.9970703,94.6416016 93.3066406,94.3515625 92.4160156,94.3515625 C91.5253906,94.3515625 90.8359375,94.6416016 90.3476562,95.2216797 C89.859375,95.8017578 89.6152344,96.734375 89.6152344,98.0195312 L89.6152344,98.0195312 L89.6152344,99.4140625 C89.6152344,100.703125 89.8623047,101.642578 90.3564453,102.232422 C90.8505859,102.822266 91.5410156,103.117188 92.4277344,103.117188 Z M92.4277344,101.945312 C91.9824219,101.945312 91.6455078,101.762695 91.4169922,101.397461 C91.1884766,101.032227 91.0742188,100.439453 91.0742188,99.6191406 L91.0742188,99.6191406 L91.0742188,97.8027344 C91.0742188,96.9824219 91.1865234,96.3974609 91.4111328,96.0478516 C91.6357422,95.6982422 91.9707031,95.5234375 92.4160156,95.5234375 C92.8691406,95.5234375 93.2070312,95.6982422 93.4296875,96.0478516 C93.6523438,96.3974609 93.7636719,96.9824219 93.7636719,97.8027344 L93.7636719,97.8027344 L93.7636719,99.6191406 C93.7636719,100.447266 93.6533203,101.041992 93.4326172,101.40332 C93.2119141,101.764648 92.8769531,101.945312 92.4277344,101.945312 Z" opacity=".75"/>
      </g>
    </g>
    <g fill-rule="nonzero" transform="translate(14 288)">
      <rect width="272" height="60" fill="#EEF1FF" rx="8"/>
      <path fill="#4F6EF7" d="M8 19.5C6.16666667 19.5 4.33333333 18.8666667 2.93333333 17.6666667 2.63333333 17.4333333 2.6 17 2.83333333 16.7333333 3.06666667 16.4333333 3.5 16.4 3.76666667 16.6333333 4.96666667 17.6333333 6.46666667 18.1666667 8 18.1666667 11.6666667 18.1666667 14.6666667 15.1666667 14.6666667 11.5 14.6666667 7.83333333 11.6666667 4.83333333 8 4.83333333 4.33333333 4.83333333 1.33333333 7.83333333 1.33333333 11.5 1.33333333 12.4666667 1.53333333 13.3666667 1.9 14.2333333 2.06666667 14.5666667 1.9 14.9666667 1.56666667 15.1 1.23333333 15.2666667.833333333 15.1.7 14.7666667.233333333 13.7333333 0 12.6333333 0 11.5 0 7.1 3.6 3.5 8 3.5 12.4 3.5 16 7.1 16 11.5 16 15.9 12.4 19.5 8 19.5zM30.3515625 17L31.2578125 14.390625 35.625 14.390625 36.53125 17 38.6484375 17 34.34375 5.625 32.5234375 5.625 28.234375 17 30.3515625 17zM35.0546875 12.7578125L31.8203125 12.7578125 33.4375 8.09375 35.0546875 12.7578125zM42.6328125 17L44.390625 11.265625 46.1796875 17 47.78125 17 50.0703125 8.546875 48.1796875 8.546875 46.859375 14.328125 45.1328125 8.546875 43.6796875 8.546875 41.96875 14.2578125 40.6328125 8.546875 38.7421875 8.546875 41.03125 17 42.6328125 17zM53.921875 17.15625C54.390625 17.15625 54.8098958 17.0703125 55.1796875 16.8984375 55.5494792 16.7265625 55.8671875 16.4973958 56.1328125 16.2109375 56.1953125 16.5546875 56.2682292 16.8177083 56.3515625 17L56.3515625 17 58.3359375 17 58.3359375 16.8671875C58.1223958 16.4140625 58.015625 15.8020833 58.015625 15.03125L58.015625 15.03125 58.015625 11.3046875C58.015625 10.6744792 57.8763021 10.140625 57.5976562 9.703125 57.3190104 9.265625 56.9322917 8.9375 56.4375 8.71875 55.9427083 8.5 55.3723958 8.390625 54.7265625 8.390625 54.0390625 8.390625 53.4283854 8.51171875 52.8945312 8.75390625 52.3606771 8.99609375 51.9492188 9.31640625 51.6601562 9.71484375 51.3710938 10.1132812 51.2265625 10.5390625 51.2265625 10.9921875L51.2265625 10.9921875 53.171875 10.9921875C53.171875 10.7786458 53.2317708 10.5859375 53.3515625 10.4140625 53.4713542 10.2421875 53.640625 10.1067708 53.859375 10.0078125 54.078125 9.90885417 54.3307292 9.859375 54.6171875 9.859375 55.0963542 9.859375 55.4583333 9.98567708 55.703125 10.2382812 55.9479167 10.4908854 56.0703125 10.8411458 56.0703125 11.2890625L56.0703125 11.2890625 56.0703125 11.8359375 54.8984375 11.8359375C53.6692708 11.8359375 52.7200521 12.0755208 52.0507812 12.5546875 51.3815104 13.0338542 51.046875 13.7239583 51.046875 14.625 51.046875 15.1041667 51.1692708 15.5364583 51.4140625 15.921875 51.6588542 16.3072917 52 16.609375 52.4375 16.828125 52.875 17.046875 53.3697917 17.15625 53.921875 17.15625zM54.296875 15.6015625C53.8854167 15.6015625 53.5651042 15.4934896 53.3359375 15.2773438 53.1067708 15.0611979 52.9921875 14.78125 52.9921875 14.4375 52.9921875 13.9947917 53.1666667 13.6510417 53.515625 13.40625 53.8645833 13.1614583 54.3776042 13.0390625 55.0546875 13.0390625L55.0546875 13.0390625 56.0703125 13.0390625 56.0703125 14.6171875C55.9244792 14.8880208 55.6940104 15.1197917 55.3789062 15.3125 55.0638021 15.5052083 54.703125 15.6015625 54.296875 15.6015625zM61.0703125 7.375C61.4088542 7.375 61.6770833 7.27864583 61.875 7.0859375 62.0729167 6.89322917 62.171875 6.6484375 62.171875 6.3515625 62.171875 6.04947917 62.0729167 5.80078125 61.875 5.60546875 61.6770833 5.41015625 61.4088542 5.3125 61.0703125 5.3125 60.7317708 5.3125 60.4635417 5.41015625 60.265625 5.60546875 60.0677083 5.80078125 59.96875 6.04947917 59.96875 6.3515625 59.96875 6.65364583 60.0677083 6.89973958 60.265625 7.08984375 60.4635417 7.27994792 60.7317708 7.375 61.0703125 7.375zM62.0390625 17L62.0390625 8.546875 60.09375 8.546875 60.09375 17 62.0390625 17zM66.7734375 17.15625C67.2421875 17.15625 67.6640625 17.09375 68.0390625 16.96875L68.0390625 16.96875 68.0390625 15.46875C67.8046875 15.5208333 67.5833333 15.546875 67.375 15.546875 67.0833333 15.546875 66.8645833 15.4830729 66.71875 15.3554688 66.5729167 15.2278646 66.5 14.9869792 66.5 14.6328125L66.5 14.6328125 66.5 9.984375 67.984375 9.984375 67.984375 8.546875 66.5 8.546875 66.5 6.484375 64.5546875 6.484375 64.5546875 8.546875 63.1796875 8.546875 63.1796875 9.984375 64.5546875 9.984375 64.5546875 14.765625C64.5546875 15.5989583 64.7526042 16.2057292 65.1484375 16.5859375 65.5442708 16.9661458 66.0859375 17.15625 66.7734375 17.15625zM70.515625 7.375C70.8541667 7.375 71.1223958 7.27864583 71.3203125 7.0859375 71.5182292 6.89322917 71.6171875 6.6484375 71.6171875 6.3515625 71.6171875 6.04947917 71.5182292 5.80078125 71.3203125 5.60546875 71.1223958 5.41015625 70.8541667 5.3125 70.515625 5.3125 70.1770833 5.3125 69.9088542 5.41015625 69.7109375 5.60546875 69.5130208 5.80078125 69.4140625 6.04947917 69.4140625 6.3515625 69.4140625 6.65364583 69.5130208 6.89973958 69.7109375 7.08984375 69.9088542 7.27994792 70.1770833 7.375 70.515625 7.375zM71.484375 17L71.484375 8.546875 69.5390625 8.546875 69.5390625 17 71.484375 17zM75.4453125 17L75.4453125 10.984375C75.6171875 10.6666667 75.8463542 10.4192708 76.1328125 10.2421875 76.4192708 10.0651042 76.7447917 9.9765625 77.109375 9.9765625 77.609375 9.9765625 77.9804688 10.0950521 78.2226562 10.3320312 78.4648438 10.5690104 78.5859375 10.96875 78.5859375 11.53125L78.5859375 11.53125 78.5859375 17 80.53125 17 80.53125 11.546875C80.53125 10.4375 80.2981771 9.63411458 79.8320312 9.13671875 79.3658854 8.63932292 78.703125 8.390625 77.84375 8.390625 77.34375 8.390625 76.8854167 8.48828125 76.46875 8.68359375 76.0520833 8.87890625 75.6927083 9.15885417 75.390625 9.5234375L75.390625 9.5234375 75.328125 8.546875 73.5 8.546875 73.5 17 75.4453125 17zM85.7265625 20.328125C86.4921875 20.328125 87.1666667 20.1888021 87.75 19.9101562 88.3333333 19.6315104 88.7864583 19.2239583 89.109375 18.6875 89.4322917 18.1510417 89.59375 17.5078125 89.59375 16.7578125L89.59375 16.7578125 89.59375 8.546875 87.828125 8.546875 87.75 9.3828125C87.2135417 8.72135417 86.4609375 8.390625 85.4921875 8.390625 84.8046875 8.390625 84.2044271 8.5703125 83.6914062 8.9296875 83.1783854 9.2890625 82.7838542 9.79427083 82.5078125 10.4453125 82.2317708 11.0963542 82.09375 11.8489583 82.09375 12.703125L82.09375 12.703125 82.09375 12.8671875C82.09375 13.6848958 82.2330729 14.4192708 82.5117188 15.0703125 82.7903646 15.7213542 83.1848958 16.2317708 83.6953125 16.6015625 84.2057292 16.9713542 84.7994792 17.15625 85.4765625 17.15625 86.3776042 17.15625 87.1015625 16.8489583 87.6484375 16.234375L87.6484375 16.234375 87.6484375 16.796875C87.6484375 17.4375 87.46875 17.9309896 87.109375 18.2773438 86.75 18.6236979 86.2526042 18.796875 85.6171875 18.796875 85.2161458 18.796875 84.8333333 18.7122396 84.46875 18.5429688 84.1041667 18.3736979 83.7734375 18.1171875 83.4765625 17.7734375L83.4765625 17.7734375 82.5703125 18.9375C82.8046875 19.2552083 83.1054688 19.5182292 83.4726562 19.7265625 83.8398438 19.9348958 84.2213542 20.0872396 84.6171875 20.1835938 85.0130208 20.2799479 85.3828125 20.328125 85.7265625 20.328125zM85.96875 15.5625C85.328125 15.5625 84.8463542 15.3125 84.5234375 14.8125 84.2005208 14.3125 84.0390625 13.6640625 84.0390625 12.8671875L84.0390625 12.8671875 84.0390625 12.703125C84.0390625 12.1875 84.109375 11.7239583 84.25 11.3125 84.390625 10.9010417 84.6067708 10.5755208 84.8984375 10.3359375 85.1901042 10.0963542 85.5520833 9.9765625 85.984375 9.9765625 86.7447917 9.9765625 87.2994792 10.2916667 87.6484375 10.921875L87.6484375 10.921875 87.6484375 14.6015625C87.2994792 15.2421875 86.7395833 15.5625 85.96875 15.5625zM97.6953125 17L97.6953125 12.796875 100.039062 12.796875C100.914062 12.796875 101.66276 12.65625 102.285156 12.375 102.907552 12.09375 103.38151 11.6875 103.707031 11.15625 104.032552 10.625 104.195312 9.9921875 104.195312 9.2578125 104.195312 8.5546875 104.03125 7.92838542 103.703125 7.37890625 103.375 6.82942708 102.897135 6.39973958 102.269531 6.08984375 101.641927 5.77994792 100.898438 5.625 100.039062 5.625L100.039062 5.625 95.671875 5.625 95.671875 17 97.6953125 17zM100.039062 11.171875L97.6953125 11.171875 97.6953125 7.2578125 100.039062 7.2578125C100.518229 7.2578125 100.916667 7.35026042 101.234375 7.53515625 101.552083 7.72005208 101.786458 7.96484375 101.9375 8.26953125 102.088542 8.57421875 102.164062 8.90885417 102.164062 9.2734375 102.164062 9.86197917 101.990885 10.3255208 101.644531 10.6640625 101.298177 11.0026042 100.763021 11.171875 100.039062 11.171875L100.039062 11.171875zM108.242188 17.15625C108.710938 17.15625 109.130208 17.0703125 109.5 16.8984375 109.869792 16.7265625 110.1875 16.4973958 110.453125 16.2109375 110.515625 16.5546875 110.588542 16.8177083 110.671875 17L110.671875 17 112.65625 17 112.65625 16.8671875C112.442708 16.4140625 112.335938 15.8020833 112.335938 15.03125L112.335938 15.03125 112.335938 11.3046875C112.335938 10.6744792 112.196615 10.140625 111.917969 9.703125 111.639323 9.265625 111.252604 8.9375 110.757812 8.71875 110.263021 8.5 109.692708 8.390625 109.046875 8.390625 108.359375 8.390625 107.748698 8.51171875 107.214844 8.75390625 106.68099 8.99609375 106.269531 9.31640625 105.980469 9.71484375 105.691406 10.1132812 105.546875 10.5390625 105.546875 10.9921875L105.546875 10.9921875 107.492188 10.9921875C107.492188 10.7786458 107.552083 10.5859375 107.671875 10.4140625 107.791667 10.2421875 107.960938 10.1067708 108.179688 10.0078125 108.398438 9.90885417 108.651042 9.859375 108.9375 9.859375 109.416667 9.859375 109.778646 9.98567708 110.023438 10.2382812 110.268229 10.4908854 110.390625 10.8411458 110.390625 11.2890625L110.390625 11.2890625 110.390625 11.8359375 109.21875 11.8359375C107.989583 11.8359375 107.040365 12.0755208 106.371094 12.5546875 105.701823 13.0338542 105.367188 13.7239583 105.367188 14.625 105.367188 15.1041667 105.489583 15.5364583 105.734375 15.921875 105.979167 16.3072917 106.320312 16.609375 106.757812 16.828125 107.195312 17.046875 107.690104 17.15625 108.242188 17.15625zM108.617188 15.6015625C108.205729 15.6015625 107.885417 15.4934896 107.65625 15.2773438 107.427083 15.0611979 107.3125 14.78125 107.3125 14.4375 107.3125 13.9947917 107.486979 13.6510417 107.835938 13.40625 108.184896 13.1614583 108.697917 13.0390625 109.375 13.0390625L109.375 13.0390625 110.390625 13.0390625 110.390625 14.6171875C110.244792 14.8880208 110.014323 15.1197917 109.699219 15.3125 109.384115 15.5052083 109.023438 15.6015625 108.617188 15.6015625zM115.054688 20.4140625C115.794271 20.4140625 116.363281 20.2044271 116.761719 19.7851562 117.160156 19.3658854 117.466146 18.8645833 117.679688 18.28125L117.679688 18.28125 121.046875 8.546875 118.976562 8.546875 117.273438 14.21875 115.515625 8.546875 113.414062 8.546875 116.382812 16.96875 116.117188 17.6875C115.976562 18.0989583 115.785156 18.3867188 115.542969 18.5507812 115.300781 18.7148438 114.947917 18.796875 114.484375 18.796875L114.484375 18.796875 114.125 18.78125 114.125 20.2734375C114.489583 20.3671875 114.799479 20.4140625 115.054688 20.4140625zM124.054688 17L124.054688 10.890625C124.367188 10.28125 124.895833 9.9765625 125.640625 9.9765625 126.130208 9.9765625 126.501302 10.0963542 126.753906 10.3359375 127.00651 10.5755208 127.132812 10.9791667 127.132812 11.546875L127.132812 11.546875 127.132812 17 129.078125 17 129.078125 11.3671875 129.070312 11.1875C129.184896 10.8177083 129.378906 10.5234375 129.652344 10.3046875 129.925781 10.0859375 130.265625 9.9765625 130.671875 9.9765625 131.166667 9.9765625 131.53776 10.0898438 131.785156 10.3164062 132.032552 10.5429688 132.15625 10.9453125 132.15625 11.5234375L132.15625 11.5234375 132.15625 17 134.101562 17 134.101562 11.53125C134.101562 10.4427083 133.864583 9.64713542 133.390625 9.14453125 132.916667 8.64192708 132.231771 8.390625 131.335938 8.390625 130.768229 8.390625 130.265625 8.50390625 129.828125 8.73046875 129.390625 8.95703125 129.028646 9.2734375 128.742188 9.6796875 128.528646 9.2421875 128.223958 8.91796875 127.828125 8.70703125 127.432292 8.49609375 126.96875 8.390625 126.4375 8.390625 125.916667 8.390625 125.451823 8.48046875 125.042969 8.66015625 124.634115 8.83984375 124.286458 9.09895833 124 9.4375L124 9.4375 123.9375 8.546875 122.109375 8.546875 122.109375 17 124.054688 17zM139.765625 17.15625C140.541667 17.15625 141.203125 17.0052083 141.75 16.703125 142.296875 16.4010417 142.723958 16.0234375 143.03125 15.5703125L143.03125 15.5703125 141.992188 14.5625C141.460938 15.25 140.757812 15.59375 139.882812 15.59375 139.455729 15.59375 139.082031 15.5 138.761719 15.3125 138.441406 15.125 138.1875 14.8645833 138 14.53125 137.8125 14.1979167 137.700521 13.8151042 137.664062 13.3828125L137.664062 13.3828125 143.171875 13.3828125 143.171875 12.5625C143.171875 11.734375 143.03776 11.0065104 142.769531 10.3789062 142.501302 9.75130208 142.096354 9.26302083 141.554688 8.9140625 141.013021 8.56510417 140.34375 8.390625 139.546875 8.390625 138.817708 8.390625 138.161458 8.5703125 137.578125 8.9296875 136.994792 9.2890625 136.536458 9.79817708 136.203125 10.4570312 135.869792 11.1158854 135.703125 11.8802083 135.703125 12.75L135.703125 12.75 135.703125 13.0703125C135.703125 13.8411458 135.867188 14.5364583 136.195312 15.15625 136.523438 15.7760417 136.994792 16.2643229 137.609375 16.6210938 138.223958 16.9778646 138.942708 17.15625 139.765625 17.15625zM141.25 11.9765625L137.703125 11.9765625C137.791667 11.3359375 137.992188 10.8385417 138.304688 10.484375 138.617188 10.1302083 139.028646 9.953125 139.539062 9.953125 140.111979 9.953125 140.533854 10.1289062 140.804688 10.4804688 141.075521 10.8320312 141.223958 11.28125 141.25 11.828125L141.25 11.828125 141.25 11.9765625zM146.539062 17L146.539062 10.984375C146.710938 10.6666667 146.940104 10.4192708 147.226562 10.2421875 147.513021 10.0651042 147.838542 9.9765625 148.203125 9.9765625 148.703125 9.9765625 149.074219 10.0950521 149.316406 10.3320312 149.558594 10.5690104 149.679688 10.96875 149.679688 11.53125L149.679688 11.53125 149.679688 17 151.625 17 151.625 11.546875C151.625 10.4375 151.391927 9.63411458 150.925781 9.13671875 150.459635 8.63932292 149.796875 8.390625 148.9375 8.390625 148.4375 8.390625 147.979167 8.48828125 147.5625 8.68359375 147.145833 8.87890625 146.786458 9.15885417 146.484375 9.5234375L146.484375 9.5234375 146.421875 8.546875 144.59375 8.546875 144.59375 17 146.539062 17zM156.21875 17.15625C156.6875 17.15625 157.109375 17.09375 157.484375 16.96875L157.484375 16.96875 157.484375 15.46875C157.25 15.5208333 157.028646 15.546875 156.820312 15.546875 156.528646 15.546875 156.309896 15.4830729 156.164062 15.3554688 156.018229 15.2278646 155.945312 14.9869792 155.945312 14.6328125L155.945312 14.6328125 155.945312 9.984375 157.429688 9.984375 157.429688 8.546875 155.945312 8.546875 155.945312 6.484375 154 6.484375 154 8.546875 152.625 8.546875 152.625 9.984375 154 9.984375 154 14.765625C154 15.5989583 154.197917 16.2057292 154.59375 16.5859375 154.989583 16.9661458 155.53125 17.15625 156.21875 17.15625z" transform="translate(50 18)"/>
    </g>
    <use fill="#000" filter="url(#amount-awaiting-e)" xlink:href="#amount-awaiting-f"/>
    <use fill="#FFF" xlink:href="#amount-awaiting-f"/>
    <g transform="translate(241 14)">
      <g transform="translate(27)">
        <circle cx="10" cy="10" r="10" fill="#C9D2E6" opacity=".2"/>
        <path fill="#9BA3AE" fill-rule="nonzero" d="M10.9788242,9.99524148 L13.3763494,12.3887321 C13.6386865,12.6569753 13.636114,13.0859697 13.3705788,13.3510581 C13.1050436,13.6161464 12.675326,13.6187146 12.4066307,13.3568189 L10.0095021,10.964912 L7.61039047,13.3584027 C7.43858394,13.5381037 7.18274819,13.6107901 6.94190762,13.5483277 C6.70106705,13.4858653 6.51301901,13.2980569 6.45054984,13.0575961 C6.38808067,12.8171353 6.46099424,12.5617598 6.64106844,12.3903159 L9.03700721,9.99524148 L6.63948199,7.60175082 C6.4637852,7.42910512 6.39437013,7.17563144 6.45764527,6.93776212 C6.52092041,6.6998928 6.7071583,6.51419616 6.94550599,6.45131923 C7.18385369,6.3884423 7.43766932,6.45805133 7.61039047,6.63366403 L10.0095021,9.02755063 L12.4070274,6.63247619 C12.6763469,6.37473293 13.1026026,6.37905257 13.3666257,6.64220069 C13.6306488,6.9053488 13.6356728,7.33087954 13.3779358,7.60016704 L10.9788242,9.99524148 Z"/>
      </g>
      <circle cx="10" cy="10" r="10" fill="#C9D2E6" opacity=".2"/>
      <path fill="#9BA3AE" fill-rule="nonzero" d="M7.60615758,13.3552246 C7.43435105,13.5349256 7.1785153,13.607612 6.93767473,13.5451496 C6.69683416,13.4826872 6.50878612,13.2948788 6.44631695,13.0544179 C6.38384779,12.8139571 6.45676135,12.5585816 6.63683555,12.3871378 L12.4027945,6.62929804 C12.672114,6.37155478 13.0983697,6.37587442 13.3623928,6.63902254 C13.6264159,6.90217065 13.6314399,7.32770138 13.3737029,7.59698889 L7.60615758,13.3552246 Z" transform="rotate(45 9.994 10.003)"/>
    </g>
    <g transform="translate(17 15)">
      <g fill-rule="nonzero">
        <use fill="#000" xlink:href="#amount-awaiting-g"/>
        <use fill="#9BA3AE" xlink:href="#amount-awaiting-g"/>
      </g>
      <polyline stroke="#9BA3AE" stroke-linecap="round" stroke-linejoin="round" stroke-width="2" points=".088 5.732 3.313 8.778 .088 11.824" transform="rotate(180 1.7 8.778)"/>
    </g>
    <path fill="#1A3B8B" fill-rule="nonzero" d="M148.465414,30.8860375 C149.047527,30.8860375 149.596651,30.7428074 150.112409,30.4557736 C150.627978,30.1689311 151.073423,29.7847533 151.4478,29.303814 C151.821988,28.8226835 152.117192,28.2784476 152.333599,27.6709151 C152.549629,27.0633826 152.658022,26.4304168 152.658022,25.7720175 C152.658022,24.9619742 152.524746,24.3290084 152.258761,23.8735024 C151.9924,23.417614 151.439128,23.2093663 150.724117,23.2093663 C150.490933,23.2093663 150.249831,23.2321225 149.875454,23.3164542 C149.501077,23.4011684 149.178163,23.5763335 148.878812,23.8461568 L147.251611,30.7908057 C147.732872,30.8762848 147.899513,30.8860375 148.016199,30.8860375 L148.465414,30.8860375 L148.465414,30.8860375 Z M151.709638,20.0506564 C152.508346,20.0506564 153.198474,20.1942689 153.781153,20.4811114 C154.363265,20.7681452 154.845658,21.1561475 155.228517,21.6455009 C155.611,22.1352367 155.893762,22.7087305 156.076992,23.3671298 C156.259845,24.0253378 156.351648,24.7342213 156.351648,25.4935891 C156.351648,26.6581697 156.139577,27.7594538 155.715245,28.7974414 C155.290914,29.8354289 154.712759,30.7384092 153.980783,31.5063822 C153.248429,32.2745465 152.383554,32.8820791 151.385215,33.3289797 C150.387065,33.7760716 149.305406,34 148.140992,34 C147.991316,34 147.72929,33.9956018 147.354913,33.9873789 C146.980536,33.9785824 146.551869,33.9407192 146.069477,33.8734068 C145.586896,33.805712 145.075285,33.7045521 144.534833,33.5695449 C143.993814,33.434729 143.482392,33.2492374 143,33.0126879 L147.3174,14.6075325 L151.185774,14 L149.65735,20.5229904 C149.989879,20.3711551 150.303556,20.2619637 150.63665,20.1772495 C150.969178,20.0929179 151.326778,20.0506564 151.709638,20.0506564 L151.709638,20.0506564 Z"/>
  </g>
</svg>
