<svg xmlns="http://www.w3.org/2000/svg" width="10" height="10" viewBox="0 0 10 10">
  <path fill="#9BA3AE" d="M309.370354,19.9933381 L312.726889,23.344225 C313.094161,23.7197654 313.09056,24.3203575 312.71881,24.6914813 C312.347061,25.062605 311.745456,25.0662004 311.369283,24.6995465 L308.013303,21.3508769 L304.654547,24.7017638 C304.414018,24.9533452 304.055847,25.0551062 303.718671,24.9676588 C303.381494,24.8802114 303.118227,24.6172797 303.03077,24.2806345 C302.943313,23.9439894 303.045392,23.5864637 303.297496,23.3464423 L306.65181,19.9933381 L303.295275,16.6424511 C303.049299,16.4007472 302.952118,16.045884 303.040703,15.712867 C303.129289,15.3798499 303.390022,15.1198746 303.723708,15.0318469 C304.057395,14.9438192 304.412737,15.0412719 304.654547,15.2871296 L308.013303,18.6385709 L311.369838,15.2854667 C311.746886,14.9246261 312.343644,14.9306736 312.713276,15.299081 C313.082908,15.6674883 313.089942,16.2632314 312.72911,16.6402339 L309.370354,19.9933381 Z" transform="translate(-303 -15)"/>
</svg>
