<svg xmlns="http://www.w3.org/2000/svg" width="14" height="14" viewBox="0 0 14 14">
  <path fill="#9BA3AE" d="M293.11246,22.8259647 C293.915416,21.7794287 294.346482,20.4950283 294.337456,19.1759778 C294.346362,17.5441232 293.705546,15.9757972 292.556427,14.8171103 C291.407309,13.6584235 289.84435,13.0046249 288.212478,13 C284.797413,13.0023902 282.02362,15.7589943 282,19.1739778 C282.022526,22.5897433 284.796639,25.3475574 288.212478,25.3499556 C289.54035,25.3742941 290.836777,24.9447975 291.887464,24.13246 L294.512455,26.7409506 C294.672698,26.9074852 294.893844,27.0015909 295.124953,27.0015909 C295.356062,27.0015909 295.577208,26.9074852 295.737451,26.7409506 C295.905023,26.5828202 296,26.3626062 296,26.1322028 C296,25.9017994 295.905023,25.6815854 295.737451,25.523455 L293.11246,22.8259647 Z M288.212478,23.5214622 C287.042887,23.5397549 285.914278,23.0909397 285.076661,22.274439 C284.239044,21.4579382 283.761564,20.3411539 283.749994,19.1714778 C283.749994,16.706916 285.747916,14.7089939 288.212478,14.7089939 C290.67704,14.7089939 292.674962,16.706916 292.674962,19.1714778 C292.663391,20.3411539 292.185912,21.4579382 291.348294,22.274439 C290.510677,23.0909397 289.382068,23.5397549 288.212478,23.5214622 Z" transform="translate(-282 -13)"/>
</svg>
