<svg xmlns="http://www.w3.org/2000/svg" width="10" height="10" viewBox="0 0 10 10">
  <path fill="#FFF" d="M333.695437,10.304563 C333.305896,9.91514003 332.674451,9.91514003 332.284911,10.304563 L329,13.5894736 L325.715089,10.304563 C325.464632,10.045245 325.093742,9.94124509 324.744971,10.0325357 C324.396201,10.1238263 324.123826,10.3962006 324.032536,10.7449711 C323.941245,11.0937417 324.045245,11.4646317 324.304563,11.7150894 L327.589474,15 L324.304563,18.2849106 C324.045245,18.5353683 323.941245,18.9062583 324.032536,19.2550289 C324.123826,19.6037994 324.396201,19.8761737 324.744971,19.9674643 C325.093742,20.0587549 325.464632,19.954755 325.715089,19.695437 L329,16.4105264 L332.284911,19.695437 C332.535368,19.954755 332.906258,20.0587549 333.255029,19.9674643 C333.603799,19.8761737 333.876174,19.6037994 333.967464,19.2550289 C334.058755,18.9062583 333.954755,18.5353683 333.695437,18.2849106 L330.410526,15 L333.695437,11.7150894 C334.08486,11.3255488 334.08486,10.6941035 333.695437,10.304563 Z" opacity=".5" transform="translate(-324 -10)"/>
</svg>
