<svg xmlns="http://www.w3.org/2000/svg" xmlns:xlink="http://www.w3.org/1999/xlink" width="498" height="730" viewBox="0 0 498 730"><defs><style>.a,.ab,.af,.b,.c,.f{fill:none;}.a{clip-rule:evenodd;}.c{fill-rule:evenodd;}.ac,.d,.u,.y{fill:#fff;}.e{font-size:24px;}.ad,.e,.t{font-family:Heebo-Medium, Heebo;font-weight:500;}.f,.u{stroke:#d5dade;}.g{clip-path:url(#c);}.h{clip-path:url(#d);}.i{clip-path:url(#e);}.j{clip-path:url(#f);}.k{fill:#d7d7d7;}.l{clip-path:url(#g);}.m{clip-path:url(#i);}.n{clip-path:url(#j);}.o{clip-path:url(#n);}.p{clip-path:url(#o);}.q{clip-path:url(#p);}.r{fill:url(#q);}.s{clip-path:url(#r);}.ag,.t{fill:#73808c;}.t{font-size:12px;}.ad,.ae,.t,.v,.z{letter-spacing:0.002em;}.ad,.ae,.v{fill:#434d5a;}.ad,.v{font-size:14px;}.ae,.v,.z{font-family:Heebo-Regular, Heebo;}.ae,.v{opacity:0.5;}.w,.z{fill:#74818d;}.aa,.x{fill:#4f6ef7;}.y{font-size:16px;font-family:Heebo-Bold, Heebo;font-weight:700;}.z{font-size:11.65px;}.ab{stroke:#fff;stroke-linecap:round;stroke-linejoin:round;stroke-miterlimit:10;stroke-width:1.75px;}.ac,.af{stroke:#4f6ef7;}.ae{font-size:10px;}.ah{fill:#f0f0f0;}.ai{fill:#d80027;}.aj{fill:#0052b4;}.ak,.al{stroke:none;}.al{fill:#4f6ef7;}.am{filter:url(#a);}</style><filter id="a" x="0" y="0" width="498" height="730" filterUnits="userSpaceOnUse"><feOffset input="SourceAlpha"/><feGaussianBlur stdDeviation="7" result="b"/><feFlood flood-opacity="0.078"/><feComposite operator="in" in2="b"/><feComposite in="SourceGraphic"/></filter><clipPath id="c"><path class="a" d="M20,0A20,20,0,0,0,40-20,20,20,0,0,0,20-40,20,20,0,0,0,0-20,20,20,0,0,0,20,0Z" transform="translate(0 40)"/></clipPath><clipPath id="d"><path class="b" d="M-55,911H1385V-113H-55Z" transform="translate(55 113)"/></clipPath><clipPath id="e"><rect class="b" width="50" height="50"/></clipPath><clipPath id="f"><path class="b" d="M0,0H40V-40H0Z" transform="translate(0 40)"/></clipPath><clipPath id="g"><path class="a" d="M0-40H40V0H0Z" transform="translate(0 40)"/></clipPath><clipPath id="i"><rect class="b" width="86" height="79"/></clipPath><clipPath id="j"><path class="a" d="M-39.847,19.576-40-47.733c20.542.055,84.927-5.752,85.017,33.846C45.125,24.078-19.309,19.6-39.847,19.576Z" transform="translate(39.999 48.003)"/></clipPath><clipPath id="n"><rect class="b" width="107.653" height="95.999"/></clipPath><clipPath id="o"><path class="b" d="M-55.656-43.829,33.612-66.086,52,7.656-37.27,29.913Z" transform="translate(55.656 66.086)"/></clipPath><clipPath id="p"><rect class="b" width="92" height="76"/></clipPath><linearGradient id="q" x1="0.047" y1="-0.354" x2="0.268" y2="0.891" gradientUnits="objectBoundingBox"><stop offset="0" stop-color="#1a38bd"/><stop offset="0.1" stop-color="#1834b0"/><stop offset="0.2" stop-color="#152fa2"/><stop offset="0.3" stop-color="#132b95"/><stop offset="0.4" stop-color="#112688"/><stop offset="0.5" stop-color="#0f227b"/><stop offset="0.6" stop-color="#0c1e6d"/><stop offset="0.7" stop-color="#0a1960"/><stop offset="0.8" stop-color="#081553"/><stop offset="0.9" stop-color="#051045"/><stop offset="1" stop-color="#030c38"/></linearGradient><clipPath id="r"><path class="a" d="M18.7-11.659a4.04,4.04,0,0,0,2-.521,5.3,5.3,0,0,0,1.618-1.4,7.047,7.047,0,0,0,1.073-1.978,6.814,6.814,0,0,0,.393-2.3,4.58,4.58,0,0,0-.484-2.3,2.01,2.01,0,0,0-1.859-.8,4.414,4.414,0,0,0-1.028.13,2.634,2.634,0,0,0-1.207.642L17.23-11.774a5.247,5.247,0,0,0,.926.115Zm3.93-13.125a5.623,5.623,0,0,1,2.509.521,5,5,0,0,1,1.753,1.41,5.927,5.927,0,0,1,1.028,2.085,9.591,9.591,0,0,1,.333,2.576,10.473,10.473,0,0,1-.771,4,10.413,10.413,0,0,1-2.1,3.281A9.862,9.862,0,0,1,22.237-8.7a9.5,9.5,0,0,1-3.93.813q-.272,0-.952-.015A13.754,13.754,0,0,1,15.8-8.04a18.022,18.022,0,0,1-1.859-.368,9.335,9.335,0,0,1-1.859-.675l5.23-22.294L22-32.113l-1.851,7.9a6.872,6.872,0,0,1,1.186-.419A5.274,5.274,0,0,1,22.63-24.784Z" transform="translate(-12.08 32.113)"/></clipPath></defs><g transform="translate(-590.5 -226)"><g class="am" transform="matrix(1, 0, 0, 1, 590.5, 226)"><path class="d" d="M4.957,0H451.043C453.781,0,456,3.236,456,7.227V680.773c0,3.991-2.219,7.227-4.957,7.227H4.957C2.219,688,0,684.764,0,680.773V7.227C0,3.236,2.219,0,4.957,0Z" transform="translate(21 21)"/></g><text class="e" transform="translate(635.5 302)"><tspan x="0" y="0">Sign Up for BitPay</tspan></text><line class="f" x2="460" transform="translate(610 342)"/><g transform="translate(995.5 314.5)"><g class="g" transform="translate(0 -40)"><g class="h" transform="translate(-55 -73)"><g class="i" transform="translate(50 68)"><g class="j" transform="translate(5 5)"><path class="k" d="M-5-45H45V5H-5Z" transform="translate(0 40)"/></g><g class="l" transform="translate(5 5)"><g class="j"><g class="m" transform="translate(-40 -14)"><g class="n" transform="translate(0.001 5.997)"><g class="j" transform="translate(39.999 8.003)"><path d="M-61.717-47.471,36.667-72,57.281,10.678-41.1,35.208Z" transform="translate(0 40)"/></g></g><g class="n" transform="translate(0.001 5.997)"><g class="j" transform="translate(39.999 8.003)"><g transform="translate(-55.656 -26.086)"><g class="o"><g class="p"><g transform="translate(0 22.257) rotate(-14)"><g class="q"><rect class="d" width="92" height="76"/></g></g></g></g></g><g transform="translate(-9.389 2.341) rotate(-14)"><path class="r" d="M9.677,0,48.489,9.677,38.812,48.489,0,38.812Z" transform="translate(0 0)"/></g></g></g><g class="s" transform="translate(52.08 21.887)"><g class="j" transform="translate(-12.08 -7.887)"><path class="d" d="M7.08-37.113H33.253V-2.887H7.08Z" transform="translate(0 40)"/></g></g></g></g></g></g></g></g></g><g transform="translate(635.5 544)"><text class="t" transform="translate(0 13)"><tspan x="0" y="0">EMAIL ADDRESS</tspan></text><g transform="translate(0 23)"><g class="u"><rect class="ak" width="408" height="45" rx="3"/><rect class="b" x="0.5" y="0.5" width="407" height="44" rx="2.5"/></g><text class="v" transform="translate(12 27)"><tspan x="0" y="0">satoshi@bitpay.com</tspan></text></g></g><g transform="translate(635.5 632)"><text class="t" transform="translate(0 13)"><tspan x="0" y="0">PASSWORD</tspan></text><g transform="translate(0 23)"><g class="u"><rect class="ak" width="408" height="45" rx="3"/><rect class="b" x="0.5" y="0.5" width="407" height="44" rx="2.5"/></g><text class="v" transform="translate(12 27)"><tspan x="0" y="0">$trongPassword123</tspan></text><g transform="translate(377 14)"><path class="b" d="M0,0H17V17H0Z"/><path class="w" d="M12.088,12.885a7.243,7.243,0,0,1-3.842,1.093A7.154,7.154,0,0,1,1.181,8.2,7.017,7.017,0,0,1,3.362,4.308L1.319,2.3l.924-.908L15.174,14.1l-.924.908-2.162-2.125Zm-7.8-7.669A5.734,5.734,0,0,0,2.515,8.2a5.8,5.8,0,0,0,3.355,4,5.972,5.972,0,0,0,5.267-.251l-1.324-1.3a2.978,2.978,0,0,1-3.645-.4,2.851,2.851,0,0,1-.409-3.582ZM8.844,9.7,6.727,7.615a1.585,1.585,0,0,0,.365,1.721A1.654,1.654,0,0,0,8.843,9.7ZM14,11.149l-.935-.918a5.687,5.687,0,0,0,.915-2.03,5.788,5.788,0,0,0-2.732-3.684,5.971,5.971,0,0,0-4.6-.592L5.618,2.912a7.287,7.287,0,0,1,2.629-.488A7.154,7.154,0,0,1,15.313,8.2,6.967,6.967,0,0,1,14,11.149ZM8.066,5.318a2.968,2.968,0,0,1,2.259.841,2.861,2.861,0,0,1,.855,2.221L8.065,5.318Z" transform="translate(0.253 0.299)"/></g></g></g><g transform="translate(-0.5 109)"><g transform="translate(422 -132)"><path class="x" d="M4.425,0h399.15C406.019,0,408,1.6,408,3.571V46.429C408,48.4,406.019,50,403.575,50H4.425C1.981,50,0,48.4,0,46.429V3.571C0,1.6,1.981,0,4.425,0Z" transform="translate(214 882)"/><text class="y" transform="translate(418.382 912)"><tspan x="-55.809" y="0">Create Account</tspan></text></g><g transform="translate(4.5 -28)"><text class="z" transform="translate(778.5 746)"><tspan x="-118.893" y="0">I agree to the </tspan><tspan class="x" y="0">Terms of Use</tspan><tspan y="0" xml:space="preserve"> and </tspan><tspan class="x" y="0">Privacy Policy</tspan></text><g transform="translate(-0.5 97.5)"><g transform="translate(-39 3)"><g class="aa" transform="translate(675 634)"><path class="ak" d="M 12.57143020629883 15.5 L 3.428570032119751 15.5 C 1.813750028610229 15.5 0.5 14.18624973297119 0.5 12.57143020629883 L 0.5 3.428570032119751 C 0.5 1.813750028610229 1.813750028610229 0.5 3.428570032119751 0.5 L 12.57143020629883 0.5 C 14.18624973297119 0.5 15.5 1.813750028610229 15.5 3.428570032119751 L 15.5 12.57143020629883 C 15.5 14.18624973297119 14.18624973297119 15.5 12.57143020629883 15.5 Z"/><path class="al" d="M 3.428569793701172 1 C 2.089449882507324 1 1 2.089449882507324 1 3.428569793701172 L 1 12.57143020629883 C 1 13.91055011749268 2.089449882507324 15 3.428569793701172 15 L 12.57143020629883 15 C 13.91055011749268 15 15 13.91055011749268 15 12.57143020629883 L 15 3.428569793701172 C 15 2.089449882507324 13.91055011749268 1 12.57143020629883 1 L 3.428569793701172 1 M 3.428569793701172 0 L 12.57143020629883 0 C 14.46498012542725 0 16 1.535019874572754 16 3.428569793701172 L 16 12.57143020629883 C 16 14.46498012542725 14.46498012542725 16 12.57143020629883 16 L 3.428569793701172 16 C 1.535019874572754 16 0 14.46498012542725 0 12.57143020629883 L 0 3.428569793701172 C 0 1.535019874572754 1.535019874572754 0 3.428569793701172 0 Z"/></g><path class="ab" d="M18.347,15l-3.906,4.394L12,17.441" transform="translate(667.538 624.7)"/></g></g></g></g><g transform="translate(-0.5)"><text class="t" transform="translate(636 377)"><tspan x="0" y="0">FULL NAME</tspan></text><g transform="translate(636 387)"><g class="ac"><rect class="ak" width="408" height="49" rx="3"/><rect class="b" x="0.5" y="0.5" width="407" height="48" rx="2.5"/></g><text class="ad" transform="translate(12 36.533)"><tspan x="0" y="0">Satoshi</tspan></text><text class="ae" transform="translate(12 17.5)"><tspan x="0" y="0">First Name</tspan></text><text class="ad" transform="translate(216 36.533)"><tspan x="0" y="0">Nakamoto</tspan></text><text class="ae" transform="translate(216 17.5)"><tspan x="0" y="0">Last Name</tspan></text><line class="af" y2="48" transform="translate(204 0.5)"/></g></g><g transform="translate(635.5 456)"><text class="t" transform="translate(0 13)"><tspan x="0" y="0">DATE OF BIRTH</tspan></text><g transform="translate(0 23)"><g class="u"><rect class="ak" width="124" height="45" rx="3"/><rect class="b" x="0.5" y="0.5" width="123" height="44" rx="2.5"/></g><text class="ad" transform="translate(12 27)"><tspan x="0" y="0">September</tspan></text><g transform="translate(104 20)"><path class="ag" d="M11.757,14.343l-4-3.75,1.334-1.25,2.666,2.5,2.666-2.5,1.334,1.25Z" transform="translate(-7.757 -9.343)"/></g><g transform="translate(142)"><g class="u"><rect class="ak" width="124" height="45" rx="3"/><rect class="b" x="0.5" y="0.5" width="123" height="44" rx="2.5"/></g><text class="ad" transform="translate(12 27)"><tspan x="0" y="0">27</tspan></text><g transform="translate(104 20)"><path class="ag" d="M11.757,14.343l-4-3.75,1.334-1.25,2.666,2.5,2.666-2.5,1.334,1.25Z" transform="translate(-7.757 -9.343)"/></g></g><g transform="translate(284)"><g class="u"><rect class="ak" width="124" height="45" rx="3"/><rect class="b" x="0.5" y="0.5" width="123" height="44" rx="2.5"/></g><text class="ad" transform="translate(12 27)"><tspan x="0" y="0">2049</tspan></text><g transform="translate(104 20)"><path class="ag" d="M11.757,14.343l-4-3.75,1.334-1.25,2.666,2.5,2.666-2.5,1.334,1.25Z" transform="translate(-7.757 -9.343)"/></g></g></g></g><g transform="translate(635.5 720)"><text class="t" transform="translate(0 13)"><tspan x="0" y="0">COUNTRY</tspan></text><g transform="translate(0 23)"><g class="u"><rect class="ak" width="408" height="45" rx="3"/><rect class="b" x="0.5" y="0.5" width="407" height="44" rx="2.5"/></g><text class="ad" transform="translate(40 27)"><tspan x="0" y="0">United States</tspan></text><g transform="translate(388 20)"><path class="ag" d="M11.757,14.343l-4-3.75,1.334-1.25,2.666,2.5,2.666-2.5,1.334,1.25Z" transform="translate(-7.757 -9.343)"/></g><g transform="translate(12 13.002)"><circle class="ah" cx="9" cy="9" r="9" transform="translate(0 -0.002)"/><g transform="translate(0.31 1.957)"><path class="ai" d="M244.87,191.565h9.391a9.011,9.011,0,0,0-.31-2.348H244.87Z" transform="translate(-236.571 -184.521)"/><path class="ai" d="M244.87,58h8.07a9.047,9.047,0,0,0-2.077-2.348H244.87Z" transform="translate(-236.571 -55.652)"/><path class="ai" d="M102.246,458.3a8.961,8.961,0,0,0,5.6-1.957h-11.2A8.961,8.961,0,0,0,102.246,458.3Z" transform="translate(-93.556 -442.261)"/><path class="ai" d="M9.83,325.13H25.188a8.945,8.945,0,0,0,1.011-2.348H8.819A8.945,8.945,0,0,0,9.83,325.13Z" transform="translate(-8.819 -313.391)"/></g><path class="aj" d="M4.169,1.405h.82l-.763.554.291.9L3.755,2.3l-.763.554.252-.775A9.049,9.049,0,0,0,1.5,4.027h.263l-.486.353q-.113.189-.218.385l.232.714L.857,5.164q-.161.342-.294.7l.255.786h.943L1,7.2l.291.9L.527,7.546.07,7.878A9.087,9.087,0,0,0,0,9H9V0A8.957,8.957,0,0,0,4.169,1.405ZM4.518,8.1l-.763-.554L2.992,8.1l.291-.9L2.52,6.649h.943l.291-.9.291.9h.943L4.226,7.2ZM4.226,4.581l.291.9-.763-.554-.763.554.291-.9L2.52,4.027h.943l.291-.9.291.9h.943ZM7.746,8.1l-.763-.554L6.22,8.1l.291-.9-.763-.554h.943l.291-.9.291.9h.943L7.454,7.2ZM7.454,4.581l.291.9-.763-.554-.763.554.291-.9-.763-.554h.943l.291-.9.291.9h.943Zm0-2.622.291.9L6.983,2.3l-.763.554.291-.9-.763-.554h.943l.291-.9.291.9h.943Z"/></g></g></g></g></svg>