<svg xmlns="http://www.w3.org/2000/svg" width="254" height="254" viewBox="0 0 254 254">
  <g fill="none" fill-rule="evenodd" transform="translate(3 3)">
    <path fill="#FFF" fill-rule="nonzero" stroke="#B3A369" stroke-linejoin="round" stroke-width="3" d="M123.877811,-0.91849 C158.407739,-0.91849 189.663775,13.0714646 212.28899,35.688925 C234.917485,58.3096651 248.912668,89.5604266 248.915346,124.076705 C248.915346,158.607095 234.924204,189.864335 212.299807,212.488732 C189.676286,235.112253 158.420129,249.103655 123.888396,249.103655 C89.3701028,249.103655 58.1171117,235.110242 35.4944579,212.483711 C12.8743408,189.859716 -1.11738375,158.604535 -1.11738373,124.076938 C-1.12274032,89.5644233 12.8680747,58.3165905 35.4882996,35.6963656 C58.1101918,13.0744734 89.3627444,-0.91849 123.877811,-0.91849 Z"/>
    <path fill="#003057" fill-rule="nonzero" d="M224.580855,124.23548 C224.580855,179.78556 179.550148,224.81415 124.002185,224.81415 C68.454222,224.81415 23.423515,179.783443 23.423515,124.23548 C23.423515,68.6906925 68.452105,23.65681 124.002185,23.65681 C179.546973,23.65681 224.580855,68.687517 224.580855,124.23548"/>
    <path fill="#B3A369" fill-rule="nonzero" d="M123.401204,27.7252724 C122.982917,27.7179675 122.618835,27.7964341 122.334448,28.0173008 C121.76561,28.4590234 121.135168,31.1114021 120.630898,31.7426915 C120.124575,32.3740338 117.787238,34.0814473 116.587111,36.9235198 L115.071762,37.1757391 C115.071762,37.1757391 114.81823,34.5229264 114.18693,32.1851233 C113.555577,29.8493314 112.671582,28.8380405 112.671582,28.8380405 C112.671582,28.8380405 112.229626,28.585927 110.841964,28.8380405 C109.452154,29.090154 109.260459,29.5326811 109.260459,29.5326811 C109.260459,29.5326811 108.819721,30.9233384 109.13435,33.1340157 C109.451064,35.3447988 110.083274,37.8063405 110.083274,37.8063405 C110.083274,37.8063405 108.820483,37.9341332 107.176527,38.2487618 C105.534582,38.565465 104.333925,38.9454665 104.333925,38.9454665 C104.333925,38.9454665 103.954231,36.5434124 103.070711,34.3951867 C102.18517,32.2490779 101.241094,31.1121431 101.241094,31.1121431 C101.241094,31.1121431 100.607942,30.9231267 99.3453206,31.3023449 C98.0805189,31.6815631 97.7658269,31.9969855 97.7658269,31.9969855 C97.7658269,31.9969855 97.5128242,33.6398834 98.1441559,35.8485495 C98.7775623,38.0613437 99.5334372,40.2066057 99.5334372,40.2066057 C99.5334372,40.2066057 98.4598006,40.4585499 96.6928466,41.027356 C94.9238814,41.5961939 94.1023795,42.0383082 94.1023795,42.0383082 C94.1023795,42.0383082 93.3458061,40.0171024 92.2727623,37.8064252 C91.1976438,35.5956421 89.9965639,34.5854097 89.9965639,34.5854097 C89.9965639,34.5854097 89.4921569,34.3328939 88.1648296,34.9017212 C86.8395876,35.4705591 86.7135203,35.9747227 86.7135203,35.9747227 C86.7135203,35.9747227 86.7763423,37.996246 87.4722531,39.6380853 C88.1660998,41.2800305 89.4920828,43.8080461 89.4920828,43.8080461 C89.4920828,43.8080461 88.417917,44.2486679 86.7135203,45.0071149 C85.0070066,45.7655301 84.2512376,46.2703288 84.2512376,46.2703288 C84.2512376,46.2703288 83.49097,44.3773074 82.1012124,42.4187648 C80.7114019,40.4601164 79.3226499,39.4479787 79.3226499,39.4479787 C79.3226499,39.4479787 78.3769225,39.4497782 77.4288875,40.0185738 C76.4829061,40.5874117 76.2277017,41.2176426 76.2277017,41.2176426 C76.2277017,41.2176426 76.2902167,42.6697987 77.5549549,44.9430333 C78.8176395,47.2183849 79.8290363,48.5443679 79.8290363,48.5443679 C79.8290363,48.5443679 78.8800169,49.113301 77.3005973,50.1238616 C75.7233265,51.1344115 75.0285271,51.7033553 75.0285271,51.7033553 C75.0285271,51.7033553 73.8282939,49.8704567 72.3760319,48.16606 C70.9237699,46.4595463 69.3432177,45.5777099 69.3432177,45.5777099 C69.3432177,45.5777099 68.5846225,45.5129509 67.5114835,46.3984602 C66.4383762,47.2819372 66.438482,47.7237022 66.438482,47.7237022 C66.438482,47.7237022 66.6292872,49.113301 68.1440431,51.1989694 C69.6609794,53.2826267 70.9226056,54.6080804 70.9226056,54.6080804 C70.9226056,54.6080804 70.1023316,55.1760503 68.7125634,56.3136414 C67.3227529,57.4492002 66.438482,58.271443 66.438482,58.271443 C66.438482,58.271443 65.0499417,56.6287569 63.0913992,54.9243602 C61.1327508,53.2199635 60.058585,52.9644416 60.058585,52.9644416 C60.058585,52.9644416 59.4276343,52.9028051 58.4170632,53.9133656 C57.4065132,54.9239262 57.5342954,55.4287142 57.5342954,55.4287142 C57.5342954,55.4287142 57.6586585,56.4384809 59.7422205,58.713769 C61.8278889,60.9870036 62.7750347,61.6804269 62.7750347,61.6804269 C62.7750347,61.6804269 61.8276349,62.5673335 60.5649926,63.8924802 C59.3023079,65.2197334 58.8594315,65.8502818 58.8594315,65.8502818 C58.8594315,65.8502818 57.5344012,64.5864328 55.3862813,63.0696023 C53.2401726,61.554783 51.848986,61.2399851 51.848986,61.2399851 C51.848986,61.2399851 51.2811537,61.3039608 50.3956655,62.3770258 C49.5122414,63.4501331 49.5749152,64.0185476 49.5749152,64.0185476 C49.5749152,64.0185476 49.8290399,65.0291928 51.9751698,66.9231774 C54.1233955,68.8192685 55.5744932,69.6397118 55.5744932,69.6397118 C55.5744932,69.6397118 54.9449927,70.2719327 53.7448759,71.9137932 C52.5446428,73.5557384 52.1653822,74.2499027 52.1653822,74.2499027 C52.1653822,74.2499027 50.7740898,73.1764779 48.3738352,71.9137932 C45.9795082,70.6531197 44.7188347,70.5885512 44.7188347,70.5885512 C44.7188347,70.5885512 44.1516269,70.7161428 43.4556208,71.8537763 C42.7617741,72.9893351 42.7609802,73.6193543 42.7609802,73.6193543 C42.7609802,73.6193543 43.5795818,75.009694 45.9798787,76.464073 C48.3802392,77.916335 49.3290786,78.4198635 49.3290786,78.4198635 C49.3290786,78.4198635 48.8862445,79.1172774 47.8757581,80.8841573 C46.8652081,82.6531225 46.4864768,83.4104793 46.4864768,83.4104793 C46.4864768,83.4104793 45.1608114,82.4622538 42.5687566,81.578745 C39.9809358,80.6932039 38.7813378,80.6939026 38.7813378,80.6939026 C38.7813378,80.6939026 38.2131138,80.8199064 37.6442971,81.8929714 C36.9962834,83.1181851 37.0778302,83.85289 37.0778302,83.85289 C37.0778302,83.85289 37.8966117,85.1161039 40.803221,86.443357 C43.7078508,87.768599 44.2763712,87.8946664 44.2763712,87.8946664 C44.2763712,87.8946664 44.0243317,88.3363149 43.2033697,90.294921 C42.3824289,92.2534635 42.066329,93.2636959 42.066329,93.2636959 C42.066329,93.2636959 40.9269596,92.5687907 37.7703009,91.8103754 C34.6115252,91.0540242 33.9807651,91.4299717 33.9807651,91.4299717 C33.9807651,91.4299717 33.539741,91.4945719 33.0979972,92.7572248 C32.6562746,94.0199095 32.7816857,94.7791715 32.7816857,94.7791715 C32.7816857,94.7791715 33.2863361,95.7905259 36.4430372,96.8011182 C39.6018129,97.8116682 40.4227855,97.9381589 40.4227855,97.9381589 C40.4227855,97.9381589 40.1724185,98.5684533 39.6661273,100.46247 C39.1619003,102.358561 38.9073945,103.495284 38.9073945,103.495284 C38.9073945,103.495284 37.4550267,102.989638 34.6775227,102.610441 C31.8980075,102.231223 30.56959,102.738615 30.56959,102.738615 C30.56959,102.738615 30.0051026,103.180094 29.7488397,104.632378 C29.5592306,105.705379 29.9390416,106.147726 29.9390416,106.147726 C29.9390416,106.147726 30.3797269,107.033352 33.7906055,107.72722 C37.2015159,108.423131 37.8964212,108.42186 37.8964212,108.42186 C37.8964212,108.42186 37.5820573,109.621141 37.3299543,111.454675 C37.0778408,113.286197 37.0136428,114.043025 37.0136428,114.043025 C37.0136428,114.043025 35.8134096,113.726713 32.7817598,113.726713 C29.7501099,113.726713 28.6759441,114.169134 28.6759441,114.169134 C28.6759441,114.169134 28.1699388,114.107424 28.1074132,116.191081 C28.1074132,116.191081 28.0454909,117.51844 28.297615,117.770575 C28.5497286,118.022688 28.9920863,118.59141 32.4633418,118.843576 C35.9388207,119.09569 36.6333025,118.969686 36.6333025,118.969686 C36.6333025,118.969686 36.4431007,120.54865 36.4431007,123.011462 L36.4431007,127.117278 C36.4431007,127.117278 34.3602902,126.991867 31.8328039,127.43359 C29.3074346,127.875312 28.1074132,128.568619 28.1074132,128.568619 C28.1074132,128.568619 27.7280891,129.076128 27.8551938,130.276297 C27.9822985,131.476467 28.4216607,132.17006 28.4216607,132.17006 C28.4216607,132.17006 29.3698014,132.800513 32.6556607,132.548389 C35.9394452,132.296264 36.7614763,131.979868 36.7614763,131.979868 C36.7614763,131.979868 36.8235891,132.676351 37.0777879,134.82247 C37.3299014,136.970696 37.4540529,137.791245 37.4540529,137.791245 C37.4540529,137.791245 35.6865696,137.916084 33.2862091,138.611995 C30.8858487,139.305842 29.432634,140.315545 29.432634,140.315545 C29.432634,140.315545 29.1180055,141.075241 29.432634,142.275464 C29.7493372,143.475591 30.1913668,143.854957 30.1913668,143.854957 C30.1913668,143.854957 31.138936,144.296098 34.2331432,143.664766 C37.3293616,143.033424 38.3389589,142.591765 38.3389589,142.591765 C38.3389589,142.591765 38.5918768,143.53727 39.0335995,145.306182 C39.4753221,147.075094 39.7923323,148.212929 39.7923323,148.212929 C39.7923323,148.212929 38.1493286,148.655763 35.6865166,149.666249 C33.2215877,150.676799 32.0871932,151.812147 32.0871932,151.812147 C32.0871932,151.812147 32.0243077,152.442134 32.4014407,153.579736 C32.7806589,154.717411 33.2862832,155.095084 33.2862832,155.095084 C33.2862832,155.095084 34.3594964,155.475573 37.5161551,154.402508 C40.6749308,153.3294 41.3077021,153.011215 41.3077021,153.011215 C41.3077021,153.011215 41.6232197,154.022252 42.2545621,155.601682 C42.8859044,157.181113 43.3275635,158.318217 43.3275635,158.318217 C43.3275635,158.318217 41.496041,159.011809 39.3499322,160.211979 C37.2017065,161.412106 36.1289167,162.738301 36.1289167,162.738301 C36.1289167,162.738301 36.0671003,163.434921 36.571338,164.508007 C37.0776608,165.581115 37.7083787,165.959317 37.7083787,165.959317 C37.7083787,165.959317 38.5272448,166.403685 41.68601,164.824287 C44.8447751,163.244889 45.4755458,162.738301 45.4755458,162.738301 C45.4755458,162.738301 45.6661181,163.370607 46.6767316,165.264623 C47.6873027,167.158703 48.1941972,167.917118 48.1941972,167.917118 C48.1941972,167.917118 46.1722505,169.118198 44.5907457,170.1912 C43.0134748,171.264307 41.6240877,173.222003 41.6240877,173.222003 C41.6240877,173.222003 41.4961997,173.729987 42.2546362,174.865536 C43.0130514,176.003211 43.6439174,176.254817 43.6439174,176.254817 C43.6439174,176.254817 44.9701121,176.129088 47.4974925,174.487228 C50.0228618,172.843271 50.9087205,172.213146 50.9087205,172.213146 C50.9087205,172.213146 51.540158,173.285618 52.4882142,174.675429 C53.4341956,176.065239 54.129736,176.94951 54.129736,176.94951 C54.129736,176.94951 52.9913192,177.519851 51.0327767,179.413804 C49.0762453,181.307778 48.2563312,182.824926 48.2563312,182.824926 C48.2563312,182.824926 48.1279563,183.327724 48.9489077,184.338264 C49.7698274,185.348814 50.5284014,185.729556 50.5284014,185.729556 C50.5284014,185.729556 51.9191646,185.47703 54.3819765,183.39133 C56.8447885,181.307672 57.2245783,180.865008 57.2245783,180.865008 C57.2245783,180.865008 57.6029179,181.181944 58.9301393,182.696742 C60.2553813,184.213572 61.1380645,185.096997 61.1380645,185.096997 C61.1380645,185.096997 58.9306686,187.246069 57.7929928,188.698331 C56.655317,190.150593 56.0853147,191.602961 56.0853147,191.602961 C56.0853147,191.602961 56.1507935,192.361471 57.0342388,193.182455 C57.9197799,194.003374 58.6757606,194.191332 58.6757606,194.191332 C58.6757606,194.191332 60.1924852,193.622494 62.1489108,191.538837 C64.1075592,189.453169 64.6773497,188.508034 64.6773497,188.508034 C64.6773497,188.508034 65.181418,189.012007 66.8232468,190.401796 C68.4672031,191.791607 69.0973282,192.29757 69.0973282,192.29757 C69.0973282,192.29757 67.6461247,193.875687 66.5710062,195.644653 C65.4978989,197.413618 64.8013001,199.496217 64.8013001,199.496217 C64.8013001,199.496217 64.800683,200.00254 65.9383408,200.82347 C67.0759986,201.6444 67.5818737,201.64422 67.5818737,201.64422 C67.5818737,201.64422 68.8171432,201.245504 70.8028892,198.549378 C72.5718544,196.151134 73.0769706,195.454536 73.0769706,195.454536 C73.0769706,195.454536 73.6451099,195.834865 75.2870128,196.907856 C76.928958,197.982974 77.8133347,198.549378 77.8133347,198.549378 C77.8133347,198.549378 76.8510418,200.025879 75.9175612,201.834433 C74.8444539,203.917984 74.4683689,206.192489 74.4683689,206.192489 C74.4683689,206.192489 74.4673189,206.571633 75.6654265,207.267501 C76.8656597,207.961348 77.5612,207.960078 77.5612,207.960067 C77.5612,207.960067 78.8244139,207.20125 80.4038018,204.296705 C81.9810726,201.392075 82.1735079,201.013661 82.1735079,201.013661 C82.1735079,201.013661 82.6776609,201.455394 84.5737625,202.338903 C86.4677366,203.224444 87.2696562,203.664145 87.2696562,203.664145 C87.2696562,203.664145 85.8528539,206.349665 85.4048967,208.214425 C84.9569184,210.081407 84.8818495,211.573892 84.8818495,211.573892 C84.8818495,211.573892 84.9570348,212.168822 86.4489588,212.766822 C87.9408087,213.364821 88.2393057,212.990102 88.2393057,212.990102 C88.2393057,212.990102 89.5816954,211.797172 90.5526574,209.411419 C91.5215554,207.023655 91.894412,205.528841 91.894412,205.528841 C91.894412,205.528841 92.9380507,206.053423 94.5799324,206.649369 C96.2218776,207.245305 97.2675697,207.470119 97.2675697,207.470119 C97.2675697,207.470119 96.5950094,209.411091 96.1470416,211.573924 C95.6719763,213.867905 95.7749154,215.675611 95.7749154,215.675611 C95.7749154,215.675611 96.4458139,216.34724 97.6396748,216.647283 C98.833557,216.94524 99.4300217,216.647283 99.4300217,216.647283 C99.4300217,216.647283 100.474401,215.528554 101.220369,212.915647 C101.966294,210.30274 102.117617,208.888372 102.117617,208.888372 C102.117617,208.888372 103.22883,209.292422 104.954079,209.707058 C106.818944,210.157111 107.6396,210.155672 107.6396,210.155672 C107.6396,210.155672 107.169816,212.555079 106.965631,214.259476 C106.67809,216.676455 107.182709,218.381804 107.182709,218.381804 C107.182709,218.381804 107.745873,219.050448 108.700174,219.202555 C110.277445,219.454679 110.784149,219.076445 110.784149,219.076445 C110.784149,219.076445 111.982371,217.748239 112.361526,213.074856 C112.740744,208.401367 112.045458,207.139529 111.478747,206.318662 C110.909909,205.497742 103.058697,198.192452 95.8764573,190.401997 C87.6672605,181.496837 84.3197543,174.548843 84.3197543,174.548843 L103.773926,172.591041 C103.773926,172.591041 103.730771,174.854855 102.636885,177.77187 C100.36365,183.834958 98.4888353,184.788454 98.342974,185.917345 C98.1512796,187.369607 98.7833417,188.128551 100.108552,188.507812 C101.435805,188.88703 103.782605,187.976582 105.857901,187.432799 C111.415026,185.980537 116.08735,185.474998 116.08735,185.474998 L123.858646,191.854895 L132.322518,185.158612 C132.322518,185.158612 136.36313,186.106573 139.70926,186.233624 C143.057613,186.358644 145.915986,186.432443 146.405543,184.528063 C146.911855,182.571532 145.354516,179.973973 144.131461,177.265377 C142.908364,174.558793 141.795352,172.08656 141.795352,172.08656 C141.795352,172.08656 145.330742,172.970694 152.97417,173.854149 C160.617069,174.739691 164.216499,174.865102 164.216499,174.865102 C164.216499,174.865102 159.228635,183.896012 151.96542,190.463158 C149.706792,192.507121 146.465242,196.153971 143.373363,199.181281 C140.28339,202.208803 137.438777,204.928936 136.30089,206.191727 C134.931932,207.714908 135.226936,211.686294 135.35403,213.076105 C135.614484,215.953531 136.174558,218.25651 136.995552,219.139722 C136.995552,219.139722 137.123366,219.518464 138.765258,219.203761 C140.407203,218.887047 140.594875,218.571149 140.594875,218.571149 C140.594875,218.571149 141.037688,216.424193 140.720985,213.898824 C140.406356,211.371338 140.090436,210.171316 140.090436,210.171316 C140.090436,210.171316 140.722414,210.109076 142.933144,209.602785 C145.143927,209.098548 145.711706,208.846127 145.711706,208.846127 C145.711706,208.846127 145.963174,211.053735 146.594474,212.949932 C147.227881,214.843906 148.36418,216.675322 148.36418,216.675322 C148.36418,216.675322 148.553482,217.182174 150.259954,216.613294 C151.964351,216.044456 151.901476,215.66436 151.901476,215.66436 C151.901476,215.66436 152.216506,214.022838 151.585164,211.370448 C150.953832,208.718059 150.512163,207.456856 150.512163,207.456856 C150.512163,207.456856 151.207121,207.328397 153.292842,206.569939 C155.376394,205.813588 155.879181,205.558998 155.879181,205.558998 C155.879181,205.558998 156.699635,207.962428 157.270579,209.412573 C158.091499,211.498241 159.480621,213.011896 159.480621,213.011896 C159.480621,213.011896 159.669924,213.454021 161.376395,212.695585 C163.080792,211.939233 162.891744,211.560555 162.891744,211.560555 C162.891744,211.560555 162.952819,209.728927 162.006912,207.328672 C161.058866,204.928417 160.491563,203.601164 160.491563,203.601164 C160.491563,203.601164 160.996775,203.412624 163.017885,202.402096 C165.038985,201.391556 165.67038,200.948775 165.670274,200.948775 C165.670274,200.948775 166.637775,203.049898 167.43998,204.55011 C168.45053,206.446201 170.092476,207.897192 170.092476,207.897192 C170.092476,207.897192 170.472403,208.21163 171.860065,207.39069 C173.249875,206.569759 173.311374,206.127476 173.311374,206.127476 C173.311374,206.127476 173.187307,204.16978 171.860065,201.771536 C170.534823,199.371282 169.964291,198.486482 169.964291,198.486482 C169.964291,198.486482 170.595549,198.044664 172.364546,196.906988 C174.133511,195.771429 174.700655,195.201427 174.700655,195.201427 C174.700655,195.201427 175.978794,197.228666 176.974737,198.674577 C178.239433,200.5061 179.943512,201.645363 179.943512,201.645363 C179.943512,201.645363 180.450015,201.895593 181.775246,200.822549 C183.102499,199.749442 182.976432,199.37124 182.976432,199.37124 C182.976432,199.37124 182.723133,197.980582 181.270871,195.769905 C179.818609,193.559122 178.680404,192.422822 178.680404,192.422822 C178.680404,192.422822 178.996398,192.170963 180.892457,190.52906 C182.786431,188.887115 183.03846,188.507113 183.03846,188.507113 C183.03846,188.507113 184.117283,190.082479 185.754994,191.6661 C187.713643,193.56018 189.038038,194.192422 189.038038,194.192422 C189.038038,194.192422 189.480957,194.318077 190.745716,193.053265 C192.008401,191.79058 191.756668,191.539927 191.756668,191.539927 C191.756668,191.539927 191.313569,190.276925 189.544615,188.128699 C187.77566,185.980474 186.639985,185.095885 186.639985,185.095885 C186.639985,185.095885 187.208124,184.655337 188.850027,182.823815 C190.491972,180.992398 190.555588,180.801868 190.555588,180.801868 C190.555588,180.801868 191.599089,182.036926 193.522246,183.516286 C195.987175,185.410365 197.185609,185.6643 197.185609,185.6643 C197.185609,185.6643 197.503381,185.917048 198.641046,184.527259 C199.778711,183.13747 199.461797,182.947765 199.461797,182.947765 C199.461797,182.947765 199.145093,181.623793 196.809301,179.602694 C194.746497,177.819121 193.586275,177.012226 193.586275,177.012226 C193.586275,177.012226 194.281402,176.191296 195.544076,174.359731 C196.808772,172.528315 196.997397,172.211717 196.997397,172.211717 C196.997397,172.211717 198.612033,173.436296 200.470547,174.674 C202.743782,176.19083 204.195938,176.191466 204.195938,176.191466 C204.195938,176.191466 204.638147,176.254023 205.461163,174.864212 C206.280018,173.476519 206.217832,173.158651 206.217832,173.158651 C206.217832,173.158651 204.955994,171.580745 203.187029,170.318061 C201.42018,169.055376 199.523666,168.043979 199.523666,168.043979 C199.523666,168.043979 200.344194,166.71662 201.165188,165.137233 C201.986107,163.557845 202.302228,162.801123 202.302228,162.801123 C202.302228,162.801123 203.630011,163.807799 206.217832,164.885098 C209.249481,166.147782 210.071407,165.958099 210.071407,165.958099 C210.071407,165.958099 210.314576,166.080409 211.208447,164.442751 C211.966863,163.05294 211.586776,162.73719 211.586776,162.73719 C211.586776,162.73719 210.575909,161.411524 208.175654,160.146723 C205.775294,158.884038 204.386118,158.381145 204.386118,158.381145 C204.386118,158.381145 204.893405,157.179747 205.587304,155.34833 C206.281172,153.516914 206.472147,152.948076 206.472147,152.948076 C206.472147,152.948076 208.125524,153.796188 210.577962,154.527569 C213.547055,155.410994 214.491554,155.094036 214.491554,155.094036 C214.491554,155.094036 214.936262,155.094989 215.440489,153.642727 C215.946812,152.190465 215.692709,151.810993 215.692709,151.810993 C215.692709,151.810993 215.123066,150.800612 212.343509,149.665096 C209.566005,148.52742 207.925541,148.275814 207.925541,148.275814 C207.925541,148.275814 208.429123,146.821859 208.808309,145.305028 C209.187527,143.790315 209.37684,142.652533 209.37684,142.652533 C209.37684,142.652533 211.035404,143.190495 213.354471,143.663485 C216.45069,144.294828 217.588471,143.791659 217.588471,143.791659 C217.588471,143.791659 218.030522,143.725397 218.34514,142.148126 C218.661854,140.568738 218.407168,140.380537 218.407168,140.380537 C218.407168,140.380537 217.7759,139.493789 214.681778,138.672859 C211.58757,137.851886 210.197654,137.852109 210.197654,137.852109 C210.197654,137.852109 210.449979,136.400588 210.702093,134.569065 C210.956302,132.737648 211.018404,131.91657 211.018404,131.91657 C211.018404,131.91657 212.218849,132.420014 215.502528,132.547118 C218.786312,132.674212 219.356103,132.168789 219.356103,132.168789 C219.356103,132.168789 219.862098,131.85233 219.924623,130.275027 C219.989192,128.695639 219.672404,128.567349 219.672404,128.567349 C219.672404,128.567349 218.472171,127.810034 215.440521,127.36828 C212.408871,126.926547 211.398744,127.11605 211.398744,127.11605 C211.398744,127.11605 211.461302,125.535498 211.398744,122.755983 C211.334176,119.978479 211.208543,118.968564 211.208543,118.968564 C211.208543,118.968564 211.587285,119.284177 215.250319,118.842454 C218.913364,118.400721 219.418163,117.769453 219.418163,117.769453 C219.418163,117.769453 219.862055,117.326915 219.672446,115.747506 C219.482848,114.168118 219.165943,114.168012 219.165943,114.168012 C219.165943,114.168012 217.840596,113.598995 214.936072,113.66151 C212.029431,113.726078 210.766217,114.105995 210.766217,114.105995 C210.766217,114.105995 210.702495,112.905127 210.387888,111.009036 C210.071184,109.115062 209.883449,108.35654 209.883449,108.35654 C209.883449,108.35654 211.77827,108.294301 214.557785,107.53579 C217.335289,106.779439 217.902857,106.146509 217.902857,106.146509 C217.902857,106.146509 218.252902,105.664394 217.902857,104.124562 C217.588228,102.736869 217.082106,102.737398 217.082106,102.737398 C217.082106,102.737398 216.071546,102.103409 213.102358,102.545132 C210.135277,102.98894 208.872486,103.556084 208.872486,103.556084 C208.872486,103.556084 208.555995,101.850841 208.049661,100.209001 C207.545423,98.5670561 207.35502,97.9369311 207.35502,97.9369311 C207.35502,97.9369311 208.405264,97.944764 211.586903,96.6737172 C215.060265,95.2839067 214.998131,94.5877312 214.998131,94.5877312 C214.998131,94.5877312 215.123553,93.9577438 214.68182,92.8201421 C214.240097,91.6845833 213.732896,91.3668216 213.732896,91.3668216 C213.732896,91.3668216 211.903914,91.3044971 209.691119,91.873335 C207.482453,92.4400559 205.649343,93.2626162 205.649343,93.2626162 C205.649343,93.2626162 205.144089,91.9362099 204.450274,90.2318132 C203.754363,88.5252995 203.503414,87.8315586 203.503414,87.8315586 C203.503414,87.8315586 205.398023,87.3245265 207.671258,86.0618524 C209.94661,84.7991678 210.640033,83.9138384 210.640033,83.9138384 C210.640033,83.9138384 210.701214,82.9680263 210.00741,81.7679413 C209.311499,80.5677082 208.998532,80.6309006 208.998532,80.6309006 C208.998532,80.6309006 207.417662,80.6301988 205.206985,81.5157431 C202.996202,82.3991672 201.293393,83.4095055 201.293393,83.4095055 C201.293393,83.4095055 200.723931,82.2722531 199.778045,80.6929711 C198.829999,79.1157002 198.388763,78.4188897 198.388763,78.4188897 C198.388763,78.4188897 200.281361,77.5990179 202.554596,75.8945789 C204.829948,74.1880652 205.083035,73.4943243 205.083035,73.4943243 C205.083035,73.4943243 205.145804,72.9872922 204.26022,71.7246181 C203.376796,70.4619335 202.997007,70.5875774 202.997007,70.5875774 C202.997007,70.5875774 201.543792,70.652654 199.397683,71.8528025 C197.249457,73.0530356 195.670175,74.3150852 195.670175,74.3150852 C195.670175,74.3150852 195.040188,73.1774094 193.902586,71.66259 C192.767027,70.1456537 192.261064,69.5766041 192.261064,69.5766041 C192.261064,69.5766041 194.409184,68.2508328 195.988572,66.7340023 C197.565843,65.219183 198.260642,64.0194791 198.260642,64.0194791 C198.260642,64.0194791 198.197238,63.2619424 197.313782,62.3159292 C196.430358,61.3678836 195.922384,61.304977 195.922384,61.304977 C195.922384,61.304977 194.533738,61.6198278 192.325178,63.1345942 C190.112384,64.6515306 188.975978,65.8511286 188.975978,65.8511286 C188.975978,65.8511286 188.344329,65.0918243 186.892003,63.5770472 C185.437624,62.0601109 185.058258,61.6812737 185.058258,61.6812737 C185.058258,61.6812737 187.713187,59.2831361 188.723737,57.955883 C189.734287,56.6286298 190.239086,55.429561 190.239086,55.429561 C190.239086,55.429561 190.491295,54.8632318 189.166085,53.7880392 C187.876302,52.7462106 187.586591,52.8411792 187.586591,52.8411792 C187.586591,52.8411792 186.261666,53.3447712 184.365575,55.0491044 C182.471601,56.7556181 181.332761,58.272131 181.332761,58.272131 C181.332761,58.272131 180.892224,57.766602 179.060691,56.3143294 C177.229158,54.8620569 176.848638,54.6087684 176.848638,54.6087684 C176.848638,54.6087684 178.050459,53.4075826 179.819424,50.7551933 C181.588389,48.1026981 181.332761,47.5341778 181.332761,47.5341778 C181.332761,47.5341778 181.270733,47.0914919 180.197732,46.332992 C179.122613,45.5766408 178.428025,45.5783979 178.428025,45.5783979 C178.428025,45.5783979 177.290244,45.8929418 175.523396,47.9765355 C173.75443,50.0622039 172.744833,51.7040433 172.744833,51.7040433 C172.744833,51.7040433 171.987032,50.9449188 170.280539,49.9343371 C168.576143,48.9237872 168.006458,48.6090951 168.006458,48.6090951 C168.006458,48.6090951 169.268507,46.9025814 170.470752,44.3772121 C171.668762,41.8497258 171.543753,41.1561966 171.543753,41.1561966 C171.543753,41.1561966 171.543753,40.7775923 170.2165,40.0191559 C168.889247,39.2607407 168.386883,39.5147172 168.386883,39.5147172 C168.386883,39.5147172 167.248678,40.0825918 165.796416,42.2911627 C164.344154,44.5019458 163.522334,46.2088829 163.522334,46.2088829 C163.522334,46.2088829 162.702314,45.7671496 160.743772,44.8816297 C158.785123,43.9982056 158.345634,43.8706775 158.345634,43.8706775 C158.345634,43.8706775 159.608636,41.407548 160.429609,39.1343134 C161.250582,36.8589618 161.060168,35.975326 161.060168,35.975326 C161.060168,35.975326 160.805874,35.4065728 159.480674,34.9023246 C158.153421,34.3960017 157.64894,34.6501052 157.64894,34.6501052 C157.64894,34.6501052 156.576574,35.5342491 155.438898,37.7449475 C154.303339,39.9557306 153.669192,41.9768305 153.669192,41.9768305 C153.669192,41.9768305 152.974773,41.6597251 150.82659,40.9658783 C148.678364,40.2699675 148.302279,40.2071455 148.302279,40.2071455 C148.302279,40.2071455 149.249362,37.6189013 149.753589,35.2185409 C150.259912,32.8181804 149.94378,32.0616705 149.94378,32.0616705 C149.94378,32.0616705 149.817162,31.6821347 148.554499,31.3029377 C147.291814,30.9237195 146.532552,31.1747639 146.532552,31.1747639 C146.532552,31.1747639 145.509808,31.7807763 144.636778,34.3957794 C143.753354,37.0502857 143.373565,38.879903 143.373565,38.879903 L140.532974,38.3134361 C138.322191,37.8696282 137.690266,37.8069227 137.690266,37.8069227 C137.690266,37.8069227 138.384992,35.9750826 138.637126,33.0705586 C138.88925,30.1639176 138.511017,29.4712352 138.511017,29.4712352 C138.511017,29.4712352 137.941999,29.0303064 136.679282,28.8406867 C135.416598,28.6510776 134.909576,29.0288139 134.909576,29.0288139 C134.909576,29.0288139 133.964558,30.1657488 133.458267,32.5661092 C132.954029,34.9664697 132.763626,37.2384341 132.763626,37.2384341 L127.83705,36.6719672 C127.83705,36.6719672 127.773857,32.8824314 127.394628,31.050803 C127.017496,29.2192804 125.814711,28.2080954 124.804161,27.9559607 C124.298886,27.828856 123.826965,27.7342896 123.408635,27.7252724 L123.401204,27.7252724 Z"/>
    <path fill="#B3A369" fill-rule="nonzero" stroke="#B3A369" stroke-width=".75" d="M128.613264,228.58129 C129.092193,229.185054 129.300524,229.865683 129.33928,231.303049 C129.411068,233.398134 129.320079,233.989941 128.75754,234.559494 C129.090325,234.758446 129.301846,235.018314 129.451081,235.470262 C129.635098,236.027547 129.701958,236.945413 129.756877,238.601734 C129.806736,239.926626 129.591759,240.911167 129.139249,241.579183 C128.659569,242.287309 127.916088,242.674171 126.873126,242.713984 C125.917131,242.7476 125.052662,242.388093 124.517995,241.738322 C124.000721,241.101311 123.772208,240.329917 123.710744,238.883315 C123.650393,237.160965 123.648025,236.227685 123.790583,235.66202 C123.907054,235.19987 124.099822,234.934501 124.425712,234.717204 C123.812574,234.177254 123.679059,233.609404 123.605271,231.494818 C123.561835,230.063777 123.706424,229.366424 124.166111,228.72983 C124.626424,228.052477 125.400913,227.655046 126.358451,227.621057 C127.299014,227.586942 128.104661,227.937683 128.613264,228.58129 Z M126.910721,236.213638 C126.8539,236.129218 126.758773,236.12154 126.378768,236.22136 C126.290609,236.376274 126.282681,236.627722 126.294039,236.995992 L126.294039,236.995992 L126.386958,239.312119 L126.391977,239.408239 C126.413131,239.687317 126.498378,239.887764 126.896388,240.141933 C126.961367,240.130198 127.014961,240.104336 127.048775,240.045209 C127.137458,239.890136 127.14972,239.645348 127.138375,239.302283 L127.138375,239.302283 L127.059838,236.951801 L127.04992,236.788852 C127.030553,236.530545 126.994856,236.33864 126.910721,236.213638 Z M126.630477,230.104355 C126.588058,230.038017 126.515389,230.033695 126.221241,230.128819 C126.142123,230.269108 126.134517,230.488565 126.147116,230.794062 L126.147116,230.794062 L126.213352,232.648506 L126.21831,232.794597 C126.22985,233.026112 126.259624,233.197878 126.33542,233.311356 C126.384198,233.384385 126.466663,233.39254 126.560663,233.389047 C126.635527,233.385692 126.702878,233.372208 126.739045,233.30473 C126.816054,233.161055 126.827124,232.937411 126.815912,232.627941 L126.815912,232.627941 L126.755954,230.786577 L126.748938,230.635938 C126.734527,230.397237 126.704616,230.220299 126.630477,230.104355 Z M118.125255,227.524104 C119.426599,227.567028 120.186859,228.001075 120.630014,228.67776 C121.047068,229.326113 121.19466,230.019628 121.115065,231.431602 C121.011275,233.543981 120.865614,234.133533 120.257201,234.649589 C120.571587,234.877341 120.759702,235.154726 120.869608,235.61647 C121.005615,236.187865 120.993584,237.107571 120.908236,238.764749 C120.835549,240.086496 120.532307,241.05121 120.020239,241.678544 C119.479607,242.340871 118.706646,242.661597 117.664619,242.606143 C116.700686,242.548597 115.877031,242.121599 115.397293,241.425919 C114.943024,240.750061 114.777221,239.963021 114.854444,238.508837 C114.947479,236.788882 115.025666,235.855722 115.217342,235.302789 C115.37154,234.857971 115.583372,234.609653 115.920272,234.424363 C115.357332,233.836519 115.273908,233.250993 115.379597,231.150607 C115.459161,229.707253 115.674412,229.057471 116.192949,228.415308 C116.651764,227.880298 117.330919,227.563645 118.125255,227.524104 Z M118.271398,236.131201 C118.221542,236.039145 118.126101,236.019539 117.744698,236.083862 C117.642806,236.230695 117.611398,236.480283 117.587712,236.847739 L117.587712,236.847739 L117.474331,239.180058 L117.466938,239.332733 C117.455403,239.623773 117.465658,239.82976 117.538831,239.965147 C117.588238,240.056562 117.692847,240.059061 117.809176,240.064928 C117.91829,240.070428 118.010303,240.059576 118.067755,239.97543 C118.172514,239.821998 118.210837,239.569878 118.234827,239.215084 L118.234827,239.215084 L118.3502,236.883613 L118.355635,236.717895 C118.360553,236.455689 118.342713,236.262878 118.271398,236.131201 Z M118.12011,230.007115 C118.026615,230.14182 117.998854,230.366164 117.982919,230.675833 L117.982919,230.675833 L117.88369,232.516737 L117.87751,232.664266 C117.871064,232.898052 117.885773,233.071692 117.949953,233.19013 C117.990783,233.265476 118.071103,233.27639 118.161383,233.282098 C118.237226,233.28494 118.31307,233.280906 118.358862,233.213253 C118.448952,233.080153 118.478525,232.861779 118.495122,232.554845 L118.495122,232.554845 L118.594298,230.710835 L118.595185,230.63836 C118.592599,230.402408 118.525467,230.219981 118.12011,230.007115 Z M137.320177,226.835942 L137.553358,229.415508 L134.690754,229.748994 L134.841971,231.764421 C135.178365,231.431645 135.517729,231.281222 135.919946,231.237746 C136.651066,231.142005 137.277943,231.418348 137.757027,232.04015 C138.177997,232.586526 138.482589,233.423319 138.617164,234.519165 L138.617164,234.519165 L139.00184,237.724779 C139.182732,239.274999 139.100402,239.897511 138.662354,240.592904 C138.223453,241.314239 137.375664,241.839383 136.403662,241.961174 C135.456158,242.073733 134.678642,241.818362 134.095576,241.243414 C133.545184,240.700684 133.164254,239.853327 133.013645,238.697127 C132.962083,238.214663 132.94497,238.047465 132.9576,237.436755 L132.9576,237.436755 L135.462583,237.123629 L135.561385,238.023849 C135.622279,238.513406 135.697848,238.876802 135.815574,239.122777 C136.028922,239.222826 136.311593,239.370274 136.361217,239.264206 C136.433235,239.110269 136.439844,238.890917 136.406952,238.623157 L136.406952,238.623157 L135.887673,234.460498 C135.859875,234.221651 135.814374,234.039279 135.725872,233.926685 C135.233406,234.269676 135.158922,234.620608 135.120101,235.074821 L135.120101,235.074821 L132.804494,235.349659 L132.078255,227.484261 L137.320177,226.835942 Z M111.161339,227.02638 L112.903369,227.239821 L111.36366,241.802886 L108.695081,241.533163 L109.865496,230.381662 L108.881899,230.276065 L109.096799,228.30959 C110.109555,227.850581 110.443573,227.662254 111.161339,227.02638 L111.161339,227.02638 Z M161.806087,221.288946 L163.781562,226.738012 L168.612667,233.647647 L165.985326,234.600456 L164.163801,231.656908 L164.660889,235.073149 L162.092059,236.01968 L161.352473,227.629011 L159.367829,222.167904 L161.806087,221.288946 Z M85.8513408,221.249352 C86.2439982,221.263271 86.6656472,221.359494 87.1035402,221.540199 C88.1598511,221.961385 88.7464875,222.588451 89.0012401,223.560041 C89.1929665,224.336106 89.1287263,224.958736 88.6510817,226.141391 C88.4658382,226.591156 88.433051,226.669496 88.1926272,227.104378 L88.1926272,227.104378 L85.8049766,226.23663 L86.1540867,225.378128 C86.3495513,224.895723 86.4695138,224.540943 86.4834484,224.272929 C86.1815329,223.982953 85.9669991,223.752291 85.8347148,223.848063 C85.6655262,223.970553 85.5281255,224.202249 85.4033656,224.509174 C85.1097183,225.253798 85.1348439,225.775648 85.4896146,227.110364 L85.4896146,227.110364 L85.8328671,228.71847 C86.2794303,230.83707 86.2533076,231.872326 85.7871367,233.008117 C85.4247667,233.912226 84.8405443,234.531127 84.1428459,234.848492 C83.4332292,235.171278 82.5972359,235.18784 81.7260274,234.841262 C81.0610442,234.572342 80.5641101,234.141281 80.2608574,233.608527 C79.9573219,233.075277 79.8449259,232.436456 79.9674537,231.740917 C80.0863942,231.17089 80.1043391,231.14485 80.5931259,229.913215 L80.5931259,229.913215 L83.1138507,230.48325 C82.7855173,231.28589 82.6809715,231.576871 82.6043329,231.844524 L82.5702296,231.968178 C83.2081583,232.44029 83.3327,232.232877 83.4441853,231.945452 C83.7335272,231.236648 83.6881495,231.048656 83.2764673,229.059282 L83.2764673,229.059282 L82.9205651,227.459754 C82.576796,225.886328 82.6568259,224.385598 83.1003943,223.305215 C83.376825,222.619808 83.753655,222.105676 84.2026368,221.763501 C84.6756057,221.403045 85.2308511,221.22699 85.8513408,221.249352 Z M97.7162256,231.263554 C98.1984958,231.263554 98.6378526,231.45767 98.9559968,231.772956 C99.2731458,232.087257 99.4701335,232.521741 99.4701335,233.005077 C99.4701335,233.488282 99.2731068,233.924627 98.9557591,234.240562 C98.6374921,234.557412 98.198193,234.752846 97.7162256,234.752846 C97.2332459,234.752846 96.7942951,234.55752 96.4764324,234.241072 C96.1590647,233.925117 95.9623176,233.488586 95.9623176,233.005077 C95.9623176,232.521429 96.1590249,232.086763 96.4761912,231.772445 C96.7939288,231.457561 97.2329356,231.263554 97.7162256,231.263554 Z M150.525061,231.082609 L150.686574,231.089436 C151.168933,231.134345 151.584883,231.368563 151.872465,231.713734 C152.158872,232.057495 152.317957,232.512064 152.285044,232.999315 C152.233572,233.494787 151.997102,233.908855 151.653502,234.191877 C151.309712,234.475055 150.858159,234.627503 150.377187,234.583936 C149.892838,234.541466 149.474803,234.310972 149.189102,233.972964 C148.902743,233.634178 148.748524,233.186985 148.793798,232.708536 C148.829482,232.218482 149.058455,231.795011 149.397501,231.503184 C149.741102,231.207437 150.198226,231.046611 150.686574,231.089436 Z M72.984127,215.304207 L77.7744885,217.715016 L71.4335646,230.147389 L66.7919951,227.791594 L67.9229341,225.595037 L70.2414259,226.770788 L71.5810167,224.147623 L69.9661567,223.329842 L71.0916234,221.09662 L72.7081367,221.943165 L74.3357256,218.757942 L71.8696555,217.490775 L72.984127,215.304207 Z M173.883289,215.813999 C174.434381,215.803492 175.005322,215.978012 175.482865,216.313995 C176.035076,216.724712 176.375588,217.178059 176.925452,218.331708 L176.925452,218.331708 L179.987275,224.606191 C180.498598,225.654124 180.644579,226.54221 180.473293,227.271214 C180.293609,228.035963 179.772591,228.650588 178.879513,229.09289 C177.957707,229.547199 177.122421,229.568351 176.374309,229.202417 C175.66216,228.854075 175.016663,228.13153 174.47002,227.014239 C174.318668,226.716656 174.187212,226.436413 173.904433,225.698906 L173.904433,225.698906 L176.255848,224.536365 C176.444857,225.149976 176.556318,225.37226 176.691025,225.642226 C176.926083,226.125343 177.101412,226.455495 177.261629,226.67087 C177.785954,226.310088 177.829504,226.085271 177.661159,225.74311 L177.661159,225.74311 L176.286,222.918 L173.235342,224.415375 L169.982121,217.69061 L171.444753,216.964448 L171.809793,217.359434 C172.027288,216.712703 172.399831,216.283324 172.917919,216.044036 C173.21547,215.896794 173.545465,215.820284 173.883289,215.813999 Z M174.174572,218.637994 C173.817899,218.575253 173.546257,218.489165 173.505159,218.58332 C173.534996,219.089884 173.587947,219.192833 173.821209,219.691885 L173.821209,219.691885 L174.555031,221.18832 L175.271,220.831 L174.609323,219.472138 C174.356181,218.965443 174.271124,218.790366 174.196728,218.672058 Z M61.557095,207.868151 L63.6539203,209.328887 L62.2289731,211.957473 L63.0435784,212.528917 L65.0054534,210.27755 L67.0929254,211.741142 L57.5252615,222.082255 L55.0537989,220.339483 L61.557095,207.868151 Z M186.911207,208.528341 C187.564252,208.800863 187.852176,208.999064 188.758659,210.175821 L188.907072,210.36991 L192.81195,215.581143 C193.825691,216.928308 193.983806,217.251097 194.038125,218.005708 C194.092759,218.881787 193.644919,219.824727 192.794301,220.496178 C191.92014,221.120776 190.882708,221.311079 190.036117,221.010575 C189.387571,220.771489 189.093757,220.533502 188.189,219.365401 L188.032384,219.161946 L184.130633,213.974148 C183.094366,212.589367 182.964398,212.2766 182.903313,211.558434 C182.836511,210.641999 183.303007,209.674767 184.147983,209.051231 C184.674727,208.644394 185.276993,208.419497 185.863014,208.382478 C186.224813,208.359854 186.580761,208.408761 186.911207,208.528341 Z M186.309871,211.24685 C186.153901,211.043798 186.002693,210.909598 185.637065,211.001162 C185.539174,211.074826 185.464751,211.148905 185.466559,211.253355 C185.46924,211.408303 185.572391,211.579757 185.732205,211.790384 L185.732205,211.790384 L190.560324,218.202394 L190.64052,218.303036 C190.7715,218.462092 190.890457,218.575821 191.017923,218.615378 C191.111698,218.644479 191.197334,218.594315 191.289909,218.522462 C191.391017,218.445957 191.464321,218.370629 191.462676,218.264993 C191.460225,218.107645 191.357825,217.932432 191.197955,217.716791 L191.197955,217.716791 L186.362338,211.316869 Z M52.1080909,199.942039 L56.036367,203.3461 L46.8802336,213.887371 L44.921951,212.190987 L52.4544269,203.519196 L50.4902766,201.803172 L52.1080909,199.942039 Z M196.002064,199.492612 L205.347434,209.862745 L203.410494,211.590327 L195.728532,203.046264 L193.780809,204.789349 L192.143589,202.964509 L196.002064,199.492612 Z M205.270963,190.773864 C206.300508,190.923728 206.646193,191.095636 207.729778,192.06021 L207.928948,192.238814 L212.755421,196.58567 C214.019462,197.716558 214.209606,198.02967 214.420887,198.724178 C214.647169,199.610774 214.389101,200.641242 213.675467,201.424354 C212.950861,202.218226 211.952604,202.589071 211.070251,202.457513 C210.386593,202.346129 210.046451,202.190957 208.936035,201.194756 L208.754143,201.030356 L203.950194,196.697689 C202.651223,195.531961 202.474582,195.260823 202.26102,194.526687 C202.025791,193.647342 202.287868,192.630745 203.010831,191.806768 C203.627321,191.136066 204.463745,190.761805 205.270963,190.773864 Z M205.560274,193.59822 C205.38508,193.450231 205.216625,193.36474 204.853889,193.48128 C204.767863,193.574635 204.705439,193.659554 204.725835,193.76104 C204.756186,193.91206 204.890073,194.060524 205.086232,194.239727 L205.086232,194.239727 L211.044327,199.596378 L211.144804,199.684835 C211.30666,199.823012 211.441867,199.913167 211.571216,199.928901 C211.670757,199.94101 211.74489,199.870165 211.824568,199.782388 C211.907627,199.689935 211.967939,199.601597 211.947176,199.498111 C211.916217,199.343804 211.781591,199.192451 211.586202,199.010533 L211.586202,199.010533 L205.626681,193.656372 Z M37.4005669,192.611696 C37.8879293,192.611696 38.3253327,192.805513 38.6409643,193.120683 C38.9557475,193.435006 39.1503467,193.870766 39.1503467,194.359464 C39.1503467,194.849072 38.9558281,195.285732 38.641305,195.600739 C38.3255695,195.916961 37.8880162,196.111361 37.4005669,196.111361 C36.9151484,196.111361 36.4769131,195.916745 36.1603759,195.599721 C35.8458762,195.284737 35.6507871,194.848429 35.6507871,194.359464 C35.6507871,193.87136 35.8459502,193.435965 36.1606921,193.121683 C36.4771238,192.805714 36.9152151,192.611696 37.4005669,192.611696 Z M213.240036,177.908195 L225.203283,185.105513 L224.046124,187.004837 L218.226092,185.602194 L223.133047,188.5534 L221.79942,190.753824 L209.848707,183.557446 L211.124761,181.440048 L216.086996,182.632654 L211.905306,180.117252 L213.240036,177.908195 Z M31.3170197,174.646836 C32.2410615,174.678052 33.1410839,175.246445 33.6772922,176.187219 C34.2137705,177.108604 34.2630529,178.17279 33.8342641,178.97092 C33.5126432,179.603347 33.2632881,179.860172 31.9679364,180.611217 L31.7545517,180.734037 L26.1366444,183.979353 C24.6612565,184.814316 24.3097691,184.935769 23.5775468,184.903811 C22.6792373,184.846709 21.7931574,184.273037 21.2484583,183.359342 C20.7129332,182.407754 20.669273,181.350441 21.0769801,180.544826 C21.3973966,179.944501 21.6536546,179.682915 22.9402806,178.920617 L23.1521543,178.795971 L28.7729388,175.572272 C30.2640928,174.701733 30.6035658,174.604352 31.3170197,174.646836 Z M31.306784,177.215726 C31.1516655,177.198682 30.9686968,177.278414 30.7381967,177.410336 L30.7381967,177.410336 L23.7885955,181.414317 L23.7400672,181.443172 C23.5352374,181.568937 23.4080746,181.715275 23.6194913,182.314739 C23.7761776,182.33122 23.9629026,182.251828 24.1953768,182.119625 L24.1953768,182.119625 L31.1334228,178.114203 L31.182308,178.085197 C31.3886985,177.958983 31.5175744,177.814765 31.306784,177.215726 Z M219.417026,166.147203 L231.957188,172.256631 L230.821139,174.57535 L225.944944,172.207609 L225.607188,172.890411 L230.485286,175.275698 L229.350574,177.585982 L216.816175,171.470582 L217.954889,169.149555 L223.386523,171.800266 L223.722527,171.118895 L218.289402,168.469522 L219.417026,166.147203 Z M27.7161025,164.683548 L28.7649688,167.043467 L16.0203531,172.719648 L13.903864,167.957455 L16.1662278,166.965833 L17.2257643,169.351271 L19.9227939,168.146204 L19.1855724,166.492145 L21.4431451,165.46865 L22.1842752,167.147593 L27.7161025,164.683548 Z M225.514375,154.427777 C226.035525,154.422825 226.62978,154.538186 227.291465,154.781245 L227.291465,154.781245 L234.128818,157.266363 C235.217449,157.663794 235.939587,158.202072 236.323887,158.849273 C236.724587,159.524093 236.780164,160.32942 236.446177,161.275621 C236.089431,162.240234 235.502893,162.83075 234.710026,163.083235 C233.955844,163.323401 232.989629,163.249029 231.805858,162.823625 C231.391903,162.674623 231.169852,162.594456 230.50001,162.260228 L230.50001,162.260228 L231.385849,159.820565 C232.069904,160.143089 232.210552,160.21168 232.568349,160.357423 C233.005325,160.514344 233.33563,160.618421 233.588727,160.65678 C233.721198,160.013277 233.589788,159.824345 233.237778,159.687119 L233.237778,159.687119 L226.40679,157.210302 C226.141897,157.113932 225.930442,157.043026 225.759335,157.007334 C225.741839,157.771328 225.985017,157.95068 226.421185,158.108866 C227.21992,158.378142 227.44632,158.455131 228.116838,158.664292 L228.116838,158.664292 L227.230366,161.107894 C226.31062,160.801899 225.960774,160.689457 225.569289,160.56697 C224.347133,160.113548 223.548647,159.546523 223.121785,158.877919 C222.671389,158.172454 222.604772,157.343008 222.959318,156.370714 C223.189328,155.733777 223.520756,155.259539 223.938805,154.938253 C224.368548,154.607981 224.892983,154.433989 225.514375,154.427777 Z M15.7126534,149.340004 C16.1935654,149.340004 16.6325803,149.53596 16.9507554,149.853646 C17.2676525,150.170056 17.4645502,150.606841 17.4645502,151.089784 C17.4645502,151.566887 17.2670534,152.002653 16.9480564,152.318781 C16.6301898,152.633788 16.1922083,152.829296 15.7126534,152.829296 C15.2272379,152.829296 14.7894387,152.634412 14.4723464,152.321567 C14.151705,152.00522 13.9546173,151.568414 13.9546173,151.089784 C13.9546173,150.6053 14.1511058,150.167467 14.4696423,149.850832 C14.7870239,149.535345 15.2258286,149.340004 15.7126534,149.340004 Z M226.784808,141.183633 L240.56095,143.381439 L239.746746,148.515549 L237.299757,148.124028 L237.715127,145.543019 L234.797075,145.084963 L234.520188,146.878509 L232.061178,146.498821 L232.359042,144.697125 L228.824178,144.14186 L228.383707,146.879809 L225.929067,146.488956 L226.784808,141.183633 Z M8.30368915,131.288814 L8.41936185,133.079637 L19.8799975,132.285817 L20.0518964,134.861541 L8.60147567,135.661441 L8.72772409,137.377143 L6.25564563,137.537395 L5.8313817,131.449191 L8.30368915,131.288814 Z M239.54751,128.974696 L242.018967,129.111155 L241.707907,135.219301 L239.23534,135.079792 L239.334507,133.281248 L227.853639,132.700293 L227.999093,130.109498 L239.460624,130.688268 L239.54751,128.974696 Z M5.90501055,116.976615 L19.8358956,117.706348 L19.7020063,120.28816 L13.6521986,119.986284 L13.611761,120.739079 L19.6601389,121.053288 L19.52629,123.640131 L5.58292834,122.916851 L5.73380432,120.308313 L11.1461115,120.605898 L11.185541,119.849503 L5.7713748,119.576625 L5.90501055,116.976615 Z M234.897205,113.137433 L235.076653,113.138552 C235.559393,113.166443 235.983324,113.392675 236.278332,113.733119 C236.573795,114.074086 236.739222,114.529471 236.704716,115.011029 C236.671327,115.490615 236.443962,115.917993 236.102926,116.212786 C235.765811,116.50419 235.318445,116.666271 234.838092,116.624138 C234.3602,116.593485 233.939493,116.3689 233.645326,116.032908 C233.348304,115.693654 233.181127,115.241271 233.212995,114.764145 C233.244599,114.279081 233.468683,113.861972 233.803637,113.570883 C234.141734,113.277063 234.593858,113.111925 235.076653,113.138552 Z M7.5577349,102.975258 L10.0042165,103.39408 L9.58752878,105.956119 L12.5027889,106.409309 L12.7878423,104.630857 L15.2227152,104.999053 L14.9451804,106.792658 L18.4886554,107.360433 L18.9144509,104.627909 L21.3614212,105.016466 L20.5272239,110.305312 L6.74574116,108.12701 L7.5577349,102.975258 Z M238.427501,94.0203144 L239.587208,99.08293 L237.178104,99.6496216 L236.596712,97.1006597 L233.723125,97.7601167 L234.119266,99.5221518 L231.720474,100.097385 L231.302362,98.3090176 L225.406636,99.6862821 L224.82741,97.1598124 L238.427501,94.0203144 Z M17.9566734,87.671794 C18.4407268,87.671794 18.8767128,87.8663831 19.1919144,88.1811222 C19.5075002,88.496245 19.702325,88.9321231 19.702325,89.4154345 C19.702325,89.8983729 19.5074033,90.3392269 19.1912831,90.6586917 C18.8757573,90.9775557 18.4399052,91.1755876 17.9566734,91.1755876 C17.472451,91.1755876 17.0363155,90.9776533 16.7206464,90.6591363 C16.4039759,90.339609 16.2089047,89.8985798 16.2089047,89.4154345 C16.2089047,88.9318966 16.4038782,88.4958548 16.7200045,88.1806792 C17.0353515,87.8662805 17.4716272,87.671794 17.9566734,87.671794 Z M232.134297,80.4000947 L232.229142,80.4013951 C233.667848,80.7009716 234.420516,81.4336603 234.786038,82.4171983 C235.143856,83.4332861 235.004711,84.4676374 234.48252,85.1939447 C234.043775,85.7431023 233.74959,85.9648159 232.346894,86.4688302 L232.116022,86.5508463 L226.022943,88.7907216 C224.400503,89.3737265 224.059268,89.397775 223.348896,89.2489245 C222.461235,89.0581079 221.662054,88.342504 221.294775,87.3199187 C220.935951,86.3200523 221.066018,85.2711265 221.620509,84.5310003 C222.05779,83.9872694 222.35749,83.7726616 223.73879,83.2545452 L223.97923,83.1652737 L230.076062,80.9379228 C231.102983,80.5700047 231.612908,80.4245186 232.037606,80.4029238 L232.134297,80.4000947 Z M231.666551,83.1217664 L224.131631,85.8711963 L224.01075,85.9150787 C223.819598,85.9880376 223.680942,86.0621688 223.608476,86.1684403 C223.549608,86.2547699 223.574969,86.3602604 223.617016,86.4807238 C223.656362,86.5892507 223.703799,86.6798097 223.80215,86.7085283 C223.953708,86.7527828 224.152982,86.7058611 224.410472,86.6190262 L224.410472,86.6190262 L231.949375,83.8803833 L232.088208,83.8244475 C232.262417,83.749601 232.391783,83.6717338 232.461448,83.567337 C232.533165,83.459864 232.306561,83.271957 231.666551,83.1217664 L231.666551,83.1217664 Z M20.8570649,68.7217052 C21.4902533,68.7290262 22.2282755,68.9278492 23.0630857,69.3284327 C23.3792498,69.4941501 23.6482772,69.638851 24.3173179,70.0114147 L24.3173179,70.0114147 L23.1731693,72.3672445 C22.5757341,71.9828243 22.3818243,71.8915712 22.0688741,71.7455698 C21.4729134,71.4508436 21.0798913,71.2844012 20.8006942,71.2740079 C20.6050166,71.9433699 20.8782761,72.0911958 21.3138852,72.3002574 L21.3138852,72.3002574 L24.137,73.675 L25.6206127,70.6373035 L32.318433,73.902335 L31.6108189,75.3828479 L31.0846907,75.2968814 C31.3166626,75.9483067 31.2836752,76.5056669 31.0336263,77.0056424 C30.8427548,77.4069448 30.5293201,77.7411105 30.1465072,77.9794604 C29.7624722,78.2185711 29.3091962,78.3606267 28.8494782,78.3789737 C28.1659495,78.410443 27.6035915,78.247475 26.4580157,77.6882276 L26.4580157,77.6882276 L20.1737891,74.628167 C19.1349265,74.1145323 18.4710255,73.5004636 18.1565505,72.8137081 C17.8299815,72.1005412 17.8590301,71.2949229 18.2946277,70.3911885 C18.5751041,69.8280103 18.9296891,69.4127173 19.3497013,69.1364767 C19.7805039,68.8531392 20.282583,68.7123564 20.8570649,68.7217052 Z M26.558792,73.9741834 L26.211,74.684 L27.5915328,75.3563475 C28.2631439,75.6859517 28.3331669,75.7250978 28.5201465,75.7712098 L28.5656988,75.78211 C28.6451875,75.1013521 28.5686019,74.9717459 28.1437703,74.7509914 L27.9398182,74.6489292 L26.558792,73.9741834 Z M220.186898,66.6291052 C221.064323,66.6786125 221.450777,66.9360565 221.720689,67.2733289 C222.000526,67.6230037 222.147117,68.081697 222.093366,68.5625359 C222.046674,69.0400669 221.808666,69.4551891 221.459874,69.7378485 C221.114653,70.0176136 220.660821,70.1677249 220.176951,70.1188104 C219.696314,70.0697053 219.278097,69.8262162 218.994861,69.4744477 C218.711572,69.1226127 218.563742,68.6632242 218.620386,68.1882105 C218.665247,67.7708486 218.851457,67.4037106 219.126215,67.1298747 C219.405993,66.851035 219.777824,66.6690273 220.186898,66.6291052 Z M28.2117077,54.6440826 L30.185771,56.1246072 L28.6014057,58.2011943 L30.9645562,59.9855468 L32.0616519,58.539255 L34.0338,60.0191405 L32.943956,61.4812658 L35.798087,63.6295863 L37.4721794,61.3968274 L39.4413779,62.9003968 L36.2177053,67.1906327 L25.0785657,58.78711 L28.2117077,54.6440826 Z M214.867607,48.2916954 L217.989202,52.449014 L216.02757,53.9536506 L214.454186,51.858561 L212.09644,53.6317808 L213.200955,55.0687383 L211.227489,56.5733469 L210.120556,55.1104675 L207.259522,57.2737545 L208.925939,59.4839638 L206.95068,60.9757643 L203.720138,56.6948345 L214.867607,48.2916954 Z M37.3778952,44.5699916 C38.4107304,44.7203784 38.7478551,44.8858423 39.8439878,45.8626163 L40.045598,46.0435722 L44.8693854,50.3866801 C46.1386325,51.5399145 46.3327531,51.831606 46.5340448,52.5379601 C46.7747306,53.4245064 46.5092237,54.4395303 45.7918354,55.2473048 C45.0700398,56.0383904 44.0749665,56.4041289 43.1832272,56.2709509 C42.4820451,56.1319723 42.1654373,55.9740523 41.0586547,54.9955249 L40.8666731,54.8247013 L36.0422307,50.4841165 C34.7886406,49.3457629 34.5739813,49.0404352 34.3716782,48.3548246 C34.1447219,47.472159 34.4124176,46.4436807 35.1312034,45.636302 C35.7555282,44.9453521 36.5860162,44.5694075 37.3778952,44.5699916 Z M37.6847304,47.4043537 C37.5102154,47.2562838 37.3414002,47.1706272 36.9685661,47.2917521 C36.8908494,47.3795618 36.833183,47.467601 36.8551579,47.5705389 C36.8876026,47.7225201 37.0207438,47.8718871 37.2171897,48.0491348 L37.2171897,48.0491348 L43.179379,53.4154224 L43.2755245,53.50217 C43.4304312,53.6376496 43.5601231,53.725806 43.6865616,53.7392742 C43.7887483,53.7501592 43.8662571,53.6749568 43.9502096,53.5817276 C44.0314988,53.4915152 44.0918995,53.4050931 44.0697437,53.3030153 C44.0369666,53.1520023 43.90147,53.0042868 43.7016681,52.8279842 L43.7016681,52.8279842 L37.7508503,47.4625236 Z M203.78986,36.9228042 L208.331335,41.0073092 L206.671712,42.8565948 L205.331716,41.6427006 L197.649904,50.1803521 L195.724085,48.443689 L203.407335,39.9168252 L202.124102,38.7515412 L203.78986,36.9228042 Z M47.6719286,34.6054134 C47.9345833,34.6084129 48.2024412,34.6593473 48.4939185,34.7563347 C49.2385111,35.0153234 49.8973298,35.465971 50.6977779,36.3601603 C51.7692015,37.5467535 52.0964643,38.1382617 52.2114615,39.2200686 L52.2306659,39.428918 L57.6430425,43.4245336 L55.5940503,45.2579741 L52.7312414,43.0666205 L54.7961782,45.9773994 L52.9063758,47.6896709 L43.5619768,37.3182562 L45.1781334,35.8795253 C46.2023986,34.9461285 46.9244809,34.590996 47.6719286,34.6054134 Z M47.6978667,37.1588104 L47.6084094,37.1637359 C47.478835,37.1842608 47.3531746,37.259399 47.1646859,37.4143516 L47.1646859,37.4143516 L49.6089515,39.1281483 L49.5837001,39.0765971 C49.454606,38.8225171 49.2723103,38.6095802 48.5578213,37.8078119 C48.1768249,37.386273 47.9094822,37.1160894 47.6084094,37.1637359 Z M193.022365,28.1331466 L195.076155,29.7002964 L188.485889,38.4630201 C188.323829,38.6766635 188.218243,38.8476574 188.216059,39.0020675 C188.821208,39.3153312 188.957623,39.1610694 189.121787,38.9451935 L189.121787,38.9451935 L195.730365,30.1707924 L197.812123,31.7234768 L191.641095,39.8971875 C190.614717,41.2558903 190.328576,41.4882703 189.645281,41.7523529 C188.796845,42.0574243 187.757371,41.8855082 186.895548,41.2241898 C186.047769,40.5896359 185.581244,39.6281595 185.634071,38.7309502 C185.690415,37.9915949 185.848565,37.653128 186.872309,36.3032353 L186.872309,36.3032353 L193.022365,28.1331466 Z M60.1972034,24.6798044 C61.2721939,24.6679315 62.2912844,25.3555049 63.2097399,26.8705651 C63.486939,27.3533291 63.6031698,27.5545362 63.8742345,28.1179288 L63.8742345,28.1179288 L61.6512829,29.4769074 C61.3738762,28.8433064 61.2621427,28.6608584 61.0860934,28.3725032 C60.8256449,27.9412498 60.6275514,27.6383946 60.451929,27.4423123 C59.9574047,27.846347 59.9311339,28.0735893 60.1238273,28.3968098 L60.1238273,28.3968098 L61.752,31.103 L64.6452796,29.3523901 L68.5031798,35.7485963 L67.0931258,36.5871043 L66.69319,36.236869 C66.5336285,36.8972438 66.2032669,37.3513901 65.715739,37.6475556 C65.3309625,37.8749928 64.8797715,37.9848225 64.4250216,37.9754284 C63.9739707,37.9661108 63.5202998,37.839489 63.1318535,37.6017956 C62.5519769,37.2579046 62.1625233,36.8142991 61.5070261,35.7172428 L61.5070261,35.7172428 L57.9121605,29.7368418 C57.3111575,28.7408636 57.0871409,27.8628147 57.1955715,27.116731 C57.3090127,26.3361706 57.7760856,25.6760433 58.6291654,25.1675777 C59.1697206,24.8424765 59.6949461,24.6849681 60.1972034,24.6798044 Z M63.6206851,32.6673731 L62.934,33.069 L63.7293521,34.3902458 C64.0169511,34.8686673 64.1098777,35.0212497 64.1969416,35.1325899 L64.2230736,35.1650392 C64.573818,35.2069299 64.8677411,35.2797989 64.9016903,35.1790611 C64.8192422,34.6464047 64.7551795,34.5526688 64.4293776,34.0133307 L64.4293776,34.0133307 L63.6206851,32.6673731 Z M180.942939,20.3931982 L186.181678,23.5355006 L184.922554,25.664727 L183.369863,24.724802 L177.457086,34.5698685 L175.246485,33.2300864 L181.159744,23.389858 L179.673212,22.5049681 L180.942939,20.3931982 Z M71.0322477,18.2712391 L77.1528667,30.8072362 L74.8266324,31.9398089 L68.7161594,19.4132778 L71.0322477,18.2712391 Z M171.478831,15.7515808 L173.826668,16.889199 L167.700531,29.4119493 L165.362925,28.2867485 L171.478831,15.7515808 Z M83.4669733,12.9601604 L89.9492707,25.4552363 L87.5346464,26.3364727 L86.19519,23.6554434 L85.2783845,23.9912895 L85.9879152,26.8956288 L83.586824,27.7609682 L80.6136114,14.0044632 L83.4669733,12.9601604 Z M158.068405,10.6572963 L163.813748,12.747565 L162.956149,15.0739578 L161.264582,14.448133 L157.341992,25.2402828 L154.901145,24.3646195 L158.838727,13.5626481 L157.210687,12.9896195 L158.068405,10.6572963 Z M144.929126,7.56193578 C145.142679,7.5578666 145.358557,7.57220444 145.582838,7.60794998 C146.293785,7.72203919 146.872648,8.02731487 147.286147,8.4759246 C147.699235,8.92408895 147.951278,9.51860376 147.992456,10.2378478 C148.011292,10.8055361 147.999079,10.8397015 147.779768,12.2399057 L147.779768,12.2399057 L145.208361,12.1603958 C145.367341,11.1706813 145.397945,10.9209315 145.40287,10.5957687 C144.679254,10.2756526 144.600467,10.5103504 144.550413,10.8088244 C144.435703,11.5650354 144.514098,11.7270604 145.364459,13.5799957 L145.364459,13.5799957 L146.089141,15.0689908 C146.756131,16.5107714 147.035774,18.0017764 146.84503,19.1725678 C146.69372,20.1492541 146.286884,20.8639274 145.69478,21.306716 C145.099473,21.7518995 144.305242,21.932205 143.337196,21.7837741 C142.20585,21.5907983 141.478637,21.1009158 141.046758,20.2393252 C140.66527,19.5175004 140.593168,18.8960829 140.79387,17.6573141 C140.829971,17.3428304 140.865001,17.2180597 140.940199,16.8104765 L140.940199,16.8104765 L143.528834,16.8436821 L143.394349,17.8031528 C143.312285,18.3214253 143.275547,18.6957119 143.322386,18.9605316 C143.684473,19.1778427 143.947613,19.3560946 144.056182,19.2320099 C144.192197,19.076557 144.271657,18.8224271 144.320141,18.4884357 C144.450469,17.6872838 144.295595,17.2015152 143.646959,15.9798041 L143.646959,15.9798041 L142.963062,14.4914802 C142.047723,12.5243142 141.840233,11.518689 142.039716,10.3064137 C142.174879,9.46686849 142.516793,8.80094833 143.000703,8.33565086 C143.503569,7.85212695 144.162555,7.57895956 144.929126,7.56193578 Z M127.30469,5.8812001 L129.542151,5.99490191 L131.014591,11.7699143 L131.304273,6.10149875 L133.910395,6.2262907 L133.180635,20.161483 L130.680957,20.0385869 L129.414258,15.1050629 L129.15965,19.9382749 L126.564039,19.8249169 L127.30469,5.8812001 Z M118.093752,5.8704365 L119.081448,19.8073809 L116.486679,19.9788133 L115.510292,6.06286316 L118.093752,5.8704365 Z M101.952702,12.9576773 C102.436913,12.9576773 102.875558,13.1548181 103.193324,13.4725843 C103.511932,13.7911927 103.708727,14.2308982 103.708727,14.7137023 C103.708727,15.2068043 103.51307,15.6407084 103.198728,15.9531706 C102.880982,16.2690166 102.440454,16.4614709 101.952702,16.4614709 C101.469829,16.4614709 101.030697,16.2685392 100.713656,15.9510086 C100.40195,15.6388213 100.207051,15.2057224 100.207051,14.7137023 C100.207051,14.2318992 100.403089,13.7930499 100.718999,13.4747494 C101.036055,13.1552932 101.473314,12.9576773 101.952702,12.9576773 Z"/>
    <g stroke="#003057" transform="translate(40.878 26.409)">
      <path fill="#FFF" fill-rule="nonzero" stroke-width="1.011" d="M145.90364,130.72475 C145.318131,128.216105 135.618725,124.136117 135.618725,124.136117 L138.189927,118.351944 C138.189927,118.351944 146.707677,121.243977 150.401842,121.083509 C154.098124,120.923072 154.919096,109.992546 155.062841,109.19232 C155.865025,104.6938 156.029621,97.6631376 155.942136,94.5945461 C155.752527,87.9603974 154.55656,83.0124391 153.677264,81.1642981 C151.943653,77.4721443 149.545515,78.7681716 146.716039,79.6474676 C143.901064,80.5059111 141.054652,81.38309 141.054652,81.38309 L136.929042,74.4282158 C136.929042,74.4282158 143.671687,71.1695177 147.159444,68.9959938 C150.639051,66.8123083 147.588666,63.3203168 145.41546,61.1678571 C143.236008,58.9862886 128.442412,41.5856071 121.437259,35.9353341 C114.4157,30.2702421 113.650933,33.7558826 111.044377,40.2859808 C108.439832,46.8095163 107.137665,50.7270248 102.791253,62.0328633 L96.2528981,60.7285795 C96.2528981,60.7285795 104.522959,38.331778 105.837616,33.9591145 C107.137771,29.618947 103.878967,28.5268925 101.695388,28.093966 C100.245243,27.810595 98.0052448,26.7417323 92.8902553,26.066621 L71.8292808,26.120795 C68.9996986,26.7187946 65.3782525,27.8835151 64.2864098,28.0939449 C62.1278107,28.5273371 58.846249,29.6191375 60.1525439,33.9590934 C61.4631786,38.3326037 69.7309104,60.7285584 69.7309104,60.7285584 L63.1989069,62.0328421 C58.846249,50.7270036 57.5438706,46.8094951 54.9330804,40.2859596 C52.3306523,33.7560731 51.5596409,30.2699033 44.5444321,35.9353129 C37.5371621,41.5861151 22.7435661,58.9862674 20.5641146,61.1678359 C18.4033986,63.3201898 15.3508963,66.8122871 18.8263752,68.9959726 C22.3143444,71.169179 29.0546607,74.4281946 29.0546607,74.4281946 L24.9249229,81.3830689 C24.9249229,81.3830689 22.0974577,80.5058899 19.2635357,79.6474464 C16.4444326,78.7681505 14.0419552,77.4722289 12.3065444,81.1642769 C11.4356106,83.0124179 10.2396115,87.9609054 10.0500341,94.5945249 C9.95627217,97.9116522 10.3209043,104.279271 10.8959873,108.262935 L12.4983446,117.091355 L24.7473066,118.351922 L28.1227573,117.70809 L31.4420016,124.019396 C27.7478366,125.10076 24.4828933,127.059408 22.0970343,128.151145 C19.6987909,129.224252 19.1841482,132.799653 21.8782529,137.281766 L30.8024664,149.723375 C34.5342082,154.109375 38.4390147,157.543044 43.9215154,161.193281 C50.3868334,165.500106 64.7305669,162.428868 64.7305669,162.428868 L83.5083569,182.745717 L101.054053,162.011819 C101.054053,162.011819 118.79663,163.345317 123.09414,160.79285 C128.747059,157.4174 132.718551,153.569117 136.151796,149.217094 C136.151796,149.217094 147.028942,135.546567 145.903227,130.725099 L145.90364,130.72475 Z"/>
      <g stroke-width=".961">
        <path fill="#B3A369" fill-rule="nonzero" d="M77.344595,37.890066 L77.344595,36.0356799 C74.7338048,33.2165768 68.10389,24.6239914 73.9732725,16.5762159 C74.9588418,9.2879141 78.4280756,6.7708011 79.4113162,5.48525285 C80.3843424,4.18096915 80.7135888,0.58249255 82.7762877,1.14307415 C84.8536998,1.67231356 85.1682861,2.21618145 85.9371804,2.75368775 C86.6955957,3.3016732 86.6955957,6.13538355 86.8039861,8.09593725 C86.9144194,10.0587138 87.1248598,13.6340093 89.2980238,15.926191 C91.4795923,18.2056708 94.4133309,25.2775093 90.71906,29.834881 C87.36859,33.9958445 87.5936271,36.693961 88.1519858,37.890066 L77.3447008,37.890066 L77.344595,37.890066 Z"/>
        <path d="M89.9725,30.825637 C87.1283105,33.9530811 85.0697397,35.5971433 85.0697397,37.1200073 L85.0697397,40.3891845 M85.3906134,2.4271405 C84.8572352,3.1918009 83.7946071,11.732414 85.5010467,21.4547365 C86.2615789,25.8094055 84.2008911,26.6824563 82.2423486,30.5975302 C80.279572,34.508476 79.4148834,36.590228 79.8441051,38.9713237 M74.0699876,15.3635982 C73.857462,18.961969 72.9927522,27.7734523 80.8189836,33.6396592 M82.5629682,1.02304025 C83.2172271,2.0064926 82.3421016,16.4623212 82.2358388,18.7486812 C82.1233309,21.0240328 77.9894544,24.730794 77.4518422,30.6017642"/>
        <path fill="#FFF" fill-rule="nonzero" stroke-linejoin="round" d="M155.3878,109.967565 C156.798357,112.588729 158.534085,117.802053 150.599675,119.321 M13.4710002,111.17055 C11.7248986,113.656332 10.6352787,115.087741 10.6352787,117.806816 M70.8162962,94.3769185 C70.8162962,87.6221008 76.2919167,82.5809945 83.0430297,82.5809945 C89.8020815,82.5809945 95.2919917,87.621254 95.2919917,94.3769185 C95.2919917,94.5477816 100.617834,94.4311137 100.617834,94.4311137 C100.567873,84.7463679 92.7103102,77.7470367 83.0065115,77.7470367 C73.301125,77.7470367 65.4417625,84.7458387 65.4417625,94.4311137 L70.8152377,94.3769185 L70.8162962,94.3769185 Z M102.463329,99.0787755 L102.463329,99.4413223 C102.463329,99.6767751 102.27372,99.8663842 102.023681,99.8663842 L64.4003573,99.8663842 C64.1711603,99.8663842 63.9607199,99.6767751 63.9607199,99.4413223 L63.9607199,99.0787755 L63.9607199,99.0017167 C63.5398285,98.9475215 63.2001876,98.5829212 63.2001876,98.1307829 L63.2001876,96.107566 C63.2001876,96.0305072 62.6688736,95.9429692 62.6605114,95.4929056 L62.6605114,94.9949131 C62.6605114,94.7573857 62.8542804,94.5552757 63.0918184,94.5552757 L102.928466,94.5552757 C103.159748,94.5552757 103.355602,94.7573857 103.355602,94.9949131 L103.355602,95.4929056 C103.355602,95.730433 103.170164,95.9846318 102.943052,95.9846318 C102.943052,95.9846318 102.878484,96.0304649 102.878484,96.107566 L102.878484,98.1307829 C102.878484,98.4579017 102.743048,98.7433368 102.474253,98.8975603 C102.474253,98.8975603 102.463668,99.0017167 102.463668,99.0788284 L102.463329,99.0787755 Z M70.3812527,113.790867 C71.5230567,115.322305 71.8980832,119.20827 69.4519427,120.143984 C65.103413,121.800431 62.7341724,118.96672 56.3625317,123.934049 C58.7170591,119.433519 62.3986279,118.272662 64.1488577,117.912243 C66.2095455,117.483021 70.9809459,117.103813 70.3807764,113.790867 L70.3812527,113.790867 Z M70.3812527,103.949993 C71.0355116,105.966858 70.2166454,106.952534 66.957852,108.296405 C63.6949199,109.659118 64.7826345,112.388566 65.4930997,113.257489 C66.1389964,111.453064 69.9728834,110.367572 71.1899467,108.794429 C72.2859176,107.371382 71.8004366,105.100159 70.3815174,103.950098 L70.3812527,103.949993 Z M95.7323277,114.354518 C94.6321228,115.319235 94.5238383,116.96732 94.6738277,117.932037 C94.8217637,118.878018 97.7430543,122.824424 110.644476,120.563679 C108.810942,120.269893 108.744257,120.184461 108.227497,119.676074 C109.190097,118.665524 110.273577,118.517652 110.571545,117.561191 C106.406348,118.809268 94.4484731,118.371685 95.8425176,114.327474 L95.7320843,114.354571 L95.7323277,114.354518 Z M95.7748794,104.672419 C94.3142553,106.347601 93.4766642,108.295876 95.8624174,109.573062 C97.7814779,110.604464 99.9941663,111.044165 100.238045,112.78815 C101.33825,111.692179 101.690307,109.591903 99.4441697,108.423002 C98.4794528,107.910434 94.8498563,107.3708 95.7749853,104.672525 L95.7748794,104.672419 Z M71.4696024,99.9858041 C74.1825379,105.267719 75.6555465,108.151602 83.2676434,108.151602 C91.8584294,108.151602 93.1064009,103.746866 94.6941509,100.252546 C89.9685835,103.678064 87.0263769,104.711477 83.0442999,104.711477 C79.0875211,104.711477 76.3080059,104.007204 71.4696024,99.98591 L71.4696024,99.9858041 Z M95.8256874,119.633681 C95.8151024,124.755128 95.7923447,125.35752 95.7923447,125.35752 C95.7923447,125.35752 95.8818938,126.65143 95.0255673,127.511991 L95.0255673,132.241792 L101.105591,132.241792 L101.105591,127.511991 C100.238786,126.651483 100.345059,125.35752 100.345059,125.35752 C100.345059,125.35752 100.317961,126.282649 100.305471,121.161203 C100.305471,121.161203 99.8845798,121.17581 97.8801301,120.479846 C96.0361172,119.842259 95.8256874,119.633893 95.8256874,119.633893 L95.8256874,119.633681 Z M98.179368,110.675066 C96.283277,109.883308 95.7936149,109.537391 95.7936149,109.537391 L95.7936149,114.379711 C95.7936149,114.379711 95.224777,115.715326 97.1895647,116.82167 C98.520946,117.569712 100.285783,117.817613 100.285783,117.817613 L100.285783,112.760735 C100.285783,112.760735 99.9961563,111.433482 98.1792622,110.675066 L98.179368,110.675066 Z M95.8386011,106.420531 C95.8386011,106.420531 95.8280161,104.597371 95.8032472,104.19313 C95.751169,103.468057 95.7803836,102.784584 95.5073753,101.984464 C95.1510736,101.8011 94.9698161,101.334386 94.8948214,100.796827 C94.7072975,100.519701 94.4593439,100.215499 94.175994,99.8841881 L101.787668,99.8841881 C101.61473,100.071712 101.639732,100.271737 101.504296,100.425928 C101.44809,101.186461 101.260513,101.899043 100.702112,102.044904 C100.699995,102.474126 100.579178,102.79501 100.418741,103.028357 C100.360418,103.41382 100.360418,103.799315 100.339565,104.19313 C100.32083,104.514004 100.310457,109.02296 100.310457,109.02296 C100.310457,109.02296 99.9124819,108.527063 99.0540172,108.241628 C98.1955737,107.956172 97.4412866,107.772818 96.5807261,107.174872 C96.189007,106.901916 95.828556,106.237252 95.828556,106.237252 M85.3398795,104.598906 C85.3835955,103.873833 85.3398795,102.819567 85.6169948,102.019341 C85.9732965,101.835988 86.1483089,101.3672 86.2295487,100.831704 C86.4191578,100.554589 86.6587705,100.250376 86.9567382,99.9170017 L79.1492422,99.9170017 C79.3242652,100.106611 79.4805421,100.306636 79.6118067,100.460806 C79.6722471,101.221338 79.8660055,101.93392 80.4119269,102.079782 C80.4225119,102.509004 80.5411062,102.829888 80.7119587,103.063234 C80.7535578,103.448697 80.7515466,104.17794 80.7848894,104.571808 C80.7848894,104.571808 81.4037414,104.761417 83.1540241,104.728075 C84.9001257,104.694732 85.3397207,104.598895 85.3397207,104.598895 L85.3398795,104.598906 Z M85.4621892,108.112067 L85.4976489,125.264001 C85.4976489,125.264001 85.4184731,126.560029 86.2748525,127.416355 L86.2748525,132.23994 L80.1863605,132.23994 L80.1863605,127.416355 C81.04274,126.559976 80.9614472,125.264001 80.9614472,125.264001 L80.9864278,108.059142 C80.9864278,108.059142 81.4093938,108.136201 83.1013108,108.136201 C85.2620268,108.136201 85.4704455,108.084123 85.4704455,108.084123 M68.1449175,107.743233 C68.9700182,107.278594 70.0097828,106.653507 70.2701738,106.080541 C70.2701738,106.080541 70.3117728,105.195 70.3117728,104.228166 C70.3117728,103.47806 70.3346364,102.81962 70.6076447,102.0195 C70.9660317,101.834062 71.145204,101.367305 71.2181346,100.831863 C71.4077437,100.554748 71.6556973,100.250535 71.939079,99.9171604 L64.7650952,99.9171604 C64.9359583,100.104684 64.475479,100.30472 64.6088288,100.460965 C64.6692692,101.221497 64.8546972,101.932068 65.4130771,102.079941 C65.4151941,102.507077 65.5360113,102.830047 65.6964482,103.061329 C65.7547715,103.446803 65.7547715,103.834351 65.775624,104.228219 C65.7943594,104.547018 65.8069556,109.007982 65.8069556,109.007982 C65.8069556,109.007982 67.3280201,108.203734 68.1447587,107.743286 L68.1449175,107.743233 Z M68.3205649,116.880734 C66.3953652,117.599562 65.8056748,117.55791 65.8056748,117.55791 L65.8056748,112.71559 C65.8056748,112.71559 66.7328679,111.702976 67.9309311,111.00082 C69.2477051,110.227797 70.2979488,109.67145 70.2979488,109.67145 L70.2979488,115.061861 C70.2979488,115.061861 70.0645813,116.230762 68.3206708,116.880787 L68.3205649,116.880734 Z M67.2277696,120.680961 C67.8007356,120.653863 68.7363438,120.445519 69.4655444,120.18715 C69.9406098,120.018372 70.3510855,119.587086 70.3510855,119.587086 L70.3114976,125.35644 C70.3114976,125.35644 70.2323218,126.650351 71.0907653,127.510911 L71.0907653,132.238596 L65.0022733,132.238596 L65.0022733,127.510911 C65.8565357,126.650404 65.7752958,125.35644 65.7752958,125.35644 L65.8023934,120.889147 C65.8023934,120.889147 66.0566028,120.734955 67.2275578,120.680781 L67.2277696,120.680961 Z M59.7267093,134.241405 C59.7267093,133.764265 59.4787663,132.795388 60.6018242,132.2745 L105.617712,132.2745 C106.594919,132.416191 106.482401,133.983131 106.482401,134.460197 M91.8899198,141.189081 L70.5664373,141.189081 M101.587897,145.973289 C97.8894978,144.773162 94.4784816,144.552253 92.7848816,146.200401 C88.8676906,150.00719 104.525764,150.992654 105.723986,157.626909 M62.5541216,146.30731 C65.166923,146.090613 70.6341813,145.457175 70.9263273,147.397035 C71.3576343,150.232757 61.5728921,155.114559 58.5207073,157.296127 M3.61101983,120.312137 C-0.743649175,118.686916 0.341842575,115.955351 0.775298325,114.446989 C1.21077581,112.930158 3.16941363,109.004711 4.68836113,106.827377 C8.39099413,105.316685 10.9975504,107.927581 13.3934651,111.192525 C17.0918641,109.233876 25.7863831,109.867283 26.2203681,122.496246 C21.6592916,128.155516 14.4816031,130.437113 15.9984336,136.418697 C28.3998196,140.550446 66.8953476,130.757309 70.5905711,136.18534 C70.3717898,141.854666 71.2344038,145.342953 71.026038,148.169677 C75.3703337,148.169677 86.452617,147.171617 92.1060655,147.832132 C91.8914547,141.9691 91.6935152,136.184398 91.6935152,136.184398 C97.5565467,127.716398 133.647163,145.644212 153.451698,131.281637 C150.401312,127.791551 150.872133,129.02301 148.232234,128.797973 C145.636051,128.583362 135.180929,122.709481 142.800012,111.416345 C147.456883,104.49693 154.111143,107.488674 155.428976,110.091103 C159.335687,105.74469 161.721229,105.10091 164.549012,107.269882 C165.415817,110.312011 165.201154,111.618412 165.638737,114.231108 C166.070044,116.841898 164.990724,119.444326 159.110968,122.269886 C160.85707,119.238236 161.069616,117.827573 161.290419,115.32295 C155.852376,119.88191 149.543186,123.584543 148.232763,120.106947 C146.932608,116.618978 154.554655,115.95424 150.849799,112.262404 C147.155528,108.580729 140.633686,120.536169 150.414321,127.931379 C154.171044,130.767101 153.898057,131.631895 153.673019,135.561576 C153.460494,139.457915 153.673019,141.426725 153.673019,144.027459 C153.673019,146.640261 150.733036,147.311244 145.636358,148.169687 C132.580819,150.342894 113.002803,147.94465 101.475738,145.975629 C103.436398,151.424257 106.261852,155.116305 105.832524,157.735564 C105.394961,160.337992 103.873876,160.788066 92.3366492,159.031591 C80.8117012,157.29798 69.2962797,159.910887 63.4078442,161.654872 C57.5405787,163.380121 56.0173972,160.338098 57.9756222,158.175264 C59.9279196,155.993696 62.32828,150.780583 62.544955,146.417446 C51.451875,145.975713 25.7589045,153.75391 10.996005,146.86334 C9.36655007,146.094498 9.90627922,143.385744 9.68960427,140.764792 C9.4708229,138.143628 8.82697969,132.930304 11.2252761,131.204949 C13.6130404,129.452708 17.0904246,127.279396 20.9952311,126.635616 C21.87241,123.370567 21.2223428,122.710063 20.7806096,121.17852 C17.7469486,123.137168 10.5565581,122.709957 10.5565581,117.934323 C8.38959691,115.546559 7.29987116,115.108975 4.47018311,114.894311 C3.72425816,116.55912 3.38246851,117.934323 3.60967553,120.311714 L3.61101983,120.312137 Z M155.37875,109.971651 C156.789307,112.592814 158.525035,117.806139 150.590625,119.325086 M13.4619501,111.174636 C11.7158485,113.660417 10.6262286,115.093838 10.6262286,117.810902"/>
      </g>
    </g>
    <path fill="#003057" fill-rule="nonzero" d="M82.6761472,60.797458 C75.4751717,61.0520273 68.5282362,67.1147977 65.4966922,73.5576755 C62.4652541,80.0002358 60.8230972,86.5666405 60.1918078,95.1553095 C59.5584014,103.746096 59.8122085,110.82111 61.8333296,124.717098 C64.6505273,144.097174 76.7370096,163.242264 76.7370096,163.242264 C76.7370096,163.242264 82.1706076,162.486495 86.0877986,162.107234 C90.0031901,161.728005 95.8127673,161.220327 95.8127673,161.220327 C95.8127673,161.220327 83.8125528,145.558761 78.8873523,121.810255 C76.4015709,109.829094 78.7591786,98.3147309 78.7591786,98.3147309 C78.7591786,98.3147309 95.0558446,104.05794 123.73061,104.05794 C152.405375,104.05794 169.078867,98.3147309 169.078867,98.3147309 C169.078867,98.3147309 171.386291,106.808664 168.698473,122.064295 C164.783611,144.295971 151.89902,161.220327 151.89902,161.220327 C151.89902,161.220327 156.57198,161.978266 160.99344,162.609609 C165.414689,163.24094 170.594353,163.620561 170.594353,163.620561 C170.594353,163.620561 180.972522,148.971979 185.752073,125.473279 C188.025307,114.292344 188.445849,103.604669 187.647846,95.0308193 C186.84979,86.4590863 184.832025,80.0043533 182.97351,75.3247248 C178.804608,64.8400706 170.719256,60.9238323 164.656168,60.7968123 C158.84278,60.6761433 153.034896,67.9981054 154.676947,74.5678973 C156.318681,81.1353606 164.27786,81.8926115 164.27786,81.8926115 C164.27786,81.8926115 155.814941,87.704094 142.678109,85.3038394 C134.806362,83.8663964 132.318464,77.9770083 132.318464,77.9770083 C132.318464,77.9770083 134.868496,77.3131065 134.214237,74.6919535 C133.962155,73.6813824 131.435675,73.4287396 131.435675,73.4287396 C131.435675,73.4287396 132.066805,70.3985717 133.583689,69.2608959 C135.179695,68.0627797 138.381763,67.872779 137.625465,65.5975332 C136.762787,63.0179687 129.666921,64.3343193 123.478612,64.3343193 C117.288504,64.3343193 111.094162,62.8783526 110.34051,65.5975332 C109.709168,67.8728848 111.856812,67.6190565 114.130046,69.2608959 C116.405398,70.9049581 116.284306,73.5486677 116.284306,73.5486677 C116.284306,73.5486677 114.003767,73.1772506 113.497487,74.9441941 C112.857835,77.1862029 115.405645,78.0949252 115.405645,78.0949252 C115.405645,78.0949252 112.867679,83.9151933 103.77273,85.4300126 C93.1422142,87.2032118 83.4400032,82.0187847 83.4400032,82.0187847 L83.1795169,81.8947391 C83.1795169,81.8947391 90.1301572,81.8932572 93.0346812,74.9442047 C95.2580604,69.6289469 89.8760113,60.5454292 82.677047,60.7973522 L82.6761472,60.797458 Z M205.208107,139.763675 C203.971885,139.806333 202.966839,140.411117 201.602645,141.628434 C201.602645,141.628434 203.330117,142.145057 200.517259,147.772709 C200.181799,148.441576 202.981341,147.718938 204.86907,145.595798 C206.208813,144.089341 207.381208,140.091598 206.543617,139.906361 C206.058136,139.798013 205.620171,139.749491 205.208107,139.763717 L205.208107,139.763675 Z M45.0358872,140.859434 C43.5021207,140.800582 41.2579949,141.588423 41.0768855,143.669011 C40.9956245,144.592076 44.6782201,146.935436 44.6782201,146.935436 C43.840629,142.918217 46.462216,141.235308 45.9496903,141.031017 C45.7055155,140.933 45.3898708,140.873004 45.0359084,140.859424 L45.0358872,140.859434 Z M55.8770442,142.569123 C55.0636823,142.587859 54.2194332,142.863535 53.3754912,143.505642 C50.8230243,145.447566 53.3701987,147.419128 54.0205199,147.692115 C54.0205199,147.692115 54.8776509,148.810103 57.9009809,148.610036 C62.9246219,148.274576 61.9716544,147.152481 61.9716544,147.152481 C61.2962784,145.713874 58.7854635,142.50556 55.8790342,142.56907 L55.8769172,142.56907 L55.8770442,142.569123 Z M62.6848928,152.982541 C62.6848928,152.982541 52.4192423,155.550356 50.9672978,159.511369 C50.4068221,161.040689 50.8799081,161.884631 52.8072884,162.424361 C56.1577584,163.36198 58.3333993,163.530387 58.3333993,163.530387 C58.3333993,163.530387 55.8899579,162.312795 56.6588523,160.181187 C58.1653095,155.997254 62.6853162,152.982541 62.6853162,152.982541 L62.6848928,152.982541 Z M105.543558,163.383573 C104.382913,163.412682 103.362307,163.92796 103.376914,165.167781 C103.389404,165.613674 103.572758,166.033793 103.910303,166.325568 C104.322864,166.656857 104.882281,166.754896 105.369869,166.842413 L105.729589,166.881683 C106.338015,166.958742 106.528566,166.977265 106.666118,167.173183 C106.707717,167.221133 106.732275,167.309031 106.732275,167.386122 C106.732275,167.542388 106.663049,167.668667 106.527603,167.756184 C106.317163,167.91245 105.972854,167.952588 105.799884,167.952588 C104.899789,167.961057 104.505339,167.493919 104.288664,167.191792 L103.244633,168.049748 C103.867614,168.906138 104.981314,169.110471 105.762699,169.091714 C106.931601,169.070862 108.163165,168.556664 108.13194,167.183556 C108.113204,166.004176 107.271877,165.759768 107.01554,165.680592 C106.788417,165.61179 106.707728,165.613378 105.884638,165.486262 C105.317907,165.419577 105.064894,165.379735 104.931565,165.254715 C104.844027,165.185913 104.790986,165.096417 104.790986,164.981824 C104.790986,164.66095 105.162096,164.502323 105.562124,164.483577 C106.310166,164.472992 106.732719,164.953255 106.941032,165.167887 L107.881689,164.396748 C107.304542,163.625843 106.381054,163.373306 105.543463,163.383732 L105.543558,163.383573 Z M98.9072921,163.916962 C98.7999708,163.919079 98.6933587,163.924371 98.5889165,163.935592 C97.4408674,164.062686 96.477209,164.668095 96.6001008,165.905778 C96.6459339,166.34333 96.8597932,166.755563 97.2285852,167.007676 C97.6682332,167.309804 98.2233106,167.348503 98.7150367,167.386005 L99.0982137,167.37542 C99.7107677,167.406752 99.8887439,167.41342 100.051277,167.578028 C100.0888,167.638468 100.121455,167.726271 100.133977,167.803372 C100.148584,167.949222 100.083201,168.085758 99.9665225,168.194106 C99.7706576,168.360799 99.4199342,168.427643 99.2532734,168.438059 C98.355242,168.533959 97.9239033,168.084499 97.6737797,167.82197 L96.7168957,168.764035 C97.4065614,169.564155 98.5508528,169.678568 99.3176302,169.582721 C100.480287,169.476458 101.665277,168.85333 101.51116,167.478105 C101.388226,166.307087 100.529062,166.143019 100.272821,166.084696 C100.037368,166.047225 99.9672528,166.016634 99.1192673,165.987526 C98.5525464,165.956194 98.293415,165.949102 98.1537989,165.840743 C98.0725378,165.784537 98.0092607,165.665689 97.9863442,165.578182 C97.9530014,165.236467 98.3119705,165.061772 98.7119988,165.003459 C99.4621049,164.936774 99.9133963,165.363593 100.148807,165.578182 L101.031575,164.72229 C100.464589,164.10058 99.6637809,163.885821 98.9124576,163.899476 L98.9072921,163.916962 Z M147.407762,164.287024 C146.436747,164.274005 145.581109,164.673842 145.433448,165.740345 C145.379253,166.177907 145.482774,166.657821 145.776635,166.976673 C146.12251,167.378818 146.65791,167.552296 147.116272,167.70853 L147.48427,167.816031 C148.078089,167.980639 148.244231,168.031436 148.350505,168.246047 C148.381836,168.30437 148.389775,168.371331 148.381519,168.477594 C148.3649,168.615114 148.262713,168.722922 148.121032,168.810439 C147.891835,168.935459 147.545505,168.90581 147.378844,168.868339 C146.487058,168.741245 146.177023,168.215488 146.001947,167.89254 L144.84416,168.556166 C145.3213,169.512521 146.394862,169.901202 147.163757,170.007476 C148.318051,170.153326 149.60995,169.852797 149.80789,168.477626 C149.974582,167.308724 149.191684,166.938249 148.945794,166.840232 C148.731183,166.713138 148.648155,166.69526 147.843896,166.461892 C147.30422,166.305637 147.065411,166.206423 146.946648,166.09183 C146.879962,166.002175 146.83704,165.894282 146.841221,165.777593 C146.901661,165.467146 147.295021,165.351251 147.688847,165.409595 C148.430591,165.507506 148.762483,166.03175 148.945816,166.31511 L150.004316,165.682498 C149.550092,164.853205 148.673252,164.453473 147.829416,164.317985 C147.687725,164.299991 147.546383,164.288771 147.407667,164.286971 L147.407762,164.287024 Z M94.4457146,164.549575 L90.3088849,165.058152 L90.9807889,170.544993 L95.3492184,170.007465 L95.2127672,168.860051 L92.2253627,169.228049 L92.0661748,167.95044 L94.2472141,167.669281 L94.1128375,166.616984 L91.9359264,166.881609 L91.8263505,165.994702 L94.5738989,165.663921 L94.4457252,164.549638 L94.4457146,164.549575 Z M152.48327,165.097433 L151.705939,170.582157 L156.072251,171.179627 L156.227301,170.017817 L153.244024,169.600207 L153.419756,168.343239 L155.592539,168.634739 L155.749663,167.572111 L153.581008,167.251671 L153.692648,166.381298 L156.444325,166.755499 L156.593182,165.661857 L152.483238,165.097433 L152.48327,165.097433 Z M86.6826756,165.568794 C86.3461679,165.549529 86.0090144,165.590175 85.7048015,165.632833 L83.5505423,165.905725 L84.2224464,171.392565 L85.6221009,171.227175 L85.4008956,169.364426 L86.1100059,169.277629 L87.3255873,171.02045 L88.8492981,170.815789 L87.4827746,168.878628 C88.1974738,168.555669 88.4840521,167.856635 88.4006952,167.154437 C88.3298498,166.568928 88.0210112,166.120653 87.6605708,165.866454 C87.3542727,165.667467 87.0191939,165.588027 86.6826968,165.568751 L86.6826756,165.568794 Z M184.59816,165.684572 L180.510974,166.482575 L181.555004,171.909505 L185.890302,171.078413 L185.654617,169.939255 L182.712728,170.505722 L182.474978,169.25701 L184.620875,168.8394 L184.420342,167.756131 L182.259944,168.186147 L182.08835,167.309582 L184.807002,166.782396 L184.598202,165.684572 L184.59816,165.684572 Z M158.788754,165.837557 L158.309127,171.343028 L159.706664,171.458806 L159.863788,169.600186 L160.574962,169.655969 L161.422598,171.605514 L162.952449,171.760563 L162.011791,169.569151 C162.78275,169.394128 163.206309,168.780812 163.264632,168.068198 C163.322955,167.474379 163.111964,166.977096 162.805677,166.656159 C162.288938,166.129005 161.553577,166.092201 160.934672,166.033877 L158.788669,165.837473 L158.788754,165.837557 Z M79.3843181,166.327526 C79.2201447,166.319058 79.044656,166.323292 78.8571322,166.344039 C77.0798048,166.529478 76.2717459,167.952747 76.4258635,169.511283 C76.6008865,171.176091 77.779685,172.218926 79.4070229,172.035593 C80.3092354,171.948056 80.6093731,171.499527 80.7197746,171.314078 L80.7714612,171.810249 L81.8403345,171.673798 L81.5364285,168.703012 L79.2726146,168.946965 L79.3780518,170.046852 L80.3952068,169.922806 C80.3785354,170.48541 79.801293,170.747261 79.3429096,170.807649 C78.2489498,170.90556 77.9499236,169.898609 77.8916002,169.286055 C77.8457672,168.808915 77.897422,168.33168 78.2161787,167.971186 C78.4182887,167.727393 78.767509,167.551862 79.1175549,167.506018 C79.9343464,167.437215 80.3570584,168.029764 80.4820673,168.204797 L81.3958492,167.359236 C81.127837,167.074827 80.5334469,166.385299 79.3842758,166.327611 L79.3843181,166.327526 Z M57.3812786,166.344039 L56.6122148,171.810239 L58.0138805,172.01491 L58.2412887,170.377517 L59.0227581,170.485029 C59.8333044,170.58294 60.3314875,170.603369 60.8544923,170.274154 C61.0232595,170.144975 61.4860993,169.82263 61.6132251,168.86836 C61.6444509,168.66209 61.761034,167.806261 61.0984448,167.210326 C60.6462959,166.804021 60.0792257,166.714641 59.547954,166.656275 L57.3813103,166.344102 L57.3812786,166.344039 Z M177.362254,166.530102 C176.90386,166.530102 176.063051,166.617428 175.385822,167.346714 C174.719073,168.069722 174.664306,168.906519 174.664306,169.306632 C174.664306,170.817323 175.617687,172.260906 177.438741,172.260906 C178.184676,172.260906 178.910797,171.977619 179.427556,171.450486 C179.467144,171.392163 179.520175,171.343525 179.572275,171.274765 L178.590272,170.398189 C178.433995,170.6128 178.119716,171.041154 177.486257,171.041154 C176.786165,171.041154 176.142491,170.504547 176.142491,169.32522 C176.142491,168.333405 176.714134,167.747843 177.370563,167.747843 C177.985234,167.747843 178.320058,168.16559 178.509721,168.409405 L179.533078,167.572111 C179.376801,167.386661 179.119925,167.034721 178.549001,166.753424 C178.228117,166.617989 177.833201,166.530102 177.362317,166.530102 L177.362254,166.530102 Z M164.397746,166.588002 L166.068164,172.114113 L167.616644,172.114113 L169.293308,166.588002 L167.899899,166.588002 L166.837271,170.251365 L165.778771,166.588002 L164.397746,166.588002 L164.397746,166.588002 Z M171.067142,166.617005 L171.038245,172.141105 L172.468914,172.141105 L172.504056,166.617005 L171.067248,166.617005 L171.067142,166.617005 Z M86.1701499,166.755518 C86.3444002,166.755256 86.505144,166.77669 86.6270408,166.840306 C86.714547,166.879894 86.9120631,167.005157 86.9474911,167.338542 C86.9745887,167.571899 86.9227222,167.845871 86.6539267,168.002169 C86.4768185,168.108431 86.2444037,168.13808 85.733942,168.20684 L85.2584427,168.254367 L85.0847852,166.871331 L85.6367717,166.803163 C85.8097095,166.778077 85.9958996,166.755848 86.1701605,166.755637 L86.1701499,166.755518 Z M72.1280889,166.943647 C72.024557,166.940472 71.9183154,166.942589 71.8097133,166.949998 C71.3096461,166.979107 70.6441989,167.131658 70.0482634,167.69839 C69.2418981,168.477657 69.210757,169.451583 69.2399187,169.97046 C69.2899328,170.739301 69.5932354,171.461146 70.1495724,171.977905 C70.9059236,172.669688 71.7544701,172.676896 72.1982992,172.647735 C72.7087926,172.610158 73.3721757,172.472436 73.957632,171.886938 C74.7723066,171.099308 74.7910949,170.11702 74.7535711,169.618996 C74.6539451,168.16758 73.6810989,166.989258 72.1279619,166.943743 L72.1280889,166.943647 Z M63.3375639,167.094537 L63.0398608,172.600039 L64.4477717,172.678579 L64.5490701,170.817948 L65.2643832,170.855101 L66.174037,172.765376 L67.7080152,172.843917 L66.6846574,170.691775 C67.4493178,170.506336 67.8461494,169.861911 67.8940995,169.170181 C67.9190801,168.557627 67.6960435,168.070611 67.3772551,167.766398 C66.8480263,167.260075 66.10642,167.220869 65.5042393,167.18959 L63.3375957,167.094537 L63.3375639,167.094537 Z M160.079171,167.105143 L160.629105,167.144424 C160.981236,167.173533 161.382026,167.221694 161.596637,167.386312 C161.682058,167.457126 161.849163,167.629799 161.809575,167.952779 C161.794968,168.16739 161.681613,168.429602 161.389901,168.525438 C161.185706,168.596252 160.951481,168.59604 160.436828,168.556452 L159.969606,168.477911 L160.079171,167.105143 L160.079171,167.105143 Z M58.6219464,167.67161 L59.1532605,167.748139 C59.701246,167.825198 60.2745296,167.895144 60.1786824,168.663985 C60.1307853,168.976528 59.961764,169.209166 59.6763077,169.288341 C59.4971248,169.334174 59.2901881,169.307394 58.9609946,169.267701 L58.4007305,169.180904 L58.6219359,167.671694 L58.6219464,167.67161 Z M71.8796589,168.157451 C72.7735093,168.069913 73.2043717,168.799526 73.2710572,169.70593 C73.2939737,170.17474 73.2464788,170.662423 72.9568097,171.020799 C72.8318009,171.177065 72.5528649,171.421642 72.1236538,171.450815 C71.2610292,171.500776 70.7928017,170.809088 70.7198711,169.854808 C70.665697,168.948415 71.0378974,168.224189 71.8796695,168.157504 L71.8796589,168.157451 Z M64.676884,168.304222 L65.2247424,168.33313 C65.5768736,168.353982 65.9755576,168.371236 66.1964137,168.525396 C66.2776747,168.596209 66.444579,168.77933 66.4341634,169.091863 C66.4216731,169.306474 66.3206604,169.581091 66.028959,169.679002 C65.83519,169.776913 65.6009333,169.755637 65.0779602,169.736902 L64.5983327,169.695515 L64.6768946,168.304222 L64.676884,168.304222 Z M125.429491,176.722589 L124.100121,176.751592 L124.155904,180.042892 L122.086431,176.788851 L120.726047,176.819865 L120.833548,182.343965 L122.1463,182.315068 L122.096656,179.003127 L124.143372,182.267541 L125.52228,182.256956 L125.429237,176.722589 L125.429491,176.722589 Z M128.584351,176.778372 L128.106787,182.304483 L129.576726,182.422326 C130.528953,182.509864 131.102554,182.557962 131.615186,182.401685 C132.588212,182.139156 132.926985,181.360343 133.058239,181.018649 C133.179088,180.68736 133.24608,180.345305 133.283583,180.005633 C133.373132,179.030479 133.075534,178.280489 132.710924,177.870003 C132.06708,177.109471 131.094488,177.025458 129.729764,176.898332 L128.584467,176.778372 L128.584351,176.778372 Z M116.244358,177.150498 L114.877834,177.334497 L113.676648,183.083846 L115.055556,182.899847 L115.208541,182.120442 L117.240756,181.84755 L117.598412,182.519454 L119.080736,182.325113 L116.244273,177.150424 L116.244358,177.150498 Z M129.857726,178.132501 L130.436599,178.184155 C130.869991,178.244596 131.565912,178.309693 131.765969,179.176499 C131.824292,179.430698 131.823975,179.693449 131.805239,179.947638 C131.784387,180.149748 131.754008,180.305993 131.701824,180.48309 C131.410122,181.310308 130.772111,181.291742 130.159589,181.252154 L129.584856,181.194254 L129.857747,178.132437 L129.857726,178.132501 Z M115.808256,179.031813 L116.740646,180.873814 L115.417521,181.076411 L115.808256,179.031813 L115.808256,179.031813 Z"/>
    <path stroke="#003057" stroke-width=".652" d="M103.873749,120.964715 L143.783433,120.964715 C144.037632,120.964715 144.223081,121.166825 144.223081,121.404363 L144.223081,121.743983 C144.223081,121.979435 144.037642,122.1753 143.783433,122.1753 L103.873749,122.1753 C103.634136,122.1753 103.438282,121.979435 103.438282,121.743983 L103.438282,121.404363 C103.438282,121.166825 103.634147,120.964715 103.873749,120.964715 L103.873749,120.964715 Z M105.281448,125.037823 L142.906889,125.037823 C143.156917,125.037823 143.344441,125.237848 143.344441,125.487887 L143.344441,125.852519 C143.344441,126.085886 143.156917,126.27757 142.906889,126.27757 L105.281448,126.27757 C105.052251,126.27757 104.843885,126.085886 104.843885,125.852519 L104.843885,125.487887 C104.843885,125.237848 105.052251,125.037823 105.281448,125.037823 Z M136.759121,126.279232 C136.759121,127.127249 136.82369,127.975266 137.709231,127.975266 C138.667703,127.975266 138.559365,126.937619 138.559365,126.314692 C138.09263,126.314692 137.305043,126.279232 136.759068,126.279232 L136.759121,126.279232 Z M136.463038,128.402795 C136.463038,130.528051 139.017516,130.128044 139.017516,129.009103 M141.228405,126.279232 C141.228405,127.127249 141.151346,127.975266 140.267869,127.975266 C139.319823,127.975266 139.421916,126.937619 139.421916,126.314692 C139.886565,126.314692 140.674121,126.279232 141.228352,126.279232 L141.228405,126.279232 Z M135.64958,126.315644 C135.64958,127.317832 135.810017,128.490862 136.685111,128.490862 C137.170602,128.490862 137.42061,128.42841 137.689416,127.974123 C137.689416,127.974123 138.141564,129.036751 138.985443,129.036751 C139.83346,129.036751 140.291844,127.974123 140.291844,127.974123 C140.556469,128.428357 140.814827,128.490862 141.302394,128.490862 C142.171263,128.490862 142.333796,127.317832 142.333796,126.315644 M138.96332,129.007833 C138.96332,130.128785 141.51367,130.526781 141.51367,128.401524 M126.104027,126.426046 C126.104027,127.274063 126.051949,128.12208 125.149737,128.12208 C124.199627,128.12208 124.312146,127.084433 124.312146,126.461506 C124.768454,126.461506 125.560223,126.426152 126.103974,126.426152 L126.104027,126.426046 Z M126.406991,128.54982 C126.406991,130.675076 123.844151,130.275069 123.844151,129.156129 M121.641624,126.426046 C121.641624,127.274063 121.702065,128.12208 122.595915,128.12208 C123.55227,128.12208 123.443932,127.084433 123.443932,126.461506 C122.977197,126.461506 122.181247,126.426152 121.641624,126.426152 L121.641624,126.426046 Z M121.349288,128.54982 C121.349288,130.675076 123.897521,130.275069 123.897521,129.156129 M120.531279,126.46267 C120.531279,127.464858 120.697971,128.637887 121.568926,128.637887 C122.060663,128.637887 122.300297,128.575436 122.566986,128.121149 C122.566986,128.121149 123.035806,129.183777 123.86513,129.183777 C124.711084,129.183777 125.184021,128.121149 125.184021,128.121149 C125.461147,128.575383 125.70076,128.637887 126.182081,128.637887 C127.050951,128.637887 127.211366,127.464858 127.211366,126.46267 M111.048071,126.306816 C111.048071,127.154834 110.983503,128.002851 110.097962,128.002851 C109.141607,128.002851 109.247828,126.965203 109.247828,126.342276 C109.714563,126.342276 110.50215,126.306816 111.048124,126.306816 L111.048071,126.306816 Z M111.344991,128.430379 C111.344991,130.555635 108.790513,130.155628 108.790513,129.034624 M106.578989,126.306763 C106.578989,127.154781 106.656048,128.002798 107.539525,128.002798 C108.487571,128.002798 108.385478,126.96515 108.385478,126.342223 C107.920828,126.342223 107.133273,126.306763 106.579042,126.306763 L106.578989,126.306763 Z M105.472222,126.343282 C105.472222,127.345469 105.636829,128.518499 106.505688,128.518499 C106.991169,128.518499 107.251613,128.456048 107.516238,128.001761 C107.516238,128.001761 107.972547,129.064389 108.820522,129.064389 C109.666475,129.064389 110.118666,128.001761 110.118666,128.001761 C110.387451,128.455995 110.635405,128.518499 111.120907,128.518499 C111.998086,128.518499 112.158554,127.345469 112.158554,126.343282 M106.293406,128.42895 C106.293406,130.554206 108.843756,130.15621 108.843756,129.035259 M105.472433,126.343282 C105.472433,127.345469 105.637041,128.518499 106.5059,128.518499 C106.991381,128.518499 107.251825,128.456048 107.51645,128.001761 M136.574392,151.695225 L141.454183,151.695225 M135.906055,158.462215 L135.906055,154.61171 C135.906055,154.134559 136.297774,153.744904 136.779106,153.744904 L141.092176,153.744904 C141.569316,153.744904 141.958981,154.134538 141.958981,154.61171 L141.958981,158.462215 M121.030319,158.689115 L121.030319,154.619818 C121.030319,154.142678 121.422038,153.753012 121.901253,153.753012 L126.216334,153.753012 C126.693474,153.753012 127.08314,154.142646 127.08314,154.619818 L127.08314,158.689115 M106.517543,151.670731 L111.395323,151.670731 M105.904354,158.279476 L105.904354,154.610291 C105.904354,154.135226 106.296073,153.745603 106.775288,153.745603 L111.090369,153.745603 C111.567509,153.745603 111.957175,154.135236 111.957175,154.610291 L111.957175,158.279476 M121.7483,151.703015 L126.628091,151.703015"/>
  </g>
</svg>
