<svg width="388" height="515" viewBox="0 0 388 515" fill="none" xmlns="http://www.w3.org/2000/svg">
<path d="M145.451 341.714C117.497 341.714 92.4851 335.645 70.4162 323.507C48.715 311.369 31.6116 294.818 19.1058 273.852C6.96789 252.519 0.898926 228.795 0.898926 202.68C0.898926 176.565 6.96789 153.024 19.1058 132.059C31.6116 110.726 48.715 93.9899 70.4162 81.852C92.4851 69.714 117.497 63.6451 145.451 63.6451H161.451V0.748535H226.554V63.6451H387.106V125.438H142.692C119.52 125.438 100.393 132.795 85.3127 147.507C70.2323 162.22 62.692 180.611 62.692 202.68C62.692 224.749 70.2323 243.139 85.3127 257.852C100.393 272.565 119.52 279.921 142.692 279.921H246.416C256.347 279.921 264.255 282.864 270.14 288.749C276.025 294.634 278.968 301.99 278.968 310.818C278.968 319.645 276.025 327.001 270.14 332.887C264.255 338.772 256.347 341.714 246.416 341.714H145.451ZM0.898926 388.059H245.313C268.485 388.059 287.612 380.703 302.692 365.99C317.773 351.277 325.313 332.887 325.313 310.818C325.313 288.749 317.773 270.358 302.692 255.645C287.612 240.932 268.485 233.576 245.313 233.576H141.589C131.658 233.576 123.75 230.634 117.864 224.749C111.979 218.863 109.037 211.507 109.037 202.68C109.037 193.852 111.979 186.496 117.864 180.611C123.75 174.726 131.658 171.783 141.589 171.783H242.554C270.508 171.783 295.336 177.852 317.037 189.99C339.106 202.128 356.209 218.864 368.347 240.197C380.853 261.162 387.106 284.703 387.106 310.818C387.106 336.932 380.853 360.657 368.347 381.99C356.209 402.955 339.106 419.507 317.037 431.645C295.336 443.783 270.508 449.852 242.554 449.852H226.554V512.749H161.451V449.852H0.898926V388.059Z" fill="#F4F3F0"/>
</svg>
