<svg width="388" height="515" viewBox="0 0 388 515" fill="none" xmlns="http://www.w3.org/2000/svg">
<path d="M145.451 341.716C117.497 341.716 92.4851 335.647 70.4162 323.509C48.715 311.371 31.6116 294.819 19.1058 273.854C6.96789 252.52 0.898926 228.796 0.898926 202.681C0.898926 176.566 6.96789 153.026 19.1058 132.061C31.6116 110.727 48.715 93.9916 70.4162 81.8537C92.4851 69.7157 117.497 63.6468 145.451 63.6468H161.451V0.750244H226.554V63.6468H387.106V125.44H142.692C119.52 125.44 100.393 132.796 85.3127 147.509C70.2323 162.222 62.692 180.612 62.692 202.681C62.692 224.75 70.2323 243.141 85.3127 257.854C100.393 272.566 119.52 279.923 142.692 279.923H246.416C256.347 279.923 264.255 282.865 270.14 288.75C276.025 294.635 278.968 301.992 278.968 310.819C278.968 319.647 276.025 327.003 270.14 332.888C264.255 338.773 256.347 341.716 246.416 341.716H145.451ZM0.898926 388.061H245.313C268.485 388.061 287.612 380.704 302.692 365.992C317.773 351.279 325.313 332.888 325.313 310.819C325.313 288.75 317.773 270.359 302.692 255.647C287.612 240.934 268.485 233.578 245.313 233.578H141.589C131.658 233.578 123.75 230.635 117.864 224.75C111.979 218.865 109.037 211.509 109.037 202.681C109.037 193.854 111.979 186.497 117.864 180.612C123.75 174.727 131.658 171.785 141.589 171.785H242.554C270.508 171.785 295.336 177.854 317.037 189.992C339.106 202.13 356.209 218.865 368.347 240.199C380.853 261.164 387.106 284.704 387.106 310.819C387.106 336.934 380.853 360.658 368.347 381.992C356.209 402.957 339.106 419.509 317.037 431.647C295.336 443.785 270.508 449.854 242.554 449.854H226.554V512.75H161.451V449.854H0.898926V388.061Z" fill="#1C1A17"/>
</svg>
