<svg xmlns="http://www.w3.org/2000/svg" xmlns:xlink="http://www.w3.org/1999/xlink" width="336" height="461" viewBox="0 0 336 461">
  <defs>
    <rect id="wallet-brand-toast-b" width="300" height="425" x="0" y="0" rx="8"/>
    <filter id="wallet-brand-toast-a" width="118%" height="112.7%" x="-9%" y="-6.4%" filterUnits="objectBoundingBox">
      <feMorphology in="SourceAlpha" operator="dilate" radius="2" result="shadowSpreadOuter1"/>
      <feOffset in="shadowSpreadOuter1" result="shadowOffsetOuter1"/>
      <feGaussianBlur in="shadowOffsetOuter1" result="shadowBlurOuter1" stdDeviation="7"/>
      <feColorMatrix in="shadowBlurOuter1" values="0 0 0 0 0   0 0 0 0 0   0 0 0 0 0  0 0 0 0.1 0"/>
    </filter>
    <rect id="wallet-brand-toast-d" width="299.999" height="15" x="0" y="13"/>
    <filter id="wallet-brand-toast-c" width="104.7%" height="193.3%" x="-2.3%" y="-60%" filterUnits="objectBoundingBox">
      <feOffset dy="-2" in="SourceAlpha" result="shadowOffsetOuter1"/>
      <feGaussianBlur in="shadowOffsetOuter1" result="shadowBlurOuter1" stdDeviation="2"/>
      <feColorMatrix in="shadowBlurOuter1" values="0 0 0 0 0   0 0 0 0 0   0 0 0 0 0  0 0 0 0.100223995 0"/>
    </filter>
    <rect id="wallet-brand-toast-f" width="299.999" height="15" x="0" y="13"/>
    <filter id="wallet-brand-toast-e" width="104.7%" height="193.3%" x="-2.3%" y="-60%" filterUnits="objectBoundingBox">
      <feOffset dy="-2" in="SourceAlpha" result="shadowOffsetOuter1"/>
      <feGaussianBlur in="shadowOffsetOuter1" result="shadowBlurOuter1" stdDeviation="2"/>
      <feColorMatrix in="shadowBlurOuter1" values="0 0 0 0 0   0 0 0 0 0   0 0 0 0 0  0 0 0 0.100223995 0"/>
    </filter>
    <path id="wallet-brand-toast-g" d="M4.03710938,13.1171875 C4.71679688,13.1171875 5.29882812,12.9941406 5.78320312,12.7480469 C6.26757812,12.5019531 6.64355469,12.1601562 6.91113281,11.7226562 C7.17871094,11.2851562 7.33789062,10.78125 7.38867188,10.2109375 L7.38867188,10.2109375 L5.87695312,10.2109375 C5.83007812,10.5859375 5.74121094,10.8955078 5.61035156,11.1396484 C5.47949219,11.3837891 5.28613281,11.5693359 5.03027344,11.6962891 C4.77441406,11.8232422 4.44335938,11.8867188 4.03710938,11.8867188 C3.37695312,11.8867188 2.89160156,11.640625 2.58105469,11.1484375 C2.27050781,10.65625 2.11523438,9.96484375 2.11523438,9.07421875 L2.11523438,9.07421875 L2.11523438,8.38867188 C2.11523438,7.48242188 2.28222656,6.78808594 2.61621094,6.30566406 C2.95019531,5.82324219 3.44335938,5.58203125 4.09570312,5.58203125 C4.67773438,5.58203125 5.10449219,5.72558594 5.37597656,6.01269531 C5.64746094,6.29980469 5.81640625,6.72851562 5.8828125,7.29882812 L5.8828125,7.29882812 L7.39453125,7.29882812 C7.3359375,6.71679688 7.17480469,6.20410156 6.91113281,5.76074219 C6.64746094,5.31738281 6.27929688,4.97167969 5.80664062,4.72363281 C5.33398438,4.47558594 4.76367188,4.3515625 4.09570312,4.3515625 C3.38867188,4.3515625 2.77050781,4.51757812 2.24121094,4.84960938 C1.71191406,5.18164062 1.30371094,5.65234375 1.01660156,6.26171875 C0.729492188,6.87109375 0.5859375,7.58398438 0.5859375,8.40039062 L0.5859375,8.40039062 L0.5859375,9.07421875 C0.5859375,9.890625 0.7265625,10.6035156 1.0078125,11.2128906 C1.2890625,11.8222656 1.68945312,12.2919922 2.20898438,12.6220703 C2.72851562,12.9521484 3.33789062,13.1171875 4.03710938,13.1171875 Z M10.2128906,13 L10.2128906,9.73046875 L11.8359375,9.73046875 L13.5292969,13 L15.1582031,13 L15.1582031,12.9238281 L13.2539062,9.37304688 C13.75,9.16210938 14.1328125,8.86132812 14.4023438,8.47070312 C14.671875,8.08007812 14.8066406,7.60351562 14.8066406,7.04101562 C14.8066406,6.20898438 14.5380859,5.57226562 14.0009766,5.13085938 C13.4638672,4.68945312 12.703125,4.46875 11.71875,4.46875 L11.71875,4.46875 L8.6953125,4.46875 L8.6953125,13 L10.2128906,13 Z M11.7246094,8.51171875 L10.2128906,8.51171875 L10.2128906,5.69335938 L11.71875,5.69335938 C12.25,5.69335938 12.6445312,5.81835938 12.9023438,6.06835938 C13.1601562,6.31835938 13.2890625,6.66796875 13.2890625,7.1171875 C13.2890625,7.5390625 13.1552734,7.87695312 12.8876953,8.13085938 C12.6201172,8.38476562 12.2324219,8.51171875 11.7246094,8.51171875 L11.7246094,8.51171875 Z M21.8085938,13 L21.8085938,11.78125 L17.7304688,11.78125 L17.7304688,9.203125 L21.2167969,9.203125 L21.2167969,8.0078125 L17.7304688,8.0078125 L17.7304688,5.69335938 L21.7734375,5.69335938 L21.7734375,4.46875 L16.2128906,4.46875 L16.2128906,13 L21.8085938,13 Z M25.4707031,13 C26.2519531,13 26.9375,12.8330078 27.5273438,12.4990234 C28.1171875,12.1650391 28.5732422,11.6923828 28.8955078,11.0810547 C29.2177734,10.4697266 29.3789062,9.7578125 29.3789062,8.9453125 L29.3789062,8.9453125 L29.3789062,8.52929688 C29.3789062,7.72070312 29.2177734,7.00976562 28.8955078,6.39648438 C28.5732422,5.78320312 28.1210938,5.30859375 27.5390625,4.97265625 C26.9570312,4.63671875 26.2871094,4.46875 25.5292969,4.46875 L25.5292969,4.46875 L22.9980469,4.46875 L22.9980469,13 L25.4707031,13 Z M25.4707031,11.78125 L24.515625,11.78125 L24.515625,5.69335938 L25.5292969,5.69335938 C26.2832031,5.69335938 26.859375,5.93554688 27.2578125,6.41992188 C27.65625,6.90429688 27.8554688,7.60351562 27.8554688,8.51757812 L27.8554688,8.51757812 L27.8554688,8.9453125 C27.8554688,9.84765625 27.6533203,10.5458984 27.2490234,11.0400391 C26.8447266,11.5341797 26.2519531,11.78125 25.4707031,11.78125 L25.4707031,11.78125 Z M32.4375,13 L32.4375,4.46875 L30.9257812,4.46875 L30.9257812,13 L32.4375,13 Z M37.78125,13 L37.78125,5.69335938 L40.4355469,5.69335938 L40.4355469,4.46875 L33.6445312,4.46875 L33.6445312,5.69335938 L36.2695312,5.69335938 L36.2695312,13 L37.78125,13 Z M44.3671875,13.1171875 C44.9804688,13.1171875 45.5166016,13.0224609 45.9755859,12.8330078 C46.4345703,12.6435547 46.7890625,12.3730469 47.0390625,12.0214844 C47.2890625,11.6699219 47.4140625,11.2558594 47.4140625,10.7792969 C47.4140625,10.3300781 47.3125,9.9375 47.109375,9.6015625 C46.90625,9.265625 46.5986328,8.97460938 46.1865234,8.72851562 C45.7744141,8.48242188 45.2441406,8.26367188 44.5957031,8.07226562 C43.9746094,7.89257812 43.5195312,7.69726562 43.2304688,7.48632812 C42.9414062,7.27539062 42.796875,7.01757812 42.796875,6.71289062 C42.796875,6.36914062 42.9248047,6.09082031 43.1806641,5.87792969 C43.4365234,5.66503906 43.8105469,5.55859375 44.3027344,5.55859375 C44.8261719,5.55859375 45.2216797,5.68554688 45.4892578,5.93945312 C45.7568359,6.19335938 45.890625,6.53320312 45.890625,6.95898438 L45.890625,6.95898438 L47.4023438,6.95898438 C47.4023438,6.47851562 47.2773438,6.04003906 47.0273438,5.64355469 C46.7773438,5.24707031 46.4189453,4.93261719 45.9521484,4.70019531 C45.4853516,4.46777344 44.9414062,4.3515625 44.3203125,4.3515625 C43.7265625,4.3515625 43.1992188,4.45214844 42.7382812,4.65332031 C42.2773438,4.85449219 41.9189453,5.13476562 41.6630859,5.49414062 C41.4072266,5.85351562 41.2792969,6.26171875 41.2792969,6.71875 C41.2792969,7.37109375 41.5234375,7.90039062 42.0117188,8.30664062 C42.5,8.71289062 43.1933594,9.0546875 44.0917969,9.33203125 C44.5839844,9.48046875 44.9580078,9.62304688 45.2138672,9.75976562 C45.4697266,9.89648438 45.6464844,10.0439453 45.7441406,10.2021484 C45.8417969,10.3603516 45.890625,10.5566406 45.890625,10.7910156 C45.890625,11.1347656 45.7597656,11.4082031 45.4980469,11.6113281 C45.2363281,11.8144531 44.859375,11.9160156 44.3671875,11.9160156 C43.8125,11.9160156 43.3681641,11.7919922 43.0341797,11.5439453 C42.7001953,11.2958984 42.5332031,10.9160156 42.5332031,10.4042969 L42.5332031,10.4042969 L41.015625,10.4042969 C41.015625,10.9824219 41.1748047,11.4765625 41.4931641,11.8867188 C41.8115234,12.296875 42.2275391,12.6044922 42.7412109,12.8095703 C43.2548828,13.0146484 43.796875,13.1171875 44.3671875,13.1171875 Z"/>
    <rect id="wallet-brand-toast-i" width="272" height="115" x="0" y="0" rx="8"/>
    <filter id="wallet-brand-toast-h" width="107.9%" height="118.7%" x="-4%" y="-7.6%" filterUnits="objectBoundingBox">
      <feMorphology in="SourceAlpha" operator="dilate" radius=".75" result="shadowSpreadOuter1"/>
      <feOffset dy="2" in="shadowSpreadOuter1" result="shadowOffsetOuter1"/>
      <feGaussianBlur in="shadowOffsetOuter1" result="shadowBlurOuter1" stdDeviation="2.5"/>
      <feColorMatrix in="shadowBlurOuter1" values="0 0 0 0 0.188235294   0 0 0 0 0.192156863   0 0 0 0 0.2  0 0 0 0.1 0"/>
    </filter>
    <path id="wallet-brand-toast-k" d="M8,0 L292,0 C296.418278,-8.11624501e-16 300,3.581722 300,8 L300,48 L300,48 L0,48 L0,8 C-5.41083001e-16,3.581722 3.581722,8.11624501e-16 8,0 Z"/>
    <filter id="wallet-brand-toast-j" width="100.3%" height="104.2%" x="-.2%" y="-1%" filterUnits="objectBoundingBox">
      <feOffset dy="1" in="SourceAlpha" result="shadowOffsetOuter1"/>
      <feColorMatrix in="shadowOffsetOuter1" values="0 0 0 0 0   0 0 0 0 0   0 0 0 0 0  0 0 0 0.05 0"/>
    </filter>
    <path id="wallet-brand-toast-m" d="M0,0 L300,0 L300,36 C300,40.418278 296.418278,44 292,44 L8,44 C3.581722,44 5.41083001e-16,40.418278 0,36 L0,0 L0,0 Z"/>
    <filter id="wallet-brand-toast-l" width="100.3%" height="104.5%" x="-.2%" y="-3.4%" filterUnits="objectBoundingBox">
      <feOffset dy="-1" in="SourceAlpha" result="shadowOffsetOuter1"/>
      <feColorMatrix in="shadowOffsetOuter1" values="0 0 0 0 0   0 0 0 0 0   0 0 0 0 0  0 0 0 0.05 0"/>
    </filter>
  </defs>
  <g fill="none" fill-rule="evenodd" transform="translate(18 18)">
    <use fill="#000" filter="url(#wallet-brand-toast-a)" xlink:href="#wallet-brand-toast-b"/>
    <use fill="#FFF" xlink:href="#wallet-brand-toast-b"/>
    <g transform="translate(0 201)">
      <g transform="translate(0 46)">
        <g transform="translate(14)">
          <rect width="272" height="90" fill="#221E20" rx="11"/>
          <g fill-rule="nonzero" transform="translate(16 16)">
            <path fill="#F90" d="M34.7335979,13.1846107 C31.4832316,15.5767817 26.772024,16.8530914 22.715762,16.8530914 C17.0282283,16.8530914 11.9079886,14.7526501 8.03432929,11.2592068 C7.72998833,10.9844948 8.00267675,10.6101118 8.36788776,10.8240445 C12.5483212,13.2526813 17.7172586,14.713753 23.0566255,14.713753 C26.6575917,14.713753 30.6189008,13.9698451 34.2612597,12.4261184 C34.8115094,12.1927348 35.2716734,12.785916 34.7335979,13.1846107"/>
            <path fill="#F90" d="M36.0848751,11.6408839 C35.6709692,11.1109115 33.3384967,11.3904845 32.2915623,11.514469 C31.9726112,11.5533661 31.9239181,11.2762245 32.2112149,11.0768753 C34.068916,9.77139296 37.1172012,10.1482082 37.4726721,10.5858 C37.8281412,11.0258242 37.3801523,14.0768138 35.6344484,15.5330209 C35.3666282,15.7566791 35.1109812,15.6375583 35.2302844,15.3409667 C35.6222752,14.3636781 36.5012142,12.1732876 36.0848751,11.6408839"/>
            <path fill="#FFF" d="M32.3646047 1.86070204L32.3646047.591685479C32.3646047.399631275 32.5106886.270784995 32.685989.270784995L38.3759558.270784995C38.5585623.270784995 38.7046461.402062634 38.7046461.591685479L38.7046461 1.67837235C38.7022129 1.86070204 38.5488231 2.09894651 38.2761319 2.47576177L35.3276724 6.67907667C36.4233027 6.65233635 37.5798002 6.8152161 38.5731705 7.37436198 38.7971659 7.5007769 38.8580341 7.68553796 38.8750774 7.8678695L38.8750774 9.22197345C38.8750774 9.4067345 38.6705595 9.62309766 38.4563033 9.51126997 36.7057303 8.59475692 34.380562 8.49508325 32.4449503 9.52099448 32.2477374 9.62796131 32.0407854 9.41402765 32.0407854 9.2292666L32.0407854 7.94323237C32.0407854 7.73659187 32.0432186 7.38408556 32.2501706 7.07047823L35.6661 2.1791721 32.6932931 2.1791721C32.5106886 2.1791721 32.3646047 2.05032674 32.3646047 1.86070204M11.6085149 9.77868611L9.87742116 9.77868611C9.71186083 9.7665321 9.58038434 9.64254761 9.56821015 9.48452687L9.56821015.613566786C9.56821015.436098883 9.71672902.295095806 9.90176862.295095806L11.5159951.295095806C11.6839932.30238432 11.817902.431235237 11.8300771.591685479L11.8300771 1.75130571 11.8617287 1.75130571C12.2829369.630582592 13.0742234.107903393 14.1406371.107903393 15.2240922.107903393 15.9009474.630582592 16.3878939 1.75130571 16.806668.630582592 17.7586476.107903393 18.7788013.107903393 19.5043514.107903393 20.2980739.406924426 20.7825853 1.07789893 21.3304 1.82423629 21.2184019 2.9084918 21.2184019 3.85904017L21.2159687 9.45778655C21.2159687 9.63525446 21.0674498 9.77868611 20.8824102 9.77868611L19.1537497 9.77868611C18.9808852 9.7665321 18.8421055 9.62796131 18.8421055 9.45778655L18.8421055 4.75610327C18.8421055 4.38171937 18.8761902 3.44818959 18.7934105 3.09325286 18.66437 2.49764308 18.2772475 2.32989783 17.7756918 2.32989783 17.3569177 2.32989783 16.9186661 2.60947077 16.7409307 3.05678803 16.5631952 3.50410436 16.5802385 4.25287123 16.5802385 4.75610327L16.5802385 9.45778655C16.5802385 9.63525446 16.4317197 9.77868611 16.2466801 9.77868611L14.5180214 9.77868611C14.3427209 9.7665321 14.2063753 9.62796131 14.2063753 9.45778655L14.2039403 4.75610327C14.2039403 3.76665964 14.3670656 2.31044974 13.1375276 2.31044974 11.8933784 2.31044974 11.9420734 3.73019203 11.9420734 4.75610327L11.9420734 9.45778655C11.9420734 9.63525446 11.7935545 9.77868611 11.6085149 9.77868611M43.6033264.107903393C46.1719684.107903393 47.5621995 2.31044974 47.5621995 5.11103907 47.5621995 7.8168156 46.0258827 9.96344717 43.6033264 9.96344717 41.0809434 9.96344717 39.7077538 7.76090082 39.7077538 5.01622719 39.7077538 2.25453496 41.0979867.107903393 43.6033264.107903393M43.6179338 1.9190491C42.3421359 1.9190491 42.2617782 3.65482917 42.2617782 4.73665517 42.2617782 5.82091068 42.2447451 8.13528565 43.6033264 8.13528565 44.9448635 8.13528565 45.0081668 6.26822795 45.0081668 5.13048624 45.0081668 4.38171937 44.9765152 3.4870867 44.7500838 2.77721416 44.5553051 2.15972493 44.1681844 1.9190491 43.6179338 1.9190491M50.8929133 9.77868611L49.1691237 9.77868611C48.9962565 9.7665321 48.8574767 9.62796131 48.8574767 9.45778655L48.8550436.584392329C48.8696519.421510727 49.0133016.295095806 49.1886021.295095806L50.7930912.295095806C50.9440433.30238432 51.0682147.404493994 51.1023022.543064784L51.1023022 1.89959916 51.133952 1.89959916C51.6184653.686497366 52.2977536.107903393 53.4932069.107903393 54.269886.107903393 55.0270887.387476333 55.5140352 1.15326179 55.966895 1.8631334 55.966895 3.05678803 55.966895 3.91495309L55.966895 9.49911503C55.9474176 9.65470162 55.8037678 9.77868611 55.6333384 9.77868611L53.8973737 9.77868611C53.7391147 9.7665321 53.6076391 9.64984076 53.5905977 9.49911503L53.5905977 4.6807404C53.5905977 3.71074487 53.7025949 2.29100072 52.5071407 2.29100072 52.0859334 2.29100072 51.69881 2.57300594 51.5064662 3.00087233 51.2629944 3.54300148 51.2313428 4.08269834 51.2313428 4.6807404L51.2313428 9.45778655C51.2289096 9.63525446 51.0779548 9.77868611 50.8929152 9.77868611"/>
            <path fill="#FFF" d="M5.13456487,5.54133774 L5.13456487,5.16695385 C3.88311151,5.16695385 2.56105274,5.43437092 2.56105274,6.90759663 C2.56105274,7.65393399 2.94817433,8.15959739 3.61285625,8.15959739 C4.09980272,8.15959739 4.53561924,7.86057635 4.81074547,7.37436198 C5.15160633,6.77631899 5.13456487,6.21474268 5.13456487,5.54133774 M6.88026689,9.7543753 C6.76583465,9.85648034 6.60027154,9.86377349 6.471231,9.7957047 C5.89663571,9.31921576 5.79437581,9.09798896 5.47786066,8.64337947 C4.52831509,9.61094365 3.85633088,9.90023924 2.62435502,9.90023924 C1.16838474,9.90023924 0.0338015257,9.00317614 0.0338015257,7.20661952 C0.0338015257,5.80389302 0.795872371,4.84848379 1.8793275,4.38171937 C2.8191338,3.9684365 4.13145433,3.89550592 5.13456487,3.78124594 L5.13456487,3.55758778 C5.13456487,3.14673627 5.16621648,2.66052282 4.9251778,2.30558887 C4.71335469,1.98711789 4.30919071,1.85584025 3.95371887,1.85584025 C3.29390793,1.85584025 2.70470156,2.1937584 2.56105274,2.8939055 C2.53183522,3.04949488 2.41740299,3.20265197 2.2615809,3.20994512 L0.581616186,3.03004493 C0.440401459,2.99844282 0.284578441,2.88418099 0.323534196,2.66781783 C0.710656716,0.635446238 2.54887854,0.0228160169 4.19475847,0.0228160169 C5.03717409,0.0228160169 6.13767253,0.246474183 6.80235445,0.883413361 C7.64477276,1.66864784 7.5644253,2.7164376 7.5644253,3.85660881 L7.5644253,6.55023039 C7.5644253,7.35977661 7.90041973,7.71471056 8.21693489,8.15230424 C8.3289321,8.30789083 8.35327956,8.49508325 8.21206484,8.61177458 C7.85902895,8.90593475 7.23086868,9.45292476 6.88513508,9.75923895 L6.88026689,9.75437066" transform="translate(22.694)"/>
            <path fill="#FFF" d="M5.13456487,5.54133774 L5.13456487,5.16695385 C3.88311151,5.16695385 2.56105274,5.43437092 2.56105274,6.90759663 C2.56105274,7.65393399 2.94817433,8.15959739 3.61285625,8.15959739 C4.09980272,8.15959739 4.53561924,7.86057635 4.81074547,7.37436198 C5.15160633,6.77631899 5.13456487,6.21474268 5.13456487,5.54133774 M6.88026689,9.7543753 C6.76583465,9.85648034 6.60027154,9.86377349 6.471231,9.7957047 C5.89663571,9.31921576 5.79437581,9.09798896 5.47786066,8.64337947 C4.52831509,9.61094365 3.85633088,9.90023924 2.62435502,9.90023924 C1.16838474,9.90023924 0.0338015257,9.00317614 0.0338015257,7.20661952 C0.0338015257,5.80389302 0.795872371,4.84848379 1.8793275,4.38171937 C2.8191338,3.9684365 4.13145433,3.89550592 5.13456487,3.78124594 L5.13456487,3.55758778 C5.13456487,3.14673627 5.16621648,2.66052282 4.9251778,2.30558887 C4.71335469,1.98711789 4.30919071,1.85584025 3.95371887,1.85584025 C3.29390793,1.85584025 2.70470156,2.1937584 2.56105274,2.8939055 C2.53183522,3.04949488 2.41740299,3.20265197 2.2615809,3.20994512 L0.581616186,3.03004493 C0.440401459,2.99844282 0.284578441,2.88418099 0.323534196,2.66781783 C0.710656716,0.635446238 2.54887854,0.0228160169 4.19475847,0.0228160169 C5.03717409,0.0228160169 6.13767253,0.246474183 6.80235445,0.883413361 C7.64477276,1.66864784 7.5644253,2.7164376 7.5644253,3.85660881 L7.5644253,6.55023039 C7.5644253,7.35977661 7.90041973,7.71471056 8.21693489,8.15230424 C8.3289321,8.30789083 8.35327956,8.49508325 8.21206484,8.61177458 C7.85902895,8.90593475 7.23086868,9.45292476 6.88513508,9.75923895 L6.88026689,9.75437066"/>
          </g>
          <path fill="#FFF" fill-rule="nonzero" d="M226.177734,32.109375 L226.177734,30.1660156 C226.965495,30.0813802 227.652344,29.8714193 228.238281,29.5361328 C228.824219,29.2008464 229.276693,28.7532552 229.595703,28.1933594 C229.914714,27.6334635 230.074219,26.9759115 230.074219,26.2207031 C230.074219,25.4003906 229.901693,24.7135417 229.556641,24.1601562 C229.211589,23.6067708 228.741211,23.1429036 228.145508,22.7685547 C227.549805,22.3942057 226.770182,22.0117188 225.806641,21.6210938 C225.298828,21.4192708 224.904948,21.2207031 224.625,21.0253906 C224.345052,20.8300781 224.144857,20.6184896 224.024414,20.390625 C223.903971,20.1627604 223.84375,19.8893229 223.84375,19.5703125 C223.84375,19.0820312 223.977214,18.6865234 224.244141,18.3837891 C224.511068,18.0810547 224.911458,17.9296875 225.445312,17.9296875 C225.972656,17.9296875 226.389323,18.1184896 226.695312,18.4960938 C227.001302,18.8736979 227.154297,19.4335938 227.154297,20.1757812 L227.154297,20.1757812 L230.09375,20.1757812 C230.09375,19.3294271 229.942383,18.5839844 229.639648,17.9394531 C229.336914,17.2949219 228.905599,16.7773438 228.345703,16.3867188 C227.785807,15.9960938 227.128255,15.7454427 226.373047,15.6347656 L226.373047,15.6347656 L226.373047,13.5253906 L224.820312,13.5253906 L224.820312,15.6054688 C224.039062,15.6835938 223.352214,15.8951823 222.759766,16.2402344 C222.167318,16.5852865 221.708333,17.0410156 221.382812,17.6074219 C221.057292,18.1738281 220.894531,18.8216146 220.894531,19.5507812 C220.894531,20.3776042 221.067057,21.0677083 221.412109,21.6210938 C221.757161,22.1744792 222.229167,22.6350911 222.828125,23.0029297 C223.427083,23.3707682 224.214844,23.7434896 225.191406,24.1210938 C225.679688,24.3098958 226.062174,24.4986979 226.338867,24.6875 C226.61556,24.8763021 226.817383,25.0927734 226.944336,25.3369141 C227.071289,25.5810547 227.134766,25.8821615 227.134766,26.2402344 C227.134766,26.7220052 226.985026,27.1110026 226.685547,27.4072266 C226.386068,27.7034505 225.953125,27.8515625 225.386719,27.8515625 C224.78776,27.8515625 224.292969,27.6676432 223.902344,27.2998047 C223.511719,26.9319661 223.316406,26.3313802 223.316406,25.4980469 L223.316406,25.4980469 L220.367188,25.4980469 C220.367188,26.500651 220.5625,27.335612 220.953125,28.0029297 C221.34375,28.6702474 221.858073,29.1764323 222.496094,29.5214844 C223.134115,29.8665365 223.84375,30.0813802 224.625,30.1660156 L224.625,30.1660156 L224.625,32.109375 L226.177734,32.109375 Z M241.724609,30 L241.724609,27.6269531 L235.748047,27.6269531 L238.091797,25.1757812 C238.820964,24.4205729 239.411784,23.7548828 239.864258,23.1787109 C240.316732,22.6025391 240.668294,22.0247396 240.918945,21.4453125 C241.169596,20.8658854 241.294922,20.2669271 241.294922,19.6484375 C241.294922,18.7955729 241.115885,18.0647786 240.757812,17.4560547 C240.39974,16.8473307 239.872396,16.3818359 239.175781,16.0595703 C238.479167,15.7373047 237.629557,15.5761719 236.626953,15.5761719 C235.64388,15.5761719 234.77474,15.7861328 234.019531,16.2060547 C233.264323,16.6259766 232.681641,17.195638 232.271484,17.9150391 C231.861328,18.6344401 231.65625,19.4270833 231.65625,20.2929688 L231.65625,20.2929688 L234.605469,20.2929688 C234.605469,19.84375 234.683594,19.4417318 234.839844,19.0869141 C234.996094,18.7320964 235.222331,18.453776 235.518555,18.2519531 C235.814779,18.0501302 236.164714,17.9492188 236.568359,17.9492188 C237.134766,17.9492188 237.572591,18.1233724 237.881836,18.4716797 C238.191081,18.819987 238.345703,19.3066406 238.345703,19.9316406 C238.345703,20.3352865 238.207357,20.7861328 237.930664,21.2841797 C237.653971,21.7822266 237.190104,22.3925781 236.539062,23.1152344 L236.539062,23.1152344 L231.939453,27.9785156 L231.939453,30 L241.724609,30 Z M248.267578,30.1953125 C249.250651,30.1953125 250.101888,29.9788411 250.821289,29.5458984 C251.54069,29.1129557 252.098958,28.445638 252.496094,27.5439453 C252.893229,26.6422526 253.091797,25.5078125 253.091797,24.140625 L253.091797,24.140625 L253.091797,21.6210938 C253.091797,20.2539062 252.891602,19.1210938 252.491211,18.2226562 C252.09082,17.3242188 251.529297,16.6601562 250.806641,16.2304688 C250.083984,15.8007812 249.23112,15.5859375 248.248047,15.5859375 C247.264974,15.5859375 246.412109,15.8007812 245.689453,16.2304688 C244.966797,16.6601562 244.405273,17.3242188 244.004883,18.2226562 C243.604492,19.1210938 243.404297,20.2539062 243.404297,21.6210938 L243.404297,21.6210938 L243.404297,24.140625 C243.404297,25.5078125 243.60612,26.6422526 244.009766,27.5439453 C244.413411,28.445638 244.97819,29.1129557 245.704102,29.5458984 C246.430013,29.9788411 247.284505,30.1953125 248.267578,30.1953125 Z M248.267578,27.8222656 C247.636068,27.8222656 247.15918,27.5683594 246.836914,27.0605469 C246.514648,26.5527344 246.353516,25.7096354 246.353516,24.53125 L246.353516,24.53125 L246.353516,21.2207031 C246.353516,20.0553385 246.513021,19.2203776 246.832031,18.7158203 C247.151042,18.211263 247.623047,17.9589844 248.248047,17.9589844 C248.873047,17.9589844 249.345052,18.211263 249.664062,18.7158203 C249.983073,19.2203776 250.142578,20.0553385 250.142578,21.2207031 L250.142578,21.2207031 L250.142578,24.53125 C250.142578,25.7096354 249.986328,26.5527344 249.673828,27.0605469 C249.361328,27.5683594 248.892578,27.8222656 248.267578,27.8222656 Z"/>
        </g>
        <g fill-rule="nonzero" transform="translate(0 30)">
          <use fill="#000" filter="url(#wallet-brand-toast-c)" xlink:href="#wallet-brand-toast-d"/>
          <use fill="#FFF" xlink:href="#wallet-brand-toast-d"/>
          <path fill="#FFF" d="M8,63.016 C3.581722,63.016 -1.8189894e-12,58.5388475 -1.8189894e-12,53.016 L-1.8189894e-12,23.016 C-1.8189894e-12,19.3341017 -1.8189894e-12,16.0007683 -1.8189894e-12,13.016 L105.3856,13.016 C118.0904,11.049 132.8856,0 150.0704,0 C167.9512,0 180.9368,11.688 195.7904,13.017 L300,13.016 C300,16.001435 300,19.3351017 300,23.017 L300,53.017 C300,58.5398475 296.418278,63.017 292,63.017 L8,63.016 Z"/>
        </g>
      </g>
      <g transform="translate(0 108)">
        <g transform="translate(14)">
          <rect width="272" height="90" fill="#E95814" rx="11"/>
          <path fill="#FFF" fill-rule="nonzero" d="M214.673828 32.109375L214.673828 30.1660156C215.461589 30.0813802 216.148438 29.8714193 216.734375 29.5361328 217.320312 29.2008464 217.772786 28.7532552 218.091797 28.1933594 218.410807 27.6334635 218.570312 26.9759115 218.570312 26.2207031 218.570312 25.4003906 218.397786 24.7135417 218.052734 24.1601562 217.707682 23.6067708 217.237305 23.1429036 216.641602 22.7685547 216.045898 22.3942057 215.266276 22.0117188 214.302734 21.6210938 213.794922 21.4192708 213.401042 21.2207031 213.121094 21.0253906 212.841146 20.8300781 212.640951 20.6184896 212.520508 20.390625 212.400065 20.1627604 212.339844 19.8893229 212.339844 19.5703125 212.339844 19.0820312 212.473307 18.6865234 212.740234 18.3837891 213.007161 18.0810547 213.407552 17.9296875 213.941406 17.9296875 214.46875 17.9296875 214.885417 18.1184896 215.191406 18.4960938 215.497396 18.8736979 215.650391 19.4335938 215.650391 20.1757812L215.650391 20.1757812 218.589844 20.1757812C218.589844 19.3294271 218.438477 18.5839844 218.135742 17.9394531 217.833008 17.2949219 217.401693 16.7773438 216.841797 16.3867188 216.281901 15.9960938 215.624349 15.7454427 214.869141 15.6347656L214.869141 15.6347656 214.869141 13.5253906 213.316406 13.5253906 213.316406 15.6054688C212.535156 15.6835938 211.848307 15.8951823 211.255859 16.2402344 210.663411 16.5852865 210.204427 17.0410156 209.878906 17.6074219 209.553385 18.1738281 209.390625 18.8216146 209.390625 19.5507812 209.390625 20.3776042 209.563151 21.0677083 209.908203 21.6210938 210.253255 22.1744792 210.72526 22.6350911 211.324219 23.0029297 211.923177 23.3707682 212.710938 23.7434896 213.6875 24.1210938 214.175781 24.3098958 214.558268 24.4986979 214.834961 24.6875 215.111654 24.8763021 215.313477 25.0927734 215.44043 25.3369141 215.567383 25.5810547 215.630859 25.8821615 215.630859 26.2402344 215.630859 26.7220052 215.48112 27.1110026 215.181641 27.4072266 214.882161 27.7034505 214.449219 27.8515625 213.882812 27.8515625 213.283854 27.8515625 212.789062 27.6676432 212.398438 27.2998047 212.007812 26.9319661 211.8125 26.3313802 211.8125 25.4980469L211.8125 25.4980469 208.863281 25.4980469C208.863281 26.500651 209.058594 27.335612 209.449219 28.0029297 209.839844 28.6702474 210.354167 29.1764323 210.992188 29.5214844 211.630208 29.8665365 212.339844 30.0813802 213.121094 30.1660156L213.121094 30.1660156 213.121094 32.109375 214.673828 32.109375zM227.398438 30L227.398438 15.7714844 227.095703 15.7714844 221.119141 17.890625 221.119141 20.2636719 224.458984 19.2578125 224.458984 30 227.398438 30zM241.724609 30L241.724609 27.6269531 235.748047 27.6269531 238.091797 25.1757812C238.820964 24.4205729 239.411784 23.7548828 239.864258 23.1787109 240.316732 22.6025391 240.668294 22.0247396 240.918945 21.4453125 241.169596 20.8658854 241.294922 20.2669271 241.294922 19.6484375 241.294922 18.7955729 241.115885 18.0647786 240.757812 17.4560547 240.39974 16.8473307 239.872396 16.3818359 239.175781 16.0595703 238.479167 15.7373047 237.629557 15.5761719 236.626953 15.5761719 235.64388 15.5761719 234.77474 15.7861328 234.019531 16.2060547 233.264323 16.6259766 232.681641 17.195638 232.271484 17.9150391 231.861328 18.6344401 231.65625 19.4270833 231.65625 20.2929688L231.65625 20.2929688 234.605469 20.2929688C234.605469 19.84375 234.683594 19.4417318 234.839844 19.0869141 234.996094 18.7320964 235.222331 18.453776 235.518555 18.2519531 235.814779 18.0501302 236.164714 17.9492188 236.568359 17.9492188 237.134766 17.9492188 237.572591 18.1233724 237.881836 18.4716797 238.191081 18.819987 238.345703 19.3066406 238.345703 19.9316406 238.345703 20.3352865 238.207357 20.7861328 237.930664 21.2841797 237.653971 21.7822266 237.190104 22.3925781 236.539062 23.1152344L236.539062 23.1152344 231.939453 27.9785156 231.939453 30 241.724609 30zM248.326172 30.1953125C249.380859 30.1953125 250.271159 29.9772135 250.99707 29.5410156 251.722982 29.1048177 252.266602 28.5253906 252.62793 27.8027344 252.989258 27.0800781 253.169922 26.2890625 253.169922 25.4296875 253.169922 24.4270833 252.999023 23.5677083 252.657227 22.8515625 252.31543 22.1354167 251.81901 21.5885417 251.167969 21.2109375 250.516927 20.8333333 249.732422 20.6445312 248.814453 20.6445312 248.397786 20.6445312 248.000651 20.6998698 247.623047 20.8105469 247.245443 20.921224 246.939453 21.0449219 246.705078 21.1816406L246.705078 21.1816406 247.046875 18.203125 252.691406 18.203125 252.691406 15.78125 244.634766 15.78125 243.804688 23.0175781 246.148438 23.59375C246.376302 23.359375 246.628581 23.1738281 246.905273 23.0371094 247.181966 22.9003906 247.548177 22.8320312 248.003906 22.8320312 248.746094 22.8320312 249.301107 23.0452474 249.668945 23.4716797 250.036784 23.898112 250.220703 24.4889323 250.220703 25.2441406 250.220703 26.0188802 250.067708 26.6422526 249.761719 27.1142578 249.455729 27.586263 248.973958 27.8222656 248.316406 27.8222656 247.769531 27.8222656 247.325195 27.6611328 246.983398 27.3388672 246.641602 27.0166016 246.444661 26.5722656 246.392578 26.0058594L246.392578 26.0058594 243.462891 26.0058594C243.475911 26.8522135 243.711914 27.5927734 244.170898 28.2275391 244.629883 28.8623047 245.227214 29.3489583 245.962891 29.6875 246.698568 30.0260417 247.486328 30.1953125 248.326172 30.1953125zM21.5711737 30.9926833C20.0663077 30.932901 18.8351005 30.5211243 17.8723986 29.7563225 17.6886709 29.6102165 17.2508683 29.1721562 17.1039892 28.9873978 16.7136002 28.4965126 16.4481872 28.0187691 16.2711593 27.4887161 15.7264184 25.8570703 16.006777 23.7159861 17.0730673 21.366179 17.9860366 19.3544514 19.394787 17.3592155 21.8525631 14.595828 22.214607 14.1892049 23.2927508 13 23.2997082 13 23.302285 13 23.2435334 13.1017846 23.1695785 13.2257299 22.5305258 14.2961432 21.9837235 15.5569838 21.6858425 16.6485271 21.207326 18.3999953 21.2650469 19.9030575 21.8548822 21.0685557 22.2617629 21.8714945 22.9593096 22.5669796 23.7436952 22.951442 25.1168855 23.6242511 27.1273246 23.6799105 29.5825239 23.1142974 29.7515636 23.0751296 38.1277922 20.851587 48.1964798 18.172977 58.2651673 15.4941093 66.5045665 13.3040654 66.5058549 13.3058692 66.5086894 13.3081883 43.113434 23.319155 30.9685983 28.5127466 29.0452558 29.3350115 28.5309214 29.5427037 27.6267134 29.8601685 25.315301 30.6718685 23.2448218 31.0591654 21.5711737 30.9926833z"/>
        </g>
        <g fill-rule="nonzero" transform="translate(0 30)">
          <use fill="#000" filter="url(#wallet-brand-toast-e)" xlink:href="#wallet-brand-toast-f"/>
          <use fill="#FFF" xlink:href="#wallet-brand-toast-f"/>
          <path fill="#FFF" d="M8,63.016 C3.581722,63.016 -1.44950718e-12,58.5388475 -1.44950718e-12,53.016 L-1.44950718e-12,23.016 C-1.44950718e-12,19.3341017 -1.44950718e-12,16.0007683 -1.44950718e-12,13.016 L105.3856,13.016 C118.0904,11.049 132.8856,0 150.0704,0 C167.9512,0 180.9368,11.688 195.7904,13.017 L300,13.016 C300,16.001435 300,19.3351017 300,23.017 L300,53.017 C300,58.5398475 296.418278,63.017 292,63.017 L8,63.016 Z"/>
        </g>
      </g>
      <g transform="translate(14)">
        <g fill-rule="nonzero" opacity=".25">
          <use fill="#000" xlink:href="#wallet-brand-toast-g"/>
          <use fill="#384366" xlink:href="#wallet-brand-toast-g"/>
        </g>
        <line x1="62" x2="286" y1="9" y2="8.995" stroke="#000" stroke-opacity=".05" stroke-width="2"/>
      </g>
    </g>
    <g transform="translate(14 62)">
      <use fill="#000" filter="url(#wallet-brand-toast-h)" xlink:href="#wallet-brand-toast-i"/>
      <use fill="#FFF" xlink:href="#wallet-brand-toast-i"/>
      <g transform="translate(12 67)">
        <rect width="248" height="34" fill="#4F6EF7" rx="6"/>
        <path fill="#FFF" fill-rule="nonzero" d="M104.766478,21 C105.778196,21 106.549681,20.7871094 107.080931,20.3613281 C107.612181,19.9355469 107.877806,19.3085938 107.877806,18.4804688 C107.877806,18.0429688 107.762571,17.6533203 107.532103,17.3115234 C107.301634,16.9697266 106.950071,16.7382812 106.477415,16.6171875 C106.883665,16.4570312 107.187376,16.2177734 107.388548,15.8994141 C107.58972,15.5810547 107.690306,15.21875 107.690306,14.8125 C107.690306,14.03125 107.411985,13.4453125 106.855345,13.0546875 C106.298704,12.6640625 105.506712,12.46875 104.479368,12.46875 L104.479368,12.46875 L101.467649,12.46875 L101.467649,21 L104.766478,21 Z M104.479368,16.03125 L103.307493,16.03125 L103.307493,13.9570312 L104.479368,13.9570312 C104.959837,13.9570312 105.30847,14.0400391 105.525267,14.2060547 C105.742063,14.3720703 105.850462,14.6425781 105.850462,15.0175781 C105.850462,15.3535156 105.738157,15.6064453 105.513548,15.7763672 C105.288938,15.9462891 104.944212,16.03125 104.479368,16.03125 L104.479368,16.03125 Z M104.766478,19.5175781 L103.307493,19.5175781 L103.307493,17.3144531 L104.842649,17.3144531 C105.643431,17.3144531 106.043821,17.6972656 106.043821,18.4628906 C106.043821,18.7792969 105.936399,19.0341797 105.721556,19.2275391 C105.506712,19.4208984 105.188353,19.5175781 104.766478,19.5175781 L104.766478,19.5175781 Z M111.11804,21.1171875 C111.489134,21.1171875 111.819212,21.0498047 112.108274,20.9150391 C112.397337,20.7802734 112.641478,20.5878906 112.840696,20.3378906 L112.840696,20.3378906 L112.887571,21 L114.545774,21 L114.545774,14.6601562 L112.776243,14.6601562 L112.776243,19.1191406 C112.565306,19.4980469 112.188353,19.6875 111.645384,19.6875 C111.371946,19.6875 111.158079,19.6132812 111.003782,19.4648438 C110.849485,19.3164062 110.772337,19.0859375 110.772337,18.7734375 L110.772337,18.7734375 L110.772337,14.6601562 L109.008665,14.6601562 L109.008665,18.7617188 C109.008665,19.5664062 109.195188,20.1601562 109.568235,20.5429688 C109.941282,20.9257812 110.457884,21.1171875 111.11804,21.1171875 Z M116.637571,23.5605469 C117.059446,23.5605469 117.409056,23.4775391 117.686399,23.3115234 C117.963743,23.1455078 118.174681,22.9462891 118.319212,22.7138672 C118.463743,22.4814453 118.584837,22.2265625 118.682493,21.9492188 L118.682493,21.9492188 L121.225462,14.6601562 L119.332884,14.6601562 L118.190306,18.5039062 L117.059446,14.6601562 L115.161009,14.6601562 L117.375853,21.0292969 L117.200071,21.4921875 C117.11804,21.7148438 116.998899,21.875 116.842649,21.9726562 C116.686399,22.0703125 116.450071,22.1191406 116.133665,22.1191406 C116.016478,22.1191406 115.928587,22.1171875 115.869993,22.1132812 L115.869993,22.1132812 L115.869993,23.4492188 C116.037962,23.4921875 116.169798,23.5214844 116.265501,23.5371094 C116.361204,23.5527344 116.485228,23.5605469 116.637571,23.5605469 Z M126.786009,21 L126.786009,15.4980469 L130.102415,21 L131.936399,21 L131.936399,12.46875 L130.102415,12.46875 L130.102415,17.9707031 L126.786009,12.46875 L124.946165,12.46875 L124.946165,21 L126.786009,21 Z M136.073118,21.1171875 C136.702024,21.1171875 137.24304,20.9785156 137.696165,20.7011719 C138.14929,20.4238281 138.494017,20.0419922 138.730345,19.5556641 C138.966673,19.0693359 139.084837,18.515625 139.084837,17.8945312 L139.084837,17.8945312 L139.084837,17.7714844 C139.084837,17.1503906 138.966673,16.5957031 138.730345,16.1074219 C138.494017,15.6191406 138.148313,15.2363281 137.693235,14.9589844 C137.238157,14.6816406 136.694212,14.5429688 136.061399,14.5429688 C135.432493,14.5429688 134.891478,14.6816406 134.438353,14.9589844 C133.985228,15.2363281 133.640501,15.6191406 133.404173,16.1074219 C133.167845,16.5957031 133.049681,17.1503906 133.049681,17.7714844 L133.049681,17.7714844 L133.049681,17.8945312 C133.049681,18.515625 133.167845,19.0693359 133.404173,19.5556641 C133.640501,20.0419922 133.986204,20.4238281 134.441282,20.7011719 C134.89636,20.9785156 135.440306,21.1171875 136.073118,21.1171875 Z M136.073118,19.6933594 C135.635618,19.6933594 135.317259,19.5302734 135.11804,19.2041016 C134.918821,18.8779297 134.819212,18.4414062 134.819212,17.8945312 L134.819212,17.8945312 L134.819212,17.7714844 C134.819212,17.2363281 134.918821,16.8017578 135.11804,16.4677734 C135.317259,16.1337891 135.631712,15.9667969 136.061399,15.9667969 C136.498899,15.9667969 136.817259,16.1328125 137.016478,16.4648438 C137.215696,16.796875 137.315306,17.2324219 137.315306,17.7714844 L137.315306,17.7714844 L137.315306,17.8945312 C137.315306,18.4375 137.215696,18.8730469 137.016478,19.2011719 C136.817259,19.5292969 136.502806,19.6933594 136.073118,19.6933594 Z M142.676634,21 L143.83679,17.109375 L145.002806,21 L146.485228,21 L148.067259,14.6601562 L146.36804,14.6601562 L145.582884,18.5917969 L144.469603,14.6601562 L143.203978,14.6601562 L142.090696,18.609375 L141.311399,14.6601562 L139.612181,14.6601562 L141.194212,21 L142.676634,21 Z"/>
      </g>
      <path fill="#434D5A" fill-rule="nonzero" d="M69.71875,29 L70.4296875,26.8046875 L74.3984375,26.8046875 L75.1171875,29 L77.8203125,29 L73.59375,17.625 L71.2265625,17.625 L67.015625,29 L69.71875,29 Z M73.734375,24.7578125 L71.1015625,24.7578125 L72.4140625,20.703125 L73.734375,24.7578125 Z M81.09375,29 L81.09375,23.09375 C81.2291667,22.859375 81.4036458,22.6783854 81.6171875,22.5507812 C81.8307292,22.4231771 82.0807292,22.359375 82.3671875,22.359375 C82.6276042,22.359375 82.8411458,22.3945312 83.0078125,22.4648438 C83.1744792,22.5351562 83.3020833,22.6666667 83.390625,22.859375 C83.4791667,23.0520833 83.5234375,23.3229167 83.5234375,23.671875 L83.5234375,23.671875 L83.5234375,29 L85.9609375,29 L85.9609375,23.1875 C86.0859375,22.9270833 86.2552083,22.7239583 86.46875,22.578125 C86.6822917,22.4322917 86.9401042,22.359375 87.2421875,22.359375 C87.5026042,22.359375 87.7148438,22.3945312 87.8789062,22.4648438 C88.0429688,22.5351562 88.1692708,22.6653646 88.2578125,22.8554688 C88.3463542,23.0455729 88.390625,23.3125 88.390625,23.65625 L88.390625,23.65625 L88.390625,29 L90.8359375,29 L90.8359375,23.65625 C90.8359375,22.5 90.6028646,21.6666667 90.1367188,21.15625 C89.6705729,20.6458333 89.0104167,20.390625 88.15625,20.390625 C87.6041667,20.390625 87.1171875,20.5013021 86.6953125,20.7226562 C86.2734375,20.9440104 85.9244792,21.2604167 85.6484375,21.671875 C85.4453125,21.2395833 85.15625,20.9179688 84.78125,20.7070312 C84.40625,20.4960938 83.9583333,20.390625 83.4375,20.390625 C82.921875,20.390625 82.4609375,20.4869792 82.0546875,20.6796875 C81.6484375,20.8723958 81.3046875,21.1484375 81.0234375,21.5078125 L81.0234375,21.5078125 L80.9453125,20.546875 L78.65625,20.546875 L78.65625,29 L81.09375,29 Z M94.9765625,29.15625 C95.8619792,29.15625 96.5598958,28.8541667 97.0703125,28.25 C97.1276042,28.5416667 97.203125,28.7916667 97.296875,29 L97.296875,29 L99.75,29 L99.75,28.8671875 C99.6302083,28.6432292 99.5416667,28.3828125 99.484375,28.0859375 C99.4270833,27.7890625 99.3984375,27.390625 99.3984375,26.890625 L99.3984375,26.890625 L99.3984375,23.390625 C99.3984375,22.7395833 99.2513021,22.1901042 98.9570312,21.7421875 C98.6627604,21.2942708 98.2565104,20.9570312 97.7382812,20.7304688 C97.2200521,20.5039062 96.625,20.390625 95.953125,20.390625 C95.2291667,20.390625 94.5898438,20.5104167 94.0351562,20.75 C93.4804688,20.9895833 93.0533854,21.3177083 92.7539062,21.734375 C92.4544271,22.1510417 92.3046875,22.6145833 92.3046875,23.125 L92.3046875,23.125 L94.734375,23.125 C94.734375,22.8177083 94.8294271,22.5820312 95.0195312,22.4179688 C95.2096354,22.2539062 95.4765625,22.171875 95.8203125,22.171875 C96.2057292,22.171875 96.4908854,22.2773438 96.6757812,22.4882812 C96.8606771,22.6992188 96.953125,22.9947917 96.953125,23.375 L96.953125,23.375 L96.953125,23.8359375 L96.0390625,23.8359375 C94.7369792,23.8359375 93.7565104,24.0768229 93.0976562,24.5585938 C92.4388021,25.0403646 92.109375,25.7265625 92.109375,26.6171875 C92.109375,27.1015625 92.2369792,27.5377604 92.4921875,27.9257812 C92.7473958,28.3138021 93.09375,28.6158854 93.53125,28.8320312 C93.96875,29.0481771 94.4505208,29.15625 94.9765625,29.15625 Z M95.53125,27.328125 C95.234375,27.328125 94.9960938,27.2486979 94.8164062,27.0898438 C94.6367188,26.9309896 94.546875,26.7239583 94.546875,26.46875 C94.546875,26.1041667 94.671875,25.8033854 94.921875,25.5664062 C95.171875,25.3294271 95.5572917,25.2109375 96.078125,25.2109375 L96.078125,25.2109375 L96.953125,25.2109375 L96.953125,26.59375 C96.84375,26.796875 96.6627604,26.9700521 96.4101562,27.1132812 C96.1575521,27.2565104 95.8645833,27.328125 95.53125,27.328125 Z M107.835938,29 L107.835938,27.03125 L103.882812,27.03125 L107.734375,21.9375 L107.734375,20.546875 L100.890625,20.546875 L100.890625,22.515625 L104.585938,22.515625 L100.75,27.5625 L100.75,29 L107.835938,29 Z M112.742188,29.15625 C113.585938,29.15625 114.311198,28.9726562 114.917969,28.6054688 C115.52474,28.2382812 115.985677,27.7291667 116.300781,27.078125 C116.615885,26.4270833 116.773438,25.6875 116.773438,24.859375 L116.773438,24.859375 L116.773438,24.6953125 C116.773438,23.8619792 116.615885,23.1210938 116.300781,22.4726562 C115.985677,21.8242188 115.523438,21.3151042 114.914062,20.9453125 C114.304688,20.5755208 113.575521,20.390625 112.726562,20.390625 C111.882812,20.390625 111.157552,20.5755208 110.550781,20.9453125 C109.94401,21.3151042 109.483073,21.8255208 109.167969,22.4765625 C108.852865,23.1276042 108.695312,23.8671875 108.695312,24.6953125 L108.695312,24.6953125 L108.695312,24.859375 C108.695312,25.6927083 108.852865,26.4335938 109.167969,27.0820312 C109.483073,27.7304688 109.945312,28.2382812 110.554688,28.6054688 C111.164062,28.9726562 111.893229,29.15625 112.742188,29.15625 Z M112.742188,27.1875 C112.174479,27.1875 111.764323,26.9778646 111.511719,26.5585938 C111.259115,26.1393229 111.132812,25.5729167 111.132812,24.859375 L111.132812,24.859375 L111.132812,24.6953125 C111.132812,23.9973958 111.259115,23.4335938 111.511719,23.0039062 C111.764323,22.5742188 112.169271,22.359375 112.726562,22.359375 C113.294271,22.359375 113.704427,22.5742188 113.957031,23.0039062 C114.209635,23.4335938 114.335938,23.9973958 114.335938,24.6953125 L114.335938,24.6953125 L114.335938,24.859375 C114.335938,25.5677083 114.209635,26.1328125 113.957031,26.5546875 C113.704427,26.9765625 113.299479,27.1875 112.742188,27.1875 Z M120.445312,29 L120.445312,23.0625 C120.731771,22.59375 121.164062,22.359375 121.742188,22.359375 C122.179688,22.359375 122.501302,22.4518229 122.707031,22.6367188 C122.91276,22.8216146 123.015625,23.1588542 123.015625,23.6484375 L123.015625,23.6484375 L123.015625,29 L125.460938,29 L125.460938,23.6640625 C125.460938,22.5026042 125.227865,21.6666667 124.761719,21.15625 C124.295573,20.6458333 123.640625,20.390625 122.796875,20.390625 C122.296875,20.390625 121.842448,20.4869792 121.433594,20.6796875 C121.02474,20.8723958 120.674479,21.1536458 120.382812,21.5234375 L120.382812,21.5234375 L120.296875,20.546875 L118.015625,20.546875 L118.015625,29 L120.445312,29 Z"/>
      <path fill="#FF9902" fill-rule="nonzero" d="M70.7895508,49.1269531 C71.4750977,49.1269531 72.0537923,48.9851888 72.5256348,48.7016602 C72.9974772,48.4181315 73.3508301,48.0415039 73.5856934,47.5717773 C73.8205566,47.1020508 73.9379883,46.5878906 73.9379883,46.0292969 C73.9379883,45.3776042 73.8269043,44.8190104 73.6047363,44.3535156 C73.3825684,43.8880208 73.0598958,43.5325521 72.6367188,43.2871094 C72.2135417,43.0416667 71.7036133,42.9189453 71.1069336,42.9189453 C70.8361003,42.9189453 70.5779622,42.9549154 70.3325195,43.0268555 C70.0870768,43.0987956 69.8881836,43.1791992 69.7358398,43.2680664 L69.7358398,43.2680664 L69.9580078,41.3320312 L73.6269531,41.3320312 L73.6269531,39.7578125 L68.3901367,39.7578125 L67.8505859,44.4614258 L69.3740234,44.8359375 C69.5221354,44.6835938 69.6861165,44.5629883 69.8659668,44.4741211 C70.0458171,44.3852539 70.2838542,44.3408203 70.5800781,44.3408203 C71.0625,44.3408203 71.4232585,44.4794108 71.6623535,44.7565918 C71.9014486,45.0337728 72.0209961,45.417806 72.0209961,45.9086914 C72.0209961,46.4122721 71.9215495,46.8174642 71.7226562,47.1242676 C71.523763,47.431071 71.210612,47.5844727 70.7832031,47.5844727 C70.4277344,47.5844727 70.138916,47.4797363 69.916748,47.2702637 C69.6945801,47.060791 69.566569,46.7719727 69.5327148,46.4038086 L69.5327148,46.4038086 L67.628418,46.4038086 C67.6368815,46.9539388 67.7902832,47.4353027 68.088623,47.8479004 C68.3869629,48.260498 68.7752279,48.5768229 69.253418,48.796875 C69.7316081,49.0169271 70.2436523,49.1269531 70.7895508,49.1269531 Z M77.1054688,43.921875 C77.5328776,43.921875 77.8978678,43.8372396 78.2004395,43.6679688 C78.5030111,43.4986979 78.7304688,43.2701823 78.8828125,42.9824219 C79.0351562,42.6946615 79.1113281,42.3751628 79.1113281,42.0239258 L79.1113281,42.0239258 L79.1113281,41.5351562 C79.1113281,41.1796875 79.0340983,40.857015 78.8796387,40.5671387 C78.725179,40.2772624 78.4966634,40.0476888 78.1940918,39.878418 C77.8915202,39.7091471 77.5244141,39.6245117 77.0927734,39.6245117 C76.6695964,39.6245117 76.3056641,39.7091471 76.0009766,39.878418 C75.6962891,40.0476888 75.4656576,40.2772624 75.309082,40.5671387 C75.1525065,40.857015 75.0742188,41.1796875 75.0742188,41.5351562 L75.0742188,41.5351562 L75.0742188,42.0239258 C75.0742188,42.3751628 75.1525065,42.6946615 75.309082,42.9824219 C75.4656576,43.2701823 75.697347,43.4986979 76.0041504,43.6679688 C76.3109538,43.8372396 76.6780599,43.921875 77.1054688,43.921875 Z M77.4799805,48.3081055 L81.9931641,41.0844727 L81.0664062,40.5957031 L76.5532227,47.8193359 L77.4799805,48.3081055 Z M77.1054688,42.8237305 C76.860026,42.8237305 76.6706543,42.7465007 76.5373535,42.592041 C76.4040527,42.4375814 76.3374023,42.2482096 76.3374023,42.0239258 L76.3374023,42.0239258 L76.3374023,41.5351562 C76.3374023,41.3066406 76.4029948,41.1140951 76.5341797,40.9575195 C76.6653646,40.800944 76.8515625,40.7226562 77.0927734,40.7226562 C77.3382161,40.7226562 77.5265299,40.800944 77.6577148,40.9575195 C77.7888997,41.1140951 77.8544922,41.3066406 77.8544922,41.5351562 L77.8544922,41.5351562 L77.8544922,42.0239258 C77.8544922,42.2482096 77.7899577,42.4375814 77.6608887,42.592041 C77.5318197,42.7465007 77.3466797,42.8237305 77.1054688,42.8237305 Z M81.5170898,49.1269531 C81.9444987,49.1269531 82.3105469,49.0423177 82.6152344,48.8730469 C82.9199219,48.703776 83.1484375,48.4752604 83.3007812,48.1875 C83.453125,47.8997396 83.5292969,47.578125 83.5292969,47.2226562 L83.5292969,47.2226562 L83.5292969,46.7338867 C83.5292969,46.378418 83.4520671,46.0568034 83.2976074,45.769043 C83.1431478,45.4812826 82.9135742,45.2527669 82.6088867,45.0834961 C82.3041992,44.9142253 81.9360352,44.8295898 81.5043945,44.8295898 C81.0812174,44.8295898 80.7172852,44.9142253 80.4125977,45.0834961 C80.1079102,45.2527669 79.8772786,45.4823405 79.7207031,45.7722168 C79.5641276,46.0620931 79.4858398,46.3826497 79.4858398,46.7338867 L79.4858398,46.7338867 L79.4858398,47.2226562 C79.4858398,47.578125 79.5641276,47.8997396 79.7207031,48.1875 C79.8772786,48.4752604 80.1089681,48.703776 80.4157715,48.8730469 C80.7225749,49.0423177 81.089681,49.1269531 81.5170898,49.1269531 Z M81.5170898,48.0288086 C81.292806,48.0288086 81.108724,47.9494629 80.9648438,47.7907715 C80.8209635,47.6320801 80.7490234,47.4427083 80.7490234,47.2226562 L80.7490234,47.2226562 L80.7490234,46.7338867 C80.7490234,46.5053711 80.8146159,46.3138835 80.9458008,46.1594238 C81.0769857,46.0049642 81.2631836,45.9277344 81.5043945,45.9277344 C81.7498372,45.9277344 81.938151,46.0049642 82.0693359,46.1594238 C82.2005208,46.3138835 82.2661133,46.5053711 82.2661133,46.7338867 L82.2661133,46.7338867 L82.2661133,47.2226562 C82.2661133,47.468099 82.2111003,47.6638184 82.1010742,47.8098145 C81.9910482,47.9558105 81.7963867,48.0288086 81.5170898,48.0288086 Z M91.8256836,49.1269531 C92.6043294,49.1269531 93.2919922,48.9428711 93.8886719,48.574707 C94.4853516,48.206543 94.9497884,47.6796875 95.2819824,46.9941406 C95.6141764,46.3085938 95.7802734,45.5045573 95.7802734,44.5820312 L95.7802734,44.5820312 L95.7802734,44.1821289 C95.7802734,43.2596029 95.6131185,42.4545085 95.2788086,41.7668457 C94.9444987,41.0791829 94.477946,40.5512695 93.8791504,40.1831055 C93.2803548,39.8149414 92.5916341,39.6308594 91.8129883,39.6308594 C91.0343424,39.6308594 90.3466797,39.8149414 89.75,40.1831055 C89.1533203,40.5512695 88.6878255,41.0791829 88.3535156,41.7668457 C88.0192057,42.4545085 87.8520508,43.2596029 87.8520508,44.1821289 L87.8520508,44.1821289 L87.8520508,44.5820312 C87.8520508,45.5045573 88.0192057,46.3085938 88.3535156,46.9941406 C88.6878255,47.6796875 89.1554362,48.206543 89.7563477,48.574707 C90.3572591,48.9428711 91.0470378,49.1269531 91.8256836,49.1269531 Z M91.8256836,47.4956055 C91.1993815,47.4956055 90.7169596,47.2438151 90.378418,46.7402344 C90.0398763,46.2366536 89.8706055,45.5172526 89.8706055,44.5820312 L89.8706055,44.5820312 L89.8706055,44.1694336 C89.8706055,43.2257487 90.0377604,42.5063477 90.3720703,42.0112305 C90.7063802,41.5161133 91.1866862,41.2685547 91.8129883,41.2685547 C92.4350586,41.2685547 92.9153646,41.5171712 93.2539062,42.0144043 C93.5924479,42.5116374 93.7617188,43.2299805 93.7617188,44.1694336 L93.7617188,44.1694336 L93.7617188,44.5820312 C93.7617188,45.5172526 93.5945638,46.2366536 93.2602539,46.7402344 C92.925944,47.2438151 92.4477539,47.4956055 91.8256836,47.4956055 Z M99.3984375,49 L99.3984375,43.5283203 L100.756836,43.5283203 L100.756836,42.1318359 L99.3984375,42.1318359 L99.3984375,41.5478516 C99.3984375,41.2643229 99.4873047,41.0463867 99.6650391,40.894043 C99.8427734,40.7416992 100.094564,40.6655273 100.42041,40.6655273 C100.63623,40.6655273 100.820312,40.6845703 100.972656,40.7226562 L100.972656,40.7226562 L100.985352,39.2436523 C100.655273,39.1590169 100.335775,39.1166992 100.026855,39.1166992 C99.5063477,39.1166992 99.0546061,39.2108561 98.6716309,39.3991699 C98.2886556,39.5874837 97.9945475,39.8636068 97.7893066,40.2275391 C97.5840658,40.5914714 97.4814453,41.0315755 97.4814453,41.5478516 L97.4814453,41.5478516 L97.4814453,42.1318359 L96.4658203,42.1318359 L96.4658203,43.5283203 L97.4814453,43.5283203 L97.4814453,49 L99.3984375,49 Z M104.07666,49 L104.07666,43.5283203 L105.435059,43.5283203 L105.435059,42.1318359 L104.07666,42.1318359 L104.07666,41.5478516 C104.07666,41.2643229 104.165527,41.0463867 104.343262,40.894043 C104.520996,40.7416992 104.772786,40.6655273 105.098633,40.6655273 C105.314453,40.6655273 105.498535,40.6845703 105.650879,40.7226562 L105.650879,40.7226562 L105.663574,39.2436523 C105.333496,39.1590169 105.013997,39.1166992 104.705078,39.1166992 C104.18457,39.1166992 103.732829,39.2108561 103.349854,39.3991699 C102.966878,39.5874837 102.67277,39.8636068 102.467529,40.2275391 C102.262288,40.5914714 102.159668,41.0315755 102.159668,41.5478516 L102.159668,41.5478516 L102.159668,42.1318359 L101.144043,42.1318359 L101.144043,43.5283203 L102.159668,43.5283203 L102.159668,49 L104.07666,49 Z M115.934082,49 L115.934082,47.394043 L111.6875,47.394043 L111.6875,45.0263672 L115.299316,45.0263672 L115.299316,43.4711914 L111.6875,43.4711914 L111.6875,41.3701172 L115.927734,41.3701172 L115.927734,39.7578125 L109.694336,39.7578125 L109.694336,49 L115.934082,49 Z M118.936523,49.1269531 C119.647461,49.1269531 120.220866,48.8793945 120.656738,48.3842773 C120.694824,48.6297201 120.756185,48.8349609 120.84082,49 L120.84082,49 L122.76416,49 L122.76416,48.8920898 C122.671061,48.7058919 122.601237,48.4921875 122.554688,48.2509766 C122.508138,48.0097656 122.484863,47.6944987 122.484863,47.3051758 L122.484863,47.3051758 L122.484863,44.4296875 C122.484863,43.9049479 122.366374,43.460612 122.129395,43.0966797 C121.892415,42.7327474 121.564453,42.4597982 121.145508,42.277832 C120.726562,42.0958659 120.246257,42.0048828 119.70459,42.0048828 C119.120605,42.0048828 118.605387,42.1022135 118.158936,42.296875 C117.712484,42.4915365 117.367594,42.7560221 117.124268,43.090332 C116.880941,43.4246419 116.759277,43.7970378 116.759277,44.2075195 L116.759277,44.2075195 L118.67627,44.2075195 C118.67627,43.9536133 118.757731,43.7578939 118.920654,43.6203613 C119.083577,43.4828288 119.311035,43.4140625 119.603027,43.4140625 C119.924642,43.4140625 120.165853,43.5018717 120.32666,43.6774902 C120.487467,43.8531087 120.567871,44.0996094 120.567871,44.4169922 L120.567871,44.4169922 L120.567871,44.8041992 L119.787109,44.8041992 C118.741862,44.8041992 117.950521,44.9999186 117.413086,45.3913574 C116.875651,45.7827962 116.606934,46.340332 116.606934,47.0639648 C116.606934,47.4575195 116.709554,47.8108724 116.914795,48.1240234 C117.120036,48.4371745 117.400391,48.6826172 117.755859,48.8603516 C118.111328,49.0380859 118.504883,49.1269531 118.936523,49.1269531 Z M119.368164,47.6733398 C119.110026,47.6733398 118.903727,47.6056315 118.749268,47.4702148 C118.594808,47.3347982 118.517578,47.1591797 118.517578,46.9433594 C118.517578,46.6344401 118.626546,46.3837077 118.844482,46.1911621 C119.062419,45.9986165 119.393555,45.9023438 119.837891,45.9023438 L119.837891,45.9023438 L120.567871,45.9023438 L120.567871,47.0512695 C120.47054,47.2247721 120.316081,47.3718262 120.104492,47.4924316 C119.892904,47.6130371 119.647461,47.6733398 119.368164,47.6733398 Z M126.750488,49.1269531 C127.27946,49.1269531 127.760824,49.019043 128.19458,48.8032227 C128.628337,48.5874023 128.972168,48.2869466 129.226074,47.9018555 C129.47998,47.5167643 129.606934,47.0808919 129.606934,46.5942383 L129.606934,46.5942383 L127.810547,46.5942383 C127.806315,46.8989258 127.704753,47.1401367 127.505859,47.3178711 C127.306966,47.4956055 127.04248,47.5844727 126.712402,47.5844727 C126.234212,47.5844727 125.909424,47.4130859 125.738037,47.0703125 C125.56665,46.7275391 125.480957,46.2535807 125.480957,45.6484375 L125.480957,45.6484375 L125.480957,45.4833984 C125.480957,44.8909505 125.567708,44.420166 125.741211,44.0710449 C125.914714,43.7219238 126.234212,43.5473633 126.699707,43.5473633 C127.046712,43.5473633 127.317546,43.6573893 127.512207,43.8774414 C127.706868,44.0974935 127.806315,44.3767904 127.810547,44.715332 L127.810547,44.715332 L129.606934,44.715332 C129.606934,44.1609701 129.486328,43.6796061 129.245117,43.2712402 C129.003906,42.8628743 128.666423,42.5497233 128.232666,42.3317871 C127.79891,42.1138509 127.300618,42.0048828 126.737793,42.0048828 C126.052246,42.0048828 125.471436,42.1551107 124.995361,42.4555664 C124.519287,42.7560221 124.161702,43.1686198 123.922607,43.6933594 C123.683512,44.218099 123.563965,44.8147786 123.563965,45.4833984 L123.563965,45.4833984 L123.563965,45.6484375 C123.563965,46.3170573 123.683512,46.913737 123.922607,47.4384766 C124.161702,47.9632161 124.520345,48.3758138 124.998535,48.6762695 C125.476725,48.9767253 126.06071,49.1269531 126.750488,49.1269531 Z M132.495117,49 L132.495117,44.1123047 C132.719401,43.7399089 133.087565,43.5537109 133.599609,43.5537109 C133.95931,43.5537109 134.226969,43.6383464 134.402588,43.8076172 C134.578206,43.976888 134.666016,44.2688802 134.666016,44.6835938 L134.666016,44.6835938 L134.666016,49 L136.583008,49 L136.583008,44.6962891 C136.583008,43.7568359 136.383057,43.0734049 135.983154,42.6459961 C135.583252,42.2185872 135.0236,42.0048828 134.304199,42.0048828 C133.940267,42.0048828 133.604899,42.0789388 133.298096,42.2270508 C132.991292,42.3751628 132.723633,42.5888672 132.495117,42.8681641 L132.495117,42.8681641 L132.495117,39.25 L130.578125,39.25 L130.578125,49 L132.495117,49 Z M143.260742,49 L143.260742,45.7880859 L144.898438,45.7880859 C145.617839,45.7880859 146.242025,45.6674805 146.770996,45.4262695 C147.299967,45.1850586 147.704102,44.8422852 147.983398,44.3979492 C148.262695,43.9536133 148.402344,43.4352214 148.402344,42.8427734 C148.402344,42.2460938 148.261637,41.7150065 147.980225,41.2495117 C147.698812,40.7840169 147.29362,40.4190267 146.764648,40.154541 C146.235677,39.8900553 145.613607,39.7578125 144.898438,39.7578125 L144.898438,39.7578125 L141.267578,39.7578125 L141.267578,49 L143.260742,49 Z M144.898438,44.1757812 L143.260742,44.1757812 L143.260742,41.3701172 L144.898438,41.3701172 C145.232747,41.3701172 145.512044,41.4378255 145.736328,41.5732422 C145.960612,41.7086589 146.125651,41.8885091 146.231445,42.112793 C146.33724,42.3370768 146.390137,42.5846354 146.390137,42.8554688 C146.390137,43.2617188 146.267415,43.5833333 146.021973,43.8203125 C145.77653,44.0572917 145.402018,44.1757812 144.898438,44.1757812 L144.898438,44.1757812 Z M151.811035,49.1269531 C152.213053,49.1269531 152.570638,49.0539551 152.883789,48.907959 C153.19694,48.7619629 153.461426,48.5535482 153.677246,48.2827148 L153.677246,48.2827148 L153.728027,49 L155.524414,49 L155.524414,42.1318359 L153.607422,42.1318359 L153.607422,46.9624023 C153.378906,47.3728841 152.97054,47.578125 152.382324,47.578125 C152.0861,47.578125 151.854411,47.4977214 151.687256,47.3369141 C151.520101,47.1761068 151.436523,46.9264323 151.436523,46.5878906 L151.436523,46.5878906 L151.436523,42.1318359 L149.525879,42.1318359 L149.525879,46.5751953 C149.525879,47.4469401 149.727946,48.0901693 150.13208,48.5048828 C150.536214,48.9195964 151.095866,49.1269531 151.811035,49.1269531 Z M158.780762,49 L158.780762,44.5629883 C158.988118,44.1101888 159.43457,43.8837891 160.120117,43.8837891 C160.327474,43.8837891 160.553874,43.9007161 160.799316,43.9345703 L160.799316,43.9345703 L160.824707,42.0810547 C160.756999,42.0598958 160.668132,42.0419108 160.558105,42.0270996 C160.448079,42.0122884 160.344401,42.0048828 160.24707,42.0048828 C159.921224,42.0048828 159.628174,42.0874023 159.36792,42.2524414 C159.107666,42.4174805 158.892904,42.6544596 158.723633,42.9633789 L158.723633,42.9633789 L158.666504,42.1318359 L156.86377,42.1318359 L156.86377,49 L158.780762,49 Z M164.538086,49.1269531 C165.067057,49.1269531 165.548421,49.019043 165.982178,48.8032227 C166.415934,48.5874023 166.759766,48.2869466 167.013672,47.9018555 C167.267578,47.5167643 167.394531,47.0808919 167.394531,46.5942383 L167.394531,46.5942383 L165.598145,46.5942383 C165.593913,46.8989258 165.49235,47.1401367 165.293457,47.3178711 C165.094564,47.4956055 164.830078,47.5844727 164.5,47.5844727 C164.02181,47.5844727 163.697021,47.4130859 163.525635,47.0703125 C163.354248,46.7275391 163.268555,46.2535807 163.268555,45.6484375 L163.268555,45.6484375 L163.268555,45.4833984 C163.268555,44.8909505 163.355306,44.420166 163.528809,44.0710449 C163.702311,43.7219238 164.02181,43.5473633 164.487305,43.5473633 C164.83431,43.5473633 165.105143,43.6573893 165.299805,43.8774414 C165.494466,44.0974935 165.593913,44.3767904 165.598145,44.715332 L165.598145,44.715332 L167.394531,44.715332 C167.394531,44.1609701 167.273926,43.6796061 167.032715,43.2712402 C166.791504,42.8628743 166.45402,42.5497233 166.020264,42.3317871 C165.586507,42.1138509 165.088216,42.0048828 164.525391,42.0048828 C163.839844,42.0048828 163.259033,42.1551107 162.782959,42.4555664 C162.306885,42.7560221 161.9493,43.1686198 161.710205,43.6933594 C161.47111,44.218099 161.351562,44.8147786 161.351562,45.4833984 L161.351562,45.4833984 L161.351562,45.6484375 C161.351562,46.3170573 161.47111,46.913737 161.710205,47.4384766 C161.9493,47.9632161 162.307943,48.3758138 162.786133,48.6762695 C163.264323,48.9767253 163.848307,49.1269531 164.538086,49.1269531 Z M170.282715,49 L170.282715,44.1123047 C170.506999,43.7399089 170.875163,43.5537109 171.387207,43.5537109 C171.746908,43.5537109 172.014567,43.6383464 172.190186,43.8076172 C172.365804,43.976888 172.453613,44.2688802 172.453613,44.6835938 L172.453613,44.6835938 L172.453613,49 L174.370605,49 L174.370605,44.6962891 C174.370605,43.7568359 174.170654,43.0734049 173.770752,42.6459961 C173.37085,42.2185872 172.811198,42.0048828 172.091797,42.0048828 C171.727865,42.0048828 171.392497,42.0789388 171.085693,42.2270508 C170.77889,42.3751628 170.51123,42.5888672 170.282715,42.8681641 L170.282715,42.8681641 L170.282715,39.25 L168.365723,39.25 L168.365723,49 L170.282715,49 Z M177.753906,49.1269531 C178.464844,49.1269531 179.038249,48.8793945 179.474121,48.3842773 C179.512207,48.6297201 179.573568,48.8349609 179.658203,49 L179.658203,49 L181.581543,49 L181.581543,48.8920898 C181.488444,48.7058919 181.41862,48.4921875 181.37207,48.2509766 C181.325521,48.0097656 181.302246,47.6944987 181.302246,47.3051758 L181.302246,47.3051758 L181.302246,44.4296875 C181.302246,43.9049479 181.183757,43.460612 180.946777,43.0966797 C180.709798,42.7327474 180.381836,42.4597982 179.962891,42.277832 C179.543945,42.0958659 179.063639,42.0048828 178.521973,42.0048828 C177.937988,42.0048828 177.42277,42.1022135 176.976318,42.296875 C176.529867,42.4915365 176.184977,42.7560221 175.94165,43.090332 C175.698324,43.4246419 175.57666,43.7970378 175.57666,44.2075195 L175.57666,44.2075195 L177.493652,44.2075195 C177.493652,43.9536133 177.575114,43.7578939 177.738037,43.6203613 C177.90096,43.4828288 178.128418,43.4140625 178.42041,43.4140625 C178.742025,43.4140625 178.983236,43.5018717 179.144043,43.6774902 C179.30485,43.8531087 179.385254,44.0996094 179.385254,44.4169922 L179.385254,44.4169922 L179.385254,44.8041992 L178.604492,44.8041992 C177.559245,44.8041992 176.767904,44.9999186 176.230469,45.3913574 C175.693034,45.7827962 175.424316,46.340332 175.424316,47.0639648 C175.424316,47.4575195 175.526937,47.8108724 175.732178,48.1240234 C175.937419,48.4371745 176.217773,48.6826172 176.573242,48.8603516 C176.928711,49.0380859 177.322266,49.1269531 177.753906,49.1269531 Z M178.185547,47.6733398 C177.927409,47.6733398 177.72111,47.6056315 177.56665,47.4702148 C177.412191,47.3347982 177.334961,47.1591797 177.334961,46.9433594 C177.334961,46.6344401 177.443929,46.3837077 177.661865,46.1911621 C177.879801,45.9986165 178.210938,45.9023438 178.655273,45.9023438 L178.655273,45.9023438 L179.385254,45.9023438 L179.385254,47.0512695 C179.287923,47.2247721 179.133464,47.3718262 178.921875,47.4924316 C178.710286,47.6130371 178.464844,47.6733398 178.185547,47.6733398 Z M185.288574,49.1269531 C185.872559,49.1269531 186.385661,49.0359701 186.827881,48.8540039 C187.270101,48.6720378 187.610758,48.4213053 187.849854,48.1018066 C188.088949,47.7823079 188.208496,47.4215495 188.208496,47.0195312 C188.208496,46.5751953 188.097412,46.2091471 187.875244,45.9213867 C187.653076,45.6336263 187.353678,45.4082845 186.977051,45.2453613 C186.600423,45.0824382 186.141276,44.9501953 185.599609,44.8486328 C185.14681,44.7639974 184.826253,44.660319 184.637939,44.5375977 C184.449626,44.4148763 184.355469,44.254069 184.355469,44.0551758 C184.355469,43.847819 184.439046,43.6785482 184.606201,43.5473633 C184.773356,43.4161784 184.996582,43.3505859 185.275879,43.3505859 C185.614421,43.3505859 185.866211,43.4278158 186.03125,43.5822754 C186.196289,43.736735 186.278809,43.9514974 186.278809,44.2265625 L186.278809,44.2265625 L188.195801,44.2265625 C188.195801,43.7949219 188.077311,43.4108887 187.840332,43.0744629 C187.603353,42.7380371 187.264811,42.4756673 186.824707,42.2873535 C186.384603,42.0990397 185.870443,42.0048828 185.282227,42.0048828 C184.723633,42.0048828 184.234863,42.1022135 183.815918,42.296875 C183.396973,42.4915365 183.076416,42.7517904 182.854248,43.0776367 C182.63208,43.4034831 182.520996,43.7610677 182.520996,44.1503906 C182.520996,45.2041016 183.333496,45.9044596 184.958496,46.2514648 C185.32666,46.3318685 185.611247,46.4122721 185.812256,46.4926758 C186.013265,46.5730794 186.152913,46.6587728 186.231201,46.7497559 C186.309489,46.8407389 186.348633,46.9518229 186.348633,47.0830078 C186.348633,47.2945964 186.260824,47.4628092 186.085205,47.5876465 C185.909587,47.7124837 185.658854,47.7749023 185.333008,47.7749023 C184.981771,47.7749023 184.69401,47.6955566 184.469727,47.5368652 C184.245443,47.3781738 184.126953,47.1337891 184.114258,46.8037109 L184.114258,46.8037109 L182.305176,46.8037109 C182.305176,47.1888021 182.422607,47.559082 182.657471,47.9145508 C182.892334,48.2700195 183.235107,48.5609538 183.685791,48.7873535 C184.136475,49.0137533 184.670736,49.1269531 185.288574,49.1269531 Z M192.550293,49.1269531 C193.172363,49.1269531 193.715088,49.0084635 194.178467,48.7714844 C194.641846,48.5345052 194.994141,48.242513 195.235352,47.8955078 L195.235352,47.8955078 L194.314941,46.8354492 C194.116048,47.0851237 193.875895,47.2723796 193.594482,47.3972168 C193.31307,47.522054 193.007324,47.5844727 192.677246,47.5844727 C192.23291,47.5844727 191.868978,47.4585775 191.585449,47.2067871 C191.301921,46.9549967 191.124186,46.6153971 191.052246,46.1879883 L191.052246,46.1879883 L195.394043,46.1879883 L195.394043,45.3754883 C195.394043,44.6899414 195.275553,44.0943197 195.038574,43.588623 C194.801595,43.0829264 194.45459,42.6925456 193.997559,42.4174805 C193.540527,42.1424154 192.988281,42.0048828 192.34082,42.0048828 C191.676432,42.0048828 191.100911,42.1561686 190.614258,42.4587402 C190.127604,42.7613118 189.755208,43.1813151 189.49707,43.71875 C189.238932,44.2561849 189.109863,44.8676758 189.109863,45.5532227 L189.109863,45.5532227 L189.109863,45.7944336 C189.109863,46.4080404 189.248454,46.96875 189.525635,47.4765625 C189.802816,47.984375 190.200602,48.3863932 190.718994,48.6826172 C191.237386,48.9788411 191.847819,49.1269531 192.550293,49.1269531 Z M193.515137,44.9057617 L191.071289,44.9057617 C191.134766,44.4825846 191.269124,44.1503906 191.474365,43.9091797 C191.679606,43.6679688 191.964193,43.5473633 192.328125,43.5473633 C192.717448,43.5473633 193.010498,43.6552734 193.207275,43.8710938 C193.404053,44.0869141 193.506673,44.3810221 193.515137,44.753418 L193.515137,44.753418 L193.515137,44.9057617 Z"/>
      <g fill-rule="nonzero" transform="translate(12 14)">
        <path fill="#221E20" d="M37.8804706,18.9402353 C37.8804706,29.4006384 29.4006384,37.8804706 18.9402353,37.8804706 C8.47983218,37.8804706 0,29.4006384 0,18.9402353 C0,8.47983218 8.47983218,0 18.9402353,0 C23.9635913,0 28.781291,1.99508139 32.3333401,5.54713048 C35.8853892,9.09917957 37.8804706,13.9168793 37.8804706,18.9402353 Z"/>
        <path fill="#F90" d="M28.9276765,28.3071176 C29.8222008,27.4371475 30.3548494,26.2612231 30.4188529,25.0150588 L30.4188529,24.8739706 C30.4251989,24.7376449 30.3946879,24.6021284 30.3305294,24.4816765 C29.3630963,24.0904749 28.2880199,24.0563197 27.2977059,24.3853235 C26.9454152,24.4956685 26.6114312,24.6576353 26.3066471,24.8659412 C26.0772353,25.0288235 26.1219706,25.2352941 26.3513824,25.2100588 C26.6025882,25.1653235 26.9249118,25.1435294 27.2908235,25.0953529 C28.0937647,25.0288235 29.0366471,25.0070294 29.2660588,25.3029706 C29.5837941,25.6952647 28.8967059,27.3963529 28.6007647,28.1362059 C28.5204706,28.3805294 28.7200588,28.47 28.9276765,28.3071176 Z M7.81261765,25.0150588 C13.1705968,29.8572407 21.0358177,30.702142 27.3,27.1084412 C27.6274761,26.9237167 27.9414135,26.7159584 28.2394412,26.4867353 C28.6535294,26.1907941 28.2841765,25.7250882 27.8700882,25.9132059 C27.6854118,25.9797353 27.4777941,26.0760882 27.2965588,26.1426176 C24.747799,27.1402379 22.036293,27.6571042 19.2992647,27.6670588 C15.3546989,27.6683622 11.4787445,26.6353017 8.05808824,24.6709412 C7.761,24.5115 7.55338235,24.8074412 7.81261765,25.0150588 Z"/>
        <path fill="#FFF" d="M20.2880294,13.9539706 C19.7408824,13.9987059 19.1042647,14.0422941 18.4676471,14.1237353 C17.5215009,14.2092988 16.593535,14.4362638 15.7147059,14.7970588 C14.07206,15.4181274 13.0130589,17.0228147 13.0879412,18.7773529 C12.9944033,19.7801809 13.34283,20.7739417 14.0421173,21.4987938 C14.7414045,22.223646 15.7220198,22.6075149 16.7275588,22.5500294 C17.3109648,22.5538936 17.8925276,22.4841369 18.4584706,22.3424118 C19.3487786,22.0340567 20.1393685,21.4911453 20.7468529,20.7709412 C21.123102,21.3802823 21.5952658,21.9248782 22.1451176,22.3837059 C22.3349541,22.4821314 22.5641139,22.4648112 22.737,22.3389706 C23.2474412,21.9168529 24.1352647,21.1552059 24.6009706,20.7262059 C24.7851894,20.5608202 24.8049851,20.2791117 24.6457059,20.0895882 C24.0487309,19.496501 23.7130625,18.6897408 23.7131471,17.8482353 L23.7131471,14.0308235 C23.7131471,12.4180588 23.8393235,10.9337647 22.6555588,9.83602941 C21.6119967,9.00745433 20.31013,8.57255126 18.9780882,8.60752941 L18.4676471,8.60752941 C16.3077353,8.73370588 14.0285294,9.66511765 13.5180882,12.3366176 C13.4856235,12.450764 13.5051706,12.5734189 13.5715081,12.6718196 C13.6378456,12.7702202 13.7442158,12.8343426 13.8622059,12.8470588 L16.2297353,13.143 C16.4553707,13.0936905 16.6248827,12.9066745 16.6518529,12.6772941 C16.855719,11.8301027 17.6012631,11.2240839 18.4722353,11.1975882 L18.642,11.1975882 C19.1681056,11.1855092 19.6693318,11.4212554 19.9955294,11.8342059 C20.2642297,12.3873407 20.3670158,13.0064477 20.2914706,13.6167353 L20.2914706,13.9493824 L20.2880294,13.9539706 Z M20.2880294,16.4098235 C20.3951302,17.2977242 20.2328756,18.1973184 19.8223235,18.9918529 C19.5582268,19.5428489 19.0618481,19.9471031 18.4687941,20.0941765 C18.3873529,20.0941765 18.2611765,20.1389118 18.1246765,20.1389118 C17.1921176,20.1389118 16.6449706,19.4208529 16.6449706,18.3563824 C16.5978012,17.247357 17.3739295,16.2726728 18.4653529,16.0702941 C19.064117,15.9473327 19.6745598,15.8904042 20.2857353,15.9005294 L20.2857353,16.4109706 L20.2880294,16.4098235 Z"/>
      </g>
    </g>
    <use fill="#000" filter="url(#wallet-brand-toast-j)" xlink:href="#wallet-brand-toast-k"/>
    <use fill="#FFF" xlink:href="#wallet-brand-toast-k"/>
    <g fill="#1A3B8B" transform="translate(16 16)">
      <path d="M51.2133761 4.20840216L48.5534671 4.20840216 47.0142303 10.6142295 46.7981971 11.4931996C46.6496743 11.5331527 46.5011514 11.5731059 46.3526286 11.5997414 46.0825871 11.6530123 45.7990435 11.6796478 45.5019978 11.6796478 45.1644459 11.6796478 44.8944043 11.6263768 44.6918732 11.5331527 44.5028441 11.4399287 44.3543213 11.3067514 44.2733088 11.1203032 44.1922964 10.9471727 44.1652922 10.734089 44.1787943 10.4943699 44.1922964 10.2546508 44.2463047 9.98829626 44.313815 9.72194169L45.1239396 6.39250961 45.6505206 4.1817667 42.9366032 4.1817667 41.7079143 9.29577439C41.5593914 9.90838989 41.478379 10.4943699 41.4513748 11.0537145 41.4243707 11.6130591 41.5188852 12.0924973 41.7079143 12.5319824 41.8969433 12.9581497 42.2344953 13.2910929 42.6935659 13.5441297 43.1526365 13.7971666 43.8142382 13.9170261 44.651367 13.9170261 45.2319562 13.9170261 45.7450351 13.8637552 46.1771016 13.7705311 46.1906037 13.7705311 46.2176078 13.7572134 46.2311099 13.7572134L46.2311099 13.7572134C46.1095912 14.2899225 45.8665538 14.7160898 45.4884957 15.049033 45.0969355 15.3819762 44.5298483 15.5551067 43.773732 15.5551067 43.4496821 15.5551067 43.1526365 15.541789 42.8825949 15.5018358L42.356014 17.6726255C42.7070679 17.7125787 43.0986282 17.7392142 43.5306946 17.7392142 44.3408192 17.7392142 45.0429272 17.6459901 45.6505206 17.4728596 46.2581141 17.2864114 46.771193 17.0200568 47.2167615 16.6471604 47.6488279 16.274264 48.013384 15.8081435 48.3104297 15.2621167 48.6074754 14.7027721 48.8370107 14.0502034 49.0125377 13.2777752L50.8488201 5.66003455 50.8488201 5.66003455 51.2133761 4.20840216 51.2133761 4.20840216zM40.074163 9.68198851C39.9121381 10.3478749 39.8581298 11.0270791 39.9256402 11.6929655 39.9931506 12.3721696 40.2631921 13.3976347 40.5197315 13.9170261L37.954337 13.9170261C37.6437893 13.3976347 37.6572913 13.1445979 37.5897809 12.9847851 37.252229 13.2511397 36.887673 13.4775411 36.4826107 13.6506716 36.0775484 13.823802 35.6319799 13.9170261 35.118901 13.9170261 34.5248096 13.9170261 34.0117307 13.8104843 33.5931663 13.6107184 33.1746019 13.4109524 32.8235479 13.1312802 32.5535064 12.7850192 32.2834649 12.4387583 32.0944358 12.0392264 31.9729171 11.5731059 31.8513984 11.1069854 31.7973901 10.6142295 31.7973901 10.0815204 31.7973901 9.26913893 31.945913 8.51002841 32.2294566 7.79087108 32.5265023 7.07171375 32.9315646 6.44578052 33.4446435 5.91307139 33.9577224 5.38036225 35.2134155 4.19508443 37.2657311 4.19508443L41.3838644 4.19508443 40.074163 9.68198851 40.074163 9.68198851zM38.1973744 6.41914506C36.9551834 6.41914506 36.7256481 6.41914506 36.2125691 6.6721819 35.8480131 6.8586301 35.5509674 7.13830239 35.2944279 7.45792788 35.0378885 7.77755336 34.8218553 8.15044975 34.6733324 8.57661706 34.5248096 9.00278436 34.4437971 9.4422694 34.4437971 9.89507216 34.4437971 10.4544168 34.5383117 10.9072195 34.7273407 11.2401627 34.9163698 11.5731059 35.2674238 11.7329187 35.7805027 11.7329187 36.0505442 11.7329187 36.3070837 11.6796478 36.5231169 11.5731059 36.7391501 11.4665641 36.9821875 11.2934336 37.2252249 11.0403968 37.252229 10.7474068 37.2927353 10.441099 37.3467436 10.1214735 37.4007519 9.80184806 37.4682623 9.49554031 37.5222706 9.22918575L38.1973744 6.41914506 38.1973744 6.41914506zM31.068278 8.05722565C31.068278 8.92287799 30.9197552 9.70862397 30.6362116 10.4277813 30.352668 11.1469386 29.9476057 11.7595541 29.4345267 12.2789455 28.9214478 12.7983369 28.3138544 13.1978688 27.5982443 13.4908588 26.8826343 13.7838488 26.1130159 13.9303439 25.2758872 13.9303439 24.8708249 13.9303439 24.4657626 13.8903907 24.0471982 13.823802L23.2370736 17.0333746 20.5771646 17.0333746 23.6691401 4.22171989 27.2201862 4.22171989C27.89529 4.22171989 28.4758793 4.32826171 28.948452 4.52802764 29.4345267 4.72779356 29.826087 5.00746586 30.1501368 5.3537268 30.4606846 5.69998773 30.6902199 6.11283731 30.8387427 6.5789578 31.0007676 7.03176057 31.068278 7.52451652 31.068278 8.05722565L31.068278 8.05722565zM24.5467751 11.6929655C24.7493062 11.7462364 25.0058457 11.7595541 25.3028913 11.7595541 25.775464 11.7595541 26.1940284 11.6796478 26.5855886 11.5065173 26.9636468 11.3333868 27.3011987 11.0936677 27.5712402 10.78736 27.8412817 10.4810522 28.0438129 10.1081558 28.2058378 9.68198851 28.3543606 9.2558212 28.4353731 8.77638298 28.4353731 8.25699158 28.4353731 7.7509179 28.3273565 7.31143286 28.0978212 6.96517193 27.8682859 6.60559326 27.4767257 6.41914506 26.9096384 6.41914506L25.8564765 6.41914506 24.5467751 11.6929655 24.5467751 11.6929655zM18.9569154 11.6929655C18.6193635 11.6929655 18.349322 11.6396946 18.1467908 11.5464705 17.9577617 11.4532464 17.8092389 11.3200691 17.7282264 11.1336209 17.647214 10.9604904 17.6202098 10.7474068 17.6337119 10.5076877 17.647214 10.2679686 17.7012223 10.001614 17.7687327 9.73525942L18.5788573 6.40582734 21.6033224 6.40582734 22.1569075 4.19508443 19.1189403 4.19508443 19.8210483 1.39836148 16.9856122 1.83784651 15.1898361 9.32240984C15.0413132 9.93502535 14.9603008 10.5210054 14.9332966 11.08035 14.9062924 11.6396946 15.000807 12.1191328 15.1898361 12.5586178 15.3788651 12.9847851 15.716417 13.3177283 16.1754876 13.5707652 16.6345582 13.823802 17.29616 13.9436616 18.1332887 13.9436616 18.713878 13.9436616 19.2269569 13.8903907 19.6590234 13.7971666 19.6995296 13.7838488 19.76704 13.7705311 19.8075462 13.7572134L20.3611313 11.4798818C20.1721023 11.5464705 19.9830732 11.5864237 19.8075462 11.6130591 19.5375047 11.66633 19.2539611 11.6929655 18.9569154 11.6929655L18.9569154 11.6929655z"/>
      <polygon points="12.192 4.208 9.843 13.93 12.503 13.93 14.839 4.208"/>
      <polygon points="15.122 3.09 15.527 1.398 12.867 1.398 12.462 3.09"/>
      <path d="M6.30546972,4.22171989 C6.87255693,4.22171989 7.37213376,4.32826171 7.79069813,4.52802764 C8.20926251,4.72779356 8.54681442,4.99414813 8.83035802,5.34040907 C9.10039955,5.68667 9.3029307,6.08620186 9.43795147,6.53900462 C9.57297223,6.99180738 9.64048261,7.48456333 9.64048261,8.01727247 C9.64048261,8.82965389 9.49195977,9.58876441 9.18141201,10.3212395 C8.87086425,11.0403968 8.46580196,11.6796478 7.93922098,12.2123569 C7.41263999,12.745066 6.79154447,13.1712333 6.07593442,13.4775411 C5.36032437,13.7838488 4.59070601,13.9436616 3.75357726,13.9436616 C3.64556065,13.9436616 3.45653158,13.9436616 3.18649005,13.9303439 C2.91644852,13.9303439 2.60590076,13.9037084 2.26834885,13.8504375 C1.91729486,13.7971666 1.5527388,13.7305779 1.17468065,13.6373538 C0.783120436,13.5441297 0.418564371,13.4109524 0.0810124589,13.2511397 L3.17298798,0.439485035 L5.94091366,0.0133177283 L4.84724546,4.5546631 C5.09028284,4.44812127 5.30631606,4.3682149 5.54935344,4.31494398 C5.77888874,4.24835534 6.03542819,4.22171989 6.30546972,4.22171989 L6.30546972,4.22171989 Z M3.98311256,11.7595541 C4.40167694,11.7595541 4.79323715,11.66633 5.15779322,11.4532464 C5.52234928,11.2534805 5.84639912,10.9871259 6.11644065,10.6541827 C6.38648218,10.3212395 6.6025154,9.93502535 6.75103825,9.52217577 C6.89956109,9.09600846 6.98057355,8.65652343 6.98057355,8.20372066 C6.98057355,7.64437607 6.88605901,7.20489104 6.69702994,6.88526556 C6.50800087,6.56564008 6.11644065,6.41914506 5.60336174,6.41914506 C5.44133683,6.41914506 5.26580983,6.43246279 4.9957683,6.49905143 C4.72572677,6.55232235 4.49619147,6.68549963 4.28015825,6.87194783 L3.11897967,11.7062832 C3.47003366,11.7595541 3.57805027,11.7728719 3.67256481,11.7728719 C3.74007519,11.7595541 3.8480918,11.7595541 3.98311256,11.7595541 L3.98311256,11.7595541 Z"/>
    </g>
    <g transform="translate(241 14)">
      <g transform="translate(27)">
        <circle cx="10" cy="10" r="10" fill="#F5F5F7"/>
        <path fill="#434D5A" fill-rule="nonzero" d="M10.9788242,9.99524148 L13.3763494,12.3887321 C13.6386865,12.6569753 13.636114,13.0859697 13.3705788,13.3510581 C13.1050436,13.6161464 12.675326,13.6187146 12.4066307,13.3568189 L10.0095021,10.964912 L7.61039047,13.3584027 C7.43858394,13.5381037 7.18274819,13.6107901 6.94190762,13.5483277 C6.70106705,13.4858653 6.51301901,13.2980569 6.45054984,13.0575961 C6.38808067,12.8171353 6.46099424,12.5617598 6.64106844,12.3903159 L9.03700721,9.99524148 L6.63948199,7.60175082 C6.4637852,7.42910512 6.39437013,7.17563144 6.45764527,6.93776212 C6.52092041,6.6998928 6.7071583,6.51419616 6.94550599,6.45131923 C7.18385369,6.3884423 7.43766932,6.45805133 7.61039047,6.63366403 L10.0095021,9.02755063 L12.4070274,6.63247619 C12.6763469,6.37473293 13.1026026,6.37905257 13.3666257,6.64220069 C13.6306488,6.9053488 13.6356728,7.33087954 13.3779358,7.60016704 L10.9788242,9.99524148 Z"/>
      </g>
      <circle cx="10" cy="10" r="10" fill="#F5F5F7"/>
      <path fill="#434D5A" fill-rule="nonzero" d="M7.60615758,13.3552246 C7.43435105,13.5349256 7.1785153,13.607612 6.93767473,13.5451496 C6.69683416,13.4826872 6.50878612,13.2948788 6.44631695,13.0544179 C6.38384779,12.8139571 6.45676135,12.5585816 6.63683555,12.3871378 L12.4027945,6.62929804 C12.672114,6.37155478 13.0983697,6.37587442 13.3623928,6.63902254 C13.6264159,6.90217065 13.6314399,7.32770138 13.3737029,7.59698889 L7.60615758,13.3552246 Z" transform="rotate(45 9.994 10.003)"/>
    </g>
    <g transform="translate(0 381)">
      <use fill="#000" filter="url(#wallet-brand-toast-l)" xlink:href="#wallet-brand-toast-m"/>
      <use fill="#FFF" xlink:href="#wallet-brand-toast-m"/>
      <path fill="#4F6EF7" fill-rule="nonzero" d="M60,18.8 L75.2,18.8 C75.6418278,18.8 76,19.1581722 76,19.6 L76,27.6 C76,28.0418278 75.6418278,28.4 75.2,28.4 L60.8,28.4 C60.3581722,28.4 60,28.0418278 60,27.6 L60,18.8 Z M60.8,14 L72.8,14 L72.8,17.2 L60,17.2 L60,14.8 C60,14.3581722 60.3581722,14 60.8,14 Z M70.4,22.8 L70.4,24.4 L72.8,24.4 L72.8,22.8 L70.4,22.8 Z"/>
      <path fill="#9BA3AE" fill-rule="nonzero" d="M230.277415,13.1700883 C231.413116,12.9438441 232.58581,12.9432995 233.721743,13.1684887 C233.875032,14.1297545 234.48089,14.9723411 235.367712,15.4575946 C236.253836,15.944528 237.325221,16.0213716 238.278257,15.6663496 C239.051386,16.4886206 239.63702,17.4539942 239.998316,18.5017377 C239.199015,19.1086403 238.734178,20.0283314 238.735424,21.0003985 C238.735424,22.0113803 239.228794,22.9127857 240,23.4990592 C239.636566,24.5459355 239.050206,25.5105446 238.277415,26.3328476 C237.324623,25.9780841 236.253613,26.054923 235.367712,26.5416026 C234.481631,27.0266976 233.876165,27.8685827 233.722585,28.8291089 C232.587,29.0558807 231.414306,29.05697 230.278257,28.8323082 C230.125689,27.8701587 229.519741,27.0265624 228.632288,26.5408028 C227.746033,26.054132 226.674653,25.9775832 225.721743,26.3328476 C224.948514,25.5103416 224.362875,24.5446869 224.001684,23.4966597 C224.800523,22.8901071 225.26531,21.9711049 225.264576,20.9995986 C225.265413,20.0272615 224.799932,19.1075222 224,18.5009379 C224.363434,17.4540616 224.949794,16.4894525 225.722585,15.6671494 C226.675377,16.021913 227.746387,15.945074 228.632288,15.4583945 C229.518369,14.9732995 230.123835,14.1314144 230.277415,13.1708881 L230.277415,13.1700883 Z M232,23.5263158 C233.394952,23.5263158 234.525784,22.3952457 234.525784,21 C234.525784,19.6047543 233.394952,18.4736842 232,18.4736842 C230.605048,18.4736842 229.474216,19.6047543 229.474216,21 C229.474216,22.3952457 230.605048,23.5263158 232,23.5263158 Z"/>
      <g fill="#9BA3AE" fill-rule="nonzero" transform="translate(142 13)">
        <path d="M2.66666667,9.33333333 C2.66666667,10.069713 3.26362033,10.6666667 4,10.6666667 L13.3333333,10.6666667 C13.9069857,10.6662311 14.4160593,10.2989249 14.5973333,9.75466667 L15.9306667,5.75466667 C16.0660274,5.34825963 15.9978873,4.90156594 15.7475132,4.55400013 C15.497139,4.20643431 15.095023,4.00032516 14.6666667,4 L5.33333333,4 L5.33333333,1.33333333 C5.33333333,0.596953667 4.73637967,0 4,0 L7.46069873e-13,0 L7.46069873e-13,2.66666667 L2.66666667,2.66666667 L2.66666667,9.33333333 Z"/>
        <circle cx="3.333" cy="14" r="2"/>
        <circle cx="14" cy="14" r="2"/>
      </g>
    </g>
  </g>
</svg>
