<svg xmlns="http://www.w3.org/2000/svg" xmlns:xlink="http://www.w3.org/1999/xlink" width="256" height="256" viewBox="0 0 256 256">
  <defs>
    <path id="bch-a" d="M128,256 C198.692448,256 256,198.692448 256,128 C256,57.307552 198.692448,0 128,0 C57.307552,0 0,57.307552 0,128 C0,198.692448 57.307552,256 128,256 Z"/>
  </defs>
  <g fill="none" fill-rule="evenodd">
    <mask id="bch-b" fill="#fff">
      <use xlink:href="#bch-a"/>
    </mask>
    <use fill="#2FCF6E" xlink:href="#bch-a"/>
    <path fill="#FFF" d="M158.403465,112.921404 C154.947726,126.837472 132.236998,120.11196 124.832374,118.392709 L131.087557,93.689046 C138.325327,95.4082969 162.02235,98.3817554 158.403465,112.921404 L158.403465,112.921404 Z M154.780872,152.791819 C150.998841,168.113586 123.679225,160.140912 114.958305,158.108109 L121.706636,130.903078 C130.590702,132.93588 158.729758,136.687934 154.780872,152.791819 Z M184.073077,112.921404 C186.21252,97.909666 174.199008,90.0920067 157.743463,84.7757164 L162.845498,64.4512113 L149.845692,61.4812758 L144.910512,81.3372146 C141.454773,80.5550964 137.999034,79.7729781 134.543296,79.1493974 L139.478476,59.2899355 L126.315523,56.32 L121.213489,76.6480282 C118.414044,76.0209244 115.618307,75.5523581 112.818862,74.9252542 L94.8838755,70.8631717 L91.5912834,83.9971213 C91.5912834,83.9971213 101.302205,86.026401 100.972205,86.1849385 C106.237386,87.4356231 107.22368,90.7191105 107.060534,93.2204796 L101.302205,116.359906 C101.628498,116.518443 102.125353,116.518443 102.618501,116.828472 C102.125353,116.673458 101.795353,116.673458 101.302205,116.518443 L93.4007259,148.881228 C92.7444322,150.445464 91.0981362,152.633282 87.4792511,151.854686 C87.6423976,152.009701 77.9351834,149.663346 77.9351834,149.663346 L71.68,163.892966 L88.6286921,167.64502 C91.7581377,168.427138 94.8838755,169.050719 97.8464668,169.832837 L92.7444322,190.31588 L105.744238,193.285815 L110.846273,172.96131 C114.465158,173.898443 117.920897,174.680561 121.213489,175.462679 L116.111454,195.63217 L129.11126,198.602105 L134.213295,178.122586 C156.427168,181.874639 173.04586,180.151865 179.79419,160.92303 C185.226226,145.597741 179.301043,136.842948 167.454386,131.058092 C176.175305,129.180304 182.426781,123.867536 184.073077,112.921404 L184.073077,112.921404 Z" mask="url(#bch-b)" transform="rotate(-32 128 127.461)"/>
  </g>
</svg>
