<svg xmlns="http://www.w3.org/2000/svg" width="256" height="256" viewBox="0 0 256 256">
  <g fill="none">
    <circle cx="128" cy="128" r="128" fill="#F3BA2D"/>
    <path fill="#FFF" d="M96.928,115.232 L128,84.16 L159.088,115.248 L177.168,97.168 L128,48 L78.848,97.152 L96.928,115.232 Z M48,128 L66.08,109.92 L84.16,128 L66.08,146.08 L48,128 Z M96.928,140.768 L128,171.84 L159.088,140.752 L177.168,158.824 L128,208 L78.848,158.848 L78.824,158.824 L96.928,140.768 Z M171.84,128 L189.92,109.92 L208,128 L189.92,146.08 L171.84,128 Z M146.336,127.984 L146.352,127.984 L146.352,128 L128,146.352 L109.672,128.032 L109.64,128 L109.672,127.976 L112.88,124.76 L114.44,123.2 L128,109.648 L146.344,127.992 L146.336,127.984 Z"/>
  </g>
</svg>
