<svg xmlns="http://www.w3.org/2000/svg" xmlns:xlink="http://www.w3.org/1999/xlink" width="256" height="256" viewBox="0 0 256 256">
  <defs>
    <path id="btc-a" d="M128,256 C198.692448,256 256,198.692448 256,128 C256,57.307552 198.692448,0 128,0 C57.307552,0 0,57.307552 0,128 C0,198.692448 57.307552,256 128,256 Z"/>
  </defs>
  <g fill="none" fill-rule="evenodd">
    <mask id="btc-b" fill="#fff">
      <use xlink:href="#btc-a"/>
    </mask>
    <use fill="#F7931A" xlink:href="#btc-a"/>
    <path fill="#FFF" d="M158.403465,113.350203 C154.947726,127.371695 132.236998,120.595232 124.832374,118.862956 L131.087557,93.9721448 C138.325327,95.7044203 162.02235,98.7004051 158.403465,113.350203 L158.403465,113.350203 Z M154.780872,153.522666 C150.998841,168.960507 123.679225,160.927434 114.958305,158.879231 L121.706636,131.468101 C130.590702,133.516304 158.729758,137.296782 154.780872,153.522666 Z M184.073077,113.350203 C186.21252,98.2247393 174.199008,90.3478552 157.743463,84.9912901 L162.845498,64.5128114 L149.845692,61.5203764 L144.910512,81.526739 C141.454773,80.7386956 137.999034,79.9506522 134.543296,79.3223473 L139.478476,59.312435 L126.315523,56.32 L121.213489,76.8020284 C118.414044,76.1701738 115.618307,75.6980577 112.818862,75.0662031 L94.8838755,70.9733472 L91.5912834,84.2067964 C91.5912834,84.2067964 101.302205,86.2514495 100.972205,86.411188 C106.237386,87.6713475 107.22368,90.9797098 107.060534,93.5000287 L101.302205,116.814754 C101.628498,116.974492 102.125353,116.974492 102.618501,117.28687 C102.125353,117.130681 101.795353,117.130681 101.302205,116.974492 L93.4007259,149.582449 C92.7444322,151.158536 91.0981362,153.362928 87.4792511,152.578434 C87.6423976,152.734623 77.9351834,150.370493 77.9351834,150.370493 L71.68,164.707913 L88.6286921,168.488391 C91.7581377,169.276434 94.8838755,169.904739 97.8464668,170.692783 L92.7444322,191.331 L105.744238,194.323435 L110.846273,173.844956 C114.465158,174.789188 117.920897,175.577232 121.213489,176.365275 L116.111454,196.687565 L129.11126,199.68 L134.213295,179.045333 C156.427168,182.825811 173.04586,181.089986 179.79419,161.715478 C185.226226,146.274087 179.301043,137.452971 167.454386,131.62429 C176.175305,129.732276 182.426781,124.37926 184.073077,113.350203 L184.073077,113.350203 Z" mask="url(#btc-b)"/>
  </g>
</svg>
