<svg xmlns="http://www.w3.org/2000/svg" width="256" height="256" viewBox="0 0 256 256">
  <g fill="none" fill-rule="evenodd">
    <path fill="#070A0E" fill-rule="nonzero" d="M128,256 C198.69312,256 256,198.69312 256,128 C256,57.30688 198.69312,0 128,0 C57.30688,0 0,57.30816 0,128 C0,198.69184 57.30816,256 128,256 Z"/>
    <path fill="#00D395" d="M73.94048,170.92096 C70.1118667,168.581017 67.7747571,164.419207 67.7696,159.93216 L67.7696,134.92608 C67.7737279,133.003254 68.8044969,131.229038 70.4728587,130.273085 C72.1412205,129.317132 74.193113,129.325015 75.85408,130.29376 L132.29184,163.2 C135.593033,165.12538 137.62413,168.658357 137.626895,172.48 L137.626895,198.39232 C137.631831,200.727385 136.372847,202.882325 134.336282,204.024671 C132.299717,205.167018 129.804442,205.117911 127.8144,203.89632 L73.94048,170.92096 Z M158.06848,123.43936 C161.369083,125.365616 163.399196,128.899065 163.400966,132.72064 L163.400966,185.29664 C163.403452,186.847991 162.566585,188.279333 161.21344,189.03808 L148.85632,195.99488 C148.698583,196.08106 148.532092,196.150145 148.35968,196.20096 L148.35968,167.008 C148.358349,163.225954 146.37307,159.721833 143.1296,157.77664 L93.568,128.128 L93.568,95.16928 C93.5721279,93.2464537 94.6028969,91.4722383 96.2712587,90.516285 C97.9396205,89.5603317 99.991513,89.5682152 101.65248,90.53696 L158.06848,123.43936 Z M182.77248,84.60672 C186.086738,86.5296511 188.1252,90.0729355 188.121605,93.90464 L188.121605,170.70464 C188.11327,172.281792 187.244357,173.728507 185.856,174.4768 L174.14912,180.8 L174.14912,127.33696 C174.14718,123.56341 172.169014,120.066528 168.93568,118.12096 L118.272,87.73504 L118.272,56.4736 C118.274551,55.5264862 118.521914,54.5961177 118.99008,53.7728 C120.484274,51.2086376 123.771724,50.3372514 126.33984,51.82464 L182.77248,84.60672 Z"/>
  </g>
</svg>
