<svg xmlns="http://www.w3.org/2000/svg" width="256" height="256" viewBox="0 0 256 256">
  <g fill="none">
    <path fill="#E6007A" d="M128,0 C198.6816,0 256,57.3184 256,128 C256,198.6816 198.6816,256 128,256 C57.3184,256 0,198.6816 0,128 C0,57.3184 57.3184,0 128,0 L128,0 Z"/>
    <path fill="#FFF" d="M133.4784 40.448C99.2 40.576 71.4496 68.3264 71.3216 102.6048 71.3216 109.4656 72.4224 116.3008 74.5984 122.8032 76.2112 127.232 80.9984 129.6128 85.504 128.256 89.8816 126.592 92.2112 121.8048 90.8032 117.3504 88.96 112.2816 88.1408 106.9056 88.3968 101.5296 89.1392 76.7744 109.7984 57.2928 134.5536 58.0352 159.3088 58.7776 178.7904 79.4368 178.048 104.192 177.3568 127.3856 159.104 146.2272 135.936 147.6096 135.936 147.6096 127.232 148.1472 122.88 148.7104 121.2672 148.9408 119.68 149.248 118.1184 149.6576 117.8624 149.8624 117.504 149.8112 117.2992 149.5296 117.1456 149.3248 117.1456 149.0432 117.2992 148.8384L118.656 141.4656 126.848 104.3968C127.8208 99.7888 124.9024 95.2832 120.2944 94.3104 115.6864 93.3376 111.1808 96.256 110.208 100.864 110.208 100.864 90.7008 191.4112 90.7008 192.2304 89.6 196.6592 92.3136 201.1392 96.768 202.24 96.9216 202.2656 97.0752 202.3168 97.2288 202.3424 101.6832 203.4176 106.1632 200.6528 107.2384 196.1984 107.264 196.0704 107.2896 195.9168 107.3152 195.7888 107.5968 194.688 110.0544 182.6816 110.0544 182.6816 111.8976 173.6192 119.1936 166.6816 128.3328 165.2992 130.2016 165.0176 138.112 164.48 138.112 164.48 172.288 161.2544 197.4272 130.9952 194.2528 96.8448 191.3344 65.3056 165.1712 40.9856 133.4784 40.448zM145.4336 178.6624C139.8016 177.5104 134.2976 181.1712 133.1712 186.8032 133.1712 186.8288 133.1712 186.8288 133.1712 186.8544 131.968 192.4096 135.5264 197.888 141.0816 199.0912 141.184 199.1168 141.2608 199.1424 141.3632 199.1424 146.816 200.3968 152.2432 196.9664 153.4976 191.5136 153.5488 191.3344 153.5744 191.1552 153.6 190.9504 154.5472 185.344 150.9888 179.968 145.4336 178.6624z"/>
  </g>
</svg>
