<svg xmlns="http://www.w3.org/2000/svg" xmlns:xlink="http://www.w3.org/1999/xlink" width="256" height="256" viewBox="0 0 256 256">
  <defs>
    <path id="eth-a" d="M128,256 C198.692448,256 256,198.692448 256,128 C256,57.307552 198.692448,0 128,0 C57.307552,0 0,57.307552 0,128 C0,198.692448 57.307552,256 128,256 Z"/>
  </defs>
  <g fill="none" fill-rule="evenodd">
    <mask id="eth-b" fill="#fff">
      <use xlink:href="#eth-a"/>
    </mask>
    <use fill="#6B71D6" xlink:href="#eth-a"/>
    <path fill="#FFF" d="M126.438448,45.1544499 C126.066856,46.0531782 114.838006,65.1070523 101.485446,87.4965466 C88.1328871,109.885578 77.0969341,128.497728 76.9603936,128.857034 C76.7830742,129.324224 84.0371309,133.884541 102.396327,144.847082 L128.081057,160.183342 L153.758457,144.838748 C172.205625,133.814625 179.365753,129.308481 179.186601,128.836198 C178.258767,126.39236 128.327105,43.5199775 127.782318,43.5199775 C127.41485,43.5199775 126.81004,44.2552586 126.438448,45.1544499 M77.0213328,139.886713 C78.0110222,141.596658 127.868916,212.48646 128.077392,212.479977 C128.42195,212.469328 179.396452,139.6765 179.2,139.476937 C179.013405,139.289413 131.366735,167.647741 129.379108,169.128953 L128.160782,170.037405 L103.4914,155.318818 C89.9230335,147.223781 78.3207583,140.273801 77.7086171,139.875137 C76.6937273,139.214403 76.6327881,139.215329 77.0213328,139.886713" mask="url(#eth-b)"/>
  </g>
</svg>
