<svg xmlns="http://www.w3.org/2000/svg" width="256" height="256" viewBox="0 0 256 256">
  <g fill="none">
    <circle cx="128" cy="128" r="128" fill="#00DCFA"/>
    <path fill="#FFF" d="M151.02941,53 C124.647065,53 102.23529,73.2941273 99.4117502,99.4117502 C73.2941273,102.23529 53,124.647065 53,151.02941 C53,179.705884 76.2941159,203 104.97059,203 C131.352935,203 153.852917,182.705873 156.588217,156.588217 C182.705873,153.76471 203,131.352935 203,104.97059 C203,76.2941159 179.705884,53 151.02941,53 L151.02941,53 Z M190.82353,110.794119 C188.264679,128.176465 174.323526,142.117652 156.94118,144.676469 L156.94118,110.794119 L190.82353,110.794119 Z M65.1764697,145.205881 C67.7352875,127.73529 81.6764697,113.794108 99.0588201,111.23529 L99.0588201,145.11764 L65.1764697,145.11764 L65.1764697,145.205881 Z M144.76471,156.94118 C141.852929,176.617621 124.999995,191.264701 104.97059,191.264701 C84.9411852,191.264701 68.0882175,176.617621 65.1764697,156.94118 L144.76471,156.94118 Z M145.205881,110.794119 L145.205881,145.11764 L110.794119,145.11764 L110.794119,110.794119 L145.205881,110.794119 Z M190.82353,99.0588201 L111.23529,99.0588201 C114.147038,79.3823454 131.000005,64.7352988 151.02941,64.7352988 C171.058815,64.7352988 187.911749,79.3823454 190.82353,99.0588201 L190.82353,99.0588201 Z"/>
  </g>
</svg>
