<svg xmlns="http://www.w3.org/2000/svg" width="38" height="38" viewBox="0 0 38 38">
  <g fill="none" fill-rule="evenodd">
    <path fill="#345D9D" fill-rule="nonzero" d="M18.9999072,0 C8.51085431,0 0,8.51089588 0,19 C0,29.4891041 8.51085431,38 18.9999072,38 C29.4889601,38 38,29.4891041 38,19 C38.045819,8.51089588 29.5349647,0 18.9999072,0 Z"/>
    <path fill="#FFF" d="M26.9619289,25.8946396 L26.2005076,28.5730129 C26.1243655,28.844732 25.8959391,29 25.6294416,29 L12.2664975,29 L14.5126904,21.1977819 L12,21.974122 L12.571066,20.1885397 L15.0837563,19.4121996 L18.2436548,8.46580407 C18.319797,8.19408503 18.5482234,8.03881701 18.8147208,8 L22.2030457,8 C22.4695431,8 22.6598985,8.19408503 22.6598985,8.46580407 C22.6598985,8.50462107 22.6598985,8.54343808 22.6598985,8.58225508 L19.9949239,17.8207024 L22.5076142,17.0443623 L21.9746193,18.9075786 L19.4238579,19.6839187 L17.786802,25.3123845 L26.5431472,25.3123845 C26.8096447,25.3123845 27,25.5064695 27,25.7781885 C27,25.8170055 27,25.8558226 26.9619289,25.8946396 Z"/>
  </g>
</svg>
