<svg xmlns="http://www.w3.org/2000/svg" width="256" height="256" viewBox="0 0 256 256">
  <defs>
    <linearGradient id="mkr-a" x1="50%" x2="50%" y1="0%" y2="100%">
      <stop offset="0%" stop-color="#4FA89B"/>
      <stop offset="100%" stop-color="#6ACEBB"/>
    </linearGradient>
  </defs>
  <g fill="none">
    <circle cx="128" cy="128" r="128" fill="url(#mkr-a)"/>
    <path fill="#FFF" d="M64.9984,166.4 L64.9984,106.154667 L110.685867,140.539733 L110.685867,166.4 L122.346667,166.4 L122.346667,138.112 C122.342324,135.981071 121.339471,133.975365 119.637333,132.693333 L64.2304,90.9781333 C62.1637916,89.4431906 59.4094539,89.2013086 57.1069475,90.3525618 C54.8044412,91.503815 53.3453442,93.8524143 53.3333333,96.4266667 L53.3333333,166.4 L64.9984,166.4 Z M191.351467,166.4 L191.351467,106.154667 L145.664,140.539733 L145.664,166.4 L134.0032,166.4 L134.0032,138.112 C134.007543,135.981071 135.010396,133.975365 136.712533,132.693333 L192.119467,90.9952 C194.18361,89.4620296 196.934131,89.2187197 199.235362,90.3657311 C201.536593,91.5127424 202.998137,93.8554879 203.016533,96.4266667 L203.016533,166.4 L191.351467,166.4 Z"/>
  </g>
</svg>
