<svg xmlns="http://www.w3.org/2000/svg" width="256" height="256" viewBox="0 0 256 256">
  <g fill="none">
    <circle cx="128" cy="128" r="128" fill="#2775CA"/>
    <path fill="#FFF" d="M104,217 C104,220 101.6,221.7 98.8,220.8 C60,208.4 32,172.2 32,129.3 C32,86.5 60,50.2 98.8,37.8 C101.7,36.9 104,38.6 104,41.6 L104,49.1 C104,51.1 102.5,53.4 100.6,54.1 C69.9,65.4 48,94.9 48,129.3 C48,163.8 69.9,193.2 100.6,204.4 C102.5,205.1 104,207.4 104,209.4 L104,217 Z"/>
    <path fill="#FFF" d="M136,189.3 C136,191.5 134.2,193.3 132,193.3 L124,193.3 C121.8,193.3 120,191.5 120,189.3 L120,176.7 C102.5,174.3 94,164.6 91.7,151.2 C91.3,148.9 93.1,146.9 95.4,146.9 L104.5,146.9 C106.4,146.9 108,148.3 108.4,150.1 C110.1,158 114.7,164.1 128.7,164.1 C139,164.1 146.4,158.3 146.4,149.7 C146.4,141.1 142.1,137.8 126.9,135.3 C104.5,132.3 93.9,125.5 93.9,108 C93.9,94.5 104.2,83.9 120,81.7 L120,69.3 C120,67.1 121.8,65.3 124,65.3 L132,65.3 C134.2,65.3 136,67.1 136,69.3 L136,82 C148.9,84.3 157.1,91.6 159.8,103.8 C160.3,106.1 158.5,108.2 156.1,108.2 L147.7,108.2 C145.9,108.2 144.4,107 143.9,105.3 C141.6,97.6 136.1,94.2 126.5,94.2 C115.9,94.2 110.4,99.3 110.4,106.5 C110.4,114.1 113.5,117.9 129.8,120.2 C151.8,123.2 163.2,129.5 163.2,148.2 C163.2,162.4 152.6,173.9 136.1,176.5 L136.1,189.3 L136,189.3 Z"/>
    <path fill="#FFF" d="M157.2,220.8 C154.3,221.7 152,220 152,217 L152,209.5 C152,207.3 153.3,205.2 155.4,204.5 C186,193.3 208,163.8 208,129.4 C208,94.9 186.1,65.5 155.4,54.3 C153.5,53.6 152,51.3 152,49.3 L152,41.8 C152,38.8 154.4,37.1 157.2,38 C196,50.2 224,86.5 224,129.3 C224,172.2 196,208.4 157.2,220.8 Z"/>
  </g>
</svg>
