<svg xmlns="http://www.w3.org/2000/svg" width="38" height="38" viewBox="0 0 38 38">
  <g fill="none" fill-rule="evenodd">
    <circle cx="19" cy="19" r="19" fill="#1E1E1E"/>
    <path fill="#FFF" fill-rule="nonzero" d="M20.3017764,2.61730435 L17.4555274,4.06743123 L3.71132474,11.0680438 C3.66484922,10.7135726 3.64146454,10.3564552 3.64131862,9.99895024 C3.64514251,7.09652992 5.18525133,4.41304279 7.68938212,2.94560035 C10.1935129,1.47815791 13.2873795,1.44609514 15.8213844,2.8613257 L17.4505269,2.03125307 L17.6935482,1.90724222 C14.6505543,-0.301409444 10.6258826,-0.616607459 7.27615075,1.0913886 C3.92641892,2.79938466 1.81777087,6.24190347 1.81815909,10.0019505 C1.81815909,10.2566395 1.8278266,10.5103283 1.84716163,10.7630171 C1.90253323,11.4947127 1.51288379,12.1880363 0.859075169,12.5211709 L1.17239551e-13,12.9592093 L1.17239551e-13,15.002388 L2.52922131,13.7132752 L3.34829298,13.2952387 L4.15536359,12.8842027 L18.6446314,5.50155672 L20.2727739,4.67248418 L23.6380683,2.9573341 L23.6380683,0.91515541 L20.3017764,2.61730435 Z M23.6380683,5.00151297 L4.97843561,14.5023443 L3.35029315,15.333417 L1.17239551e-13,17.0405664 L1.17239551e-13,19.081745 L3.32729114,17.3865967 L6.17354018,15.9364698 L19.931744,8.92585635 C19.9782533,9.28267014 20.0016375,9.64211835 20.0017502,10.0019505 C19.9999491,12.9078454 18.4580624,15.5950749 15.9502151,17.0630429 C13.4423678,18.531011 10.3443377,18.5597561 7.80968335,17.138575 L7.7096746,17.1915796 L5.94352006,18.0916584 C8.98579858,20.3003651 13.009748,20.6163145 16.3594633,18.9094895 C19.7091786,17.2026645 21.8186907,13.7614508 21.8199092,10.0019505 C21.8199092,9.74492802 21.8099084,9.48790553 21.7909067,9.2338833 C21.7356269,8.50247683 22.1247674,7.80935729 22.7779931,7.47572946 L23.6380683,7.03769113 L23.6380683,5.00151297 Z" transform="translate(7 9)"/>
  </g>
</svg>
