<svg xmlns="http://www.w3.org/2000/svg" width="256" height="256" viewBox="0 0 256 256">
  <g fill="none">
    <circle cx="128" cy="128" r="128" fill="#302C2C"/>
    <path fill="#FFF" d="M123.968,216 C121.808,215.776 119.648,215.576 117.488,215.32 C105.874504,213.935141 94.6592243,210.223923 84.512,204.408 C84.36,204.328 84.224,204.208 83.928,204.008 C101.576,190.808 119.144,177.688 136.808,164.488 L142.128,169.664 C145.088,172.56 148.064,175.424 150.968,178.36 C151.688,179.08 152.208,179.072 153.048,178.64 C161.845271,174.24861 169.361826,167.663358 174.872,159.52 L175.728,158.256 C175.976,158.544 176.208,158.776 176.4,159.032 C182.536,167.208 188.664,175.384 194.824,183.536 C195.36,184.24 195.296,184.656 194.728,185.296 C180.464,201.504 162.736,211.488 141.368,214.904 C138.68,215.336 135.952,215.496 133.24,215.792 C132.88,215.832 132.52,215.928 132.168,216 L123.968,216 Z M131.728,40 C133.216,40.152 134.712,40.312 136.208,40.448 C148.816,41.648 160.608,45.384 171.592,51.648 C171.752,51.744 171.888,51.856 172.152,52.048 L118.408,90.6 C117.696,89.928 117.008,89.288 116.328,88.624 C112.552,84.944 108.76,81.272 105.008,77.56 C104.408,76.968 103.952,76.904 103.2,77.28 C94.2469292,81.6983657 86.6068786,88.3840995 81.04,96.672 L80.24,97.872 L60.496,71.568 C62.488,69.456 64.328,67.352 66.32,65.408 C79.304,52.744 94.72,44.688 112.584,41.448 C116.024,40.824 119.536,40.616 123.016,40.208 C123.408,40.168 123.8,40.072 124.184,40 L131.72,40 L131.728,40 Z M51.664,84.272 L91.624,136.656 L83.56,144.928 C81.552,146.984 79.56,149.064 77.512,151.088 C76.936,151.664 76.912,152.104 77.264,152.808 C81.6760774,161.762819 88.3598075,169.403732 96.648,174.968 C96.928,175.144 97.208,175.328 97.472,175.528 C97.52,175.56 97.544,175.64 97.688,175.912 L71.6,195.48 C56,182.048 45.88,165.496 41.816,145.424 C37.464,123.936 40.992,103.632 51.672,84.272 L51.664,84.272 Z M165.064,119.232 L172.408,111.608 C174.456,109.48 176.472,107.328 178.568,105.256 C179.224,104.608 179.216,104.12 178.832,103.352 C174.391665,94.2896309 167.628713,86.5660634 159.232,80.968 C158.936,80.768 158.648,80.552 158.144,80.192 L184.376,60.512 C199.232,73.232 209.096,88.912 213.624,107.832 C219.28,131.448 214.24,154.808 204.448,171.256 L165.064,119.232 Z"/>
  </g>
</svg>
