<svg xmlns="http://www.w3.org/2000/svg" width="64" height="64" viewBox="0 0 64 64">
  <g fill="none" fill-rule="evenodd">
    <rect width="64" height="64" fill="#FFF"/>
    <g transform="translate(2 1.5)">
      <g fill="#214497" fill-rule="nonzero">
        <circle cx="1.417" cy="30.759" r="1.417"/>
        <circle cx="4.251" cy="30.759" r="1.417"/>
        <circle cx="7.085" cy="30.759" r="1.417"/>
        <circle cx="9.92" cy="33.593" r="1.417"/>
        <circle cx="12.754" cy="27.925" r="1.417"/>
        <circle cx="12.754" cy="30.759" r="1.417"/>
        <circle cx="12.754" cy="33.593" r="1.417"/>
        <circle cx="15.588" cy="27.925" r="1.417"/>
        <circle cx="15.588" cy="33.593" r="1.417"/>
        <circle cx="18.422" cy="30.759" r="1.417"/>
        <circle cx="21.256" cy="27.925" r="1.417"/>
        <circle cx="24.091" cy="36.427" r="1.417"/>
        <circle cx="26.925" cy="2.417" r="1.417"/>
        <circle cx="26.925" cy="10.92" r="1.417"/>
        <circle cx="26.925" cy="13.754" r="1.417"/>
        <circle cx="26.925" cy="16.588" r="1.417"/>
        <circle cx="26.925" cy="22.256" r="1.417"/>
        <circle cx="26.925" cy="30.759" r="1.417"/>
        <circle cx="26.925" cy="33.593" r="1.417"/>
        <circle cx="26.925" cy="39.262" r="1.417"/>
        <circle cx="26.925" cy="44.93" r="1.417"/>
        <circle cx="26.925" cy="47.764" r="1.417"/>
        <circle cx="26.925" cy="53.433" r="1.417"/>
        <circle cx="26.925" cy="56.267" r="1.417"/>
        <circle cx="26.925" cy="59.101" r="1.417"/>
        <circle cx="29.759" cy="2.417" r="1.417"/>
        <circle cx="29.759" cy="8.085" r="1.417"/>
        <circle cx="29.759" cy="13.754" r="1.417"/>
        <circle cx="29.759" cy="16.588" r="1.417"/>
        <circle cx="29.759" cy="19.422" r="1.417"/>
        <circle cx="29.759" cy="22.256" r="1.417"/>
        <circle cx="29.759" cy="27.925" r="1.417"/>
        <circle cx="29.759" cy="30.759" r="1.417"/>
        <circle cx="29.759" cy="33.593" r="1.417"/>
        <circle cx="29.759" cy="42.096" r="1.417"/>
        <circle cx="29.759" cy="47.764" r="1.417"/>
        <circle cx="29.759" cy="56.267" r="1.417"/>
        <circle cx="29.759" cy="59.101" r="1.417"/>
        <circle cx="32.593" cy="16.588" r="1.417"/>
        <circle cx="32.593" cy="22.256" r="1.417"/>
        <circle cx="32.593" cy="33.593" r="1.417"/>
        <circle cx="32.593" cy="36.427" r="1.417"/>
        <circle cx="35.427" cy="27.925" r="1.417"/>
        <circle cx="35.427" cy="33.593" r="1.417"/>
        <circle cx="35.427" cy="39.262" r="1.417"/>
        <circle cx="35.427" cy="42.096" r="1.417"/>
        <circle cx="35.427" cy="44.93" r="1.417"/>
        <circle cx="35.427" cy="47.764" r="1.417"/>
        <circle cx="35.427" cy="50.598" r="1.417"/>
        <circle cx="38.262" cy="27.925" r="1.417"/>
        <circle cx="38.262" cy="44.93" r="1.417"/>
        <circle cx="38.262" cy="47.764" r="1.417"/>
        <circle cx="38.262" cy="56.267" r="1.417"/>
        <circle cx="41.096" cy="27.925" r="1.417"/>
        <circle cx="41.096" cy="30.759" r="1.417"/>
        <circle cx="41.096" cy="36.427" r="1.417"/>
        <circle cx="41.096" cy="44.93" r="1.417"/>
        <circle cx="41.096" cy="47.764" r="1.417"/>
        <circle cx="41.096" cy="56.267" r="1.417"/>
        <circle cx="41.096" cy="59.101" r="1.417"/>
        <circle cx="35.427" cy="59.097" r="1.417"/>
        <circle cx="43.93" cy="39.262" r="1.417"/>
        <circle cx="43.93" cy="47.764" r="1.417"/>
        <circle cx="43.93" cy="56.267" r="1.417"/>
        <circle cx="46.764" cy="30.759" r="1.417"/>
        <circle cx="46.764" cy="36.427" r="1.417"/>
        <circle cx="46.764" cy="39.262" r="1.417"/>
        <circle cx="46.764" cy="47.764" r="1.417"/>
        <circle cx="49.598" cy="27.925" r="1.417"/>
        <circle cx="49.598" cy="33.593" r="1.417"/>
        <circle cx="49.598" cy="44.93" r="1.417"/>
        <circle cx="49.598" cy="47.764" r="1.417"/>
        <circle cx="49.598" cy="53.433" r="1.417"/>
        <circle cx="49.598" cy="56.267" r="1.417"/>
        <circle cx="52.433" cy="33.593" r="1.417"/>
        <circle cx="52.433" cy="42.096" r="1.417"/>
        <circle cx="52.433" cy="44.93" r="1.417"/>
        <circle cx="52.433" cy="47.764" r="1.417"/>
        <circle cx="52.433" cy="50.598" r="1.417"/>
        <circle cx="55.267" cy="27.925" r="1.417"/>
        <circle cx="55.267" cy="30.759" r="1.417"/>
        <circle cx="55.267" cy="33.593" r="1.417"/>
        <circle cx="55.267" cy="36.427" r="1.417"/>
        <circle cx="55.267" cy="39.262" r="1.417"/>
        <circle cx="55.267" cy="56.267" r="1.417"/>
        <circle cx="58.101" cy="30.759" r="1.417"/>
        <circle cx="58.101" cy="33.593" r="1.417"/>
        <circle cx="58.101" cy="42.096" r="1.417"/>
      </g>
      <path fill="#1A2C57" d="M18.5076923,38 C20.7168313,38 22.5076923,39.790861 22.5076923,42 L22.5076923,56.5076923 C22.5076923,58.7168313 20.7168313,60.5076923 18.5076923,60.5076923 L4,60.5076923 C1.790861,60.5076923 -5.21319853e-14,58.7168313 -5.32907052e-14,56.5076923 L-5.32907052e-14,42 C-5.40053359e-14,39.790861 1.790861,38 4,38 L18.5076923,38 Z M16.2923077,41.2153846 L6.21538462,41.2153846 C4.55853037,41.2153846 3.21538462,42.5585304 3.21538462,44.2153846 L3.21538462,44.2153846 L3.21538462,54.2923077 C3.21538462,55.9491619 4.55853037,57.2923077 6.21538462,57.2923077 L6.21538462,57.2923077 L16.2923077,57.2923077 C17.9491619,57.2923077 19.2923077,55.9491619 19.2923077,54.2923077 L19.2923077,54.2923077 L19.2923077,44.2153846 C19.2923077,42.5585304 17.9491619,41.2153846 16.2923077,41.2153846 L16.2923077,41.2153846 Z"/>
      <rect width="9.991" height="9.988" x="6.26" y="44.26" fill="#4F6EF7" rx="1.608"/>
      <path fill="#1A2C57" d="M18.5076923,1 C20.7168313,1 22.5076923,2.790861 22.5076923,5 L22.5076923,19.5076923 C22.5076923,21.7168313 20.7168313,23.5076923 18.5076923,23.5076923 L4,23.5076923 C1.790861,23.5076923 -5.21319853e-14,21.7168313 -5.32907052e-14,19.5076923 L-5.32907052e-14,5 C-5.40053359e-14,2.790861 1.790861,1 4,1 L18.5076923,1 Z M16.2923077,4.21538462 L6.21538462,4.21538462 C4.55853037,4.21538462 3.21538462,5.55853037 3.21538462,7.21538462 L3.21538462,7.21538462 L3.21538462,17.2923077 C3.21538462,18.9491619 4.55853037,20.2923077 6.21538462,20.2923077 L6.21538462,20.2923077 L16.2923077,20.2923077 C17.9491619,20.2923077 19.2923077,18.9491619 19.2923077,17.2923077 L19.2923077,17.2923077 L19.2923077,7.21538462 C19.2923077,5.55853037 17.9491619,4.21538462 16.2923077,4.21538462 L16.2923077,4.21538462 Z"/>
      <rect width="9.991" height="9.988" x="6.26" y="7.26" fill="#4F6EF7" rx="1.608"/>
      <path fill="#1A2C57" d="M55.5076923,1 C57.7168313,1 59.5076923,2.790861 59.5076923,5 L59.5076923,19.5076923 C59.5076923,21.7168313 57.7168313,23.5076923 55.5076923,23.5076923 L41,23.5076923 C38.790861,23.5076923 37,21.7168313 37,19.5076923 L37,5 C37,2.790861 38.790861,1 41,1 L55.5076923,1 Z M53.2923077,4.21538462 L43.2153846,4.21538462 C41.5585304,4.21538462 40.2153846,5.55853037 40.2153846,7.21538462 L40.2153846,7.21538462 L40.2153846,17.2923077 C40.2153846,18.9491619 41.5585304,20.2923077 43.2153846,20.2923077 L43.2153846,20.2923077 L53.2923077,20.2923077 C54.9491619,20.2923077 56.2923077,18.9491619 56.2923077,17.2923077 L56.2923077,17.2923077 L56.2923077,7.21538462 C56.2923077,5.55853037 54.9491619,4.21538462 53.2923077,4.21538462 L53.2923077,4.21538462 Z" transform="matrix(-1 0 0 1 96.508 0)"/>
      <rect width="9.991" height="9.988" x="43.26" y="7.26" fill="#4F6EF7" rx="1.608" transform="matrix(-1 0 0 1 96.51 0)"/>
    </g>
  </g>
</svg>
