<svg width="1992" height="512" viewBox="0 0 1992 512" fill="none" xmlns="http://www.w3.org/2000/svg">
<g clip-path="url(#clip0_174_655)">
<path d="M709.038 54.0669C756.872 54.0669 797.163 66.9405 829.911 92.6876C863.027 118.067 884.001 153.193 892.831 198.067H817.769C810.778 170.481 797.715 149.699 778.582 135.722C759.448 121.377 736.451 114.205 709.591 114.205C685.306 114.205 663.78 120.09 645.015 131.86C626.249 143.262 611.715 159.814 601.412 181.515C591.477 202.849 586.51 227.676 586.51 255.998C586.51 284.32 591.661 309.331 601.964 331.032C612.267 352.366 626.617 368.917 645.015 380.688C663.78 392.09 685.306 397.791 709.591 397.791C736.819 397.791 760.184 390.619 779.685 376.274C799.187 361.561 812.25 340.412 818.873 312.826H893.935C888.048 342.619 876.457 368.366 859.163 390.067C842.237 411.768 820.896 428.504 795.14 440.274C769.383 452.044 740.682 457.929 709.038 457.929C670.771 457.929 636.736 449.469 606.932 432.55C577.127 415.63 553.762 391.906 536.836 361.377C520.278 330.849 512 295.722 512 255.998C512 216.274 520.278 181.147 536.836 150.619C553.762 120.09 577.127 96.3657 606.932 79.4462C636.736 62.5267 670.771 54.0669 709.038 54.0669Z" fill="#F4F3F0"/>
<path d="M1457.91 54.0669C1489.19 54.0669 1516.05 59.2163 1538.49 69.5152C1560.94 79.814 1578.05 93.7911 1589.82 111.446C1601.97 129.101 1608.96 148.963 1610.8 171.032H1539.6C1537.02 153.009 1528.74 138.113 1514.76 126.343C1500.78 114.573 1480.36 108.688 1453.5 108.688C1429.58 108.688 1410.81 113.653 1397.2 123.584C1383.95 133.147 1377.33 146.205 1377.33 162.757C1377.33 178.205 1383.03 189.791 1394.44 197.515C1405.85 204.871 1423.69 210.94 1447.98 215.722L1490.48 223.998C1575.84 240.917 1618.52 279.722 1618.52 340.412C1618.52 377.193 1604.17 406.067 1575.47 427.032C1547.14 447.63 1508.14 457.929 1458.46 457.929C1406.58 457.929 1367.4 446.894 1340.9 424.826C1314.78 402.389 1300.61 372.228 1298.41 334.343H1370.16C1373.84 379.952 1403.64 402.757 1459.57 402.757C1486.06 402.757 1506.67 397.975 1521.38 388.412C1536.1 378.849 1543.46 364.871 1543.46 346.481C1543.46 331.4 1537.94 319.446 1526.9 310.619C1516.23 301.791 1499.12 294.986 1475.57 290.205L1428.66 280.826C1388.92 273.101 1358.2 260.412 1336.49 242.757C1315.15 225.101 1304.48 201.377 1304.48 171.584C1304.48 148.044 1310.73 127.446 1323.24 109.791C1336.12 92.1359 1354.15 78.5266 1377.33 68.9634C1400.51 59.0324 1427.37 54.0669 1457.91 54.0669Z" fill="#F4F3F0"/>
<path fill-rule="evenodd" clip-rule="evenodd" d="M1286.06 449.101H1205.47L1174.57 363.584H999.052L968.144 449.101H892.53L1043.76 62.8945H1133.17L1286.06 449.101ZM1020.58 303.998H1152.49L1086.81 122.481L1020.58 303.998Z" fill="#F4F3F0"/>
<path d="M1741.79 222.894H1918.9V62.8945H1990.62V449.101H1918.9V284.688H1741.79V449.101H1670.07V62.8945H1741.79V222.894Z" fill="#F4F3F0"/>
<path d="M144.552 338.716C116.598 338.716 91.5862 332.647 69.5172 320.509C47.8161 308.371 30.7126 291.819 18.2069 270.854C6.06897 249.52 0 225.796 0 199.681C0 173.566 6.06897 150.026 18.2069 129.061C30.7126 107.727 47.8161 90.9916 69.5172 78.8537C91.5862 66.7157 116.598 60.6468 144.552 60.6468H160.552V-2.24976H225.655V60.6468H386.207V122.44H141.793C118.621 122.44 99.4943 129.796 84.4138 144.509C69.3333 159.222 61.7931 177.612 61.7931 199.681C61.7931 221.75 69.3333 240.141 84.4138 254.854C99.4943 269.566 118.621 276.923 141.793 276.923H245.517C255.448 276.923 263.356 279.865 269.241 285.75C275.126 291.635 278.069 298.992 278.069 307.819C278.069 316.647 275.126 324.003 269.241 329.888C263.356 335.773 255.448 338.716 245.517 338.716H144.552ZM0 385.061H244.414C267.586 385.061 286.713 377.704 301.793 362.992C316.874 348.279 324.414 329.888 324.414 307.819C324.414 285.75 316.874 267.359 301.793 252.647C286.713 237.934 267.586 230.578 244.414 230.578H140.69C130.759 230.578 122.851 227.635 116.966 221.75C111.08 215.865 108.138 208.509 108.138 199.681C108.138 190.854 111.08 183.497 116.966 177.612C122.851 171.727 130.759 168.785 140.69 168.785H241.655C269.609 168.785 294.437 174.854 316.138 186.992C338.207 199.13 355.31 215.865 367.448 237.199C379.954 258.164 386.207 281.704 386.207 307.819C386.207 333.934 379.954 357.658 367.448 378.992C355.31 399.957 338.207 416.509 316.138 428.647C294.437 440.785 269.609 446.854 241.655 446.854H225.655V509.75H160.552V446.854H0V385.061Z" fill="#F4F3F0"/>
</g>
<defs>
<clipPath id="clip0_174_655">
<rect width="1992" height="512" fill="white"/>
</clipPath>
</defs>
</svg>
