<svg width="800" height="800" viewBox="0 0 800 800" fill="none" xmlns="http://www.w3.org/2000/svg">
<rect width="800" height="800" fill="#FF85B4"/>
<path d="M399.999 799.998C620.912 799.998 799.998 620.912 799.998 399.999C799.998 179.086 620.912 0 399.999 0C179.086 0 0 179.086 0 399.999C0 620.912 179.086 799.998 399.999 799.998Z" fill="#FF85B4"/>
<path d="M408.889 606.987C461.907 606.987 504.887 564.007 504.887 510.989C504.887 457.97 461.907 414.99 408.889 414.99C355.871 414.99 312.891 457.97 312.891 510.989C312.891 564.007 355.871 606.987 408.889 606.987Z" fill="#0D0D0D"/>
<path d="M280.616 483.233L247.852 518.311L397.393 657.992L430.158 622.914L280.616 483.233Z" fill="#0D0D0D"/>
<path d="M408.937 558.987C435.446 558.987 456.936 537.497 456.936 510.987C456.936 484.478 435.446 462.988 408.937 462.988C382.427 462.988 360.938 484.478 360.938 510.987C360.938 537.497 382.427 558.987 408.937 558.987Z" fill="#EBEBEB"/>
<path d="M408.884 193.013C355.866 193.013 312.886 235.993 312.886 289.011C312.886 342.03 355.866 385.01 408.884 385.01C461.903 385.01 504.883 342.03 504.883 289.011C504.883 235.993 461.903 193.013 408.884 193.013Z" fill="#0D0D0D"/>
<path d="M537.743 317.304L570.508 282.227L420.359 141.978L387.594 177.056L537.743 317.304Z" fill="#0D0D0D"/>
<path d="M408.837 241.013C382.327 241.013 360.838 262.503 360.838 289.013C360.838 315.522 382.327 337.012 408.837 337.012C435.346 337.012 456.836 315.522 456.836 289.013C456.836 262.503 435.346 241.013 408.837 241.013Z" fill="#EBEBEB"/>
</svg>
