<svg xmlns="http://www.w3.org/2000/svg" width="256" height="256" viewBox="0 0 256 256">
  <g fill="none">
    <path fill="#FF5001" d="M252.019397,158.869978 C234.927718,227.394986 165.518829,269.097705 96.9645231,252.008135 C28.4519045,234.918565 -13.2559597,165.518237 3.83571877,96.9932295 C20.9065538,28.4473808 90.3362868,-13.2553384 158.848905,3.83423171 C227.382367,20.9029608 269.090232,90.324129 252.019397,158.869978 Z"/>
    <g fill="#FFF" transform="translate(43.32 43.633)">
      <path d="M78.0759362,55.2960097 L46.4326585,110.018789 C43.5282742,115.04153 47.1528441,121.324345 52.9548586,121.324345 L116.241414,121.324345 C122.043429,121.324345 125.667999,115.04153 122.763614,110.018789 L91.1203365,55.2960097 C88.2193322,50.2791141 80.9769406,50.2791141 78.0759362,55.2960097 Z M84.5979339,74.117847 L103.181934,106.255847 L66.0139339,106.255847 L84.5979339,74.117847 Z"/>
      <path d="M84.5981364,-1.42108547e-14 C80.6397399,-1.42108547e-14 77.0249605,2.09614425 75.0228314,5.48436283 L1.48035777,132.568751 C-0.488486328,136.03344 -0.488486328,140.217397 1.45072868,143.630415 C1.51852443,143.749736 1.5895677,143.867182 1.66377896,143.982621 C3.71413886,147.17207 7.24092589,149.175452 11.0902999,149.175452 L158.1562,149.175452 C162.085247,149.175452 165.726352,147.104165 167.708255,143.695292 C169.684759,140.217397 169.684759,136.03344 167.745544,132.620422 L94.2080785,5.54359366 C92.1713123,2.09614425 88.5565329,-1.42108547e-14 84.5981364,-1.42108547e-14 Z M84.5979339,19.020847 L151.196934,134.106847 L17.9979339,134.106847 L84.5979339,19.020847 Z"/>
      <polygon points="49.17 107.276 56.74 120.305 11.786 146.423 4.216 133.394"/>
      <polygon points="120.026 107.276 164.98 133.394 157.41 146.423 112.457 120.305"/>
      <polygon points="92.132 7.534 92.132 59.067 77.064 59.067 77.064 7.534"/>
    </g>
  </g>
</svg>
