<svg xmlns="http://www.w3.org/2000/svg" width="256" height="256" viewBox="0 0 256 256">
  <g fill="none">
    <circle cx="128" cy="128" r="128" fill="#F4B731"/>
    <g transform="translate(54 59)">
      <path fill="#FFF" d="M74.942208,-2.55795385e-14 L19.327104,-2.55795385e-14 L19.327104,44.878665 L-6.39488462e-14,44.878665 L-6.39488462e-14,60.9553999 L19.327104,60.9553999 L19.327104,77.8300652 L-6.39488462e-14,77.8300652 L-6.39488462e-14,93.9068001 L19.327104,93.9068001 L19.327104,138.24 L74.942208,138.24 C108.390528,138.24 133.834752,120.135434 143.6256,93.9068001 L161.28,93.9068001 L161.28,77.8300652 L147.497472,77.8300652 C147.835008,74.9788243 148.007808,72.0696787 148.007808,69.1084189 L148.007808,68.713507 C148.007808,66.0846217 147.871872,63.4962695 147.603456,60.9553999 L161.28,60.9553999 L161.28,44.878665 L143.955072,44.878665 C134.41536,18.2794395 108.772992,-2.55795385e-14 74.942208,-2.55795385e-14 L74.942208,-2.55795385e-14 Z"/>
      <path fill="#F4B731" d="M126.707328 44.878665C118.207872 26.6941895 99.782784 14.3986487 74.942208 14.3986487L34.874496 14.3986487 34.874496 44.878665 126.707328 44.878665zM34.874496 77.8300652L131.353344 77.8300652C131.726592 75.1224286 131.917824 72.3429901 131.917824 69.5033309L131.917824 69.1084189C131.917824 66.3324549 131.735808 63.6109217 131.377536 60.9553999L34.874496 60.9553999 34.874496 77.8300652zM34.874496 123.818189L34.874496 93.9068001 126.589824 93.9068001C118.038528 111.837652 99.668736 123.818189 74.942208 123.818189L34.874496 123.818189z"/>
    </g>
  </g>
</svg>
