<svg xmlns="http://www.w3.org/2000/svg" width="256" height="256" viewBox="0 0 256 256">
  <g fill="none">
    <path fill="#FFF" d="M128,0 C198.6816,0 256,57.3184 256,128 C256,198.6816 198.6816,256 128,256 C57.3184,256 0,198.6816 0,128 C0,57.3184 57.3184,0 128,0 L128,0 Z"/>
    <path fill="#FF007A" d="M112.21612 114.763915C113.594295 114.763915 115.50274 113.91565 116.13897 113.067385 116.987115 111.795165 116.669245 110.416885 115.07867 109.462645 112.21612 107.660145 107.869195 109.14453 107.869195 111.901145 107.869195 113.27954 110.0955 114.763915 112.21612 114.763915zM61.85406 164.91382C63.338435 166.08008 65.35284 165.44409 66.41314 163.5354 67.5648201 161.532546 66.9614223 158.979464 65.034965 157.7041 63.232465 156.53784 60.4758778 157.06787 60.4758778 158.658205 60.4740408 159.167127 60.8271282 159.608535 61.32403 159.718505 62.27813 160.248535 62.38433 160.77881 61.642145 161.94507 60.89996 163.11133 60.899955 164.17163 61.85406 164.91382z"/>
    <path fill="#FF007A" d="M128.000055,-0.00014129975 C99.0480373,-0.0430946561 70.9440967,9.77248622 48.314265,27.831055 C69.224665,50.741945 101.24688,86.01587 104.58233,89.8479 L105.96075,91.332275 L105.854545,93.770875 C105.74859,97.057615 104.688285,99.28418 102.24981,101.51074 C99.492975,104.161375 95.994195,105.539675 90.58697,106.28186 C87.300105,106.705935 86.133845,107.236085 84.75567,108.72046 C83.48321,110.098635 82.95317,111.901125 82.635065,116.35425 C82.105035,123.35193 81.256645,126.2146 77.970025,133.1062 C74.789115,139.785765 74.152885,142.224365 74.68316,145.829345 C75.31939,150.07031 77.757865,153.25122 83.48321,157.173845 C87.830375,160.142595 89.84478,162.05104 90.905085,164.383805 C91.541085,165.867935 91.647025,166.397965 91.647025,168.836685 C91.647025,172.653825 91.011025,174.138185 88.466365,176.894545 C84.331365,181.34767 76.803765,184.95241 67.6856,187.073015 C63.868705,187.92116 63.65655,187.92116 63.65655,187.073015 C63.65655,186.01271 62.172175,183.15016 59.733695,179.333265 C56.870905,174.986345 55.704645,172.759535 54.64434,169.366715 C53.47808,165.54982 53.05401,163.005385 53.26617,158.976575 C53.47808,155.159685 53.90217,153.46315 55.38653,150.4944 C56.55279,148.0558 57.294975,146.99562 62.066215,141.058245 C70.230035,130.98561 73.09283,125.048355 74.152885,116.67238 C75.10723,109.144545 76.37945,105.53981 79.24224,102.35888 C80.93853,100.450435 81.36285,99.70838 81.36285,98.32995 C81.36285,97.693845 78.712215,92.49853 70.54815,77.97314 C57.61309,54.859615 57.61309,54.859615 58.03715,55.07164 C58.143105,55.17772 64.186805,64.401965 71.290325,75.53453 C80.620645,90.06003 84.755655,96.10338 85.709755,97.0576 C87.0672491,98.4111841 88.8834486,99.205799 90.79887,99.284165 C92.9045854,99.1175343 94.9574922,98.5412793 96.842325,97.587755 C99.49296,96.10338 100.12919,94.08885 98.53886,91.96849 C96.947795,89.84691 70.225625,57.067125 47.066445,28.835925 C17.2515687,53.1214306 -0.0366708109,89.5459848 -3.39480079e-06,128 C-3.39480079e-06,198.694335 57.30572,256 128.000055,256 C198.69439,256 256.000055,198.694335 256.000055,128 C256.000055,57.30554 198.69439,-0.00014129975 128.000055,-0.00014129975 Z M164.9107,68.112795 C165.122615,67.900755 171.377985,69.703125 173.8167,70.76343 C177.52764,72.247805 178.163625,72.35376 178.58794,72.247805 C178.90581,71.92969 179.11797,71.081545 179.22394,68.43091 C179.4361,64.40198 179.96613,61.751345 181.13239,59.312745 C181.55646,58.35852 181.98078,57.510245 182.086735,57.510245 C182.19269,57.510245 181.980535,58.25243 181.66266,59.100575 C180.81452,61.43322 180.708315,64.71996 181.23859,68.4309 C181.98078,73.2019 182.298895,73.838125 187.388005,79.033315 C189.720505,81.471915 192.477115,84.546745 193.53742,85.81896 L195.33992,88.1516 L193.53742,86.45519 C191.310855,84.33469 186.221745,80.305655 185.055485,79.775505 C184.313295,79.35143 184.20734,79.35143 183.677065,79.88158 C183.252995,80.305655 183.147035,80.94176 183.147035,84.01658 C183.040835,88.7877 182.40485,91.75633 180.814535,94.831155 C179.966145,96.42149 179.860185,96.103375 180.602375,94.301005 C181.132405,92.922585 181.238605,92.2866 181.238605,87.727505 C181.238605,78.50326 180.1783,76.2767 173.710775,72.565885 C172.12044,71.611535 169.36385,70.233385 167.773275,69.491175 C166.789059,69.0968686 165.832679,68.6363547 164.9107,68.112795 L164.9107,68.112795 Z M98.962945,54.435545 C100.97735,54.11743 105.642635,54.541505 108.929255,55.28369 C116.563045,57.08619 123.45489,61.751345 130.77056,69.915285 L132.67901,72.141725 L135.4356,71.71753 C147.2044,69.80908 159.291315,71.293455 169.363825,75.95862 C172.120415,77.230955 176.467325,79.775515 176.99737,80.411745 C177.209525,80.62378 177.527645,82.002075 177.739555,83.38037 C178.481745,88.363525 178.16363,92.074465 176.573295,94.937135 C175.72515,96.527465 175.72515,96.95166 176.25518,98.329955 C176.786588,99.428489 177.897667,100.128057 179.117975,100.132455 C181.66265,100.132455 184.313285,96.103405 185.585505,90.48414 L186.115775,88.25758 L187.06988,89.31788 C192.477105,95.361215 196.71807,103.737315 197.354305,109.67457 L197.566215,111.265145 L196.612115,109.88673 C195.312266,107.748476 193.578612,105.906454 191.523,104.4795 C187.918,102.040905 184.101125,101.298715 174.02886,100.768565 C164.910695,100.238415 159.71536,99.496225 154.626025,97.799815 C145.93218,94.937145 141.479055,91.226315 131.19463,77.54896 C126.63555,71.505625 123.772755,68.21876 120.910205,65.46217 C114.65459,59.41871 108.399205,56.237925 100.235155,54.96571 C98.0086,54.647585 97.902645,54.5415 98.962945,54.435545 Z M158.9732,133.84839 C158.756026,132.33492 158.401118,130.844439 157.912895,129.39551 L157.382865,127.80493 L158.33697,128.97119 C159.846932,130.787824 160.998258,132.874622 161.72979,135.12073 C162.47198,137.13523 162.47198,137.77123 162.47198,141.05823 C162.47198,144.23889 162.36602,144.9812 161.72979,146.783445 C160.787327,149.450729 159.266641,151.876574 157.276665,153.887205 C153.460015,157.81006 148.476615,159.930665 141.3731,160.884765 C140.10064,160.990965 136.495905,161.30908 133.314995,161.520995 C125.363335,161.94507 120.062065,162.793215 115.290825,164.489745 C114.654595,164.70166 114.01861,164.91382 113.91241,164.80786 C113.700495,164.595705 116.987115,162.687255 119.63775,161.41504 C123.348685,159.61254 127.16558,158.658445 135.54156,157.17407 C139.67656,156.53784 143.917535,155.689695 144.97784,155.26538 C155.47442,151.97876 160.6695,143.81482 158.9732,133.84839 Z M104.58233,84.22864 C100.129205,78.0791 97.26641,68.536865 97.902645,61.43323 L98.1148,59.206665 L99.175105,59.4187 C101.549039,59.9312691 103.835157,60.7885843 105.96075,61.96338 C110.201715,64.507935 112.10992,68.006835 113.91241,76.700805 C114.442435,79.245485 115.18487,82.21411 115.50274,83.168455 C116.033015,84.75879 118.04742,88.469725 119.74395,90.802245 C120.91021,92.498535 120.168025,93.3468 117.51739,93.134745 C113.488335,92.710695 108.08111,88.999755 104.58233,84.22864 L104.58233,84.22864 Z M103.628,114.02173 C104.370185,111.265135 106.80891,108.5083 109.353585,107.76623 C111.049875,107.23608 114.336495,107.554195 115.926825,108.40234 C119.00178,109.99267 121.228095,113.49157 120.69807,116.03613 C120.16804,119.110955 115.184885,121.655515 109.35357,121.655515 C106.38482,121.655515 105.32452,121.23144 104.15826,119.747065 C103.41607,118.792845 103.20391,115.71814 103.628,114.02173 Z M165.546685,211.989 C163.206829,213.255824 160.572276,213.877898 157.912895,213.7915 C152.823785,213.7915 148.476615,211.14062 144.97784,205.83935 C144.23565,204.77929 142.751275,201.704585 141.47906,198.84179 C137.76812,190.253655 135.859675,187.709225 131.51275,184.84643 C127.695855,182.40771 122.81866,181.87793 119.10772,183.68017 C114.230525,186.01267 112.95806,192.268305 116.35113,196.0852 C117.97034,197.768865 120.090029,198.884542 122.394585,199.26611 C124.251344,199.511492 126.123311,198.940041 127.526469,197.699511 C128.929628,196.458982 129.726213,194.67117 129.71026,192.798335 C129.71026,190.253655 128.755915,188.76928 126.21148,187.603265 C122.81866,186.11889 119.10772,187.81518 119.21368,191.102045 C119.21368,192.480465 119.84991,193.32861 121.22808,193.96484 C122.07647,194.38891 122.07647,194.38891 121.44024,194.28271 C118.365535,193.64648 117.623345,189.829585 120.06182,187.39111 C123.03057,184.42236 129.286185,185.69482 131.40655,189.829585 C132.254935,191.52612 132.360895,194.91894 131.618705,197.0393 C129.816205,201.704585 124.727105,204.14306 119.531795,202.76489 C116.033015,201.81054 114.54864,200.856195 110.30767,196.50927 C102.885795,188.875485 100.02325,187.39111 89.42071,185.80077 L87.406305,185.482655 L89.632865,183.362295 C97.47857,176.788565 107.12701,172.123525 116.033015,170.63915 C119.84991,170.00292 126.21148,170.21508 129.71026,171.169425 C135.329645,172.6538 140.41876,175.834465 143.06939,179.757315 C145.61407,183.57421 146.78033,186.860815 147.94659,194.17675 C148.37066,197.039295 148.900935,200.008045 149.00689,200.64425 C149.855035,204.461145 151.551325,207.429895 153.67193,209.02025 C156.958795,211.45897 162.684135,211.564925 168.30352,209.44432 C169.257625,209.12645 170.10602,208.80809 170.10602,208.91429 C170.317925,209.126465 167.455135,211.03491 165.546685,211.989 Z M201.48931,177.318835 C199.15681,186.33104 193.855525,193.540755 186.115775,197.67552 C185.404498,198.090508 184.659707,198.445183 183.889215,198.735825 C183.783015,198.735825 184.20733,197.67552 184.843315,196.403325 C187.387995,190.9961 187.70611,185.800785 185.79766,179.969485 C184.6314,176.364485 182.19266,172.017585 177.315485,164.701665 C171.484185,156.21973 170.10601,153.993165 168.621635,150.91846 C165.864798,144.875127 165.22865,139.149793 166.71319,133.74246 C166.925105,133.21231 167.13726,132.68216 167.34919,132.68216 C167.885203,132.836705 168.38832,133.088263 168.833565,133.424345 C170.106025,134.272615 172.756415,135.75699 179.542065,139.467805 C188.1302,144.13284 193.0074,147.737805 196.399975,151.87259 C199.368725,155.47759 201.171215,159.61259 202.01936,164.70169 C202.549615,167.564455 202.2315,174.456055 201.48931,177.31885 L201.48931,177.318835 Z M207.850885,148.37401 C207.108695,151.0244 204.98809,155.901595 204.45806,156.007795 C204.35186,156.007795 204.139945,155.477525 204.139945,154.62938 C203.92779,150.176255 201.701225,145.93529 197.99029,142.648425 C193.53741,138.83153 187.812065,135.968855 173.816705,130.349595 C152.823785,121.86754 145.40191,114.551745 145.40191,102.14696 C145.40191,100.34446 145.50811,98.86009 145.50811,98.86009 C146.13456,99.2849046 146.736285,99.7450844 147.310355,100.23839 C151.551325,103.63121 156.322565,105.115585 169.57574,107.024155 C177.315485,108.190295 181.76861,109.03856 185.79766,110.416855 C198.62652,114.65782 206.57866,123.351915 208.48687,135.120715 C209.017145,138.51355 208.69903,144.9812 207.850885,148.374025 L207.850885,148.37401 Z"/>
  </g>
</svg>
