<svg xmlns="http://www.w3.org/2000/svg" width="40" height="40" viewBox="0 0 40 40"><g transform="translate(0 0)"><path d="M8.4,25.28l3.1-3.212-3.86-5.209L2.732,9.905A20,20,0,0,0,7.04,35.23l6.239-4.408A12.8,12.8,0,0,1,8.4,25.281ZM14.72,8.4l3.212,3.1,5.209-3.86,6.954-4.915A20,20,0,0,0,4.77,7.04l4.408,6.239A12.8,12.8,0,0,1,14.719,8.4Zm13.773,9.53,3.86,5.209,4.915,6.954A20,20,0,0,0,32.96,4.77L26.72,9.178A12.8,12.8,0,0,1,31.6,14.719l-3.1,3.213ZM35.23,32.96l-4.408-6.239A12.8,12.8,0,0,1,25.281,31.6l-3.213-3.105-5.209,3.86L9.9,37.268A20,20,0,0,0,35.23,32.96Z"/></g></svg>