<svg xmlns="http://www.w3.org/2000/svg" xmlns:xlink="http://www.w3.org/1999/xlink" width="70" height="70" viewBox="0 0 70 70"><defs><style>.a{fill:none;}.b{clip-path:url(#a);}.c{fill:#1a2c57;}.d{fill:#4f6ef7;}.e{fill:#badefc;}</style><clipPath id="a"><circle class="a" cx="35" cy="35" r="35"/></clipPath></defs><g class="b"><circle class="c" cx="35" cy="35" r="35"/><g transform="translate(7.627 7.201)"><g transform="translate(0 0)"><path class="d" d="M11.009,48.71c-.263,0,5.268-22.784,5.268-22.784a1.3,1.3,0,0,1,.931-.886,1.287,1.287,0,0,1,1.232.347l9.114,9.22a1.327,1.327,0,0,1-.14,1.985L11.79,48.446A1.283,1.283,0,0,1,11.009,48.71Z" transform="translate(1.419 3.226)"/><path class="e" d="M43.457,55.323a1.313,1.313,0,0,1-.79-.264L.527,23.446a1.317,1.317,0,0,1,.3-2.277L53.517.094A1.317,1.317,0,0,1,55.3,1.576L44.749,54.264a1.316,1.316,0,0,1-1.291,1.059Z" transform="translate(0 0)"/><path class="d" d="M11.336,51.935a1.364,1.364,0,0,1-.215-.016A1.31,1.31,0,0,1,10,50.637V31.161a1.288,1.288,0,0,1,.539-1.042L51.9.256a1.36,1.36,0,0,1,1.814.2,1.274,1.274,0,0,1-.094,1.775L16.936,36.551,12.6,51.048A1.331,1.331,0,0,1,11.336,51.935Z" transform="translate(1.29 0)"/></g></g></g></svg>