<svg xmlns="http://www.w3.org/2000/svg" xmlns:xlink="http://www.w3.org/1999/xlink" viewBox="0 0 390.72 354.41"><defs><style>.cls-1,.cls-28,.cls-5,.cls-6{fill:none;}.cls-2{fill:url(#linear-gradient);}.cls-3{fill:#d0d1d8;}.cls-4{fill:#f6f7fc;}.cls-5,.cls-6{stroke:#bcc2c9;}.cls-28,.cls-5,.cls-6{stroke-linecap:round;stroke-linejoin:round;}.cls-5{stroke-width:1.86px;}.cls-6{stroke-width:0.82px;}.cls-15,.cls-16,.cls-25,.cls-29,.cls-7,.cls-9{fill:#fff;}.cls-7{opacity:0.2;}.cls-8{fill:#2fcfa4;}.cls-9{opacity:0.42;}.cls-10{fill:#4f6ef7;}.cls-11{fill:#2a56ba;}.cls-12{fill:#2b58d6;}.cls-13{fill:#b3bbc4;}.cls-14{fill:#9ba3ae;}.cls-15{opacity:0.21;}.cls-16{opacity:0.47;}.cls-17{fill:#17388d;}.cls-18{fill:url(#linear-gradient-2);}.cls-19{fill:url(#linear-gradient-3);}.cls-20{fill:url(#linear-gradient-4);}.cls-21,.cls-22{fill:#ebedf8;}.cls-21{opacity:0.6;}.cls-23{fill:#0c204e;}.cls-24{clip-path:url(#clip-path);}.cls-25{opacity:0.12;}.cls-26{clip-path:url(#clip-path-2);}.cls-27{clip-path:url(#clip-path-3);}.cls-28{stroke:#fff;stroke-width:0.6px;}.cls-29{opacity:0.3;}.cls-30{fill:#ef476f;}.cls-31{fill:url(#linear-gradient-5);}.cls-32{fill:url(#linear-gradient-6);}</style><linearGradient id="linear-gradient" x1="86.17" y1="79.34" x2="291.44" y2="465.6" gradientTransform="translate(-53.15 -35.91) rotate(-13.77)" gradientUnits="userSpaceOnUse"><stop offset="0" stop-color="#4f6ef7"/><stop offset="0.05" stop-color="#4563df"/><stop offset="0.14" stop-color="#3651b8"/><stop offset="0.24" stop-color="#294297"/><stop offset="0.35" stop-color="#1e367d"/><stop offset="0.47" stop-color="#162c68"/><stop offset="0.6" stop-color="#102559"/><stop offset="0.75" stop-color="#0d2151"/><stop offset="1" stop-color="#0c204e"/></linearGradient><linearGradient id="linear-gradient-2" x1="92.9" y1="190.95" x2="137.6" y2="280.56" gradientUnits="userSpaceOnUse"><stop offset="0" stop-color="#ebedf8"/><stop offset="0.03" stop-color="#dee2f8"/><stop offset="0.12" stop-color="#b8c4f8"/><stop offset="0.22" stop-color="#97a9f7"/><stop offset="0.33" stop-color="#7d93f7"/><stop offset="0.45" stop-color="#6983f7"/><stop offset="0.58" stop-color="#5a77f7"/><stop offset="0.74" stop-color="#5270f7"/><stop offset="1" stop-color="#4f6ef7"/></linearGradient><linearGradient id="linear-gradient-3" x1="114.49" y1="184.96" x2="159.19" y2="274.57" xlink:href="#linear-gradient-2"/><linearGradient id="linear-gradient-4" x1="132.01" y1="230.39" x2="205.08" y2="306.25" gradientUnits="userSpaceOnUse"><stop offset="0" stop-color="#ebedf8"/><stop offset="0.25" stop-color="#ced3de"/><stop offset="0.54" stop-color="#b2b9c4"/><stop offset="0.81" stop-color="#a1a9b4"/><stop offset="1" stop-color="#9ba3ae"/></linearGradient><clipPath id="clip-path"><path class="cls-1" d="M131.88,223.69s2.14-5.15,9.13-7.44,11.28-1.72,11.28-1.72,3.75,0,5.37,5.15,1.61,9.17,0,13.18a12.08,12.08,0,0,1-5.37,6.3,18.24,18.24,0,0,1-8.6,2.29c-4.3,0-6.44-1.14-8.05-3.43S131.88,230.57,131.88,223.69Z"/></clipPath><clipPath id="clip-path-2"><path class="cls-1" d="M137.68,281.93l.79,1.51s3.6,6,9,8.39,10.2,1.8,13.19,5.4,4.2,4.8,4.2,9.6c0,0,1.2,3,7.2,0,0,0,3.6-3.6,1.8-12.6s-7.2-13.79-8.4-14.39-1.2-1.2-1.2-1.2-12-3-19.19-1.2S137.68,281.93,137.68,281.93Z"/></clipPath><clipPath id="clip-path-3"><path class="cls-1" d="M166.66,275.64s2.4,1.8,9,.6,10.19.6,11.39,2.4,5.4,7.8,5.4,7.8a30.11,30.11,0,0,0,4.8-3.6s.6-9-2.4-14.4-3.6-6-6-6.59a80.81,80.81,0,0,0-10.79-1.8,46.53,46.53,0,0,1-5.4-.6,45.52,45.52,0,0,0-4.2,7.79C166.69,272,166.32,276.32,166.66,275.64Z"/></clipPath><linearGradient id="linear-gradient-5" x1="177.09" y1="-20.08" x2="61.21" y2="35.18" gradientTransform="matrix(0.98, -0.13, -0.06, 0.54, 4.18, 50.49)" gradientUnits="userSpaceOnUse"><stop offset="0" stop-color="#fff"/><stop offset="0.02" stop-color="#fff" stop-opacity="0.95"/><stop offset="0.14" stop-color="#fff" stop-opacity="0.73"/><stop offset="0.25" stop-color="#fff" stop-opacity="0.54"/><stop offset="0.37" stop-color="#fff" stop-opacity="0.37"/><stop offset="0.49" stop-color="#fff" stop-opacity="0.24"/><stop offset="0.61" stop-color="#fff" stop-opacity="0.13"/><stop offset="0.74" stop-color="#fff" stop-opacity="0.06"/><stop offset="0.86" stop-color="#fff" stop-opacity="0.01"/><stop offset="1" stop-color="#fff" stop-opacity="0"/></linearGradient><linearGradient id="linear-gradient-6" x1="132.49" y1="32.54" x2="68.5" y2="63.06" xlink:href="#linear-gradient-5"/></defs><title>Asset 4</title><g id="Layer_2" data-name="Layer 2"><g id="Layer_1-2" data-name="Layer 1"><circle class="cls-2" cx="189.18" cy="177.21" r="177.16"/><path class="cls-3" d="M238.88,155.44c-.2-.35-2.32-.61-2.75-.72A193.26,193.26,0,0,0,214.06,150c-8-1.09-16.61-1.6-24.57.06-7,1.48-15.53,5.25-16.27,13.39-.55,6.06,2,12,4.43,17.38,2.29,5,4,10.81,1.14,16.07-3.71,6.82-14.86,10.53-26.63,11.15s-22.73-2.33-33.32-7.38c-6.57-3.14-14-6.37-21.36-4.42a16.9,16.9,0,0,0-10,7.4c-3.73,6.05-2.86,12.94.83,18.73,3.84,6,23,17.87,29.62,20.58.61-1.43-2.6-2.57-2-4-5.49-2.92-21.94-13.29-25-19-2.08-3.9-3.82-9-2-13,5.59-12.35,22.15-4.93,30.76-1.27s17.44,6.85,26.85,7.32c12.39.62,23.1-1.62,32.39-9.05s3.54-23.16,3.54-23.16-5-11.15-5-17.35c0-6.42,4.42-8.49,14.42-9.49,9.36-.94,18.11.39,27.22,2.12,7.28,1.38,14.52,2.95,21.74,4.65.13,0,1,.12,1,.25Z"/><path class="cls-4" d="M297.08,264.51a5,5,0,0,0,2.92-2.68,4.38,4.38,0,0,0,2.67,2.68s-2.25,1.42-2.67,2.91a5.31,5.31,0,0,0-1.2-1.9,5,5,0,0,0-1.72-1"/><path class="cls-4" d="M282.08,253.16a10,10,0,0,0,5.84-5.36s.84,3.47,5.35,5.36c0,0-4.51,2.84-5.35,5.83a10.41,10.41,0,0,0-2.41-3.8,9.77,9.77,0,0,0-3.43-2"/><path class="cls-4" d="M273.13,272.67a5,5,0,0,0,2.93-2.68,4.33,4.33,0,0,0,2.67,2.68s-2.26,1.42-2.67,2.92a5.33,5.33,0,0,0-1.21-1.91,5,5,0,0,0-1.72-1"/><circle class="cls-3" cx="39.17" cy="128.49" r="39.16"/><path class="cls-5" d="M14.54,112.64a9,9,0,0,0,7.46,0,6.61,6.61,0,0,0,3.73-5.59"/><path class="cls-5" d="M46.24,108.91a9,9,0,0,0,7.46,0,6.61,6.61,0,0,0,3.73-5.59"/><path class="cls-5" d="M51.84,125.7a6.61,6.61,0,0,1-3.73,5.59,9,9,0,0,1-7.46,0"/><path class="cls-5" d="M36.92,155.53a9,9,0,0,0,7.46,0,6.61,6.61,0,0,0,3.73-5.59"/><path class="cls-5" d="M12.67,142.48a9,9,0,0,0,7.46,0,6.63,6.63,0,0,0,3.73-5.59"/><circle class="cls-3" cx="111.09" cy="116.1" r="18.88"/><path class="cls-6" d="M99,119a4,4,0,0,0,3.28,0,2.91,2.91,0,0,0,1.64-2.46"/><path class="cls-6" d="M105.51,105.86a4,4,0,0,0,3.28,0,2.91,2.91,0,0,0,1.65-2.46"/><path class="cls-6" d="M117,117.35a4,4,0,0,0,3.28,0,2.91,2.91,0,0,0,1.65-2.46"/><path class="cls-6" d="M108.79,128.84a4,4,0,0,0,3.29,0,2.91,2.91,0,0,0,1.64-2.46"/><path class="cls-3" d="M251.38,173.16l-8.12,17.59s-4.06,0-6.76,5.41a126.09,126.09,0,0,0-5.41,13.53,7.24,7.24,0,0,0,4,8.11c5.42,2.71,9.47-2.7,9.47-2.7l6.77-14.88s1.35-4.06,0-6.77l8.11-17.58Z"/><path class="cls-7" d="M251.38,173.16l-8.12,17.59s-4.06,0-6.76,5.41a126.09,126.09,0,0,0-5.41,13.53,7.25,7.25,0,0,0,3.74,7.95l.31.16,20.33-43.28-.15-.05Z"/><path class="cls-8" d="M256.57,168.51c-14.82-5.65-29.89-2.21-33.67,7.68s5.19,22.5,20,28.15,29.89,2.2,33.66-7.69S271.39,174.16,256.57,168.51Zm15.12,25.23c-2.89,7.58-14.86,10.07-26.72,5.54s-19.15-14.34-16.26-21.92,14.86-10.08,26.73-5.55S274.58,186.15,271.69,193.74Z"/><polygon class="cls-3" points="217.56 27.06 241.91 23 285.2 90.64 258.14 90.64 217.56 27.06"/><polygon class="cls-3" points="314.96 114.99 302.78 93.34 378.54 81.17 390.71 102.81 314.96 114.99"/><polygon class="cls-9" points="217.56 27.06 241.91 23 285.2 90.64 258.14 90.64 217.56 27.06"/><path class="cls-10" d="M239.34,147.83s-2.51,16,1.57,26.58,17.41,13.14,25.38,11.74,21.11-17.49,21.11-17.49Z"/><path class="cls-7" d="M239.34,147.83s-2.51,16,1.57,26.58A17.84,17.84,0,0,0,251,184.33l.09,0L262.78,158h0Z"/><path class="cls-11" d="M244.64,146.45l-5.3,1.38s3.33,17,17.49,22.45c18.75,7.14,30.57-1.62,30.57-1.62l-4-5.28Z"/><path class="cls-7" d="M244.64,146.45l-5.3,1.38s3.33,17,17.49,22.45l.44.16L264.15,155Z"/><path class="cls-12" d="M247.24,139.78l-2.6,6.67s1.46,13.29,14.8,18.48c14.51,5.65,23.92-1.55,23.92-1.55l3.93-6.68Z"/><path class="cls-7" d="M247.24,139.78l-2.6,6.67s1.46,13.29,14.8,18.48l.24.1,7.55-16.81-.06,0Z"/><path class="cls-10" d="M268,82.41l-22.1,54.72s.14,16,16.16,22.46,29.23-2.93,29.23-2.93L316,101.91s-.14-14.63-17.5-22.45A30.24,30.24,0,0,0,268,82.41Z"/><path class="cls-8" d="M247.37,145.55,246,148.94a14.45,14.45,0,0,0,3.45,6.74l1.38-3.4A19,19,0,0,1,247.37,145.55Z"/><path class="cls-8" d="M253.09,154.51l-1.66,3.4s3.42,3.92,7.66,5.29l1.67-3.12A25.64,25.64,0,0,1,253.09,154.51Z"/><path class="cls-8" d="M272.36,162.84,271,166.36s-5.2.11-9.07-2.11l1.19-3.33A25.69,25.69,0,0,0,272.36,162.84Z"/><path class="cls-8" d="M282.65,161.09,281,164.34a14.41,14.41,0,0,1-7.36,1.75l1.69-3.26A19,19,0,0,0,282.65,161.09Z"/><path class="cls-7" d="M268,82.41l-22.1,54.72s.14,15.86,16,22.4l.15.06,36.49-80.13-.11,0A30.25,30.25,0,0,0,268,82.41Z"/><path class="cls-7" d="M253.09,154.51l-1.66,3.4s3.42,3.92,7.66,5.29l1.67-3.12A25.64,25.64,0,0,1,253.09,154.51Z"/><path class="cls-7" d="M247.37,145.55,246,148.94a14.45,14.45,0,0,0,3.45,6.74l1.38-3.4A19,19,0,0,1,247.37,145.55Z"/><path class="cls-3" d="M286.55,66.29c1.51-3.35,2.9-6.75,4.36-10.12,1.39-3.21,2.72-7.35,5-10.05,3.73-4.46,10.71-7.15,16.37-5.53a16.74,16.74,0,0,1,9,5.77,15.91,15.91,0,0,1,3.07,10c-.2,3.47-1.88,7.15-3.13,10.38A85.63,85.63,0,0,1,315,79.82S310.9,92,296,86.58,286.48,66.45,286.55,66.29Z"/><path class="cls-7" d="M286.55,66.29c1.51-3.35,2.9-6.75,4.36-10.12,1.39-3.21,2.72-7.35,5-10.05,3.73-4.46,10.71-7.15,16.37-5.53a17.93,17.93,0,0,1,1.75.58l.44.17s-19,45-19.21,44.94l-.31-.13C281.49,80.46,286.48,66.45,286.55,66.29Z"/><path class="cls-13" d="M319.7,52.89c-1.37,3.41-19-3.6-17.6-7s6.41-4.61,11.27-2.67S321.06,49.47,319.7,52.89Z"/><ellipse class="cls-14" cx="310.7" cy="49.89" rx="4.19" ry="9.47" transform="translate(149.27 320) rotate(-68.26)"/><polygon class="cls-3" points="290.61 128.52 313.61 124.46 354.19 188.04 331.19 192.1 290.61 128.52"/><polygon class="cls-3" points="252.73 97.4 266.26 119.05 191.85 131.22 176.97 109.58 252.73 97.4"/><circle class="cls-12" cx="287.23" cy="106.2" r="11.5"/><circle class="cls-8" cx="287.23" cy="106.2" r="7.44"/><path class="cls-15" d="M281.76,116.32l-.08,0a11.5,11.5,0,0,1,9.49-20.88l.1,0Z"/><polygon class="cls-16" points="252.73 97.4 266.26 119.05 191.85 131.22 176.97 109.58 252.73 97.4"/><path class="cls-14" d="M196.7,279.69l2.07,6.42s4.22-1.75,4.91-1.63,2.94.35-1.25,3.89-7.85,1.27-8.7.05-3.86-6.38-3.86-6.38Z"/><path class="cls-14" d="M119.23,285.06s-.65,4.59,1.31,7.21,5.24,2.62,5.24,0-1.31-2.62-1.31-2.62,1.31,1.31,2,1.31.65-1.31,0-2-3.28-1.31-3.28-3.27S119.23,285.06,119.23,285.06Z"/><path class="cls-14" d="M172.3,304.94l-.82,6.69s4.57.2,5.15.6,2.51,1.55-2.77,3-7.66-2.14-7.92-3.61-.82-7.4-.82-7.4Z"/><polygon class="cls-17" points="111.48 210.27 124.08 205.47 125.88 208.47 109.66 214.51 111.48 210.27"/><polygon class="cls-17" points="113.28 218.66 125.88 213.86 127.68 216.86 111.46 222.91 113.28 218.66"/><polygon class="cls-10" points="100.69 203.67 97.09 195.87 99.49 194.67 103.09 203.67 100.69 203.67"/><ellipse class="cls-17" cx="97.69" cy="194.37" rx="3.6" ry="2.1" transform="translate(-66.41 51.56) rotate(-22.29)"/><path class="cls-18" d="M137.87,266.64l-15,6-25.19-60s-1.8-7.19,1.2-9.59a6.86,6.86,0,0,1,7.2-1.2c1.19.6,4.19,1.8,6.59,7.2S137.87,266.64,137.87,266.64Z"/><path class="cls-8" d="M99.67,217.39l1.28,3s6.28,1.23,14.11-6l-1.31-3A30.55,30.55,0,0,1,99.67,217.39Z"/><path class="cls-8" d="M111.65,245.9l1.29,3.08s10.48-.68,14.11-7.1l-1.17-2.69A20.19,20.19,0,0,1,111.65,245.9Z"/><polygon class="cls-10" points="122.28 197.67 118.68 189.87 121.08 188.67 124.68 197.67 122.28 197.67"/><ellipse class="cls-17" cx="119.28" cy="188.37" rx="3.6" ry="2.1" transform="translate(-62.53 59.3) rotate(-22.29)"/><path class="cls-19" d="M159.46,260.65l-15,6-25.19-60s-1.8-7.2,1.2-9.6a6.86,6.86,0,0,1,7.2-1.2c1.2.6,4.2,1.8,6.59,7.2S159.46,260.65,159.46,260.65Z"/><path class="cls-8" d="M121.26,211.39l1.28,3s6.29,1.23,14.11-6l-1.31-3A30.55,30.55,0,0,1,121.26,211.39Z"/><path class="cls-8" d="M133.24,239.91l1.29,3.07s10.49-.68,14.11-7.1l-1.17-2.68A20.19,20.19,0,0,1,133.24,239.91Z"/><path class="cls-14" d="M185.07,218.07s2.19-4.08,1.24-7.21-4-4.26-4.92-1.8.33,2.91.33,2.91-.78-1.68-1.39-1.91-1.07,1-.68,1.85,2.63,2.35,1.95,4.2S185.07,218.07,185.07,218.07Z"/><path class="cls-20" d="M131.28,245.65l-7.2,5.4s-4.8,4.2-6.6,9.6-1.8,13.19-1.8,13.19,1.2,8.4,2.4,10.8,4.8,1.8,4.8,1.8,1.2,0,1.8-1.8,2.4-8.4,2.4-8.4l1.2-7.2s.6-2.4,1.2-2.4,3,5.4,3,5.4l6,11.4s3.6,6,9,8.39,9.28,1.49,12.59,4.8c3.6,3.6,4.8,5.4,4.8,10.2,0,0,1.2,3,7.2,0,0,0,3.6-3.6,1.8-12.6s-7.2-13.79-8.4-14.39-1.2-1.2-1.2-1.2a16.41,16.41,0,0,0,2.4-3s2.4,1.8,9,.6,10.19.6,11.39,2.4,5.4,7.8,5.4,7.8a30.11,30.11,0,0,0,4.8-3.6s.6-9-2.4-14.4-3.6-6-6-6.59a80.81,80.81,0,0,0-10.79-1.8,46.53,46.53,0,0,1-5.4-.6s-3-7.2-4.2-9.6a42.2,42.2,0,0,0-4.2-6s7.2-1.8,12-4.8a17.93,17.93,0,0,0,8.39-10.79,41.52,41.52,0,0,0,1.2-9.6s0-4.2-4.79-2.4c0,0-1.8,5.4-3.6,7.2a24.66,24.66,0,0,1-7.8,4.8,27.94,27.94,0,0,1-7.53,1.39Z"/><path class="cls-21" d="M166.66,275.64s2.4,1.8,9,.6,10.19.6,11.39,2.4,5.4,7.8,5.4,7.8a30.11,30.11,0,0,0,4.8-3.6s.6-9-2.4-14.4-3.6-6-6-6.59a80.81,80.81,0,0,0-10.79-1.8,46.53,46.53,0,0,1-5.4-.6,45.52,45.52,0,0,0-4.2,7.79C166.69,272,166.32,276.32,166.66,275.64Z"/><path class="cls-21" d="M137.68,281.93l.79,1.51s3.6,6,9,8.39,10.2,1.8,13.19,5.4,4.2,4.8,4.2,9.6c0,0,1.2,3,7.2,0,0,0,3.6-3.6,1.8-12.6s-7.2-13.79-8.4-14.39-1.2-1.2-1.2-1.2-12-3-19.19-1.2S137.68,281.93,137.68,281.93Z"/><path class="cls-8" d="M152.87,240.25l1.8-1.2s3.6,1.8,4.19,3-.59,1.8-1.19,1.2S153.47,240.25,152.87,240.25Z"/><path class="cls-22" d="M121.32,240.1c-3.5-5.25-5.31-13.42-3.89-19.63a22.19,22.19,0,0,1,2.46-6.18,21.15,21.15,0,0,1,9.78-8.78,26.11,26.11,0,0,1,11.44-1.88A23.14,23.14,0,0,1,152,206.56a22.25,22.25,0,0,1,7.37,7.57,23.88,23.88,0,0,1,3.72,11.4,20.83,20.83,0,0,1-4.35,13.4A23.87,23.87,0,0,1,147.13,247c-8.33,2.67-20.41,1-25.69-6.71Z"/><path class="cls-14" d="M130.08,224.06s2.4-5.4,10.19-7.8,12.6-1.8,12.6-1.8,4.2,0,6,5.4,1.8,9.6,0,13.8a12.9,12.9,0,0,1-6,6.59,21.3,21.3,0,0,1-9.6,2.4c-4.8,0-7.2-1.2-9-3.6S130.08,231.26,130.08,224.06Z"/><path class="cls-23" d="M131.88,223.69s2.14-5.15,9.13-7.44,11.28-1.72,11.28-1.72,3.75,0,5.37,5.15,1.61,9.17,0,13.18a12.08,12.08,0,0,1-5.37,6.3,18.24,18.24,0,0,1-8.6,2.29c-4.3,0-6.44-1.14-8.05-3.43S131.88,230.57,131.88,223.69Z"/><g class="cls-24"><polygon class="cls-25" points="131.28 219.26 154.67 240.85 152.27 242.05 128.28 220.46 131.28 219.26"/><polygon class="cls-25" points="134.27 218.06 157.66 238.46 160.06 233.66 140.87 213.26 134.27 218.06"/></g><path class="cls-8" d="M127.08,248.65l1.8-1.2s3.6,1.8,4.19,3-.59,1.8-1.19,1.2S127.68,248.65,127.08,248.65Z"/><g class="cls-26"><path class="cls-8" d="M155.87,294.72c2.37-1.22,4.31-3.09,6.66-4.35A19.07,19.07,0,0,1,173,288.3c.58,0,.58-.86,0-.9a20,20,0,0,0-9.31,1.41c-3.05,1.29-5.38,3.63-8.3,5.13-.51.27-.06,1,.46.78Z"/><path class="cls-8" d="M160.49,299.67c5-.18,11.84-1.44,14.79-5.93.32-.49-.46-.94-.78-.46-2.74,4.18-9.42,5.32-14,5.49-.58,0-.58.92,0,.9Z"/></g><g class="cls-27"><path class="cls-8" d="M181.34,276.84c1.18-5.75,2.43-12.28,6.68-16.61.41-.41-.23-1.05-.63-.64-4.39,4.47-5.7,11.09-6.92,17-.12.56.75.8.87.24Z"/><path class="cls-8" d="M186.35,279.79c1.38-2.92,4.15-4.77,5.86-7.47a17.86,17.86,0,0,0,2.62-8.14c0-.58-.85-.58-.9,0a16.78,16.78,0,0,1-4.19,9.91c-1.53,1.72-3.17,3.13-4.17,5.24-.24.53.53,1,.78.46Z"/></g><path class="cls-8" d="M115.68,273.84a4.87,4.87,0,0,0,4.8-4.2c.6-4.2-3.76-6.1-3.76-6.1l-.26,1.35-.34,2.28-.22,2.13-.16,2.21Z"/><path class="cls-8" d="M176.26,238.45l.48.3,1.55-1.11,1.05-.85.83-.76.7-.78.73-.86.59-.84.52-.78.52-.92s-.95-1.08-3.37-.59C176.86,231.86,174.46,236.06,176.26,238.45Z"/><path class="cls-28" d="M117.18,225s4.5-2.7,7.5.3,3.6,7.2,2.4,9.6-3,4.19-6,3.59"/><path class="cls-28" d="M155.57,210s-7.2-1.8-13.8,0-9.59,4.19-12,7.19a46.77,46.77,0,0,0-4.77,8.45"/><path class="cls-8" d="M119.88,225.86a26.51,26.51,0,0,1-.12-4.18c.27-5.41,4.56-10.84,8.83-13.85,6.6-4.66,15.93-5.64,23-1.41.44.26.88.55,1.3.85a6.14,6.14,0,0,0-1.9-.51,28.14,28.14,0,0,0-14.6.55,20.8,20.8,0,0,0-9.78,6.42,17,17,0,0,0-3.29,6.35c-.68,2.53-.42,5-.42,7.58Z"/><path class="cls-7" d="M119.88,225.86a26.51,26.51,0,0,1-.12-4.18c.27-5.41,4.56-10.84,8.83-13.85,6.6-4.66,15.93-5.64,23-1.41.44.26.88.55,1.3.85a6.14,6.14,0,0,0-1.9-.51,28.14,28.14,0,0,0-14.6.55,20.8,20.8,0,0,0-9.78,6.42,17,17,0,0,0-3.29,6.35c-.68,2.53-.42,5-.42,7.58Z"/><path class="cls-8" d="M117.33,226.92l2.55-1.06s2.4,0,3.6,1.2a7.41,7.41,0,0,1,2.4,4.8,5.45,5.45,0,0,1-1.8,4.2,4.71,4.71,0,0,1-3,1.19Z"/><path class="cls-8" d="M115.68,230.06s.6-3.6,3-3.6a5.93,5.93,0,0,1,5.4,6c0,3.6-.6,4.79-3,4.79S115.68,234.86,115.68,230.06Z"/><path class="cls-29" d="M115.68,230.06s.6-3.6,3-3.6a5.93,5.93,0,0,1,5.4,6c0,3.6-.6,4.79-3,4.79S115.68,234.86,115.68,230.06Z"/><path class="cls-28" d="M152.57,255.55a4.48,4.48,0,0,0-5.62,1.57c-3.44,5.6,6.86,9.1,10.48,10.43l.86.32a3.56,3.56,0,0,0,1.47.28c.27,0,1-3.1,1.1-3.42.82-2.94,1.63-6.2,1.3-9.27s-3-4.47-5.81-3.42a4.36,4.36,0,0,0-2.58,4.11Z"/><path class="cls-30" d="M154.49,258s-4.54-2.87-6.34.93,10.57,7.87,10.57,7.87l.13-.06s4.12-12.35,0-13.18-3.91,4.74-3.91,4.74Z"/><path class="cls-17" d="M96.49,201.06a5.84,5.84,0,0,0,3.19-1.17.93.93,0,0,0,.33-1.23.9.9,0,0,0-1.23-.32,4.2,4.2,0,0,1-2.29.92c-1.14.08-1.15,1.88,0,1.8Z"/><path class="cls-17" d="M118.61,194.75c1,.11,1.81-.67,2.55-1.16,1-.63.06-2.19-.91-1.55l-.9.59c-.24.16-.45.36-.74.32a.9.9,0,0,0-.9.9.92.92,0,0,0,.9.9Z"/><path class="cls-31" d="M161.56,26.76l0,0c-47,9.34-78.1,29.18-79.11,29.71,38.93-25.16,76.78-32.25,77.8-32.48,2.5-.57,4.69-.37,4.87.43S163.74,26.17,161.56,26.76Z"/><path class="cls-32" d="M122.55,56.7h0C96.62,61.87,79.43,72.83,78.88,73.12a132.28,132.28,0,0,1,43-17.94c1.38-.31,2.59-.21,2.69.24S123.75,56.37,122.55,56.7Z"/><path class="cls-4" d="M57.08,192.16a10,10,0,0,0,5.84-5.36s.84,3.47,5.35,5.36c0,0-4.51,2.84-5.35,5.83a10.41,10.41,0,0,0-2.41-3.8,9.77,9.77,0,0,0-3.43-2"/><path class="cls-4" d="M53.13,211.67A5,5,0,0,0,56.06,209a4.33,4.33,0,0,0,2.67,2.68s-2.26,1.42-2.67,2.92a5.33,5.33,0,0,0-1.21-1.91,5,5,0,0,0-1.72-1"/></g></g></svg>