<svg xmlns="http://www.w3.org/2000/svg" width="82" height="81" viewBox="0 0 82 81">
  <g fill="none">
    <circle cx="41.01" cy="40.5" r="40.5" fill="#1A3B8B"/>
    <path fill="#0C204E" d="M41,81 C18.3563253,81 0,62.8675324 0,40.5 C0,18.1324676 18.3563253,0 41,0 L41,0 L41,81 L41,81 Z"/>
    <g transform="translate(12.27 12)">
      <circle cx="28.74" cy="28.74" r="27.37" fill="#BADEFC"/>
      <path fill="#4F6EF7" d="M28.74,3.55271368e-15 C12.8673363,3.55271368e-15 7.10542736e-15,12.8673363 7.10542736e-15,28.74 C7.10542736e-15,44.6126637 12.8673363,57.48 28.74,57.48 C44.6126637,57.48 57.48,44.6126637 57.48,28.74 C57.4634645,12.8741906 44.6058094,0.0165355105 28.74,3.55271368e-15 Z M2.81,30.11 L13.73,30.11 C13.7972314,33.7955397 14.2598816,37.4632157 15.11,41.05 L5.85,41.05 C4.03964355,37.6732032 3.00134294,33.9366872 2.81,30.11 L2.81,30.11 Z M30.11,13.68 L30.11,2.92 C33.6,3.78 36.7,7.92 38.7,13.68 L30.11,13.68 Z M39.54,16.42 C40.4444802,20.0028164 40.9442707,23.6757737 41.03,27.37 L30.11,27.37 L30.11,16.42 L39.54,16.42 Z M27.38,2.92 L27.38,13.68 L18.79,13.68 C20.79,7.87 23.88,3.78 27.38,2.92 Z M27.38,16.42 L27.38,27.37 L16.46,27.37 C16.5358366,23.674995 17.0357788,20.0009235 17.95,16.42 L27.38,16.42 Z M13.73,27.37 L2.81,27.37 C2.99112841,23.5435656 4.01554958,19.8044284 5.81,16.42 L15.07,16.42 C14.2327175,20.0115213 13.7834761,23.6825608 13.73,27.37 L13.73,27.37 Z M16.46,30.11 L27.38,30.11 L27.38,41.05 L17.95,41.05 C17.035756,37.4724781 16.5358074,33.8017149 16.46,30.11 L16.46,30.11 Z M27.38,43.79 L27.38,54.56 C23.88,53.7 20.79,49.56 18.79,43.79 L27.38,43.79 Z M30.11,54.56 L30.11,43.79 L38.7,43.79 C36.7,49.61 33.6,53.7 30.11,54.56 L30.11,54.56 Z M30.11,41.05 L30.11,30.11 L41.03,30.11 C40.9443651,33.8009407 40.4445675,37.4705958 39.54,41.05 L30.11,41.05 Z M43.76,30.11 L54.68,30.11 C54.4898858,33.9381616 53.4478976,37.6756537 51.63,41.05 L42.38,41.05 C43.2301184,37.4632157 43.6927686,33.7955397 43.76,30.11 L43.76,30.11 Z M43.76,27.37 C43.6934063,23.6811165 43.2307524,20.0100581 42.38,16.42 L51.63,16.42 C53.4468206,19.7983711 54.4886921,23.5388605 54.68,27.37 L43.76,27.37 Z M49.9,13.68 L41.61,13.68 C40.5772915,10.084067 38.7948666,6.74755844 36.38,3.89 C41.8368342,5.58536717 46.5865128,9.02466844 49.9,13.68 L49.9,13.68 Z M21.11,3.89 C18.6918058,6.74683103 16.905969,10.0833467 15.87,13.68 L7.58,13.68 C10.8971203,9.02396054 15.6501678,5.58476354 21.11,3.89 Z M7.58,43.79 L15.87,43.79 C16.9060778,47.3896186 18.6918273,50.7293791 21.11,53.59 C15.6477594,51.8946186 10.8939409,48.4513502 7.58,43.79 L7.58,43.79 Z M36.38,53.59 C38.794845,50.7286525 40.5771828,47.388899 41.61,43.79 L49.9,43.79 C46.5902287,48.4511717 41.8395811,51.8946884 36.38,53.59 L36.38,53.59 Z"/>
      <circle cx="17.8" cy="17.79" r="4.11" fill="#EFD358"/>
      <path fill="#FFF" d="M17.8,23.26 C15.5840235,23.276205 13.5772194,21.9538058 12.7179497,19.9111433 C11.85868,17.8684809 12.316745,15.5092058 13.877958,13.9364921 C15.4391711,12.3637785 17.7950206,11.8884102 19.8439346,12.732665 C21.8928485,13.5769198 23.23,15.5739642 23.23,17.79 C23.2246447,20.7932026 20.8030825,23.2326032 17.8,23.26 L17.8,23.26 Z M17.8,15.0499816 C16.6908724,15.0459521 15.688704,15.710959 15.2614515,16.7344998 C14.8341989,17.7580405 15.0661469,18.9381998 15.8489887,19.7239091 C16.6318304,20.5096184 17.8111338,20.7458799 18.8362298,20.3223726 C19.8613259,19.8988652 20.53,18.899135 20.53,17.79 C20.53,16.2806364 19.3093535,15.0555086 17.8,15.0499816 L17.8,15.0499816 Z"/>
      <circle cx="41.06" cy="27.37" r="4.11" fill="#EFD358"/>
      <path fill="#FFF" d="M41.06,32.84 C38.0390024,32.84 35.59,30.3909976 35.59,27.37 C35.59,24.3490024 38.0390024,21.9 41.06,21.9 C44.0809976,21.9 46.53,24.3490024 46.53,27.37 C46.53,30.3909976 44.0809976,32.84 41.06,32.84 L41.06,32.84 Z M41.06,24.63 C39.5467398,24.63 38.32,25.8567398 38.32,27.37 C38.32,28.8832602 39.5467398,30.11 41.06,30.11 C42.5732602,30.11 43.8,28.8832602 43.8,27.37 C43.8,25.8567398 42.5732602,24.63 41.06,24.63 L41.06,24.63 Z"/>
      <circle cx="28.74" cy="42.42" r="4.11" fill="#EFD358"/>
      <path fill="#FFF" d="M28.74,47.9000091 C25.7147875,47.8944795 23.2663254,45.4385608 23.2699999,42.4133455 C23.2736827,39.3881302 25.7281102,36.9381733 28.7533273,36.9400091 C31.7785443,36.9418469 34.23,39.3947824 34.23,42.42 C34.23,43.8751206 33.6512744,45.2704977 32.6214112,46.298485 C31.5915481,47.3264723 30.1951182,47.9026553 28.74,47.9000091 L28.74,47.9000091 Z M28.74,39.6899817 C27.630865,39.6899817 26.6311348,40.3586741 26.2076274,41.3837702 C25.7841201,42.4088662 26.0203816,43.5881696 26.8060909,44.3710113 C27.5918002,45.1538531 28.7719595,45.3858011 29.7955002,44.9585485 C30.819041,44.531296 31.4840479,43.5291276 31.4800184,42.42 C31.4800184,41.694223 31.1910084,40.9983171 30.6768692,40.4860543 C30.1627301,39.9737916 29.4657721,39.6873415 28.74,39.6899817 L28.74,39.6899817 Z"/>
    </g>
  </g>
</svg>
