<svg xmlns="http://www.w3.org/2000/svg" xmlns:xlink="http://www.w3.org/1999/xlink" width="72" height="72" viewBox="0 0 72 72">
  <defs>
    <linearGradient id="bp-ext-c" x1="0%" x2="100%" y1="0%" y2="100%">
      <stop offset="0%" stop-color="#D43F8D"/>
      <stop offset="100%" stop-color="#3A76FC"/>
    </linearGradient>
    <rect id="bp-ext-b" width="72" height="72" x="0" y="0" rx="36"/>
    <filter id="bp-ext-a" width="112.5%" height="112.5%" x="-6.3%" y="-6.2%" filterUnits="objectBoundingBox">
      <feMorphology in="SourceAlpha" operator="dilate" radius=".5" result="shadowSpreadOuter1"/>
      <feOffset in="shadowSpreadOuter1" result="shadowOffsetOuter1"/>
      <feGaussianBlur in="shadowOffsetOuter1" result="shadowBlurOuter1" stdDeviation="1"/>
      <feColorMatrix in="shadowBlurOuter1" values="0 0 0 0 0   0 0 0 0 0   0 0 0 0 0  0 0 0 0.05 0"/>
    </filter>
  </defs>
  <g fill="none" fill-rule="evenodd">
    <use fill="#000" filter="url(#bp-ext-a)" xlink:href="#bp-ext-b"/>
    <use fill="url(#bp-ext-c)" xlink:href="#bp-ext-b"/>
    <path fill="#FFF" fill-rule="nonzero" d="M33.3014166,51.347915 C34.5988405,51.347915 35.8227382,51.0286812 36.9722693,50.388935 C38.1213803,49.749615 39.1141954,48.8933524 39.9486138,47.8214259 C40.782612,46.7490732 41.4405674,45.5360702 41.9228998,44.1819904 C42.4043922,42.8279107 42.6459786,41.4171446 42.6459786,39.9496921 C42.6459786,38.1442524 42.3489323,36.7334864 41.7561002,35.7182462 C41.162428,34.7021537 39.9292869,34.2380073 38.335657,34.2380073 C37.815931,34.2380073 37.2785589,34.2887267 36.4441405,34.4766868 C35.6097221,34.6654993 34.8900046,35.0559107 34.2228061,35.6572977 L30.5960691,51.1356608 C31.6687126,51.326178 32.0401254,51.347915 32.3001986,51.347915 L33.3014166,51.347915 L33.3014166,51.347915 Z M40.5322026,27.1978158 C42.3123792,27.1978158 43.8505493,27.5179019 45.1492338,28.1572219 C46.4466578,28.7969681 47.5218222,29.6617548 48.3751474,30.7524348 C49.2276323,31.8439672 49.8578578,33.1221809 50.2662437,34.5896334 C50.6737894,36.0566596 50.8784027,37.6366324 50.8784027,39.3291256 C50.8784027,41.9247646 50.4057336,44.3793272 49.4599754,46.6928131 C48.5142171,49.006299 47.2256163,51.0188784 45.594173,52.730551 C43.9618891,54.4426499 42.0342397,55.7967297 39.8091238,56.7927902 C37.5844283,57.7892769 35.1736061,58.2883728 32.5783379,58.2883728 C32.2447386,58.2883728 31.6607298,58.2785699 30.8263114,58.2602427 C29.991893,58.2406368 29.0364712,58.1562465 27.9613067,58.0062195 C26.8857221,57.85534 25.7454342,57.6298731 24.5408634,57.3289665 C23.3350322,57.0284862 22.1951646,56.6150592 21.12,56.0878332 L30.7427014,15.0660797 L39.364605,13.712 L35.9580266,28.2505627 C36.6991717,27.9121492 37.3983018,27.6687814 38.1407072,27.4799689 C38.8818523,27.2920089 39.6788773,27.1978158 40.5322026,27.1978158 L40.5322026,27.1978158 Z"/>
  </g>
</svg>
