<svg xmlns="http://www.w3.org/2000/svg" width="64" height="64" viewBox="0 0 64 64"><defs><style>.a{fill:#1ec677;}.b{fill:#fff;}</style></defs><path class="a" d="M64,52.8A11.182,11.182,0,0,1,52.8,64H11.2A11.182,11.182,0,0,1,0,52.8V11.2A11.182,11.182,0,0,1,11.2,0H52.8A11.182,11.182,0,0,1,64,11.2Z"/><path class="b" d="M35.136,51.864a23.338,23.338,0,0,0,14.23-4.647V38c-4.153,3.282-9.032,5.17-13.36,5.17-6.912,0-11.762-4.763-11.762-11.617,0-6.505,4.414-11.036,10.716-11.036a20.781,20.781,0,0,1,5.72,1.045,22.543,22.543,0,0,0,6.4,1.162,14.993,14.993,0,0,0,2.265-.174V13.8c-.64.058-1.25.116-1.888.116a29.439,29.439,0,0,1-6.215-.842,32.409,32.409,0,0,0-7.057-.93A19.63,19.63,0,0,0,20.477,17.43,19.6,19.6,0,0,0,14.64,32.01c0,11.7,8.422,19.864,20.5,19.864Z"/></svg>