<svg xmlns="http://www.w3.org/2000/svg" xmlns:xlink="http://www.w3.org/1999/xlink" width="500" height="500" viewBox="0 0 500 500">
  <defs>
    <circle id="lockheed-martin-a" cx="250" cy="250" r="250"/>
  </defs>
  <g fill="none" fill-rule="evenodd">
    <mask id="lockheed-martin-b" fill="#fff">
      <use xlink:href="#lockheed-martin-a"/>
    </mask>
    <use fill="#004691" xlink:href="#lockheed-martin-a"/>
    <g fill="#FFF" fill-rule="nonzero" mask="url(#lockheed-martin-b)">
      <g transform="translate(-382 80)">
        <path d="M609.5375 339.665625C608.64375 341.00625 608.64375 341.9 609.5375 339.665625M496.925 222.584375C495.1375 224.371875 495.1375 224.371875 496.925 222.584375"/>
        <path d="M811.525,133.65625 L665.84375,133.65625 C685.059375,61.709375 702.4875,0.4875 702.4875,0.4875 C702.4875,0.4875 636.796875,70.646875 578.703125,133.65625 L0.446875,134.996875 C0.446875,134.996875 0.89375,134.996875 0.89375,134.996875 L0.446875,134.996875 L563.95625,149.296875 C520.609375,195.325 497.81875,221.690625 496.925,222.584375 L497.371875,222.584375 C499.159375,220.796875 577.3625,149.74375 577.3625,149.74375 L646.18125,151.53125 L635.903125,205.603125 L313.70625,387.48125 C312.8125,387.928125 312.365625,388.375 312.365625,388.375 C312.365625,388.375 567.53125,254.3125 631.88125,221.690625 C631.88125,221.690625 609.090625,339.665625 609.090625,340.1125 C609.090625,340.1125 609.090625,340.1125 609.090625,339.665625 L609.090625,340.1125 L609.5375,338.771875 C611.771875,331.175 625.178125,284.7 643.5,215.88125 C727.959375,172.98125 811.525,133.65625 811.525,133.65625 M660.48125,73.775 L648.8625,134.103125 L594.34375,134.103125 L660.48125,73.775 Z M660.928125,151.53125 L727.5125,153.31875 L648.415625,198.00625 C652.4375,182.365625 656.459375,167.61875 660.928125,151.53125"/>
      </g>
    </g>
  </g>
</svg>
