<svg width="292" height="292" viewBox="0 0 292 292" fill="none" xmlns="http://www.w3.org/2000/svg">
<circle cx="146" cy="146" r="146" fill="#252628"/>
<path d="M53 88.6528H79.7571C88.7862 88.6528 95.558 91.0769 100.073 95.925C104.587 100.773 106.844 107.88 106.844 117.246V128.65C106.844 138.016 104.587 145.123 100.073 149.971C95.558 154.819 88.7862 157.243 79.7571 157.243H71.1684V204.347H53V88.6528ZM79.7571 140.715C82.7301 140.715 84.9323 139.889 86.3637 138.236C87.9053 136.583 88.6761 133.774 88.6761 129.807V116.089C88.6761 112.122 87.9053 109.312 86.3637 107.66C84.9323 106.007 82.7301 105.181 79.7571 105.181H71.1684V140.715H79.7571Z" fill="white"/>
<path d="M142.973 206C134.054 206 127.228 203.466 122.493 198.397C117.758 193.329 115.391 186.167 115.391 176.911V116.089C115.391 106.833 117.758 99.6713 122.493 94.6028C127.228 89.5343 134.054 87 142.973 87C151.892 87 158.719 89.5343 163.454 94.6028C168.189 99.6713 170.556 106.833 170.556 116.089V176.911C170.556 186.167 168.189 193.329 163.454 198.397C158.719 203.466 151.892 206 142.973 206ZM142.973 189.472C149.25 189.472 152.388 185.671 152.388 178.068V114.932C152.388 107.329 149.25 103.528 142.973 103.528C136.697 103.528 133.559 107.329 133.559 114.932V178.068C133.559 185.671 136.697 189.472 142.973 189.472Z" fill="white"/>
<path d="M182.843 88.6528H210.261C219.62 88.6528 226.447 90.8565 230.742 95.2639C235.036 99.5611 237.183 106.227 237.183 115.262V119.89C237.183 125.84 236.192 130.688 234.21 134.435C232.338 138.181 229.42 140.881 225.456 142.533V142.864C234.485 145.949 239 153.993 239 166.994V176.911C239 185.836 236.633 192.668 231.898 197.406C227.273 202.033 220.446 204.347 211.417 204.347H182.843V88.6528ZM208.114 135.757C211.747 135.757 214.445 134.82 216.207 132.947C218.079 131.074 219.015 127.934 219.015 123.526V117.081C219.015 112.894 218.244 109.863 216.702 107.99C215.271 106.117 212.959 105.181 209.765 105.181H201.012V135.757H208.114ZM211.417 187.819C214.61 187.819 216.978 186.993 218.519 185.34C220.061 183.577 220.832 180.602 220.832 176.415V166.333C220.832 161.044 219.896 157.408 218.024 155.425C216.262 153.331 213.289 152.285 209.105 152.285H201.012V187.819H211.417Z" fill="white"/>
</svg>
