<?xml version="1.0" encoding="UTF-8" standalone="no"?>
<!DOCTYPE svg PUBLIC "-//W3C//DTD SVG 1.1//EN" "http://www.w3.org/Graphics/SVG/1.1/DTD/svg11.dtd">
<svg width="100%" height="100%" viewBox="0 0 440 533" version="1.1" xmlns="http://www.w3.org/2000/svg" xmlns:xlink="http://www.w3.org/1999/xlink" xml:space="preserve" xmlns:serif="http://www.serif.com/" style="fill-rule:evenodd;clip-rule:evenodd;stroke-linejoin:round;stroke-miterlimit:2;">
    <g transform="matrix(0.998681,0,0,0.998681,-379.208,-133.157)">
        <g transform="matrix(1,0,0,1,0.00231884,0)">
            <path d="M587.152,246.145C580.567,292.499 575.303,331.525 565.819,392.301C591.442,391.745 649.599,401.948 662.399,318.887C672.996,249.786 625.761,243.386 587.152,246.145Z" style="fill:url(#_Linear1);"/>
        </g>
        <g transform="matrix(1,0,0,1,0.00231884,0)">
            <path d="M809.066,580.313C819.037,602.504 808.996,630.562 788.196,641.855C776.254,648.348 762.619,654.377 749.008,657.762C726.536,663.13 703.56,666.115 680.463,666.667C643.523,666.667 606.492,645.519 590.538,619.78C586.41,628.661 571.523,646.516 545.437,654.91C528.95,660.243 509.077,666.667 467.593,666.62C430.422,666.597 409.228,649.739 398.028,635.594C380.173,613.101 377.552,584.533 381.031,565.287L381.216,564.359C395.245,493.983 414.422,366.029 423.257,301.913L423.35,301.287C425.761,283.501 428.219,265.716 429.68,247.814C430.399,238.794 430.886,229.728 430.979,220.684C431.071,212.128 430.283,203.594 430.352,195.038C430.445,186.968 431.744,178.806 435.523,171.664C441.668,160.139 452.915,151.049 464.81,147.084C477.866,142.725 491.5,140.986 505.066,139.409C518.935,137.747 532.835,136.355 546.758,135.235C563.735,133.987 580.751,133.353 597.773,133.333C626.897,133.31 656.208,133.797 684.915,139.71C714.155,145.739 743.697,157.264 766.77,177.461C782.584,191.304 795.129,208.765 804.567,227.872C812.822,244.707 816.184,262.423 818.179,275.965C821.727,300.269 820.792,325.019 815.419,348.986C811.176,366.46 804.019,383.095 794.248,398.191C783.257,415.258 769.158,430.748 751.187,445.496C762.132,477.264 790.654,539.316 809.066,580.313ZM481.97,198.261C482.666,210.041 482.758,221.913 482.248,233.739C481.738,245.82 480.694,257.855 479.35,269.867C478.028,281.832 476.428,293.751 474.805,305.67L474.271,309.565C469.17,346.829 463.79,384.046 458.155,421.194C452.219,460.243 445.564,499.084 438.909,537.971C435.825,556.104 428.892,579.339 438.376,596.638C446.816,612.081 468.474,613.959 483.57,612.406C538.55,606.794 547.292,594.574 547.292,594.574C536.323,582.423 545.854,527.049 556.892,452.614L595.964,452.614L636.868,576.325C636.868,576.325 648.926,614.655 682.434,612.8C725.355,610.435 756.938,600.626 761.483,595.177C748.266,587.803 710.468,493.287 689.877,423.884C699.848,417.809 709.518,411.2 718.631,403.803C731.083,393.646 742.631,381.936 751.466,368.186C757.819,358.307 762.666,347.432 765.448,335.884C766.909,329.786 767.721,323.409 768.231,317.171C769.158,306.18 768.81,295.049 767.21,284.151C765.68,273.67 763.384,262.006 758.7,252.545C750.005,234.852 737.692,219.409 720.903,209.53C692.567,192.881 659.918,189.704 628.08,187.965C593.551,186.045 558.92,187.178 524.59,191.351C520.741,191.814 481.808,195.246 481.97,198.261Z" style="fill:url(#_Linear2);"/>
        </g>
    </g>
    <defs>
        <linearGradient id="_Linear1" x1="0" y1="0" x2="1" y2="0" gradientUnits="userSpaceOnUse" gradientTransform="matrix(481.129,-495.184,495.184,481.129,30.1179,598.033)"><stop offset="0" style="stop-color:rgb(13,89,236);stop-opacity:1"/><stop offset="0.11" style="stop-color:rgb(13,89,236);stop-opacity:1"/><stop offset="0.74" style="stop-color:rgb(0,143,225);stop-opacity:1"/><stop offset="1" style="stop-color:rgb(32,175,255);stop-opacity:1"/></linearGradient>
        <linearGradient id="_Linear2" x1="0" y1="0" x2="1" y2="0" gradientUnits="userSpaceOnUse" gradientTransform="matrix(481.129,-495.184,495.184,481.129,30.1179,598.033)"><stop offset="0" style="stop-color:rgb(13,89,236);stop-opacity:1"/><stop offset="0.11" style="stop-color:rgb(13,89,236);stop-opacity:1"/><stop offset="0.74" style="stop-color:rgb(0,143,225);stop-opacity:1"/><stop offset="1" style="stop-color:rgb(32,175,255);stop-opacity:1"/></linearGradient>
    </defs>
</svg>
