<svg xmlns="http://www.w3.org/2000/svg" xmlns:xlink="http://www.w3.org/1999/xlink" width="16" height="16" viewBox="0 0 16 16">
  <defs>
    <path id="bank-of-america-a" d="M8,16 C12.41824,16 16,12.41824 16,8 C16,3.58172 12.41824,0 8,0 C3.58172,0 0,3.58172 0,8 C0,12.41824 3.58172,16 8,16 Z"/>
  </defs>
  <g fill="none" fill-rule="evenodd">
    <mask id="bank-of-america-b" fill="#fff">
      <use xlink:href="#bank-of-america-a"/>
    </mask>
    <g mask="url(#bank-of-america-b)">
      <rect width="16" height="16" fill="#DC1431" fill-rule="nonzero"/>
      <path fill="#FFF" d="M11 5.90909091C9.93730129 5.45397081 8.84364541 5.07483677 7.72727273 4.77454545 7.36363636 4.84727273 7.01818182 4.92727273 6.66909091 5.01818182 7.7721686 5.33510774 8.8492756 5.73628754 9.89090909 6.21818182 10.2545455 6.10666667 10.6181818 6.00363636 10.9818182 5.90909091M13.7018182 6.80363636C11.0796026 7.67177733 8.59688309 8.91497434 6.33090909 10.4945455 6.89090909 10.8339394 7.43757576 11.1975758 7.97090909 11.5854545 10.1055327 9.91587579 12.4566373 8.54337869 14.96 7.50545455 14.5454545 7.2630303 14.1260606 7.02909091 13.7018182 6.80363636M6.57818182 6.45454545C6.98545455 6.61090909 7.38545455 6.78181818 7.78545455 6.96363636 6.53006896 7.46629473 5.31448341 8.06314724 4.14909091 8.74909091 3.75636364 8.54545455 3.35636364 8.35272727 2.94909091 8.17454545 4.1135644 7.50546262 5.32953975 6.93030628 6.58545455 6.45454545M5.07272727 5.93090909C3.76696078 6.33794609 2.50401121 6.87138091 1.30181818 7.52363636 1.66545455 7.65818182 2.06181818 7.80363636 2.43636364 7.95636364 3.60203407 7.28264831 4.8279377 6.71900047 6.09818182 6.27272727 5.76121212 6.14909091 5.42060606 6.03515152 5.07636364 5.93090909M9.31636364 6.40363636C8.28149172 5.91161254 7.21048639 5.49950039 6.11272727 5.17090909 5.72727273 5.28 5.34181818 5.4 4.96 5.53454545 6.09049877 5.86287622 7.19331761 6.27992899 8.25818182 6.78181818 8.62181818 6.65090909 8.96 6.52363636 9.31636364 6.41818182M4.21090909 9.34545455C4.73454545 9.58787879 5.24969697 9.85939394 5.75636364 10.16 8.06576219 8.58859519 10.6050816 7.3851786 13.2836364 6.59272727 12.8230303 6.36484848 12.3551515 6.15151515 11.88 5.95272727 9.15729711 6.6623599 6.56743177 7.80808981 4.21090909 9.34545455L4.21090909 9.34545455z"/>
    </g>
  </g>
</svg>
