<svg xmlns="http://www.w3.org/2000/svg" xmlns:xlink="http://www.w3.org/1999/xlink" width="56" height="56" viewBox="0 0 56 56">
  <defs>
    <path id="amex-a" d="M28,-3.55271368e-15 C43.463973,-3.55271368e-15 56,12.536027 56,28 C56,43.463973 43.463973,56 28,56 C12.536027,56 -3.55271368e-15,43.463973 -3.55271368e-15,28 C-3.55271368e-15,12.536027 12.536027,-3.55271368e-15 28,-3.55271368e-15 Z"/>
  </defs>
  <g fill="none" fill-rule="evenodd">
    <mask id="amex-b" fill="#fff">
      <use xlink:href="#amex-a"/>
    </mask>
    <use fill="#016FD0" fill-rule="nonzero" xlink:href="#amex-a"/>
    <g mask="url(#amex-b)">
      <g transform="translate(13.11 9.263)">
        <polyline fill="#FFF" points="7.175 37.877 7.175 17.81 42.89 17.843 42.89 23.386 38.761 27.796 42.89 32.249 42.89 37.908 36.299 37.908 32.797 34.044 29.319 37.924 7.175 37.877"/>
        <polyline fill="#016FD0" points="9.561 35.676 9.561 20.018 22.837 20.018 22.837 23.625 13.86 23.625 13.86 26.074 22.624 26.074 22.624 29.621 13.86 29.621 13.86 32.026 22.837 32.026 22.837 35.676 9.561 35.676"/>
        <polyline fill="#016FD0" points="22.772 35.676 30.117 27.838 22.772 20.019 28.457 20.019 32.946 24.981 37.448 20.019 42.89 20.019 42.89 20.142 35.7 27.838 42.89 35.455 42.89 35.676 37.393 35.676 32.825 30.664 28.303 35.676 22.772 35.676"/>
        <polyline fill="#FFF" points="8.841 0 17.45 0 20.474 6.866 20.474 0 31.103 0 32.935 5.144 34.774 0 42.89 0 42.89 20.065 0 20.065 8.841 0"/>
        <path fill="#016FD0" d="M10.4720485,2.18020818 L3.52430556,17.8244789 L8.28940964,17.8244789 L9.59947924,14.691493 L16.7015626,14.691493 L18.0116319,17.8244789 L22.8946181,17.8244789 L15.9760418,2.18020818 L10.4720485,2.18020818 Z M11.06875,11.1805556 L13.1517363,6.20034707 L15.233507,11.1805556 L11.06875,11.1805556 Z"/>
        <polyline fill="#016FD0" points="22.83 17.822 22.83 2.178 29.528 2.201 32.974 11.819 36.444 2.178 42.89 2.178 42.89 17.822 38.742 17.859 38.742 7.112 34.826 17.822 31.039 17.822 27.042 7.075 27.042 17.822 22.83 17.822"/>
      </g>
    </g>
  </g>
</svg>
