<svg xmlns="http://www.w3.org/2000/svg" width="16" height="16" viewBox="0 0 16 16">
  <g fill="none">
    <circle cx="8" cy="8" r="8" fill="#2775CA"/>
    <path fill="#FFF" d="M8.71926548,12.6875 C8.71926548,12.859375 8.56833452,13 8.38386335,13 L7.71305908,13 C7.5285879,13 7.37765694,12.859375 7.37765694,12.6875 L7.37765694,11.703125 C5.9102726,11.515625 5.19754306,10.7578125 5.00468684,9.7109375 C4.97114662,9.53125 5.12207758,9.375 5.31493381,9.375 L6.07797367,9.375 C6.23728968,9.375 6.37145054,9.484375 6.40499075,9.625 C6.54753666,10.2421875 6.93324911,10.71875 8.10715659,10.71875 C8.97081708,10.71875 9.59131103,10.265625 9.59131103,9.59375 C9.59131103,8.921875 9.23075374,8.6640625 7.95622562,8.46875 C6.07797367,8.234375 5.18915801,7.703125 5.18915801,6.3359375 C5.18915801,5.28125 6.05281851,4.453125 7.37765694,4.28125 L7.37765694,3.3125 C7.37765694,3.140625 7.5285879,3 7.71305908,3 L8.38386335,3 C8.56833452,3 8.71926548,3.140625 8.71926548,3.3125 L8.71926548,4.3046875 C9.80093737,4.484375 10.4885117,5.0546875 10.7149082,6.0078125 C10.7568335,6.1875 10.6059025,6.3515625 10.4046612,6.3515625 L9.70031673,6.3515625 C9.54938577,6.3515625 9.42360997,6.2578125 9.3816847,6.125 C9.18882847,5.5234375 8.72765054,5.2578125 7.92268541,5.2578125 C7.03386975,5.2578125 6.57269182,5.65625 6.57269182,6.21875 C6.57269182,6.8125 6.83262847,7.109375 8.19939217,7.2890625 C10.0441039,7.5234375 11,8.015625 11,9.4765625 C11,10.5859375 10.1111843,11.484375 8.72765054,11.6875 L8.72765054,12.6875 L8.71926548,12.6875 Z"/>
  </g>
</svg>
