<svg xmlns="http://www.w3.org/2000/svg" xmlns:xlink="http://www.w3.org/1999/xlink" width="16" height="16" viewBox="0 0 16 16">
  <defs>
    <path id="wells-fargo-a" d="M8,16 C12.41824,16 16,12.41824 16,8 C16,3.58172 12.41824,0 8,0 C3.58172,0 0,3.58172 0,8 C0,12.41824 3.58172,16 8,16 Z"/>
    <linearGradient id="wells-fargo-c" x1="0%" x2="100%" y1="100%" y2="0%">
      <stop offset="0%" stop-color="#79000E"/>
      <stop offset="75%" stop-color="#E61B27"/>
    </linearGradient>
  </defs>
  <g fill="none" fill-rule="evenodd">
    <mask id="wells-fargo-b" fill="#fff">
      <use xlink:href="#wells-fargo-a"/>
    </mask>
    <g mask="url(#wells-fargo-b)">
      <polygon fill="url(#wells-fargo-c)" points="0 0 16 0 16 16 0 16"/>
      <path fill="#FCC60A" d="M9.8354993,5.6 L7.41277866,5.6 L7.41277866,6.2183706 L7.80318279,6.2183706 C8.09229412,6.2183706 8.16451427,6.34296766 8.16451427,6.46133487 C8.15383036,6.56056431 8.12952857,6.6578491 8.09229412,6.7504462 L7.05398527,9.71677921 L6.1605782,6.67245767 C6.12781378,6.5785484 6.10381731,6.48163958 6.08835805,6.38334634 C6.08835805,6.2850531 6.1605782,6.21260222 6.33109158,6.21260222 L6.76487394,6.21260222 L6.76487394,5.60576838 L4.31907977,5.60576838 L4.31907977,6.21860134 L4.4983611,6.21860134 C4.71802111,6.18329884 4.92868243,6.32104781 4.98405891,6.53655458 L5.1284992,6.92418988 L4.13679889,9.77769333 L3.10771945,6.7190662 C3.06549489,6.62815649 3.04080622,6.52986326 3.0354993,6.42995487 C3.04768058,6.30709028 3.15528675,6.21614109 3.27846357,6.22460045 L3.63148858,6.22460045 L3.63148858,5.60622985 L1.2,5.60622985 L1.2,6.21906281 L1.31536765,6.21906281 C1.60447898,6.21906281 1.72884531,6.29128296 1.80106545,6.50817414 L3.33914696,11.030586 L4.49559228,11.030586 L5.48729259,8.22530623 L6.35485732,11.0324319 L7.49099793,11.0324319 L8.9857012,6.7190662 C9.06368973,6.39603678 9.36964474,6.18191442 9.69982695,6.21883207 L10.1970615,6.21883207 C10.4400258,6.21883207 10.5846968,6.33743002 10.5846968,6.53401649 L10.5846968,10.0319636 C10.5911392,10.1294247 10.5584513,10.2254313 10.4938755,10.2987124 C10.4292998,10.3719936 10.3381677,10.4164989 10.2406705,10.4223678 C10.2166922,10.4253936 10.1924286,10.4253936 10.1684503,10.4223678 L9.67121577,10.4223678 L9.67121577,11.0815785 L12.6776967,11.0815785 L12.6776967,10.4747447 L12.2642191,10.4747447 C11.8738149,10.4747447 11.7293746,10.3561467 11.7293746,10.0584982 L11.7293746,8.53218418 L12.0754776,8.53218418 C12.5814801,8.53218418 12.7981405,8.75184419 12.7981405,9.33006685 L12.7981405,9.50081097 L13.3763632,9.50081097 L13.3763632,7.00886974 L12.7958332,7.00886974 L12.7958332,7.1334668 C12.7958332,7.56724916 12.6513929,7.95442299 12.1366224,7.95442299 L11.7582166,7.95442299 L11.7582166,6.21975501 L12.8195989,6.21975501 C14.0309592,6.21975501 14.1347901,6.8242815 14.2217773,7.47726239 L14.8,7.47726239 L14.8,5.60092294 L9.8354993,5.6 Z"/>
    </g>
  </g>
</svg>
