<svg xmlns="http://www.w3.org/2000/svg" xmlns:xlink="http://www.w3.org/1999/xlink" width="800.059" height="362" viewBox="0 0 800.059 362"><defs><style>.a{fill:#fff;}.b{fill:#202036;}.c{fill:#565d6d;}.d{fill:#ee2842;}.e{fill:#ef476f;}.f{fill:#44c8f5;}.g{fill:#7f7f7f;opacity:0.8;}.h{filter:url(#e);}.i{filter:url(#c);}.j{filter:url(#a);}</style><filter id="a" x="390" y="0" width="410" height="360" filterUnits="userSpaceOnUse"><feOffset dy="3" input="SourceAlpha"/><feGaussianBlur stdDeviation="10" result="b"/><feFlood flood-opacity="0.071"/><feComposite operator="in" in2="b"/><feComposite in="SourceGraphic"/></filter><filter id="c" x="631.465" y="0" width="168.594" height="150.352" filterUnits="userSpaceOnUse"><feOffset dy="3" input="SourceAlpha"/><feGaussianBlur stdDeviation="10" result="d"/><feFlood flood-opacity="0.071"/><feComposite operator="in" in2="d"/><feComposite in="SourceGraphic"/></filter><filter id="e" x="0" y="2" width="410" height="360" filterUnits="userSpaceOnUse"><feOffset dy="5" input="SourceAlpha"/><feGaussianBlur stdDeviation="10" result="f"/><feFlood flood-opacity="0.078"/><feComposite operator="in" in2="f"/><feComposite in="SourceGraphic"/></filter></defs><g transform="translate(-9608 -2588)"><g transform="translate(9821 1105)"><g class="j" transform="matrix(1, 0, 0, 1, -213, 1483)"><rect class="a" width="350" height="300" rx="10" transform="translate(420 27)"/></g><path class="b" d="M25.508-28.437V0H20.469V-12.6H7.91V0H2.852V-28.437H7.91v11.8H20.469v-11.8Zm4.434,17.676a12.528,12.528,0,0,1,1.182-5.527,9.113,9.113,0,0,1,3.408-3.838,9.645,9.645,0,0,1,5.234-1.4,9.769,9.769,0,0,1,5.283,1.4,9.092,9.092,0,0,1,3.418,3.838,12.528,12.528,0,0,1,1.182,5.527v.41a12.528,12.528,0,0,1-1.182,5.527A9.049,9.049,0,0,1,45.059-1,9.734,9.734,0,0,1,39.8.391,9.784,9.784,0,0,1,34.541-1a9.028,9.028,0,0,1-3.418-3.828,12.528,12.528,0,0,1-1.182-5.527Zm4.863.41a8.847,8.847,0,0,0,1.25,4.922A4.18,4.18,0,0,0,39.8-3.516a4.283,4.283,0,0,0,2.783-.908,5.31,5.31,0,0,0,1.66-2.451,10.534,10.534,0,0,0,.537-3.477v-.41a10.557,10.557,0,0,0-.537-3.467,5.338,5.338,0,0,0-1.67-2.471,4.323,4.323,0,0,0-2.812-.918,4.215,4.215,0,0,0-2.773.918,5.405,5.405,0,0,0-1.65,2.471,10.557,10.557,0,0,0-.537,3.467ZM61.738-3.633a7.666,7.666,0,0,0,1.66-.2v3.75a9.975,9.975,0,0,1-3.164.469,5.62,5.62,0,0,1-4.062-1.426,6.074,6.074,0,0,1-1.484-4.551V-17.539H51.25v-3.594h3.438v-5.156h4.863v5.156h3.711v3.594H59.551V-5.918A2.347,2.347,0,0,0,60.1-4.111,2.432,2.432,0,0,0,61.738-3.633Zm22.969-5.41H70.938a6.98,6.98,0,0,0,.84,2.871,5.131,5.131,0,0,0,1.9,1.953,5.446,5.446,0,0,0,2.8.7,6.337,6.337,0,0,0,5.273-2.578l2.6,2.52a9.083,9.083,0,0,1-3.2,2.832A10.122,10.122,0,0,1,76.191.391,10.545,10.545,0,0,1,70.8-.947a9.068,9.068,0,0,1-3.535-3.662,10.971,10.971,0,0,1-1.23-5.215v-.8a12.535,12.535,0,0,1,1.25-5.732,9.291,9.291,0,0,1,3.438-3.818,9.194,9.194,0,0,1,4.922-1.348,9.084,9.084,0,0,1,5.02,1.309A7.952,7.952,0,0,1,83.7-16.553a13.8,13.8,0,0,1,1.006,5.459ZM79.9-12.93A5.835,5.835,0,0,0,78.789-16.3a3.742,3.742,0,0,0-3.164-1.318,3.916,3.916,0,0,0-3.086,1.328,6.952,6.952,0,0,0-1.5,3.73H79.9ZM88.633,0V-30H93.5V0ZM105.9-8.828a14.16,14.16,0,0,1-5.605-2.246A4.77,4.77,0,0,1,98.32-15.1a5.586,5.586,0,0,1,1.006-3.213,6.9,6.9,0,0,1,2.871-2.344,10.093,10.093,0,0,1,4.307-.869,10.8,10.8,0,0,1,4.521.879,6.944,6.944,0,0,1,2.959,2.412,6.021,6.021,0,0,1,1.035,3.447h-4.863a3,3,0,0,0-.42-1.553,3.022,3.022,0,0,0-1.24-1.143,4.249,4.249,0,0,0-1.992-.43,3.917,3.917,0,0,0-2.559.742,2.311,2.311,0,0,0-.9,1.855,1.878,1.878,0,0,0,.381,1.191,3.215,3.215,0,0,0,1.318.879,15.24,15.24,0,0,0,2.6.742,20.612,20.612,0,0,1,4.277,1.328,6.552,6.552,0,0,1,2.617,2.031,5.138,5.138,0,0,1,.918,3.125,5.507,5.507,0,0,1-1.064,3.32A6.874,6.874,0,0,1,111.074-.42a11.7,11.7,0,0,1-4.512.811,10.627,10.627,0,0,1-4.8-1.016,7.648,7.648,0,0,1-3.086-2.637A6.168,6.168,0,0,1,97.617-6.68h4.707a3.117,3.117,0,0,0,1.318,2.617,5.22,5.22,0,0,0,3,.84,4.752,4.752,0,0,0,2.764-.693,2.151,2.151,0,0,0,.986-1.846,2.236,2.236,0,0,0-.352-1.27,3.131,3.131,0,0,0-1.338-.977A13.634,13.634,0,0,0,105.9-8.828Zm16.387,3.711a2.771,2.771,0,0,1,2.051.762,2.62,2.62,0,0,1,.762,1.934,2.563,2.563,0,0,1-.762,1.9,2.792,2.792,0,0,1-2.051.752,2.818,2.818,0,0,1-2.07-.752,2.563,2.563,0,0,1-.762-1.9,2.62,2.62,0,0,1,.762-1.934A2.8,2.8,0,0,1,122.285-5.117Zm25.586-1.914a6.789,6.789,0,0,1-1.23,3.73,8.3,8.3,0,0,1-3.125,2.7,9.277,9.277,0,0,1-4.277,1,9.607,9.607,0,0,1-5.322-1.406,8.615,8.615,0,0,1-3.252-3.818,13.134,13.134,0,0,1-1.074-5.4V-10.9a13.032,13.032,0,0,1,1.084-5.4,8.7,8.7,0,0,1,3.252-3.818,9.521,9.521,0,0,1,5.293-1.406,9.571,9.571,0,0,1,4.463,1.006,7.479,7.479,0,0,1,3.037,2.822,8.321,8.321,0,0,1,1.152,4.16h-4.59a4.743,4.743,0,0,0-.566-2.061A3.851,3.851,0,0,0,141.3-17.07a4.066,4.066,0,0,0-2.139-.547,3.826,3.826,0,0,0-3.652,1.895,9.84,9.84,0,0,0-1.055,4.824v.664q0,6.719,4.727,6.719a4.559,4.559,0,0,0,2.031-.449,3.71,3.71,0,0,0,1.465-1.25,3.517,3.517,0,0,0,.605-1.816Zm2.656-3.73a12.528,12.528,0,0,1,1.182-5.527,9.113,9.113,0,0,1,3.408-3.838,9.645,9.645,0,0,1,5.234-1.4,9.769,9.769,0,0,1,5.283,1.4,9.092,9.092,0,0,1,3.418,3.838,12.528,12.528,0,0,1,1.182,5.527v.41a12.528,12.528,0,0,1-1.182,5.527A9.049,9.049,0,0,1,165.645-1,9.734,9.734,0,0,1,160.391.391,9.784,9.784,0,0,1,155.127-1a9.028,9.028,0,0,1-3.418-3.828,12.528,12.528,0,0,1-1.182-5.527Zm4.863.41a8.847,8.847,0,0,0,1.25,4.922,4.18,4.18,0,0,0,3.75,1.914,4.283,4.283,0,0,0,2.783-.908,5.31,5.31,0,0,0,1.66-2.451,10.534,10.534,0,0,0,.537-3.477v-.41a10.556,10.556,0,0,0-.537-3.467,5.338,5.338,0,0,0-1.67-2.471,4.323,4.323,0,0,0-2.812-.918,4.215,4.215,0,0,0-2.773.918,5.405,5.405,0,0,0-1.65,2.471,10.556,10.556,0,0,0-.537,3.467Zm41.836-11.172a6.723,6.723,0,0,1,5.137,1.885q1.777,1.885,1.777,5.967V0h-4.863V-13.691a3.982,3.982,0,0,0-.928-3.018,4,4,0,0,0-2.783-.85,3.951,3.951,0,0,0-2.549.82,4.416,4.416,0,0,0-1.455,2.207l.02.449V0h-4.863V-13.633a4.044,4.044,0,0,0-.947-3.027,3.9,3.9,0,0,0-2.783-.9,4.1,4.1,0,0,0-3.965,2.285V0H174.16V-21.133h4.57l.156,2.227a7.126,7.126,0,0,1,2.607-1.943,8.584,8.584,0,0,1,3.486-.674,7.287,7.287,0,0,1,3.477.791,5.288,5.288,0,0,1,2.285,2.432,7.5,7.5,0,0,1,2.715-2.373A8.081,8.081,0,0,1,197.227-21.523Z" transform="translate(237 1673)"/><path class="c" d="M10.391-3.74A3.63,3.63,0,0,1,9.37-1.04,4.554,4.554,0,0,1,6.563.166v1.9H5.01V.166A5.315,5.315,0,0,1,2.988-.449a3.729,3.729,0,0,1-1.46-1.47A4.858,4.858,0,0,1,.977-4.346H3.408a2.487,2.487,0,0,0,.674,1.958,2.428,2.428,0,0,0,1.66.591,2.392,2.392,0,0,0,1.646-.518,1.788,1.788,0,0,0,.581-1.406,1.887,1.887,0,0,0-.527-1.372,4.656,4.656,0,0,0-1.787-.981A11.006,11.006,0,0,1,3.4-7.1,4.14,4.14,0,0,1,2.017-8.477a3.819,3.819,0,0,1-.493-2A3.981,3.981,0,0,1,1.978-12.4,3.519,3.519,0,0,1,3.262-13.75a4.694,4.694,0,0,1,1.943-.635v-2.129H6.768v2.148a3.913,3.913,0,0,1,2.627,1.416,4.864,4.864,0,0,1,.947,3.135H7.91a3.075,3.075,0,0,0-.532-1.914A1.76,1.76,0,0,0,5.9-12.422a1.911,1.911,0,0,0-1.465.522,1.984,1.984,0,0,0-.488,1.411,1.933,1.933,0,0,0,.22.952,2.11,2.11,0,0,0,.728.723A7.4,7.4,0,0,0,6.3-8.154,11.692,11.692,0,0,1,8.555-7.1,4.047,4.047,0,0,1,9.912-5.728,3.864,3.864,0,0,1,10.391-3.74ZM16.494,0V-11.348l-3.467,1.162v-2.031l5.6-2.051h.3V0ZM33.135-5.977Q33.135.2,28.477.2a4.257,4.257,0,0,1-3.452-1.475,7.264,7.264,0,0,1-1.235-4.7V-8.3a7.2,7.2,0,0,1,1.221-4.663,4.257,4.257,0,0,1,3.447-1.45,4.272,4.272,0,0,1,3.452,1.45A7.18,7.18,0,0,1,33.135-8.3ZM30.7-8.662a5.7,5.7,0,0,0-.557-2.925,1.867,1.867,0,0,0-1.689-.874,1.86,1.86,0,0,0-1.675.874,5.659,5.659,0,0,0-.562,2.925v3.027a5.807,5.807,0,0,0,.571,2.964,1.863,1.863,0,0,0,1.685.913,1.831,1.831,0,0,0,1.675-.9A5.973,5.973,0,0,0,30.7-5.635Zm9.668,2.627V-8.008H53.662v1.973ZM69.951-3.74a3.63,3.63,0,0,1-1.021,2.7A4.554,4.554,0,0,1,66.123.166v1.9H64.57V.166a5.315,5.315,0,0,1-2.021-.615,3.729,3.729,0,0,1-1.46-1.47,4.858,4.858,0,0,1-.552-2.427h2.432a2.487,2.487,0,0,0,.674,1.958A2.428,2.428,0,0,0,65.3-1.8a2.392,2.392,0,0,0,1.646-.518,1.788,1.788,0,0,0,.581-1.406A1.887,1.887,0,0,0,67-5.093a4.656,4.656,0,0,0-1.787-.981A11.006,11.006,0,0,1,62.959-7.1a4.14,4.14,0,0,1-1.382-1.377,3.819,3.819,0,0,1-.493-2,3.981,3.981,0,0,1,.454-1.924,3.519,3.519,0,0,1,1.284-1.348,4.694,4.694,0,0,1,1.943-.635v-2.129h1.563v2.148a3.913,3.913,0,0,1,2.627,1.416A4.864,4.864,0,0,1,69.9-9.814H67.471a3.075,3.075,0,0,0-.532-1.914,1.76,1.76,0,0,0-1.479-.693,1.911,1.911,0,0,0-1.465.522,1.984,1.984,0,0,0-.488,1.411,1.933,1.933,0,0,0,.22.952,2.11,2.11,0,0,0,.728.723,7.4,7.4,0,0,0,1.406.659A11.692,11.692,0,0,1,68.115-7.1a4.047,4.047,0,0,1,1.357,1.372A3.864,3.864,0,0,1,69.951-3.74Zm3.438-10.479h7.676v2.08H75.4L75.02-8.779A4.889,4.889,0,0,1,76-9.17a4.41,4.41,0,0,1,1.235-.166,4.394,4.394,0,0,1,2.3.576A3.75,3.75,0,0,1,81.011-7.1a5.9,5.9,0,0,1,.513,2.554A5.466,5.466,0,0,1,81-2.129a3.95,3.95,0,0,1-1.577,1.7A5,5,0,0,1,76.836.2,5.357,5.357,0,0,1,74.58-.278,4.111,4.111,0,0,1,72.9-1.665a4.159,4.159,0,0,1-.723-2.192h2.363A2.439,2.439,0,0,0,75.264-2.3a2.22,2.22,0,0,0,1.563.547,1.981,1.981,0,0,0,1.694-.781,3.422,3.422,0,0,0,.581-2.09,2.975,2.975,0,0,0-.649-2.007A2.305,2.305,0,0,0,76.6-7.393a3.313,3.313,0,0,0-.884.1,2.066,2.066,0,0,0-.615.273,4.832,4.832,0,0,0-.552.454l-1.943-.488ZM92.7-5.977Q92.7.2,88.037.2a4.257,4.257,0,0,1-3.452-1.475,7.264,7.264,0,0,1-1.235-4.7V-8.3a7.2,7.2,0,0,1,1.221-4.663,4.257,4.257,0,0,1,3.447-1.45,4.272,4.272,0,0,1,3.452,1.45A7.18,7.18,0,0,1,92.7-8.3ZM90.264-8.662a5.7,5.7,0,0,0-.557-2.925,1.867,1.867,0,0,0-1.689-.874,1.86,1.86,0,0,0-1.675.874,5.659,5.659,0,0,0-.562,2.925v3.027a5.807,5.807,0,0,0,.571,2.964,1.863,1.863,0,0,0,1.685.913,1.831,1.831,0,0,0,1.675-.9,5.973,5.973,0,0,0,.552-2.974Zm13.818,2.686Q104.082.2,99.424.2a4.257,4.257,0,0,1-3.452-1.475,7.264,7.264,0,0,1-1.235-4.7V-8.3a7.2,7.2,0,0,1,1.221-4.663,4.257,4.257,0,0,1,3.447-1.45,4.272,4.272,0,0,1,3.452,1.45A7.18,7.18,0,0,1,104.082-8.3ZM101.65-8.662a5.7,5.7,0,0,0-.557-2.925,1.867,1.867,0,0,0-1.689-.874,1.86,1.86,0,0,0-1.675.874,5.659,5.659,0,0,0-.562,2.925v3.027a5.807,5.807,0,0,0,.571,2.964,1.863,1.863,0,0,0,1.685.913,1.831,1.831,0,0,0,1.675-.9,5.973,5.973,0,0,0,.552-2.974Z" transform="translate(237 1772)"/><g transform="translate(237 1540)"><circle class="d" cx="32.5" cy="32.5" r="32.5"/><g transform="translate(14 16.938)"><path class="a" d="M10.186,4.012a3.872,3.872,0,0,1,.7-2.212A3.171,3.171,0,0,0,8.6,4.824V7.368h1.586Z" transform="translate(12.256 2.51)"/><path class="a" d="M8.6,14.284a3.19,3.19,0,0,0,2.286,3.042,3.964,3.964,0,0,1-.7-2.249V10.32H8.6v3.964Z" transform="translate(12.256 9.698)"/><path class="a" d="M11.476,10.32H9.89v4.757a3.19,3.19,0,0,0,2.286,3.042,3.964,3.964,0,0,1-.7-2.249V10.338Z" transform="translate(13.344 9.698)"/><path class="a" d="M11.476,3.6a3.872,3.872,0,0,1,.7-2.231A3.171,3.171,0,0,0,9.89,4.375V7.841h1.586Z" transform="translate(13.344 2.147)"/><path class="a" d="M1.936,2A3.982,3.982,0,0,0,0,5.448V20.437a3.945,3.945,0,0,0,1.936,3.392,4.849,4.849,0,0,1-.35-1.844V3.844A4.849,4.849,0,0,1,1.936,2Z" transform="translate(5 2.679)"/><path class="a" d="M2.876,2.994A4.517,4.517,0,0,1,3.244,1.15,3.945,3.945,0,0,0,1.29,4.561V22.813A3.945,3.945,0,0,0,3.89,26.5a4.591,4.591,0,0,1-1.014-2.913V2.994Z" transform="translate(6.088 1.962)"/><path class="a" d="M21.607,1.577a3.171,3.171,0,0,0-3.171,3.171V9.911L10.508,9.5V3.974a3.964,3.964,0,0,0-7.928,0V24.568a3.964,3.964,0,0,0,7.928,0V18.226h7.928v6.342a3.171,3.171,0,0,0,6.342,0V4.748a3.171,3.171,0,0,0-3.171-3.171Z" transform="translate(7.177 1)"/></g></g><g class="i" transform="matrix(1, 0, 0, 1, -213, 1483)"><path class="e" d="M340,0a10,10,0,0,1,10,10c0,6.662.133,74.029,0,80.352C319.629,36.652,286.109,11.962,241.465,0Z" transform="translate(420 27)"/></g><path class="a" d="M2.353-15.641h8.862v2.664H5.006L4.63-9.7a4.6,4.6,0,0,1,1.01-.408,4.636,4.636,0,0,1,1.311-.183,5.077,5.077,0,0,1,2.589.623,4.037,4.037,0,0,1,1.638,1.8,6.535,6.535,0,0,1,.564,2.836,5.754,5.754,0,0,1-.6,2.61A4.6,4.6,0,0,1,9.351-.5a5.609,5.609,0,0,1-2.938.72,6.144,6.144,0,0,1-2.6-.559A4.927,4.927,0,0,1,1.842-1.95a4.175,4.175,0,0,1-.779-2.444H4.286a2.212,2.212,0,0,0,.65,1.466A2.05,2.05,0,0,0,6.4-2.4a1.757,1.757,0,0,0,1.59-.779,3.731,3.731,0,0,0,.5-2.057,2.889,2.889,0,0,0-.607-1.95,2.288,2.288,0,0,0-1.832-.7,2.745,2.745,0,0,0-1.208.226,3.029,3.029,0,0,0-.833.612L1.439-7.681ZM13.428-9.187a2.473,2.473,0,0,1,.289-1.187,2.12,2.12,0,0,1,.836-.852,2.554,2.554,0,0,1,1.289-.312,2.609,2.609,0,0,1,1.309.313,2.068,2.068,0,0,1,.832.848,2.521,2.521,0,0,1,.281,1.191v.6a2.482,2.482,0,0,1-.281,1.18,2.081,2.081,0,0,1-.828.844,2.571,2.571,0,0,1-1.3.313,2.593,2.593,0,0,1-1.3-.312,2.128,2.128,0,0,1-.84-.844,2.428,2.428,0,0,1-.289-1.18Zm1.352.6a1.289,1.289,0,0,0,.277.836.969.969,0,0,0,.8.344.951.951,0,0,0,.785-.344,1.289,1.289,0,0,0,.277-.836v-.6a1.3,1.3,0,0,0-.281-.848.966.966,0,0,0-.8-.348.947.947,0,0,0-.785.348,1.317,1.317,0,0,0-.277.848Zm.477,7.164,5.555-8.891,1,.57L16.256-.852ZM18.9-2.789a2.45,2.45,0,0,1,.289-1.184,2.127,2.127,0,0,1,.836-.848,2.554,2.554,0,0,1,1.289-.312,2.587,2.587,0,0,1,1.3.313,2.1,2.1,0,0,1,.832.848,2.477,2.477,0,0,1,.285,1.184v.609A2.477,2.477,0,0,1,23.447-1a2.107,2.107,0,0,1-.828.848,2.549,2.549,0,0,1-1.293.313,2.593,2.593,0,0,1-1.3-.312A2.12,2.12,0,0,1,19.186-1,2.45,2.45,0,0,1,18.9-2.18Zm1.344.609a1.331,1.331,0,0,0,.129.582,1.062,1.062,0,0,0,.375.434A1.025,1.025,0,0,0,21.326-1a.95.95,0,0,0,.8-.336,1.345,1.345,0,0,0,.258-.844v-.609a1.289,1.289,0,0,0-.281-.844.971.971,0,0,0-.8-.344.962.962,0,0,0-.789.344,1.289,1.289,0,0,0-.281.844Z" transform="translate(524 1540)"/></g><g transform="translate(9431 1105)"><g class="h" transform="matrix(1, 0, 0, 1, 177, 1483)"><rect class="a" width="350" height="300" rx="10" transform="translate(30 27)"/></g><path class="b" d="M18.809-6.523H7.891L5.625,0H.332L11.055-28.437h4.551L26.367,0H21.074Zm-1.426-4.082L13.34-22.266,9.3-10.605Zm30.371-13.75H38.906V0H33.867V-24.355h-8.75v-4.082H47.754ZM68.359,0,66.777-1.875A11,11,0,0,1,63.4-.176a13.171,13.171,0,0,1-3.867.566A11.135,11.135,0,0,1,54.609-.635,7.609,7.609,0,0,1,51.367-3.5a7.8,7.8,0,0,1-1.133-4.18,6.313,6.313,0,0,1,.645-2.881A8.577,8.577,0,0,1,52.637-12.9a25.222,25.222,0,0,1,2.891-2.314,20.3,20.3,0,0,1-2.2-3.35,6.713,6.713,0,0,1-.732-3.018,7.728,7.728,0,0,1,.928-3.867,6.174,6.174,0,0,1,2.637-2.51,8.655,8.655,0,0,1,3.975-.869,7.787,7.787,0,0,1,3.721.859,6.272,6.272,0,0,1,2.49,2.324,6.076,6.076,0,0,1,.879,3.184,6.046,6.046,0,0,1-.986,3.408A11.29,11.29,0,0,1,63.4-16.211L61.465-14.8l5.41,6.387a11.453,11.453,0,0,0,1.191-5.2h4.219A14.141,14.141,0,0,1,69.8-4.961L73.984,0ZM60.117-24.922a2.7,2.7,0,0,0-2.2.928,3.5,3.5,0,0,0-.771,2.314,4.011,4.011,0,0,0,.5,1.855A14.862,14.862,0,0,0,59.1-17.637l1.7-1.133a5.969,5.969,0,0,0,1.729-1.592,3.44,3.44,0,0,0,.5-1.9,2.526,2.526,0,0,0-.352-1.289,2.711,2.711,0,0,0-1.006-.986A3.033,3.033,0,0,0,60.117-24.922Zm-.43,21.406a6.883,6.883,0,0,0,2.275-.391,7.85,7.85,0,0,0,2.119-1.133l-6.133-7.227-.566.41A5.948,5.948,0,0,0,55.576-9.8a4.607,4.607,0,0,0-.459,1.934,4.6,4.6,0,0,0,.537,2.236,3.844,3.844,0,0,0,1.572,1.553A5.053,5.053,0,0,0,59.688-3.516Zm38.086-20.84H88.926V0H83.887V-24.355h-8.75v-4.082H97.773Z" transform="translate(237 1673)"/><path class="f" d="M32.5,0A32.5,32.5,0,1,1,0,32.5,32.5,32.5,0,0,1,32.5,0Z" transform="translate(237 1540)"/><path class="a" d="M119.984-235.71a18.847,18.847,0,0,0-9.842,2.754c-.856.527-1.338.949-1.338,1.492,0,1.6,3.74,3.321,10.374,3.321,6.566,0,11.658-1.885,11.658-3.7,0-.433-.378-.736-1.144-1.193a18.769,18.769,0,0,0-9.708-2.675Zm-12.242,4.488a.051.051,0,0,0-.032.015,19.021,19.021,0,0,0-2.671,2.774,2.418,2.418,0,0,0-.612,1.153c0,3.689,9.25,6.364,17.9,6.364,9.216,0,13.329-3.009,13.329-5.653,0-.945-.368-1.5-1.309-2.566a22.366,22.366,0,0,0-1.8-1.82c-.03-.024-.05,0-.03.025a.767.767,0,0,1,.12.438c0,2.108-6.451,5.837-16.721,5.837-7.546,0-8.958-2.8-8.958-4.579a3.075,3.075,0,0,1,.782-1.949c.018-.025.015-.04,0-.04Zm29.257,6.1c-.008,0-.013.012-.01.029.164,4.928-13.578,8.1-20.512,8.1-7.51,0-13.776-2.992-13.776-6.771a4.612,4.612,0,0,1,.169-1.1c.009-.035-.02-.04-.035-.01a18.813,18.813,0,0,0-1.357,3.933,1.253,1.253,0,0,0,.1.92c1.164,2.47,7.053,6.422,20.789,6.422,8.38,0,14.89-2.059,15.945-5.816a4.449,4.449,0,0,0-.045-2.406,18.427,18.427,0,0,0-1.243-3.282c-.007-.015-.017-.021-.025-.019Zm1.923,7.317c-.009,0-.018.01-.024.035-.691,3.709-12.513,8.64-22.728,8.64-9.714,0-14.294-4.524-15.124-7.611-.01-.045-.04-.035-.04.005a18.8,18.8,0,0,0,.283,3.271,3.814,3.814,0,0,0,.955,1.656c2.352,2.452,8.216,5.887,18.372,5.887,13.836,0,17-4.609,17.646-6.125a13.894,13.894,0,0,0,.7-4.688c0-.4-.01-.716-.025-1.029,0-.025-.007-.039-.016-.04Zm-1.287,7.988c-.008,0-.019.009-.03.026-2.854,4.2-11.12,6.821-19.654,6.821-6.033,0-12.524-1.929-15.065-5.613-.025-.034-.05-.019-.035.02,2.367,5.032,9.549,7.781,18.422,7.781,4.67,0,9.8-1.273,12.872-3.793a10.274,10.274,0,0,0,2.357-2.829,18.209,18.209,0,0,0,1.145-2.372c.009-.025,0-.042-.011-.041Zm-5.142,7.3a.063.063,0,0,0-.026.009c-1.5,1-5.764,3.182-12.483,3.182-5.839,0-9.53-1.3-11.613-2.466-.04-.02-.055.01-.025.035a18.961,18.961,0,0,0,11.638,3.987,18.91,18.91,0,0,0,12.5-4.7c.03-.027.027-.047.006-.045Z" transform="translate(149.493 1789.26)"/><path class="g" d="M11.758,8.822H7.334V21H4.814V8.822H.439V6.781H11.758Zm-.42,6.8a6.264,6.264,0,0,1,.591-2.764,4.557,4.557,0,0,1,1.7-1.919,4.823,4.823,0,0,1,2.617-.7,4.884,4.884,0,0,1,2.642.7A4.546,4.546,0,0,1,20.6,12.855a6.264,6.264,0,0,1,.591,2.764v.205a6.264,6.264,0,0,1-.591,2.764A4.525,4.525,0,0,1,18.9,20.5a4.867,4.867,0,0,1-2.627.693,4.892,4.892,0,0,1-2.632-.693,4.514,4.514,0,0,1-1.709-1.914,6.264,6.264,0,0,1-.591-2.764Zm2.432.205a4.423,4.423,0,0,0,.625,2.461,2.09,2.09,0,0,0,1.875.957,2.142,2.142,0,0,0,1.392-.454,2.655,2.655,0,0,0,.83-1.226,5.267,5.267,0,0,0,.269-1.738v-.205a5.278,5.278,0,0,0-.269-1.733,2.669,2.669,0,0,0-.835-1.235,2.161,2.161,0,0,0-1.406-.459,2.107,2.107,0,0,0-1.387.459,2.7,2.7,0,0,0-.825,1.235,5.278,5.278,0,0,0-.269,1.733Zm14.541-5.586a3.779,3.779,0,0,1,2.251.664,4.063,4.063,0,0,1,1.411,1.875,7.68,7.68,0,0,1,.479,2.832v.205a7.485,7.485,0,0,1-.483,2.773A4.3,4.3,0,0,1,30.557,20.5a3.89,3.89,0,0,1-4.971-.449v5.01H23.154V10.434h2.236l.1,1.064A3.511,3.511,0,0,1,28.311,10.238Zm1.709,5.371a4.545,4.545,0,0,0-.591-2.446,1.972,1.972,0,0,0-1.792-.942A2.145,2.145,0,0,0,25.586,13.4v4.639a2.168,2.168,0,0,0,2.07,1.2,1.944,1.944,0,0,0,1.777-.957,4.674,4.674,0,0,0,.586-2.471Zm18.125-5.176V21H45.85l-.059-1.045a3.638,3.638,0,0,1-2.959,1.24,3.411,3.411,0,0,1-2.568-.957,4.145,4.145,0,0,1-.928-2.979V10.434h2.432v6.846a2.012,2.012,0,0,0,.454,1.479,1.637,1.637,0,0,0,1.2.444A2.305,2.305,0,0,0,45.7,18V10.434Zm7.529-.2a3.779,3.779,0,0,1,2.251.664,4.063,4.063,0,0,1,1.411,1.875,7.68,7.68,0,0,1,.479,2.832v.205a7.485,7.485,0,0,1-.483,2.773A4.3,4.3,0,0,1,57.92,20.5a3.89,3.89,0,0,1-4.971-.449v5.01H50.518V10.434h2.236l.1,1.064A3.511,3.511,0,0,1,55.674,10.238Zm1.709,5.371a4.545,4.545,0,0,0-.591-2.446A1.972,1.972,0,0,0,55,12.221,2.145,2.145,0,0,0,52.949,13.4v4.639a2.168,2.168,0,0,0,2.07,1.2,1.944,1.944,0,0,0,1.777-.957,4.674,4.674,0,0,0,.586-2.471Zm17.822-5.176L71,22.6a5.372,5.372,0,0,1-1.147,1.88,2.8,2.8,0,0,1-2.134.786,4.8,4.8,0,0,1-1.162-.176V23.227l.449.02a2.36,2.36,0,0,0,1.323-.308,2.051,2.051,0,0,0,.718-1.079l.332-.9L65.664,10.434h2.627l2.2,7.09,2.129-7.09Zm.889,5.186a6.264,6.264,0,0,1,.591-2.764,4.557,4.557,0,0,1,1.7-1.919,4.823,4.823,0,0,1,2.617-.7,4.884,4.884,0,0,1,2.642.7,4.546,4.546,0,0,1,1.709,1.919,6.264,6.264,0,0,1,.591,2.764v.205a6.264,6.264,0,0,1-.591,2.764,4.525,4.525,0,0,1-1.7,1.914,5.332,5.332,0,0,1-5.259,0,4.514,4.514,0,0,1-1.709-1.914,6.264,6.264,0,0,1-.591-2.764Zm2.432.205a4.423,4.423,0,0,0,.625,2.461,2.09,2.09,0,0,0,1.875.957,2.142,2.142,0,0,0,1.392-.454,2.655,2.655,0,0,0,.83-1.226,5.267,5.267,0,0,0,.269-1.738v-.205a5.278,5.278,0,0,0-.269-1.733,2.669,2.669,0,0,0-.835-1.235,2.161,2.161,0,0,0-1.406-.459,2.107,2.107,0,0,0-1.387.459,2.7,2.7,0,0,0-.825,1.235,5.278,5.278,0,0,0-.269,1.733ZM96.66,10.434V21H94.365l-.059-1.045a3.638,3.638,0,0,1-2.959,1.24,3.411,3.411,0,0,1-2.568-.957,4.145,4.145,0,0,1-.928-2.979V10.434h2.432v6.846a2.012,2.012,0,0,0,.454,1.479,1.637,1.637,0,0,0,1.2.444A2.305,2.305,0,0,0,94.219,18V10.434Zm7.129-.2a3.141,3.141,0,0,1,.464.039,1.97,1.97,0,0,1,.386.088l-.02,2.295a6.112,6.112,0,0,0-.967-.078,2.165,2.165,0,0,0-2.187,1.221V21H99.033V10.434h2.314l.068,1.191a2.953,2.953,0,0,1,1-1.025A2.6,2.6,0,0,1,103.789,10.238Zm18.828,0a3.361,3.361,0,0,1,2.568.942,4.24,4.24,0,0,1,.889,2.983V21h-2.432V14.154a1.991,1.991,0,0,0-.464-1.509,2,2,0,0,0-1.392-.425,1.975,1.975,0,0,0-1.274.41,2.208,2.208,0,0,0-.728,1.1l.01.225V21h-2.432V14.184a2.022,2.022,0,0,0-.474-1.514,1.95,1.95,0,0,0-1.392-.449,2.05,2.05,0,0,0-1.982,1.143V21h-2.432V10.434h2.285l.078,1.113a3.563,3.563,0,0,1,1.3-.972,4.292,4.292,0,0,1,1.743-.337,3.643,3.643,0,0,1,1.738.4,2.644,2.644,0,0,1,1.143,1.216,3.748,3.748,0,0,1,1.357-1.187A4.04,4.04,0,0,1,122.617,10.238Zm14.307.2L132.715,22.6a5.372,5.372,0,0,1-1.147,1.88,2.8,2.8,0,0,1-2.134.786,4.8,4.8,0,0,1-1.162-.176V23.227l.449.02a2.36,2.36,0,0,0,1.323-.308,2.051,2.051,0,0,0,.718-1.079l.332-.9-3.711-10.527h2.627l2.2,7.09,2.129-7.09Zm9.531,7.3H141L139.863,21h-2.646l5.361-14.219h2.275L150.234,21h-2.646Zm-.713-2.041-2.021-5.83L141.7,15.7Zm15.186-6.875H156.5V21h-2.52V8.822h-4.375V6.781h11.318ZM171.23,21l-.791-.937a5.5,5.5,0,0,1-1.689.85,6.586,6.586,0,0,1-1.934.283,5.568,5.568,0,0,1-2.461-.513,3.8,3.8,0,0,1-1.621-1.431,3.9,3.9,0,0,1-.566-2.09,3.156,3.156,0,0,1,.322-1.44,4.288,4.288,0,0,1,.879-1.172,12.61,12.61,0,0,1,1.445-1.157,10.152,10.152,0,0,1-1.1-1.675,3.356,3.356,0,0,1-.366-1.509,3.864,3.864,0,0,1,.464-1.934,3.087,3.087,0,0,1,1.318-1.255,4.328,4.328,0,0,1,1.987-.435,3.894,3.894,0,0,1,1.86.43,3.136,3.136,0,0,1,1.245,1.162,3.148,3.148,0,0,1-.054,3.3,5.645,5.645,0,0,1-1.421,1.421l-.967.7,2.705,3.193a5.727,5.727,0,0,0,.6-2.6h2.109a7.07,7.07,0,0,1-1.24,4.326l2.09,2.48ZM167.109,8.539a1.349,1.349,0,0,0-1.1.464,1.749,1.749,0,0,0-.386,1.157,2.005,2.005,0,0,0,.249.928,7.431,7.431,0,0,0,.728,1.094l.85-.566a2.985,2.985,0,0,0,.864-.8,1.72,1.72,0,0,0,.249-.952,1.263,1.263,0,0,0-.176-.645,1.355,1.355,0,0,0-.5-.493A1.517,1.517,0,0,0,167.109,8.539Zm-.215,10.7a3.441,3.441,0,0,0,1.138-.2,3.925,3.925,0,0,0,1.06-.566l-3.066-3.613-.283.205a2.974,2.974,0,0,0-.9,1.025,2.308,2.308,0,0,0,.039,2.085,1.922,1.922,0,0,0,.786.776A2.526,2.526,0,0,0,166.895,19.242Zm19.043-10.42h-4.424V21h-2.52V8.822h-4.375V6.781h11.318Zm14.5,9.717a5.458,5.458,0,0,0,.4,2.295V21h-2.48a4.351,4.351,0,0,1-.273-.986,3.776,3.776,0,0,1-1.191.859,3.688,3.688,0,0,1-1.572.322,4.092,4.092,0,0,1-1.855-.41,3.141,3.141,0,0,1-1.279-1.133,2.96,2.96,0,0,1-.459-1.621,2.988,2.988,0,0,1,1.255-2.588,6.048,6.048,0,0,1,3.56-.9h1.465v-.684a1.628,1.628,0,0,0-1.816-1.787,2.277,2.277,0,0,0-.947.186,1.51,1.51,0,0,0-.635.508,1.234,1.234,0,0,0-.225.723h-2.432a2.67,2.67,0,0,1,.542-1.6,3.782,3.782,0,0,1,1.543-1.2,5.488,5.488,0,0,1,2.29-.454,5.244,5.244,0,0,1,2.139.41,3.217,3.217,0,0,1,1.45,1.23,3.652,3.652,0,0,1,.522,2Zm-4.648.713a2.54,2.54,0,0,0,1.353-.361,2.324,2.324,0,0,0,.864-.869V16.049h-1.27a3.344,3.344,0,0,0-1.924.459,1.484,1.484,0,0,0-.654,1.289,1.378,1.378,0,0,0,.43,1.05A1.682,1.682,0,0,0,195.791,19.252Zm15.791-1.768a3.394,3.394,0,0,1-.615,1.865A4.147,4.147,0,0,1,209.4,20.7a4.638,4.638,0,0,1-2.139.5,4.8,4.8,0,0,1-2.661-.7,4.307,4.307,0,0,1-1.626-1.909,6.567,6.567,0,0,1-.537-2.7v-.332a6.516,6.516,0,0,1,.542-2.7,4.349,4.349,0,0,1,1.626-1.909,5.272,5.272,0,0,1,4.878-.2,3.739,3.739,0,0,1,1.519,1.411,4.161,4.161,0,0,1,.576,2.08h-2.295A2.372,2.372,0,0,0,209,13.2a1.925,1.925,0,0,0-.708-.737,2.033,2.033,0,0,0-1.069-.273,1.913,1.913,0,0,0-1.826.947,4.92,4.92,0,0,0-.527,2.412v.332q0,3.359,2.363,3.359a2.279,2.279,0,0,0,1.016-.225,1.855,1.855,0,0,0,.732-.625,1.758,1.758,0,0,0,.3-.908Zm10.469,0a3.394,3.394,0,0,1-.615,1.865,4.147,4.147,0,0,1-1.562,1.348,4.638,4.638,0,0,1-2.139.5,4.8,4.8,0,0,1-2.661-.7,4.307,4.307,0,0,1-1.626-1.909,6.567,6.567,0,0,1-.537-2.7v-.332a6.516,6.516,0,0,1,.542-2.7,4.349,4.349,0,0,1,1.626-1.909,5.272,5.272,0,0,1,4.878-.2,3.739,3.739,0,0,1,1.519,1.411,4.161,4.161,0,0,1,.576,2.08h-2.295a2.372,2.372,0,0,0-.283-1.03,1.925,1.925,0,0,0-.708-.737,2.033,2.033,0,0,0-1.069-.273,1.913,1.913,0,0,0-1.826.947,4.92,4.92,0,0,0-.527,2.412v.332q0,3.359,2.363,3.359a2.279,2.279,0,0,0,1.016-.225,1.855,1.855,0,0,0,.732-.625,1.758,1.758,0,0,0,.3-.908Zm1.328-1.865a6.264,6.264,0,0,1,.591-2.764,4.557,4.557,0,0,1,1.7-1.919,4.822,4.822,0,0,1,2.617-.7,4.884,4.884,0,0,1,2.642.7,4.546,4.546,0,0,1,1.709,1.919,6.264,6.264,0,0,1,.591,2.764v.205a6.264,6.264,0,0,1-.591,2.764,4.525,4.525,0,0,1-1.7,1.914,5.332,5.332,0,0,1-5.259,0,4.514,4.514,0,0,1-1.709-1.914,6.264,6.264,0,0,1-.591-2.764Zm2.432.205a4.423,4.423,0,0,0,.625,2.461,2.09,2.09,0,0,0,1.875.957,2.142,2.142,0,0,0,1.392-.454,2.655,2.655,0,0,0,.83-1.226,5.267,5.267,0,0,0,.269-1.738v-.205a5.278,5.278,0,0,0-.269-1.733,2.669,2.669,0,0,0-.835-1.235,2.161,2.161,0,0,0-1.406-.459,2.107,2.107,0,0,0-1.387.459,2.7,2.7,0,0,0-.825,1.235,5.278,5.278,0,0,0-.269,1.733Zm18.135-5.391V21H241.65l-.059-1.045a3.638,3.638,0,0,1-2.959,1.24,3.411,3.411,0,0,1-2.568-.957,4.145,4.145,0,0,1-.928-2.979V10.434h2.432v6.846a2.012,2.012,0,0,0,.454,1.479,1.637,1.637,0,0,0,1.2.444A2.305,2.305,0,0,0,241.5,18V10.434Zm7.773-.2a3.24,3.24,0,0,1,2.485.933,4.315,4.315,0,0,1,.874,3.013V21h-2.432V14.164a2.044,2.044,0,0,0-.454-1.5,1.921,1.921,0,0,0-1.392-.444,2.274,2.274,0,0,0-1.221.332,2.415,2.415,0,0,0-.859.928V21h-2.432V10.434h2.285l.078,1.221A3.863,3.863,0,0,1,250,10.6,4,4,0,0,1,251.719,10.238Zm9.854,8.945a3.833,3.833,0,0,0,.83-.1v1.875a4.987,4.987,0,0,1-1.582.234,2.81,2.81,0,0,1-2.031-.713,3.037,3.037,0,0,1-.742-2.275V12.23h-1.719v-1.8h1.719V7.855h2.432v2.578h1.855v1.8h-1.855v5.811a1.174,1.174,0,0,0,.273.9A1.216,1.216,0,0,0,261.572,19.184Zm4.111-.742a1.386,1.386,0,0,1,1.025.381,1.31,1.31,0,0,1,.381.967,1.282,1.282,0,0,1-.381.952,1.6,1.6,0,0,1-2.061,0,1.282,1.282,0,0,1-.381-.952,1.31,1.31,0,0,1,.381-.967A1.4,1.4,0,0,1,265.684,18.441Zm4.482,0a1.386,1.386,0,0,1,1.025.381,1.31,1.31,0,0,1,.381.967,1.282,1.282,0,0,1-.381.952,1.6,1.6,0,0,1-2.061,0,1.282,1.282,0,0,1-.381-.952,1.31,1.31,0,0,1,.381-.967A1.4,1.4,0,0,1,270.166,18.441Zm4.336,0a1.386,1.386,0,0,1,1.025.381,1.31,1.31,0,0,1,.381.967,1.282,1.282,0,0,1-.381.952,1.6,1.6,0,0,1-2.061,0,1.282,1.282,0,0,1-.381-.952,1.31,1.31,0,0,1,.381-.967A1.4,1.4,0,0,1,274.5,18.441Z" transform="translate(239 1749)"/></g></g></svg>