<?xml version="1.0" encoding="UTF-8" standalone="no"?>
<!DOCTYPE svg PUBLIC "-//W3C//DTD SVG 1.1//EN" "http://www.w3.org/Graphics/SVG/1.1/DTD/svg11.dtd">
<svg width="100%" height="100%" viewBox="0 0 1950 1810" version="1.1" xmlns="http://www.w3.org/2000/svg" xmlns:xlink="http://www.w3.org/1999/xlink" xml:space="preserve" style="fill-rule:evenodd;clip-rule:evenodd;stroke-linecap:square;stroke-linejoin:round;stroke-miterlimit:1.41421;">
    <g id="Layer1" transform="matrix(1,0,0,1,-25,-95)">
        <g transform="matrix(0.975,0,0,0.905,24.6375,95)">
            <rect x="0" y="0" width="2000" height="2000" style="fill:rgb(255,120,155);"/>
        </g>
        <g transform="matrix(1,0,0,1,-12,54.5)">
            <g transform="matrix(1,0,0,1,-31.0969,0)">
                <g>
                    <g transform="matrix(1.09003,0,0,1.62554,514.97,-621.089)">
                        <rect x="323" y="1051.43" width="301" height="161.565" style="fill:rgb(89,208,255);"/>
                    </g>
                    <g transform="matrix(1.44859,0,0,1.11016,-417.49,-235.241)">
                        <rect x="838.88" y="1428.57" width="322.239" height="162.433" style="fill:rgb(254,224,209);"/>
                    </g>
                    <g transform="matrix(0.545013,0,0,-0.545013,820.45,2344.72)">
                        <path d="M533,1493L240,1493L358.259,1362L416.592,1362L533,1493Z" style="fill:rgb(88,29,46);"/>
                    </g>
                    <g transform="matrix(1.14238,0,0,1.14238,-104.755,-115.46)">
                        <g transform="matrix(1.50203,-0.119853,0.119853,1.50203,-1686.61,-1241.9)">
                            <g transform="matrix(0.720945,-0.193177,0.258819,0.965926,130.873,381.658)">
                                <path d="M1834,1226L1558,1226L1696.83,1184L1834,1184L1834,1226Z" style="fill:rgb(57,57,57);"/>
                            </g>
                            <g transform="matrix(-0.720945,0.193177,-0.258819,-0.965926,3294.13,2007.34)">
                                <path d="M1834,1226L1558,1226L1696.83,1184L1834,1184L1834,1226Z" style="fill:rgb(57,57,57);"/>
                            </g>
                        </g>
                        <g transform="matrix(1.28292,-0.10237,0.10237,1.28292,-1314.52,-863.343)">
                            <g transform="matrix(0.720945,-0.193177,0.258819,0.965926,130.873,381.658)">
                                <path d="M1834,1226L1558,1226L1696.83,1184L1834,1184L1834,1226Z" style="fill:rgb(57,57,57);"/>
                            </g>
                            <g transform="matrix(-0.720945,0.193177,-0.258819,-0.965926,3294.13,2007.34)">
                                <path d="M1834,1226L1558,1226L1696.83,1184L1834,1184L1834,1226Z" style="fill:rgb(57,57,57);"/>
                            </g>
                        </g>
                        <g transform="matrix(1.18452,-0.0945181,0.0945181,1.18452,-1133.65,-624.571)">
                            <g transform="matrix(0.720945,-0.193177,0.258819,0.965926,130.873,381.658)">
                                <path d="M1834,1226L1558,1226L1696.83,1184L1834,1184L1834,1226Z" style="fill:rgb(57,57,57);"/>
                            </g>
                            <g transform="matrix(-0.720945,0.193177,-0.258819,-0.965926,3294.13,2007.34)">
                                <path d="M1834,1226L1558,1226L1696.83,1184L1834,1184L1834,1226Z" style="fill:rgb(57,57,57);"/>
                            </g>
                        </g>
                        <g transform="matrix(0.988239,-0.0788561,0.0788561,0.988239,-783.555,-303.12)">
                            <g transform="matrix(0.720945,-0.193177,0.258819,0.965926,130.873,381.658)">
                                <path d="M1834,1226L1558,1226L1696.83,1184L1834,1184L1834,1226Z" style="fill:rgb(57,57,57);"/>
                            </g>
                            <g transform="matrix(-0.720945,0.193177,-0.258819,-0.965926,3294.13,2007.34)">
                                <path d="M1834,1226L1558,1226L1696.83,1184L1834,1184L1834,1226Z" style="fill:rgb(57,57,57);"/>
                            </g>
                        </g>
                        <g transform="matrix(0.85814,-0.0684749,0.0684749,0.85814,-551.358,-67.7606)">
                            <g transform="matrix(0.720945,-0.193177,0.258819,0.965926,130.873,381.658)">
                                <path d="M1834,1226L1558,1226L1696.83,1184L1834,1184L1834,1226Z" style="fill:rgb(57,57,57);"/>
                            </g>
                            <g transform="matrix(-0.720945,0.193177,-0.258819,-0.965926,3294.13,2007.34)">
                                <path d="M1834,1226L1558,1226L1696.83,1184L1834,1184L1834,1226Z" style="fill:rgb(57,57,57);"/>
                            </g>
                        </g>
                        <g transform="matrix(0.762945,-0.0608788,0.0608788,0.762945,-379.263,119.276)">
                            <g transform="matrix(0.720945,-0.193177,0.258819,0.965926,130.873,381.658)">
                                <path d="M1834,1226L1558,1226L1696.83,1184L1834,1184L1834,1226Z" style="fill:rgb(57,57,57);"/>
                            </g>
                            <g transform="matrix(-0.720945,0.193177,-0.258819,-0.965926,3294.13,2007.34)">
                                <path d="M1834,1226L1558,1226L1696.83,1184L1834,1184L1834,1226Z" style="fill:rgb(57,57,57);"/>
                            </g>
                        </g>
                        <g transform="matrix(0.682663,-0.0544727,0.0544727,0.682663,-234.128,281.32)">
                            <g transform="matrix(0.720945,-0.193177,0.258819,0.965926,130.873,381.658)">
                                <path d="M1834,1226L1558,1226L1696.83,1184L1834,1184L1834,1226Z" style="fill:rgb(57,57,57);"/>
                            </g>
                            <g transform="matrix(-0.720945,0.193177,-0.258819,-0.965926,3294.13,2007.34)">
                                <path d="M1834,1226L1558,1226L1696.83,1184L1834,1184L1834,1226Z" style="fill:rgb(57,57,57);"/>
                            </g>
                        </g>
                        <g transform="matrix(0.478704,-0.0381979,0.0381979,0.478704,134.592,621.741)">
                            <g transform="matrix(0.720945,-0.193177,0.258819,0.965926,130.873,381.658)">
                                <path d="M1834,1226L1558,1226L1696.83,1184L1834,1184L1834,1226Z" style="fill:rgb(57,57,57);"/>
                            </g>
                            <g transform="matrix(-0.720945,0.193177,-0.258819,-0.965926,3294.13,2007.34)">
                                <path d="M1834,1226L1558,1226L1696.83,1184L1834,1184L1834,1226Z" style="fill:rgb(57,57,57);"/>
                            </g>
                        </g>
                        <g transform="matrix(0.70812,0,0,0.70812,292.67,331.267)">
                            <g transform="matrix(0.399195,-0.141851,0.190052,0.534844,67.2866,805.773)">
                                <path d="M1834,1226L1558,1226L1696.83,1184L1834,1184L1834,1226Z" style="fill:rgb(57,57,57);"/>
                            </g>
                            <g transform="matrix(-0.399195,0.141851,-0.190052,-0.534844,1930.48,1582.78)">
                                <path d="M1834,1226L1558,1226L1696.83,1184L1834,1184L1834,1226Z" style="fill:rgb(57,57,57);"/>
                            </g>
                        </g>
                        <g transform="matrix(0.839768,0,0,0.839768,156.639,177.531)">
                            <g transform="matrix(-0.399195,0.141851,-0.190052,-0.534844,1928.47,1637.83)">
                                <path d="M1834,1226L1558,1226L1696.83,1184L1834,1184L1834,1226Z" style="fill:rgb(57,57,57);"/>
                            </g>
                            <g transform="matrix(-0.916519,0.0164329,-0.0266341,-1.48548,1949.21,3610.68)">
                                <path d="M1029,1606L957,1606L978.923,1571L1011.32,1571L1029,1606Z" style="fill:rgb(57,57,57);"/>
                            </g>
                        </g>
                        <g transform="matrix(0.576188,-0.0459766,0.0459766,0.576188,-41.6402,459.691)">
                            <g transform="matrix(0.720945,-0.193177,0.258819,0.965926,130.873,381.658)">
                                <path d="M1834,1226L1558,1226L1696.83,1184L1834,1184L1834,1226Z" style="fill:rgb(57,57,57);"/>
                            </g>
                            <g transform="matrix(-0.720945,0.193177,-0.258819,-0.965926,3294.13,2007.34)">
                                <path d="M1834,1226L1558,1226L1696.83,1184L1834,1184L1834,1226Z" style="fill:rgb(57,57,57);"/>
                            </g>
                        </g>
                    </g>
                    <g transform="matrix(1.09003,0,0,1.09003,-58.9284,-93.9732)">
                        <g transform="matrix(1,0,0,1,103,66)">
                            <g transform="matrix(2.72989,0,0,2.72989,-508.612,-1711.67)">
                                <g transform="matrix(1,0,0,1,-5,-18)">
                                    <path d="M443,779L451,793.5L443,808L435,793.5L443,779Z" style="fill:rgb(181,234,255);"/>
                                </g>
                                <g transform="matrix(1,0,0,1,-5,-59)">
                                    <path d="M443,779L451,793.5L443,808L435,793.5L443,779Z" style="fill:rgb(181,234,255);"/>
                                </g>
                                <g transform="matrix(1,0,0,1,-5,25)">
                                    <path d="M443,779L451,793.5L443,808L435,793.5L443,779Z" style="fill:rgb(181,234,255);"/>
                                </g>
                            </g>
                            <g transform="matrix(2.72989,0,0,2.72989,-508.612,-1363.84)">
                                <g transform="matrix(1,0,0,1,-5,-18)">
                                    <path d="M443,779L451,793.5L443,808L435,793.5L443,779Z" style="fill:rgb(181,234,255);"/>
                                </g>
                                <g transform="matrix(1,0,0,1,-5,-59)">
                                    <path d="M443,779L451,793.5L443,808L435,793.5L443,779Z" style="fill:rgb(181,234,255);"/>
                                </g>
                                <g transform="matrix(1,0,0,1,-5,25)">
                                    <path d="M443,779L451,793.5L443,808L435,793.5L443,779Z" style="fill:rgb(181,234,255);"/>
                                </g>
                            </g>
                        </g>
                        <g transform="matrix(1,0,0,1,-10,26.4166)">
                            <g transform="matrix(2.72989,0,0,2.72989,-508.612,-1711.67)">
                                <g transform="matrix(1,0,0,1,-5,-18)">
                                    <path d="M443,779L451,793.5L443,808L435,793.5L443,779Z" style="fill:rgb(181,234,255);"/>
                                </g>
                                <g transform="matrix(1,0,0,1,-5,-59)">
                                    <path d="M443,779L451,793.5L443,808L435,793.5L443,779Z" style="fill:rgb(181,234,255);"/>
                                </g>
                                <g transform="matrix(1,0,0,1,-5,25)">
                                    <path d="M443,779L451,793.5L443,808L435,793.5L443,779Z" style="fill:rgb(181,234,255);"/>
                                </g>
                            </g>
                            <g transform="matrix(2.72989,0,0,2.72989,-508.612,-1363.84)">
                                <g transform="matrix(1,0,0,1,-5,-18)">
                                    <path d="M443,779L451,793.5L443,808L435,793.5L443,779Z" style="fill:rgb(181,234,255);"/>
                                </g>
                                <g transform="matrix(1,0,0,1,-5,-59)">
                                    <path d="M443,779L451,793.5L443,808L435,793.5L443,779Z" style="fill:rgb(181,234,255);"/>
                                </g>
                                <g transform="matrix(1,0,0,1,-5,25)">
                                    <path d="M443,779L451,793.5L443,808L435,793.5L443,779Z" style="fill:rgb(181,234,255);"/>
                                </g>
                            </g>
                        </g>
                        <g transform="matrix(1,0,0,1,-118,-51.3854)">
                            <g transform="matrix(2.72989,0,0,2.72989,-508.612,-1711.67)">
                                <g transform="matrix(1,0,0,1,-5,-18)">
                                    <path d="M443,779L451,793.5L443,808L435,793.5L443,779Z" style="fill:rgb(181,234,255);"/>
                                </g>
                                <g transform="matrix(1,0,0,1,-5,-59)">
                                    <path d="M443,779L451,793.5L443,808L435,793.5L443,779Z" style="fill:rgb(181,234,255);"/>
                                </g>
                                <g transform="matrix(1,0,0,1,-5,25)">
                                    <path d="M443,779L451,793.5L443,808L435,793.5L443,779Z" style="fill:rgb(181,234,255);"/>
                                </g>
                            </g>
                            <g transform="matrix(2.72989,0,0,2.72989,-508.612,-1363.84)">
                                <g transform="matrix(1,0,0,1,-5,-18)">
                                    <path d="M443,779L451,793.5L443,808L435,793.5L443,779Z" style="fill:rgb(181,234,255);"/>
                                </g>
                                <g transform="matrix(1,0,0,1,-5,-59)">
                                    <path d="M443,779L451,793.5L443,808L435,793.5L443,779Z" style="fill:rgb(181,234,255);"/>
                                </g>
                                <g transform="matrix(1,0,0,1,-5,25)">
                                    <path d="M443,779L451,793.5L443,808L435,793.5L443,779Z" style="fill:rgb(181,234,255);"/>
                                </g>
                            </g>
                        </g>
                        <g>
                            <g transform="matrix(2.72989,0,0,2.72989,-737.455,-1366.91)">
                                <g transform="matrix(1,0,0,1,-5,-18)">
                                    <path d="M443,779L451,793.5L443,808L435,793.5L443,779Z" style="fill:rgb(181,234,255);"/>
                                </g>
                                <g transform="matrix(1,0,0,1,-5,-59)">
                                    <path d="M443,779L451,793.5L443,808L435,793.5L443,779Z" style="fill:rgb(181,234,255);"/>
                                </g>
                            </g>
                            <g transform="matrix(2.72989,0,0,2.72989,-736.883,-1719.89)">
                                <g transform="matrix(1,0,0,1,-5,-18)">
                                    <path d="M443,779L451,793.5L443,808L435,793.5L443,779Z" style="fill:rgb(181,234,255);"/>
                                </g>
                                <g transform="matrix(1,0,0,1,-5,-59)">
                                    <path d="M443,779L451,793.5L443,808L435,793.5L443,779Z" style="fill:rgb(181,234,255);"/>
                                </g>
                                <g transform="matrix(1,0,0,1,-5,25)">
                                    <path d="M443,779L451,793.5L443,808L435,793.5L443,779Z" style="fill:rgb(181,234,255);"/>
                                </g>
                            </g>
                        </g>
                    </g>
                    <g transform="matrix(-1.09003,0,0,1.09003,2126.92,-94.5915)">
                        <g transform="matrix(1,0,0,1,103,66)">
                            <g transform="matrix(2.72989,0,0,2.72989,-508.612,-1711.67)">
                                <g transform="matrix(1,0,0,1,-5,-18)">
                                    <path d="M443,779L451,793.5L443,808L435,793.5L443,779Z" style="fill:rgb(181,234,255);"/>
                                </g>
                                <g transform="matrix(1,0,0,1,-5,-59)">
                                    <path d="M443,779L451,793.5L443,808L435,793.5L443,779Z" style="fill:rgb(181,234,255);"/>
                                </g>
                                <g transform="matrix(1,0,0,1,-5,25)">
                                    <path d="M443,779L451,793.5L443,808L435,793.5L443,779Z" style="fill:rgb(181,234,255);"/>
                                </g>
                            </g>
                            <g transform="matrix(2.72989,0,0,2.72989,-508.612,-1363.84)">
                                <g transform="matrix(1,0,0,1,-5,-18)">
                                    <path d="M443,779L451,793.5L443,808L435,793.5L443,779Z" style="fill:rgb(181,234,255);"/>
                                </g>
                                <g transform="matrix(1,0,0,1,-5,-59)">
                                    <path d="M443,779L451,793.5L443,808L435,793.5L443,779Z" style="fill:rgb(181,234,255);"/>
                                </g>
                                <g transform="matrix(1,0,0,1,-5,25)">
                                    <path d="M443,779L451,793.5L443,808L435,793.5L443,779Z" style="fill:rgb(181,234,255);"/>
                                </g>
                            </g>
                        </g>
                        <g transform="matrix(1,0,0,1,-10,26.4166)">
                            <g transform="matrix(2.72989,0,0,2.72989,-508.612,-1711.67)">
                                <g transform="matrix(1,0,0,1,-5,-18)">
                                    <path d="M443,779L451,793.5L443,808L435,793.5L443,779Z" style="fill:rgb(181,234,255);"/>
                                </g>
                                <g transform="matrix(1,0,0,1,-5,-59)">
                                    <path d="M443,779L451,793.5L443,808L435,793.5L443,779Z" style="fill:rgb(181,234,255);"/>
                                </g>
                                <g transform="matrix(1,0,0,1,-5,25)">
                                    <path d="M443,779L451,793.5L443,808L435,793.5L443,779Z" style="fill:rgb(181,234,255);"/>
                                </g>
                            </g>
                            <g transform="matrix(2.72989,0,0,2.72989,-508.612,-1363.84)">
                                <g transform="matrix(1,0,0,1,-5,-18)">
                                    <path d="M443,779L451,793.5L443,808L435,793.5L443,779Z" style="fill:rgb(181,234,255);"/>
                                </g>
                                <g transform="matrix(1,0,0,1,-5,-59)">
                                    <path d="M443,779L451,793.5L443,808L435,793.5L443,779Z" style="fill:rgb(181,234,255);"/>
                                </g>
                                <g transform="matrix(1,0,0,1,-5,25)">
                                    <path d="M443,779L451,793.5L443,808L435,793.5L443,779Z" style="fill:rgb(181,234,255);"/>
                                </g>
                            </g>
                        </g>
                        <g transform="matrix(1,0,0,1,-118,-51.3854)">
                            <g transform="matrix(2.72989,0,0,2.72989,-508.612,-1711.67)">
                                <g transform="matrix(1,0,0,1,-5,-18)">
                                    <path d="M443,779L451,793.5L443,808L435,793.5L443,779Z" style="fill:rgb(181,234,255);"/>
                                </g>
                                <g transform="matrix(1,0,0,1,-5,-59)">
                                    <path d="M443,779L451,793.5L443,808L435,793.5L443,779Z" style="fill:rgb(181,234,255);"/>
                                </g>
                                <g transform="matrix(1,0,0,1,-5,25)">
                                    <path d="M443,779L451,793.5L443,808L435,793.5L443,779Z" style="fill:rgb(181,234,255);"/>
                                </g>
                            </g>
                            <g transform="matrix(2.72989,0,0,2.72989,-508.612,-1363.84)">
                                <g transform="matrix(1,0,0,1,-5,-18)">
                                    <path d="M443,779L451,793.5L443,808L435,793.5L443,779Z" style="fill:rgb(181,234,255);"/>
                                </g>
                                <g transform="matrix(1,0,0,1,-5,-59)">
                                    <path d="M443,779L451,793.5L443,808L435,793.5L443,779Z" style="fill:rgb(181,234,255);"/>
                                </g>
                                <g transform="matrix(1,0,0,1,-5,25)">
                                    <path d="M443,779L451,793.5L443,808L435,793.5L443,779Z" style="fill:rgb(181,234,255);"/>
                                </g>
                            </g>
                        </g>
                        <g>
                            <g transform="matrix(2.72989,0,0,2.72989,-737.455,-1366.91)">
                                <g transform="matrix(1,0,0,1,-5,-18)">
                                    <path d="M443,779L451,793.5L443,808L435,793.5L443,779Z" style="fill:rgb(181,234,255);"/>
                                </g>
                                <g transform="matrix(1,0,0,1,-5,-59)">
                                    <path d="M443,779L451,793.5L443,808L435,793.5L443,779Z" style="fill:rgb(181,234,255);"/>
                                </g>
                            </g>
                            <g transform="matrix(2.72989,0,0,2.72989,-736.883,-1719.89)">
                                <g transform="matrix(1,0,0,1,-5,-18)">
                                    <path d="M443,779L451,793.5L443,808L435,793.5L443,779Z" style="fill:rgb(181,234,255);"/>
                                </g>
                                <g transform="matrix(1,0,0,1,-5,-59)">
                                    <path d="M443,779L451,793.5L443,808L435,793.5L443,779Z" style="fill:rgb(181,234,255);"/>
                                </g>
                                <g transform="matrix(1,0,0,1,-5,25)">
                                    <path d="M443,779L451,793.5L443,808L435,793.5L443,779Z" style="fill:rgb(181,234,255);"/>
                                </g>
                            </g>
                        </g>
                    </g>
                    <g transform="matrix(0.235813,0,0,0.513578,790.922,804.511)">
                        <rect x="1000" y="1558" width="37" height="312" style="fill:rgb(3,205,199);stroke-width:7.45px;stroke:rgb(3,205,199);"/>
                    </g>
                </g>
                <g transform="matrix(0.313084,0,0,0.952004,232.327,-70.4104)">
                    <rect x="363" y="252" width="37" height="625" style="fill:rgb(224,224,224);"/>
                </g>
                <g transform="matrix(0.313084,0,0,0.659005,741.823,885.253)">
                    <rect x="363" y="252" width="37" height="625" style="fill:rgb(224,224,224);"/>
                </g>
                <g transform="matrix(0.313084,0,0,0.659005,1081.49,885.253)">
                    <rect x="363" y="252" width="37" height="625" style="fill:rgb(224,224,224);"/>
                </g>
                <g transform="matrix(0.156542,-0.271139,0.82446,0.476002,81.3883,743.193)">
                    <rect x="363" y="252" width="37" height="625" style="fill:rgb(224,224,224);"/>
                </g>
                <g transform="matrix(-0.313084,0,0,0.952004,1829.87,-70.4104)">
                    <rect x="363" y="252" width="37" height="625" style="fill:rgb(224,224,224);"/>
                </g>
                <g transform="matrix(-0.156542,-0.271139,-0.82446,0.476002,1980.81,743.193)">
                    <rect x="363" y="252" width="37" height="625" style="fill:rgb(224,224,224);"/>
                </g>
            </g>
            <g transform="matrix(0.274651,-0.848422,0.745229,0.241245,314.834,1383.33)">
                <rect x="85" y="360" width="5" height="270" style="fill:white;fill-opacity:0.57229;"/>
            </g>
            <g transform="matrix(0.507779,-0.733085,0.64392,0.446018,848.322,1100.63)">
                <rect x="85" y="360" width="5" height="270" style="fill:white;fill-opacity:0.57229;"/>
            </g>
            <g transform="matrix(-0.278913,-0.84703,0.712714,-0.234685,450.933,1212.66)">
                <rect x="85" y="360" width="5" height="270" style="fill:white;fill-opacity:0.57229;"/>
            </g>
            <g transform="matrix(0.575262,-0.653204,0.573755,0.505293,1265.4,650.347)">
                <rect x="85" y="360" width="5" height="270" style="fill:white;fill-opacity:0.57229;"/>
            </g>
            <g transform="matrix(3.95191,0,0,4.14347,-2303.61,-852.416)">
                <path d="M923.851,532.971L918.082,532.971L918.082,524.131L923.851,524.131L923.851,524.712L918.678,524.712L918.678,528.111L923.404,528.111L923.404,528.663L918.678,528.663L918.678,532.404L923.851,532.404L923.851,532.971Z" style="fill:white;fill-rule:nonzero;"/>
                <rect x="924.969" y="524.131" width="0.596" height="8.84" style="fill:white;fill-rule:nonzero;"/>
                <path d="M930.052,533.075C929.148,533.075 928.427,532.777 927.891,532.181C927.344,531.584 927.071,530.789 927.071,529.796C927.071,528.772 927.344,527.947 927.891,527.321C928.427,526.705 929.148,526.397 930.052,526.397C930.947,526.397 931.667,526.705 932.214,527.321C932.75,527.947 933.019,528.772 933.019,529.796C933.019,530.789 932.75,531.584 932.214,532.181C931.667,532.777 930.947,533.075 930.052,533.075ZM930.052,532.583C930.768,532.583 931.344,532.33 931.781,531.823C932.209,531.316 932.422,530.64 932.422,529.796C932.422,528.921 932.209,528.225 931.781,527.709C931.344,527.182 930.768,526.919 930.052,526.919C929.327,526.919 928.75,527.182 928.323,527.709C927.886,528.225 927.667,528.921 927.667,529.796C927.667,530.64 927.886,531.316 928.323,531.823C928.75,532.33 929.327,532.583 930.052,532.583Z" style="fill:white;fill-rule:nonzero;"/>
                <path d="M935.12,532.971L934.524,532.971L934.524,526.62L935.12,526.62L935.12,527.694C935.299,527.316 935.573,527.018 935.94,526.799C936.308,526.571 936.715,526.456 937.163,526.456C937.789,526.456 938.32,526.66 938.758,527.068C939.205,527.485 939.429,527.982 939.429,528.558L939.429,532.971L938.832,532.971L938.832,528.558C938.832,528.121 938.668,527.748 938.34,527.44C938.012,527.132 937.62,526.978 937.163,526.978C936.666,526.978 936.224,527.147 935.836,527.485C935.448,527.833 935.21,528.265 935.12,528.782L935.12,532.971Z" style="fill:white;fill-rule:nonzero;"/>
                <path d="M943.573,535.237C942.817,535.237 942.176,535.038 941.65,534.64C941.113,534.233 940.845,533.746 940.845,533.179L941.411,533.179C941.411,533.607 941.62,533.974 942.037,534.283C942.465,534.581 942.976,534.73 943.573,534.73C944.229,534.73 944.75,534.556 945.138,534.208C945.535,533.86 945.734,533.393 945.734,532.807L945.734,531.51C945.545,531.927 945.257,532.255 944.87,532.494C944.472,532.742 944.045,532.866 943.588,532.866C942.753,532.866 942.087,532.573 941.59,531.987C941.083,531.391 940.83,530.606 940.83,529.632C940.83,528.658 941.083,527.873 941.59,527.276C942.087,526.69 942.753,526.397 943.588,526.397C944.074,526.397 944.517,526.526 944.914,526.784C945.302,527.043 945.575,527.386 945.734,527.813L945.734,526.62L946.33,526.62L946.33,532.822C946.33,533.587 946.087,534.178 945.6,534.596C945.123,535.023 944.447,535.237 943.573,535.237ZM943.588,532.404C944.184,532.404 944.691,532.136 945.108,531.599C945.525,531.053 945.734,530.397 945.734,529.632C945.734,528.866 945.525,528.21 945.108,527.664C944.691,527.127 944.184,526.859 943.588,526.859C942.932,526.859 942.41,527.112 942.022,527.619C941.625,528.126 941.426,528.797 941.426,529.632C941.426,530.466 941.625,531.137 942.022,531.644C942.41,532.151 942.932,532.404 943.588,532.404Z" style="fill:white;fill-rule:nonzero;"/>
                <path d="M949.983,533.194C949.356,533.194 948.825,533.02 948.388,532.673C947.94,532.315 947.717,531.887 947.717,531.391C947.717,530.914 947.935,530.496 948.373,530.138C948.8,529.781 949.337,529.572 949.983,529.512C950.609,529.453 951.12,529.353 951.518,529.214C951.925,529.075 952.129,528.911 952.129,528.722L952.129,528.156C952.129,527.828 951.95,527.55 951.592,527.321C951.245,527.092 950.817,526.978 950.311,526.978C949.833,526.978 949.421,527.087 949.073,527.306C948.735,527.535 948.566,527.803 948.566,528.111L948.566,528.439L948,528.439L948,528.051C948,527.624 948.224,527.261 948.671,526.963C949.128,526.665 949.674,526.516 950.311,526.516C950.966,526.516 951.528,526.66 951.995,526.948C952.462,527.237 952.696,527.584 952.696,527.992L952.696,531.838C952.696,532.086 952.75,532.3 952.86,532.479C952.969,532.658 953.103,532.747 953.262,532.747C953.312,532.747 953.356,532.742 953.396,532.732C953.436,532.722 953.466,532.707 953.486,532.687L953.486,532.971C953.337,533.04 953.148,533.075 952.919,533.075C952.691,533.075 952.492,532.976 952.323,532.777C952.164,532.578 952.084,532.34 952.084,532.061C951.965,532.399 951.712,532.673 951.324,532.881C950.937,533.09 950.489,533.194 949.983,533.194ZM949.983,532.747C950.509,532.747 950.976,532.573 951.384,532.225C951.791,531.887 952.04,531.455 952.129,530.928L952.129,529.468C951.99,529.587 951.737,529.686 951.369,529.766C951.021,529.845 950.559,529.91 949.983,529.96C949.515,529.999 949.123,530.158 948.805,530.437C948.487,530.705 948.328,531.023 948.328,531.391C948.328,531.768 948.492,532.086 948.82,532.345C949.138,532.613 949.525,532.747 949.983,532.747Z" style="fill:white;fill-rule:nonzero;"/>
                <path d="M955.886,533.194C955.558,533.194 955.274,533.06 955.036,532.792C954.807,532.533 954.693,532.215 954.693,531.838L954.693,527.083L953.784,527.083L953.784,526.62L954.693,526.62L954.693,524.817L955.289,524.817L955.289,526.62L956.154,526.62L956.154,527.083L955.289,527.083L955.289,531.838C955.289,532.086 955.354,532.3 955.483,532.479C955.602,532.658 955.751,532.747 955.93,532.747C956.119,532.747 956.273,532.712 956.392,532.643L956.392,533.075C956.174,533.155 956.005,533.194 955.886,533.194Z" style="fill:white;fill-rule:nonzero;"/>
                <path d="M959.896,533.194C959.041,533.194 958.355,532.886 957.838,532.27C957.322,531.644 957.063,530.819 957.063,529.796C957.063,528.772 957.322,527.947 957.838,527.321C958.355,526.705 959.041,526.397 959.896,526.397C960.75,526.397 961.436,526.68 961.953,527.247C962.47,527.813 962.728,528.568 962.728,529.512L962.728,529.796L957.66,529.796C957.66,530.66 957.863,531.351 958.271,531.868C958.678,532.384 959.22,532.643 959.896,532.643C960.402,532.643 960.86,532.509 961.267,532.24C961.684,531.962 961.973,531.599 962.132,531.152L962.728,531.152C962.629,531.738 962.311,532.225 961.774,532.613C961.237,533.001 960.611,533.194 959.896,533.194ZM957.66,529.229L962.132,529.229L962.132,529.006C962.082,528.419 961.843,527.922 961.416,527.515C960.979,527.117 960.472,526.919 959.896,526.919C959.319,526.919 958.817,527.122 958.39,527.53C957.953,527.947 957.709,528.459 957.66,529.065L957.66,529.229Z" style="fill:white;fill-rule:nonzero;"/>
                <path d="M966.484,533.135C965.719,533.135 965.063,532.807 964.517,532.151C963.97,531.505 963.697,530.72 963.697,529.796C963.697,528.861 963.97,528.061 964.517,527.396C965.063,526.73 965.719,526.397 966.484,526.397C966.971,526.397 967.419,526.541 967.826,526.829C968.224,527.127 968.512,527.515 968.691,527.992L968.691,524.131L969.287,524.131L969.287,532.971L968.691,532.971L968.691,531.674C968.532,532.111 968.248,532.464 967.841,532.732C967.443,533.001 966.991,533.135 966.484,533.135ZM966.484,532.687C967.091,532.687 967.612,532.404 968.05,531.838C968.477,531.271 968.691,530.591 968.691,529.796C968.691,529.001 968.477,528.325 968.05,527.768C967.612,527.202 967.091,526.919 966.484,526.919C965.878,526.919 965.361,527.202 964.934,527.768C964.507,528.325 964.293,529.001 964.293,529.796C964.293,530.591 964.507,531.271 964.934,531.838C965.361,532.404 965.878,532.687 966.484,532.687Z" style="fill:white;fill-rule:nonzero;"/>
                <path d="M976.561,532.971L975.965,532.971L975.965,524.131L976.904,524.131L980.139,532.225L983.359,524.131L984.298,524.131L984.298,532.971L983.702,532.971L983.702,524.817L980.407,532.971L979.856,532.971L976.561,524.817L976.561,532.971Z" style="fill:white;fill-rule:nonzero;"/>
                <path d="M988.651,533.194C987.796,533.194 987.111,532.886 986.594,532.27C986.077,531.644 985.819,530.819 985.819,529.796C985.819,528.772 986.077,527.947 986.594,527.321C987.111,526.705 987.796,526.397 988.651,526.397C989.506,526.397 990.191,526.68 990.708,527.247C991.225,527.813 991.483,528.568 991.483,529.512L991.483,529.796L986.415,529.796C986.415,530.66 986.619,531.351 987.026,531.868C987.433,532.384 987.975,532.643 988.651,532.643C989.158,532.643 989.615,532.509 990.022,532.24C990.44,531.962 990.728,531.599 990.887,531.152L991.483,531.152C991.384,531.738 991.066,532.225 990.529,532.613C989.992,533.001 989.366,533.194 988.651,533.194ZM986.415,529.229L990.887,529.229L990.887,529.006C990.837,528.419 990.599,527.922 990.171,527.515C989.734,527.117 989.227,526.919 988.651,526.919C988.074,526.919 987.573,527.122 987.145,527.53C986.708,527.947 986.465,528.459 986.415,529.065L986.415,529.229Z" style="fill:white;fill-rule:nonzero;"/>
                <rect x="992.884" y="524.131" width="0.596" height="8.84" style="fill:white;fill-rule:nonzero;"/>
                <path d="M996.641,533.194C996.313,533.194 996.03,533.06 995.791,532.792C995.563,532.533 995.448,532.215 995.448,531.838L995.448,527.083L994.539,527.083L994.539,526.62L995.448,526.62L995.448,524.817L996.045,524.817L996.045,526.62L996.909,526.62L996.909,527.083L996.045,527.083L996.045,531.838C996.045,532.086 996.109,532.3 996.238,532.479C996.358,532.658 996.507,532.747 996.686,532.747C996.874,532.747 997.029,532.712 997.148,532.643L997.148,533.075C996.929,533.155 996.76,533.194 996.641,533.194Z" style="fill:white;fill-rule:nonzero;"/>
                <rect x="998.206" y="529.408" width="4.74" height="0.552" style="fill:white;fill-rule:nonzero;"/>
                <path d="M1004.07,532.971L1004.07,532.404L1009.83,524.712L1004.53,524.712L1004.53,524.131L1010.64,524.131L1010.64,524.712L1004.86,532.404L1010.74,532.404L1010.74,532.971L1004.07,532.971Z" style="fill:white;fill-rule:nonzero;"/>
                <path d="M1014.44,533.075C1013.53,533.075 1012.82,532.777 1012.28,532.181C1011.73,531.584 1011.46,530.789 1011.46,529.796C1011.46,528.772 1011.73,527.947 1012.28,527.321C1012.82,526.705 1013.53,526.397 1014.44,526.397C1015.33,526.397 1016.06,526.705 1016.6,527.321C1017.14,527.947 1017.41,528.772 1017.41,529.796C1017.41,530.789 1017.14,531.584 1016.6,532.181C1016.06,532.777 1015.33,533.075 1014.44,533.075ZM1014.44,532.583C1015.15,532.583 1015.73,532.33 1016.17,531.823C1016.6,531.316 1016.81,530.64 1016.81,529.796C1016.81,528.921 1016.6,528.225 1016.17,527.709C1015.73,527.182 1015.15,526.919 1014.44,526.919C1013.71,526.919 1013.14,527.182 1012.71,527.709C1012.27,528.225 1012.06,528.921 1012.06,529.796C1012.06,530.64 1012.27,531.316 1012.71,531.823C1013.14,532.33 1013.71,532.583 1014.44,532.583Z" style="fill:white;fill-rule:nonzero;"/>
                <path d="M1019.51,532.971L1018.91,532.971L1018.91,526.62L1019.51,526.62L1019.51,527.694C1019.69,527.316 1019.96,527.018 1020.33,526.799C1020.7,526.571 1021.1,526.456 1021.55,526.456C1022.18,526.456 1022.71,526.66 1023.14,527.068C1023.59,527.485 1023.82,527.982 1023.82,528.558L1023.82,532.971L1023.22,532.971L1023.22,528.558C1023.22,528.121 1023.06,527.748 1022.73,527.44C1022.4,527.132 1022.01,526.978 1021.55,526.978C1021.05,526.978 1020.61,527.147 1020.22,527.485C1019.84,527.833 1019.6,528.265 1019.51,528.782L1019.51,532.971Z" style="fill:white;fill-rule:nonzero;"/>
                <path d="M1028.07,533.194C1027.21,533.194 1026.52,532.886 1026.01,532.27C1025.49,531.644 1025.23,530.819 1025.23,529.796C1025.23,528.772 1025.49,527.947 1026.01,527.321C1026.52,526.705 1027.21,526.397 1028.07,526.397C1028.92,526.397 1029.61,526.68 1030.12,527.247C1030.64,527.813 1030.9,528.568 1030.9,529.512L1030.9,529.796L1025.83,529.796C1025.83,530.66 1026.03,531.351 1026.44,531.868C1026.85,532.384 1027.39,532.643 1028.07,532.643C1028.57,532.643 1029.03,532.509 1029.44,532.24C1029.85,531.962 1030.14,531.599 1030.3,531.152L1030.9,531.152C1030.8,531.738 1030.48,532.225 1029.94,532.613C1029.41,533.001 1028.78,533.194 1028.07,533.194ZM1025.83,529.229L1030.3,529.229L1030.3,529.006C1030.25,528.419 1030.01,527.922 1029.59,527.515C1029.15,527.117 1028.64,526.919 1028.07,526.919C1027.49,526.919 1026.99,527.122 1026.56,527.53C1026.12,527.947 1025.88,528.459 1025.83,529.065L1025.83,529.229Z" style="fill:white;fill-rule:nonzero;"/>
            </g>
            <g transform="matrix(3.95191,0,0,4.14347,-2136.23,-1229.6)">
                <path d="M921.749,533.194C920.596,533.194 919.607,532.742 918.783,531.838C917.968,530.933 917.56,529.84 917.56,528.558C917.56,527.276 917.968,526.178 918.783,525.264C919.607,524.36 920.596,523.907 921.749,523.907C922.624,523.907 923.394,524.166 924.06,524.683C924.725,525.189 925.128,525.835 925.267,526.62L924.671,526.62C924.561,526.004 924.229,525.492 923.672,525.085C923.125,524.678 922.484,524.474 921.749,524.474C920.755,524.474 919.911,524.871 919.215,525.666C918.509,526.471 918.156,527.435 918.156,528.558C918.156,529.681 918.509,530.645 919.215,531.45C919.911,532.245 920.755,532.643 921.749,532.643C922.594,532.643 923.314,532.32 923.911,531.674C924.507,531.038 924.805,530.263 924.805,529.348L924.805,529.125L921.749,529.125L921.749,528.558L925.267,528.558L925.267,532.971L924.805,532.971L924.805,531.152C924.586,531.768 924.194,532.26 923.627,532.628C923.071,533.006 922.445,533.194 921.749,533.194Z" style="fill:white;fill-rule:nonzero;"/>
                <path d="M927.414,532.971L926.817,532.971L926.817,526.62L927.414,526.62L927.414,528.051C927.583,527.594 927.831,527.222 928.159,526.933C928.497,526.655 928.855,526.516 929.232,526.516L929.575,526.516L929.575,527.202C929.545,527.202 929.511,527.192 929.471,527.172C929.441,527.152 929.421,527.142 929.411,527.142C928.944,527.142 928.522,527.341 928.144,527.738C927.766,528.136 927.523,528.638 927.414,529.244L927.414,532.971Z" style="fill:white;fill-rule:nonzero;"/>
                <path d="M932.363,533.194C931.737,533.194 931.205,533.02 930.768,532.673C930.32,532.315 930.097,531.887 930.097,531.391C930.097,530.914 930.315,530.496 930.753,530.138C931.18,529.781 931.717,529.572 932.363,529.512C932.989,529.453 933.501,529.353 933.898,529.214C934.306,529.075 934.509,528.911 934.509,528.722L934.509,528.156C934.509,527.828 934.33,527.55 933.973,527.321C933.625,527.092 933.197,526.978 932.691,526.978C932.214,526.978 931.801,527.087 931.453,527.306C931.115,527.535 930.947,527.803 930.947,528.111L930.947,528.439L930.38,528.439L930.38,528.051C930.38,527.624 930.604,527.261 931.051,526.963C931.508,526.665 932.055,526.516 932.691,526.516C933.347,526.516 933.908,526.66 934.375,526.948C934.842,527.237 935.076,527.584 935.076,527.992L935.076,531.838C935.076,532.086 935.13,532.3 935.24,532.479C935.349,532.658 935.483,532.747 935.642,532.747C935.692,532.747 935.737,532.742 935.776,532.732C935.816,532.722 935.846,532.707 935.866,532.687L935.866,532.971C935.717,533.04 935.528,533.075 935.299,533.075C935.071,533.075 934.872,532.976 934.703,532.777C934.544,532.578 934.465,532.34 934.465,532.061C934.345,532.399 934.092,532.673 933.704,532.881C933.317,533.09 932.87,533.194 932.363,533.194ZM932.363,532.747C932.889,532.747 933.356,532.573 933.764,532.225C934.171,531.887 934.42,531.455 934.509,530.928L934.509,529.468C934.37,529.587 934.117,529.686 933.749,529.766C933.401,529.845 932.939,529.91 932.363,529.96C931.896,529.999 931.503,530.158 931.185,530.437C930.867,530.705 930.708,531.023 930.708,531.391C930.708,531.768 930.872,532.086 931.2,532.345C931.518,532.613 931.906,532.747 932.363,532.747Z" style="fill:white;fill-rule:nonzero;"/>
                <path d="M937.61,532.971L937.014,532.971L937.014,526.62L937.61,526.62L937.61,527.694C937.789,527.316 938.062,527.018 938.43,526.799C938.797,526.571 939.205,526.456 939.652,526.456C940.278,526.456 940.81,526.66 941.247,527.068C941.694,527.485 941.918,527.982 941.918,528.558L941.918,532.971L941.322,532.971L941.322,528.558C941.322,528.121 941.158,527.748 940.83,527.44C940.502,527.132 940.109,526.978 939.652,526.978C939.155,526.978 938.713,527.147 938.325,527.485C937.938,527.833 937.699,528.265 937.61,528.782L937.61,532.971Z" style="fill:white;fill-rule:nonzero;"/>
                <path d="M945.809,533.135C945.212,533.135 944.701,532.941 944.273,532.553C943.846,532.166 943.632,531.699 943.632,531.152L943.632,526.62L944.229,526.62L944.229,531.152C944.229,531.56 944.383,531.912 944.691,532.21C944.999,532.499 945.371,532.643 945.809,532.643C946.325,532.643 946.788,532.444 947.195,532.047C947.602,531.649 947.861,531.147 947.97,530.541L947.97,526.62L948.566,526.62L948.566,532.971L947.97,532.971L947.97,531.853C947.791,532.24 947.503,532.553 947.106,532.792C946.718,533.02 946.286,533.135 945.809,533.135Z" style="fill:white;fill-rule:nonzero;"/>
                <rect x="950.474" y="524.131" width="0.596" height="8.84" style="fill:white;fill-rule:nonzero;"/>
                <path d="M954.723,533.194C954.097,533.194 953.565,533.02 953.128,532.673C952.681,532.315 952.457,531.887 952.457,531.391C952.457,530.914 952.676,530.496 953.113,530.138C953.54,529.781 954.077,529.572 954.723,529.512C955.349,529.453 955.861,529.353 956.258,529.214C956.666,529.075 956.87,528.911 956.87,528.722L956.87,528.156C956.87,527.828 956.691,527.55 956.333,527.321C955.985,527.092 955.558,526.978 955.051,526.978C954.574,526.978 954.161,527.087 953.814,527.306C953.476,527.535 953.307,527.803 953.307,528.111L953.307,528.439L952.74,528.439L952.74,528.051C952.74,527.624 952.964,527.261 953.411,526.963C953.868,526.665 954.415,526.516 955.051,526.516C955.707,526.516 956.268,526.66 956.735,526.948C957.202,527.237 957.436,527.584 957.436,527.992L957.436,531.838C957.436,532.086 957.491,532.3 957.6,532.479C957.709,532.658 957.843,532.747 958.002,532.747C958.052,532.747 958.097,532.742 958.137,532.732C958.176,532.722 958.206,532.707 958.226,532.687L958.226,532.971C958.077,533.04 957.888,533.075 957.66,533.075C957.431,533.075 957.232,532.976 957.063,532.777C956.904,532.578 956.825,532.34 956.825,532.061C956.706,532.399 956.452,532.673 956.065,532.881C955.677,533.09 955.23,533.194 954.723,533.194ZM954.723,532.747C955.25,532.747 955.717,532.573 956.124,532.225C956.532,531.887 956.78,531.455 956.87,530.928L956.87,529.468C956.73,529.587 956.477,529.686 956.109,529.766C955.761,529.845 955.299,529.91 954.723,529.96C954.256,529.999 953.863,530.158 953.545,530.437C953.227,530.705 953.068,531.023 953.068,531.391C953.068,531.768 953.232,532.086 953.56,532.345C953.878,532.613 954.266,532.747 954.723,532.747Z" style="fill:white;fill-rule:nonzero;"/>
                <path d="M960.626,533.194C960.298,533.194 960.015,533.06 959.776,532.792C959.548,532.533 959.433,532.215 959.433,531.838L959.433,527.083L958.524,527.083L958.524,526.62L959.433,526.62L959.433,524.817L960.03,524.817L960.03,526.62L960.894,526.62L960.894,527.083L960.03,527.083L960.03,531.838C960.03,532.086 960.094,532.3 960.224,532.479C960.343,532.658 960.492,532.747 960.671,532.747C960.86,532.747 961.014,532.712 961.133,532.643L961.133,533.075C960.914,533.155 960.745,533.194 960.626,533.194Z" style="fill:white;fill-rule:nonzero;"/>
                <path d="M964.636,533.194C963.781,533.194 963.096,532.886 962.579,532.27C962.062,531.644 961.804,530.819 961.804,529.796C961.804,528.772 962.062,527.947 962.579,527.321C963.096,526.705 963.781,526.397 964.636,526.397C965.491,526.397 966.176,526.68 966.693,527.247C967.21,527.813 967.468,528.568 967.468,529.512L967.468,529.796L962.4,529.796C962.4,530.66 962.604,531.351 963.011,531.868C963.419,532.384 963.96,532.643 964.636,532.643C965.143,532.643 965.6,532.509 966.007,532.24C966.425,531.962 966.713,531.599 966.872,531.152L967.468,531.152C967.369,531.738 967.051,532.225 966.514,532.613C965.978,533.001 965.351,533.194 964.636,533.194ZM962.4,529.229L966.872,529.229L966.872,529.006C966.822,528.419 966.584,527.922 966.156,527.515C965.719,527.117 965.212,526.919 964.636,526.919C964.06,526.919 963.558,527.122 963.13,527.53C962.693,527.947 962.45,528.459 962.4,529.065L962.4,529.229Z" style="fill:white;fill-rule:nonzero;"/>
                <path d="M971.225,533.135C970.46,533.135 969.804,532.807 969.257,532.151C968.711,531.505 968.437,530.72 968.437,529.796C968.437,528.861 968.711,528.061 969.257,527.396C969.804,526.73 970.46,526.397 971.225,526.397C971.712,526.397 972.159,526.541 972.566,526.829C972.964,527.127 973.252,527.515 973.431,527.992L973.431,524.131L974.027,524.131L974.027,532.971L973.431,532.971L973.431,531.674C973.272,532.111 972.989,532.464 972.581,532.732C972.184,533.001 971.732,533.135 971.225,533.135ZM971.225,532.687C971.831,532.687 972.353,532.404 972.79,531.838C973.217,531.271 973.431,530.591 973.431,529.796C973.431,529.001 973.217,528.325 972.79,527.768C972.353,527.202 971.831,526.919 971.225,526.919C970.619,526.919 970.102,527.202 969.674,527.768C969.247,528.325 969.033,529.001 969.033,529.796C969.033,530.591 969.247,531.271 969.674,531.838C970.102,532.404 970.619,532.687 971.225,532.687Z" style="fill:white;fill-rule:nonzero;"/>
                <path d="M981.302,532.971L980.706,532.971L980.706,524.131L984.701,524.131C985.277,524.131 985.764,524.365 986.161,524.832C986.569,525.299 986.773,525.86 986.773,526.516C986.773,527.202 986.569,527.788 986.161,528.275C985.764,528.762 985.277,529.006 984.701,529.006L981.302,529.006L981.302,532.971ZM981.302,528.439L984.596,528.439C985.033,528.439 985.406,528.26 985.714,527.902C986.022,527.555 986.176,527.127 986.176,526.62C986.176,526.094 986.022,525.642 985.714,525.264C985.406,524.896 985.033,524.712 984.596,524.712L981.302,524.712L981.302,528.439Z" style="fill:white;fill-rule:nonzero;"/>
                <rect x="988.04" y="524.131" width="0.596" height="8.84" style="fill:white;fill-rule:nonzero;"/>
                <path d="M992.288,533.194C991.662,533.194 991.13,533.02 990.693,532.673C990.246,532.315 990.022,531.887 990.022,531.391C990.022,530.914 990.241,530.496 990.678,530.138C991.106,529.781 991.642,529.572 992.288,529.512C992.914,529.453 993.426,529.353 993.824,529.214C994.231,529.075 994.435,528.911 994.435,528.722L994.435,528.156C994.435,527.828 994.256,527.55 993.898,527.321C993.55,527.092 993.123,526.978 992.616,526.978C992.139,526.978 991.727,527.087 991.379,527.306C991.041,527.535 990.872,527.803 990.872,528.111L990.872,528.439L990.306,528.439L990.306,528.051C990.306,527.624 990.529,527.261 990.976,526.963C991.433,526.665 991.98,526.516 992.616,526.516C993.272,526.516 993.833,526.66 994.301,526.948C994.768,527.237 995.001,527.584 995.001,527.992L995.001,531.838C995.001,532.086 995.056,532.3 995.165,532.479C995.274,532.658 995.409,532.747 995.568,532.747C995.617,532.747 995.662,532.742 995.702,532.732C995.742,532.722 995.771,532.707 995.791,532.687L995.791,532.971C995.642,533.04 995.453,533.075 995.225,533.075C994.996,533.075 994.797,532.976 994.629,532.777C994.47,532.578 994.39,532.34 994.39,532.061C994.271,532.399 994.017,532.673 993.63,532.881C993.242,533.09 992.795,533.194 992.288,533.194ZM992.288,532.747C992.815,532.747 993.282,532.573 993.689,532.225C994.097,531.887 994.345,531.455 994.435,530.928L994.435,529.468C994.296,529.587 994.042,529.686 993.674,529.766C993.327,529.845 992.865,529.91 992.288,529.96C991.821,529.999 991.429,530.158 991.111,530.437C990.792,530.705 990.633,531.023 990.633,531.391C990.633,531.768 990.797,532.086 991.125,532.345C991.443,532.613 991.831,532.747 992.288,532.747Z" style="fill:white;fill-rule:nonzero;"/>
                <path d="M998.847,533.135C998.171,533.135 997.6,532.936 997.133,532.538C996.656,532.141 996.417,531.659 996.417,531.092L996.969,531.092C996.969,531.52 997.153,531.887 997.52,532.196C997.888,532.494 998.33,532.643 998.847,532.643C999.443,532.643 999.925,532.509 1000.29,532.24C1000.65,531.962 1000.83,531.599 1000.83,531.152C1000.83,530.814 1000.64,530.526 1000.26,530.287C999.886,530.059 999.379,529.915 998.743,529.855C998.067,529.796 997.53,529.607 997.133,529.289C996.725,528.971 996.522,528.578 996.522,528.111C996.522,527.584 996.725,527.177 997.133,526.889C997.54,526.601 998.112,526.456 998.847,526.456C999.553,526.456 1000.11,526.61 1000.53,526.919C1000.96,527.227 1001.17,527.639 1001.17,528.156L1000.61,528.156C1000.54,527.768 1000.35,527.465 1000.04,527.247C999.732,527.028 999.334,526.919 998.847,526.919C998.311,526.919 997.883,527.028 997.565,527.247C997.247,527.465 997.088,527.753 997.088,528.111C997.088,528.449 997.282,528.737 997.67,528.976C998.047,529.204 998.554,529.348 999.19,529.408C999.856,529.468 1000.39,529.666 1000.8,530.004C1001.2,530.342 1001.4,530.765 1001.4,531.271C1001.4,531.838 1001.16,532.29 1000.7,532.628C1000.24,532.966 999.622,533.135 998.847,533.135Z" style="fill:white;fill-rule:nonzero;"/>
                <path d="M1004.03,533.194C1003.71,533.194 1003.42,533.06 1003.19,532.792C1002.96,532.533 1002.84,532.215 1002.84,531.838L1002.84,527.083L1001.93,527.083L1001.93,526.62L1002.84,526.62L1002.84,524.817L1003.44,524.817L1003.44,526.62L1004.3,526.62L1004.3,527.083L1003.44,527.083L1003.44,531.838C1003.44,532.086 1003.5,532.3 1003.63,532.479C1003.75,532.658 1003.9,532.747 1004.08,532.747C1004.27,532.747 1004.42,532.712 1004.54,532.643L1004.54,533.075C1004.32,533.155 1004.15,533.194 1004.03,533.194Z" style="fill:white;fill-rule:nonzero;"/>
                <path d="M1006.2,532.971L1005.6,532.971L1005.6,526.62L1006.2,526.62L1006.2,532.971ZM1005.6,525.04L1005.6,524.131L1006.2,524.131L1006.2,525.04L1005.6,525.04Z" style="fill:white;fill-rule:nonzero;"/>
                <path d="M1010.68,533.254C1009.85,533.254 1009.14,532.916 1008.55,532.24C1007.97,531.565 1007.67,530.75 1007.67,529.796C1007.67,528.861 1007.97,528.061 1008.55,527.396C1009.14,526.73 1009.85,526.397 1010.68,526.397C1011.37,526.397 1011.96,526.601 1012.44,527.008C1012.93,527.425 1013.17,527.922 1013.17,528.499L1012.58,528.499C1012.58,528.081 1012.39,527.724 1012.02,527.425C1011.66,527.127 1011.21,526.978 1010.68,526.978C1010.02,526.978 1009.45,527.251 1008.97,527.798C1008.5,528.355 1008.27,529.02 1008.27,529.796C1008.27,530.591 1008.5,531.271 1008.97,531.838C1009.45,532.404 1010.02,532.687 1010.68,532.687C1011.2,532.687 1011.64,532.533 1012,532.225C1012.36,531.917 1012.55,531.55 1012.55,531.122L1013.17,531.122C1013.17,531.709 1012.93,532.21 1012.44,532.628C1011.96,533.045 1011.37,533.254 1010.68,533.254Z" style="fill:white;fill-rule:nonzero;"/>
            </g>
            <g transform="matrix(3.95191,0,0,4.14347,-3189.44,-1149.34)">
                <path d="M917.933,532.971L917.262,532.971L920.765,524.131L921.511,524.131L924.969,532.971L924.283,532.971L923.15,530.138L919.066,530.138L917.933,532.971ZM919.245,529.572L922.927,529.572L921.108,524.817L919.245,529.572Z" style="fill:white;fill-rule:nonzero;"/>
                <path d="M928.129,533.135C927.533,533.135 927.021,532.941 926.594,532.553C926.166,532.166 925.953,531.699 925.953,531.152L925.953,526.62L926.549,526.62L926.549,531.152C926.549,531.56 926.703,531.912 927.011,532.21C927.319,532.499 927.692,532.643 928.129,532.643C928.646,532.643 929.108,532.444 929.515,532.047C929.923,531.649 930.181,531.147 930.291,530.541L930.291,526.62L930.887,526.62L930.887,532.971L930.291,532.971L930.291,531.853C930.112,532.24 929.824,532.553 929.426,532.792C929.038,533.02 928.606,533.135 928.129,533.135Z" style="fill:white;fill-rule:nonzero;"/>
                <path d="M935.135,535.237C934.38,535.237 933.739,535.038 933.212,534.64C932.676,534.233 932.407,533.746 932.407,533.179L932.974,533.179C932.974,533.607 933.183,533.974 933.6,534.283C934.027,534.581 934.539,534.73 935.135,534.73C935.791,534.73 936.313,534.556 936.701,534.208C937.098,533.86 937.297,533.393 937.297,532.807L937.297,531.51C937.108,531.927 936.82,532.255 936.432,532.494C936.035,532.742 935.607,532.866 935.15,532.866C934.315,532.866 933.65,532.573 933.153,531.987C932.646,531.391 932.392,530.606 932.392,529.632C932.392,528.658 932.646,527.873 933.153,527.276C933.65,526.69 934.315,526.397 935.15,526.397C935.637,526.397 936.079,526.526 936.477,526.784C936.865,527.043 937.138,527.386 937.297,527.813L937.297,526.62L937.893,526.62L937.893,532.822C937.893,533.587 937.65,534.178 937.163,534.596C936.686,535.023 936.01,535.237 935.135,535.237ZM935.15,532.404C935.747,532.404 936.253,532.136 936.671,531.599C937.088,531.053 937.297,530.397 937.297,529.632C937.297,528.866 937.088,528.21 936.671,527.664C936.253,527.127 935.747,526.859 935.15,526.859C934.494,526.859 933.973,527.112 933.585,527.619C933.188,528.126 932.989,528.797 932.989,529.632C932.989,530.466 933.188,531.137 933.585,531.644C933.973,532.151 934.494,532.404 935.15,532.404Z" style="fill:white;fill-rule:nonzero;"/>
                <path d="M942.246,533.194C941.391,533.194 940.706,532.886 940.189,532.27C939.672,531.644 939.414,530.819 939.414,529.796C939.414,528.772 939.672,527.947 940.189,527.321C940.706,526.705 941.391,526.397 942.246,526.397C943.101,526.397 943.786,526.68 944.303,527.247C944.82,527.813 945.078,528.568 945.078,529.512L945.078,529.796L940.01,529.796C940.01,530.66 940.214,531.351 940.621,531.868C941.029,532.384 941.57,532.643 942.246,532.643C942.753,532.643 943.21,532.509 943.617,532.24C944.035,531.962 944.323,531.599 944.482,531.152L945.078,531.152C944.979,531.738 944.661,532.225 944.124,532.613C943.588,533.001 942.961,533.194 942.246,533.194ZM940.01,529.229L944.482,529.229L944.482,529.006C944.432,528.419 944.194,527.922 943.766,527.515C943.329,527.117 942.822,526.919 942.246,526.919C941.67,526.919 941.168,527.122 940.74,527.53C940.303,527.947 940.06,528.459 940.01,529.065L940.01,529.229Z" style="fill:white;fill-rule:nonzero;"/>
                <path d="M947.076,532.971L946.479,532.971L946.479,526.62L947.076,526.62L947.076,528.051C947.245,527.594 947.493,527.222 947.821,526.933C948.159,526.655 948.517,526.516 948.894,526.516L949.237,526.516L949.237,527.202C949.207,527.202 949.173,527.192 949.133,527.172C949.103,527.152 949.083,527.142 949.073,527.142C948.606,527.142 948.184,527.341 947.806,527.738C947.429,528.136 947.185,528.638 947.076,529.244L947.076,532.971Z" style="fill:white;fill-rule:nonzero;"/>
                <path d="M955.051,532.971L955.051,524.131L959.165,524.131C959.702,524.131 960.164,524.335 960.551,524.742C960.929,525.16 961.118,525.656 961.118,526.233C961.118,526.779 961.004,527.251 960.775,527.649C960.556,528.047 960.273,528.275 959.925,528.335C960.383,528.414 960.765,528.658 961.073,529.065C961.371,529.473 961.52,529.945 961.52,530.481C961.52,531.167 961.292,531.753 960.835,532.24C960.368,532.727 959.811,532.971 959.165,532.971L955.051,532.971ZM955.647,532.404L959.046,532.404C959.563,532.404 960.005,532.215 960.373,531.838C960.74,531.46 960.924,531.008 960.924,530.481C960.924,529.974 960.74,529.547 960.373,529.199C960.005,528.842 959.563,528.663 959.046,528.663L955.647,528.663L955.647,532.404ZM955.647,528.111L959.046,528.111C959.453,528.111 959.801,527.927 960.089,527.56C960.378,527.192 960.522,526.75 960.522,526.233C960.522,525.815 960.378,525.458 960.089,525.16C959.801,524.861 959.453,524.712 959.046,524.712L955.647,524.712L955.647,528.111Z" style="fill:white;fill-rule:nonzero;"/>
                <path d="M963.503,532.971L962.907,532.971L962.907,526.62L963.503,526.62L963.503,532.971ZM962.907,525.04L962.907,524.131L963.503,524.131L963.503,525.04L962.907,525.04Z" style="fill:white;fill-rule:nonzero;"/>
                <path d="M966.663,533.194C966.335,533.194 966.052,533.06 965.814,532.792C965.585,532.533 965.471,532.215 965.471,531.838L965.471,527.083L964.561,527.083L964.561,526.62L965.471,526.62L965.471,524.817L966.067,524.817L966.067,526.62L966.932,526.62L966.932,527.083L966.067,527.083L966.067,531.838C966.067,532.086 966.132,532.3 966.261,532.479C966.38,532.658 966.529,532.747 966.708,532.747C966.897,532.747 967.051,532.712 967.17,532.643L967.17,533.075C966.951,533.155 966.783,533.194 966.663,533.194Z" style="fill:white;fill-rule:nonzero;"/>
            </g>
            <g transform="matrix(3.95191,0,0,4.14347,-3193.23,-835.775)">
                <path d="M918.678,532.971L918.082,532.971L918.082,524.131L918.678,524.131L918.678,527.992L924.015,527.992L924.015,524.131L924.611,524.131L924.611,532.971L924.015,532.971L924.015,528.558L918.678,528.558L918.678,532.971Z" style="fill:white;fill-rule:nonzero;"/>
                <path d="M929.098,533.075C928.194,533.075 927.473,532.777 926.937,532.181C926.39,531.584 926.117,530.789 926.117,529.796C926.117,528.772 926.39,527.947 926.937,527.321C927.473,526.705 928.194,526.397 929.098,526.397C929.992,526.397 930.713,526.705 931.26,527.321C931.796,527.947 932.065,528.772 932.065,529.796C932.065,530.789 931.796,531.584 931.26,532.181C930.713,532.777 929.992,533.075 929.098,533.075ZM929.098,532.583C929.814,532.583 930.39,532.33 930.827,531.823C931.255,531.316 931.468,530.64 931.468,529.796C931.468,528.921 931.255,528.225 930.827,527.709C930.39,527.182 929.814,526.919 929.098,526.919C928.373,526.919 927.796,527.182 927.369,527.709C926.932,528.225 926.713,528.921 926.713,529.796C926.713,530.64 926.932,531.316 927.369,531.823C927.796,532.33 928.373,532.583 929.098,532.583Z" style="fill:white;fill-rule:nonzero;"/>
                <path d="M934.822,533.194C934.494,533.194 934.211,533.06 933.973,532.792C933.744,532.533 933.63,532.215 933.63,531.838L933.63,527.083L932.72,527.083L932.72,526.62L933.63,526.62L933.63,524.817L934.226,524.817L934.226,526.62L935.091,526.62L935.091,527.083L934.226,527.083L934.226,531.838C934.226,532.086 934.291,532.3 934.42,532.479C934.539,532.658 934.688,532.747 934.867,532.747C935.056,532.747 935.21,532.712 935.329,532.643L935.329,533.075C935.111,533.155 934.942,533.194 934.822,533.194Z" style="fill:white;fill-rule:nonzero;"/>
                <path d="M938.832,533.194C937.978,533.194 937.292,532.886 936.775,532.27C936.258,531.644 936,530.819 936,529.796C936,528.772 936.258,527.947 936.775,527.321C937.292,526.705 937.978,526.397 938.832,526.397C939.687,526.397 940.373,526.68 940.889,527.247C941.406,527.813 941.665,528.568 941.665,529.512L941.665,529.796L936.596,529.796C936.596,530.66 936.8,531.351 937.207,531.868C937.615,532.384 938.156,532.643 938.832,532.643C939.339,532.643 939.796,532.509 940.204,532.24C940.621,531.962 940.909,531.599 941.068,531.152L941.665,531.152C941.565,531.738 941.247,532.225 940.711,532.613C940.174,533.001 939.548,533.194 938.832,533.194ZM936.596,529.229L941.068,529.229L941.068,529.006C941.019,528.419 940.78,527.922 940.353,527.515C939.915,527.117 939.409,526.919 938.832,526.919C938.256,526.919 937.754,527.122 937.327,527.53C936.889,527.947 936.646,528.459 936.596,529.065L936.596,529.229Z" style="fill:white;fill-rule:nonzero;"/>
                <path d="M943.662,532.971L943.066,532.971L943.066,526.62L943.662,526.62L943.662,527.694C943.841,527.316 944.114,527.018 944.482,526.799C944.85,526.571 945.257,526.456 945.704,526.456C946.33,526.456 946.862,526.66 947.299,527.068C947.747,527.485 947.97,527.982 947.97,528.558L947.97,532.971L947.374,532.971L947.374,528.558C947.374,528.121 947.21,527.748 946.882,527.44C946.554,527.132 946.161,526.978 945.704,526.978C945.207,526.978 944.765,527.147 944.378,527.485C943.99,527.833 943.751,528.265 943.662,528.782L943.662,532.971Z" style="fill:white;fill-rule:nonzero;"/>
                <path d="M952.129,533.135C951.364,533.135 950.708,532.807 950.161,532.151C949.615,531.505 949.342,530.72 949.342,529.796C949.342,528.861 949.615,528.061 950.161,527.396C950.708,526.73 951.364,526.397 952.129,526.397C952.616,526.397 953.063,526.541 953.471,526.829C953.868,527.127 954.156,527.515 954.335,527.992L954.335,524.131L954.932,524.131L954.932,532.971L954.335,532.971L954.335,531.674C954.176,532.111 953.893,532.464 953.486,532.732C953.088,533.001 952.636,533.135 952.129,533.135ZM952.129,532.687C952.735,532.687 953.257,532.404 953.694,531.838C954.122,531.271 954.335,530.591 954.335,529.796C954.335,529.001 954.122,528.325 953.694,527.768C953.257,527.202 952.735,526.919 952.129,526.919C951.523,526.919 951.006,527.202 950.579,527.768C950.151,528.325 949.938,529.001 949.938,529.796C949.938,530.591 950.151,531.271 950.579,531.838C951.006,532.404 951.523,532.687 952.129,532.687Z" style="fill:white;fill-rule:nonzero;"/>
            </g>
        </g>
    </g>
</svg>
