<?xml version="1.0" encoding="UTF-8" standalone="no"?>
<!DOCTYPE svg PUBLIC "-//W3C//DTD SVG 1.1//EN" "http://www.w3.org/Graphics/SVG/1.1/DTD/svg11.dtd">
<svg width="100%" height="100%" viewBox="0 0 1270 1070" version="1.1" xmlns="http://www.w3.org/2000/svg" xmlns:xlink="http://www.w3.org/1999/xlink" xml:space="preserve" style="fill-rule:evenodd;clip-rule:evenodd;stroke-linejoin:round;stroke-miterlimit:1.41421;">
    <g id="Layer1" transform="matrix(1,0,0,1,35,35)">
        <g transform="matrix(0.635,0,0,0.535,-35,-35)">
            <rect x="0" y="0" width="2000" height="2000" style="fill:rgb(255,120,155);"/>
        </g>
        <g transform="matrix(0.340807,-0.12992,0.12992,0.340807,469.42,-2.9799)">
            <g transform="matrix(1.00149,0,0,0.698276,-0.249267,116.612)">
                <clipPath id="_clip1">
                    <rect x="76.138" y="181" width="173.736" height="116"/>
                </clipPath>
                <g clip-path="url(#_clip1)">
                    <path d="M260,297L65,297L113.75,181L211.25,181L260,297Z" style="fill:rgb(181,234,255);"/>
                </g>
            </g>
            <g transform="matrix(1,0,0,1,-5,177)">
                <path d="M265,153.479C265,135.001 249.999,120 231.521,120L103.479,120C85.001,120 70,135.001 70,153.479L70,492.521C70,510.999 85.001,526 103.479,526L231.521,526C249.999,526 265,510.999 265,492.521L265,153.479Z" style="fill:rgb(181,234,255);"/>
            </g>
            <g transform="matrix(1,0,0,1,0,-2)">
                <path d="M210,231C210,227.137 206.863,224 203,224L120,224C116.137,224 113,227.137 113,231C113,234.863 116.137,238 120,238L203,238C206.863,238 210,234.863 210,231Z" style="fill:rgb(14,41,71);"/>
                <g transform="matrix(1,0,0,3.21429,0,-547)">
                    <path d="M210,227.458C210,225.549 205.02,224 198.886,224L124.114,224C117.98,224 113,225.549 113,227.458L113,234.542C113,236.451 117.98,238 124.114,238L198.886,238C205.02,238 210,236.451 210,234.542L210,227.458Z" style="fill:rgb(14,41,71);"/>
                </g>
            </g>
            <g transform="matrix(1,0,0,1.19277,0,-545.036)">
                <rect x="65" y="742" width="195" height="83" style="fill:rgb(14,41,71);"/>
            </g>
            <g transform="matrix(1,0,0,1,-16.75,1)">
                <path d="M179.25,363C179.25,363 162.5,386.975 162.5,397.25C162.5,406.495 170.005,414 179.25,414C188.495,414 196,406.495 196,397.25C196,386.975 179.25,363 179.25,363Z" style="fill:rgb(181,234,255);"/>
            </g>
        </g>
        <g transform="matrix(1.27409,0,0,1.27409,-143.824,-128.066)">
            <g transform="matrix(1.33892,0.555875,-0.555875,1.33892,250.078,-404.817)">
                <g transform="matrix(0.953704,0,0,0.962963,22.7546,13.9074)">
                    <circle cx="491.5" cy="375.5" r="67.5" style="fill:rgb(9,0,67);"/>
                </g>
                <g transform="matrix(1.09756,0,0,1.15789,-59.2012,-43.6316)">
                    <path d="M501.75,289L512,308L491.5,308L501.75,289Z" style="fill:rgb(9,0,67);"/>
                </g>
                <g transform="matrix(-1.09756,6.21827e-16,-6.5601e-16,-1.15789,1042.2,792.632)">
                    <path d="M501.75,289L512,308L491.5,308L501.75,289Z" style="fill:rgb(9,0,67);"/>
                </g>
                <g transform="matrix(-0.776093,-0.776093,0.818755,-0.818755,583.506,1058.8)">
                    <path d="M501.75,289L512,308L491.5,308L501.75,289Z" style="fill:rgb(9,0,67);"/>
                </g>
                <g transform="matrix(3.10914e-16,1.09756,-1.15789,3.28005e-16,909.382,-175.201)">
                    <path d="M501.75,289L512,308L491.5,308L501.75,289Z" style="fill:rgb(9,0,67);"/>
                </g>
                <g transform="matrix(-1.76501e-16,-1.09756,1.15789,-1.86204e-16,73.3684,926.201)">
                    <path d="M501.75,289L512,308L491.5,308L501.75,289Z" style="fill:rgb(9,0,67);"/>
                </g>
                <g transform="matrix(-0.776093,0.776093,-0.818755,-0.818755,1174.55,283.216)">
                    <path d="M501.75,289L512,308L491.5,308L501.75,289Z" style="fill:rgb(9,0,67);"/>
                </g>
                <g transform="matrix(0.776093,0.776093,-0.818755,0.818755,395.966,-309.025)">
                    <path d="M501.75,289L512,308L491.5,308L501.75,289Z" style="fill:rgb(9,0,67);"/>
                </g>
                <g transform="matrix(0.776093,-0.776093,0.818755,0.818755,-193.053,469.784)">
                    <path d="M501.75,289L512,308L491.5,308L501.75,289Z" style="fill:rgb(9,0,67);"/>
                </g>
            </g>
            <g transform="matrix(1.44973,0,0,1.44973,-233.232,-171.762)">
                <g transform="matrix(0.953704,0,0,0.962963,22.7546,13.9074)">
                    <circle cx="491.5" cy="375.5" r="67.5" style="fill:rgb(9,0,67);"/>
                </g>
                <g transform="matrix(1.09756,0,0,1.15789,-59.2012,-43.6316)">
                    <path d="M501.75,289L512,308L491.5,308L501.75,289Z" style="fill:rgb(9,0,67);"/>
                </g>
                <g transform="matrix(-1.09756,6.21827e-16,-6.5601e-16,-1.15789,1042.2,792.632)">
                    <path d="M501.75,289L512,308L491.5,308L501.75,289Z" style="fill:rgb(9,0,67);"/>
                </g>
                <g transform="matrix(-0.776093,-0.776093,0.818755,-0.818755,583.506,1058.8)">
                    <path d="M501.75,289L512,308L491.5,308L501.75,289Z" style="fill:rgb(9,0,67);"/>
                </g>
                <g transform="matrix(3.10914e-16,1.09756,-1.15789,3.28005e-16,909.382,-175.201)">
                    <path d="M501.75,289L512,308L491.5,308L501.75,289Z" style="fill:rgb(9,0,67);"/>
                </g>
                <g transform="matrix(-1.76501e-16,-1.09756,1.15789,-1.86204e-16,73.3684,926.201)">
                    <path d="M501.75,289L512,308L491.5,308L501.75,289Z" style="fill:rgb(9,0,67);"/>
                </g>
                <g transform="matrix(-0.776093,0.776093,-0.818755,-0.818755,1174.55,283.216)">
                    <path d="M501.75,289L512,308L491.5,308L501.75,289Z" style="fill:rgb(9,0,67);"/>
                </g>
                <g transform="matrix(0.776093,0.776093,-0.818755,0.818755,395.966,-309.025)">
                    <path d="M501.75,289L512,308L491.5,308L501.75,289Z" style="fill:rgb(9,0,67);"/>
                </g>
                <g transform="matrix(0.776093,-0.776093,0.818755,0.818755,-193.053,469.784)">
                    <path d="M501.75,289L512,308L491.5,308L501.75,289Z" style="fill:rgb(9,0,67);"/>
                </g>
            </g>
        </g>
        <g transform="matrix(1.27409,0,0,1.27409,-143.824,-156.096)">
            <g transform="matrix(0.57854,-4.36599e-07,4.36599e-07,0.57854,60.6797,177.603)">
                <g transform="matrix(1.38939,0,0,1.38939,-113.325,-242.981)">
                    <circle cx="535" cy="681" r="57" style="fill:rgb(71,29,97);"/>
                </g>
                <g transform="matrix(0.251163,0,0,0.330369,608.916,564.534)">
                    <path d="M72,248L141,131L287,112L254,153L165,160L148.587,190.382L118,247L72,248Z" style="fill:rgb(71,29,97);"/>
                </g>
                <g transform="matrix(0.215651,0.128753,-0.169357,0.283659,678.884,566.536)">
                    <path d="M72,248L141,131L287,112L254,153L165,160L148.587,190.382L118,247L72,248Z" style="fill:rgb(71,29,97);"/>
                </g>
                <g transform="matrix(0.126668,0.216883,-0.285279,0.166614,738.809,601.396)">
                    <path d="M72,248L141,131L287,112L254,153L165,160L148.587,190.382L118,247L72,248Z" style="fill:rgb(71,29,97);"/>
                </g>
                <g transform="matrix(0.0285841,0.249531,-0.328223,0.0375984,770.536,653.673)">
                    <path d="M72,248L141,131L287,112L254,153L165,160L148.587,190.382L118,247L72,248Z" style="fill:rgb(71,29,97);"/>
                </g>
                <g transform="matrix(-0.114861,0.22336,-0.293799,-0.151084,782.652,726.378)">
                    <path d="M72,248L141,131L287,112L254,153L165,160L148.587,190.382L118,247L72,248Z" style="fill:rgb(71,29,97);"/>
                </g>
                <g transform="matrix(-0.20504,0.145056,-0.190801,-0.269702,756.191,790.9)">
                    <path d="M72,248L141,131L287,112L254,153L165,160L148.587,190.382L118,247L72,248Z" style="fill:rgb(71,29,97);"/>
                </g>
                <g transform="matrix(-0.233367,0.0928575,-0.122141,-0.306962,715.741,822.48)">
                    <path d="M72,248L141,131L287,112L254,153L165,160L148.587,190.382L118,247L72,248Z" style="fill:rgb(71,29,97);"/>
                </g>
                <g transform="matrix(-0.251103,0.00549893,-0.00723307,-0.33029,662.417,845.138)">
                    <path d="M72,248L141,131L287,112L254,153L165,160L148.587,190.382L118,247L72,248Z" style="fill:rgb(71,29,97);"/>
                </g>
                <g transform="matrix(-0.229474,-0.1021,0.134298,-0.301841,600.821,847.024)">
                    <path d="M72,248L141,131L287,112L254,153L165,160L148.587,190.382L118,247L72,248Z" style="fill:rgb(71,29,97);"/>
                </g>
                <g transform="matrix(-0.177411,-0.177787,0.233854,-0.233359,551.196,823.183)">
                    <path d="M72,248L141,131L287,112L254,153L165,160L148.587,190.382L118,247L72,248Z" style="fill:rgb(71,29,97);"/>
                </g>
                <g transform="matrix(-0.0704424,-0.241082,0.31711,-0.0926571,500.409,774.846)">
                    <path d="M72,248L141,131L287,112L254,153L165,160L148.587,190.382L118,247L72,248Z" style="fill:rgb(71,29,97);"/>
                </g>
                <g transform="matrix(0.0182076,-0.250502,0.3295,0.0239495,487.266,724.548)">
                    <path d="M72,248L141,131L287,112L254,153L165,160L148.587,190.382L118,247L72,248Z" style="fill:rgb(71,29,97);"/>
                </g>
                <g transform="matrix(0.0837495,-0.236788,0.311462,0.110161,492.748,673.568)">
                    <path d="M72,248L141,131L287,112L254,153L165,160L148.587,190.382L118,247L72,248Z" style="fill:rgb(71,29,97);"/>
                </g>
                <g transform="matrix(0.208153,-0.140553,0.184877,0.273796,517.203,604.84)">
                    <path d="M72,248L141,131L287,112L254,153L165,160L148.587,190.382L118,247L72,248Z" style="fill:rgb(71,29,97);"/>
                </g>
                <g transform="matrix(0.237083,-0.0829131,0.109061,0.311849,559.798,579.221)">
                    <path d="M72,248L141,131L287,112L254,153L165,160L148.587,190.382L118,247L72,248Z" style="fill:rgb(71,29,97);"/>
                </g>
            </g>
            <g transform="matrix(0.57854,-4.36599e-07,4.36599e-07,0.57854,159.211,269.392)">
                <g transform="matrix(1.38939,0,0,1.38939,-113.325,-242.981)">
                    <circle cx="535" cy="681" r="57" style="fill:rgb(71,29,97);"/>
                </g>
                <g transform="matrix(0.251163,0,0,0.330369,608.916,564.534)">
                    <path d="M72,248L141,131L287,112L254,153L165,160L148.587,190.382L118,247L72,248Z" style="fill:rgb(71,29,97);"/>
                </g>
                <g transform="matrix(0.215651,0.128753,-0.169357,0.283659,678.884,566.536)">
                    <path d="M72,248L141,131L287,112L254,153L165,160L148.587,190.382L118,247L72,248Z" style="fill:rgb(71,29,97);"/>
                </g>
                <g transform="matrix(0.126668,0.216883,-0.285279,0.166614,738.809,601.396)">
                    <path d="M72,248L141,131L287,112L254,153L165,160L148.587,190.382L118,247L72,248Z" style="fill:rgb(71,29,97);"/>
                </g>
                <g transform="matrix(0.0285841,0.249531,-0.328223,0.0375984,770.536,653.673)">
                    <path d="M72,248L141,131L287,112L254,153L165,160L148.587,190.382L118,247L72,248Z" style="fill:rgb(71,29,97);"/>
                </g>
                <g transform="matrix(-0.114861,0.22336,-0.293799,-0.151084,782.652,726.378)">
                    <path d="M72,248L141,131L287,112L254,153L165,160L148.587,190.382L118,247L72,248Z" style="fill:rgb(71,29,97);"/>
                </g>
                <g transform="matrix(-0.20504,0.145056,-0.190801,-0.269702,756.191,790.9)">
                    <path d="M72,248L141,131L287,112L254,153L165,160L148.587,190.382L118,247L72,248Z" style="fill:rgb(71,29,97);"/>
                </g>
                <g transform="matrix(-0.233367,0.0928575,-0.122141,-0.306962,715.741,822.48)">
                    <path d="M72,248L141,131L287,112L254,153L165,160L148.587,190.382L118,247L72,248Z" style="fill:rgb(71,29,97);"/>
                </g>
                <g transform="matrix(-0.251103,0.00549893,-0.00723307,-0.33029,662.417,845.138)">
                    <path d="M72,248L141,131L287,112L254,153L165,160L148.587,190.382L118,247L72,248Z" style="fill:rgb(71,29,97);"/>
                </g>
                <g transform="matrix(-0.229474,-0.1021,0.134298,-0.301841,600.821,847.024)">
                    <path d="M72,248L141,131L287,112L254,153L165,160L148.587,190.382L118,247L72,248Z" style="fill:rgb(71,29,97);"/>
                </g>
                <g transform="matrix(-0.177411,-0.177787,0.233854,-0.233359,551.196,823.183)">
                    <path d="M72,248L141,131L287,112L254,153L165,160L148.587,190.382L118,247L72,248Z" style="fill:rgb(71,29,97);"/>
                </g>
                <g transform="matrix(-0.0704424,-0.241082,0.31711,-0.0926571,500.409,774.846)">
                    <path d="M72,248L141,131L287,112L254,153L165,160L148.587,190.382L118,247L72,248Z" style="fill:rgb(71,29,97);"/>
                </g>
                <g transform="matrix(0.0182076,-0.250502,0.3295,0.0239495,487.266,724.548)">
                    <path d="M72,248L141,131L287,112L254,153L165,160L148.587,190.382L118,247L72,248Z" style="fill:rgb(71,29,97);"/>
                </g>
                <g transform="matrix(0.0837495,-0.236788,0.311462,0.110161,492.748,673.568)">
                    <path d="M72,248L141,131L287,112L254,153L165,160L148.587,190.382L118,247L72,248Z" style="fill:rgb(71,29,97);"/>
                </g>
                <g transform="matrix(0.208153,-0.140553,0.184877,0.273796,517.203,604.84)">
                    <path d="M72,248L141,131L287,112L254,153L165,160L148.587,190.382L118,247L72,248Z" style="fill:rgb(71,29,97);"/>
                </g>
                <g transform="matrix(0.237083,-0.0829131,0.109061,0.311849,559.798,579.221)">
                    <path d="M72,248L141,131L287,112L254,153L165,160L148.587,190.382L118,247L72,248Z" style="fill:rgb(71,29,97);"/>
                </g>
            </g>
            <g transform="matrix(0.57854,-4.36599e-07,4.36599e-07,0.57854,290.83,269.764)">
                <g transform="matrix(1.38939,0,0,1.38939,-113.325,-242.981)">
                    <circle cx="535" cy="681" r="57" style="fill:rgb(71,29,97);"/>
                </g>
                <g transform="matrix(0.251163,0,0,0.330369,608.916,564.534)">
                    <path d="M72,248L141,131L287,112L254,153L165,160L148.587,190.382L118,247L72,248Z" style="fill:rgb(71,29,97);"/>
                </g>
                <g transform="matrix(0.215651,0.128753,-0.169357,0.283659,678.884,566.536)">
                    <path d="M72,248L141,131L287,112L254,153L165,160L148.587,190.382L118,247L72,248Z" style="fill:rgb(71,29,97);"/>
                </g>
                <g transform="matrix(0.126668,0.216883,-0.285279,0.166614,738.809,601.396)">
                    <path d="M72,248L141,131L287,112L254,153L165,160L148.587,190.382L118,247L72,248Z" style="fill:rgb(71,29,97);"/>
                </g>
                <g transform="matrix(0.0285841,0.249531,-0.328223,0.0375984,770.536,653.673)">
                    <path d="M72,248L141,131L287,112L254,153L165,160L148.587,190.382L118,247L72,248Z" style="fill:rgb(71,29,97);"/>
                </g>
                <g transform="matrix(-0.114861,0.22336,-0.293799,-0.151084,782.652,726.378)">
                    <path d="M72,248L141,131L287,112L254,153L165,160L148.587,190.382L118,247L72,248Z" style="fill:rgb(71,29,97);"/>
                </g>
                <g transform="matrix(-0.20504,0.145056,-0.190801,-0.269702,756.191,790.9)">
                    <path d="M72,248L141,131L287,112L254,153L165,160L148.587,190.382L118,247L72,248Z" style="fill:rgb(71,29,97);"/>
                </g>
                <g transform="matrix(-0.233367,0.0928575,-0.122141,-0.306962,715.741,822.48)">
                    <path d="M72,248L141,131L287,112L254,153L165,160L148.587,190.382L118,247L72,248Z" style="fill:rgb(71,29,97);"/>
                </g>
                <g transform="matrix(-0.251103,0.00549893,-0.00723307,-0.33029,662.417,845.138)">
                    <path d="M72,248L141,131L287,112L254,153L165,160L148.587,190.382L118,247L72,248Z" style="fill:rgb(71,29,97);"/>
                </g>
                <g transform="matrix(-0.229474,-0.1021,0.134298,-0.301841,600.821,847.024)">
                    <path d="M72,248L141,131L287,112L254,153L165,160L148.587,190.382L118,247L72,248Z" style="fill:rgb(71,29,97);"/>
                </g>
                <g transform="matrix(-0.177411,-0.177787,0.233854,-0.233359,551.196,823.183)">
                    <path d="M72,248L141,131L287,112L254,153L165,160L148.587,190.382L118,247L72,248Z" style="fill:rgb(71,29,97);"/>
                </g>
                <g transform="matrix(-0.0704424,-0.241082,0.31711,-0.0926571,500.409,774.846)">
                    <path d="M72,248L141,131L287,112L254,153L165,160L148.587,190.382L118,247L72,248Z" style="fill:rgb(71,29,97);"/>
                </g>
                <g transform="matrix(0.0182076,-0.250502,0.3295,0.0239495,487.266,724.548)">
                    <path d="M72,248L141,131L287,112L254,153L165,160L148.587,190.382L118,247L72,248Z" style="fill:rgb(71,29,97);"/>
                </g>
                <g transform="matrix(0.0837495,-0.236788,0.311462,0.110161,492.748,673.568)">
                    <path d="M72,248L141,131L287,112L254,153L165,160L148.587,190.382L118,247L72,248Z" style="fill:rgb(71,29,97);"/>
                </g>
                <g transform="matrix(0.208153,-0.140553,0.184877,0.273796,517.203,604.84)">
                    <path d="M72,248L141,131L287,112L254,153L165,160L148.587,190.382L118,247L72,248Z" style="fill:rgb(71,29,97);"/>
                </g>
                <g transform="matrix(0.237083,-0.0829131,0.109061,0.311849,559.798,579.221)">
                    <path d="M72,248L141,131L287,112L254,153L165,160L148.587,190.382L118,247L72,248Z" style="fill:rgb(71,29,97);"/>
                </g>
            </g>
            <g transform="matrix(0.57854,-4.36599e-07,4.36599e-07,0.57854,381.844,172.405)">
                <g transform="matrix(1.38939,0,0,1.38939,-113.325,-242.981)">
                    <circle cx="535" cy="681" r="57" style="fill:rgb(71,29,97);"/>
                </g>
                <g transform="matrix(0.251163,0,0,0.330369,608.916,564.534)">
                    <path d="M72,248L141,131L287,112L254,153L165,160L148.587,190.382L118,247L72,248Z" style="fill:rgb(71,29,97);"/>
                </g>
                <g transform="matrix(0.215651,0.128753,-0.169357,0.283659,678.884,566.536)">
                    <path d="M72,248L141,131L287,112L254,153L165,160L148.587,190.382L118,247L72,248Z" style="fill:rgb(71,29,97);"/>
                </g>
                <g transform="matrix(0.126668,0.216883,-0.285279,0.166614,738.809,601.396)">
                    <path d="M72,248L141,131L287,112L254,153L165,160L148.587,190.382L118,247L72,248Z" style="fill:rgb(71,29,97);"/>
                </g>
                <g transform="matrix(0.0285841,0.249531,-0.328223,0.0375984,770.536,653.673)">
                    <path d="M72,248L141,131L287,112L254,153L165,160L148.587,190.382L118,247L72,248Z" style="fill:rgb(71,29,97);"/>
                </g>
                <g transform="matrix(-0.114861,0.22336,-0.293799,-0.151084,782.652,726.378)">
                    <path d="M72,248L141,131L287,112L254,153L165,160L148.587,190.382L118,247L72,248Z" style="fill:rgb(71,29,97);"/>
                </g>
                <g transform="matrix(-0.20504,0.145056,-0.190801,-0.269702,756.191,790.9)">
                    <path d="M72,248L141,131L287,112L254,153L165,160L148.587,190.382L118,247L72,248Z" style="fill:rgb(71,29,97);"/>
                </g>
                <g transform="matrix(-0.233367,0.0928575,-0.122141,-0.306962,715.741,822.48)">
                    <path d="M72,248L141,131L287,112L254,153L165,160L148.587,190.382L118,247L72,248Z" style="fill:rgb(71,29,97);"/>
                </g>
                <g transform="matrix(-0.251103,0.00549893,-0.00723307,-0.33029,662.417,845.138)">
                    <path d="M72,248L141,131L287,112L254,153L165,160L148.587,190.382L118,247L72,248Z" style="fill:rgb(71,29,97);"/>
                </g>
                <g transform="matrix(-0.229474,-0.1021,0.134298,-0.301841,600.821,847.024)">
                    <path d="M72,248L141,131L287,112L254,153L165,160L148.587,190.382L118,247L72,248Z" style="fill:rgb(71,29,97);"/>
                </g>
                <g transform="matrix(-0.177411,-0.177787,0.233854,-0.233359,551.196,823.183)">
                    <path d="M72,248L141,131L287,112L254,153L165,160L148.587,190.382L118,247L72,248Z" style="fill:rgb(71,29,97);"/>
                </g>
                <g transform="matrix(-0.0704424,-0.241082,0.31711,-0.0926571,500.409,774.846)">
                    <path d="M72,248L141,131L287,112L254,153L165,160L148.587,190.382L118,247L72,248Z" style="fill:rgb(71,29,97);"/>
                </g>
                <g transform="matrix(0.0182076,-0.250502,0.3295,0.0239495,487.266,724.548)">
                    <path d="M72,248L141,131L287,112L254,153L165,160L148.587,190.382L118,247L72,248Z" style="fill:rgb(71,29,97);"/>
                </g>
                <g transform="matrix(0.0837495,-0.236788,0.311462,0.110161,492.748,673.568)">
                    <path d="M72,248L141,131L287,112L254,153L165,160L148.587,190.382L118,247L72,248Z" style="fill:rgb(71,29,97);"/>
                </g>
                <g transform="matrix(0.208153,-0.140553,0.184877,0.273796,517.203,604.84)">
                    <path d="M72,248L141,131L287,112L254,153L165,160L148.587,190.382L118,247L72,248Z" style="fill:rgb(71,29,97);"/>
                </g>
                <g transform="matrix(0.237083,-0.0829131,0.109061,0.311849,559.798,579.221)">
                    <path d="M72,248L141,131L287,112L254,153L165,160L148.587,190.382L118,247L72,248Z" style="fill:rgb(71,29,97);"/>
                </g>
            </g>
        </g>
        <g transform="matrix(1.28144,0,0,1.22918,-149.887,-123.343)">
            <clipPath id="_clip2">
                <rect x="347.752" y="586.937" width="477.007" height="170.223"/>
            </clipPath>
            <g clip-path="url(#_clip2)">
                <g transform="matrix(1.05469,0,0,1.31225,37.0545,-310.255)">
                    <clipPath id="_clip3">
                        <rect x="294.586" y="660.08" width="96.776" height="80.92"/>
                    </clipPath>
                    <g clip-path="url(#_clip3)">
                        <path d="M370,581C414.153,581 450,616.847 450,661C450,705.153 414.153,741 370,741C325.847,741 290,705.153 290,661C290,616.847 325.847,581 370,581ZM370,585.819C411.493,585.819 445.181,619.507 445.181,661C445.181,702.493 411.493,736.181 370,736.181C328.507,736.181 294.819,702.493 294.819,661C294.819,619.507 328.507,585.819 370,585.819Z" style="fill:rgb(3,205,199);"/>
                    </g>
                </g>
                <g transform="matrix(1.09068,0,0,1.19881,127.139,-131.16)">
                    <clipPath id="_clip4">
                        <rect x="289.503" y="655.939" width="137.987" height="136.478"/>
                    </clipPath>
                    <g clip-path="url(#_clip4)">
                        <path d="M370,581C414.153,581 450,616.847 450,661C450,705.153 414.153,741 370,741C325.847,741 290,705.153 290,661C290,616.847 325.847,581 370,581ZM370,586.783C410.961,586.783 444.217,620.039 444.217,661C444.217,701.961 410.961,735.217 370,735.217C329.039,735.217 295.783,701.961 295.783,661C295.783,620.039 329.039,586.783 370,586.783Z" style="fill:rgb(3,205,199);"/>
                    </g>
                </g>
                <g transform="matrix(-1.07041,0,0,1.13922,1051.01,-87.48)">
                    <clipPath id="_clip5">
                        <rect x="289.503" y="650.861" width="138.829" height="140.629"/>
                    </clipPath>
                    <g clip-path="url(#_clip5)">
                        <path d="M370,581C414.153,581 450,616.847 450,661C450,705.153 414.153,741 370,741C325.847,741 290,705.153 290,661C290,616.847 325.847,581 370,581ZM370,586.783C410.962,586.783 444.217,620.038 444.217,661C444.217,701.962 410.962,735.217 370,735.217C329.038,735.217 295.783,701.962 295.783,661C295.783,620.038 329.038,586.783 370,586.783Z" style="fill:rgb(3,205,199);"/>
                    </g>
                </g>
                <g transform="matrix(-1.05469,0,0,1.31225,1135.05,-316.252)">
                    <clipPath id="_clip6">
                        <rect x="294.196" y="668.775" width="86.315" height="72.225"/>
                    </clipPath>
                    <g clip-path="url(#_clip6)">
                        <path d="M370,581C414.153,581 450,616.847 450,661C450,705.153 414.153,741 370,741C325.847,741 290,705.153 290,661C290,616.847 325.847,581 370,581ZM370,585.819C411.493,585.819 445.181,619.507 445.181,661C445.181,702.493 411.493,736.181 370,736.181C328.507,736.181 294.819,702.493 294.819,661C294.819,619.507 328.507,585.819 370,585.819Z" style="fill:rgb(3,205,199);"/>
                    </g>
                </g>
            </g>
        </g>
        <g transform="matrix(0.378784,0,0,1.15178,762.488,-119.54)">
            <rect x="363" y="252" width="37" height="625" style="fill:rgb(224,224,224);"/>
        </g>
        <g transform="matrix(0.378784,0,0,1.15178,151.231,-119.54)">
            <rect x="363" y="252" width="37" height="625" style="fill:rgb(224,224,224);"/>
        </g>
        <g>
            <g transform="matrix(1.27409,0,0,1.27409,-114.52,-123.607)">
                <g transform="matrix(1,0,0,1,-5,-18)">
                    <path d="M443,779L451,793.5L443,808L435,793.5L443,779Z" style="fill:rgb(181,234,255);"/>
                </g>
                <g transform="matrix(1,0,0,1,-5,-59)">
                    <path d="M443,779L451,793.5L443,808L435,793.5L443,779Z" style="fill:rgb(181,234,255);"/>
                </g>
                <g transform="matrix(1,0,0,1,-5,25)">
                    <path d="M443,779L451,793.5L443,808L435,793.5L443,779Z" style="fill:rgb(181,234,255);"/>
                </g>
            </g>
            <g transform="matrix(1.27409,0,0,1.27409,-36.8007,-86.6583)">
                <g transform="matrix(1,0,0,1,-5,-18)">
                    <path d="M443,779L451,793.5L443,808L435,793.5L443,779Z" style="fill:rgb(181,234,255);"/>
                </g>
                <g transform="matrix(1,0,0,1,-5,-59)">
                    <path d="M443,779L451,793.5L443,808L435,793.5L443,779Z" style="fill:rgb(181,234,255);"/>
                </g>
                <g transform="matrix(1,0,0,1,-5,25)">
                    <path d="M443,779L451,793.5L443,808L435,793.5L443,779Z" style="fill:rgb(181,234,255);"/>
                </g>
            </g>
            <g transform="matrix(1.27409,0,0,1.27409,43.467,-121.059)">
                <g transform="matrix(1,0,0,1,-5,-18)">
                    <path d="M443,779L451,793.5L443,808L435,793.5L443,779Z" style="fill:rgb(181,234,255);"/>
                </g>
                <g transform="matrix(1,0,0,1,-5,-59)">
                    <path d="M443,779L451,793.5L443,808L435,793.5L443,779Z" style="fill:rgb(181,234,255);"/>
                </g>
                <g transform="matrix(1,0,0,1,-5,25)">
                    <path d="M443,779L451,793.5L443,808L435,793.5L443,779Z" style="fill:rgb(181,234,255);"/>
                </g>
            </g>
            <g transform="matrix(1.27409,0,0,1.27409,118.638,-87.9324)">
                <g transform="matrix(1,0,0,1,-5,-18)">
                    <path d="M443,779L451,793.5L443,808L435,793.5L443,779Z" style="fill:rgb(181,234,255);"/>
                </g>
                <g transform="matrix(1,0,0,1,-5,-59)">
                    <path d="M443,779L451,793.5L443,808L435,793.5L443,779Z" style="fill:rgb(181,234,255);"/>
                </g>
                <g transform="matrix(1,0,0,1,-5,25)">
                    <path d="M443,779L451,793.5L443,808L435,793.5L443,779Z" style="fill:rgb(181,234,255);"/>
                </g>
            </g>
            <g transform="matrix(1.27409,0,0,1.27409,207.825,-121.059)">
                <g transform="matrix(1,0,0,1,-5,-18)">
                    <path d="M443,779L451,793.5L443,808L435,793.5L443,779Z" style="fill:rgb(181,234,255);"/>
                </g>
                <g transform="matrix(1,0,0,1,-5,-59)">
                    <path d="M443,779L451,793.5L443,808L435,793.5L443,779Z" style="fill:rgb(181,234,255);"/>
                </g>
                <g transform="matrix(1,0,0,1,-5,25)">
                    <path d="M443,779L451,793.5L443,808L435,793.5L443,779Z" style="fill:rgb(181,234,255);"/>
                </g>
            </g>
            <g transform="matrix(1.27409,0,0,1.27409,263.885,-210.245)">
                <g transform="matrix(1,0,0,1,-5,-18)">
                    <path d="M443,779L451,793.5L443,808L435,793.5L443,779Z" style="fill:rgb(181,234,255);"/>
                </g>
                <g transform="matrix(1,0,0,1,-5,-59)">
                    <path d="M443,779L451,793.5L443,808L435,793.5L443,779Z" style="fill:rgb(181,234,255);"/>
                </g>
                <g transform="matrix(1,0,0,1,-5,25)">
                    <path d="M443,779L451,793.5L443,808L435,793.5L443,779Z" style="fill:rgb(181,234,255);"/>
                </g>
            </g>
            <g transform="matrix(1.27409,0,0,1.27409,-176.951,-209.608)">
                <g transform="matrix(1,0,0,1,-5,-18)">
                    <path d="M443,779L451,793.5L443,808L435,793.5L443,779Z" style="fill:rgb(181,234,255);"/>
                </g>
                <g transform="matrix(1,0,0,1,-5,-59)">
                    <path d="M443,779L451,793.5L443,808L435,793.5L443,779Z" style="fill:rgb(181,234,255);"/>
                </g>
                <g transform="matrix(1,0,0,1,-5,25)">
                    <path d="M443,779L451,793.5L443,808L435,793.5L443,779Z" style="fill:rgb(181,234,255);"/>
                </g>
            </g>
        </g>
        <g>
            <g transform="matrix(1.27409,0,0,1.27409,315.346,-166.887)">
                <rect x="109" y="393.162" width="19.838" height="19.838" style="fill:rgb(255,120,155);"/>
            </g>
            <g transform="matrix(1.02723,0.753726,-0.753726,1.02723,928.966,-158.862)">
                <rect x="109" y="393.162" width="19.838" height="19.838" style="fill:rgb(255,120,155);"/>
            </g>
        </g>
        <g>
            <g transform="matrix(0.318523,0,0,0.318523,324.266,325.729)">
                <path d="M231,775L237.927,803.149L256.259,785.25L249.924,810.076L277.765,802L256.851,822.073L281.518,829L256.851,835.927L277.765,856L249.924,847.924L256.259,872.75L237.927,854.851L231,883L224.073,854.851L205.741,872.75L212.076,847.924L184.235,856L205.149,835.927L180.482,829L205.149,822.073L184.235,802L212.076,810.076L205.741,785.25L224.073,803.149L231,775Z" style="fill:rgb(255,120,155);"/>
            </g>
            <g transform="matrix(0.318523,0,0,0.318523,450.489,442.577)">
                <path d="M231,775L237.927,803.149L256.259,785.25L249.924,810.076L277.765,802L256.851,822.073L281.518,829L256.851,835.927L277.765,856L249.924,847.924L256.259,872.75L237.927,854.851L231,883L224.073,854.851L205.741,872.75L212.076,847.924L184.235,856L205.149,835.927L180.482,829L205.149,822.073L184.235,802L212.076,810.076L205.741,785.25L224.073,803.149L231,775Z" style="fill:rgb(255,120,155);"/>
            </g>
            <g transform="matrix(0.318523,0,0,0.318523,617.275,443.674)">
                <path d="M231,775L237.927,803.149L256.259,785.25L249.924,810.076L277.765,802L256.851,822.073L281.518,829L256.851,835.927L277.765,856L249.924,847.924L256.259,872.75L237.927,854.851L231,883L224.073,854.851L205.741,872.75L212.076,847.924L184.235,856L205.149,835.927L180.482,829L205.149,822.073L184.235,802L212.076,810.076L205.741,785.25L224.073,803.149L231,775Z" style="fill:rgb(255,120,155);"/>
            </g>
            <g transform="matrix(0.318523,0,0,0.318523,735.193,318.392)">
                <path d="M231,775L237.927,803.149L256.259,785.25L249.924,810.076L277.765,802L256.851,822.073L281.518,829L256.851,835.927L277.765,856L249.924,847.924L256.259,872.75L237.927,854.851L231,883L224.073,854.851L205.741,872.75L212.076,847.924L184.235,856L205.149,835.927L180.482,829L205.149,822.073L184.235,802L212.076,810.076L205.741,785.25L224.073,803.149L231,775Z" style="fill:rgb(255,120,155);"/>
            </g>
        </g>
        <g>
            <g transform="matrix(0.152661,-0.471584,0.414226,0.134093,716.092,341.983)">
                <rect x="85" y="360" width="5" height="270" style="fill:white;fill-opacity:0.57229;"/>
            </g>
            <g transform="matrix(0.282242,-0.407476,0.357914,0.247913,638.917,816.376)">
                <rect x="85" y="360" width="5" height="270" style="fill:white;fill-opacity:0.57229;"/>
            </g>
            <g transform="matrix(-0.275599,-0.411998,0.394815,-0.264105,106.741,881.786)">
                <rect x="85" y="360" width="5" height="270" style="fill:white;fill-opacity:0.57229;"/>
            </g>
            <g transform="matrix(0.319752,-0.363075,0.318914,0.28086,97.7007,402.354)">
                <rect x="85" y="360" width="5" height="270" style="fill:white;fill-opacity:0.57229;"/>
            </g>
            <g transform="matrix(2.19662,0,0,2.3031,-1013.33,-821.082)">
                <path d="M918.678,532.971L918.082,532.971L918.082,524.131L922.077,524.131C922.653,524.131 923.14,524.365 923.538,524.832C923.945,525.299 924.149,525.86 924.149,526.516C924.149,527.202 923.945,527.788 923.538,528.275C923.14,528.762 922.653,529.006 922.077,529.006L918.678,529.006L918.678,532.971ZM918.678,528.439L921.973,528.439C922.41,528.439 922.783,528.26 923.091,527.902C923.399,527.555 923.553,527.127 923.553,526.62C923.553,526.094 923.399,525.642 923.091,525.264C922.783,524.896 922.41,524.712 921.973,524.712L918.678,524.712L918.678,528.439Z" style="fill:white;fill-rule:nonzero;"/>
                <path d="M926.012,532.971L925.416,532.971L925.416,526.62L926.012,526.62L926.012,528.051C926.181,527.594 926.43,527.222 926.758,526.933C927.096,526.655 927.453,526.516 927.831,526.516L928.174,526.516L928.174,527.202C928.144,527.202 928.109,527.192 928.07,527.172C928.04,527.152 928.02,527.142 928.01,527.142C927.543,527.142 927.12,527.341 926.743,527.738C926.365,528.136 926.122,528.638 926.012,529.244L926.012,532.971Z" style="fill:white;fill-rule:nonzero;"/>
                <path d="M929.814,532.971L929.217,532.971L929.217,526.62L929.814,526.62L929.814,532.971ZM929.217,525.04L929.217,524.131L929.814,524.131L929.814,525.04L929.217,525.04Z" style="fill:white;fill-rule:nonzero;"/>
                <path d="M932.318,532.971L931.722,532.971L931.722,526.62L932.318,526.62L932.318,527.694C932.497,527.316 932.75,527.018 933.078,526.799C933.406,526.571 933.759,526.456 934.137,526.456C934.584,526.456 934.976,526.576 935.314,526.814C935.662,527.063 935.886,527.376 935.985,527.753C936.174,527.356 936.457,527.043 936.835,526.814C937.222,526.576 937.645,526.456 938.102,526.456C938.668,526.456 939.155,526.65 939.563,527.038C939.96,527.425 940.159,527.892 940.159,528.439L940.159,532.971L939.563,532.971L939.563,528.439C939.563,528.022 939.419,527.664 939.13,527.366C938.852,527.068 938.509,526.919 938.102,526.919C937.635,526.919 937.217,527.083 936.85,527.41C936.482,527.738 936.253,528.156 936.164,528.663L936.164,532.971L935.568,532.971L935.568,528.439C935.568,528.022 935.433,527.664 935.165,527.366C934.897,527.068 934.574,526.919 934.196,526.919C933.749,526.919 933.347,527.092 932.989,527.44C932.641,527.798 932.417,528.245 932.318,528.782L932.318,532.971Z" style="fill:white;fill-rule:nonzero;"/>
                <path d="M943.722,533.194C943.096,533.194 942.564,533.02 942.127,532.673C941.679,532.315 941.456,531.887 941.456,531.391C941.456,530.914 941.674,530.496 942.112,530.138C942.539,529.781 943.076,529.572 943.722,529.512C944.348,529.453 944.86,529.353 945.257,529.214C945.665,529.075 945.868,528.911 945.868,528.722L945.868,528.156C945.868,527.828 945.689,527.55 945.332,527.321C944.984,527.092 944.556,526.978 944.05,526.978C943.573,526.978 943.16,527.087 942.812,527.306C942.474,527.535 942.306,527.803 942.306,528.111L942.306,528.439L941.739,528.439L941.739,528.051C941.739,527.624 941.963,527.261 942.41,526.963C942.867,526.665 943.414,526.516 944.05,526.516C944.706,526.516 945.267,526.66 945.734,526.948C946.201,527.237 946.435,527.584 946.435,527.992L946.435,531.838C946.435,532.086 946.489,532.3 946.599,532.479C946.708,532.658 946.842,532.747 947.001,532.747C947.051,532.747 947.096,532.742 947.135,532.732C947.175,532.722 947.205,532.707 947.225,532.687L947.225,532.971C947.076,533.04 946.887,533.075 946.658,533.075C946.43,533.075 946.231,532.976 946.062,532.777C945.903,532.578 945.824,532.34 945.824,532.061C945.704,532.399 945.451,532.673 945.063,532.881C944.676,533.09 944.229,533.194 943.722,533.194ZM943.722,532.747C944.248,532.747 944.715,532.573 945.123,532.225C945.53,531.887 945.779,531.455 945.868,530.928L945.868,529.468C945.729,529.587 945.476,529.686 945.108,529.766C944.76,529.845 944.298,529.91 943.722,529.96C943.255,529.999 942.862,530.158 942.544,530.437C942.226,530.705 942.067,531.023 942.067,531.391C942.067,531.768 942.231,532.086 942.559,532.345C942.877,532.613 943.265,532.747 943.722,532.747Z" style="fill:white;fill-rule:nonzero;"/>
                <path d="M948.969,532.971L948.373,532.971L948.373,526.62L948.969,526.62L948.969,528.051C949.138,527.594 949.386,527.222 949.714,526.933C950.052,526.655 950.41,526.516 950.788,526.516L951.13,526.516L951.13,527.202C951.101,527.202 951.066,527.192 951.026,527.172C950.996,527.152 950.976,527.142 950.966,527.142C950.499,527.142 950.077,527.341 949.699,527.738C949.322,528.136 949.078,528.638 948.969,529.244L948.969,532.971Z" style="fill:white;fill-rule:nonzero;"/>
                <path d="M951.906,535.356L951.906,534.909L952.368,534.909C952.596,534.909 952.845,534.725 953.113,534.357C953.381,533.989 953.625,533.507 953.843,532.911L951.414,526.62L951.965,526.62L954.127,532.181L956.273,526.62L956.855,526.62L954.127,533.656C953.938,534.163 953.694,534.576 953.396,534.894C953.088,535.202 952.78,535.356 952.472,535.356L951.906,535.356Z" style="fill:white;fill-rule:nonzero;"/>
                <path d="M966.425,533.194C965.272,533.194 964.283,532.742 963.458,531.838C962.643,530.933 962.236,529.84 962.236,528.558C962.236,527.276 962.643,526.178 963.458,525.264C964.283,524.36 965.272,523.907 966.425,523.907C967.299,523.907 968.07,524.166 968.735,524.683C969.401,525.189 969.804,525.835 969.943,526.62L969.347,526.62C969.237,526.004 968.904,525.492 968.348,525.085C967.801,524.678 967.16,524.474 966.425,524.474C965.431,524.474 964.586,524.871 963.891,525.666C963.185,526.471 962.832,527.435 962.832,528.558C962.832,529.681 963.185,530.645 963.891,531.45C964.586,532.245 965.431,532.643 966.425,532.643C967.27,532.643 967.99,532.32 968.586,531.674C969.183,531.038 969.481,530.263 969.481,529.348L969.481,529.125L966.425,529.125L966.425,528.558L969.943,528.558L969.943,532.971L969.481,532.971L969.481,531.152C969.262,531.768 968.87,532.26 968.303,532.628C967.747,533.006 967.12,533.194 966.425,533.194Z" style="fill:white;fill-rule:nonzero;"/>
                <path d="M972.089,532.971L971.493,532.971L971.493,526.62L972.089,526.62L972.089,528.051C972.258,527.594 972.507,527.222 972.835,526.933C973.173,526.655 973.53,526.516 973.908,526.516L974.251,526.516L974.251,527.202C974.221,527.202 974.186,527.192 974.147,527.172C974.117,527.152 974.097,527.142 974.087,527.142C973.62,527.142 973.197,527.341 972.82,527.738C972.442,528.136 972.199,528.638 972.089,529.244L972.089,532.971Z" style="fill:white;fill-rule:nonzero;"/>
                <path d="M975.891,532.971L975.294,532.971L975.294,526.62L975.891,526.62L975.891,532.971ZM975.294,525.04L975.294,524.131L975.891,524.131L975.891,525.04L975.294,525.04Z" style="fill:white;fill-rule:nonzero;"/>
                <path d="M978.395,532.971L977.799,532.971L977.799,526.62L978.395,526.62L978.395,527.694C978.574,527.316 978.847,527.018 979.215,526.799C979.583,526.571 979.99,526.456 980.437,526.456C981.063,526.456 981.595,526.66 982.032,527.068C982.479,527.485 982.703,527.982 982.703,528.558L982.703,532.971L982.107,532.971L982.107,528.558C982.107,528.121 981.943,527.748 981.615,527.44C981.287,527.132 980.894,526.978 980.437,526.978C979.94,526.978 979.498,527.147 979.111,527.485C978.723,527.833 978.484,528.265 978.395,528.782L978.395,532.971Z" style="fill:white;fill-rule:nonzero;"/>
                <path d="M986.862,533.135C986.097,533.135 985.441,532.807 984.894,532.151C984.348,531.505 984.074,530.72 984.074,529.796C984.074,528.861 984.348,528.061 984.894,527.396C985.441,526.73 986.097,526.397 986.862,526.397C987.349,526.397 987.796,526.541 988.204,526.829C988.601,527.127 988.889,527.515 989.068,527.992L989.068,524.131L989.665,524.131L989.665,532.971L989.068,532.971L989.068,531.674C988.909,532.111 988.626,532.464 988.219,532.732C987.821,533.001 987.369,533.135 986.862,533.135ZM986.862,532.687C987.468,532.687 987.99,532.404 988.427,531.838C988.855,531.271 989.068,530.591 989.068,529.796C989.068,529.001 988.855,528.325 988.427,527.768C987.99,527.202 987.468,526.919 986.862,526.919C986.256,526.919 985.739,527.202 985.312,527.768C984.884,528.325 984.671,529.001 984.671,529.796C984.671,530.591 984.884,531.271 985.312,531.838C985.739,532.404 986.256,532.687 986.862,532.687Z" style="fill:white;fill-rule:nonzero;"/>
                <path d="M994.017,533.194C993.163,533.194 992.477,532.886 991.96,532.27C991.443,531.644 991.185,530.819 991.185,529.796C991.185,528.772 991.443,527.947 991.96,527.321C992.477,526.705 993.163,526.397 994.017,526.397C994.872,526.397 995.558,526.68 996.074,527.247C996.591,527.813 996.85,528.568 996.85,529.512L996.85,529.796L991.781,529.796C991.781,530.66 991.985,531.351 992.392,531.868C992.8,532.384 993.342,532.643 994.017,532.643C994.524,532.643 994.981,532.509 995.389,532.24C995.806,531.962 996.094,531.599 996.253,531.152L996.85,531.152C996.75,531.738 996.432,532.225 995.896,532.613C995.359,533.001 994.733,533.194 994.017,533.194ZM991.781,529.229L996.253,529.229L996.253,529.006C996.204,528.419 995.965,527.922 995.538,527.515C995.101,527.117 994.594,526.919 994.017,526.919C993.441,526.919 992.939,527.122 992.512,527.53C992.074,527.947 991.831,528.459 991.781,529.065L991.781,529.229Z" style="fill:white;fill-rule:nonzero;"/>
                <path d="M998.847,532.971L998.251,532.971L998.251,526.62L998.847,526.62L998.847,528.051C999.016,527.594 999.265,527.222 999.592,526.933C999.93,526.655 1000.29,526.516 1000.67,526.516L1001.01,526.516L1001.01,527.202C1000.98,527.202 1000.94,527.192 1000.9,527.172C1000.87,527.152 1000.86,527.142 1000.85,527.142C1000.38,527.142 999.955,527.341 999.578,527.738C999.2,528.136 998.956,528.638 998.847,529.244L998.847,532.971Z" style="fill:white;fill-rule:nonzero;"/>
            </g>
            <g transform="matrix(2.19662,0,0,2.3031,-1856.35,-472.117)">
                <path d="M918.678,532.971L918.082,532.971L918.082,524.131L923.553,524.131L923.553,524.712L918.678,524.712L918.678,528.111L922.986,528.111L922.986,528.663L918.678,528.663L918.678,532.971Z" style="fill:white;fill-rule:nonzero;"/>
                <path d="M925.192,532.971L924.596,532.971L924.596,526.62L925.192,526.62L925.192,532.971ZM924.596,525.04L924.596,524.131L925.192,524.131L925.192,525.04L924.596,525.04Z" style="fill:white;fill-rule:nonzero;"/>
                <rect x="927.101" y="524.131" width="0.596" height="8.84" style="fill:white;fill-rule:nonzero;"/>
                <path d="M930.857,533.194C930.529,533.194 930.246,533.06 930.007,532.792C929.779,532.533 929.665,532.215 929.665,531.838L929.665,527.083L928.755,527.083L928.755,526.62L929.665,526.62L929.665,524.817L930.261,524.817L930.261,526.62L931.125,526.62L931.125,527.083L930.261,527.083L930.261,531.838C930.261,532.086 930.325,532.3 930.455,532.479C930.574,532.658 930.723,532.747 930.902,532.747C931.091,532.747 931.245,532.712 931.364,532.643L931.364,533.075C931.145,533.155 930.976,533.194 930.857,533.194Z" style="fill:white;fill-rule:nonzero;"/>
                <path d="M934.867,533.194C934.012,533.194 933.327,532.886 932.81,532.27C932.293,531.644 932.035,530.819 932.035,529.796C932.035,528.772 932.293,527.947 932.81,527.321C933.327,526.705 934.012,526.397 934.867,526.397C935.722,526.397 936.407,526.68 936.924,527.247C937.441,527.813 937.699,528.568 937.699,529.512L937.699,529.796L932.631,529.796C932.631,530.66 932.835,531.351 933.242,531.868C933.65,532.384 934.191,532.643 934.867,532.643C935.374,532.643 935.831,532.509 936.238,532.24C936.656,531.962 936.944,531.599 937.103,531.152L937.699,531.152C937.6,531.738 937.282,532.225 936.745,532.613C936.209,533.001 935.583,533.194 934.867,533.194ZM932.631,529.229L937.103,529.229L937.103,529.006C937.053,528.419 936.815,527.922 936.388,527.515C935.95,527.117 935.443,526.919 934.867,526.919C934.291,526.919 933.789,527.122 933.361,527.53C932.924,527.947 932.681,528.459 932.631,529.065L932.631,529.229Z" style="fill:white;fill-rule:nonzero;"/>
                <path d="M939.697,532.971L939.101,532.971L939.101,526.62L939.697,526.62L939.697,528.051C939.866,527.594 940.114,527.222 940.442,526.933C940.78,526.655 941.138,526.516 941.515,526.516L941.858,526.516L941.858,527.202C941.829,527.202 941.794,527.192 941.754,527.172C941.724,527.152 941.704,527.142 941.694,527.142C941.227,527.142 940.805,527.341 940.427,527.738C940.05,528.136 939.806,528.638 939.697,529.244L939.697,532.971Z" style="fill:white;fill-rule:nonzero;"/>
            </g>
            <g transform="matrix(2.19662,0,0,2.3031,-1117.01,-260.812)">
                <path d="M921.749,533.194C920.596,533.194 919.607,532.742 918.783,531.838C917.968,530.933 917.56,529.84 917.56,528.558C917.56,527.276 917.968,526.178 918.783,525.264C919.607,524.36 920.596,523.907 921.749,523.907C922.624,523.907 923.394,524.166 924.06,524.683C924.725,525.189 925.128,525.835 925.267,526.62L924.671,526.62C924.561,526.004 924.229,525.492 923.672,525.085C923.125,524.678 922.484,524.474 921.749,524.474C920.755,524.474 919.911,524.871 919.215,525.666C918.509,526.471 918.156,527.435 918.156,528.558C918.156,529.681 918.509,530.645 919.215,531.45C919.911,532.245 920.755,532.643 921.749,532.643C922.594,532.643 923.314,532.32 923.911,531.674C924.507,531.038 924.805,530.263 924.805,529.348L924.805,529.125L921.749,529.125L921.749,528.558L925.267,528.558L925.267,532.971L924.805,532.971L924.805,531.152C924.586,531.768 924.194,532.26 923.627,532.628C923.071,533.006 922.445,533.194 921.749,533.194Z" style="fill:white;fill-rule:nonzero;"/>
                <path d="M927.414,532.971L926.817,532.971L926.817,526.62L927.414,526.62L927.414,528.051C927.583,527.594 927.831,527.222 928.159,526.933C928.497,526.655 928.855,526.516 929.232,526.516L929.575,526.516L929.575,527.202C929.545,527.202 929.511,527.192 929.471,527.172C929.441,527.152 929.421,527.142 929.411,527.142C928.944,527.142 928.522,527.341 928.144,527.738C927.766,528.136 927.523,528.638 927.414,529.244L927.414,532.971Z" style="fill:white;fill-rule:nonzero;"/>
                <path d="M932.363,533.194C931.737,533.194 931.205,533.02 930.768,532.673C930.32,532.315 930.097,531.887 930.097,531.391C930.097,530.914 930.315,530.496 930.753,530.138C931.18,529.781 931.717,529.572 932.363,529.512C932.989,529.453 933.501,529.353 933.898,529.214C934.306,529.075 934.509,528.911 934.509,528.722L934.509,528.156C934.509,527.828 934.33,527.55 933.973,527.321C933.625,527.092 933.197,526.978 932.691,526.978C932.214,526.978 931.801,527.087 931.453,527.306C931.115,527.535 930.947,527.803 930.947,528.111L930.947,528.439L930.38,528.439L930.38,528.051C930.38,527.624 930.604,527.261 931.051,526.963C931.508,526.665 932.055,526.516 932.691,526.516C933.347,526.516 933.908,526.66 934.375,526.948C934.842,527.237 935.076,527.584 935.076,527.992L935.076,531.838C935.076,532.086 935.13,532.3 935.24,532.479C935.349,532.658 935.483,532.747 935.642,532.747C935.692,532.747 935.737,532.742 935.776,532.732C935.816,532.722 935.846,532.707 935.866,532.687L935.866,532.971C935.717,533.04 935.528,533.075 935.299,533.075C935.071,533.075 934.872,532.976 934.703,532.777C934.544,532.578 934.465,532.34 934.465,532.061C934.345,532.399 934.092,532.673 933.704,532.881C933.317,533.09 932.87,533.194 932.363,533.194ZM932.363,532.747C932.889,532.747 933.356,532.573 933.764,532.225C934.171,531.887 934.42,531.455 934.509,530.928L934.509,529.468C934.37,529.587 934.117,529.686 933.749,529.766C933.401,529.845 932.939,529.91 932.363,529.96C931.896,529.999 931.503,530.158 931.185,530.437C930.867,530.705 930.708,531.023 930.708,531.391C930.708,531.768 930.872,532.086 931.2,532.345C931.518,532.613 931.906,532.747 932.363,532.747Z" style="fill:white;fill-rule:nonzero;"/>
                <path d="M937.61,532.971L937.014,532.971L937.014,526.62L937.61,526.62L937.61,527.694C937.789,527.316 938.062,527.018 938.43,526.799C938.797,526.571 939.205,526.456 939.652,526.456C940.278,526.456 940.81,526.66 941.247,527.068C941.694,527.485 941.918,527.982 941.918,528.558L941.918,532.971L941.322,532.971L941.322,528.558C941.322,528.121 941.158,527.748 940.83,527.44C940.502,527.132 940.109,526.978 939.652,526.978C939.155,526.978 938.713,527.147 938.325,527.485C937.938,527.833 937.699,528.265 937.61,528.782L937.61,532.971Z" style="fill:white;fill-rule:nonzero;"/>
                <path d="M945.809,533.135C945.212,533.135 944.701,532.941 944.273,532.553C943.846,532.166 943.632,531.699 943.632,531.152L943.632,526.62L944.229,526.62L944.229,531.152C944.229,531.56 944.383,531.912 944.691,532.21C944.999,532.499 945.371,532.643 945.809,532.643C946.325,532.643 946.788,532.444 947.195,532.047C947.602,531.649 947.861,531.147 947.97,530.541L947.97,526.62L948.566,526.62L948.566,532.971L947.97,532.971L947.97,531.853C947.791,532.24 947.503,532.553 947.106,532.792C946.718,533.02 946.286,533.135 945.809,533.135Z" style="fill:white;fill-rule:nonzero;"/>
                <rect x="950.474" y="524.131" width="0.596" height="8.84" style="fill:white;fill-rule:nonzero;"/>
                <path d="M954.723,533.194C954.097,533.194 953.565,533.02 953.128,532.673C952.681,532.315 952.457,531.887 952.457,531.391C952.457,530.914 952.676,530.496 953.113,530.138C953.54,529.781 954.077,529.572 954.723,529.512C955.349,529.453 955.861,529.353 956.258,529.214C956.666,529.075 956.87,528.911 956.87,528.722L956.87,528.156C956.87,527.828 956.691,527.55 956.333,527.321C955.985,527.092 955.558,526.978 955.051,526.978C954.574,526.978 954.161,527.087 953.814,527.306C953.476,527.535 953.307,527.803 953.307,528.111L953.307,528.439L952.74,528.439L952.74,528.051C952.74,527.624 952.964,527.261 953.411,526.963C953.868,526.665 954.415,526.516 955.051,526.516C955.707,526.516 956.268,526.66 956.735,526.948C957.202,527.237 957.436,527.584 957.436,527.992L957.436,531.838C957.436,532.086 957.491,532.3 957.6,532.479C957.709,532.658 957.843,532.747 958.002,532.747C958.052,532.747 958.097,532.742 958.137,532.732C958.176,532.722 958.206,532.707 958.226,532.687L958.226,532.971C958.077,533.04 957.888,533.075 957.66,533.075C957.431,533.075 957.232,532.976 957.063,532.777C956.904,532.578 956.825,532.34 956.825,532.061C956.706,532.399 956.452,532.673 956.065,532.881C955.677,533.09 955.23,533.194 954.723,533.194ZM954.723,532.747C955.25,532.747 955.717,532.573 956.124,532.225C956.532,531.887 956.78,531.455 956.87,530.928L956.87,529.468C956.73,529.587 956.477,529.686 956.109,529.766C955.761,529.845 955.299,529.91 954.723,529.96C954.256,529.999 953.863,530.158 953.545,530.437C953.227,530.705 953.068,531.023 953.068,531.391C953.068,531.768 953.232,532.086 953.56,532.345C953.878,532.613 954.266,532.747 954.723,532.747Z" style="fill:white;fill-rule:nonzero;"/>
                <path d="M960.626,533.194C960.298,533.194 960.015,533.06 959.776,532.792C959.548,532.533 959.433,532.215 959.433,531.838L959.433,527.083L958.524,527.083L958.524,526.62L959.433,526.62L959.433,524.817L960.03,524.817L960.03,526.62L960.894,526.62L960.894,527.083L960.03,527.083L960.03,531.838C960.03,532.086 960.094,532.3 960.224,532.479C960.343,532.658 960.492,532.747 960.671,532.747C960.86,532.747 961.014,532.712 961.133,532.643L961.133,533.075C960.914,533.155 960.745,533.194 960.626,533.194Z" style="fill:white;fill-rule:nonzero;"/>
                <path d="M964.636,533.194C963.781,533.194 963.096,532.886 962.579,532.27C962.062,531.644 961.804,530.819 961.804,529.796C961.804,528.772 962.062,527.947 962.579,527.321C963.096,526.705 963.781,526.397 964.636,526.397C965.491,526.397 966.176,526.68 966.693,527.247C967.21,527.813 967.468,528.568 967.468,529.512L967.468,529.796L962.4,529.796C962.4,530.66 962.604,531.351 963.011,531.868C963.419,532.384 963.96,532.643 964.636,532.643C965.143,532.643 965.6,532.509 966.007,532.24C966.425,531.962 966.713,531.599 966.872,531.152L967.468,531.152C967.369,531.738 967.051,532.225 966.514,532.613C965.978,533.001 965.351,533.194 964.636,533.194ZM962.4,529.229L966.872,529.229L966.872,529.006C966.822,528.419 966.584,527.922 966.156,527.515C965.719,527.117 965.212,526.919 964.636,526.919C964.06,526.919 963.558,527.122 963.13,527.53C962.693,527.947 962.45,528.459 962.4,529.065L962.4,529.229Z" style="fill:white;fill-rule:nonzero;"/>
                <path d="M971.225,533.135C970.46,533.135 969.804,532.807 969.257,532.151C968.711,531.505 968.437,530.72 968.437,529.796C968.437,528.861 968.711,528.061 969.257,527.396C969.804,526.73 970.46,526.397 971.225,526.397C971.712,526.397 972.159,526.541 972.566,526.829C972.964,527.127 973.252,527.515 973.431,527.992L973.431,524.131L974.027,524.131L974.027,532.971L973.431,532.971L973.431,531.674C973.272,532.111 972.989,532.464 972.581,532.732C972.184,533.001 971.732,533.135 971.225,533.135ZM971.225,532.687C971.831,532.687 972.353,532.404 972.79,531.838C973.217,531.271 973.431,530.591 973.431,529.796C973.431,529.001 973.217,528.325 972.79,527.768C972.353,527.202 971.831,526.919 971.225,526.919C970.619,526.919 970.102,527.202 969.674,527.768C969.247,528.325 969.033,529.001 969.033,529.796C969.033,530.591 969.247,531.271 969.674,531.838C970.102,532.404 970.619,532.687 971.225,532.687Z" style="fill:white;fill-rule:nonzero;"/>
                <path d="M981.302,532.971L980.706,532.971L980.706,524.131L984.701,524.131C985.277,524.131 985.764,524.365 986.161,524.832C986.569,525.299 986.773,525.86 986.773,526.516C986.773,527.202 986.569,527.788 986.161,528.275C985.764,528.762 985.277,529.006 984.701,529.006L981.302,529.006L981.302,532.971ZM981.302,528.439L984.596,528.439C985.033,528.439 985.406,528.26 985.714,527.902C986.022,527.555 986.176,527.127 986.176,526.62C986.176,526.094 986.022,525.642 985.714,525.264C985.406,524.896 985.033,524.712 984.596,524.712L981.302,524.712L981.302,528.439Z" style="fill:white;fill-rule:nonzero;"/>
                <rect x="988.04" y="524.131" width="0.596" height="8.84" style="fill:white;fill-rule:nonzero;"/>
                <path d="M992.288,533.194C991.662,533.194 991.13,533.02 990.693,532.673C990.246,532.315 990.022,531.887 990.022,531.391C990.022,530.914 990.241,530.496 990.678,530.138C991.106,529.781 991.642,529.572 992.288,529.512C992.914,529.453 993.426,529.353 993.824,529.214C994.231,529.075 994.435,528.911 994.435,528.722L994.435,528.156C994.435,527.828 994.256,527.55 993.898,527.321C993.55,527.092 993.123,526.978 992.616,526.978C992.139,526.978 991.727,527.087 991.379,527.306C991.041,527.535 990.872,527.803 990.872,528.111L990.872,528.439L990.306,528.439L990.306,528.051C990.306,527.624 990.529,527.261 990.976,526.963C991.433,526.665 991.98,526.516 992.616,526.516C993.272,526.516 993.833,526.66 994.301,526.948C994.768,527.237 995.001,527.584 995.001,527.992L995.001,531.838C995.001,532.086 995.056,532.3 995.165,532.479C995.274,532.658 995.409,532.747 995.568,532.747C995.617,532.747 995.662,532.742 995.702,532.732C995.742,532.722 995.771,532.707 995.791,532.687L995.791,532.971C995.642,533.04 995.453,533.075 995.225,533.075C994.996,533.075 994.797,532.976 994.629,532.777C994.47,532.578 994.39,532.34 994.39,532.061C994.271,532.399 994.017,532.673 993.63,532.881C993.242,533.09 992.795,533.194 992.288,533.194ZM992.288,532.747C992.815,532.747 993.282,532.573 993.689,532.225C994.097,531.887 994.345,531.455 994.435,530.928L994.435,529.468C994.296,529.587 994.042,529.686 993.674,529.766C993.327,529.845 992.865,529.91 992.288,529.96C991.821,529.999 991.429,530.158 991.111,530.437C990.792,530.705 990.633,531.023 990.633,531.391C990.633,531.768 990.797,532.086 991.125,532.345C991.443,532.613 991.831,532.747 992.288,532.747Z" style="fill:white;fill-rule:nonzero;"/>
                <path d="M998.847,533.135C998.171,533.135 997.6,532.936 997.133,532.538C996.656,532.141 996.417,531.659 996.417,531.092L996.969,531.092C996.969,531.52 997.153,531.887 997.52,532.196C997.888,532.494 998.33,532.643 998.847,532.643C999.443,532.643 999.925,532.509 1000.29,532.24C1000.65,531.962 1000.83,531.599 1000.83,531.152C1000.83,530.814 1000.64,530.526 1000.26,530.287C999.886,530.059 999.379,529.915 998.743,529.855C998.067,529.796 997.53,529.607 997.133,529.289C996.725,528.971 996.522,528.578 996.522,528.111C996.522,527.584 996.725,527.177 997.133,526.889C997.54,526.601 998.112,526.456 998.847,526.456C999.553,526.456 1000.11,526.61 1000.53,526.919C1000.96,527.227 1001.17,527.639 1001.17,528.156L1000.61,528.156C1000.54,527.768 1000.35,527.465 1000.04,527.247C999.732,527.028 999.334,526.919 998.847,526.919C998.311,526.919 997.883,527.028 997.565,527.247C997.247,527.465 997.088,527.753 997.088,528.111C997.088,528.449 997.282,528.737 997.67,528.976C998.047,529.204 998.554,529.348 999.19,529.408C999.856,529.468 1000.39,529.666 1000.8,530.004C1001.2,530.342 1001.4,530.765 1001.4,531.271C1001.4,531.838 1001.16,532.29 1000.7,532.628C1000.24,532.966 999.622,533.135 998.847,533.135Z" style="fill:white;fill-rule:nonzero;"/>
                <path d="M1004.03,533.194C1003.71,533.194 1003.42,533.06 1003.19,532.792C1002.96,532.533 1002.84,532.215 1002.84,531.838L1002.84,527.083L1001.93,527.083L1001.93,526.62L1002.84,526.62L1002.84,524.817L1003.44,524.817L1003.44,526.62L1004.3,526.62L1004.3,527.083L1003.44,527.083L1003.44,531.838C1003.44,532.086 1003.5,532.3 1003.63,532.479C1003.75,532.658 1003.9,532.747 1004.08,532.747C1004.27,532.747 1004.42,532.712 1004.54,532.643L1004.54,533.075C1004.32,533.155 1004.15,533.194 1004.03,533.194Z" style="fill:white;fill-rule:nonzero;"/>
                <path d="M1006.2,532.971L1005.6,532.971L1005.6,526.62L1006.2,526.62L1006.2,532.971ZM1005.6,525.04L1005.6,524.131L1006.2,524.131L1006.2,525.04L1005.6,525.04Z" style="fill:white;fill-rule:nonzero;"/>
                <path d="M1010.68,533.254C1009.85,533.254 1009.14,532.916 1008.55,532.24C1007.97,531.565 1007.67,530.75 1007.67,529.796C1007.67,528.861 1007.97,528.061 1008.55,527.396C1009.14,526.73 1009.85,526.397 1010.68,526.397C1011.37,526.397 1011.96,526.601 1012.44,527.008C1012.93,527.425 1013.17,527.922 1013.17,528.499L1012.58,528.499C1012.58,528.081 1012.39,527.724 1012.02,527.425C1011.66,527.127 1011.21,526.978 1010.68,526.978C1010.02,526.978 1009.45,527.251 1008.97,527.798C1008.5,528.355 1008.27,529.02 1008.27,529.796C1008.27,530.591 1008.5,531.271 1008.97,531.838C1009.45,532.404 1010.02,532.687 1010.68,532.687C1011.2,532.687 1011.64,532.533 1012,532.225C1012.36,531.917 1012.55,531.55 1012.55,531.122L1013.17,531.122C1013.17,531.709 1012.93,532.21 1012.44,532.628C1011.96,533.045 1011.37,533.254 1010.68,533.254Z" style="fill:white;fill-rule:nonzero;"/>
            </g>
            <g transform="matrix(2.19662,0,0,2.3031,-2000.28,-768.357)">
                <path d="M920.586,533.194C919.732,533.194 919.006,532.906 918.41,532.33C917.804,531.763 917.501,531.073 917.501,530.258L918.097,530.258C918.097,530.914 918.34,531.475 918.827,531.942C919.314,532.409 919.901,532.643 920.586,532.643C921.332,532.643 921.973,532.444 922.509,532.047C923.036,531.649 923.299,531.167 923.299,530.601C923.299,530.114 923.066,529.706 922.599,529.378C922.142,529.05 921.525,528.851 920.75,528.782C919.806,528.702 919.051,528.434 918.484,527.977C917.918,527.52 917.635,526.958 917.635,526.292C917.635,525.637 917.923,525.075 918.499,524.608C919.076,524.141 919.771,523.907 920.586,523.907C921.461,523.907 922.211,524.151 922.837,524.638C923.453,525.125 923.761,525.711 923.761,526.397L923.165,526.397C923.165,525.87 922.912,525.418 922.405,525.04C921.908,524.663 921.302,524.474 920.586,524.474C919.94,524.474 919.384,524.653 918.917,525.01C918.46,525.358 918.231,525.786 918.231,526.292C918.231,526.789 918.47,527.207 918.947,527.545C919.433,527.883 920.074,528.086 920.87,528.156C921.784,528.235 922.519,528.499 923.076,528.946C923.622,529.393 923.896,529.945 923.896,530.601C923.896,531.316 923.573,531.927 922.927,532.434C922.281,532.941 921.501,533.194 920.586,533.194Z" style="fill:white;fill-rule:nonzero;"/>
                <path d="M927.667,533.194C926.812,533.194 926.127,532.886 925.61,532.27C925.093,531.644 924.835,530.819 924.835,529.796C924.835,528.772 925.093,527.947 925.61,527.321C926.127,526.705 926.812,526.397 927.667,526.397C928.522,526.397 929.207,526.68 929.724,527.247C930.241,527.813 930.499,528.568 930.499,529.512L930.499,529.796L925.431,529.796C925.431,530.66 925.635,531.351 926.042,531.868C926.45,532.384 926.991,532.643 927.667,532.643C928.174,532.643 928.631,532.509 929.038,532.24C929.456,531.962 929.744,531.599 929.903,531.152L930.499,531.152C930.4,531.738 930.082,532.225 929.545,532.613C929.009,533.001 928.383,533.194 927.667,533.194ZM925.431,529.229L929.903,529.229L929.903,529.006C929.853,528.419 929.615,527.922 929.188,527.515C928.75,527.117 928.243,526.919 927.667,526.919C927.091,526.919 926.589,527.122 926.161,527.53C925.724,527.947 925.481,528.459 925.431,529.065L925.431,529.229Z" style="fill:white;fill-rule:nonzero;"/>
                <path d="M934.479,533.254C933.645,533.254 932.934,532.916 932.348,532.24C931.761,531.565 931.468,530.75 931.468,529.796C931.468,528.861 931.761,528.061 932.348,527.396C932.934,526.73 933.645,526.397 934.479,526.397C935.165,526.397 935.751,526.601 936.238,527.008C936.725,527.425 936.969,527.922 936.969,528.499L936.373,528.499C936.373,528.081 936.189,527.724 935.821,527.425C935.453,527.127 935.006,526.978 934.479,526.978C933.814,526.978 933.242,527.251 932.765,527.798C932.298,528.355 932.065,529.02 932.065,529.796C932.065,530.591 932.298,531.271 932.765,531.838C933.242,532.404 933.814,532.687 934.479,532.687C934.996,532.687 935.433,532.533 935.791,532.225C936.159,531.917 936.343,531.55 936.343,531.122L936.969,531.122C936.969,531.709 936.725,532.21 936.238,532.628C935.751,533.045 935.165,533.254 934.479,533.254Z" style="fill:white;fill-rule:nonzero;"/>
                <path d="M940.845,533.075C939.94,533.075 939.22,532.777 938.683,532.181C938.137,531.584 937.863,530.789 937.863,529.796C937.863,528.772 938.137,527.947 938.683,527.321C939.22,526.705 939.94,526.397 940.845,526.397C941.739,526.397 942.46,526.705 943.006,527.321C943.543,527.947 943.811,528.772 943.811,529.796C943.811,530.789 943.543,531.584 943.006,532.181C942.46,532.777 941.739,533.075 940.845,533.075ZM940.845,532.583C941.56,532.583 942.137,532.33 942.574,531.823C943.001,531.316 943.215,530.64 943.215,529.796C943.215,528.921 943.001,528.225 942.574,527.709C942.137,527.182 941.56,526.919 940.845,526.919C940.119,526.919 939.543,527.182 939.115,527.709C938.678,528.225 938.46,528.921 938.46,529.796C938.46,530.64 938.678,531.316 939.115,531.823C939.543,532.33 940.119,532.583 940.845,532.583Z" style="fill:white;fill-rule:nonzero;"/>
                <path d="M945.913,532.971L945.317,532.971L945.317,526.62L945.913,526.62L945.913,527.694C946.092,527.316 946.365,527.018 946.733,526.799C947.101,526.571 947.508,526.456 947.955,526.456C948.581,526.456 949.113,526.66 949.55,527.068C949.997,527.485 950.221,527.982 950.221,528.558L950.221,532.971L949.625,532.971L949.625,528.558C949.625,528.121 949.461,527.748 949.133,527.44C948.805,527.132 948.412,526.978 947.955,526.978C947.458,526.978 947.016,527.147 946.629,527.485C946.241,527.833 946.002,528.265 945.913,528.782L945.913,532.971Z" style="fill:white;fill-rule:nonzero;"/>
                <path d="M954.38,533.135C953.615,533.135 952.959,532.807 952.412,532.151C951.866,531.505 951.592,530.72 951.592,529.796C951.592,528.861 951.866,528.061 952.412,527.396C952.959,526.73 953.615,526.397 954.38,526.397C954.867,526.397 955.314,526.541 955.722,526.829C956.119,527.127 956.407,527.515 956.586,527.992L956.586,524.131L957.183,524.131L957.183,532.971L956.586,532.971L956.586,531.674C956.427,532.111 956.144,532.464 955.737,532.732C955.339,533.001 954.887,533.135 954.38,533.135ZM954.38,532.687C954.986,532.687 955.508,532.404 955.945,531.838C956.373,531.271 956.586,530.591 956.586,529.796C956.586,529.001 956.373,528.325 955.945,527.768C955.508,527.202 954.986,526.919 954.38,526.919C953.774,526.919 953.257,527.202 952.83,527.768C952.402,528.325 952.189,529.001 952.189,529.796C952.189,530.591 952.402,531.271 952.83,531.838C953.257,532.404 953.774,532.687 954.38,532.687Z" style="fill:white;fill-rule:nonzero;"/>
                <path d="M960.835,533.194C960.209,533.194 959.677,533.02 959.24,532.673C958.792,532.315 958.569,531.887 958.569,531.391C958.569,530.914 958.788,530.496 959.225,530.138C959.652,529.781 960.189,529.572 960.835,529.512C961.461,529.453 961.973,529.353 962.37,529.214C962.778,529.075 962.981,528.911 962.981,528.722L962.981,528.156C962.981,527.828 962.802,527.55 962.445,527.321C962.097,527.092 961.67,526.978 961.163,526.978C960.686,526.978 960.273,527.087 959.925,527.306C959.588,527.535 959.419,527.803 959.419,528.111L959.419,528.439L958.852,528.439L958.852,528.051C958.852,527.624 959.076,527.261 959.523,526.963C959.98,526.665 960.527,526.516 961.163,526.516C961.819,526.516 962.38,526.66 962.847,526.948C963.314,527.237 963.548,527.584 963.548,527.992L963.548,531.838C963.548,532.086 963.602,532.3 963.712,532.479C963.821,532.658 963.955,532.747 964.114,532.747C964.164,532.747 964.209,532.742 964.248,532.732C964.288,532.722 964.318,532.707 964.338,532.687L964.338,532.971C964.189,533.04 964,533.075 963.771,533.075C963.543,533.075 963.344,532.976 963.175,532.777C963.016,532.578 962.937,532.34 962.937,532.061C962.817,532.399 962.564,532.673 962.176,532.881C961.789,533.09 961.342,533.194 960.835,533.194ZM960.835,532.747C961.361,532.747 961.829,532.573 962.236,532.225C962.643,531.887 962.892,531.455 962.981,530.928L962.981,529.468C962.842,529.587 962.589,529.686 962.221,529.766C961.873,529.845 961.411,529.91 960.835,529.96C960.368,529.999 959.975,530.158 959.657,530.437C959.339,530.705 959.18,531.023 959.18,531.391C959.18,531.768 959.344,532.086 959.672,532.345C959.99,532.613 960.378,532.747 960.835,532.747Z" style="fill:white;fill-rule:nonzero;"/>
                <path d="M966.082,532.971L965.486,532.971L965.486,526.62L966.082,526.62L966.082,528.051C966.251,527.594 966.499,527.222 966.827,526.933C967.165,526.655 967.523,526.516 967.901,526.516L968.243,526.516L968.243,527.202C968.214,527.202 968.179,527.192 968.139,527.172C968.109,527.152 968.089,527.142 968.079,527.142C967.612,527.142 967.19,527.341 966.812,527.738C966.435,528.136 966.191,528.638 966.082,529.244L966.082,532.971Z" style="fill:white;fill-rule:nonzero;"/>
                <path d="M969.019,535.356L969.019,534.909L969.481,534.909C969.709,534.909 969.958,534.725 970.226,534.357C970.494,533.989 970.738,533.507 970.956,532.911L968.527,526.62L969.078,526.62L971.24,532.181L973.386,526.62L973.968,526.62L971.24,533.656C971.051,534.163 970.807,534.576 970.509,534.894C970.201,535.202 969.893,535.356 969.585,535.356L969.019,535.356Z" style="fill:white;fill-rule:nonzero;"/>
                <path d="M982.375,533.194C981.52,533.194 980.795,532.906 980.199,532.33C979.592,531.763 979.289,531.073 979.289,530.258L979.886,530.258C979.886,530.914 980.129,531.475 980.616,531.942C981.103,532.409 981.689,532.643 982.375,532.643C983.12,532.643 983.761,532.444 984.298,532.047C984.825,531.649 985.088,531.167 985.088,530.601C985.088,530.114 984.855,529.706 984.388,529.378C983.93,529.05 983.314,528.851 982.539,528.782C981.595,528.702 980.84,528.434 980.273,527.977C979.707,527.52 979.424,526.958 979.424,526.292C979.424,525.637 979.712,525.075 980.288,524.608C980.865,524.141 981.56,523.907 982.375,523.907C983.25,523.907 984,524.151 984.626,524.638C985.242,525.125 985.55,525.711 985.55,526.397L984.954,526.397C984.954,525.87 984.701,525.418 984.194,525.04C983.697,524.663 983.091,524.474 982.375,524.474C981.729,524.474 981.173,524.653 980.706,525.01C980.248,525.358 980.02,525.786 980.02,526.292C980.02,526.789 980.258,527.207 980.735,527.545C981.222,527.883 981.863,528.086 982.658,528.156C983.573,528.235 984.308,528.499 984.865,528.946C985.411,529.393 985.684,529.945 985.684,530.601C985.684,531.316 985.361,531.927 984.715,532.434C984.07,532.941 983.289,533.194 982.375,533.194Z" style="fill:white;fill-rule:nonzero;"/>
                <path d="M987.607,532.971L987.011,532.971L987.011,524.131L987.607,524.131L987.607,527.813C987.806,527.386 988.104,527.043 988.502,526.784C988.889,526.526 989.312,526.397 989.769,526.397C990.365,526.397 990.877,526.62 991.304,527.068C991.732,527.505 991.945,528.037 991.945,528.663L991.945,532.971L991.349,532.971L991.349,528.782C991.349,528.265 991.195,527.828 990.887,527.47C990.579,527.102 990.206,526.919 989.769,526.919C989.282,526.919 988.84,527.097 988.442,527.455C988.035,527.803 987.756,528.26 987.607,528.827L987.607,532.971Z" style="fill:white;fill-rule:nonzero;"/>
                <path d="M994.345,532.971L993.749,532.971L993.749,526.62L994.345,526.62L994.345,528.051C994.514,527.594 994.763,527.222 995.091,526.933C995.429,526.655 995.786,526.516 996.164,526.516L996.507,526.516L996.507,527.202C996.477,527.202 996.442,527.192 996.402,527.172C996.373,527.152 996.353,527.142 996.343,527.142C995.876,527.142 995.453,527.341 995.076,527.738C994.698,528.136 994.455,528.638 994.345,529.244L994.345,532.971Z" style="fill:white;fill-rule:nonzero;"/>
                <path d="M999.995,533.194C999.14,533.194 998.455,532.886 997.938,532.27C997.421,531.644 997.163,530.819 997.163,529.796C997.163,528.772 997.421,527.947 997.938,527.321C998.455,526.705 999.14,526.397 999.995,526.397C1000.85,526.397 1001.53,526.68 1002.05,527.247C1002.57,527.813 1002.83,528.568 1002.83,529.512L1002.83,529.796L997.759,529.796C997.759,530.66 997.963,531.351 998.37,531.868C998.778,532.384 999.319,532.643 999.995,532.643C1000.5,532.643 1000.96,532.509 1001.37,532.24C1001.78,531.962 1002.07,531.599 1002.23,531.152L1002.83,531.152C1002.73,531.738 1002.41,532.225 1001.87,532.613C1001.34,533.001 1000.71,533.194 999.995,533.194ZM997.759,529.229L1002.23,529.229L1002.23,529.006C1002.18,528.419 1001.94,527.922 1001.51,527.515C1001.08,527.117 1000.57,526.919 999.995,526.919C999.419,526.919 998.917,527.122 998.489,527.53C998.052,527.947 997.809,528.459 997.759,529.065L997.759,529.229Z" style="fill:white;fill-rule:nonzero;"/>
                <path d="M1006.58,533.135C1005.82,533.135 1005.16,532.807 1004.62,532.151C1004.07,531.505 1003.8,530.72 1003.8,529.796C1003.8,528.861 1004.07,528.061 1004.62,527.396C1005.16,526.73 1005.82,526.397 1006.58,526.397C1007.07,526.397 1007.52,526.541 1007.93,526.829C1008.32,527.127 1008.61,527.515 1008.79,527.992L1008.79,524.131L1009.39,524.131L1009.39,532.971L1008.79,532.971L1008.79,531.674C1008.63,532.111 1008.35,532.464 1007.94,532.732C1007.54,533.001 1007.09,533.135 1006.58,533.135ZM1006.58,532.687C1007.19,532.687 1007.71,532.404 1008.15,531.838C1008.58,531.271 1008.79,530.591 1008.79,529.796C1008.79,529.001 1008.58,528.325 1008.15,527.768C1007.71,527.202 1007.19,526.919 1006.58,526.919C1005.98,526.919 1005.46,527.202 1005.03,527.768C1004.61,528.325 1004.39,529.001 1004.39,529.796C1004.39,530.591 1004.61,531.271 1005.03,531.838C1005.46,532.404 1005.98,532.687 1006.58,532.687Z" style="fill:white;fill-rule:nonzero;"/>
                <path d="M1013.65,533.135C1012.88,533.135 1012.23,532.807 1011.68,532.151C1011.13,531.505 1010.86,530.72 1010.86,529.796C1010.86,528.861 1011.13,528.061 1011.68,527.396C1012.23,526.73 1012.88,526.397 1013.65,526.397C1014.14,526.397 1014.58,526.541 1014.99,526.829C1015.39,527.127 1015.68,527.515 1015.86,527.992L1015.86,524.131L1016.45,524.131L1016.45,532.971L1015.86,532.971L1015.86,531.674C1015.7,532.111 1015.41,532.464 1015.01,532.732C1014.61,533.001 1014.16,533.135 1013.65,533.135ZM1013.65,532.687C1014.26,532.687 1014.78,532.404 1015.22,531.838C1015.64,531.271 1015.86,530.591 1015.86,529.796C1015.86,529.001 1015.64,528.325 1015.22,527.768C1014.78,527.202 1014.26,526.919 1013.65,526.919C1013.04,526.919 1012.53,527.202 1012.1,527.768C1011.67,528.325 1011.46,529.001 1011.46,529.796C1011.46,530.591 1011.67,531.271 1012.1,531.838C1012.53,532.404 1013.04,532.687 1013.65,532.687Z" style="fill:white;fill-rule:nonzero;"/>
                <path d="M1020.81,533.194C1019.95,533.194 1019.26,532.886 1018.75,532.27C1018.23,531.644 1017.97,530.819 1017.97,529.796C1017.97,528.772 1018.23,527.947 1018.75,527.321C1019.26,526.705 1019.95,526.397 1020.81,526.397C1021.66,526.397 1022.35,526.68 1022.86,527.247C1023.38,527.813 1023.64,528.568 1023.64,529.512L1023.64,529.796L1018.57,529.796C1018.57,530.66 1018.77,531.351 1019.18,531.868C1019.59,532.384 1020.13,532.643 1020.81,532.643C1021.31,532.643 1021.77,532.509 1022.18,532.24C1022.59,531.962 1022.88,531.599 1023.04,531.152L1023.64,531.152C1023.54,531.738 1023.22,532.225 1022.68,532.613C1022.15,533.001 1021.52,533.194 1020.81,533.194ZM1018.57,529.229L1023.04,529.229L1023.04,529.006C1022.99,528.419 1022.75,527.922 1022.33,527.515C1021.89,527.117 1021.38,526.919 1020.81,526.919C1020.23,526.919 1019.73,527.122 1019.3,527.53C1018.86,527.947 1018.62,528.459 1018.57,529.065L1018.57,529.229Z" style="fill:white;fill-rule:nonzero;"/>
                <path d="M1025.63,532.971L1025.04,532.971L1025.04,526.62L1025.63,526.62L1025.63,528.051C1025.8,527.594 1026.05,527.222 1026.38,526.933C1026.72,526.655 1027.08,526.516 1027.45,526.516L1027.8,526.516L1027.8,527.202C1027.77,527.202 1027.73,527.192 1027.69,527.172C1027.66,527.152 1027.64,527.142 1027.63,527.142C1027.16,527.142 1026.74,527.341 1026.37,527.738C1025.99,528.136 1025.74,528.638 1025.63,529.244L1025.63,532.971Z" style="fill:white;fill-rule:nonzero;"/>
                <path d="M1030.75,533.135C1030.07,533.135 1029.5,532.936 1029.03,532.538C1028.56,532.141 1028.32,531.659 1028.32,531.092L1028.87,531.092C1028.87,531.52 1029.05,531.887 1029.42,532.196C1029.79,532.494 1030.23,532.643 1030.75,532.643C1031.34,532.643 1031.83,532.509 1032.19,532.24C1032.55,531.962 1032.73,531.599 1032.73,531.152C1032.73,530.814 1032.54,530.526 1032.16,530.287C1031.79,530.059 1031.28,529.915 1030.64,529.855C1029.97,529.796 1029.43,529.607 1029.03,529.289C1028.63,528.971 1028.42,528.578 1028.42,528.111C1028.42,527.584 1028.63,527.177 1029.03,526.889C1029.44,526.601 1030.01,526.456 1030.75,526.456C1031.45,526.456 1032.02,526.61 1032.43,526.919C1032.86,527.227 1033.07,527.639 1033.07,528.156L1032.51,528.156C1032.44,527.768 1032.25,527.465 1031.94,527.247C1031.63,527.028 1031.24,526.919 1030.75,526.919C1030.21,526.919 1029.78,527.028 1029.47,527.247C1029.15,527.465 1028.99,527.753 1028.99,528.111C1028.99,528.449 1029.18,528.737 1029.57,528.976C1029.95,529.204 1030.45,529.348 1031.09,529.408C1031.76,529.468 1032.29,529.666 1032.7,530.004C1033.1,530.342 1033.3,530.765 1033.3,531.271C1033.3,531.838 1033.06,532.29 1032.6,532.628C1032.14,532.966 1031.52,533.135 1030.75,533.135Z" style="fill:white;fill-rule:nonzero;"/>
            </g>
        </g>
    </g>
</svg>
