<svg width="412" height="150" viewBox="0 0 412 150" fill="none" xmlns="http://www.w3.org/2000/svg">
<path d="M404 0H8C3.58172 0 0 3.58172 0 8V142C0 146.418 3.58172 150 8 150H404C408.418 150 412 146.418 412 142V8C412 3.58172 408.418 0 404 0Z" fill="#FFDADC"/>
<g clip-path="url(#clip0_180_1630)">
<path d="M119.116 93C124.632 93 128.778 88.2022 131.252 84.411C130.952 85.2498 130.784 86.0885 130.784 86.8938C130.784 89.1081 132.055 90.685 134.563 90.685C138.006 90.685 141.684 87.6654 143.59 84.411C143.456 84.8807 143.389 85.3169 143.389 85.7195C143.389 87.2628 144.259 88.2358 146.031 88.2358C151.614 88.2358 157.231 78.3383 157.231 69.6822C157.231 62.9385 153.821 57 145.262 57C130.216 57 114 75.3858 114 87.2628C114 91.9264 116.508 93 119.116 93ZM140.079 68.9441C140.079 67.2665 141.015 66.0923 142.386 66.0923C143.724 66.0923 144.66 67.2665 144.66 68.9441C144.66 70.6216 143.724 71.8295 142.386 71.8295C141.015 71.8295 140.079 70.6216 140.079 68.9441ZM147.234 68.9441C147.234 67.2665 148.171 66.0923 149.541 66.0923C150.879 66.0923 151.815 67.2665 151.815 68.9441C151.815 70.6216 150.879 71.8295 149.541 71.8295C148.171 71.8295 147.234 70.6216 147.234 68.9441Z" fill="#1C1C1C"/>
<path d="M163.916 89.343H168.931V84.411C168.931 82.0961 168.73 81.2237 167.56 78.8752L168.195 78.5396C169.901 82.5322 172.308 83.9748 174.782 83.9748C178.761 83.9748 181.937 80.4855 181.937 75.0839C181.937 69.9171 179.028 66.1259 174.849 66.1259C172.375 66.1259 169.901 67.535 168.195 71.5611L167.56 71.2256C168.363 69.6151 168.931 68.1054 168.931 66.6627H163.916V89.343ZM168.931 75.0504C168.931 72.836 170.603 70.3868 173.077 70.3868C175.083 70.3868 176.721 72.0308 176.721 75.0168C176.721 77.9692 175.15 79.714 173.043 79.714C170.703 79.714 168.931 77.3319 168.931 75.0504Z" fill="#1C1C1C"/>
<path d="M183.767 83.438H188.782V77.5331C188.782 73.3728 190.254 70.4204 192.995 70.4204C194.734 70.4204 195.269 71.5946 195.269 74.5136V83.438H200.284V73.7084C200.284 68.4073 198.378 66.1259 194.734 66.1259C190.989 66.1259 189.752 68.6422 188.314 71.6953L187.679 71.3598C188.548 69.4809 188.782 68.3402 188.782 66.6627V60.8584H183.767V83.438Z" fill="#1C1C1C"/>
<path d="M207.613 83.9748C210.856 83.9748 212.762 81.8277 214.2 79.0764L214.801 79.3784C214.166 80.6869 213.564 82.1967 213.564 83.438H218.479V74.3122C218.479 68.877 216.206 66.1259 210.89 66.1259C205.674 66.1259 203.1 68.7428 202.598 71.494L207.413 72.3328C207.58 70.8901 208.75 69.9171 210.622 69.9171C212.495 69.9171 213.564 70.8565 213.564 71.9972C213.564 73.138 212.461 73.6748 209.519 73.7084C205.172 73.7754 201.963 75.3523 201.963 78.7074C201.963 81.4585 204.136 83.9748 207.613 83.9748ZM206.944 78.3718C206.944 75.7213 211.157 77.5667 213.464 75.5201V76.1239C213.464 78.506 211.358 80.2507 209.251 80.2507C208.148 80.2507 206.944 79.781 206.944 78.3718Z" fill="#1C1C1C"/>
<path d="M220.466 83.438H225.482V77.5331C225.482 73.3728 226.953 70.4204 229.694 70.4204C231.433 70.4204 231.968 71.5946 231.968 74.5136V83.438H236.983V73.7084C236.983 68.4073 235.077 66.1259 231.433 66.1259C227.688 66.1259 226.451 68.6422 225.013 71.6953L224.378 71.3598C225.248 69.4809 225.482 68.3402 225.482 66.6627H220.466V83.438Z" fill="#1C1C1C"/>
<path d="M250.34 83.5052V79.3448C249.271 79.714 246.295 80.3514 246.295 77.9022V70.6888H250.307V66.6627H246.295V62.1669L241.246 63.6767V66.6627H238.237V70.6888H241.246L241.28 78.3048C241.28 83.9078 246.262 84.713 250.34 83.5052Z" fill="#1C1C1C"/>
<path d="M260.528 83.9748C265.61 83.9748 269.488 80.083 269.488 75.0168C269.488 69.9842 265.61 66.1259 260.528 66.1259C255.446 66.1259 251.534 69.9842 251.534 75.0168C251.534 80.083 255.446 83.9748 260.528 83.9748ZM256.716 75.0504C256.716 72.2657 258.288 70.3197 260.528 70.3197C262.768 70.3197 264.306 72.2657 264.306 75.0504C264.306 77.835 262.768 79.781 260.528 79.781C258.288 79.781 256.716 77.835 256.716 75.0504Z" fill="#1C1C1C"/>
<path d="M271.042 83.438H276.056V77.5331C276.056 73.205 277.427 70.4204 279.634 70.4204C281.072 70.4204 281.54 71.5611 281.54 74.5136V83.438H286.556V77.5331C286.556 73.4734 288.026 70.4204 290.133 70.4204C291.536 70.4204 292.038 71.7289 292.038 74.5136V83.438H297.054V73.7084C297.054 68.3738 295.315 66.1259 291.904 66.1259C288.361 66.1259 287.091 68.6422 285.853 71.7289L285.251 71.4269C286.422 67.9041 283.88 66.1259 281.373 66.1259C278.064 66.1259 276.86 68.6422 275.523 71.6953L274.92 71.3598C275.756 69.4809 276.056 68.3402 276.056 66.6627H271.042V83.438Z" fill="#1C1C1C"/>
</g>
<defs>
<clipPath id="clip0_180_1630">
<rect width="183.054" height="36" fill="white" transform="translate(114 57)"/>
</clipPath>
</defs>
</svg>
