<svg width="206" height="150" viewBox="0 0 206 150" fill="none" xmlns="http://www.w3.org/2000/svg">
<path d="M198 0H8C3.58172 0 0 3.58172 0 8V142C0 146.418 3.58172 150 8 150H198C202.418 150 206 146.418 206 142V8C206 3.58172 202.418 0 198 0Z" fill="#AB9FF2"/>
<path d="M78.573 101.294C86.7399 101.294 92.8774 94.1912 96.5402 88.5787C96.0947 89.8204 95.8472 91.0621 95.8472 92.2541C95.8472 95.5322 97.7281 97.8666 101.44 97.8666C106.538 97.8666 111.983 93.3965 114.804 88.5787C114.606 89.274 114.507 89.9197 114.507 90.5157C114.507 92.8005 115.794 94.2408 118.418 94.2408C126.684 94.2408 134.999 79.5888 134.999 66.7745C134.999 56.7912 129.95 48 117.279 48C95.0058 48 71 75.218 71 92.8005C71 99.7043 74.7122 101.294 78.573 101.294ZM109.607 65.6818C109.607 63.1984 110.993 61.46 113.022 61.46C115.002 61.46 116.388 63.1984 116.388 65.6818C116.388 68.1652 115.002 69.9532 113.022 69.9532C110.993 69.9532 109.607 68.1652 109.607 65.6818ZM120.199 65.6818C120.199 63.1984 121.585 61.46 123.615 61.46C125.595 61.46 126.981 63.1984 126.981 65.6818C126.981 68.1652 125.595 69.9532 123.615 69.9532C121.585 69.9532 120.199 68.1652 120.199 65.6818Z" fill="#FFFDF8"/>
</svg>
