<svg width="269" height="224" viewBox="0 0 269 224" fill="none" xmlns="http://www.w3.org/2000/svg">
<path d="M31.8301 224C66.1567 224 91.9536 194.147 107.349 170.557C105.476 175.776 104.436 180.995 104.436 186.006C104.436 199.784 112.342 209.596 127.944 209.596C149.373 209.596 172.257 190.807 184.115 170.557C183.283 173.48 182.867 176.194 182.867 178.699C182.867 188.302 188.276 194.356 199.302 194.356C234.045 194.356 268.995 132.772 268.995 78.9115C268.995 36.9506 247.775 0 194.517 0C100.899 0 0 114.401 0 188.302C0 217.32 15.603 224 31.8301 224ZM162.271 74.3187C162.271 63.8807 168.096 56.5741 176.626 56.5741C184.947 56.5741 190.773 63.8807 190.773 74.3187C190.773 84.7568 184.947 92.2721 176.626 92.2721C168.096 92.2721 162.271 84.7568 162.271 74.3187ZM206.792 74.3187C206.792 63.8807 212.617 56.5741 221.146 56.5741C229.468 56.5741 235.293 63.8807 235.293 74.3187C235.293 84.7568 229.468 92.2721 221.146 92.2721C212.617 92.2721 206.792 84.7568 206.792 74.3187Z" fill="white"/>
</svg>
