<svg width="40" height="40" viewBox="0 0 40 40" fill="none" xmlns="http://www.w3.org/2000/svg">
<g clip-path="url(#clip0_2572_515)">
<path d="M0 20C0 24.1421 3.35786 27.5 7.5 27.5H32.5C36.6421 27.5 40 24.1421 40 20C40 15.8579 36.6421 12.5 32.5 12.5H7.5C3.35786 12.5 0 15.8579 0 20Z" fill="#AB9FF2"/>
<path d="M6.76543 21.8375C6.76494 22.203 6.96983 22.4996 7.39799 22.5C7.82608 22.5005 8.0318 22.2046 8.03222 21.8392C8.02482 21.3621 7.94878 20.8329 7.70339 20.4073L7.70476 19.8625L7.69968 19.8579C7.93412 19.2263 8.03606 18.7966 8.03654 18.4311C8.03702 18.0656 7.83214 17.769 7.40398 17.7686C6.97589 17.7681 6.77017 18.0641 6.76975 18.4294C6.76933 18.7947 6.87075 19.2246 7.10357 19.8567L7.09858 19.8613L7.09721 20.4061C7.09721 20.4061 6.76543 20.9447 6.76543 21.8375Z" fill="#FFFFC4"/>
<path d="M5.44596 21.5987C5.14444 21.2966 5.22877 20.9234 5.511 20.6418C6.19962 19.9532 6.84895 19.7717 6.84895 19.7717L7.27537 20.1999C7.12014 20.7011 6.76552 21.163 6.40271 21.5362C6.12063 21.8177 5.74734 21.9009 5.44596 21.5987Z" fill="#FFFFC4"/>
<path d="M5.44596 18.6733C5.14444 18.9754 5.22877 19.3486 5.511 19.6302C6.19962 20.3188 6.84895 20.5003 6.84895 20.5003L7.27537 20.0721C7.12014 19.5709 6.76552 19.1091 6.40271 18.7358C6.12063 18.4543 5.74734 18.3711 5.44596 18.6733Z" fill="#FFFFC4"/>
<path d="M9.32192 21.5987C9.62344 21.2966 9.53911 20.9234 9.25689 20.6418C8.56827 19.9532 7.91894 19.7717 7.91894 19.7717L7.49252 20.1999C7.64774 20.7011 8.00236 21.163 8.36517 21.5362C8.64725 21.8177 9.02055 21.9009 9.32192 21.5987Z" fill="#FFFFC4"/>
<path d="M9.32192 18.6733C9.62344 18.9754 9.53911 19.3486 9.25689 19.6302C8.56827 20.3188 7.91894 20.5003 7.91894 20.5003L7.49252 20.0721C7.64774 19.5709 8.00236 19.1091 8.36517 18.7358C8.64725 18.4543 9.02055 18.3711 9.32192 18.6733Z" fill="#FFFFC4"/>
<path d="M13.1597 21.8375C13.1592 22.203 13.3641 22.4996 13.7923 22.5C14.2204 22.5005 14.4261 22.2046 14.4265 21.8392C14.4191 21.3621 14.3431 20.8329 14.0977 20.4073L14.099 19.8625L14.094 19.8579C14.3284 19.2263 14.4303 18.7966 14.4308 18.4311C14.4313 18.0656 14.2264 17.769 13.7983 17.7686C13.3702 17.7681 13.1644 18.0641 13.164 18.4294C13.1636 18.7947 13.265 19.2246 13.4978 19.8567L13.4928 19.8613L13.4915 20.4061C13.4915 20.4061 13.1597 20.9447 13.1597 21.8375Z" fill="#FFFFC4"/>
<path d="M11.8402 21.5987C11.5386 21.2966 11.623 20.9234 11.9052 20.6418C12.5938 19.9532 13.2431 19.7717 13.2431 19.7717L13.6696 20.1999C13.5143 20.7011 13.1597 21.163 12.7969 21.5362C12.5148 21.8177 12.1415 21.9009 11.8402 21.5987Z" fill="#FFFFC4"/>
<path d="M11.8402 18.6733C11.5386 18.9754 11.623 19.3486 11.9052 19.6302C12.5938 20.3188 13.2431 20.5003 13.2431 20.5003L13.6696 20.0721C13.5143 19.5709 13.1597 19.1091 12.7969 18.7358C12.5148 18.4543 12.1415 18.3711 11.8402 18.6733Z" fill="#FFFFC4"/>
<path d="M15.7161 21.5987C16.0177 21.2966 15.9333 20.9234 15.6511 20.6418C14.9625 19.9532 14.3132 19.7717 14.3132 19.7717L13.8867 20.1999C14.042 20.7011 14.3966 21.163 14.7594 21.5362C15.0415 21.8177 15.4148 21.9009 15.7161 21.5987Z" fill="#FFFFC4"/>
<path d="M15.7161 18.6733C16.0177 18.9754 15.9333 19.3486 15.6511 19.6302C14.9625 20.3188 14.3132 20.5003 14.3132 20.5003L13.8867 20.0721C14.042 19.5709 14.3966 19.1091 14.7594 18.7358C15.0415 18.4543 15.4148 18.3711 15.7161 18.6733Z" fill="#FFFFC4"/>
<path d="M19.5539 21.8375C19.5534 22.203 19.7583 22.4996 20.1865 22.5C20.6146 22.5005 20.8203 22.2046 20.8207 21.8392C20.8133 21.3621 20.7373 20.8329 20.4919 20.4073L20.4933 19.8625L20.4882 19.8579C20.7226 19.2263 20.8246 18.7966 20.825 18.4311C20.8255 18.0656 20.6206 17.769 20.1925 17.7686C19.7644 17.7681 19.5587 18.0641 19.5583 18.4294C19.5578 18.7947 19.6593 19.2246 19.8921 19.8567L19.8871 19.8613L19.8857 20.4061C19.8857 20.4061 19.5539 20.9447 19.5539 21.8375Z" fill="#FFFFC4"/>
<path d="M18.2344 21.5987C17.9329 21.2966 18.0172 20.9234 18.2995 20.6418C18.9881 19.9532 19.6374 19.7717 19.6374 19.7717L20.0638 20.1999C19.9086 20.7011 19.554 21.163 19.1912 21.5362C18.9091 21.8177 18.5358 21.9009 18.2344 21.5987Z" fill="#FFFFC4"/>
<path d="M18.2344 18.6733C17.9329 18.9754 18.0172 19.3486 18.2995 19.6302C18.9881 20.3188 19.6374 20.5003 19.6374 20.5003L20.0638 20.0721C19.9086 19.5709 19.554 19.1091 19.1912 18.7358C18.9091 18.4543 18.5358 18.3711 18.2344 18.6733Z" fill="#FFFFC4"/>
<path d="M22.1104 21.5987C22.4119 21.2966 22.3276 20.9234 22.0454 20.6418C21.3567 19.9532 20.7074 19.7717 20.7074 19.7717L20.281 20.1999C20.4362 20.7011 20.7908 21.163 21.1536 21.5362C21.4357 21.8177 21.809 21.9009 22.1104 21.5987Z" fill="#FFFFC4"/>
<path d="M22.1104 18.6733C22.4119 18.9754 22.3276 19.3486 22.0454 19.6302C21.3567 20.3188 20.7074 20.5003 20.7074 20.5003L20.281 20.0721C20.4362 19.5709 20.7908 19.1091 21.1536 18.7358C21.4357 18.4543 21.809 18.3711 22.1104 18.6733Z" fill="#FFFFC4"/>
<path d="M25.9482 21.8375C25.9477 22.203 26.1526 22.4996 26.5807 22.5C27.0088 22.5005 27.2146 22.2046 27.215 21.8392C27.2076 21.3621 27.1315 20.8329 26.8861 20.4073L26.8875 19.8625L26.8824 19.8579C27.1169 19.2263 27.2188 18.7966 27.2193 18.4311C27.2198 18.0656 27.0149 17.769 26.5867 17.7686C26.1586 17.7681 25.9529 18.0641 25.9525 18.4294C25.9521 18.7947 26.0535 19.2246 26.2863 19.8567L26.2813 19.8613L26.28 20.4061C26.28 20.4061 25.9482 20.9447 25.9482 21.8375Z" fill="#E2DFFE"/>
<path d="M24.6287 21.5987C24.3272 21.2966 24.4115 20.9234 24.6937 20.6418C25.3824 19.9532 26.0317 19.7717 26.0317 19.7717L26.4581 20.1999C26.3029 20.7011 25.9483 21.163 25.5855 21.5362C25.3034 21.8177 24.9301 21.9009 24.6287 21.5987Z" fill="#E2DFFE"/>
<path d="M24.6287 18.6733C24.3272 18.9754 24.4115 19.3486 24.6937 19.6302C25.3824 20.3188 26.0317 20.5003 26.0317 20.5003L26.4581 20.0721C26.3029 19.5709 25.9483 19.1091 25.5855 18.7358C25.3034 18.4543 24.9301 18.3711 24.6287 18.6733Z" fill="#E2DFFE"/>
<path d="M28.5047 21.5987C28.8062 21.2966 28.7219 20.9234 28.4396 20.6418C27.751 19.9532 27.1017 19.7717 27.1017 19.7717L26.6753 20.1999C26.8305 20.7011 27.1851 21.163 27.5479 21.5362C27.83 21.8177 28.2033 21.9009 28.5047 21.5987Z" fill="#E2DFFE"/>
<path d="M28.5047 18.6733C28.8062 18.9754 28.7219 19.3486 28.4396 19.6302C27.751 20.3188 27.1017 20.5003 27.1017 20.5003L26.6753 20.0721C26.8305 19.5709 27.1851 19.1091 27.5479 18.7358C27.83 18.4543 28.2033 18.3711 28.5047 18.6733Z" fill="#E2DFFE"/>
<path d="M32.3425 21.8375C32.342 22.203 32.5469 22.4996 32.975 22.5C33.4031 22.5005 33.6088 22.2046 33.6093 21.8392C33.6019 21.3621 33.5258 20.8329 33.2804 20.4073L33.2818 19.8625L33.2767 19.8579C33.5112 19.2263 33.6131 18.7966 33.6136 18.4311C33.6141 18.0656 33.4092 17.769 32.981 17.7686C32.5529 17.7681 32.3472 18.0641 32.3468 18.4294C32.3464 18.7947 32.4478 19.2246 32.6806 19.8567L32.6756 19.8613L32.6743 20.4061C32.6743 20.4061 32.3425 20.9447 32.3425 21.8375Z" fill="#E2DFFE"/>
<path d="M31.023 21.5987C30.7215 21.2966 30.8058 20.9234 31.088 20.6418C31.7766 19.9532 32.426 19.7717 32.426 19.7717L32.8524 20.1999C32.6972 20.7011 32.3425 21.163 31.9797 21.5362C31.6977 21.8177 31.3244 21.9009 31.023 21.5987Z" fill="#E2DFFE"/>
<path d="M31.023 18.6733C30.7215 18.9754 30.8058 19.3486 31.088 19.6302C31.7766 20.3188 32.426 20.5003 32.426 20.5003L32.8524 20.0721C32.6972 19.5709 32.3425 19.1091 31.9797 18.7358C31.6977 18.4543 31.3244 18.3711 31.023 18.6733Z" fill="#E2DFFE"/>
<path d="M34.899 21.5987C35.2005 21.2966 35.1162 20.9234 34.8339 20.6418C34.1453 19.9532 33.496 19.7717 33.496 19.7717L33.0696 20.1999C33.2248 20.7011 33.5794 21.163 33.9422 21.5362C34.2243 21.8177 34.5976 21.9009 34.899 21.5987Z" fill="#E2DFFE"/>
<path d="M34.899 18.6733C35.2005 18.9754 35.1162 19.3486 34.8339 19.6302C34.1453 20.3188 33.496 20.5003 33.496 20.5003L33.0696 20.0721C33.2248 19.5709 33.5794 19.1091 33.9422 18.7358C34.2243 18.4543 34.5976 18.3711 34.899 18.6733Z" fill="#E2DFFE"/>
<path d="M8.81558 9.76134C6.07074 10.4948 5.32042 11.3968 4.73684 14.7829C4.68632 15.0724 4.31368 15.0724 4.26442 14.7829C3.67958 11.3968 2.93053 10.4948 0.185684 9.76134C-0.0618947 9.6953 -0.0618947 9.30611 0.185684 9.24007C2.92926 8.50664 3.67832 7.60461 4.26316 4.21708C4.31368 3.92764 4.68632 3.92764 4.73558 4.21708C5.32042 7.60321 6.06947 8.50524 8.81432 9.23866C9.06189 9.3047 9.06189 9.69389 8.81432 9.75993L8.81558 9.76134Z" fill="#FFFFC4"/>
<path d="M37.918 31.6188C36.6981 31.9522 36.3646 32.3622 36.1053 33.9013C36.0828 34.0329 35.9172 34.0329 35.8953 33.9013C35.6354 32.3622 35.3025 31.9522 34.0825 31.6188C33.9725 31.5888 33.9725 31.4119 34.0825 31.3818C35.3019 31.0485 35.6348 30.6385 35.8947 29.0987C35.9172 28.9671 36.0828 28.9671 36.1047 29.0987C36.3646 30.6378 36.6975 31.0478 37.9175 31.3812C38.0275 31.4112 38.0275 31.5881 37.9175 31.6182L37.918 31.6188Z" fill="#FFFFC4"/>
<path opacity="0.1" d="M15 -0.5C15 3.64214 18.3579 7 22.5 7H47.5C51.6421 7 55 3.64214 55 -0.5C55 -4.64214 51.6421 -8 47.5 -8H22.5C18.3579 -8 15 -4.64214 15 -0.5Z" fill="white"/>
<path opacity="0.1" d="M-17 40.5C-17 44.6421 -13.6421 48 -9.5 48H15.5C19.6421 48 23 44.6421 23 40.5C23 36.3579 19.6421 33 15.5 33H-9.5C-13.6421 33 -17 36.3579 -17 40.5Z" fill="white"/>
</g>
<defs>
<clipPath id="clip0_2572_515">
<rect width="40" height="40" rx="6" fill="white"/>
</clipPath>
</defs>
</svg>
