<svg width="263" height="224" viewBox="0 0 263 224" fill="none" xmlns="http://www.w3.org/2000/svg">
<path d="M155.117 74.3189C155.117 63.8808 160.942 56.5742 169.472 56.5742C177.794 56.5742 183.619 63.8808 183.619 74.3189C183.619 84.7569 177.794 92.2723 169.472 92.2723C160.942 92.2723 155.117 84.7569 155.117 74.3189Z" fill="white"/>
<path d="M196.638 74.3189C196.638 63.8808 202.463 56.5742 210.993 56.5742C219.314 56.5742 225.139 63.8808 225.139 74.3189C225.139 84.7569 219.314 92.2723 210.993 92.2723C202.463 92.2723 196.638 84.7569 196.638 74.3189Z" fill="white"/>
<path fill-rule="evenodd" clip-rule="evenodd" d="M43.0479 224C62.5641 224 78.8856 215.478 91.5437 205.071C93.7679 203.243 95.907 201.334 97.9604 199.371C98.4144 199.923 98.8907 200.465 99.3899 200.996C106.279 208.321 115.773 211.59 125.854 211.59C139.473 211.59 152.175 205.729 162.298 198.325C164.573 196.661 166.781 194.874 168.908 192.985C174.454 196.99 181.051 198.461 187.332 198.461C199.488 198.461 210.327 193.099 219.105 185.985C227.933 178.831 235.625 169.177 241.928 158.515C254.478 137.283 262.883 109.717 262.883 83.4929C262.883 63.0514 257.738 42.1494 244.455 26.068C230.778 9.50859 210.065 0 183.209 0C136.995 0 91.3458 27.8219 58.0729 61.9154C25.0018 95.8022 0.11734 140.058 0.11734 177.737C0.11734 192.914 4.25511 205.561 13.7618 214.054C22.943 222.257 34.3042 224 43.0479 224ZM43.0479 208.492C62.2734 208.492 78.3933 197.623 90.9644 184.433C93.6457 181.619 96.1655 178.7 98.5196 175.759C102.106 171.277 105.308 166.743 108.11 162.449C106.497 166.946 105.601 171.442 105.601 175.759C105.601 180.395 106.639 184.509 108.706 187.803C111.932 192.943 117.661 196.082 125.854 196.082C137.481 196.082 149.606 189.661 159.542 180.549C163.235 177.162 166.626 173.403 169.576 169.464C171.291 167.174 172.857 164.823 174.247 162.449C173.53 164.967 173.172 167.305 173.172 169.464C173.172 175.16 175.381 179.407 179.857 181.5C181.883 182.447 184.372 182.953 187.332 182.953C217.264 182.953 247.375 129.896 247.375 83.4929C247.375 47.3421 229.093 15.5077 183.209 15.5077C102.554 15.5077 15.625 114.068 15.625 177.737C15.625 202.737 29.0676 208.492 43.0479 208.492Z" fill="white"/>
</svg>
