<svg width="40" height="40" viewBox="0 0 40 40" fill="none" xmlns="http://www.w3.org/2000/svg">
<path d="M4.7331 36.3086C9.83742 36.3086 13.6734 31.8695 15.9626 28.3617C15.6842 29.1377 15.5295 29.9138 15.5295 30.6588C15.5295 32.7076 16.7051 34.1666 19.0252 34.1666C22.2115 34.1666 25.6144 31.3728 27.3777 28.3617C27.254 28.7963 27.1921 29.1998 27.1921 29.5723C27.1921 31.0003 27.9964 31.9005 29.636 31.9005C34.8022 31.9005 39.9993 22.743 39.9993 14.734C39.9993 8.49451 36.8439 3 28.9245 3C15.0036 3 0 20.0113 0 31.0003C0 35.3152 2.32015 36.3086 4.7331 36.3086ZM24.1295 14.0511C24.1295 12.499 24.9957 11.4125 26.2641 11.4125C27.5015 11.4125 28.3677 12.499 28.3677 14.0511C28.3677 15.6032 27.5015 16.7208 26.2641 16.7208C24.9957 16.7208 24.1295 15.6032 24.1295 14.0511ZM30.7497 14.0511C30.7497 12.499 31.6159 11.4125 32.8842 11.4125C34.1216 11.4125 34.9878 12.499 34.9878 14.0511C34.9878 15.6032 34.1216 16.7208 32.8842 16.7208C31.6159 16.7208 30.7497 15.6032 30.7497 14.0511Z" fill="#AB9FF2"/>
<path d="M9.82017 5.23424C7.06684 5.89864 6.31442 6.72487 5.73565 9.80835C5.68604 10.0639 5.31396 10.0639 5.26435 9.80835C4.68558 6.72487 3.93316 5.89864 1.17983 5.23424C0.940055 5.17462 0.940055 4.81687 1.17983 4.76576C3.9249 4.10136 4.67731 3.27513 5.26435 0.191652C5.31396 -0.0638842 5.68604 -0.0638842 5.73565 0.191652C6.31442 3.27513 7.06684 4.10136 9.82017 4.76576C10.0599 4.82538 10.0599 5.18313 9.82017 5.23424Z" fill="#FFFFC4"/>
</svg>
