<svg xmlns="http://www.w3.org/2000/svg" xmlns:xlink="http://www.w3.org/1999/xlink" width="380" height="624" viewBox="0 0 380 624">
  <defs>
    <rect id="pay-a" width="375" height="60" x="0" y="0"/>
    <path id="pay-d" d="M10.6758621,0 L333.324138,0 C339.220254,-1.0830989e-15 344,4.77974626 344,10.6758621 L344,379.324138 C344,385.220254 339.220254,390 333.324138,390 L10.6758621,390 C4.77974626,390 9.60385013e-15,385.220254 0,379.324138 L0,10.6758621 C-7.22065936e-16,4.77974626 4.77974626,9.9648831e-15 10.6758621,0 Z"/>
    <filter id="pay-c" width="115.7%" height="113.8%" x="-7.8%" y="-6.9%" filterUnits="objectBoundingBox">
      <feMorphology in="SourceAlpha" operator="dilate" radius="2" result="shadowSpreadOuter1"/>
      <feOffset in="shadowSpreadOuter1" result="shadowOffsetOuter1"/>
      <feGaussianBlur in="shadowOffsetOuter1" result="shadowBlurOuter1" stdDeviation="7"/>
      <feColorMatrix in="shadowBlurOuter1" values="0 0 0 0 0   0 0 0 0 0   0 0 0 0 0  0 0 0 0.05 0"/>
    </filter>
    <path id="pay-e" d="M19,38 C29.4934102,38 38,29.4934102 38,19 C38,8.50658975 29.4934102,0 19,0 C8.50658975,0 0,8.50658975 0,19 C0,29.4934102 8.50658975,38 19,38 Z"/>
  </defs>
  <g fill="none" fill-rule="evenodd" transform="translate(3 18)">
    <g transform="translate(0 546)">
      <mask id="pay-b" fill="#fff">
        <use xlink:href="#pay-a"/>
      </mask>
      <use fill="#D8D8D8" opacity="0" xlink:href="#pay-a"/>
      <g mask="url(#pay-b)">
        <g transform="translate(158 15)">
          <g fill="#1A3B8B" transform="translate(0 12)">
            <path d="M59.7489388 4.90980252L56.6457116 4.90980252 54.8499354 12.3832677 54.5978966 13.4087328C54.42462 13.4553449 54.2513433 13.5019569 54.0780667 13.5330316 53.7630182 13.595181 53.4322174 13.6262557 53.0856641 13.6262557 52.6918535 13.6262557 52.3768051 13.5641063 52.1405187 13.4553449 51.9199848 13.3465834 51.7467081 13.1912099 51.6521936 12.973687 51.5576791 12.7717015 51.5261742 12.5231039 51.5419267 12.2434316 51.5576791 11.9637593 51.6206888 11.6530123 51.6994509 11.3422653L52.6445962 7.45792788 53.2589407 4.87872782 50.0927038 4.87872782 48.6592333 10.8450701C48.4859567 11.5597882 48.3914421 12.2434316 48.3599373 12.8960003 48.3284325 13.548569 48.4386994 14.1079136 48.6592333 14.6206461 48.8797672 15.1178413 49.2735778 15.506275 49.8091602 15.8014847 50.3447425 16.0966943 51.1166112 16.2365305 52.0932614 16.2365305 52.7706156 16.2365305 53.3692077 16.1743811 53.8732852 16.0656196 53.8890376 16.0656196 53.9205425 16.0500823 53.9362949 16.0500823L53.9362949 16.0500823C53.7945231 16.6715763 53.5109795 17.1687715 53.0699116 17.5572052 52.6130914 17.9456389 51.9514896 18.1476245 51.069354 18.1476245 50.6912958 18.1476245 50.3447425 18.1320871 50.0296941 18.0854751L49.4153496 20.6180631C49.8249126 20.6646752 50.2817329 20.6957499 50.7858104 20.6957499 51.7309557 20.6957499 52.5500817 20.5869884 53.2589407 20.3850029 53.9677997 20.16748 54.5663918 19.856733 55.0862217 19.4216872 55.5902993 18.9866414 56.0156147 18.4428341 56.362168 17.8058028 56.7087213 17.1532341 56.9765124 16.391904 57.1812939 15.4907377L59.3236234 6.60337364 59.3236234 6.60337364 59.7489388 4.90980252 59.7489388 4.90980252zM46.7531902 11.2956533C46.5641611 12.0725207 46.5011514 12.8649256 46.5799135 13.6417931 46.6586757 14.4341979 46.9737241 15.6305738 47.2730201 16.2365305L44.2800599 16.2365305C43.9177541 15.6305738 43.9335066 15.3353642 43.8547444 15.148916 43.4609339 15.459663 43.0356185 15.7237979 42.5630458 15.9257835 42.0904731 16.127769 41.5706432 16.2365305 40.9720511 16.2365305 40.2789445 16.2365305 39.6803525 16.1122317 39.1920274 15.8791714 38.7037023 15.6461112 38.2941393 15.3198268 37.9790908 14.9158558 37.6640424 14.5118847 37.4435085 14.0457642 37.3017367 13.5019569 37.1599648 12.9581497 37.0969552 12.3832677 37.0969552 11.7617738 37.0969552 10.8139954 37.2702318 9.92836648 37.6010327 9.0893496 37.947586 8.25033271 38.4201587 7.52007727 39.0187507 6.89858328 39.6173428 6.27708929 41.0823181 4.89426517 43.4766863 4.89426517L48.2811752 4.89426517 46.7531902 11.2956533 46.7531902 11.2956533zM44.5636035 7.48900257C43.1143806 7.48900257 42.8465894 7.48900257 42.2479973 7.78421222 41.8226819 8.00173512 41.4761286 8.32801946 41.1768326 8.70091585 40.8775366 9.07381225 40.6254978 9.50885804 40.4522212 10.0060532 40.2789445 10.5032484 40.18443 11.015981 40.18443 11.5442509 40.18443 12.1968195 40.2946969 12.7250894 40.5152309 13.1135232 40.7357648 13.5019569 41.1453278 13.6884051 41.7439198 13.6884051 42.0589683 13.6884051 42.3582643 13.6262557 42.6103031 13.5019569 42.8623418 13.3776581 43.1458854 13.1756726 43.429429 12.8804629 43.4609339 12.5386412 43.5081911 12.1812822 43.5712008 11.8083858 43.6342105 11.4354894 43.7129726 11.0781304 43.7759823 10.7673834L44.5636035 7.48900257 44.5636035 7.48900257zM36.2463243 9.40009659C36.2463243 10.4100243 36.0730477 11.326728 35.7422468 12.1657448 35.4114459 13.0047617 34.9388733 13.7194798 34.3402812 14.3254365 33.7416891 14.9313931 33.0328301 15.3975136 32.1979517 15.7393353 31.3630733 16.081157 30.4651853 16.2520678 29.4885351 16.2520678 29.0159624 16.2520678 28.5433897 16.2054558 28.0550646 16.127769L27.1099192 19.8722703 24.006692 19.8722703 27.6139968 4.92533987 31.7568839 4.92533987C32.544505 4.92533987 33.2218592 5.04963867 33.773194 5.28269891 34.3402812 5.51575916 34.7971015 5.8420435 35.1751596 6.2460146 35.5374653 6.64998569 35.8052565 7.13164353 35.9785332 7.67545077 36.1675622 8.20372066 36.2463243 8.7786026 36.2463243 9.40009659L36.2463243 9.40009659zM28.6379042 13.6417931C28.8741906 13.7039425 29.1734866 13.7194798 29.5200399 13.7194798 30.0713747 13.7194798 30.5596998 13.6262557 31.01652 13.4242702 31.4575879 13.2222846 31.8513984 12.9426123 32.1664469 12.5852533 32.4814953 12.2278942 32.7177817 11.7928485 32.9068108 11.2956533 33.0800874 10.7984581 33.1746019 10.2391135 33.1746019 9.63315684 33.1746019 9.04273755 33.0485826 8.53000501 32.7807914 8.12603391 32.5130002 7.70652547 32.0561799 7.48900257 31.3945782 7.48900257L30.1658892 7.48900257 28.6379042 13.6417931 28.6379042 13.6417931zM22.1164013 13.6417931C21.7225907 13.6417931 21.4075423 13.5796437 21.1712559 13.4708822 20.950722 13.3621208 20.7774454 13.2067473 20.6829308 12.9892244 20.5884163 12.7872388 20.5569115 12.5386412 20.5726639 12.2589689 20.5884163 11.9792966 20.651426 11.6685497 20.7301881 11.3578027L21.6753335 7.47346522 25.2038761 7.47346522 25.8497254 4.89426517 22.3054304 4.89426517 23.1245563 1.63142172 19.8165476 2.14415426 17.7214754 10.8761448C17.5481987 11.5908629 17.4536842 12.2745063 17.4221794 12.927075 17.3906745 13.5796437 17.5009415 14.1389883 17.7214754 14.6517208 17.9420093 15.148916 18.3358199 15.5373497 18.8714022 15.8325594 19.4069846 16.127769 20.1788533 16.2676052 21.1555035 16.2676052 21.8328577 16.2676052 22.4314497 16.2054558 22.9355273 16.0966943 22.9827845 16.081157 23.0615466 16.0656196 23.1088039 16.0500823L23.7546532 13.3931955C23.5341193 13.4708822 23.3135854 13.5174943 23.1088039 13.548569 22.7937555 13.6107184 22.4629546 13.6417931 22.1164013 13.6417931L22.1164013 13.6417931z"/>
            <polygon points="14.224 4.91 11.484 16.252 14.587 16.252 17.312 4.91"/>
            <polygon points="17.643 3.605 18.115 1.631 15.012 1.631 14.539 3.605"/>
            <path d="M7.35638134,4.92533987 C8.01798309,4.92533987 8.60082272,5.04963867 9.08914782,5.28269891 C9.57747292,5.51575916 9.97128349,5.82650615 10.3020844,6.23047725 C10.6171328,6.63444834 10.8534192,7.10056883 11.0109434,7.62883872 C11.1684676,8.15710861 11.2472297,8.73199055 11.2472297,9.35348454 C11.2472297,10.3012629 11.0739531,11.1868918 10.7116473,12.041446 C10.3493416,12.8804629 9.87676895,13.6262557 9.26242447,14.2477497 C8.64807999,14.8692437 7.92346855,15.3664389 7.08859016,15.7237979 C6.25371176,16.081157 5.35582367,16.2676052 4.37917348,16.2676052 C4.25315409,16.2676052 4.03262018,16.2676052 3.71757173,16.2520678 C3.40252328,16.2520678 3.04021756,16.2209931 2.64640699,16.1588437 C2.23684401,16.0966943 1.8115286,16.0190076 1.37046076,15.9102461 C0.913640509,15.8014847 0.4883251,15.6461112 0.0945145354,15.459663 L3.7018193,0.512732541 L6.93106593,0.0155373497 L5.6551197,5.31377361 C5.93866331,5.18947481 6.19070207,5.09625071 6.47424568,5.03410132 C6.74203686,4.95641457 7.04133289,4.92533987 7.35638134,4.92533987 L7.35638134,4.92533987 Z M4.64696466,13.7194798 C5.13528976,13.7194798 5.59211001,13.6107184 6.01742542,13.3621208 C6.44274083,13.1290605 6.82079897,12.8183135 7.13584743,12.4298798 C7.45089588,12.041446 7.70293464,11.5908629 7.87621129,11.1092051 C8.04948793,10.6120099 8.14400247,10.0992773 8.14400247,9.57100744 C8.14400247,8.91843875 8.03373551,8.40570621 7.8132016,8.03280982 C7.59266768,7.65991342 7.13584743,7.48900257 6.53725537,7.48900257 C6.3482263,7.48900257 6.1434448,7.50453992 5.82839635,7.58222667 C5.5133479,7.64437607 5.24555672,7.79974957 4.99351796,8.01727247 L3.63880961,13.6573304 C4.0483726,13.7194798 4.17439198,13.7350172 4.28465894,13.7350172 C4.36342105,13.7194798 4.48944043,13.7194798 4.64696466,13.7194798 L4.64696466,13.7194798 Z"/>
          </g>
          <path fill="#636363" fill-rule="nonzero" d="M14.4790039,6 L14.4790039,4.32714844 L15.4868164,4.32714844 C15.8071289,4.32714844 16.0791015,4.27685547 16.3027344,4.17626953 C16.5263672,4.07568359 16.6958008,3.92871094 16.8110351,3.73535156 C16.9262695,3.54199219 16.9838867,3.30859375 16.9838867,3.03515625 C16.9838867,2.77929688 16.9257812,2.55371094 16.8095703,2.35839844 C16.6933594,2.16308594 16.5224609,2.01025391 16.296875,1.89990234 C16.071289,1.78955078 15.8012695,1.734375 15.4868164,1.734375 L15.4868164,1.734375 L13.9106445,1.734375 L13.9106445,6 L14.4790039,6 Z M15.4868164,3.87011719 L14.4790039,3.87011719 L14.4790039,2.19433594 L15.4868164,2.19433594 C15.6958008,2.19433594 15.8701172,2.23291016 16.0097656,2.31005859 C16.149414,2.38720703 16.2519531,2.48974609 16.3173828,2.61767578 C16.3828125,2.74560547 16.4155273,2.88671875 16.4155273,3.04101562 C16.4155273,3.296875 16.3398437,3.49902344 16.1884765,3.64746094 C16.0371094,3.79589844 15.8032226,3.87011719 15.4868164,3.87011719 L15.4868164,3.87011719 Z M19.0793945,6.05859375 C19.3704101,6.05859375 19.6248047,5.98876953 19.8425781,5.84912109 C20.0603516,5.70947266 20.227832,5.51806641 20.3450195,5.27490234 C20.462207,5.03173828 20.5208008,4.75683594 20.5208008,4.45019531 L20.5208008,4.45019531 L20.5208008,4.3828125 C20.5208008,4.07617188 20.462207,3.80078125 20.3450195,3.55664062 C20.227832,3.3125 20.0598633,3.12060547 19.8411133,2.98095703 C19.6223633,2.84130859 19.3665039,2.77148438 19.0735351,2.77148438 C18.7844726,2.77148438 18.5310547,2.84130859 18.3132812,2.98095703 C18.0955078,3.12060547 17.9280273,3.3125 17.8108398,3.55664062 C17.6936523,3.80078125 17.6350586,4.07617188 17.6350586,4.3828125 L17.6350586,4.3828125 L17.6350586,4.45019531 C17.6350586,4.75683594 17.6941406,5.03173828 17.8123047,5.27490234 C17.9304687,5.51806641 18.0984375,5.70947266 18.3162109,5.84912109 C18.5339844,5.98876953 18.7883789,6.05859375 19.0793945,6.05859375 Z M19.0793945,5.61914062 C18.8860351,5.61914062 18.7219726,5.56689453 18.587207,5.46240234 C18.4524414,5.35791016 18.3513672,5.21679688 18.2839844,5.0390625 C18.2166016,4.86132812 18.1829101,4.66503906 18.1829101,4.45019531 L18.1829101,4.45019531 L18.1829101,4.3828125 C18.1829101,4.16796875 18.2166016,3.97167969 18.2839844,3.79394531 C18.3513672,3.61621094 18.4519531,3.47460938 18.5857422,3.36914062 C18.7195312,3.26367188 18.8821289,3.2109375 19.0735351,3.2109375 C19.2668945,3.2109375 19.430957,3.26367188 19.5657226,3.36914062 C19.7004883,3.47460938 19.8020508,3.61621094 19.8704101,3.79394531 C19.9387695,3.97167969 19.9729492,4.16796875 19.9729492,4.3828125 L19.9729492,4.3828125 L19.9729492,4.45019531 C19.9729492,4.66503906 19.9392578,4.86132812 19.871875,5.0390625 C19.8044922,5.21679688 19.703418,5.35791016 19.5686523,5.46240234 C19.4338867,5.56689453 19.2708008,5.61914062 19.0793945,5.61914062 Z M22.4786133,6 L23.2286133,3.60644531 L23.9961914,6 L24.4385742,6 L25.3584961,2.83007812 L24.8165039,2.83007812 L24.2071289,5.23535156 L23.4600586,2.83007812 L23.0176758,2.83007812 L22.2823242,5.18261719 L21.6612305,2.83007812 L21.1163086,2.83007812 L22.0362305,6 L22.4786133,6 Z M27.4276367,6.05859375 C27.7166992,6.05859375 27.9588867,6.00146484 28.1541992,5.88720703 C28.3495117,5.77294922 28.5057617,5.62597656 28.6229492,5.44628906 L28.6229492,5.44628906 L28.2918945,5.18847656 C28.1864258,5.32714844 28.0667969,5.43359375 27.9330078,5.5078125 C27.7992187,5.58203125 27.6405273,5.61914062 27.4569336,5.61914062 C27.2694336,5.61914062 27.1058594,5.57275391 26.9662109,5.47998047 C26.8265625,5.38720703 26.7186523,5.26074219 26.6424805,5.10058594 C26.5663086,4.94042969 26.525293,4.76171875 26.5194336,4.56445312 L26.5194336,4.56445312 L28.6639648,4.56445312 L28.6639648,4.32128906 C28.6639648,4.01660156 28.6170898,3.74804688 28.5233398,3.515625 C28.4295898,3.28320312 28.2855469,3.10107422 28.0912109,2.96923828 C27.896875,2.83740234 27.6522461,2.77148438 27.3573242,2.77148438 C27.1151367,2.77148438 26.8880859,2.83691406 26.6761719,2.96777344 C26.4642578,3.09863281 26.2938477,3.28759766 26.1649414,3.53466797 C26.0360352,3.78173828 25.971582,4.0703125 25.971582,4.40039062 L25.971582,4.40039062 L25.971582,4.52636719 C25.971582,4.82128906 26.0316406,5.08496094 26.1517578,5.31738281 C26.271875,5.54980469 26.4422852,5.73144531 26.6629883,5.86230469 C26.8836914,5.99316406 27.1385742,6.05859375 27.4276367,6.05859375 Z M28.1161133,4.125 L26.5370117,4.125 C26.5741211,3.83398438 26.6654297,3.60888672 26.8109375,3.44970703 C26.9564453,3.29052734 27.1385742,3.2109375 27.3573242,3.2109375 C27.6112305,3.2109375 27.7972656,3.29443359 27.9154297,3.46142578 C28.0335937,3.62841797 28.1004883,3.8359375 28.1161133,4.08398438 L28.1161133,4.08398438 L28.1161133,4.125 Z M30.0416992,6 L30.0416992,3.74707031 C30.1022461,3.60253906 30.1925781,3.49023438 30.3126953,3.41015625 C30.4328125,3.33007812 30.5827148,3.29003906 30.7624023,3.29003906 C30.8561523,3.29003906 30.9450195,3.29785156 31.0290039,3.31347656 L31.0290039,3.31347656 L31.0290039,2.8125 C31.0094727,2.80273438 30.9733398,2.79345703 30.9206055,2.78466797 C30.8678711,2.77587891 30.8239258,2.77148438 30.7887695,2.77148438 C30.6208008,2.77148438 30.4743164,2.80810547 30.3493164,2.88134766 C30.2243164,2.95458984 30.1208008,3.05761719 30.0387695,3.19042969 L30.0387695,3.19042969 L30.0270508,2.83007812 L29.4938477,2.83007812 L29.4938477,6 L30.0416992,6 Z M33.0454102,6.05859375 C33.3344727,6.05859375 33.5766602,6.00146484 33.7719727,5.88720703 C33.9672852,5.77294922 34.1235352,5.62597656 34.2407227,5.44628906 L34.2407227,5.44628906 L33.909668,5.18847656 C33.8041992,5.32714844 33.6845703,5.43359375 33.5507812,5.5078125 C33.4169922,5.58203125 33.2583008,5.61914062 33.074707,5.61914062 C32.887207,5.61914062 32.7236328,5.57275391 32.5839844,5.47998047 C32.4443359,5.38720703 32.3364258,5.26074219 32.2602539,5.10058594 C32.184082,4.94042969 32.1430664,4.76171875 32.137207,4.56445312 L32.137207,4.56445312 L34.2817383,4.56445312 L34.2817383,4.32128906 C34.2817383,4.01660156 34.2348633,3.74804688 34.1411133,3.515625 C34.0473633,3.28320312 33.9033203,3.10107422 33.7089844,2.96923828 C33.5146484,2.83740234 33.2700195,2.77148438 32.9750977,2.77148438 C32.7329102,2.77148438 32.5058594,2.83691406 32.2939453,2.96777344 C32.0820312,3.09863281 31.9116211,3.28759766 31.7827148,3.53466797 C31.6538086,3.78173828 31.5893555,4.0703125 31.5893555,4.40039062 L31.5893555,4.40039062 L31.5893555,4.52636719 C31.5893555,4.82128906 31.6494141,5.08496094 31.7695312,5.31738281 C31.8896484,5.54980469 32.0600586,5.73144531 32.2807617,5.86230469 C32.5014648,5.99316406 32.7563477,6.05859375 33.0454102,6.05859375 Z M33.7338867,4.125 L32.1547852,4.125 C32.1918945,3.83398438 32.2832031,3.60888672 32.4287109,3.44970703 C32.5742188,3.29052734 32.7563477,3.2109375 32.9750977,3.2109375 C33.2290039,3.2109375 33.4150391,3.29443359 33.5332031,3.46142578 C33.6513672,3.62841797 33.7182617,3.8359375 33.7338867,4.08398438 L33.7338867,4.08398438 L33.7338867,4.125 Z M36.227832,6.05859375 C36.6145508,6.05859375 36.915332,5.92675781 37.1301758,5.66308594 L37.1301758,5.66308594 L37.156543,6 L37.6575195,6 L37.6575195,1.5 L37.109668,1.5 L37.109668,3.14355469 C36.8987305,2.89550781 36.6067383,2.77148438 36.2336914,2.77148438 C35.9836914,2.77148438 35.7639648,2.83886719 35.5745117,2.97363281 C35.3850586,3.10839844 35.2385742,3.29785156 35.1350586,3.54199219 C35.031543,3.78613281 34.9797852,4.06835938 34.9797852,4.38867188 L34.9797852,4.38867188 L34.9797852,4.45019531 C34.9797852,4.75683594 35.0320313,5.03222656 35.1365234,5.27636719 C35.2410156,5.52050781 35.3879883,5.71191406 35.5774414,5.85058594 C35.7668945,5.98925781 35.9836914,6.05859375 36.227832,6.05859375 Z M36.3625977,5.6015625 C36.1750977,5.6015625 36.0188477,5.55078125 35.8938477,5.44921875 C35.7688477,5.34765625 35.6765625,5.21044922 35.6169922,5.03759766 C35.5574219,4.86474609 35.5276367,4.66894531 35.5276367,4.45019531 L35.5276367,4.45019531 L35.5276367,4.38867188 C35.5276367,4.16992188 35.5574219,3.97265625 35.6169922,3.796875 C35.6765625,3.62109375 35.7693359,3.48193359 35.8953125,3.37939453 C36.0212891,3.27685547 36.1790039,3.22558594 36.368457,3.22558594 C36.5442383,3.22558594 36.6931641,3.265625 36.8152344,3.34570312 C36.9373047,3.42578125 37.0354492,3.53515625 37.109668,3.67382812 L37.109668,3.67382812 L37.109668,5.14160156 C36.9495117,5.44824219 36.7004883,5.6015625 36.3625977,5.6015625 Z M41.8426758,6.05859375 C42.0985352,6.05859375 42.3192383,5.98974609 42.5047852,5.85205078 C42.690332,5.71435547 42.8314453,5.52392578 42.928125,5.28076172 C43.0248047,5.03759766 43.0731445,4.76074219 43.0731445,4.45019531 L43.0731445,4.45019531 L43.0731445,4.38867188 C43.0731445,4.06445312 43.0248047,3.78076172 42.928125,3.53759766 C42.8314453,3.29443359 42.690332,3.10595703 42.5047852,2.97216797 C42.3192383,2.83837891 42.096582,2.77148438 41.8368164,2.77148438 C41.4520508,2.77148438 41.1512695,2.90429688 40.9344727,3.16992188 L40.9344727,3.16992188 L40.9344727,1.5 L40.3866211,1.5 L40.3866211,6 L40.8875977,6 L40.9139649,5.63964844 C41.1327149,5.91894531 41.4422852,6.05859375 41.8426758,6.05859375 Z M41.7049805,5.6015625 C41.5213867,5.6015625 41.365625,5.55664062 41.2376953,5.46679688 C41.1097656,5.37695312 41.0086914,5.25683594 40.9344727,5.10644531 L40.9344727,5.10644531 L40.9344727,3.72070312 C41.0067383,3.56835938 41.1058594,3.44775391 41.2318359,3.35888672 C41.3578125,3.27001953 41.5135742,3.22558594 41.6991211,3.22558594 C41.9862305,3.22558594 42.1957031,3.33251953 42.3275391,3.54638672 C42.459375,3.76025391 42.525293,4.04101562 42.525293,4.38867188 L42.525293,4.38867188 L42.525293,4.45019531 C42.525293,4.79003906 42.4574219,5.06689453 42.3216797,5.28076172 C42.1859375,5.49462891 41.9803711,5.6015625 41.7049805,5.6015625 Z M44.0993164,7.28027344 C44.3532227,7.28027344 44.5539063,7.20166016 44.7013672,7.04443359 C44.8488281,6.88720703 44.9616211,6.70214844 45.0397461,6.48925781 L45.0397461,6.48925781 L46.3112305,2.83007812 L45.7282227,2.83007812 L44.9928711,5.203125 L44.2077149,2.83007812 L43.6100586,2.83007812 L44.740918,5.96484375 L44.6208008,6.29003906 C44.5563477,6.48339844 44.4728516,6.61865234 44.3703125,6.69580078 C44.2677734,6.77294922 44.1237305,6.81152344 43.9381836,6.81152344 C43.9166992,6.81152344 43.8922852,6.81005859 43.8649414,6.80712891 C43.8375977,6.80419922 43.8131836,6.80078125 43.7916992,6.796875 L43.7916992,6.796875 L43.7916992,7.23339844 C43.8249024,7.24316406 43.8742188,7.25341797 43.9396484,7.26416016 C44.0050781,7.27490234 44.0583008,7.28027344 44.0993164,7.28027344 Z" opacity=".501"/>
        </g>
      </g>
      <g stroke="#13E5B6" stroke-width=".938" mask="url(#pay-b)">
        <g transform="translate(184)">
          <path d="M4,0 L4,0 C2.6,0 1.5,1 1.5,2.27272727 L1.5,3.63636364 L6.5,3.63636364 L6.5,2.27272727 C6.5,1 5.4,0 4,0 L4,0 Z"/>
          <rect width="8" height="6.364" y="3.636"/>
          <ellipse cx="4" cy="6.364" rx="1" ry="1"/>
          <line x1="4" x2="4" y1="7.273" y2="8.182"/>
        </g>
      </g>
    </g>
    <g transform="translate(103 430)">
      <rect width="168" height="48" fill="#4F6EF7" rx="6"/>
      <path fill="#FFF" fill-rule="nonzero" d="M32.2587891,30.1757812 C33.3076172,30.1757812 34.2348633,29.9223633 35.0405273,29.4155273 C35.8461914,28.9086914 36.4658203,28.1821289 36.8994141,27.2358398 C37.3330078,26.2895508 37.5498047,25.1894531 37.5498047,23.9355469 L37.5498047,23.9355469 L37.5498047,23.2236328 C37.5439453,21.9755859 37.3212891,20.8813477 36.8818359,19.940918 C36.4423828,19.0004883 35.8198242,18.2797852 35.0141602,17.7788086 C34.2084961,17.277832 33.2841797,17.0273438 32.2412109,17.0273438 C31.1982422,17.0273438 30.2739258,17.2807617 29.4682617,17.7875977 C28.6625977,18.2944336 28.0385742,19.0253906 27.5961914,19.9804688 C27.1538086,20.9355469 26.9326172,22.0371094 26.9326172,23.2851562 L26.9326172,23.2851562 L26.9326172,24.0058594 C26.9384766,25.2304688 27.1625977,26.3115234 27.6049805,27.2490234 C28.0473633,28.1865234 28.6743164,28.9086914 29.4858398,29.4155273 C30.2973633,29.9223633 31.2216797,30.1757812 32.2587891,30.1757812 Z M32.2587891,28.3476562 C31.2861328,28.3476562 30.5258789,27.9638672 29.9780273,27.1962891 C29.4301758,26.4287109 29.15625,25.3417969 29.15625,23.9355469 L29.15625,23.9355469 L29.15625,23.1972656 C29.1679688,21.8203125 29.4448242,20.7553711 29.9868164,20.0024414 C30.5288086,19.2495117 31.2802734,18.8730469 32.2412109,18.8730469 C33.2255859,18.8730469 33.9858398,19.2509766 34.5219727,20.0068359 C35.0581055,20.7626953 35.3261719,21.8496094 35.3261719,23.2675781 L35.3261719,23.2675781 L35.3261719,23.9355469 C35.3261719,25.3769531 35.0610352,26.4726562 34.5307617,27.2226562 C34.0004883,27.9726562 33.2431641,28.3476562 32.2587891,28.3476562 Z M41.6894531,33.65625 L41.6894531,29.1474609 C42.3164062,29.8330078 43.1513672,30.1757812 44.1943359,30.1757812 C45.3193359,30.1757812 46.2158203,29.737793 46.8837891,28.8618164 C47.5517578,27.9858398 47.8857422,26.8125 47.8857422,25.3417969 L47.8857422,25.3417969 L47.8857422,25.2099609 C47.8857422,23.6748047 47.5561523,22.4750977 46.8969727,21.6108398 C46.237793,20.746582 45.328125,20.3144531 44.1679688,20.3144531 C43.0898438,20.3144531 42.2373047,20.6953125 41.6103516,21.4570312 L41.6103516,21.4570312 L41.5224609,20.4902344 L39.5537109,20.4902344 L39.5537109,33.65625 L41.6894531,33.65625 Z M43.5878906,28.4707031 C42.7089844,28.4707031 42.0761719,28.1015625 41.6894531,27.3632812 L41.6894531,27.3632812 L41.6894531,23.1445312 C42.0703125,22.4238281 42.6972656,22.0634766 43.5703125,22.0634766 C44.2734375,22.0634766 44.8139648,22.3417969 45.1918945,22.8984375 C45.5698242,23.4550781 45.7587891,24.2080078 45.7587891,25.1572266 C45.7587891,26.2705078 45.5668945,27.1010742 45.1831055,27.6489258 C44.7993164,28.1967773 44.2675781,28.4707031 43.5878906,28.4707031 Z M53.8798828,30.1757812 C54.6708984,30.1757812 55.3842773,30.019043 56.0200195,29.7055664 C56.6557617,29.3920898 57.1640625,28.9511719 57.5449219,28.3828125 L57.5449219,28.3828125 L56.3935547,27.2841797 C55.7783203,28.0751953 54.9814453,28.4707031 54.0029297,28.4707031 C53.3056641,28.4707031 52.7270508,28.2421875 52.2670898,27.7851562 C51.8071289,27.328125 51.5449219,26.7070312 51.4804688,25.921875 L51.4804688,25.921875 L57.6943359,25.921875 L57.6943359,25.0605469 C57.6943359,23.5488281 57.3413086,22.3798828 56.6352539,21.5537109 C55.9291992,20.7275391 54.9287109,20.3144531 53.6337891,20.3144531 C52.8193359,20.3144531 52.0810547,20.5224609 51.4189453,20.9384766 C50.7568359,21.3544922 50.2426758,21.9360352 49.8764648,22.6831055 C49.5102539,23.4301758 49.3271484,24.2783203 49.3271484,25.2275391 L49.3271484,25.2275391 L49.3271484,25.4912109 C49.3271484,26.9091797 49.7475586,28.0444336 50.5883789,28.8969727 C51.4291992,29.7495117 52.5263672,30.1757812 53.8798828,30.1757812 Z M55.5849609,24.3574219 L51.515625,24.3574219 C51.6152344,23.625 51.8452148,23.0537109 52.2055664,22.6435547 C52.565918,22.2333984 53.0390625,22.0283203 53.625,22.0283203 C54.2167969,22.0283203 54.6796875,22.2114258 55.0136719,22.5776367 C55.3476562,22.9438477 55.5380859,23.484375 55.5849609,24.1992188 L55.5849609,24.1992188 L55.5849609,24.3574219 Z M61.4560547,30 L61.4560547,23.2324219 C61.8779297,22.453125 62.5195312,22.0634766 63.3808594,22.0634766 C63.9726562,22.0634766 64.3989258,22.2084961 64.659668,22.4985352 C64.9204102,22.7885742 65.0507812,23.2353516 65.0507812,23.8388672 L65.0507812,23.8388672 L65.0507812,30 L67.1865234,30 L67.1865234,23.7158203 C67.1513672,21.4482422 66.1435547,20.3144531 64.1630859,20.3144531 C63.0205078,20.3144531 62.0976562,20.7392578 61.3945312,21.5888672 L61.3945312,21.5888672 L61.3330078,20.4902344 L59.3203125,20.4902344 L59.3203125,30 L61.4560547,30 Z M75.0527344,19.1455078 C75.4394531,19.1455078 75.7382812,19.0385742 75.9492188,18.824707 C76.1601562,18.6108398 76.265625,18.3427734 76.265625,18.0205078 C76.265625,17.6923828 76.1601562,17.4199219 75.9492188,17.203125 C75.7382812,16.9863281 75.4394531,16.8779297 75.0527344,16.8779297 C74.6660156,16.8779297 74.3686523,16.9863281 74.1606445,17.203125 C73.9526367,17.4199219 73.8486328,17.6923828 73.8486328,18.0205078 C73.8486328,18.3427734 73.9526367,18.6108398 74.1606445,18.824707 C74.3686523,19.0385742 74.6660156,19.1455078 75.0527344,19.1455078 Z M76.1162109,30 L76.1162109,20.4902344 L73.9804688,20.4902344 L73.9804688,30 L76.1162109,30 Z M80.5458984,30 L80.5458984,23.2324219 C80.9677734,22.453125 81.609375,22.0634766 82.4707031,22.0634766 C83.0625,22.0634766 83.4887695,22.2084961 83.7495117,22.4985352 C84.0102539,22.7885742 84.140625,23.2353516 84.140625,23.8388672 L84.140625,23.8388672 L84.140625,30 L86.2763672,30 L86.2763672,23.7158203 C86.2412109,21.4482422 85.2333984,20.3144531 83.2529297,20.3144531 C82.1103516,20.3144531 81.1875,20.7392578 80.484375,21.5888672 L80.484375,21.5888672 L80.4228516,20.4902344 L78.4101562,20.4902344 L78.4101562,30 L80.5458984,30 Z M97.3505859,30 L99.8378906,20.6572266 L102.272461,30 L104.399414,30 L107.352539,17.203125 L105.146484,17.203125 L103.177734,26.8359375 L100.760742,17.203125 L98.8974609,17.203125 L96.4541016,26.8183594 L94.4677734,17.203125 L92.2617188,17.203125 L95.2148438,30 L97.3505859,30 Z M111.421875,30.1757812 C112.40625,30.1757812 113.238281,29.8212891 113.917969,29.1123047 C113.988281,29.5224609 114.070312,29.8183594 114.164062,30 L114.164062,30 L116.34375,30 L116.34375,29.8505859 C116.103516,29.3408203 115.983398,28.6582031 115.983398,27.8027344 L115.983398,27.8027344 L115.983398,23.5136719 C115.96582,22.5 115.625977,21.7133789 114.963867,21.1538086 C114.301758,20.5942383 113.414062,20.3144531 112.300781,20.3144531 C111.568359,20.3144531 110.904785,20.4433594 110.310059,20.7011719 C109.715332,20.9589844 109.245117,21.3149414 108.899414,21.769043 C108.553711,22.2231445 108.380859,22.7109375 108.380859,23.2324219 L108.380859,23.2324219 L110.516602,23.2324219 C110.516602,22.8574219 110.671875,22.5483398 110.982422,22.3051758 C111.292969,22.0620117 111.691406,21.9404297 112.177734,21.9404297 C112.740234,21.9404297 113.15918,22.0883789 113.43457,22.3842773 C113.709961,22.6801758 113.847656,23.0742188 113.847656,23.5664062 L113.847656,23.5664062 L113.847656,24.1904297 L112.538086,24.1904297 C111.137695,24.1904297 110.061035,24.4614258 109.308105,25.003418 C108.555176,25.5454102 108.178711,26.3232422 108.178711,27.3369141 C108.178711,28.1396484 108.480469,28.8134766 109.083984,29.3583984 C109.6875,29.9033203 110.466797,30.1757812 111.421875,30.1757812 Z M111.817383,28.4619141 C111.360352,28.4619141 110.995605,28.340332 110.723145,28.097168 C110.450684,27.8540039 110.314453,27.5273438 110.314453,27.1171875 C110.314453,26.6132812 110.513672,26.2236328 110.912109,25.9482422 C111.310547,25.6728516 111.905273,25.5351562 112.696289,25.5351562 L112.696289,25.5351562 L113.847656,25.5351562 L113.847656,27.328125 C113.660156,27.6738281 113.380371,27.9492188 113.008301,28.1542969 C112.63623,28.359375 112.239258,28.4619141 111.817383,28.4619141 Z M120.492188,30 L120.492188,16.5 L118.356445,16.5 L118.356445,30 L120.492188,30 Z M125.088867,30 L125.088867,16.5 L122.953125,16.5 L122.953125,30 L125.088867,30 Z M131.601562,30.1757812 C132.392578,30.1757812 133.105957,30.019043 133.741699,29.7055664 C134.377441,29.3920898 134.885742,28.9511719 135.266602,28.3828125 L135.266602,28.3828125 L134.115234,27.2841797 C133.5,28.0751953 132.703125,28.4707031 131.724609,28.4707031 C131.027344,28.4707031 130.44873,28.2421875 129.98877,27.7851562 C129.528809,27.328125 129.266602,26.7070312 129.202148,25.921875 L129.202148,25.921875 L135.416016,25.921875 L135.416016,25.0605469 C135.416016,23.5488281 135.062988,22.3798828 134.356934,21.5537109 C133.650879,20.7275391 132.650391,20.3144531 131.355469,20.3144531 C130.541016,20.3144531 129.802734,20.5224609 129.140625,20.9384766 C128.478516,21.3544922 127.964355,21.9360352 127.598145,22.6831055 C127.231934,23.4301758 127.048828,24.2783203 127.048828,25.2275391 L127.048828,25.2275391 L127.048828,25.4912109 C127.048828,26.9091797 127.469238,28.0444336 128.310059,28.8969727 C129.150879,29.7495117 130.248047,30.1757812 131.601562,30.1757812 Z M133.306641,24.3574219 L129.237305,24.3574219 C129.336914,23.625 129.566895,23.0537109 129.927246,22.6435547 C130.287598,22.2333984 130.760742,22.0283203 131.34668,22.0283203 C131.938477,22.0283203 132.401367,22.2114258 132.735352,22.5776367 C133.069336,22.9438477 133.259766,23.484375 133.306641,24.1992188 L133.306641,24.1992188 L133.306641,24.3574219 Z M140.074219,30.1757812 C140.525391,30.1757812 140.994141,30.1083984 141.480469,29.9736328 L141.480469,29.9736328 L141.480469,28.3212891 C141.228516,28.3798828 140.979492,28.4091797 140.733398,28.4091797 C140.364258,28.4091797 140.10791,28.3286133 139.964355,28.1674805 C139.820801,28.0063477 139.749023,27.7441406 139.749023,27.3808594 L139.749023,27.3808594 L139.749023,22.0722656 L141.427734,22.0722656 L141.427734,20.4902344 L139.749023,20.4902344 L139.749023,18.1787109 L137.613281,18.1787109 L137.613281,20.4902344 L136.048828,20.4902344 L136.048828,22.0722656 L137.613281,22.0722656 L137.613281,27.4599609 C137.613281,29.2705078 138.433594,30.1757812 140.074219,30.1757812 Z"/>
    </g>
    <g transform="translate(15)">
      <use fill="#000" filter="url(#pay-c)" xlink:href="#pay-d"/>
      <use fill="#FFF" xlink:href="#pay-d"/>
      <g transform="translate(20 24)">
        <g transform="translate(35 77.5)">
          <path fill="#2FCF6E" d="M48,0 C52.418278,2.22441625e-15 56,3.581722 56,8 L56,48 C56,52.418278 52.418278,56 48,56 L8,56 C3.581722,56 3.57712375e-15,52.418278 0,48 L0,8 C-1.42926142e-15,3.581722 3.581722,-7.65539184e-17 8,0 L48,0 Z M44,8 L12,8 C9.790861,8 8,9.790861 8,12 L8,12 L8,44 C8,46.209139 9.790861,48 12,48 L12,48 L44,48 C46.209139,48 48,46.209139 48,44 L48,44 L48,12 C48,9.790861 46.209139,8 44,8 L44,8 Z"/>
          <rect width="24.857" height="24.85" x="15.286" y="15.424" fill="#434D5A" rx="4"/>
          <g transform="translate(0 178)">
            <path fill="#2FCF6E" d="M48,0 C52.418278,2.22441625e-15 56,3.581722 56,8 L56,48 C56,52.418278 52.418278,56 48,56 L8,56 C3.581722,56 3.57712375e-15,52.418278 0,48 L0,8 C-1.42926142e-15,3.581722 3.581722,-7.65539184e-17 8,0 L48,0 Z M44,8 L12,8 C9.790861,8 8,9.790861 8,12 L8,12 L8,44 C8,46.209139 9.790861,48 12,48 L12,48 L44,48 C46.209139,48 48,46.209139 48,44 L48,44 L48,12 C48,9.790861 46.209139,8 44,8 L44,8 Z"/>
            <rect width="24.857" height="24.85" x="15.286" y="15.424" fill="#434D5A" rx="4"/>
          </g>
          <g transform="translate(178)">
            <path fill="#2FCF6E" d="M48,0 C52.418278,2.22441625e-15 56,3.581722 56,8 L56,48 C56,52.418278 52.418278,56 48,56 L8,56 C3.581722,56 3.57712375e-15,52.418278 0,48 L0,8 C-1.42926142e-15,3.581722 3.581722,-7.65539184e-17 8,0 L48,0 Z M44,8 L12,8 C9.790861,8 8,9.790861 8,12 L8,12 L8,44 C8,46.209139 9.790861,48 12,48 L12,48 L44,48 C46.209139,48 48,46.209139 48,44 L48,44 L48,12 C48,9.790861 46.209139,8 44,8 L44,8 Z"/>
            <rect width="24.857" height="24.85" x="15.286" y="15.424" fill="#434D5A" rx="4"/>
          </g>
          <g fill="#434D5A">
            <rect width="8.04" height="8.038" y="64.302" rx="4.019"/>
            <rect width="8.04" height="8.038" y="72.34" rx="4.019"/>
            <rect width="8.04" height="8.038" y="80.378" rx="4.019"/>
            <rect width="8.04" height="8.038" y="88.416" rx="4.019"/>
            <rect width="8.04" height="8.038" y="104.491" rx="4.019"/>
            <rect width="8.04" height="8.038" y="112.529" rx="4.019"/>
            <rect width="8.04" height="8.038" y="128.605" rx="4.019"/>
            <rect width="8.04" height="8.038" x="8.04" y="72.34" rx="4.019"/>
            <rect width="8.04" height="8.038" x="8.04" y="88.416" rx="4.019"/>
            <rect width="8.04" height="8.038" x="8.04" y="96.453" rx="4.019"/>
            <rect width="8.04" height="8.038" x="8.04" y="112.529" rx="4.019"/>
            <rect width="8.04" height="8.038" x="8.04" y="128.605" rx="4.019"/>
            <rect width="8.04" height="8.038" x="16.08" y="72.34" rx="4.019"/>
            <rect width="8.04" height="8.038" x="16.08" y="80.378" rx="4.019"/>
            <rect width="8.04" height="8.038" x="16.08" y="96.453" rx="4.019"/>
            <rect width="8.04" height="8.038" x="16.08" y="112.529" rx="4.019"/>
            <rect width="8.04" height="8.038" x="16.08" y="120.567" rx="4.019"/>
            <rect width="8.04" height="8.038" x="16.08" y="144.68" rx="4.019"/>
            <rect width="8.04" height="8.038" x="16.08" y="152.718" rx="4.019"/>
            <rect width="8.04" height="8.038" x="24" y="64" rx="4.019"/>
            <rect width="8.04" height="8.038" x="24.12" y="96.453" rx="4.019"/>
            <rect width="8.04" height="8.038" x="24.12" y="136.642" rx="4.019"/>
            <rect width="8.04" height="8.038" x="24.12" y="144.68" rx="4.019"/>
            <rect width="8.04" height="8.038" x="24.12" y="152.718" rx="4.019"/>
            <rect width="8.04" height="8.038" x="24.12" y="160.756" rx="4.019"/>
            <rect width="8.04" height="8.038" x="32.16" y="64.302" rx="4.019"/>
            <rect width="8.04" height="8.038" x="32.16" y="96.453" rx="4.019"/>
            <rect width="8.04" height="8.038" x="32.16" y="104.491" rx="4.019"/>
            <rect width="8.04" height="8.038" x="32.16" y="112.529" rx="4.019"/>
            <rect width="8.04" height="8.038" x="32.16" y="120.567" rx="4.019"/>
            <rect width="8.04" height="8.038" x="32.16" y="152.718" rx="4.019"/>
            <rect width="8.04" height="8.038" x="32.16" y="160.756" rx="4.019"/>
            <rect width="8.04" height="8.038" x="40.2" y="64.302" rx="4.019"/>
            <rect width="8.04" height="8.038" x="40.2" y="72.34" rx="4.019"/>
            <rect width="8.04" height="8.038" x="40.2" y="96.453" rx="4.019"/>
            <rect width="8.04" height="8.038" x="40.2" y="104.491" rx="4.019"/>
            <rect width="8.04" height="8.038" x="40.2" y="120.567" rx="4.019"/>
            <rect width="8.04" height="8.038" x="40.2" y="136.642" rx="4.019"/>
            <rect width="8.04" height="8.038" x="40.2" y="144.68" rx="4.019"/>
            <rect width="8.04" height="8.038" x="40.2" y="152.718" rx="4.019"/>
            <rect width="8.04" height="8.038" x="40.2" y="160.756" rx="4.019"/>
            <rect width="8.04" height="8.038" x="48.24" y="64.302" rx="4.019"/>
            <rect width="8.04" height="8.038" x="48.24" y="80.378" rx="4.019"/>
            <rect width="8.04" height="8.038" x="48.24" y="96.453" rx="4.019"/>
            <rect width="8.04" height="8.038" x="48.24" y="112.529" rx="4.019"/>
            <rect width="8.04" height="8.038" x="48.24" y="128.605" rx="4.019"/>
            <rect width="8.04" height="8.038" x="48.24" y="144.68" rx="4.019"/>
            <rect width="8.04" height="8.038" x="48.24" y="160.756" rx="4.019"/>
            <rect width="8.04" height="8.038" x="56.28" y="64.302" rx="4.019"/>
            <rect width="8.04" height="8.038" x="56.28" y="72.34" rx="4.019"/>
            <rect width="8.04" height="8.038" x="56.28" y="88.416" rx="4.019"/>
            <rect width="8.04" height="8.038" x="56.28" y="120.567" rx="4.019"/>
            <rect width="8.04" height="8.038" x="56.28" y="128.605" rx="4.019"/>
            <rect width="8.04" height="8.038" x="56.28" y="136.642" rx="4.019"/>
            <rect width="8.04" height="8.038" x="56.28" y="144.68" rx="4.019"/>
            <rect width="8.04" height="8.038" x="56.28" y="160.756" rx="4.019"/>
            <path d="M68.3386184 0L68.340795 0C70.5603691-1.29590757e-15 72.3596895 1.79932034 72.3596895 4.01889446 72.3596895 6.23846858 70.5603691 8.03778892 68.340795 8.03778892L68.3386184 8.03778892C66.1190443 8.03778892 64.319724 6.23846858 64.319724 4.01889446 64.319724 1.79932034 66.1190443-4.80449268e-16 68.3386184 0zM68.3386184 8.03778892L68.340795 8.03778892C70.5603691 8.03778892 72.3596895 9.83710926 72.3596895 12.0566834 72.3596895 14.2762575 70.5603691 16.0755778 68.340795 16.0755778L68.3386184 16.0755778C66.1190443 16.0755778 64.319724 14.2762575 64.319724 12.0566834 64.319724 9.83710926 66.1190443 8.03778892 68.3386184 8.03778892zM68.3386184 16.0755778L68.340795 16.0755778C70.5603691 16.0755778 72.3596895 17.8748982 72.3596895 20.0944723 72.3596895 22.3140464 70.5603691 24.1133668 68.340795 24.1133668L68.3386184 24.1133668C66.1190443 24.1133668 64.319724 22.3140464 64.319724 20.0944723 64.319724 17.8748982 66.1190443 16.0755778 68.3386184 16.0755778zM68.3386184 32.1511557L68.340795 32.1511557C70.5603691 32.1511557 72.3596895 33.950476 72.3596895 36.1700501 72.3596895 38.3896243 70.5603691 40.1889446 68.340795 40.1889446L68.3386184 40.1889446C66.1190443 40.1889446 64.319724 38.3896243 64.319724 36.1700501 64.319724 33.950476 66.1190443 32.1511557 68.3386184 32.1511557zM68.3386184 48.2267335L68.340795 48.2267335C70.5603691 48.2267335 72.3596895 50.0260539 72.3596895 52.245628 72.3596895 54.4652021 70.5603691 56.2645224 68.340795 56.2645224L68.3386184 56.2645224C66.1190443 56.2645224 64.319724 54.4652021 64.319724 52.245628 64.319724 50.0260539 66.1190443 48.2267335 68.3386184 48.2267335zM68.3386184 64.3023114L68.340795 64.3023114C70.5603691 64.3023114 72.3596895 66.1016317 72.3596895 68.3212058 72.3596895 70.5407799 70.5603691 72.3401003 68.340795 72.3401003L68.3386184 72.3401003C66.1190443 72.3401003 64.319724 70.5407799 64.319724 68.3212058 64.319724 66.1016317 66.1190443 64.3023114 68.3386184 64.3023114zM68.3386184 112.529045L68.340795 112.529045C70.5603691 112.529045 72.3596895 114.328365 72.3596895 116.547939 72.3596895 118.767513 70.5603691 120.566834 68.340795 120.566834L68.3386184 120.566834C66.1190443 120.566834 64.319724 118.767513 64.319724 116.547939 64.319724 114.328365 66.1190443 112.529045 68.3386184 112.529045zM68.3386184 120.566834L68.340795 120.566834C70.5603691 120.566834 72.3596895 122.366154 72.3596895 124.585728 72.3596895 126.805302 70.5603691 128.604623 68.340795 128.604623L68.3386184 128.604623C66.1190443 128.604623 64.319724 126.805302 64.319724 124.585728 64.319724 122.366154 66.1190443 120.566834 68.3386184 120.566834zM68.3386184 128.604623L68.340795 128.604623C70.5603691 128.604623 72.3596895 130.403943 72.3596895 132.623517 72.3596895 134.843091 70.5603691 136.642412 68.340795 136.642412L68.3386184 136.642412C66.1190443 136.642412 64.319724 134.843091 64.319724 132.623517 64.319724 130.403943 66.1190443 128.604623 68.3386184 128.604623zM68.3386184 152.717989L68.340795 152.717989C70.5603691 152.717989 72.3596895 154.51731 72.3596895 156.736884 72.3596895 158.956458 70.5603691 160.755778 68.340795 160.755778L68.3386184 160.755778C66.1190443 160.755778 64.319724 158.956458 64.319724 156.736884 64.319724 154.51731 66.1190443 152.717989 68.3386184 152.717989zM68.3386184 168.793567L68.340795 168.793567C70.5603691 168.793567 72.3596895 170.592888 72.3596895 172.812462 72.3596895 175.032036 70.5603691 176.831356 68.340795 176.831356L68.3386184 176.831356C66.1190443 176.831356 64.319724 175.032036 64.319724 172.812462 64.319724 170.592888 66.1190443 168.793567 68.3386184 168.793567zM68.3386184 176.831356L68.340795 176.831356C70.5603691 176.831356 72.3596895 178.630677 72.3596895 180.850251 72.3596895 183.069825 70.5603691 184.869145 68.340795 184.869145L68.3386184 184.869145C66.1190443 184.869145 64.319724 183.069825 64.319724 180.850251 64.319724 178.630677 66.1190443 176.831356 68.3386184 176.831356zM68.3386184 184.869145L68.340795 184.869145C70.5603691 184.869145 72.3596895 186.668466 72.3596895 188.88804 72.3596895 191.107614 70.5603691 192.906934 68.340795 192.906934L68.3386184 192.906934C66.1190443 192.906934 64.319724 191.107614 64.319724 188.88804 64.319724 186.668466 66.1190443 184.869145 68.3386184 184.869145zM68.3386184 192.906934L68.340795 192.906934C70.5603691 192.906934 72.3596895 194.706254 72.3596895 196.925829 72.3596895 199.145403 70.5603691 200.944723 68.340795 200.944723L68.3386184 200.944723C66.1190443 200.944723 64.319724 199.145403 64.319724 196.925829 64.319724 194.706254 66.1190443 192.906934 68.3386184 192.906934zM68.3386184 200.944723L68.340795 200.944723C70.5603691 200.944723 72.3596895 202.744043 72.3596895 204.963617 72.3596895 207.183192 70.5603691 208.982512 68.340795 208.982512L68.3386184 208.982512C66.1190443 208.982512 64.319724 207.183192 64.319724 204.963617 64.319724 202.744043 66.1190443 200.944723 68.3386184 200.944723zM68.3386184 225.05809L68.340795 225.05809C70.5603691 225.05809 72.3596895 226.85741 72.3596895 229.076984 72.3596895 231.296558 70.5603691 233.095879 68.340795 233.095879L68.3386184 233.095879C66.1190443 233.095879 64.319724 231.296558 64.319724 229.076984 64.319724 226.85741 66.1190443 225.05809 68.3386184 225.05809z"/>
            <rect width="8.04" height="8.038" x="72.36" y="16.076" rx="4.019"/>
            <rect width="8.04" height="8.038" x="72.36" y="24.113" rx="4.019"/>
            <rect width="8.04" height="8.038" x="72.36" y="56.265" rx="4.019"/>
            <rect width="8.04" height="8.038" x="72.36" y="72.34" rx="4.019"/>
            <rect width="8.04" height="8.038" x="72.36" y="80.378" rx="4.019"/>
            <rect width="8.04" height="8.038" x="72.36" y="96.453" rx="4.019"/>
            <rect width="8.04" height="8.038" x="72.36" y="104.491" rx="4.019"/>
            <rect width="8.04" height="8.038" x="72.36" y="112.529" rx="4.019"/>
            <rect width="8.04" height="8.038" x="72.36" y="120.567" rx="4.019"/>
            <rect width="8.04" height="8.038" x="72.36" y="128.605" rx="4.019"/>
            <rect width="8.04" height="8.038" x="72.36" y="144.68" rx="4.019"/>
            <rect width="8.04" height="8.038" x="72.36" y="152.718" rx="4.019"/>
            <rect width="8.04" height="8.038" x="72.36" y="160.756" rx="4.019"/>
            <rect width="8.04" height="8.038" x="72.36" y="168.794" rx="4.019"/>
            <rect width="8.04" height="8.038" x="72.36" y="192.907" rx="4.019"/>
            <rect width="8.04" height="8.038" x="72.36" y="200.945" rx="4.019"/>
            <rect width="8.04" height="8.038" x="72.36" y="217.02" rx="4.019"/>
            <rect width="8.04" height="8.038" x="72.36" y="225.058" rx="4.019"/>
            <rect width="8.04" height="8.038" x="80.4" rx="4.019"/>
            <rect width="8.04" height="8.038" x="80.4" y="16.076" rx="4.019"/>
            <rect width="8.04" height="8.038" x="80.4" y="48.227" rx="4.019"/>
            <rect width="8.04" height="8.038" x="80.4" y="56.265" rx="4.019"/>
            <rect width="8.04" height="8.038" x="80.4" y="64.302" rx="4.019"/>
            <rect width="8.04" height="8.038" x="80.4" y="80.378" rx="4.019"/>
            <rect width="8.04" height="8.038" x="80.4" y="88.416" rx="4.019"/>
            <rect width="8.04" height="8.038" x="80.4" y="96.453" rx="4.019"/>
            <rect width="8.04" height="8.038" x="80.4" y="104.491" rx="4.019"/>
            <rect width="8.04" height="8.038" x="80.4" y="120.567" rx="4.019"/>
            <rect width="8.04" height="8.038" x="80.4" y="136.642" rx="4.019"/>
            <rect width="8.04" height="8.038" x="80.4" y="152.718" rx="4.019"/>
            <rect width="8.04" height="8.038" x="80.4" y="160.756" rx="4.019"/>
            <rect width="8.04" height="8.038" x="80.4" y="168.794" rx="4.019"/>
            <rect width="8.04" height="8.038" x="80.4" y="192.907" rx="4.019"/>
            <rect width="8.04" height="8.038" x="80.4" y="200.945" rx="4.019"/>
            <rect width="8.04" height="8.038" x="80.4" y="208.983" rx="4.019"/>
            <rect width="8.04" height="8.038" x="80.4" y="217.02" rx="4.019"/>
            <rect width="8.04" height="8.038" x="88.44" rx="4.019"/>
            <rect width="8.04" height="8.038" x="88.44" y="32.151" rx="4.019"/>
            <rect width="8.04" height="8.038" x="88.44" y="56.265" rx="4.019"/>
            <rect width="8.04" height="8.038" x="88.44" y="144.68" rx="4.019"/>
            <rect width="8.04" height="8.038" x="88.44" y="176.831" rx="4.019"/>
            <rect width="8.04" height="8.038" x="88.44" y="192.907" rx="4.019"/>
            <rect width="8.04" height="8.038" x="88.44" y="208.983" rx="4.019"/>
            <rect width="8.04" height="8.038" x="96.48" y="24.113" rx="4.019"/>
            <rect width="8.04" height="8.038" x="96.48" y="48.227" rx="4.019"/>
            <rect width="8.04" height="8.038" x="96.48" y="64.302" rx="4.019"/>
            <rect width="8.04" height="8.038" x="96.48" y="72.34" rx="4.019"/>
            <rect width="8.04" height="8.038" x="96.48" y="80.378" rx="4.019"/>
            <rect width="8.04" height="8.038" x="96.48" y="152.718" rx="4.019"/>
            <rect width="8.04" height="8.038" x="96.48" y="160.756" rx="4.019"/>
            <rect width="8.04" height="8.038" x="96.48" y="176.831" rx="4.019"/>
            <rect width="8.04" height="8.038" x="96.48" y="200.945" rx="4.019"/>
            <rect width="8.04" height="8.038" x="96.48" y="208.983" rx="4.019"/>
            <rect width="8.04" height="8.038" x="96.48" y="217.02" rx="4.019"/>
            <rect width="8.04" height="8.038" x="96.48" y="225.058" rx="4.019"/>
            <rect width="8.04" height="8.038" x="104.52" y="56.265" rx="4.019"/>
            <rect width="8.04" height="8.038" x="104.52" y="64.302" rx="4.019"/>
            <rect width="8.04" height="8.038" x="104.52" y="72.34" rx="4.019"/>
            <rect width="8.04" height="8.038" x="104.52" y="80.378" rx="4.019"/>
            <rect width="8.04" height="8.038" x="104.52" y="160.756" rx="4.019"/>
            <rect width="8.04" height="8.038" x="104.52" y="192.907" rx="4.019"/>
            <rect width="8.04" height="8.038" x="104.52" y="200.945" rx="4.019"/>
            <rect width="8.04" height="8.038" x="104.52" y="217.02" rx="4.019"/>
            <rect width="8.04" height="8.038" x="112.56" y="32.151" rx="4.019"/>
            <rect width="8.04" height="8.038" x="112.56" y="48.227" rx="4.019"/>
            <rect width="8.04" height="8.038" x="112.56" y="152.718" rx="4.019"/>
            <rect width="8.04" height="8.038" x="112.56" y="160.756" rx="4.019"/>
            <rect width="8.04" height="8.038" x="112.56" y="168.794" rx="4.019"/>
            <rect width="8.04" height="8.038" x="112.56" y="176.831" rx="4.019"/>
            <rect width="8.04" height="8.038" x="112.56" y="184.869" rx="4.019"/>
            <rect width="8.04" height="8.038" x="112.56" y="192.907" rx="4.019"/>
            <rect width="8.04" height="8.038" x="112.56" y="208.983" rx="4.019"/>
            <rect width="8.04" height="8.038" x="120.599" rx="4.019"/>
            <rect width="8.04" height="8.038" x="120.599" y="16.076" rx="4.019"/>
            <rect width="8.04" height="8.038" x="120.599" y="32.151" rx="4.019"/>
            <rect width="8.04" height="8.038" x="120.599" y="40.189" rx="4.019"/>
            <rect width="8.04" height="8.038" x="120.599" y="56.265" rx="4.019"/>
            <rect width="8.04" height="8.038" x="120.599" y="80.378" rx="4.019"/>
            <rect width="8.04" height="8.038" x="120.599" y="144.68" rx="4.019"/>
            <rect width="8.04" height="8.038" x="120.599" y="160.756" rx="4.019"/>
            <rect width="8.04" height="8.038" x="120.599" y="184.869" rx="4.019"/>
            <rect width="8.04" height="8.038" x="120.599" y="208.983" rx="4.019"/>
            <rect width="8.04" height="8.038" x="120.599" y="225.058" rx="4.019"/>
            <rect width="8.04" height="8.038" x="128.639" rx="4.019"/>
            <rect width="8.04" height="8.038" x="128.639" y="8.038" rx="4.019"/>
            <rect width="8.04" height="8.038" x="128.639" y="16.076" rx="4.019"/>
            <rect width="8.04" height="8.038" x="128.639" y="24.113" rx="4.019"/>
            <rect width="8.04" height="8.038" x="128.639" y="32.151" rx="4.019"/>
            <rect width="8.04" height="8.038" x="128.639" y="40.189" rx="4.019"/>
            <rect width="8.04" height="8.038" x="128.639" y="48.227" rx="4.019"/>
            <rect width="8.04" height="8.038" x="128.639" y="56.265" rx="4.019"/>
            <rect width="8.04" height="8.038" x="128.639" y="72.34" rx="4.019"/>
            <rect width="8.04" height="8.038" x="128.639" y="80.378" rx="4.019"/>
            <rect width="8.04" height="8.038" x="128.639" y="160.756" rx="4.019"/>
            <rect width="8.04" height="8.038" x="128.639" y="217.02" rx="4.019"/>
            <rect width="8.04" height="8.038" x="136.679" rx="4.019"/>
            <rect width="8.04" height="8.038" x="136.679" y="24.113" rx="4.019"/>
            <rect width="8.04" height="8.038" x="136.679" y="64.302" rx="4.019"/>
            <rect width="8.04" height="8.038" x="144.719" y="88.416" rx="4.019"/>
            <rect width="8.04" height="8.038" x="144.719" y="96.453" rx="4.019"/>
            <rect width="8.04" height="8.038" x="136.679" y="144.68" rx="4.019"/>
            <rect width="8.04" height="8.038" x="136.679" y="160.756" rx="4.019"/>
            <rect width="8.04" height="8.038" x="136.679" y="184.869" rx="4.019"/>
            <rect width="8.04" height="8.038" x="136.679" y="192.907" rx="4.019"/>
            <rect width="8.04" height="8.038" x="136.679" y="200.945" rx="4.019"/>
            <rect width="8.04" height="8.038" x="136.679" y="208.983" rx="4.019"/>
            <rect width="8.04" height="8.038" x="136.679" y="217.02" rx="4.019"/>
            <rect width="8.04" height="8.038" x="136.679" y="225.058" rx="4.019"/>
            <rect width="8.04" height="8.038" x="144.719" rx="4.019"/>
            <rect width="8.04" height="8.038" x="144.719" y="8.038" rx="4.019"/>
            <rect width="8.04" height="8.038" x="144.719" y="24.113" rx="4.019"/>
            <rect width="8.04" height="8.038" x="144.719" y="48.227" rx="4.019"/>
            <rect width="8.04" height="8.038" x="144.719" y="80.378" rx="4.019"/>
            <rect width="8.04" height="8.038" x="144.719" y="144.68" rx="4.019"/>
            <rect width="8.04" height="8.038" x="144.719" y="176.831" rx="4.019"/>
            <rect width="8.04" height="8.038" x="144.719" y="184.869" rx="4.019"/>
            <rect width="8.04" height="8.038" x="144.719" y="192.907" rx="4.019"/>
            <rect width="8.04" height="8.038" x="144.719" y="200.945" rx="4.019"/>
            <rect width="8.04" height="8.038" x="144.719" y="217.02" rx="4.019"/>
            <path d="M156.778239 8.03778892L156.780415 8.03778892C158.99999 8.03778892 160.79931 9.83710926 160.79931 12.0566834 160.79931 14.2762575 158.99999 16.0755778 156.780415 16.0755778L156.778239 16.0755778C154.558665 16.0755778 152.759344 14.2762575 152.759344 12.0566834 152.759344 9.83710926 154.558665 8.03778892 156.778239 8.03778892zM156.778239 32.1511557L156.780415 32.1511557C158.99999 32.1511557 160.79931 33.950476 160.79931 36.1700501 160.79931 38.3896243 158.99999 40.1889446 156.780415 40.1889446L156.778239 40.1889446C154.558665 40.1889446 152.759344 38.3896243 152.759344 36.1700501 152.759344 33.950476 154.558665 32.1511557 156.778239 32.1511557zM156.778239 56.2645224L156.780415 56.2645224C158.99999 56.2645224 160.79931 58.0638428 160.79931 60.2834169 160.79931 62.502991 158.99999 64.3023114 156.780415 64.3023114L156.778239 64.3023114C154.558665 64.3023114 152.759344 62.502991 152.759344 60.2834169 152.759344 58.0638428 154.558665 56.2645224 156.778239 56.2645224zM156.778239 72.3401003L156.780415 72.3401003C158.99999 72.3401003 160.79931 74.1394206 160.79931 76.3589947 160.79931 78.5785689 158.99999 80.3778892 156.780415 80.3778892L156.778239 80.3778892C154.558665 80.3778892 152.759344 78.5785689 152.759344 76.3589947 152.759344 74.1394206 154.558665 72.3401003 156.778239 72.3401003zM156.778239 88.4156781L156.780415 88.4156781C158.99999 88.4156781 160.79931 90.2149985 160.79931 92.4345726 160.79931 94.6541467 158.99999 96.453467 156.780415 96.453467L156.778239 96.453467C154.558665 96.453467 152.759344 94.6541467 152.759344 92.4345726 152.759344 90.2149985 154.558665 88.4156781 156.778239 88.4156781zM156.778239 96.453467L156.780415 96.453467C158.99999 96.453467 160.79931 98.2527874 160.79931 100.472362 160.79931 102.691936 158.99999 104.491256 156.780415 104.491256L156.778239 104.491256C154.558665 104.491256 152.759344 102.691936 152.759344 100.472362 152.759344 98.2527874 154.558665 96.453467 156.778239 96.453467zM156.778239 112.529045L156.780415 112.529045C158.99999 112.529045 160.79931 114.328365 160.79931 116.547939 160.79931 118.767513 158.99999 120.566834 156.780415 120.566834L156.778239 120.566834C154.558665 120.566834 152.759344 118.767513 152.759344 116.547939 152.759344 114.328365 154.558665 112.529045 156.778239 112.529045zM156.778239 120.566834L156.780415 120.566834C158.99999 120.566834 160.79931 122.366154 160.79931 124.585728 160.79931 126.805302 158.99999 128.604623 156.780415 128.604623L156.778239 128.604623C154.558665 128.604623 152.759344 126.805302 152.759344 124.585728 152.759344 122.366154 154.558665 120.566834 156.778239 120.566834zM156.778239 128.604623L156.780415 128.604623C158.99999 128.604623 160.79931 130.403943 160.79931 132.623517 160.79931 134.843091 158.99999 136.642412 156.780415 136.642412L156.778239 136.642412C154.558665 136.642412 152.759344 134.843091 152.759344 132.623517 152.759344 130.403943 154.558665 128.604623 156.778239 128.604623zM156.778239 136.642412L156.780415 136.642412C158.99999 136.642412 160.79931 138.441732 160.79931 140.661306 160.79931 142.88088 158.99999 144.680201 156.780415 144.680201L156.778239 144.680201C154.558665 144.680201 152.759344 142.88088 152.759344 140.661306 152.759344 138.441732 154.558665 136.642412 156.778239 136.642412zM156.778239 144.680201L156.780415 144.680201C158.99999 144.680201 160.79931 146.479521 160.79931 148.699095 160.79931 150.918669 158.99999 152.717989 156.780415 152.717989L156.778239 152.717989C154.558665 152.717989 152.759344 150.918669 152.759344 148.699095 152.759344 146.479521 154.558665 144.680201 156.778239 144.680201zM156.778239 152.717989L156.780415 152.717989C158.99999 152.717989 160.79931 154.51731 160.79931 156.736884 160.79931 158.956458 158.99999 160.755778 156.780415 160.755778L156.778239 160.755778C154.558665 160.755778 152.759344 158.956458 152.759344 156.736884 152.759344 154.51731 154.558665 152.717989 156.778239 152.717989zM156.778239 176.831356L156.780415 176.831356C158.99999 176.831356 160.79931 178.630677 160.79931 180.850251 160.79931 183.069825 158.99999 184.869145 156.780415 184.869145L156.778239 184.869145C154.558665 184.869145 152.759344 183.069825 152.759344 180.850251 152.759344 178.630677 154.558665 176.831356 156.778239 176.831356zM156.778239 184.869145L156.780415 184.869145C158.99999 184.869145 160.79931 186.668466 160.79931 188.88804 160.79931 191.107614 158.99999 192.906934 156.780415 192.906934L156.778239 192.906934C154.558665 192.906934 152.759344 191.107614 152.759344 188.88804 152.759344 186.668466 154.558665 184.869145 156.778239 184.869145zM156.778239 192.906934L156.780415 192.906934C158.99999 192.906934 160.79931 194.706254 160.79931 196.925829 160.79931 199.145403 158.99999 200.944723 156.780415 200.944723L156.778239 200.944723C154.558665 200.944723 152.759344 199.145403 152.759344 196.925829 152.759344 194.706254 154.558665 192.906934 156.778239 192.906934zM156.778239 225.05809L156.780415 225.05809C158.99999 225.05809 160.79931 226.85741 160.79931 229.076984 160.79931 231.296558 158.99999 233.095879 156.780415 233.095879L156.778239 233.095879C154.558665 233.095879 152.759344 231.296558 152.759344 229.076984 152.759344 226.85741 154.558665 225.05809 156.778239 225.05809zM164.818204 40.1889446L164.820381 40.1889446C167.039955 40.1889446 168.839275 41.9882649 168.839275 44.2078391 168.839275 46.4274132 167.039955 48.2267335 164.820381 48.2267335L164.818204 48.2267335C162.59863 48.2267335 160.79931 46.4274132 160.79931 44.2078391 160.79931 41.9882649 162.59863 40.1889446 164.818204 40.1889446zM164.818204 48.2267335L164.820381 48.2267335C167.039955 48.2267335 168.839275 50.0260539 168.839275 52.245628 168.839275 54.4652021 167.039955 56.2645224 164.820381 56.2645224L164.818204 56.2645224C162.59863 56.2645224 160.79931 54.4652021 160.79931 52.245628 160.79931 50.0260539 162.59863 48.2267335 164.818204 48.2267335zM164.818204 56.2645224L164.820381 56.2645224C167.039955 56.2645224 168.839275 58.0638428 168.839275 60.2834169 168.839275 62.502991 167.039955 64.3023114 164.820381 64.3023114L164.818204 64.3023114C162.59863 64.3023114 160.79931 62.502991 160.79931 60.2834169 160.79931 58.0638428 162.59863 56.2645224 164.818204 56.2645224zM164.818204 80.3778892L164.820381 80.3778892C167.039955 80.3778892 168.839275 82.1772095 168.839275 84.3967837 168.839275 86.6163578 167.039955 88.4156781 164.820381 88.4156781L164.818204 88.4156781C162.59863 88.4156781 160.79931 86.6163578 160.79931 84.3967837 160.79931 82.1772095 162.59863 80.3778892 164.818204 80.3778892zM164.818204 88.4156781L164.820381 88.4156781C167.039955 88.4156781 168.839275 90.2149985 168.839275 92.4345726 168.839275 94.6541467 167.039955 96.453467 164.820381 96.453467L164.818204 96.453467C162.59863 96.453467 160.79931 94.6541467 160.79931 92.4345726 160.79931 90.2149985 162.59863 88.4156781 164.818204 88.4156781zM164.818204 112.529045L164.820381 112.529045C167.039955 112.529045 168.839275 114.328365 168.839275 116.547939 168.839275 118.767513 167.039955 120.566834 164.820381 120.566834L164.818204 120.566834C162.59863 120.566834 160.79931 118.767513 160.79931 116.547939 160.79931 114.328365 162.59863 112.529045 164.818204 112.529045zM164.818204 128.604623L164.820381 128.604623C167.039955 128.604623 168.839275 130.403943 168.839275 132.623517 168.839275 134.843091 167.039955 136.642412 164.820381 136.642412L164.818204 136.642412C162.59863 136.642412 160.79931 134.843091 160.79931 132.623517 160.79931 130.403943 162.59863 128.604623 164.818204 128.604623zM164.818204 160.755778L164.820381 160.755778C167.039955 160.755778 168.839275 162.555099 168.839275 164.774673 168.839275 166.994247 167.039955 168.793567 164.820381 168.793567L164.818204 168.793567C162.59863 168.793567 160.79931 166.994247 160.79931 164.774673 160.79931 162.555099 162.59863 160.755778 164.818204 160.755778zM164.818204 168.793567L164.820381 168.793567C167.039955 168.793567 168.839275 170.592888 168.839275 172.812462 168.839275 175.032036 167.039955 176.831356 164.820381 176.831356L164.818204 176.831356C162.59863 176.831356 160.79931 175.032036 160.79931 172.812462 160.79931 170.592888 162.59863 168.793567 164.818204 168.793567zM164.818204 176.831356L164.820381 176.831356C167.039955 176.831356 168.839275 178.630677 168.839275 180.850251 168.839275 183.069825 167.039955 184.869145 164.820381 184.869145L164.818204 184.869145C162.59863 184.869145 160.79931 183.069825 160.79931 180.850251 160.79931 178.630677 162.59863 176.831356 164.818204 176.831356zM164.818204 184.869145L164.820381 184.869145C167.039955 184.869145 168.839275 186.668466 168.839275 188.88804 168.839275 191.107614 167.039955 192.906934 164.820381 192.906934L164.818204 192.906934C162.59863 192.906934 160.79931 191.107614 160.79931 188.88804 160.79931 186.668466 162.59863 184.869145 164.818204 184.869145zM164.818204 192.906934L164.820381 192.906934C167.039955 192.906934 168.839275 194.706254 168.839275 196.925829 168.839275 199.145403 167.039955 200.944723 164.820381 200.944723L164.818204 200.944723C162.59863 200.944723 160.79931 199.145403 160.79931 196.925829 160.79931 194.706254 162.59863 192.906934 164.818204 192.906934zM164.818204 208.982512L164.820381 208.982512C167.039955 208.982512 168.839275 210.781832 168.839275 213.001406 168.839275 215.220981 167.039955 217.020301 164.820381 217.020301L164.818204 217.020301C162.59863 217.020301 160.79931 215.220981 160.79931 213.001406 160.79931 210.781832 162.59863 208.982512 164.818204 208.982512zM164.818204 225.05809L164.820381 225.05809C167.039955 225.05809 168.839275 226.85741 168.839275 229.076984 168.839275 231.296558 167.039955 233.095879 164.820381 233.095879L164.818204 233.095879C162.59863 233.095879 160.79931 231.296558 160.79931 229.076984 160.79931 226.85741 162.59863 225.05809 164.818204 225.05809zM172.85817 64.3023114L172.860346 64.3023114C175.079921 64.3023114 176.879241 66.1016317 176.879241 68.3212058 176.879241 70.5407799 175.079921 72.3401003 172.860346 72.3401003L172.85817 72.3401003C170.638596 72.3401003 168.839275 70.5407799 168.839275 68.3212058 168.839275 66.1016317 170.638596 64.3023114 172.85817 64.3023114zM172.85817 80.3778892L172.860346 80.3778892C175.079921 80.3778892 176.879241 82.1772095 176.879241 84.3967837 176.879241 86.6163578 175.079921 88.4156781 172.860346 88.4156781L172.85817 88.4156781C170.638596 88.4156781 168.839275 86.6163578 168.839275 84.3967837 168.839275 82.1772095 170.638596 80.3778892 172.85817 80.3778892zM172.85817 88.4156781L172.860346 88.4156781C175.079921 88.4156781 176.879241 90.2149985 176.879241 92.4345726 176.879241 94.6541467 175.079921 96.453467 172.860346 96.453467L172.85817 96.453467C170.638596 96.453467 168.839275 94.6541467 168.839275 92.4345726 168.839275 90.2149985 170.638596 88.4156781 172.85817 88.4156781zM172.85817 104.491256L172.860346 104.491256C175.079921 104.491256 176.879241 106.290576 176.879241 108.51015 176.879241 110.729725 175.079921 112.529045 172.860346 112.529045L172.85817 112.529045C170.638596 112.529045 168.839275 110.729725 168.839275 108.51015 168.839275 106.290576 170.638596 104.491256 172.85817 104.491256zM172.85817 112.529045L172.860346 112.529045C175.079921 112.529045 176.879241 114.328365 176.879241 116.547939 176.879241 118.767513 175.079921 120.566834 172.860346 120.566834L172.85817 120.566834C170.638596 120.566834 168.839275 118.767513 168.839275 116.547939 168.839275 114.328365 170.638596 112.529045 172.85817 112.529045zM172.85817 120.566834L172.860346 120.566834C175.079921 120.566834 176.879241 122.366154 176.879241 124.585728 176.879241 126.805302 175.079921 128.604623 172.860346 128.604623L172.85817 128.604623C170.638596 128.604623 168.839275 126.805302 168.839275 124.585728 168.839275 122.366154 170.638596 120.566834 172.85817 120.566834zM172.85817 128.604623L172.860346 128.604623C175.079921 128.604623 176.879241 130.403943 176.879241 132.623517 176.879241 134.843091 175.079921 136.642412 172.860346 136.642412L172.85817 136.642412C170.638596 136.642412 168.839275 134.843091 168.839275 132.623517 168.839275 130.403943 170.638596 128.604623 172.85817 128.604623zM172.85817 160.755778L172.860346 160.755778C175.079921 160.755778 176.879241 162.555099 176.879241 164.774673 176.879241 166.994247 175.079921 168.793567 172.860346 168.793567L172.85817 168.793567C170.638596 168.793567 168.839275 166.994247 168.839275 164.774673 168.839275 162.555099 170.638596 160.755778 172.85817 160.755778zM172.85817 192.906934L172.860346 192.906934C175.079921 192.906934 176.879241 194.706254 176.879241 196.925829 176.879241 199.145403 175.079921 200.944723 172.860346 200.944723L172.85817 200.944723C170.638596 200.944723 168.839275 199.145403 168.839275 196.925829 168.839275 194.706254 170.638596 192.906934 172.85817 192.906934zM172.85817 200.944723L172.860346 200.944723C175.079921 200.944723 176.879241 202.744043 176.879241 204.963617 176.879241 207.183192 175.079921 208.982512 172.860346 208.982512L172.85817 208.982512C170.638596 208.982512 168.839275 207.183192 168.839275 204.963617 168.839275 202.744043 170.638596 200.944723 172.85817 200.944723zM172.85817 208.982512L172.860346 208.982512C175.079921 208.982512 176.879241 210.781832 176.879241 213.001406 176.879241 215.220981 175.079921 217.020301 172.860346 217.020301L172.85817 217.020301C170.638596 217.020301 168.839275 215.220981 168.839275 213.001406 168.839275 210.781832 170.638596 208.982512 172.85817 208.982512z"/>
            <rect width="8.04" height="8.038" x="176.879" y="88.416" rx="4.019"/>
            <rect width="8.04" height="8.038" x="176.879" y="96.453" rx="4.019"/>
            <rect width="8.04" height="8.038" x="176.879" y="104.491" rx="4.019"/>
            <rect width="8.04" height="8.038" x="176.879" y="120.567" rx="4.019"/>
            <rect width="8.04" height="8.038" x="176.879" y="152.718" rx="4.019"/>
            <rect width="8.04" height="8.038" x="176.879" y="160.756" rx="4.019"/>
            <rect width="8.04" height="8.038" x="176.879" y="176.831" rx="4.019"/>
            <rect width="8.04" height="8.038" x="176.879" y="192.907" rx="4.019"/>
            <rect width="8.04" height="8.038" x="176.879" y="217.02" rx="4.019"/>
            <rect width="8.04" height="8.038" x="176.879" y="225.058" rx="4.019"/>
            <rect width="8.04" height="8.038" x="184.919" y="72.34" rx="4.019"/>
            <rect width="8.04" height="8.038" x="184.919" y="80.378" rx="4.019"/>
            <rect width="8.04" height="8.038" x="184.919" y="88.416" rx="4.019"/>
            <rect width="8.04" height="8.038" x="184.919" y="104.491" rx="4.019"/>
            <rect width="8.04" height="8.038" x="184.919" y="120.567" rx="4.019"/>
            <rect width="8.04" height="8.038" x="184.919" y="160.756" rx="4.019"/>
            <rect width="8.04" height="8.038" x="184.919" y="192.907" rx="4.019"/>
            <rect width="8.04" height="8.038" x="184.919" y="208.983" rx="4.019"/>
            <rect width="8.04" height="8.038" x="184.919" y="225.058" rx="4.019"/>
            <rect width="8.04" height="8.038" x="192.959" y="64.302" rx="4.019"/>
            <rect width="8.04" height="8.038" x="192.959" y="72.34" rx="4.019"/>
            <rect width="8.04" height="8.038" x="192.959" y="80.378" rx="4.019"/>
            <rect width="8.04" height="8.038" x="192.959" y="88.416" rx="4.019"/>
            <rect width="8.04" height="8.038" x="192.959" y="104.491" rx="4.019"/>
            <rect width="8.04" height="8.038" x="192.959" y="112.529" rx="4.019"/>
            <rect width="8.04" height="8.038" x="192.959" y="120.567" rx="4.019"/>
            <rect width="8.04" height="8.038" x="192.959" y="136.642" rx="4.019"/>
            <rect width="8.04" height="8.038" x="192.959" y="144.68" rx="4.019"/>
            <rect width="8.04" height="8.038" x="192.959" y="160.756" rx="4.019"/>
            <rect width="8.04" height="8.038" x="192.959" y="168.794" rx="4.019"/>
            <rect width="8.04" height="8.038" x="192.959" y="176.831" rx="4.019"/>
            <rect width="8.04" height="8.038" x="192.959" y="184.869" rx="4.019"/>
            <rect width="8.04" height="8.038" x="192.959" y="192.907" rx="4.019"/>
            <rect width="8.04" height="8.038" x="192.959" y="208.983" rx="4.019"/>
            <rect width="8.04" height="8.038" x="192.959" y="225.058" rx="4.019"/>
            <rect width="8.04" height="8.038" x="200.999" y="88.416" rx="4.019"/>
            <rect width="8.04" height="8.038" x="200.999" y="104.491" rx="4.019"/>
            <rect width="8.04" height="8.038" x="200.999" y="128.605" rx="4.019"/>
            <rect width="8.04" height="8.038" x="200.999" y="144.68" rx="4.019"/>
            <rect width="8.04" height="8.038" x="200.999" y="152.718" rx="4.019"/>
            <rect width="8.04" height="8.038" x="200.999" y="160.756" rx="4.019"/>
            <rect width="8.04" height="8.038" x="200.999" y="168.794" rx="4.019"/>
            <rect width="8.04" height="8.038" x="200.999" y="176.831" rx="4.019"/>
            <rect width="8.04" height="8.038" x="200.999" y="192.907" rx="4.019"/>
            <rect width="8.04" height="8.038" x="200.999" y="217.02" rx="4.019"/>
            <rect width="8.04" height="8.038" x="209.039" y="64.302" rx="4.019"/>
            <rect width="8.04" height="8.038" x="209.039" y="72.34" rx="4.019"/>
            <rect width="8.04" height="8.038" x="209.039" y="80.378" rx="4.019"/>
            <rect width="8.04" height="8.038" x="209.039" y="104.491" rx="4.019"/>
            <rect width="8.04" height="8.038" x="209.039" y="112.529" rx="4.019"/>
            <rect width="8.04" height="8.038" x="209.039" y="120.567" rx="4.019"/>
            <rect width="8.04" height="8.038" x="209.039" y="136.642" rx="4.019"/>
            <rect width="8.04" height="8.038" x="209.039" y="152.718" rx="4.019"/>
            <rect width="8.04" height="8.038" x="209.039" y="160.756" rx="4.019"/>
            <rect width="8.04" height="8.038" x="209.039" y="208.983" rx="4.019"/>
            <rect width="8.04" height="8.038" x="209.039" y="217.02" rx="4.019"/>
            <rect width="8.04" height="8.038" x="217.079" y="64.302" rx="4.019"/>
            <rect width="8.04" height="8.038" x="217.079" y="72.34" rx="4.019"/>
            <rect width="8.04" height="8.038" x="217.079" y="104.491" rx="4.019"/>
            <rect width="8.04" height="8.038" x="217.079" y="136.642" rx="4.019"/>
            <rect width="8.04" height="8.038" x="217.079" y="160.756" rx="4.019"/>
            <rect width="8.04" height="8.038" x="217.079" y="200.945" rx="4.019"/>
            <rect width="8.04" height="8.038" x="217.079" y="208.983" rx="4.019"/>
            <rect width="8.04" height="8.038" x="225.119" y="64.302" rx="4.019"/>
            <rect width="8.04" height="8.038" x="225.119" y="88.416" rx="4.019"/>
            <rect width="8.04" height="8.038" x="225.119" y="96.453" rx="4.019"/>
            <rect width="8.04" height="8.038" x="225.119" y="104.491" rx="4.019"/>
            <rect width="8.04" height="8.038" x="225.119" y="112.529" rx="4.019"/>
            <rect width="8.04" height="8.038" x="225.119" y="120.567" rx="4.019"/>
            <rect width="8.04" height="8.038" x="225.119" y="144.68" rx="4.019"/>
            <rect width="8.04" height="8.038" x="225.119" y="184.869" rx="4.019"/>
            <rect width="8.04" height="8.038" x="225.119" y="208.983" rx="4.019"/>
            <rect width="8.04" height="8.038" x="225.119" y="217.02" rx="4.019"/>
          </g>
          <g transform="translate(98 98)">
            <mask id="pay-f" fill="#fff">
              <use xlink:href="#pay-e"/>
            </mask>
            <use fill="#2FCF6E" xlink:href="#pay-e"/>
            <path fill="#FFF" d="M23.5130143,16.7617709 C23.0000532,18.8274372 19.6289294,17.829119 18.5298055,17.5739177 L19.4583093,13.9069678 C20.5326658,14.1621691 24.0501926,14.6035418 23.5130143,16.7617709 L23.5130143,16.7617709 Z M22.9752857,22.6800357 C22.4138904,24.9543604 18.358635,23.7709167 17.0641235,23.4691725 L18.0658288,19.4309256 C19.3845574,19.7326697 23.5614484,20.2896152 22.9752857,22.6800357 Z M27.3233473,16.7617709 C27.640921,14.5334661 25.8576653,13.3730322 23.4150454,12.5838954 L24.1723786,9.56697668 L22.2427199,9.12612688 L21.5101541,12.0734928 C20.9971929,11.9573971 20.4842317,11.8413014 19.9712705,11.7487387 L20.7038363,8.8008498 L18.7499605,8.36 L17.9926272,11.3774417 C17.5770846,11.284356 17.1620924,11.2148031 16.7465498,11.1217174 L14.0843253,10.518752 L13.5955811,12.4683227 C13.5955811,12.4683227 15.0370461,12.7695439 14.9880616,12.7930768 C15.7696119,12.9787253 15.916015,13.466118 15.891798,13.8374149 L15.0370461,17.2721735 C15.0854802,17.2957064 15.1592322,17.2957064 15.2324337,17.3417263 C15.1592322,17.3187164 15.1102477,17.3187164 15.0370461,17.2957064 L13.8641703,22.0995573 C13.7667517,22.3317486 13.5223796,22.6565027 12.9852013,22.54093 C13.0094184,22.56394 11.5685038,22.2156529 11.5685038,22.2156529 L10.64,24.3278621 L13.1558215,24.8848076 C13.6203486,25.0009033 14.0843253,25.0934661 14.5240849,25.2095617 L13.7667517,28.2500134 L15.6964104,28.6908632 L16.4537437,25.6739444 C16.9909219,25.8130501 17.5038831,25.9291457 17.9926272,26.0452414 L17.235294,29.0391502 L19.1649527,29.48 L19.922286,26.4400713 C23.2196578,26.9970168 25.6864948,26.7412925 26.6882001,23.8870123 C27.4945179,21.6121646 26.6149986,20.3126252 24.8565103,19.4539355 C26.1510219,19.1752013 27.0789753,18.3865874 27.3233473,16.7617709 L27.3233473,16.7617709 Z" mask="url(#pay-f)" transform="rotate(-32 19 18.92)"/>
          </g>
        </g>
        <path fill="#565D6E" fill-rule="nonzero" d="M106.39209,40.1054688 L106.39209,37.2490234 C108.179199,37.0537109 109.583008,36.4506836 110.603516,35.4399414 C111.624023,34.4291992 112.134277,33.0791016 112.134277,31.3896484 C112.134277,30.2177734 111.89502,29.2241211 111.416504,28.4086914 C110.937988,27.5932617 110.259277,26.9072266 109.380371,26.3505859 C108.501465,25.7939453 107.373535,25.2666016 105.996582,24.7685547 C105.098145,24.4365234 104.39502,24.1069336 103.887207,23.7797852 C103.379395,23.4526367 103.015625,23.0913086 102.795898,22.6958008 C102.576172,22.300293 102.466309,21.8242188 102.466309,21.2675781 C102.466309,20.3789062 102.710449,19.6733398 103.19873,19.1508789 C103.687012,18.628418 104.419434,18.3671875 105.395996,18.3671875 C106.343262,18.3671875 107.083008,18.7138672 107.615234,19.4072266 C108.147461,20.1005859 108.413574,21.0576172 108.413574,22.2783203 L108.413574,22.2783203 L112.061035,22.2783203 C112.061035,20.3251953 111.587402,18.7578125 110.640137,17.5761719 C109.692871,16.3945312 108.379395,15.6865234 106.699707,15.4521484 L106.699707,15.4521484 L106.699707,12.2294922 L104.355957,12.2294922 L104.355957,15.4228516 C103.242676,15.5498047 102.270996,15.8671875 101.440918,16.375 C100.61084,16.8828125 99.96875,17.5566406 99.5146484,18.3964844 C99.0605469,19.2363281 98.8334961,20.1982422 98.8334961,21.2822266 C98.8334961,22.4638672 99.0800781,23.4648438 99.5732422,24.2851562 C100.066406,25.1054688 100.757324,25.7939453 101.645996,26.3505859 C102.534668,26.9072266 103.662598,27.4199219 105.029785,27.8886719 C106.289551,28.328125 107.183105,28.8188477 107.710449,29.3608398 C108.237793,29.902832 108.501465,30.5888672 108.501465,31.4189453 C108.501465,32.3076172 108.210938,33.0107422 107.629883,33.5283203 C107.048828,34.0458984 106.226074,34.3046875 105.161621,34.3046875 C104.175293,34.3046875 103.345215,34.0092773 102.671387,33.418457 C101.997559,32.8276367 101.660645,31.8486328 101.660645,30.4814453 L101.660645,30.4814453 L98.0131836,30.4814453 C98.0131836,31.9365234 98.2890625,33.1499023 98.8408203,34.121582 C99.3925781,35.0932617 100.122559,35.828125 101.030762,36.3261719 C101.938965,36.8242188 102.949707,37.1318359 104.062988,37.2490234 L104.062988,37.2490234 L104.062988,40.1054688 L106.39209,40.1054688 Z M124.937012,37 L124.937012,15.5986328 L124.48291,15.5986328 L116.089355,18.6748047 L116.089355,21.7216797 L121.289551,19.9785156 L121.289551,37 L124.937012,37 Z M138.867676,37.2929688 C140.244629,37.2929688 141.47998,37.0463867 142.57373,36.5532227 C143.66748,36.0600586 144.526855,35.3398438 145.151855,34.3925781 C145.776855,33.4453125 146.089355,32.3222656 146.089355,31.0234375 C146.089355,29.8808594 145.796387,28.8701172 145.210449,27.9912109 C144.624512,27.1123047 143.721191,26.4628906 142.500488,26.0429688 C143.54541,25.5742188 144.351074,24.9150391 144.91748,24.0654297 C145.483887,23.2158203 145.76709,22.3417969 145.76709,21.4433594 C145.76709,20.1347656 145.481445,19.0263672 144.910156,18.1181641 C144.338867,17.2099609 143.535645,16.5263672 142.500488,16.0673828 C141.465332,15.6083984 140.254395,15.3789062 138.867676,15.3789062 C137.578613,15.3789062 136.414062,15.6303711 135.374023,16.1333008 C134.333984,16.6362305 133.520996,17.3320312 132.935059,18.2207031 C132.349121,19.109375 132.056152,20.1103516 132.056152,21.2236328 L132.056152,21.2236328 L135.703613,21.2236328 C135.703613,20.6376953 135.842773,20.125 136.121094,19.6855469 C136.399414,19.2460938 136.782715,18.9067383 137.270996,18.6674805 C137.759277,18.4282227 138.311035,18.3085938 138.92627,18.3085938 C139.980957,18.3085938 140.776855,18.5820312 141.313965,19.1289062 C141.851074,19.6757812 142.119629,20.4472656 142.119629,21.4433594 C142.119629,22.4296875 141.816895,23.2158203 141.211426,23.8017578 C140.605957,24.3876953 139.722168,24.6806641 138.560059,24.6806641 L138.560059,24.6806641 L136.436035,24.6806641 L136.436035,27.5517578 L138.560059,27.5517578 C139.790527,27.5517578 140.745117,27.8349609 141.423828,28.4013672 C142.102539,28.9677734 142.441895,29.8369141 142.441895,31.0087891 C142.441895,32.0732422 142.131836,32.8984375 141.511719,33.484375 C140.891602,34.0703125 140.029785,34.3632812 138.92627,34.3632812 C138.242676,34.3632812 137.64209,34.2338867 137.124512,33.9750977 C136.606934,33.7163086 136.206543,33.3500977 135.92334,32.8764648 C135.640137,32.402832 135.498535,31.8632812 135.498535,31.2578125 L135.498535,31.2578125 L131.851074,31.2578125 C131.851074,32.5371094 132.170898,33.6308594 132.810547,34.5390625 C133.450195,35.4472656 134.304688,36.1333008 135.374023,36.597168 C136.443359,37.0610352 137.60791,37.2929688 138.867676,37.2929688 Z M156.694824,37.2929688 C158.120605,37.2929688 159.358398,36.9755859 160.408203,36.3408203 C161.458008,35.7060547 162.26123,34.8344727 162.817871,33.7260742 C163.374512,32.6176758 163.652832,31.375 163.652832,29.9980469 C163.652832,28.7089844 163.428223,27.5224609 162.979004,26.4384766 C162.529785,25.3544922 161.846191,24.4853516 160.928223,23.8310547 C160.010254,23.1767578 158.887207,22.8496094 157.559082,22.8496094 C156.680176,22.8496094 155.869629,23.0009766 155.127441,23.3037109 C154.385254,23.6064453 153.745605,24.0458984 153.208496,24.6220703 C153.345215,23.4404297 153.68457,22.3979492 154.226562,21.4946289 C154.768555,20.5913086 155.54248,19.8759766 156.54834,19.3486328 C157.554199,18.8212891 158.789551,18.5576172 160.254395,18.5576172 L160.254395,18.5576172 L160.503418,18.5576172 L160.503418,15.5546875 L160.063965,15.5546875 C157.632324,15.5546875 155.625488,16.0869141 154.043457,17.1513672 C152.461426,18.2158203 151.304199,19.644043 150.571777,21.4360352 C149.839355,23.2280273 149.473145,25.2470703 149.473145,27.4931641 L149.473145,27.4931641 L149.473145,28.9140625 C149.473145,30.4375 149.758789,31.8364258 150.330078,33.1108398 C150.901367,34.3852539 151.733887,35.4008789 152.827637,36.1577148 C153.921387,36.9145508 155.210449,37.2929688 156.694824,37.2929688 Z M156.650879,34.3486328 C155.996582,34.3486328 155.40332,34.1533203 154.871094,33.7626953 C154.338867,33.3720703 153.916504,32.793457 153.604004,32.0268555 C153.291504,31.2602539 153.135254,30.3349609 153.135254,29.2509766 L153.135254,29.2509766 L153.135254,28.1230469 C153.408691,27.4492188 153.862793,26.8925781 154.497559,26.453125 C155.132324,26.0136719 155.845215,25.7939453 156.63623,25.7939453 C157.349121,25.7939453 157.961914,25.984375 158.474609,26.3652344 C158.987305,26.7460938 159.375488,27.2612305 159.63916,27.9106445 C159.902832,28.5600586 160.034668,29.2851562 160.034668,30.0859375 C160.034668,30.9160156 159.897949,31.6533203 159.624512,32.2978516 C159.351074,32.9423828 158.960449,33.4453125 158.452637,33.8066406 C157.944824,34.1679688 157.344238,34.3486328 156.650879,34.3486328 Z M168.955566,37.1757812 C169.600098,37.1757812 170.112793,36.987793 170.493652,36.6118164 C170.874512,36.2358398 171.064941,35.7597656 171.064941,35.1835938 C171.064941,34.5976562 170.874512,34.1142578 170.493652,33.7333984 C170.112793,33.3525391 169.600098,33.1621094 168.955566,33.1621094 C168.30127,33.1621094 167.783691,33.3525391 167.402832,33.7333984 C167.021973,34.1142578 166.831543,34.5976562 166.831543,35.1835938 C166.831543,35.7597656 167.021973,36.2358398 167.402832,36.6118164 C167.783691,36.987793 168.30127,37.1757812 168.955566,37.1757812 Z M184.600098,37 L184.600098,15.5986328 L184.145996,15.5986328 L175.752441,18.6748047 L175.752441,21.7216797 L180.952637,19.9785156 L180.952637,37 L184.600098,37 Z M206.338379,37 L206.338379,34.0703125 L196.523926,34.0703125 L201.152832,29.1191406 C202.578613,27.625 203.662598,26.2553711 204.404785,25.0102539 C205.146973,23.7651367 205.518066,22.5175781 205.518066,21.2675781 C205.518066,20.0664062 205.254395,19.0239258 204.727051,18.1401367 C204.199707,17.2563477 203.433105,16.5751953 202.427246,16.0966797 C201.421387,15.6181641 200.210449,15.3789062 198.794434,15.3789062 C197.300293,15.3789062 196.006348,15.6816406 194.912598,16.2871094 C193.818848,16.8925781 192.983887,17.7128906 192.407715,18.7480469 C191.831543,19.7832031 191.543457,20.9306641 191.543457,22.1904297 L191.543457,22.1904297 L195.190918,22.1904297 C195.190918,21.0185547 195.496094,20.0786133 196.106445,19.3706055 C196.716797,18.6625977 197.598145,18.3085938 198.750488,18.3085938 C199.727051,18.3085938 200.491211,18.6162109 201.042969,19.2314453 C201.594727,19.8466797 201.870605,20.6523438 201.870605,21.6484375 C201.870605,22.1367188 201.780273,22.625 201.599609,23.1132812 C201.418945,23.6015625 201.11377,24.1508789 200.684082,24.7612305 C200.254395,25.371582 199.658691,26.1015625 198.896973,26.9511719 L198.896973,26.9511719 L191.953613,34.4804688 L191.953613,37 L206.338379,37 Z"/>
        <g transform="translate(276)">
          <circle cx="14" cy="14" r="12.75" stroke="#4F6EF7" stroke-width="2.5"/>
          <g fill="#4F6EF7" transform="translate(13 8)">
            <path stroke="#4F6EF7" stroke-width=".75" d="M1,2 C0.44771525,2 6.76353751e-17,1.55228475 0,1 C-6.76353751e-17,0.44771525 0.44771525,1.01453063e-16 1,0 C1.55228475,-1.01453063e-16 2,0.44771525 2,1 C2,1.55228475 1.55228475,2 1,2 Z" transform="rotate(180 1 1)"/>
            <path d="M1.20425532,12 L0.795744681,12 C0.356267029,12 5.382049e-17,11.643733 0,11.2042553 L0,4.79574468 C-5.382049e-17,4.35626703 0.356267029,4 0.795744681,4 L1.20425532,4 C1.64373297,4 2,4.35626703 2,4.79574468 L2,11.2042553 C2,11.643733 1.64373297,12 1.20425532,12 Z" transform="rotate(180 1 8)"/>
          </g>
        </g>
        <path fill="#4F6EF7" fill-rule="nonzero" d="M19,5 L7,5 C5.9,5 5,5.9 5,7 L5,21 L7,21 L7,7 L19,7 L19,5 Z M22,9 L11,9 C9.9,9 9,9.9 9,11 L9,25 C9,26.1 9.9,27 11,27 L22,27 C23.1,27 24,26.1 24,25 L24,11 C24,9.9 23.1,9 22,9 Z M22,25 L11,25 L11,11 L22,11 L22,25 Z"/>
      </g>
    </g>
  </g>
</svg>
