<svg xmlns="http://www.w3.org/2000/svg" xmlns:xlink="http://www.w3.org/1999/xlink" width="336" height="390" viewBox="0 0 336 390">
  <defs>
    <rect id="amount-continue-discount-b" width="300" height="354" x="0" y="0" rx="8"/>
    <filter id="amount-continue-discount-a" width="118%" height="115.3%" x="-9%" y="-7.6%" filterUnits="objectBoundingBox">
      <feMorphology in="SourceAlpha" operator="dilate" radius="2" result="shadowSpreadOuter1"/>
      <feOffset in="shadowSpreadOuter1" result="shadowOffsetOuter1"/>
      <feGaussianBlur in="shadowOffsetOuter1" result="shadowBlurOuter1" stdDeviation="7"/>
      <feColorMatrix in="shadowBlurOuter1" values="0 0 0 0 0   0 0 0 0 0   0 0 0 0 0  0 0 0 0.1 0"/>
    </filter>
    <path id="amount-continue-discount-c" d="M14.6640625,67 L14.6640625,35.6972656 L13.9980469,35.6972656 L0.849609375,40.359375 L0.849609375,45.5800781 L8.19726562,43.3671875 L8.19726562,67 L14.6640625,67 Z M35.2675781,67.4296875 C37.4303385,67.4296875 39.3030599,66.9534505 40.8857422,66.0009766 C42.4684245,65.0485026 43.6966146,63.5804036 44.5703125,61.5966797 C45.4440104,59.6129557 45.8808594,57.1171875 45.8808594,54.109375 L45.8808594,54.109375 L45.8808594,48.5664062 C45.8808594,45.5585938 45.4404297,43.0664062 44.5595703,41.0898438 C43.6787109,39.1132812 42.4433594,37.6523438 40.8535156,36.7070312 C39.2636719,35.7617188 37.3873698,35.2890625 35.2246094,35.2890625 C33.061849,35.2890625 31.1855469,35.7617188 29.5957031,36.7070312 C28.0058594,37.6523438 26.7705078,39.1132812 25.8896484,41.0898438 C25.0087891,43.0664062 24.5683594,45.5585938 24.5683594,48.5664062 L24.5683594,48.5664062 L24.5683594,54.109375 C24.5683594,57.1171875 25.0123698,59.6129557 25.9003906,61.5966797 C26.7884115,63.5804036 28.0309245,65.0485026 29.6279297,66.0009766 C31.2249349,66.9534505 33.1048177,67.4296875 35.2675781,67.4296875 Z M35.2675781,62.2089844 C33.8782552,62.2089844 32.8291016,61.6503906 32.1201172,60.5332031 C31.4111328,59.4160156 31.0566406,57.5611979 31.0566406,54.96875 L31.0566406,54.96875 L31.0566406,47.6855469 C31.0566406,45.1217448 31.4075521,43.2848307 32.109375,42.1748047 C32.8111979,41.0647786 33.8496094,40.5097656 35.2246094,40.5097656 C36.5996094,40.5097656 37.6380208,41.0647786 38.3398438,42.1748047 C39.0416667,43.2848307 39.3925781,45.1217448 39.3925781,47.6855469 L39.3925781,47.6855469 L39.3925781,54.96875 C39.3925781,57.5611979 39.0488281,59.4160156 38.3613281,60.5332031 C37.6738281,61.6503906 36.6425781,62.2089844 35.2675781,62.2089844 Z M60.7050781,67.4296875 C63.0253906,67.4296875 64.9840495,66.9498698 66.5810547,65.9902344 C68.1780599,65.030599 69.3740234,63.7558594 70.1689453,62.1660156 C70.9638672,60.5761719 71.3613281,58.8359375 71.3613281,56.9453125 C71.3613281,54.7395833 70.9853516,52.8489583 70.2333984,51.2734375 C69.4814453,49.6979167 68.3893229,48.4947917 66.9570312,47.6640625 C65.5247396,46.8333333 63.7988281,46.4179688 61.7792969,46.4179688 C60.8626302,46.4179688 59.9889323,46.5397135 59.1582031,46.7832031 C58.327474,47.0266927 57.6542969,47.2988281 57.1386719,47.5996094 L57.1386719,47.5996094 L57.890625,41.046875 L70.3085938,41.046875 L70.3085938,35.71875 L52.5839844,35.71875 L50.7578125,51.6386719 L55.9140625,52.90625 C56.4153646,52.390625 56.9703776,51.9824219 57.5791016,51.6816406 C58.1878255,51.3808594 58.9934896,51.2304688 59.9960938,51.2304688 C61.6289062,51.2304688 62.8499349,51.6995443 63.6591797,52.6376953 C64.4684245,53.5758464 64.8730469,54.875651 64.8730469,56.5371094 C64.8730469,58.2415365 64.5364583,59.6129557 63.8632812,60.6513672 C63.1901042,61.6897786 62.1302083,62.2089844 60.6835938,62.2089844 C59.4804688,62.2089844 58.5029297,61.8544922 57.7509766,61.1455078 C56.9990234,60.4365234 56.5657552,59.4589844 56.4511719,58.2128906 L56.4511719,58.2128906 L50.0058594,58.2128906 C50.0345052,60.0748698 50.5537109,61.7041016 51.5634766,63.1005859 C52.5732422,64.4970703 53.8873698,65.5677083 55.5058594,66.3125 C57.124349,67.0572917 58.8574219,67.4296875 60.7050781,67.4296875 Z M79.4824219,67.2363281 C80.1985677,67.2363281 80.8359375,67.0859375 81.3945312,66.7851562 C81.953125,66.484375 82.3828125,66.0725911 82.6835938,65.5498047 C82.984375,65.0270182 83.1347656,64.4433594 83.1347656,63.7988281 C83.1347656,63.1542969 82.984375,62.570638 82.6835938,62.0478516 C82.3828125,61.5250651 81.953125,61.1132812 81.3945312,60.8125 C80.8359375,60.5117188 80.1985677,60.3613281 79.4824219,60.3613281 C78.766276,60.3613281 78.132487,60.5117188 77.5810547,60.8125 C77.0296224,61.1132812 76.6035156,61.5250651 76.3027344,62.0478516 C76.0019531,62.570638 75.8515625,63.1542969 75.8515625,63.7988281 C75.8515625,64.4433594 76.0019531,65.0270182 76.3027344,65.5498047 C76.6035156,66.0725911 77.0296224,66.484375 77.5810547,66.7851562 C78.132487,67.0859375 78.766276,67.2363281 79.4824219,67.2363281 Z M109.732422,67 L109.732422,61.7792969 L96.5839844,61.7792969 L101.740234,56.3867188 C103.344401,54.7252604 104.644206,53.2607422 105.639648,51.9931641 C106.635091,50.7255859 107.408529,49.4544271 107.959961,48.1796875 C108.511393,46.9049479 108.787109,45.5872396 108.787109,44.2265625 C108.787109,42.3502604 108.393229,40.742513 107.605469,39.4033203 C106.817708,38.0641276 105.657552,37.0400391 104.125,36.3310547 C102.592448,35.6220703 100.723307,35.2675781 98.5175781,35.2675781 C96.3548177,35.2675781 94.4427083,35.7294922 92.78125,36.6533203 C91.1197917,37.5771484 89.8378906,38.8304036 88.9355469,40.4130859 C88.0332031,41.9957682 87.5820312,43.7395833 87.5820312,45.6445312 L87.5820312,45.6445312 L94.0703125,45.6445312 C94.0703125,44.65625 94.2421875,43.7718099 94.5859375,42.9912109 C94.9296875,42.210612 95.4274089,41.5983073 96.0791016,41.1542969 C96.7307943,40.7102865 97.500651,40.4882812 98.3886719,40.4882812 C99.6347656,40.4882812 100.597982,40.8714193 101.27832,41.6376953 C101.958659,42.4039714 102.298828,43.4746094 102.298828,44.8496094 C102.298828,45.7376302 101.994466,46.7294922 101.385742,47.8251953 C100.777018,48.9208984 99.7565104,50.2636719 98.3242188,51.8535156 L98.3242188,51.8535156 L88.2050781,62.5527344 L88.2050781,67 L109.732422,67 Z M122.923828,67 L134.912109,39.328125 L134.912109,35.71875 L112.697266,35.71875 L112.697266,40.9394531 L128.080078,40.9394531 L116.091797,67 L122.923828,67 Z"/>
    <path id="amount-continue-discount-d" d="M56.7890625,17.15625 C57.6536458,17.15625 58.4153646,17 59.0742188,16.6875 C59.7330729,16.375 60.2473958,15.9140625 60.6171875,15.3046875 C60.9869792,14.6953125 61.171875,13.9609375 61.171875,13.1015625 L61.171875,13.1015625 L61.171875,5.625 L58.71875,5.625 L58.71875,13.1015625 C58.71875,13.8151042 58.5546875,14.3398438 58.2265625,14.6757812 C57.8984375,15.0117188 57.4192708,15.1796875 56.7890625,15.1796875 C55.4921875,15.1796875 54.84375,14.4869792 54.84375,13.1015625 L54.84375,13.1015625 L54.84375,5.625 L52.3828125,5.625 L52.3828125,13.1015625 C52.3828125,13.9609375 52.5677083,14.6953125 52.9375,15.3046875 C53.3072917,15.9140625 53.8242188,16.375 54.4882812,16.6875 C55.1523438,17 55.9192708,17.15625 56.7890625,17.15625 Z M67.2421875,17.15625 C68.0807292,17.15625 68.8111979,17.03125 69.4335938,16.78125 C70.0559896,16.53125 70.5364583,16.1679688 70.875,15.6914062 C71.2135417,15.2148438 71.3828125,14.6458333 71.3828125,13.984375 C71.3828125,13.0677083 71.0716146,12.3164062 70.4492188,11.7304688 C69.8268229,11.1445312 68.8776042,10.65625 67.6015625,10.265625 C66.8463542,10.03125 66.2890625,9.79296875 65.9296875,9.55078125 C65.5703125,9.30859375 65.390625,9.01302083 65.390625,8.6640625 C65.390625,8.4296875 65.4570312,8.21744792 65.5898438,8.02734375 C65.7226562,7.83723958 65.9205729,7.6875 66.1835938,7.578125 C66.4466146,7.46875 66.765625,7.4140625 67.140625,7.4140625 C67.7291667,7.4140625 68.1757812,7.55598958 68.4804688,7.83984375 C68.7851562,8.12369792 68.9375,8.50520833 68.9375,8.984375 L68.9375,8.984375 L71.3828125,8.984375 C71.3828125,8.296875 71.2083333,7.68619792 70.859375,7.15234375 C70.5104167,6.61848958 70.0182292,6.20442708 69.3828125,5.91015625 C68.7473958,5.61588542 68.015625,5.46875 67.1875,5.46875 C66.3645833,5.46875 65.6328125,5.60026042 64.9921875,5.86328125 C64.3515625,6.12630208 63.8502604,6.49869792 63.4882812,6.98046875 C63.1263021,7.46223958 62.9453125,8.01822917 62.9453125,8.6484375 C62.9453125,9.27864583 63.1119792,9.82291667 63.4453125,10.28125 C63.7786458,10.7395833 64.2226562,11.1210938 64.7773438,11.4257812 C65.3320312,11.7304688 65.9947917,12.0078125 66.765625,12.2578125 C67.3645833,12.4505208 67.8177083,12.6302083 68.125,12.796875 C68.4322917,12.9635417 68.6432292,13.1380208 68.7578125,13.3203125 C68.8723958,13.5026042 68.9296875,13.7291667 68.9296875,14 C68.9296875,14.3645833 68.7877604,14.6588542 68.5039062,14.8828125 C68.2200521,15.1067708 67.7994792,15.21875 67.2421875,15.21875 C66.5390625,15.21875 65.9986979,15.0742188 65.6210938,14.7851562 C65.2434896,14.4960938 65.0546875,14.0260417 65.0546875,13.375 L65.0546875,13.375 L62.59375,13.375 C62.59375,14.203125 62.8151042,14.9023438 63.2578125,15.4726562 C63.7005208,16.0429688 64.2747396,16.4661458 64.9804688,16.7421875 C65.6861979,17.0182292 66.4401042,17.15625 67.2421875,17.15625 Z M76.453125,17 C77.4739583,17 78.3802083,16.7721354 79.171875,16.3164062 C79.9635417,15.8606771 80.5807292,15.2213542 81.0234375,14.3984375 C81.4661458,13.5755208 81.6875,12.6302083 81.6875,11.5625 L81.6875,11.5625 L81.6875,11.0625 C81.6875,10 81.4661458,9.05598958 81.0234375,8.23046875 C80.5807292,7.40494792 79.9648438,6.76432292 79.1757812,6.30859375 C78.3867188,5.85286458 77.484375,5.625 76.46875,5.625 L76.46875,5.625 L72.921875,5.625 L72.921875,17 L76.453125,17 Z M76.453125,15.0234375 L75.375,15.0234375 L75.375,7.609375 L76.46875,7.609375 C77.359375,7.609375 78.0364583,7.90104167 78.5,8.484375 C78.9635417,9.06770833 79.1953125,9.921875 79.1953125,11.046875 L79.1953125,11.046875 L79.1953125,11.5625 C79.1953125,12.6875 78.9609375,13.5455729 78.4921875,14.1367188 C78.0234375,14.7278646 77.34375,15.0234375 76.453125,15.0234375 L76.453125,15.0234375 Z"/>
    <path id="amount-continue-discount-f" d="M8,0 L292,0 C296.418278,-8.11624501e-16 300,3.581722 300,8 L300,48 L300,48 L0,48 L0,8 C-5.41083001e-16,3.581722 3.581722,8.11624501e-16 8,0 Z"/>
    <filter id="amount-continue-discount-e" width="100.3%" height="104.2%" x="-.2%" y="-1%" filterUnits="objectBoundingBox">
      <feOffset dy="1" in="SourceAlpha" result="shadowOffsetOuter1"/>
      <feColorMatrix in="shadowOffsetOuter1" values="0 0 0 0 0   0 0 0 0 0   0 0 0 0 0  0 0 0 0.05 0"/>
    </filter>
    <path id="amount-continue-discount-g" d="M14.668457,12.5 C15.5314128,12.5 16.2010091,12.3039551 16.6772461,11.9118652 C17.1534831,11.5197754 17.3916016,10.953125 17.3916016,10.2119141 C17.3916016,9.78580729 17.280599,9.41072591 17.0585938,9.08666992 C16.8365885,8.76261393 16.5089518,8.54329427 16.0756836,8.42871094 C16.440918,8.27832031 16.72111,8.05989583 16.9162598,7.7734375 C17.1114095,7.48697917 17.2089844,7.16113281 17.2089844,6.79589844 C17.2089844,6.08333333 16.9726562,5.55249023 16.5,5.20336914 C16.0273438,4.85424805 15.3505859,4.6796875 14.4697266,4.6796875 L14.4697266,4.6796875 L11.7841797,4.6796875 L11.7841797,12.5 L14.668457,12.5 Z M14.4804688,7.96679688 L13.175293,7.96679688 L13.175293,5.80224609 L14.4697266,5.80224609 C14.9352214,5.80224609 15.277181,5.88728841 15.4956055,6.05737305 C15.7140299,6.22745768 15.8232422,6.50227865 15.8232422,6.88183594 C15.8232422,7.22558594 15.7059733,7.49235026 15.4714355,7.68212891 C15.2368978,7.87190755 14.9065755,7.96679688 14.4804688,7.96679688 L14.4804688,7.96679688 Z M14.668457,11.3828125 L13.175293,11.3828125 L13.175293,8.98730469 L14.7275391,8.98730469 C15.5797526,8.98730469 16.0058594,9.39550781 16.0058594,10.2119141 C16.0058594,10.5664062 15.8903809,10.850179 15.6594238,11.0632324 C15.4284668,11.2762858 15.0981445,11.3828125 14.668457,11.3828125 L14.668457,11.3828125 Z M20.4047852,12.6074219 C20.7270508,12.6074219 21.0152995,12.5483398 21.2695312,12.4301758 C21.523763,12.3120117 21.7421875,12.1544596 21.9248047,11.9575195 C21.9677734,12.1938477 22.0179036,12.3746745 22.0751953,12.5 L22.0751953,12.5 L23.4394531,12.5 L23.4394531,12.4086914 C23.2926432,12.097168 23.2192383,11.6764323 23.2192383,11.1464844 L23.2192383,11.1464844 L23.2192383,8.58447266 C23.2192383,8.15120443 23.1234538,7.78417969 22.9318848,7.48339844 C22.7403158,7.18261719 22.4744466,6.95703125 22.1342773,6.80664062 C21.7941081,6.65625 21.4020182,6.58105469 20.9580078,6.58105469 C20.4853516,6.58105469 20.0655111,6.66430664 19.6984863,6.83081055 C19.3314616,6.99731445 19.048584,7.2175293 18.8498535,7.49145508 C18.651123,7.76538086 18.5517578,8.05810547 18.5517578,8.36962891 L18.5517578,8.36962891 L19.8891602,8.36962891 C19.8891602,8.22281901 19.9303385,8.09033203 20.0126953,7.97216797 C20.0950521,7.85400391 20.2114258,7.76090495 20.3618164,7.69287109 C20.512207,7.62483724 20.6858724,7.59082031 20.8828125,7.59082031 C21.2122396,7.59082031 21.4611003,7.67765299 21.6293945,7.85131836 C21.7976888,8.02498372 21.8818359,8.26578776 21.8818359,8.57373047 L21.8818359,8.57373047 L21.8818359,8.94970703 L21.0761719,8.94970703 C20.2311198,8.94970703 19.5785319,9.11442057 19.1184082,9.44384766 C18.6582845,9.77327474 18.4282227,10.2477214 18.4282227,10.8671875 C18.4282227,11.1966146 18.5123698,11.4938151 18.6806641,11.7587891 C18.8489583,12.023763 19.0834961,12.2314453 19.3842773,12.3818359 C19.6850586,12.5322266 20.0252279,12.6074219 20.4047852,12.6074219 Z M20.6625977,11.5385742 C20.3797201,11.5385742 20.1595052,11.4642741 20.0019531,11.3156738 C19.844401,11.1670736 19.765625,10.9746094 19.765625,10.7382812 C19.765625,10.4339193 19.8855794,10.1975911 20.1254883,10.0292969 C20.3653971,9.8610026 20.718099,9.77685547 21.1835938,9.77685547 L21.1835938,9.77685547 L21.8818359,9.77685547 L21.8818359,10.8618164 C21.7815755,11.0480143 21.6231283,11.2073568 21.4064941,11.3398438 C21.18986,11.4723307 20.9418945,11.5385742 20.6625977,11.5385742 Z M26.9736328,12.6074219 C27.3997396,12.6074219 27.7918294,12.5161133 28.1499023,12.3334961 C28.5079753,12.1508789 28.7944336,11.9038086 29.0092773,11.5922852 C29.2241211,11.2807617 29.3369141,10.9388021 29.3476562,10.5664062 L29.3476562,10.5664062 L28.0854492,10.5664062 C28.074707,10.7526042 28.0192057,10.9191081 27.9189453,11.065918 C27.8186849,11.2127279 27.6844076,11.3273112 27.5161133,11.409668 C27.347819,11.4920247 27.1616211,11.5332031 26.9575195,11.5332031 C26.0909831,11.5332031 25.6577148,10.9173177 25.6577148,9.68554688 L25.6577148,9.68554688 L25.6577148,9.50292969 C25.6577148,8.96582031 25.7543945,8.52360026 25.9477539,8.17626953 C26.1411133,7.8289388 26.4759115,7.65527344 26.9521484,7.65527344 C27.1777344,7.65527344 27.3737793,7.70540365 27.5402832,7.80566406 C27.7067871,7.90592448 27.8365885,8.04109701 27.9296875,8.21118164 C28.0227865,8.38126628 28.074707,8.57014974 28.0854492,8.77783203 L28.0854492,8.77783203 L29.3476562,8.77783203 C29.3369141,8.34814453 29.2312826,7.96679688 29.0307617,7.63378906 C28.8302409,7.30078125 28.5518392,7.04207357 28.1955566,6.85766602 C27.8392741,6.67325846 27.4301758,6.58105469 26.9682617,6.58105469 C26.3953451,6.58105469 25.9101562,6.70996094 25.5126953,6.96777344 C25.1152344,7.22558594 24.8171387,7.57560221 24.6184082,8.01782227 C24.4196777,8.46004232 24.3203125,8.95507812 24.3203125,9.50292969 L24.3203125,9.50292969 L24.3203125,9.68554688 C24.3203125,10.2333984 24.4187826,10.7284342 24.6157227,11.1706543 C24.8126628,11.6128743 25.1107585,11.9628906 25.5100098,12.2207031 C25.9092611,12.4785156 26.3971354,12.6074219 26.9736328,12.6074219 Z M31.6572266,12.5 L31.6572266,10.6147461 L32.2426758,10.0185547 L33.9345703,12.5 L35.4814453,12.5 L33.1020508,9.10546875 L35.2558594,6.68847656 L33.6445312,6.68847656 L32.0546875,8.48779297 L31.6572266,8.98193359 L31.6572266,4.25 L30.3251953,4.25 L30.3251953,12.5 L31.6572266,12.5 Z"/>
  </defs>
  <g fill="none" fill-rule="evenodd" transform="translate(18 18)">
    <use fill="#000" filter="url(#amount-continue-discount-a)" xlink:href="#amount-continue-discount-b"/>
    <use fill="#FFF" xlink:href="#amount-continue-discount-b"/>
    <path fill="#FFF" d="M10,48 L290,48 C295.522847,48 300,52.4771525 300,58 L300,346 C300,350.418278 296.418278,354 292,354 L8,354 C3.581722,354 -3.47095419e-16,350.418278 0,346 L0,58 C-6.76353751e-16,52.4771525 4.4771525,48 10,48 Z"/>
    <path fill="#434D5A" fill-rule="nonzero" d="M121.175537,78 C122.132568,78 122.982178,77.786377 123.724365,77.3591309 C124.466553,76.9318848 125.045166,76.3325195 125.460205,75.5610352 C125.875244,74.7895508 126.082764,73.9033203 126.082764,72.9023438 L126.082764,72.9023438 L126.082764,72.4335938 C126.082764,71.4375 125.875244,70.5524902 125.460205,69.7785645 C125.045166,69.0046387 124.467773,68.4040527 123.728027,67.9768066 C122.988281,67.5495605 122.142334,67.3359375 121.190186,67.3359375 L121.190186,67.3359375 L117.86499,67.3359375 L117.86499,78 L121.175537,78 Z M121.175537,76.1469727 L120.164795,76.1469727 L120.164795,69.1962891 L121.190186,69.1962891 C122.025146,69.1962891 122.659912,69.4697266 123.094482,70.0166016 C123.529053,70.5634766 123.746338,71.3642578 123.746338,72.4189453 L123.746338,72.4189453 L123.746338,72.9023438 C123.746338,73.9570312 123.526611,74.7614746 123.087158,75.3156738 C122.647705,75.869873 122.010498,76.1469727 121.175537,76.1469727 L121.175537,76.1469727 Z M130.931396,78.1464844 C131.717529,78.1464844 132.393799,77.9731445 132.960205,77.6264648 C133.526611,77.2797852 133.95752,76.8024902 134.25293,76.1945801 C134.54834,75.5866699 134.696045,74.8945312 134.696045,74.1181641 L134.696045,74.1181641 L134.696045,73.9643555 C134.696045,73.1879883 134.54834,72.4946289 134.25293,71.8842773 C133.95752,71.2739258 133.525391,70.7954102 132.956543,70.4487305 C132.387695,70.1020508 131.707764,69.9287109 130.916748,69.9287109 C130.130615,69.9287109 129.454346,70.1020508 128.887939,70.4487305 C128.321533,70.7954102 127.890625,71.2739258 127.595215,71.8842773 C127.299805,72.4946289 127.1521,73.1879883 127.1521,73.9643555 L127.1521,73.9643555 L127.1521,74.1181641 C127.1521,74.8945312 127.299805,75.5866699 127.595215,76.1945801 C127.890625,76.8024902 128.322754,77.2797852 128.891602,77.6264648 C129.460449,77.9731445 130.140381,78.1464844 130.931396,78.1464844 Z M130.931396,76.3666992 C130.384521,76.3666992 129.986572,76.1628418 129.737549,75.755127 C129.488525,75.3474121 129.364014,74.8017578 129.364014,74.1181641 L129.364014,74.1181641 L129.364014,73.9643555 C129.364014,73.2954102 129.488525,72.7521973 129.737549,72.3347168 C129.986572,71.9172363 130.379639,71.7084961 130.916748,71.7084961 C131.463623,71.7084961 131.861572,71.9160156 132.110596,72.3310547 C132.359619,72.7460938 132.484131,73.2905273 132.484131,73.9643555 L132.484131,73.9643555 L132.484131,74.1181641 C132.484131,74.796875 132.359619,75.3413086 132.110596,75.7514648 C131.861572,76.1616211 131.468506,76.3666992 130.931396,76.3666992 Z M139.398193,78.1464844 C140.184326,78.1464844 140.860596,77.9731445 141.427002,77.6264648 C141.993408,77.2797852 142.424316,76.8024902 142.719727,76.1945801 C143.015137,75.5866699 143.162842,74.8945312 143.162842,74.1181641 L143.162842,74.1181641 L143.162842,73.9643555 C143.162842,73.1879883 143.015137,72.4946289 142.719727,71.8842773 C142.424316,71.2739258 141.992188,70.7954102 141.42334,70.4487305 C140.854492,70.1020508 140.174561,69.9287109 139.383545,69.9287109 C138.597412,69.9287109 137.921143,70.1020508 137.354736,70.4487305 C136.78833,70.7954102 136.357422,71.2739258 136.062012,71.8842773 C135.766602,72.4946289 135.618896,73.1879883 135.618896,73.9643555 L135.618896,73.9643555 L135.618896,74.1181641 C135.618896,74.8945312 135.766602,75.5866699 136.062012,76.1945801 C136.357422,76.8024902 136.789551,77.2797852 137.358398,77.6264648 C137.927246,77.9731445 138.607178,78.1464844 139.398193,78.1464844 Z M139.398193,76.3666992 C138.851318,76.3666992 138.453369,76.1628418 138.204346,75.755127 C137.955322,75.3474121 137.830811,74.8017578 137.830811,74.1181641 L137.830811,74.1181641 L137.830811,73.9643555 C137.830811,73.2954102 137.955322,72.7521973 138.204346,72.3347168 C138.453369,71.9172363 138.846436,71.7084961 139.383545,71.7084961 C139.93042,71.7084961 140.328369,71.9160156 140.577393,72.3310547 C140.826416,72.7460938 140.950928,73.2905273 140.950928,73.9643555 L140.950928,73.9643555 L140.950928,74.1181641 C140.950928,74.796875 140.826416,75.3413086 140.577393,75.7514648 C140.328369,76.1616211 139.935303,76.3666992 139.398193,76.3666992 Z M146.627197,78 L146.627197,72.8803711 C146.866455,72.3579102 147.381592,72.0966797 148.172607,72.0966797 C148.411865,72.0966797 148.673096,72.1162109 148.956299,72.1552734 L148.956299,72.1552734 L148.985596,70.0166016 C148.907471,69.9921875 148.804932,69.9714355 148.677979,69.9543457 C148.551025,69.9372559 148.431396,69.9287109 148.319092,69.9287109 C147.943115,69.9287109 147.60498,70.0239258 147.304688,70.2143555 C147.004395,70.4047852 146.756592,70.6782227 146.561279,71.034668 L146.561279,71.034668 L146.495361,70.0751953 L144.415283,70.0751953 L144.415283,78 L146.627197,78 Z M153.380127,78 C154.337158,78 155.186768,77.786377 155.928955,77.3591309 C156.671143,76.9318848 157.249756,76.3325195 157.664795,75.5610352 C158.079834,74.7895508 158.287354,73.9033203 158.287354,72.9023438 L158.287354,72.9023438 L158.287354,72.4335938 C158.287354,71.4375 158.079834,70.5524902 157.664795,69.7785645 C157.249756,69.0046387 156.672363,68.4040527 155.932617,67.9768066 C155.192871,67.5495605 154.346924,67.3359375 153.394775,67.3359375 L153.394775,67.3359375 L150.06958,67.3359375 L150.06958,78 L153.380127,78 Z M153.380127,76.1469727 L152.369385,76.1469727 L152.369385,69.1962891 L153.394775,69.1962891 C154.229736,69.1962891 154.864502,69.4697266 155.299072,70.0166016 C155.733643,70.5634766 155.950928,71.3642578 155.950928,72.4189453 L155.950928,72.4189453 L155.950928,72.9023438 C155.950928,73.9570312 155.731201,74.7614746 155.291748,75.3156738 C154.852295,75.869873 154.215088,76.1469727 153.380127,76.1469727 L153.380127,76.1469727 Z M162.044678,78.1464844 C162.86499,78.1464844 163.526611,77.8608398 164.029541,77.2895508 C164.073486,77.5727539 164.144287,77.8095703 164.241943,78 L164.241943,78 L166.461182,78 L166.461182,77.8754883 C166.35376,77.6606445 166.273193,77.4140625 166.219482,77.1357422 C166.165771,76.8574219 166.138916,76.4936523 166.138916,76.0444336 L166.138916,76.0444336 L166.138916,72.7265625 C166.138916,72.1210938 166.002197,71.6083984 165.72876,71.1884766 C165.455322,70.7685547 165.076904,70.4536133 164.593506,70.2436523 C164.110107,70.0336914 163.555908,69.9287109 162.930908,69.9287109 C162.25708,69.9287109 161.662598,70.0410156 161.147461,70.265625 C160.632324,70.4902344 160.234375,70.7954102 159.953613,71.1811523 C159.672852,71.5668945 159.532471,71.996582 159.532471,72.4702148 L159.532471,72.4702148 L161.744385,72.4702148 C161.744385,72.1772461 161.838379,71.951416 162.026367,71.7927246 C162.214355,71.6340332 162.476807,71.5546875 162.813721,71.5546875 C163.184814,71.5546875 163.463135,71.6560059 163.648682,71.8586426 C163.834229,72.0612793 163.927002,72.3457031 163.927002,72.7119141 L163.927002,72.7119141 L163.927002,73.1586914 L163.026123,73.1586914 C161.820068,73.1586914 160.906982,73.3845215 160.286865,73.8361816 C159.666748,74.2878418 159.356689,74.9311523 159.356689,75.7661133 C159.356689,76.2202148 159.475098,76.6279297 159.711914,76.9892578 C159.94873,77.3505859 160.272217,77.6337891 160.682373,77.8388672 C161.092529,78.0439453 161.546631,78.1464844 162.044678,78.1464844 Z M162.542725,76.4692383 C162.244873,76.4692383 162.006836,76.3911133 161.828613,76.2348633 C161.650391,76.0786133 161.561279,75.8759766 161.561279,75.6269531 C161.561279,75.2705078 161.687012,74.9812012 161.938477,74.7590332 C162.189941,74.5368652 162.572021,74.4257812 163.084717,74.4257812 L163.084717,74.4257812 L163.927002,74.4257812 L163.927002,75.7514648 C163.814697,75.9516602 163.636475,76.1213379 163.392334,76.260498 C163.148193,76.3996582 162.86499,76.4692383 162.542725,76.4692383 Z M170.738525,78.1464844 C171.412354,78.1464844 172.004395,78.0415039 172.514648,77.831543 C173.024902,77.621582 173.417969,77.3322754 173.693848,76.963623 C173.969727,76.5949707 174.107666,76.1787109 174.107666,75.7148438 C174.107666,75.2021484 173.979492,74.7797852 173.723145,74.4477539 C173.466797,74.1157227 173.121338,73.8557129 172.686768,73.6677246 C172.252197,73.4797363 171.722412,73.3271484 171.097412,73.2099609 C170.574951,73.1123047 170.205078,72.9926758 169.987793,72.8510742 C169.770508,72.7094727 169.661865,72.5239258 169.661865,72.2944336 C169.661865,72.0551758 169.758301,71.8598633 169.951172,71.7084961 C170.144043,71.5571289 170.401611,71.4814453 170.723877,71.4814453 C171.114502,71.4814453 171.405029,71.5705566 171.595459,71.7487793 C171.785889,71.927002 171.881104,72.1748047 171.881104,72.4921875 L171.881104,72.4921875 L174.093018,72.4921875 C174.093018,71.9941406 173.956299,71.5510254 173.682861,71.1628418 C173.409424,70.7746582 173.018799,70.4719238 172.510986,70.2546387 C172.003174,70.0373535 171.409912,69.9287109 170.731201,69.9287109 C170.08667,69.9287109 169.522705,70.0410156 169.039307,70.265625 C168.555908,70.4902344 168.186035,70.7905273 167.929688,71.1665039 C167.67334,71.5424805 167.545166,71.9550781 167.545166,72.4042969 C167.545166,73.6201172 168.482666,74.4282227 170.357666,74.8286133 C170.782471,74.9213867 171.11084,75.0141602 171.342773,75.1069336 C171.574707,75.199707 171.73584,75.298584 171.826172,75.4035645 C171.916504,75.5085449 171.96167,75.6367188 171.96167,75.7880859 C171.96167,76.0322266 171.860352,76.2263184 171.657715,76.3703613 C171.455078,76.5144043 171.165771,76.5864258 170.789795,76.5864258 C170.384521,76.5864258 170.05249,76.494873 169.793701,76.3117676 C169.534912,76.1286621 169.398193,75.8466797 169.383545,75.4658203 L169.383545,75.4658203 L167.296143,75.4658203 C167.296143,75.9101562 167.431641,76.3374023 167.702637,76.7475586 C167.973633,77.1577148 168.369141,77.4934082 168.88916,77.7546387 C169.40918,78.0158691 170.025635,78.1464844 170.738525,78.1464844 Z M177.579346,78 L177.579346,72.3603516 C177.838135,71.9306641 178.262939,71.7158203 178.85376,71.7158203 C179.268799,71.7158203 179.577637,71.8134766 179.780273,72.0087891 C179.98291,72.2041016 180.084229,72.5410156 180.084229,73.0195312 L180.084229,73.0195312 L180.084229,78 L182.296143,78 L182.296143,73.0341797 C182.296143,71.9501953 182.06543,71.1616211 181.604004,70.668457 C181.142578,70.175293 180.496826,69.9287109 179.666748,69.9287109 C179.246826,69.9287109 178.859863,70.0141602 178.505859,70.1850586 C178.151855,70.355957 177.843018,70.6025391 177.579346,70.9248047 L177.579346,70.9248047 L177.579346,66.75 L175.367432,66.75 L175.367432,78 L177.579346,78 Z"/>
    <path fill="#FF3008" fill-rule="nonzero" d="M14.0927734,16.1171875 C14.7255859,16.1171875 15.2597656,15.9863281 15.6953125,15.7246094 C16.1308594,15.4628906 16.4570312,15.1152344 16.6738281,14.6816406 C16.890625,14.2480469 16.9990234,13.7734375 16.9990234,13.2578125 C16.9990234,12.65625 16.8964844,12.140625 16.6914062,11.7109375 C16.4863281,11.28125 16.1884766,10.953125 15.7978516,10.7265625 C15.4072266,10.5 14.9365234,10.3867188 14.3857422,10.3867188 C14.1357422,10.3867188 13.8974609,10.4199219 13.6708984,10.4863281 C13.4443359,10.5527344 13.2607422,10.6269531 13.1201172,10.7089844 L13.1201172,10.7089844 L13.3251953,8.921875 L16.7119141,8.921875 L16.7119141,7.46875 L11.8779297,7.46875 L11.3798828,11.8105469 L12.7861328,12.15625 C12.9228516,12.015625 13.0742188,11.9042969 13.2402344,11.8222656 C13.40625,11.7402344 13.6259766,11.6992188 13.8994141,11.6992188 C14.3447266,11.6992188 14.6777344,11.8271484 14.8984375,12.0830078 C15.1191406,12.3388672 15.2294922,12.6933594 15.2294922,13.1464844 C15.2294922,13.6113281 15.1376953,13.9853516 14.9541016,14.2685547 C14.7705078,14.5517578 14.4814453,14.6933594 14.0869141,14.6933594 C13.7587891,14.6933594 13.4921875,14.5966797 13.2871094,14.4033203 C13.0820312,14.2099609 12.9638672,13.9433594 12.9326172,13.6035156 L12.9326172,13.6035156 L11.1748047,13.6035156 C11.1826172,14.1113281 11.3242188,14.5556641 11.5996094,14.9365234 C11.875,15.3173828 12.2333984,15.609375 12.6748047,15.8125 C13.1162109,16.015625 13.5888672,16.1171875 14.0927734,16.1171875 Z M19.9228516,11.3125 C20.3173828,11.3125 20.6542969,11.234375 20.9335938,11.078125 C21.2128906,10.921875 21.4228516,10.7109375 21.5634766,10.4453125 C21.7041016,10.1796875 21.7744141,9.88476562 21.7744141,9.56054688 L21.7744141,9.56054688 L21.7744141,9.109375 C21.7744141,8.78125 21.703125,8.48339844 21.5605469,8.21582031 C21.4179688,7.94824219 21.2070312,7.73632812 20.9277344,7.58007812 C20.6484375,7.42382812 20.3095703,7.34570312 19.9111328,7.34570312 C19.5205078,7.34570312 19.1845703,7.42382812 18.9033203,7.58007812 C18.6220703,7.73632812 18.4091797,7.94824219 18.2646484,8.21582031 C18.1201172,8.48339844 18.0478516,8.78125 18.0478516,9.109375 L18.0478516,9.109375 L18.0478516,9.56054688 C18.0478516,9.88476562 18.1201172,10.1796875 18.2646484,10.4453125 C18.4091797,10.7109375 18.6230469,10.921875 18.90625,11.078125 C19.1894531,11.234375 19.5283203,11.3125 19.9228516,11.3125 Z M20.2685547,15.3613281 L24.4345703,8.69335938 L23.5791016,8.2421875 L19.4130859,14.9101562 L20.2685547,15.3613281 Z M19.9228516,10.2988281 C19.6962891,10.2988281 19.5214844,10.2275391 19.3984375,10.0849609 C19.2753906,9.94238281 19.2138672,9.76757812 19.2138672,9.56054688 L19.2138672,9.56054688 L19.2138672,9.109375 C19.2138672,8.8984375 19.2744141,8.72070312 19.3955078,8.57617188 C19.5166016,8.43164062 19.6884766,8.359375 19.9111328,8.359375 C20.1376953,8.359375 20.3115234,8.43164062 20.4326172,8.57617188 C20.5537109,8.72070312 20.6142578,8.8984375 20.6142578,9.109375 L20.6142578,9.109375 L20.6142578,9.56054688 C20.6142578,9.76757812 20.5546875,9.94238281 20.4355469,10.0849609 C20.3164062,10.2275391 20.1455078,10.2988281 19.9228516,10.2988281 Z M23.9951172,16.1171875 C24.3896484,16.1171875 24.7275391,16.0390625 25.0087891,15.8828125 C25.2900391,15.7265625 25.5009766,15.515625 25.6416016,15.25 C25.7822266,14.984375 25.8525391,14.6875 25.8525391,14.359375 L25.8525391,14.359375 L25.8525391,13.9082031 C25.8525391,13.5800781 25.78125,13.2832031 25.6386719,13.0175781 C25.4960938,12.7519531 25.2841797,12.5410156 25.0029297,12.3847656 C24.7216797,12.2285156 24.3818359,12.1503906 23.9833984,12.1503906 C23.5927734,12.1503906 23.2568359,12.2285156 22.9755859,12.3847656 C22.6943359,12.5410156 22.4814453,12.7529297 22.3369141,13.0205078 C22.1923828,13.2880859 22.1201172,13.5839844 22.1201172,13.9082031 L22.1201172,13.9082031 L22.1201172,14.359375 C22.1201172,14.6875 22.1923828,14.984375 22.3369141,15.25 C22.4814453,15.515625 22.6953125,15.7265625 22.9785156,15.8828125 C23.2617188,16.0390625 23.6005859,16.1171875 23.9951172,16.1171875 Z M23.9951172,15.1035156 C23.7880859,15.1035156 23.6181641,15.0302734 23.4853516,14.8837891 C23.3525391,14.7373047 23.2861328,14.5625 23.2861328,14.359375 L23.2861328,14.359375 L23.2861328,13.9082031 C23.2861328,13.6972656 23.3466797,13.5205078 23.4677734,13.3779297 C23.5888672,13.2353516 23.7607422,13.1640625 23.9833984,13.1640625 C24.2099609,13.1640625 24.3837891,13.2353516 24.5048828,13.3779297 C24.6259766,13.5205078 24.6865234,13.6972656 24.6865234,13.9082031 L24.6865234,13.9082031 L24.6865234,14.359375 C24.6865234,14.5859375 24.6357422,14.7666016 24.5341797,14.9013672 C24.4326172,15.0361328 24.2529297,15.1035156 23.9951172,15.1035156 Z M33.5107422,16.1171875 C34.2294922,16.1171875 34.8642578,15.9472656 35.4150391,15.6074219 C35.9658203,15.2675781 36.3945312,14.78125 36.7011719,14.1484375 C37.0078125,13.515625 37.1611328,12.7734375 37.1611328,11.921875 L37.1611328,11.921875 L37.1611328,11.5527344 C37.1611328,10.7011719 37.0068359,9.95800781 36.6982422,9.32324219 C36.3896484,8.68847656 35.9589844,8.20117188 35.40625,7.86132812 C34.8535156,7.52148438 34.2177734,7.3515625 33.4990234,7.3515625 C32.7802734,7.3515625 32.1455078,7.52148438 31.5947266,7.86132812 C31.0439453,8.20117188 30.6142578,8.68847656 30.3056641,9.32324219 C29.9970703,9.95800781 29.8427734,10.7011719 29.8427734,11.5527344 L29.8427734,11.5527344 L29.8427734,11.921875 C29.8427734,12.7734375 29.9970703,13.515625 30.3056641,14.1484375 C30.6142578,14.78125 31.0458984,15.2675781 31.6005859,15.6074219 C32.1552734,15.9472656 32.7919922,16.1171875 33.5107422,16.1171875 Z M33.5107422,14.6113281 C32.9326172,14.6113281 32.4873047,14.3789062 32.1748047,13.9140625 C31.8623047,13.4492188 31.7060547,12.7851562 31.7060547,11.921875 L31.7060547,11.921875 L31.7060547,11.5410156 C31.7060547,10.6699219 31.8603516,10.0058594 32.1689453,9.54882812 C32.4775391,9.09179688 32.9208984,8.86328125 33.4990234,8.86328125 C34.0732422,8.86328125 34.5166016,9.09277344 34.8291016,9.55175781 C35.1416016,10.0107422 35.2978516,10.6738281 35.2978516,11.5410156 L35.2978516,11.5410156 L35.2978516,11.921875 C35.2978516,12.7851562 35.1435547,13.4492188 34.8349609,13.9140625 C34.5263672,14.3789062 34.0849609,14.6113281 33.5107422,14.6113281 Z M40.5009766,16 L40.5009766,10.9492188 L41.7548828,10.9492188 L41.7548828,9.66015625 L40.5009766,9.66015625 L40.5009766,9.12109375 C40.5009766,8.859375 40.5830078,8.65820312 40.7470703,8.51757812 C40.9111328,8.37695312 41.1435547,8.30664062 41.4443359,8.30664062 C41.6435547,8.30664062 41.8134766,8.32421875 41.9541016,8.359375 L41.9541016,8.359375 L41.9658203,6.99414062 C41.6611328,6.91601562 41.3662109,6.87695312 41.0810547,6.87695312 C40.6005859,6.87695312 40.1835938,6.96386719 39.8300781,7.13769531 C39.4765625,7.31152344 39.2050781,7.56640625 39.015625,7.90234375 C38.8261719,8.23828125 38.7314453,8.64453125 38.7314453,9.12109375 L38.7314453,9.12109375 L38.7314453,9.66015625 L37.7939453,9.66015625 L37.7939453,10.9492188 L38.7314453,10.9492188 L38.7314453,16 L40.5009766,16 Z M44.8193359,16 L44.8193359,10.9492188 L46.0732422,10.9492188 L46.0732422,9.66015625 L44.8193359,9.66015625 L44.8193359,9.12109375 C44.8193359,8.859375 44.9013672,8.65820312 45.0654297,8.51757812 C45.2294922,8.37695312 45.4619141,8.30664062 45.7626953,8.30664062 C45.9619141,8.30664062 46.1318359,8.32421875 46.2724609,8.359375 L46.2724609,8.359375 L46.2841797,6.99414062 C45.9794922,6.91601562 45.6845703,6.87695312 45.3994141,6.87695312 C44.9189453,6.87695312 44.5019531,6.96386719 44.1484375,7.13769531 C43.7949219,7.31152344 43.5234375,7.56640625 43.3339844,7.90234375 C43.1445312,8.23828125 43.0498047,8.64453125 43.0498047,9.12109375 L43.0498047,9.12109375 L43.0498047,9.66015625 L42.1123047,9.66015625 L42.1123047,10.9492188 L43.0498047,10.9492188 L43.0498047,16 L44.8193359,16 Z M55.7646484,16 L55.7646484,14.5175781 L51.8447266,14.5175781 L51.8447266,12.3320312 L55.1787109,12.3320312 L55.1787109,10.8964844 L51.8447266,10.8964844 L51.8447266,8.95703125 L55.7587891,8.95703125 L55.7587891,7.46875 L50.0048828,7.46875 L50.0048828,16 L55.7646484,16 Z M58.5361328,16.1171875 C59.1923828,16.1171875 59.7216797,15.8886719 60.1240234,15.4316406 C60.1591797,15.6582031 60.2158203,15.8476562 60.2939453,16 L60.2939453,16 L62.0693359,16 L62.0693359,15.9003906 C61.9833984,15.7285156 61.9189453,15.53125 61.8759766,15.3085938 C61.8330078,15.0859375 61.8115234,14.7949219 61.8115234,14.4355469 L61.8115234,14.4355469 L61.8115234,11.78125 C61.8115234,11.296875 61.7021484,10.8867188 61.4833984,10.5507812 C61.2646484,10.2148438 60.9619141,9.96289062 60.5751953,9.79492188 C60.1884766,9.62695312 59.7451172,9.54296875 59.2451172,9.54296875 C58.7060547,9.54296875 58.2304688,9.6328125 57.8183594,9.8125 C57.40625,9.9921875 57.0878906,10.2363281 56.8632812,10.5449219 C56.6386719,10.8535156 56.5263672,11.1972656 56.5263672,11.5761719 L56.5263672,11.5761719 L58.2958984,11.5761719 C58.2958984,11.3417969 58.3710938,11.1611328 58.5214844,11.0341797 C58.671875,10.9072266 58.8818359,10.84375 59.1513672,10.84375 C59.4482422,10.84375 59.6708984,10.9248047 59.8193359,11.0869141 C59.9677734,11.2490234 60.0419922,11.4765625 60.0419922,11.7695312 L60.0419922,11.7695312 L60.0419922,12.1269531 L59.3212891,12.1269531 C58.3564453,12.1269531 57.6259766,12.3076172 57.1298828,12.6689453 C56.6337891,13.0302734 56.3857422,13.5449219 56.3857422,14.2128906 C56.3857422,14.5761719 56.4804688,14.9023438 56.6699219,15.1914062 C56.859375,15.4804688 57.1181641,15.7070312 57.4462891,15.8710938 C57.7744141,16.0351562 58.1376953,16.1171875 58.5361328,16.1171875 Z M58.9345703,14.7753906 C58.6962891,14.7753906 58.5058594,14.7128906 58.3632812,14.5878906 C58.2207031,14.4628906 58.1494141,14.3007812 58.1494141,14.1015625 C58.1494141,13.8164062 58.25,13.5849609 58.4511719,13.4072266 C58.6523438,13.2294922 58.9580078,13.140625 59.3681641,13.140625 L59.3681641,13.140625 L60.0419922,13.140625 L60.0419922,14.2011719 C59.9521484,14.3613281 59.8095703,14.4970703 59.6142578,14.6083984 C59.4189453,14.7197266 59.1923828,14.7753906 58.9345703,14.7753906 Z M65.7490234,16.1171875 C66.2373047,16.1171875 66.6816406,16.0175781 67.0820312,15.8183594 C67.4824219,15.6191406 67.7998047,15.3417969 68.0341797,14.9863281 C68.2685547,14.6308594 68.3857422,14.2285156 68.3857422,13.7792969 L68.3857422,13.7792969 L66.7275391,13.7792969 C66.7236328,14.0605469 66.6298828,14.2832031 66.4462891,14.4472656 C66.2626953,14.6113281 66.0185547,14.6933594 65.7138672,14.6933594 C65.2724609,14.6933594 64.9726562,14.5351562 64.8144531,14.21875 C64.65625,13.9023438 64.5771484,13.4648438 64.5771484,12.90625 L64.5771484,12.90625 L64.5771484,12.7539062 C64.5771484,12.2070312 64.6572266,11.7724609 64.8173828,11.4501953 C64.9775391,11.1279297 65.2724609,10.9667969 65.7021484,10.9667969 C66.0224609,10.9667969 66.2724609,11.0683594 66.4521484,11.2714844 C66.6318359,11.4746094 66.7236328,11.7324219 66.7275391,12.0449219 L66.7275391,12.0449219 L68.3857422,12.0449219 C68.3857422,11.5332031 68.2744141,11.0888672 68.0517578,10.7119141 C67.8291016,10.3349609 67.5175781,10.0458984 67.1171875,9.84472656 C66.7167969,9.64355469 66.2568359,9.54296875 65.7373047,9.54296875 C65.1044922,9.54296875 64.5683594,9.68164062 64.1289062,9.95898438 C63.6894531,10.2363281 63.359375,10.6171875 63.1386719,11.1015625 C62.9179688,11.5859375 62.8076172,12.1367188 62.8076172,12.7539062 L62.8076172,12.7539062 L62.8076172,12.90625 C62.8076172,13.5234375 62.9179688,14.0742188 63.1386719,14.5585938 C63.359375,15.0429688 63.6904297,15.4238281 64.1318359,15.7011719 C64.5732422,15.9785156 65.1123047,16.1171875 65.7490234,16.1171875 Z M71.0517578,16 L71.0517578,11.4882812 C71.2587891,11.1445312 71.5986328,10.9726562 72.0712891,10.9726562 C72.4033203,10.9726562 72.6503906,11.0507812 72.8125,11.2070312 C72.9746094,11.3632812 73.0556641,11.6328125 73.0556641,12.015625 L73.0556641,12.015625 L73.0556641,16 L74.8251953,16 L74.8251953,12.0273438 C74.8251953,11.1601562 74.640625,10.5292969 74.2714844,10.1347656 C73.9023438,9.74023438 73.3857422,9.54296875 72.7216797,9.54296875 C72.3857422,9.54296875 72.0761719,9.61132812 71.7929688,9.74804688 C71.5097656,9.88476562 71.2626953,10.0820312 71.0517578,10.3398438 L71.0517578,10.3398438 L71.0517578,7 L69.2822266,7 L69.2822266,16 L71.0517578,16 Z M80.9892578,16 L80.9892578,13.0351562 L82.5009766,13.0351562 C83.1650391,13.0351562 83.7412109,12.9238281 84.2294922,12.7011719 C84.7177734,12.4785156 85.0908203,12.1621094 85.3486328,11.7519531 C85.6064453,11.3417969 85.7353516,10.8632812 85.7353516,10.3164062 C85.7353516,9.765625 85.6054688,9.27539062 85.3457031,8.84570312 C85.0859375,8.41601562 84.7119141,8.07910156 84.2236328,7.83496094 C83.7353516,7.59082031 83.1611328,7.46875 82.5009766,7.46875 L82.5009766,7.46875 L79.1494141,7.46875 L79.1494141,16 L80.9892578,16 Z M82.5009766,11.546875 L80.9892578,11.546875 L80.9892578,8.95703125 L82.5009766,8.95703125 C82.8095703,8.95703125 83.0673828,9.01953125 83.2744141,9.14453125 C83.4814453,9.26953125 83.6337891,9.43554688 83.7314453,9.64257812 C83.8291016,9.84960938 83.8779297,10.078125 83.8779297,10.328125 C83.8779297,10.703125 83.7646484,11 83.5380859,11.21875 C83.3115234,11.4375 82.9658203,11.546875 82.5009766,11.546875 L82.5009766,11.546875 Z M88.8818359,16.1171875 C89.2529297,16.1171875 89.5830078,16.0498047 89.8720703,15.9150391 C90.1611328,15.7802734 90.4052734,15.5878906 90.6044922,15.3378906 L90.6044922,15.3378906 L90.6513672,16 L92.3095703,16 L92.3095703,9.66015625 L90.5400391,9.66015625 L90.5400391,14.1191406 C90.3291016,14.4980469 89.9521484,14.6875 89.4091797,14.6875 C89.1357422,14.6875 88.921875,14.6132812 88.7675781,14.4648438 C88.6132812,14.3164062 88.5361328,14.0859375 88.5361328,13.7734375 L88.5361328,13.7734375 L88.5361328,9.66015625 L86.7724609,9.66015625 L86.7724609,13.7617188 C86.7724609,14.5664062 86.9589844,15.1601562 87.3320312,15.5429688 C87.7050781,15.9257812 88.2216797,16.1171875 88.8818359,16.1171875 Z M95.3154297,16 L95.3154297,11.9042969 C95.5068359,11.4863281 95.9189453,11.2773438 96.5517578,11.2773438 C96.7431641,11.2773438 96.9521484,11.2929688 97.1787109,11.3242188 L97.1787109,11.3242188 L97.2021484,9.61328125 C97.1396484,9.59375 97.0576172,9.57714844 96.9560547,9.56347656 C96.8544922,9.54980469 96.7587891,9.54296875 96.6689453,9.54296875 C96.3681641,9.54296875 96.0976562,9.61914062 95.8574219,9.77148438 C95.6171875,9.92382812 95.4189453,10.1425781 95.2626953,10.4277344 L95.2626953,10.4277344 L95.2099609,9.66015625 L93.5458984,9.66015625 L93.5458984,16 L95.3154297,16 Z M100.629883,16.1171875 C101.118164,16.1171875 101.5625,16.0175781 101.962891,15.8183594 C102.363281,15.6191406 102.680664,15.3417969 102.915039,14.9863281 C103.149414,14.6308594 103.266602,14.2285156 103.266602,13.7792969 L103.266602,13.7792969 L101.608398,13.7792969 C101.604492,14.0605469 101.510742,14.2832031 101.327148,14.4472656 C101.143555,14.6113281 100.899414,14.6933594 100.594727,14.6933594 C100.15332,14.6933594 99.8535156,14.5351562 99.6953125,14.21875 C99.5371094,13.9023438 99.4580078,13.4648438 99.4580078,12.90625 L99.4580078,12.90625 L99.4580078,12.7539062 C99.4580078,12.2070312 99.5380859,11.7724609 99.6982422,11.4501953 C99.8583984,11.1279297 100.15332,10.9667969 100.583008,10.9667969 C100.90332,10.9667969 101.15332,11.0683594 101.333008,11.2714844 C101.512695,11.4746094 101.604492,11.7324219 101.608398,12.0449219 L101.608398,12.0449219 L103.266602,12.0449219 C103.266602,11.5332031 103.155273,11.0888672 102.932617,10.7119141 C102.709961,10.3349609 102.398438,10.0458984 101.998047,9.84472656 C101.597656,9.64355469 101.137695,9.54296875 100.618164,9.54296875 C99.9853516,9.54296875 99.4492188,9.68164062 99.0097656,9.95898438 C98.5703125,10.2363281 98.2402344,10.6171875 98.0195312,11.1015625 C97.7988281,11.5859375 97.6884766,12.1367188 97.6884766,12.7539062 L97.6884766,12.7539062 L97.6884766,12.90625 C97.6884766,13.5234375 97.7988281,14.0742188 98.0195312,14.5585938 C98.2402344,15.0429688 98.5712891,15.4238281 99.0126953,15.7011719 C99.4541016,15.9785156 99.9931641,16.1171875 100.629883,16.1171875 Z M105.932617,16 L105.932617,11.4882812 C106.139648,11.1445312 106.479492,10.9726562 106.952148,10.9726562 C107.28418,10.9726562 107.53125,11.0507812 107.693359,11.2070312 C107.855469,11.3632812 107.936523,11.6328125 107.936523,12.015625 L107.936523,12.015625 L107.936523,16 L109.706055,16 L109.706055,12.0273438 C109.706055,11.1601562 109.521484,10.5292969 109.152344,10.1347656 C108.783203,9.74023438 108.266602,9.54296875 107.602539,9.54296875 C107.266602,9.54296875 106.957031,9.61132812 106.673828,9.74804688 C106.390625,9.88476562 106.143555,10.0820312 105.932617,10.3398438 L105.932617,10.3398438 L105.932617,7 L104.163086,7 L104.163086,16 L105.932617,16 Z M112.829102,16.1171875 C113.485352,16.1171875 114.014648,15.8886719 114.416992,15.4316406 C114.452148,15.6582031 114.508789,15.8476562 114.586914,16 L114.586914,16 L116.362305,16 L116.362305,15.9003906 C116.276367,15.7285156 116.211914,15.53125 116.168945,15.3085938 C116.125977,15.0859375 116.104492,14.7949219 116.104492,14.4355469 L116.104492,14.4355469 L116.104492,11.78125 C116.104492,11.296875 115.995117,10.8867188 115.776367,10.5507812 C115.557617,10.2148438 115.254883,9.96289062 114.868164,9.79492188 C114.481445,9.62695312 114.038086,9.54296875 113.538086,9.54296875 C112.999023,9.54296875 112.523438,9.6328125 112.111328,9.8125 C111.699219,9.9921875 111.380859,10.2363281 111.15625,10.5449219 C110.931641,10.8535156 110.819336,11.1972656 110.819336,11.5761719 L110.819336,11.5761719 L112.588867,11.5761719 C112.588867,11.3417969 112.664062,11.1611328 112.814453,11.0341797 C112.964844,10.9072266 113.174805,10.84375 113.444336,10.84375 C113.741211,10.84375 113.963867,10.9248047 114.112305,11.0869141 C114.260742,11.2490234 114.334961,11.4765625 114.334961,11.7695312 L114.334961,11.7695312 L114.334961,12.1269531 L113.614258,12.1269531 C112.649414,12.1269531 111.918945,12.3076172 111.422852,12.6689453 C110.926758,13.0302734 110.678711,13.5449219 110.678711,14.2128906 C110.678711,14.5761719 110.773438,14.9023438 110.962891,15.1914062 C111.152344,15.4804688 111.411133,15.7070312 111.739258,15.8710938 C112.067383,16.0351562 112.430664,16.1171875 112.829102,16.1171875 Z M113.227539,14.7753906 C112.989258,14.7753906 112.798828,14.7128906 112.65625,14.5878906 C112.513672,14.4628906 112.442383,14.3007812 112.442383,14.1015625 C112.442383,13.8164062 112.542969,13.5849609 112.744141,13.4072266 C112.945312,13.2294922 113.250977,13.140625 113.661133,13.140625 L113.661133,13.140625 L114.334961,13.140625 L114.334961,14.2011719 C114.245117,14.3613281 114.102539,14.4970703 113.907227,14.6083984 C113.711914,14.7197266 113.485352,14.7753906 113.227539,14.7753906 Z M119.78418,16.1171875 C120.323242,16.1171875 120.796875,16.0332031 121.205078,15.8652344 C121.613281,15.6972656 121.927734,15.4658203 122.148438,15.1708984 C122.369141,14.8759766 122.479492,14.5429688 122.479492,14.171875 C122.479492,13.7617188 122.376953,13.4238281 122.171875,13.1582031 C121.966797,12.8925781 121.69043,12.6845703 121.342773,12.5341797 C120.995117,12.3837891 120.571289,12.2617188 120.071289,12.1679688 C119.65332,12.0898438 119.357422,11.9941406 119.183594,11.8808594 C119.009766,11.7675781 118.922852,11.6191406 118.922852,11.4355469 C118.922852,11.2441406 119,11.0878906 119.154297,10.9667969 C119.308594,10.8457031 119.514648,10.7851562 119.772461,10.7851562 C120.084961,10.7851562 120.317383,10.8564453 120.469727,10.9990234 C120.62207,11.1416016 120.698242,11.3398438 120.698242,11.59375 L120.698242,11.59375 L122.467773,11.59375 C122.467773,11.1953125 122.358398,10.8408203 122.139648,10.5302734 C121.920898,10.2197266 121.608398,9.97753906 121.202148,9.80371094 C120.795898,9.62988281 120.321289,9.54296875 119.77832,9.54296875 C119.262695,9.54296875 118.811523,9.6328125 118.424805,9.8125 C118.038086,9.9921875 117.742188,10.2324219 117.537109,10.5332031 C117.332031,10.8339844 117.229492,11.1640625 117.229492,11.5234375 C117.229492,12.4960938 117.979492,13.1425781 119.479492,13.4628906 C119.819336,13.5371094 120.082031,13.6113281 120.267578,13.6855469 C120.453125,13.7597656 120.582031,13.8388672 120.654297,13.9228516 C120.726562,14.0068359 120.762695,14.109375 120.762695,14.2304688 C120.762695,14.4257812 120.681641,14.5810547 120.519531,14.6962891 C120.357422,14.8115234 120.125977,14.8691406 119.825195,14.8691406 C119.500977,14.8691406 119.235352,14.7958984 119.02832,14.6494141 C118.821289,14.5029297 118.711914,14.2773438 118.700195,13.9726562 L118.700195,13.9726562 L117.030273,13.9726562 C117.030273,14.328125 117.138672,14.6699219 117.355469,14.9980469 C117.572266,15.3261719 117.888672,15.5947266 118.304688,15.8037109 C118.720703,16.0126953 119.213867,16.1171875 119.78418,16.1171875 Z M126.487305,16.1171875 C127.061523,16.1171875 127.5625,16.0078125 127.990234,15.7890625 C128.417969,15.5703125 128.743164,15.3007812 128.96582,14.9804688 L128.96582,14.9804688 L128.116211,14.0019531 C127.932617,14.2324219 127.710938,14.4052734 127.451172,14.5205078 C127.191406,14.6357422 126.90918,14.6933594 126.604492,14.6933594 C126.194336,14.6933594 125.858398,14.5771484 125.59668,14.3447266 C125.334961,14.1123047 125.170898,13.7988281 125.104492,13.4042969 L125.104492,13.4042969 L129.112305,13.4042969 L129.112305,12.6542969 C129.112305,12.0214844 129.00293,11.4716797 128.78418,11.0048828 C128.56543,10.5380859 128.245117,10.1777344 127.823242,9.92382812 C127.401367,9.66992188 126.891602,9.54296875 126.293945,9.54296875 C125.680664,9.54296875 125.149414,9.68261719 124.700195,9.96191406 C124.250977,10.2412109 123.907227,10.6289062 123.668945,11.125 C123.430664,11.6210938 123.311523,12.1855469 123.311523,12.8183594 L123.311523,12.8183594 L123.311523,13.0410156 C123.311523,13.6074219 123.439453,14.125 123.695312,14.59375 C123.951172,15.0625 124.318359,15.4335938 124.796875,15.7070312 C125.275391,15.9804688 125.838867,16.1171875 126.487305,16.1171875 Z M127.37793,12.2207031 L125.12207,12.2207031 C125.180664,11.8300781 125.304688,11.5234375 125.494141,11.3007812 C125.683594,11.078125 125.946289,10.9667969 126.282227,10.9667969 C126.641602,10.9667969 126.912109,11.0664062 127.09375,11.265625 C127.275391,11.4648438 127.370117,11.7363281 127.37793,12.0800781 L127.37793,12.0800781 L127.37793,12.2207031 Z" transform="translate(80 84)"/>
    <g transform="translate(26 134)">
      <g transform="translate(0 36)">
        <g transform="translate(218)">
          <circle cx="15" cy="15" r="15" fill="#F5F7FA"/>
          <path fill="#434D5A" fill-rule="nonzero" stroke="#434D5A" stroke-width=".2" d="M14.4454148,8.54135472 C14.7878605,8.35297895 15.2124086,8.35302869 15.5547325,8.54147456 C15.7355749,8.64102648 15.8785532,8.78474887 15.9724838,8.95270342 L15.9724838,8.95270342 L16.0955438,13.9000132 L20.5858798,13.900619 C20.8681362,13.907016 21.122509,14.0327349 21.3061471,14.2329275 C21.4875547,14.4306883 21.5997449,14.7012712 21.6,14.9995036 C21.6002538,15.2977396 21.4885228,15.5684987 21.3074507,15.7665423 C21.1241516,15.9670217 20.8699901,16.0931371 20.5852981,16.1 L20.5852981,16.1 L16.0999865,16.0990218 L16.099381,20.5858798 C16.092984,20.8681362 15.9672651,21.122509 15.7670725,21.3061471 C15.5693117,21.4875547 15.2987288,21.5997449 15.0004964,21.6 C14.7022604,21.6002538 14.4315013,21.4885228 14.2334577,21.3074507 C14.0329783,21.1241516 13.9068629,20.8699901 13.9,20.5853199 L13.9,20.5853199 L13.9,16.0980285 L9.4409087,16.0992987 C8.75659248,15.8678184 8.63421836,15.7234007 8.54135472,15.5545852 C8.35297895,15.2121395 8.35302869,14.7875914 8.54147456,14.4452675 C8.64102466,14.2644284 8.7847436,14.121452 8.95269419,14.0275214 L8.95269419,14.0275214 L13.9009937,13.9034756 L13.900705,9.44089795 C14.1321831,8.7565912 14.2766002,8.63421787 14.4454148,8.54135472 Z"/>
        </g>
        <circle cx="15" cy="15" r="15" fill="#F5F7FA"/>
        <path fill="#434D5A" fill-rule="nonzero" stroke="#434D5A" stroke-width=".2" d="M20.5858798,13.900619 C20.8681362,13.907016 21.122509,14.0327349 21.3061471,14.2329275 C21.4875547,14.4306883 21.5997449,14.7012712 21.6,14.9995036 C21.6002538,15.2977396 21.4885228,15.5684987 21.3074507,15.7665423 C21.1241516,15.9670217 20.8699901,16.0931371 20.5853187,16.1 L20.5853187,16.1 L15.9439684,16.0999443 L14.0718559,16.0988338 L9.44089966,16.0992956 C8.7565914,15.8678171 8.63421795,15.7234 8.54135472,15.5545852 C8.35297895,15.2121395 8.35302869,14.7875914 8.54147456,14.4452675 C8.64102743,14.2644233 8.78475161,14.1214441 8.95270823,14.0275135 L8.95270823,14.0275135 L14.0551542,13.9011105 L15.9274081,13.9 Z"/>
      </g>
      <g fill-rule="nonzero" transform="translate(57)">
        <use fill="#000" xlink:href="#amount-continue-discount-c"/>
        <use fill="#303133" xlink:href="#amount-continue-discount-c"/>
        <g opacity=".249">
          <use fill="#000" xlink:href="#amount-continue-discount-d"/>
          <use fill="#262E40" xlink:href="#amount-continue-discount-d"/>
        </g>
        <path fill="#434D5A" d="M41.9375,104.242188 L41.9375,103.099609 C42.6523438,103.021484 43.2138672,102.780273 43.6220703,102.375977 C44.0302734,101.97168 44.234375,101.431641 44.234375,100.755859 C44.234375,100.287109 44.1386719,99.8896484 43.9472656,99.5634766 C43.7558594,99.2373047 43.484375,98.9628906 43.1328125,98.7402344 C42.78125,98.5175781 42.3300781,98.3066406 41.7792969,98.1074219 C41.4199219,97.9746094 41.1386719,97.8427734 40.9355469,97.7119141 C40.7324219,97.5810547 40.5869141,97.4365234 40.4990234,97.2783203 C40.4111328,97.1201172 40.3671875,96.9296875 40.3671875,96.7070312 C40.3671875,96.3515625 40.4648438,96.0693359 40.6601562,95.8603516 C40.8554688,95.6513672 41.1484375,95.546875 41.5390625,95.546875 C41.9179688,95.546875 42.2138672,95.6855469 42.4267578,95.9628906 C42.6396484,96.2402344 42.7460938,96.6230469 42.7460938,97.1113281 L42.7460938,97.1113281 L44.2050781,97.1113281 C44.2050781,96.3300781 44.015625,95.703125 43.6367188,95.2304688 C43.2578125,94.7578125 42.7324219,94.4746094 42.0605469,94.3808594 L42.0605469,94.3808594 L42.0605469,93.0917969 L41.1230469,93.0917969 L41.1230469,94.3691406 C40.6777344,94.4199219 40.2890625,94.546875 39.9570312,94.75 C39.625,94.953125 39.3681641,95.2226562 39.1865234,95.5585938 C39.0048828,95.8945312 38.9140625,96.2792969 38.9140625,96.7128906 C38.9140625,97.1855469 39.0126953,97.5859375 39.2099609,97.9140625 C39.4072266,98.2421875 39.6835938,98.5175781 40.0390625,98.7402344 C40.3945312,98.9628906 40.8457031,99.1679688 41.3925781,99.3554688 C41.8964844,99.53125 42.2539062,99.7275391 42.4648438,99.9443359 C42.6757812,100.161133 42.78125,100.435547 42.78125,100.767578 C42.78125,101.123047 42.6650391,101.404297 42.4326172,101.611328 C42.2001953,101.818359 41.8710938,101.921875 41.4453125,101.921875 C41.0507812,101.921875 40.71875,101.803711 40.4492188,101.567383 C40.1796875,101.331055 40.0449219,100.939453 40.0449219,100.392578 L40.0449219,100.392578 L38.5859375,100.392578 C38.5859375,100.974609 38.6962891,101.459961 38.9169922,101.848633 C39.1376953,102.237305 39.4296875,102.53125 39.7929688,102.730469 C40.15625,102.929688 40.5605469,103.052734 41.0058594,103.099609 L41.0058594,103.099609 L41.0058594,104.242188 L41.9375,104.242188 Z M49.3554688,103 L49.3554688,94.4394531 L49.1738281,94.4394531 L45.8164062,95.6699219 L45.8164062,96.8886719 L47.8964844,96.1914062 L47.8964844,103 L49.3554688,103 Z M58.203125,99.953125 L58.203125,98.78125 L55.1035156,98.78125 L55.1035156,99.953125 L58.203125,99.953125 Z M65.6152344,104.242188 L65.6152344,103.099609 C66.3300781,103.021484 66.8916016,102.780273 67.2998047,102.375977 C67.7080078,101.97168 67.9121094,101.431641 67.9121094,100.755859 C67.9121094,100.287109 67.8164062,99.8896484 67.625,99.5634766 C67.4335938,99.2373047 67.1621094,98.9628906 66.8105469,98.7402344 C66.4589844,98.5175781 66.0078125,98.3066406 65.4570312,98.1074219 C65.0976562,97.9746094 64.8164062,97.8427734 64.6132812,97.7119141 C64.4101562,97.5810547 64.2646484,97.4365234 64.1767578,97.2783203 C64.0888672,97.1201172 64.0449219,96.9296875 64.0449219,96.7070312 C64.0449219,96.3515625 64.1425781,96.0693359 64.3378906,95.8603516 C64.5332031,95.6513672 64.8261719,95.546875 65.2167969,95.546875 C65.5957031,95.546875 65.8916016,95.6855469 66.1044922,95.9628906 C66.3173828,96.2402344 66.4238281,96.6230469 66.4238281,97.1113281 L66.4238281,97.1113281 L67.8828125,97.1113281 C67.8828125,96.3300781 67.6933594,95.703125 67.3144531,95.2304688 C66.9355469,94.7578125 66.4101562,94.4746094 65.7382812,94.3808594 L65.7382812,94.3808594 L65.7382812,93.0917969 L64.8007812,93.0917969 L64.8007812,94.3691406 C64.3554688,94.4199219 63.9667969,94.546875 63.6347656,94.75 C63.3027344,94.953125 63.0458984,95.2226562 62.8642578,95.5585938 C62.6826172,95.8945312 62.5917969,96.2792969 62.5917969,96.7128906 C62.5917969,97.1855469 62.6904297,97.5859375 62.8876953,97.9140625 C63.0849609,98.2421875 63.3613281,98.5175781 63.7167969,98.7402344 C64.0722656,98.9628906 64.5234375,99.1679688 65.0703125,99.3554688 C65.5742188,99.53125 65.9316406,99.7275391 66.1425781,99.9443359 C66.3535156,100.161133 66.4589844,100.435547 66.4589844,100.767578 C66.4589844,101.123047 66.3427734,101.404297 66.1103516,101.611328 C65.8779297,101.818359 65.5488281,101.921875 65.1230469,101.921875 C64.7285156,101.921875 64.3964844,101.803711 64.1269531,101.567383 C63.8574219,101.331055 63.7226562,100.939453 63.7226562,100.392578 L63.7226562,100.392578 L62.2636719,100.392578 C62.2636719,100.974609 62.3740234,101.459961 62.5947266,101.848633 C62.8154297,102.237305 63.1074219,102.53125 63.4707031,102.730469 C63.8339844,102.929688 64.2382812,103.052734 64.6835938,103.099609 L64.6835938,103.099609 L64.6835938,104.242188 L65.6152344,104.242188 Z M74.8964844,103 L74.8964844,101.828125 L70.9707031,101.828125 L72.8222656,99.8476562 C73.3925781,99.25 73.8261719,98.7021484 74.1230469,98.2041016 C74.4199219,97.7060547 74.5683594,97.2070312 74.5683594,96.7070312 C74.5683594,96.2265625 74.4628906,95.8095703 74.2519531,95.4560547 C74.0410156,95.1025391 73.734375,94.8300781 73.3320312,94.6386719 C72.9296875,94.4472656 72.4453125,94.3515625 71.8789062,94.3515625 C71.28125,94.3515625 70.7636719,94.4726562 70.3261719,94.7148438 C69.8886719,94.9570312 69.5546875,95.2851562 69.3242188,95.6992188 C69.09375,96.1132812 68.9785156,96.5722656 68.9785156,97.0761719 L68.9785156,97.0761719 L70.4375,97.0761719 C70.4375,96.6074219 70.5595703,96.2314453 70.8037109,95.9482422 C71.0478516,95.6650391 71.4003906,95.5234375 71.8613281,95.5234375 C72.2519531,95.5234375 72.5576172,95.6464844 72.7783203,95.8925781 C72.9990234,96.1386719 73.109375,96.4609375 73.109375,96.859375 C73.109375,97.0546875 73.0732422,97.25 73.0009766,97.4453125 C72.9287109,97.640625 72.8066406,97.8603516 72.6347656,98.1044922 C72.4628906,98.3486328 72.2246094,98.640625 71.9199219,98.9804688 L71.9199219,98.9804688 L69.1425781,101.992188 L69.1425781,103 L74.8964844,103 Z M78.7636719,103.117188 C80.6269531,103.117188 81.5585938,101.882812 81.5585938,99.4140625 L81.5585938,99.4140625 L81.5585938,98.0195312 C81.5585938,96.734375 81.3134766,95.8017578 80.8232422,95.2216797 C80.3330078,94.6416016 79.6425781,94.3515625 78.7519531,94.3515625 C77.8613281,94.3515625 77.171875,94.6416016 76.6835938,95.2216797 C76.1953125,95.8017578 75.9511719,96.734375 75.9511719,98.0195312 L75.9511719,98.0195312 L75.9511719,99.4140625 C75.9511719,100.703125 76.1982422,101.642578 76.6923828,102.232422 C77.1865234,102.822266 77.8769531,103.117188 78.7636719,103.117188 Z M78.7636719,101.945312 C78.3183594,101.945312 77.9814453,101.762695 77.7529297,101.397461 C77.5244141,101.032227 77.4101562,100.439453 77.4101562,99.6191406 L77.4101562,99.6191406 L77.4101562,97.8027344 C77.4101562,96.9824219 77.5224609,96.3974609 77.7470703,96.0478516 C77.9716797,95.6982422 78.3066406,95.5234375 78.7519531,95.5234375 C79.2050781,95.5234375 79.5429688,95.6982422 79.765625,96.0478516 C79.9882812,96.3974609 80.0996094,96.9824219 80.0996094,97.8027344 L80.0996094,97.8027344 L80.0996094,99.6191406 C80.0996094,100.447266 79.9892578,101.041992 79.7685547,101.40332 C79.5478516,101.764648 79.2128906,101.945312 78.7636719,101.945312 Z M85.5957031,103.117188 C87.4589844,103.117188 88.390625,101.882812 88.390625,99.4140625 L88.390625,99.4140625 L88.390625,98.0195312 C88.390625,96.734375 88.1455078,95.8017578 87.6552734,95.2216797 C87.1650391,94.6416016 86.4746094,94.3515625 85.5839844,94.3515625 C84.6933594,94.3515625 84.0039062,94.6416016 83.515625,95.2216797 C83.0273438,95.8017578 82.7832031,96.734375 82.7832031,98.0195312 L82.7832031,98.0195312 L82.7832031,99.4140625 C82.7832031,100.703125 83.0302734,101.642578 83.5244141,102.232422 C84.0185547,102.822266 84.7089844,103.117188 85.5957031,103.117188 Z M85.5957031,101.945312 C85.1503906,101.945312 84.8134766,101.762695 84.5849609,101.397461 C84.3564453,101.032227 84.2421875,100.439453 84.2421875,99.6191406 L84.2421875,99.6191406 L84.2421875,97.8027344 C84.2421875,96.9824219 84.3544922,96.3974609 84.5791016,96.0478516 C84.8037109,95.6982422 85.1386719,95.5234375 85.5839844,95.5234375 C86.0371094,95.5234375 86.375,95.6982422 86.5976562,96.0478516 C86.8203125,96.3974609 86.9316406,96.9824219 86.9316406,97.8027344 L86.9316406,97.8027344 L86.9316406,99.6191406 C86.9316406,100.447266 86.8212891,101.041992 86.6005859,101.40332 C86.3798828,101.764648 86.0449219,101.945312 85.5957031,101.945312 Z M92.4277344,103.117188 C94.2910156,103.117188 95.2226562,101.882812 95.2226562,99.4140625 L95.2226562,99.4140625 L95.2226562,98.0195312 C95.2226562,96.734375 94.9775391,95.8017578 94.4873047,95.2216797 C93.9970703,94.6416016 93.3066406,94.3515625 92.4160156,94.3515625 C91.5253906,94.3515625 90.8359375,94.6416016 90.3476562,95.2216797 C89.859375,95.8017578 89.6152344,96.734375 89.6152344,98.0195312 L89.6152344,98.0195312 L89.6152344,99.4140625 C89.6152344,100.703125 89.8623047,101.642578 90.3564453,102.232422 C90.8505859,102.822266 91.5410156,103.117188 92.4277344,103.117188 Z M92.4277344,101.945312 C91.9824219,101.945312 91.6455078,101.762695 91.4169922,101.397461 C91.1884766,101.032227 91.0742188,100.439453 91.0742188,99.6191406 L91.0742188,99.6191406 L91.0742188,97.8027344 C91.0742188,96.9824219 91.1865234,96.3974609 91.4111328,96.0478516 C91.6357422,95.6982422 91.9707031,95.5234375 92.4160156,95.5234375 C92.8691406,95.5234375 93.2070312,95.6982422 93.4296875,96.0478516 C93.6523438,96.3974609 93.7636719,96.9824219 93.7636719,97.8027344 L93.7636719,97.8027344 L93.7636719,99.6191406 C93.7636719,100.447266 93.6533203,101.041992 93.4326172,101.40332 C93.2119141,101.764648 92.8769531,101.945312 92.4277344,101.945312 Z" opacity=".75"/>
      </g>
    </g>
    <g transform="translate(14 288)">
      <rect width="272" height="48" fill="#4F6EF7" rx="8"/>
      <path fill="#FFF" fill-rule="nonzero" d="M109.396587,29.15625 C110.308046,29.15625 111.102316,28.9895833 111.7794,28.65625 C112.456483,28.3229167 112.983827,27.8567708 113.361431,27.2578125 C113.739035,26.6588542 113.953879,25.96875 114.005962,25.1875 L114.005962,25.1875 L111.56065,25.1875 C111.513775,25.8541667 111.31716,26.3476562 110.970806,26.6679688 C110.624452,26.9882812 110.099712,27.1484375 109.396587,27.1484375 C108.854921,27.1484375 108.420025,27.0234375 108.0919,26.7734375 C107.763775,26.5234375 107.524191,26.1445312 107.37315,25.6367188 C107.222108,25.1289062 107.146587,24.4713542 107.146587,23.6640625 L107.146587,23.6640625 L107.146587,22.953125 C107.146587,21.7552083 107.331483,20.875 107.701275,20.3125 C108.071066,19.75 108.638775,19.46875 109.4044,19.46875 C110.138775,19.46875 110.671327,19.6367188 111.002056,19.9726562 C111.332785,20.3085938 111.521587,20.8203125 111.568462,21.5078125 L111.568462,21.5078125 L114.013775,21.5078125 C113.940858,20.7109375 113.720806,20.0091146 113.353618,19.4023438 C112.986431,18.7955729 112.469504,18.3203125 111.802837,17.9765625 C111.136171,17.6328125 110.336691,17.4609375 109.4044,17.4609375 C108.451275,17.4609375 107.617941,17.6848958 106.9044,18.1328125 C106.190858,18.5807292 105.638775,19.2200521 105.24815,20.0507812 C104.857525,20.8815104 104.662212,21.8541667 104.662212,22.96875 L104.662212,22.96875 L104.662212,23.6640625 C104.662212,24.7838542 104.851014,25.7565104 105.228618,26.5820312 C105.606223,27.4075521 106.151796,28.0429688 106.865337,28.4882812 C107.578879,28.9335938 108.422629,29.15625 109.396587,29.15625 Z M119.0294,29.15625 C119.867941,29.15625 120.589296,28.9713542 121.193462,28.6015625 C121.797629,28.2317708 122.257264,27.7226562 122.572368,27.0742188 C122.887473,26.4257812 123.045025,25.6875 123.045025,24.859375 L123.045025,24.859375 L123.045025,24.6953125 C123.045025,23.8671875 122.887473,23.1276042 122.572368,22.4765625 C122.257264,21.8255208 121.796327,21.3151042 121.189556,20.9453125 C120.582785,20.5755208 119.857525,20.390625 119.013775,20.390625 C118.175233,20.390625 117.453879,20.5755208 116.849712,20.9453125 C116.245546,21.3151042 115.78591,21.8255208 115.470806,22.4765625 C115.155702,23.1276042 114.99815,23.8671875 114.99815,24.6953125 L114.99815,24.6953125 L114.99815,24.859375 C114.99815,25.6875 115.155702,26.4257812 115.470806,27.0742188 C115.78591,27.7226562 116.246848,28.2317708 116.853618,28.6015625 C117.460389,28.9713542 118.18565,29.15625 119.0294,29.15625 Z M119.0294,27.2578125 C118.446066,27.2578125 118.021587,27.0403646 117.755962,26.6054688 C117.490337,26.1705729 117.357525,25.5885417 117.357525,24.859375 L117.357525,24.859375 L117.357525,24.6953125 C117.357525,23.9817708 117.490337,23.4023438 117.755962,22.9570312 C118.021587,22.5117188 118.440858,22.2890625 119.013775,22.2890625 C119.597108,22.2890625 120.021587,22.5104167 120.287212,22.953125 C120.552837,23.3958333 120.68565,23.9765625 120.68565,24.6953125 L120.68565,24.6953125 L120.68565,24.859375 C120.68565,25.5833333 120.552837,26.1640625 120.287212,26.6015625 C120.021587,27.0390625 119.602316,27.2578125 119.0294,27.2578125 Z M126.68565,29 L126.68565,23.046875 C126.826275,22.8072917 127.009868,22.6223958 127.236431,22.4921875 C127.462993,22.3619792 127.729921,22.296875 128.037212,22.296875 C128.485129,22.296875 128.815858,22.3945312 129.0294,22.5898438 C129.242941,22.7851562 129.349712,23.1328125 129.349712,23.6328125 L129.349712,23.6328125 L129.349712,29 L131.709087,29 L131.709087,23.640625 C131.709087,22.4895833 131.477316,21.6601562 131.013775,21.1523438 C130.550233,20.6445312 129.893983,20.390625 129.045025,20.390625 C128.545025,20.390625 128.089296,20.4869792 127.677837,20.6796875 C127.266379,20.8723958 126.912212,21.1536458 126.615337,21.5234375 L126.615337,21.5234375 L126.537212,20.546875 L124.326275,20.546875 L124.326275,29 L126.68565,29 Z M136.287212,29.15625 C136.808046,29.15625 137.271587,29.0833333 137.677837,28.9375 L137.677837,28.9375 L137.677837,27.1640625 C137.495546,27.2005208 137.276796,27.21875 137.021587,27.21875 C136.709087,27.21875 136.487733,27.1575521 136.357525,27.0351562 C136.227316,26.9127604 136.162212,26.6848958 136.162212,26.3515625 L136.162212,26.3515625 L136.162212,22.265625 L137.584087,22.265625 L137.584087,20.546875 L136.162212,20.546875 L136.162212,18.453125 L133.802837,18.453125 L133.802837,20.546875 L132.607525,20.546875 L132.607525,22.265625 L133.802837,22.265625 L133.802837,26.625 C133.802837,28.3125 134.630962,29.15625 136.287212,29.15625 Z M140.084087,19.5703125 C140.479921,19.5703125 140.798931,19.4570312 141.041118,19.2304688 C141.283306,19.0039062 141.4044,18.7135417 141.4044,18.359375 C141.4044,18.0052083 141.283306,17.7148438 141.041118,17.4882812 C140.798931,17.2617188 140.479921,17.1484375 140.084087,17.1484375 C139.693462,17.1484375 139.377056,17.2617188 139.134868,17.4882812 C138.892681,17.7148438 138.771587,18.0052083 138.771587,18.359375 C138.771587,18.7135417 138.892681,19.0039062 139.134868,19.2304688 C139.377056,19.4570312 139.693462,19.5703125 140.084087,19.5703125 Z M141.2794,29 L141.2794,20.546875 L138.912212,20.546875 L138.912212,29 L141.2794,29 Z M145.388775,29 L145.388775,23.046875 C145.5294,22.8072917 145.712993,22.6223958 145.939556,22.4921875 C146.166118,22.3619792 146.433046,22.296875 146.740337,22.296875 C147.188254,22.296875 147.518983,22.3945312 147.732525,22.5898438 C147.946066,22.7851562 148.052837,23.1328125 148.052837,23.6328125 L148.052837,23.6328125 L148.052837,29 L150.412212,29 L150.412212,23.640625 C150.412212,22.4895833 150.180441,21.6601562 149.7169,21.1523438 C149.253358,20.6445312 148.597108,20.390625 147.74815,20.390625 C147.24815,20.390625 146.792421,20.4869792 146.380962,20.6796875 C145.969504,20.8723958 145.615337,21.1536458 145.318462,21.5234375 L145.318462,21.5234375 L145.240337,20.546875 L143.0294,20.546875 L143.0294,29 L145.388775,29 Z M154.826275,29.15625 C155.321066,29.15625 155.761171,29.0664062 156.146587,28.8867188 C156.532004,28.7070312 156.857525,28.4505208 157.12315,28.1171875 L157.12315,28.1171875 L157.18565,29 L159.396587,29 L159.396587,20.546875 L157.037212,20.546875 L157.037212,26.4921875 C156.755962,26.9973958 156.253358,27.25 155.5294,27.25 C155.164816,27.25 154.87966,27.1510417 154.673931,26.953125 C154.468202,26.7552083 154.365337,26.4479167 154.365337,26.03125 L154.365337,26.03125 L154.365337,20.546875 L152.013775,20.546875 L152.013775,26.015625 C152.013775,27.0885417 152.262473,27.8802083 152.759868,28.390625 C153.257264,28.9010417 153.946066,29.15625 154.826275,29.15625 Z M164.982525,29.15625 C165.74815,29.15625 166.416118,29.0104167 166.986431,28.71875 C167.556743,28.4270833 167.990337,28.0677083 168.287212,27.640625 L168.287212,27.640625 L167.1544,26.3359375 C166.909608,26.6432292 166.614035,26.8736979 166.267681,27.0273438 C165.921327,27.1809896 165.545025,27.2578125 165.138775,27.2578125 C164.5919,27.2578125 164.143983,27.1028646 163.795025,26.7929688 C163.446066,26.4830729 163.227316,26.0651042 163.138775,25.5390625 L163.138775,25.5390625 L168.482525,25.5390625 L168.482525,24.5390625 C168.482525,23.6953125 168.336691,22.9622396 168.045025,22.3398438 C167.753358,21.7174479 167.326275,21.2369792 166.763775,20.8984375 C166.201275,20.5598958 165.521587,20.390625 164.724712,20.390625 C163.907004,20.390625 163.198671,20.5768229 162.599712,20.9492188 C162.000754,21.3216146 161.542421,21.8385417 161.224712,22.5 C160.907004,23.1614583 160.74815,23.9140625 160.74815,24.7578125 L160.74815,24.7578125 L160.74815,25.0546875 C160.74815,25.8098958 160.918723,26.5 161.259868,27.125 C161.601014,27.75 162.090598,28.2447917 162.728618,28.609375 C163.366639,28.9739583 164.117941,29.15625 164.982525,29.15625 Z M166.170025,23.9609375 L163.162212,23.9609375 C163.240337,23.4401042 163.405702,23.03125 163.658306,22.734375 C163.91091,22.4375 164.261171,22.2890625 164.709087,22.2890625 C165.188254,22.2890625 165.548931,22.421875 165.791118,22.6875 C166.033306,22.953125 166.159608,23.3151042 166.170025,23.7734375 L166.170025,23.7734375 L166.170025,23.9609375 Z"/>
    </g>
    <use fill="#000" filter="url(#amount-continue-discount-e)" xlink:href="#amount-continue-discount-f"/>
    <use fill="#FFF" xlink:href="#amount-continue-discount-f"/>
    <g transform="translate(241 14)">
      <g transform="translate(27)">
        <circle cx="10" cy="10" r="10" fill="#C9D2E6" opacity=".2"/>
        <path fill="#9BA3AE" fill-rule="nonzero" d="M10.9788242,9.99524148 L13.3763494,12.3887321 C13.6386865,12.6569753 13.636114,13.0859697 13.3705788,13.3510581 C13.1050436,13.6161464 12.675326,13.6187146 12.4066307,13.3568189 L10.0095021,10.964912 L7.61039047,13.3584027 C7.43858394,13.5381037 7.18274819,13.6107901 6.94190762,13.5483277 C6.70106705,13.4858653 6.51301901,13.2980569 6.45054984,13.0575961 C6.38808067,12.8171353 6.46099424,12.5617598 6.64106844,12.3903159 L9.03700721,9.99524148 L6.63948199,7.60175082 C6.4637852,7.42910512 6.39437013,7.17563144 6.45764527,6.93776212 C6.52092041,6.6998928 6.7071583,6.51419616 6.94550599,6.45131923 C7.18385369,6.3884423 7.43766932,6.45805133 7.61039047,6.63366403 L10.0095021,9.02755063 L12.4070274,6.63247619 C12.6763469,6.37473293 13.1026026,6.37905257 13.3666257,6.64220069 C13.6306488,6.9053488 13.6356728,7.33087954 13.3779358,7.60016704 L10.9788242,9.99524148 Z"/>
      </g>
      <circle cx="10" cy="10" r="10" fill="#C9D2E6" opacity=".2"/>
      <path fill="#9BA3AE" fill-rule="nonzero" d="M7.60615758,13.3552246 C7.43435105,13.5349256 7.1785153,13.607612 6.93767473,13.5451496 C6.69683416,13.4826872 6.50878612,13.2948788 6.44631695,13.0544179 C6.38384779,12.8139571 6.45676135,12.5585816 6.63683555,12.3871378 L12.4027945,6.62929804 C12.672114,6.37155478 13.0983697,6.37587442 13.3623928,6.63902254 C13.6264159,6.90217065 13.6314399,7.32770138 13.3737029,7.59698889 L7.60615758,13.3552246 Z" transform="rotate(45 9.994 10.003)"/>
    </g>
    <g transform="translate(17 15)">
      <g fill-rule="nonzero">
        <use fill="#000" xlink:href="#amount-continue-discount-g"/>
        <use fill="#9BA3AE" xlink:href="#amount-continue-discount-g"/>
      </g>
      <polyline stroke="#9BA3AE" stroke-linecap="round" stroke-linejoin="round" stroke-width="2" points=".088 5.732 3.313 8.778 .088 11.824" transform="rotate(180 1.7 8.778)"/>
    </g>
    <path fill="#1A3B8B" fill-rule="nonzero" d="M148.465414,30.8860375 C149.047527,30.8860375 149.596651,30.7428074 150.112409,30.4557736 C150.627978,30.1689311 151.073423,29.7847533 151.4478,29.303814 C151.821988,28.8226835 152.117192,28.2784476 152.333599,27.6709151 C152.549629,27.0633826 152.658022,26.4304168 152.658022,25.7720175 C152.658022,24.9619742 152.524746,24.3290084 152.258761,23.8735024 C151.9924,23.417614 151.439128,23.2093663 150.724117,23.2093663 C150.490933,23.2093663 150.249831,23.2321225 149.875454,23.3164542 C149.501077,23.4011684 149.178163,23.5763335 148.878812,23.8461568 L147.251611,30.7908057 C147.732872,30.8762848 147.899513,30.8860375 148.016199,30.8860375 L148.465414,30.8860375 L148.465414,30.8860375 Z M151.709638,20.0506564 C152.508346,20.0506564 153.198474,20.1942689 153.781153,20.4811114 C154.363265,20.7681452 154.845658,21.1561475 155.228517,21.6455009 C155.611,22.1352367 155.893762,22.7087305 156.076992,23.3671298 C156.259845,24.0253378 156.351648,24.7342213 156.351648,25.4935891 C156.351648,26.6581697 156.139577,27.7594538 155.715245,28.7974414 C155.290914,29.8354289 154.712759,30.7384092 153.980783,31.5063822 C153.248429,32.2745465 152.383554,32.8820791 151.385215,33.3289797 C150.387065,33.7760716 149.305406,34 148.140992,34 C147.991316,34 147.72929,33.9956018 147.354913,33.9873789 C146.980536,33.9785824 146.551869,33.9407192 146.069477,33.8734068 C145.586896,33.805712 145.075285,33.7045521 144.534833,33.5695449 C143.993814,33.434729 143.482392,33.2492374 143,33.0126879 L147.3174,14.6075325 L151.185774,14 L149.65735,20.5229904 C149.989879,20.3711551 150.303556,20.2619637 150.63665,20.1772495 C150.969178,20.0929179 151.326778,20.0506564 151.709638,20.0506564 L151.709638,20.0506564 Z"/>
  </g>
</svg>
