<svg xmlns="http://www.w3.org/2000/svg" xmlns:xlink="http://www.w3.org/1999/xlink" width="1680" height="1050" viewBox="0 0 1680 1050"><defs><style>.a,.ad,.ah,.an,.b,.c,.g{fill:none;}.a{clip-rule:evenodd;}.c{fill-rule:evenodd;}.d{clip-path:url(#v);}.aa,.ae,.e,.w{fill:#fff;}.f{font-size:24px;}.af,.ao,.f,.v{font-family:Heebo-Medium, Heebo;font-weight:500;}.g,.w{stroke:#d5dade;}.h{clip-path:url(#c);}.i{clip-path:url(#d);}.j{clip-path:url(#e);}.k{clip-path:url(#f);}.l{fill:#d7d7d7;}.m{clip-path:url(#g);}.n{clip-path:url(#i);}.o{clip-path:url(#j);}.p{clip-path:url(#n);}.q{clip-path:url(#o);}.r{clip-path:url(#p);}.s{fill:url(#q);}.t{fill:url(#r);}.u{clip-path:url(#s);}.ai,.v{fill:#73808c;}.v{font-size:12px;}.ab,.af,.ag,.v,.x{letter-spacing:0.002em;}.af,.ag,.x{fill:#434d5a;}.af,.x{font-size:14px;}.ab,.ag,.x{font-family:Heebo-Regular, Heebo;}.ag,.x{opacity:0.5;}.ab,.y{fill:#74818d;}.ac,.z{fill:#4f6ef7;}.aa{font-size:16px;font-family:Heebo-Bold, Heebo;font-weight:700;}.ab{font-size:11.65px;}.ad{stroke:#fff;stroke-linecap:round;stroke-linejoin:round;stroke-miterlimit:10;stroke-width:1.75px;}.ae,.ah,.an{stroke:#4f6ef7;}.ag{font-size:10px;}.aj{fill:#f0f0f0;}.ak{fill:#d80027;}.al{fill:#0052b4;}.am{fill:#e7e7e7;}.an{stroke-width:2px;}.ao{fill:#4e6df7;font-size:18px;}.ap{fill:#1a3b8b;}.aq,.ar{stroke:none;}.ar{fill:#4f6ef7;}.as{fill:#f6f7fc;}.at{filter:url(#a);}</style><filter id="a" x="590.5" y="160" width="498" height="730" filterUnits="userSpaceOnUse"><feOffset input="SourceAlpha"/><feGaussianBlur stdDeviation="7" result="b"/><feFlood flood-opacity="0.051"/><feComposite operator="in" in2="b"/><feComposite in="SourceGraphic"/></filter><clipPath id="c"><path class="a" d="M20,0A20,20,0,0,0,40-20,20,20,0,0,0,20-40,20,20,0,0,0,0-20,20,20,0,0,0,20,0Z" transform="translate(0 40)"/></clipPath><clipPath id="d"><path class="b" d="M-55,911H1385V-113H-55Z" transform="translate(55 113)"/></clipPath><clipPath id="e"><rect class="b" width="50" height="50"/></clipPath><clipPath id="f"><path class="b" d="M0,0H40V-40H0Z" transform="translate(0 40)"/></clipPath><clipPath id="g"><path class="a" d="M0-40H40V0H0Z" transform="translate(0 40)"/></clipPath><clipPath id="i"><rect class="b" width="86" height="79"/></clipPath><clipPath id="j"><path class="a" d="M-39.847,19.576-40-47.733c20.542.055,84.927-5.752,85.017,33.846C45.125,24.078-19.309,19.6-39.847,19.576Z" transform="translate(39.999 48.003)"/></clipPath><clipPath id="n"><rect class="b" width="107.653" height="95.999"/></clipPath><clipPath id="o"><path class="b" d="M-55.656-43.829,33.612-66.086,52,7.656-37.27,29.913Z" transform="translate(55.656 66.086)"/></clipPath><clipPath id="p"><rect class="b" width="92" height="76"/></clipPath><pattern id="q" width="1" height="1" patternTransform="matrix(1, 0, 0, -1, 0, 152)" viewBox="0 0 92 76"><image preserveAspectRatio="none" width="92" height="76"/></pattern><linearGradient id="r" x1="0.047" y1="-0.354" x2="0.268" y2="0.891" gradientUnits="objectBoundingBox"><stop offset="0" stop-color="#1a38bd"/><stop offset="0.1" stop-color="#1834b0"/><stop offset="0.2" stop-color="#152fa2"/><stop offset="0.3" stop-color="#132b95"/><stop offset="0.4" stop-color="#112688"/><stop offset="0.5" stop-color="#0f227b"/><stop offset="0.6" stop-color="#0c1e6d"/><stop offset="0.7" stop-color="#0a1960"/><stop offset="0.8" stop-color="#081553"/><stop offset="0.9" stop-color="#051045"/><stop offset="1" stop-color="#030c38"/></linearGradient><clipPath id="s"><path class="a" d="M18.7-11.659a4.04,4.04,0,0,0,2-.521,5.3,5.3,0,0,0,1.618-1.4,7.047,7.047,0,0,0,1.073-1.978,6.814,6.814,0,0,0,.393-2.3,4.58,4.58,0,0,0-.484-2.3,2.01,2.01,0,0,0-1.859-.8,4.414,4.414,0,0,0-1.028.13,2.634,2.634,0,0,0-1.207.642L17.23-11.774a5.247,5.247,0,0,0,.926.115Zm3.93-13.125a5.623,5.623,0,0,1,2.509.521,5,5,0,0,1,1.753,1.41,5.927,5.927,0,0,1,1.028,2.085,9.591,9.591,0,0,1,.333,2.576,10.473,10.473,0,0,1-.771,4,10.413,10.413,0,0,1-2.1,3.281A9.862,9.862,0,0,1,22.237-8.7a9.5,9.5,0,0,1-3.93.813q-.272,0-.952-.015A13.754,13.754,0,0,1,15.8-8.04a18.022,18.022,0,0,1-1.859-.368,9.335,9.335,0,0,1-1.859-.675l5.23-22.294L22-32.113l-1.851,7.9a6.872,6.872,0,0,1,1.186-.419A5.274,5.274,0,0,1,22.63-24.784Z" transform="translate(-12.08 32.113)"/></clipPath><clipPath id="v"><rect width="1680" height="1050"/></clipPath></defs><g id="u" class="d"><rect class="as" width="1680" height="1050"/><g transform="translate(0 -66)"><g class="at" transform="matrix(1, 0, 0, 1, 0, 66)"><path class="e" d="M4.957,0H451.043C453.781,0,456,3.236,456,7.227V680.773c0,3.991-2.219,7.227-4.957,7.227H4.957C2.219,688,0,684.764,0,680.773V7.227C0,3.236,2.219,0,4.957,0Z" transform="translate(611.5 181)"/></g><text class="f" transform="translate(635.5 302)"><tspan x="0" y="0">Sign Up for BitPay</tspan></text><line class="g" x2="460" transform="translate(610 342)"/><g transform="translate(995.5 314.5)"><g class="h" transform="translate(0 -40)"><g class="i" transform="translate(-55 -73)"><g class="j" transform="translate(50 68)"><g class="k" transform="translate(5 5)"><path class="l" d="M-5-45H45V5H-5Z" transform="translate(0 40)"/></g><g class="m" transform="translate(5 5)"><g class="k"><g class="n" transform="translate(-40 -14)"><g class="o" transform="translate(0.001 5.997)"><g class="k" transform="translate(39.999 8.003)"><path d="M-61.717-47.471,36.667-72,57.281,10.678-41.1,35.208Z" transform="translate(0 40)"/></g></g><g class="o" transform="translate(0.001 5.997)"><g class="k" transform="translate(39.999 8.003)"><g transform="translate(-55.656 -26.086)"><g class="p"><g class="q"><g transform="translate(0 22.257) rotate(-14)"><g class="r"><rect class="s" width="92" height="76"/></g></g></g></g></g><g transform="translate(-9.389 2.341) rotate(-14)"><path class="t" d="M9.677,0,48.489,9.677,38.812,48.489,0,38.812Z" transform="translate(0 0)"/></g></g></g><g class="u" transform="translate(52.08 21.887)"><g class="k" transform="translate(-12.08 -7.887)"><path class="e" d="M7.08-37.113H33.253V-2.887H7.08Z" transform="translate(0 40)"/></g></g></g></g></g></g></g></g></g><g transform="translate(635.5 544)"><text class="v" transform="translate(0 13)"><tspan x="0" y="0">EMAIL ADDRESS</tspan></text><g transform="translate(0 23)"><g class="w"><rect class="aq" width="408" height="45" rx="3"/><rect class="b" x="0.5" y="0.5" width="407" height="44" rx="2.5"/></g><text class="x" transform="translate(12 27)"><tspan x="0" y="0">satoshi@bitpay.com</tspan></text></g></g><g transform="translate(635.5 632)"><text class="v" transform="translate(0 13)"><tspan x="0" y="0">PASSWORD</tspan></text><g transform="translate(0 23)"><g class="w"><rect class="aq" width="408" height="45" rx="3"/><rect class="b" x="0.5" y="0.5" width="407" height="44" rx="2.5"/></g><text class="x" transform="translate(12 27)"><tspan x="0" y="0">$trongPassword123</tspan></text><g transform="translate(377 14)"><path class="b" d="M0,0H17V17H0Z"/><path class="y" d="M12.088,12.885a7.243,7.243,0,0,1-3.842,1.093A7.154,7.154,0,0,1,1.181,8.2,7.017,7.017,0,0,1,3.362,4.308L1.319,2.3l.924-.908L15.174,14.1l-.924.908-2.162-2.125Zm-7.8-7.669A5.734,5.734,0,0,0,2.515,8.2a5.8,5.8,0,0,0,3.355,4,5.972,5.972,0,0,0,5.267-.251l-1.324-1.3a2.978,2.978,0,0,1-3.645-.4,2.851,2.851,0,0,1-.409-3.582ZM8.844,9.7,6.727,7.615a1.585,1.585,0,0,0,.365,1.721A1.654,1.654,0,0,0,8.843,9.7ZM14,11.149l-.935-.918a5.687,5.687,0,0,0,.915-2.03,5.788,5.788,0,0,0-2.732-3.684,5.971,5.971,0,0,0-4.6-.592L5.618,2.912a7.287,7.287,0,0,1,2.629-.488A7.154,7.154,0,0,1,15.313,8.2,6.967,6.967,0,0,1,14,11.149ZM8.066,5.318a2.968,2.968,0,0,1,2.259.841,2.861,2.861,0,0,1,.855,2.221L8.065,5.318Z" transform="translate(0.253 0.299)"/></g></g></g><g transform="translate(-0.5 109)"><g transform="translate(422 -132)"><path class="z" d="M4.425,0h399.15C406.019,0,408,1.6,408,3.571V46.429C408,48.4,406.019,50,403.575,50H4.425C1.981,50,0,48.4,0,46.429V3.571C0,1.6,1.981,0,4.425,0Z" transform="translate(214 882)"/><text class="aa" transform="translate(418.382 912)"><tspan x="-55.809" y="0">Create Account</tspan></text></g><g transform="translate(4.5 -28)"><text class="ab" transform="translate(778.5 746)"><tspan x="-118.893" y="0">I agree to the </tspan><tspan class="z" y="0">Terms of Use</tspan><tspan y="0" xml:space="preserve"> and </tspan><tspan class="z" y="0">Privacy Policy</tspan></text><g transform="translate(-0.5 97.5)"><g transform="translate(-39 3)"><g class="ac" transform="translate(675 634)"><path class="aq" d="M 12.57143020629883 15.5 L 3.428570032119751 15.5 C 1.813750028610229 15.5 0.5 14.18624973297119 0.5 12.57143020629883 L 0.5 3.428570032119751 C 0.5 1.813750028610229 1.813750028610229 0.5 3.428570032119751 0.5 L 12.57143020629883 0.5 C 14.18624973297119 0.5 15.5 1.813750028610229 15.5 3.428570032119751 L 15.5 12.57143020629883 C 15.5 14.18624973297119 14.18624973297119 15.5 12.57143020629883 15.5 Z"/><path class="ar" d="M 3.428569793701172 1 C 2.089449882507324 1 1 2.089449882507324 1 3.428569793701172 L 1 12.57143020629883 C 1 13.91055011749268 2.089449882507324 15 3.428569793701172 15 L 12.57143020629883 15 C 13.91055011749268 15 15 13.91055011749268 15 12.57143020629883 L 15 3.428569793701172 C 15 2.089449882507324 13.91055011749268 1 12.57143020629883 1 L 3.428569793701172 1 M 3.428569793701172 0 L 12.57143020629883 0 C 14.46498012542725 0 16 1.535019874572754 16 3.428569793701172 L 16 12.57143020629883 C 16 14.46498012542725 14.46498012542725 16 12.57143020629883 16 L 3.428569793701172 16 C 1.535019874572754 16 0 14.46498012542725 0 12.57143020629883 L 0 3.428569793701172 C 0 1.535019874572754 1.535019874572754 0 3.428569793701172 0 Z"/></g><path class="ad" d="M18.347,15l-3.906,4.394L12,17.441" transform="translate(667.538 624.7)"/></g></g></g></g><g transform="translate(-0.5)"><text class="v" transform="translate(636 377)"><tspan x="0" y="0">FULL NAME</tspan></text><g transform="translate(636 387)"><g class="ae"><rect class="aq" width="408" height="49" rx="3"/><rect class="b" x="0.5" y="0.5" width="407" height="48" rx="2.5"/></g><text class="af" transform="translate(12 36.533)"><tspan x="0" y="0">Satoshi</tspan></text><text class="ag" transform="translate(12 17.5)"><tspan x="0" y="0">First Name</tspan></text><text class="af" transform="translate(216 36.533)"><tspan x="0" y="0">Nakamoto</tspan></text><text class="ag" transform="translate(216 17.5)"><tspan x="0" y="0">Last Name</tspan></text><line class="ah" y2="48" transform="translate(204 0.5)"/></g></g><g transform="translate(635.5 456)"><text class="v" transform="translate(0 13)"><tspan x="0" y="0">DATE OF BIRTH</tspan></text><g transform="translate(0 23)"><g class="w"><rect class="aq" width="124" height="45" rx="3"/><rect class="b" x="0.5" y="0.5" width="123" height="44" rx="2.5"/></g><text class="af" transform="translate(12 27)"><tspan x="0" y="0">September</tspan></text><g transform="translate(104 20)"><path class="ai" d="M11.757,14.343l-4-3.75,1.334-1.25,2.666,2.5,2.666-2.5,1.334,1.25Z" transform="translate(-7.757 -9.343)"/></g><g transform="translate(142)"><g class="w"><rect class="aq" width="124" height="45" rx="3"/><rect class="b" x="0.5" y="0.5" width="123" height="44" rx="2.5"/></g><text class="af" transform="translate(12 27)"><tspan x="0" y="0">27</tspan></text><g transform="translate(104 20)"><path class="ai" d="M11.757,14.343l-4-3.75,1.334-1.25,2.666,2.5,2.666-2.5,1.334,1.25Z" transform="translate(-7.757 -9.343)"/></g></g><g transform="translate(284)"><g class="w"><rect class="aq" width="124" height="45" rx="3"/><rect class="b" x="0.5" y="0.5" width="123" height="44" rx="2.5"/></g><text class="af" transform="translate(12 27)"><tspan x="0" y="0">2049</tspan></text><g transform="translate(104 20)"><path class="ai" d="M11.757,14.343l-4-3.75,1.334-1.25,2.666,2.5,2.666-2.5,1.334,1.25Z" transform="translate(-7.757 -9.343)"/></g></g></g></g><g transform="translate(635.5 720)"><text class="v" transform="translate(0 13)"><tspan x="0" y="0">COUNTRY</tspan></text><g transform="translate(0 23)"><g class="w"><rect class="aq" width="408" height="45" rx="3"/><rect class="b" x="0.5" y="0.5" width="407" height="44" rx="2.5"/></g><text class="af" transform="translate(40 27)"><tspan x="0" y="0">United States</tspan></text><g transform="translate(388 20)"><path class="ai" d="M11.757,14.343l-4-3.75,1.334-1.25,2.666,2.5,2.666-2.5,1.334,1.25Z" transform="translate(-7.757 -9.343)"/></g><g transform="translate(12 13.002)"><circle class="aj" cx="9" cy="9" r="9" transform="translate(0 -0.002)"/><g transform="translate(0.31 1.957)"><path class="ak" d="M244.87,191.565h9.391a9.011,9.011,0,0,0-.31-2.348H244.87Z" transform="translate(-236.571 -184.521)"/><path class="ak" d="M244.87,58h8.07a9.047,9.047,0,0,0-2.077-2.348H244.87Z" transform="translate(-236.571 -55.652)"/><path class="ak" d="M102.246,458.3a8.961,8.961,0,0,0,5.6-1.957h-11.2A8.961,8.961,0,0,0,102.246,458.3Z" transform="translate(-93.556 -442.261)"/><path class="ak" d="M9.83,325.13H25.188a8.945,8.945,0,0,0,1.011-2.348H8.819A8.945,8.945,0,0,0,9.83,325.13Z" transform="translate(-8.819 -313.391)"/></g><path class="al" d="M4.169,1.405h.82l-.763.554.291.9L3.755,2.3l-.763.554.252-.775A9.049,9.049,0,0,0,1.5,4.027h.263l-.486.353q-.113.189-.218.385l.232.714L.857,5.164q-.161.342-.294.7l.255.786h.943L1,7.2l.291.9L.527,7.546.07,7.878A9.087,9.087,0,0,0,0,9H9V0A8.957,8.957,0,0,0,4.169,1.405ZM4.518,8.1l-.763-.554L2.992,8.1l.291-.9L2.52,6.649h.943l.291-.9.291.9h.943L4.226,7.2ZM4.226,4.581l.291.9-.763-.554-.763.554.291-.9L2.52,4.027h.943l.291-.9.291.9h.943ZM7.746,8.1l-.763-.554L6.22,8.1l.291-.9-.763-.554h.943l.291-.9.291.9h.943L7.454,7.2ZM7.454,4.581l.291.9-.763-.554-.763.554.291-.9-.763-.554h.943l.291-.9.291.9h.943Zm0-2.622.291.9L6.983,2.3l-.763.554.291-.9-.763-.554h.943l.291-.9.291.9h.943Z"/></g></g></g></g><rect class="e" width="1680" height="80"/><rect class="am" width="1680" height="3" transform="translate(0 80)"/><rect class="z" width="840" height="3" transform="translate(0 80)"/><g transform="translate(-15845 -1323)"><g class="an" transform="translate(17373 1341)"><rect class="aq" width="119.6" height="44" rx="5"/><rect class="b" x="-1" y="-1" width="121.6" height="46" rx="6"/></g><text class="ao" transform="translate(17432.811 1369)"><tspan x="-45.844" y="0">Get Started</tspan></text></g><text class="ao" transform="translate(1495.811 46)"><tspan x="-55.362" y="0">Sign In</tspan></text><g transform="translate(32 28)"><path class="ap" d="M395.183,104.442h-4.144l-2.4,10.119-.337,1.388c-.231.063-.463.126-.694.168a6.747,6.747,0,0,1-1.325.126,3,3,0,0,1-1.262-.231,1.312,1.312,0,0,1-.652-.652,2.09,2.09,0,0,1-.147-.989,6.743,6.743,0,0,1,.21-1.22l1.262-5.259.82-3.492h-4.228l-1.914,8.078a14.977,14.977,0,0,0-.4,2.777,5.2,5.2,0,0,0,.4,2.335,3.412,3.412,0,0,0,1.536,1.6,6.384,6.384,0,0,0,3.05.589,11.233,11.233,0,0,0,2.377-.231c.021,0,.063-.021.084-.021a3.736,3.736,0,0,1-1.157,2.041,3.973,3.973,0,0,1-2.672.8,9.47,9.47,0,0,1-1.388-.084l-.82,3.429a15.922,15.922,0,0,0,1.83.105,11.888,11.888,0,0,0,3.3-.421,6.806,6.806,0,0,0,2.44-1.3,7.734,7.734,0,0,0,1.7-2.188,12.694,12.694,0,0,0,1.094-3.134l2.861-12.033Z" transform="translate(-315.517 -97.815)"/><path class="ap" d="M321.4,113.167a9.547,9.547,0,0,0-.231,3.177,12.655,12.655,0,0,0,.926,3.513h-4a5.053,5.053,0,0,1-.568-1.473,7.573,7.573,0,0,1-1.725,1.052,5.245,5.245,0,0,1-2.125.421,5.441,5.441,0,0,1-2.377-.484,4.491,4.491,0,0,1-1.62-1.3,5.2,5.2,0,0,1-.9-1.914,9.4,9.4,0,0,1-.273-2.356,9.873,9.873,0,0,1,.673-3.618,9.416,9.416,0,0,1,1.893-2.966,8.107,8.107,0,0,1,5.953-2.714h6.416Zm-2.924-5.154c-1.935,0-2.293,0-3.092.4a4.492,4.492,0,0,0-1.43,1.241,5.962,5.962,0,0,0-.968,1.767,6.373,6.373,0,0,0-.358,2.083,4.372,4.372,0,0,0,.442,2.125,1.707,1.707,0,0,0,1.641.778,2.6,2.6,0,0,0,1.157-.252,4.018,4.018,0,0,0,1.094-.841q.063-.694.189-1.452c.084-.5.189-.989.274-1.409l1.052-4.439" transform="translate(-259.084 -97.894)"/><path class="ap" d="M241.746,110.759a10.222,10.222,0,0,1-.673,3.745,8.612,8.612,0,0,1-1.872,2.924,8.444,8.444,0,0,1-2.861,1.914,9.319,9.319,0,0,1-3.618.694,11.976,11.976,0,0,1-1.914-.168l-1.262,5.07H225.4l4.817-20.237h5.533a6.846,6.846,0,0,1,2.693.484,4.97,4.97,0,0,1,2.945,3.24A6.97,6.97,0,0,1,241.746,110.759ZM231.585,116.5a5.646,5.646,0,0,0,3.177-.295,4.568,4.568,0,0,0,1.536-1.136,5.639,5.639,0,0,0,.989-1.746,6.92,6.92,0,0,0,.358-2.251,3.683,3.683,0,0,0-.526-2.041,2.013,2.013,0,0,0-1.851-.862h-1.641Z" transform="translate(-193.466 -98.052)"/><path class="ap" d="M189.842,99.761a3,3,0,0,1-1.262-.231,1.312,1.312,0,0,1-.652-.652,2.09,2.09,0,0,1-.147-.989,6.753,6.753,0,0,1,.21-1.22l1.262-5.259h4.712l.863-3.492h-4.733l1.094-4.418-4.418.694-2.8,11.823a14.974,14.974,0,0,0-.4,2.777,5.2,5.2,0,0,0,.4,2.335,3.413,3.413,0,0,0,1.536,1.6,6.385,6.385,0,0,0,3.05.589,11.233,11.233,0,0,0,2.377-.231c.063-.021.168-.042.231-.063l.863-3.6a4.673,4.673,0,0,1-.863.21A6.745,6.745,0,0,1,189.842,99.761Z" transform="translate(-160.433 -81.312)"/><g transform="translate(15.21 2.188)"><path class="ap" d="M149.56,104.6l-3.66,15.357h4.144l3.639-15.357Z" transform="translate(-145.9 -100.161)"/><path class="ap" d="M169.444,86.172l.631-2.672h-4.144l-.631,2.672Z" transform="translate(-161.219 -83.5)"/></g><path class="ap" d="M83.3,79.748a5.283,5.283,0,0,1,2.314.484,4.621,4.621,0,0,1,1.62,1.283,5.717,5.717,0,0,1,.947,1.893,8.247,8.247,0,0,1,.316,2.335,9.281,9.281,0,0,1-.715,3.639,9.622,9.622,0,0,1-1.935,2.987A9.034,9.034,0,0,1,79.322,95.1c-.168,0-.463,0-.884-.021a9.2,9.2,0,0,1-1.431-.126c-.547-.084-1.115-.189-1.7-.337a8.591,8.591,0,0,1-1.7-.61l4.817-20.237L82.73,73.1l-1.7,7.174a5.63,5.63,0,0,1,1.094-.379A4.2,4.2,0,0,1,83.3,79.748ZM79.68,91.654a3.508,3.508,0,0,0,1.83-.484A5.032,5.032,0,0,0,83,89.908a6.179,6.179,0,0,0,.989-1.788,6.373,6.373,0,0,0,.358-2.083,4.142,4.142,0,0,0-.442-2.083,1.838,1.838,0,0,0-1.7-.736,3.648,3.648,0,0,0-.947.126,2.394,2.394,0,0,0-1.115.589L78.333,91.57A9.3,9.3,0,0,0,79.68,91.654Z" transform="translate(-73.6 -73.1)"/></g></g></svg>