<svg xmlns="http://www.w3.org/2000/svg" xmlns:xlink="http://www.w3.org/1999/xlink" width="1680" height="1050" viewBox="0 0 1680 1050"><defs><style>.a,.ae,.g,.j,.s{fill:none;}.b{clip-path:url(#d);}.ab,.ac,.c,.l,.p,.u{fill:#fff;}.d{fill:#1a3b8b;}.e{fill:#e7e7e7;}.af,.ag,.f{fill:#4f6ef7;}.ae,.af,.ag,.g{stroke:#4f6ef7;}.h{fill:#4e6df7;font-size:18px;}.ac,.h,.n,.r{font-family:Heebo-Regular, Heebo;}.i{fill:#9ba3ae;stroke:#9ba3ae;stroke-linecap:square;}.ae,.i,.j{stroke-width:2px;}.j{stroke:#fff;stroke-linecap:round;stroke-linejoin:round;}.af,.ag,.j{fill-rule:evenodd;}.k,.n,.r,.v{fill:#434d5a;}.k{font-size:17px;}.ab,.k,.o,.q,.t,.v{font-family:Heebo-Medium, Heebo;font-weight:500;}.l{font-size:16px;}.l,.m{font-family:Heebo-Bold, Heebo;font-weight:700;}.m{fill:#303133;font-size:32px;}.ab,.n,.q,.v{font-size:14px;}.n,.o,.q,.r,.t,.v{letter-spacing:0.002em;}.o,.w{fill:#73808c;}.ac,.o,.t{font-size:12px;}.p,.s{stroke:#ef476f;}.q,.t{fill:#ef476f;}.r{font-size:10px;}.ad,.r{opacity:0.5;}.u{stroke:#d5dade;}.x{fill:#f0f0f0;}.y{fill:#d80027;}.z{fill:#0052b4;}.aa{fill:#081125;}.ac{opacity:0.6;}.ag{stroke-width:0.5px;}.ah{stroke:none;}.ai{fill:#f6f7fc;}.aj{filter:url(#a);}</style><filter id="a" x="589" y="168" width="502" height="669" filterUnits="userSpaceOnUse"><feOffset input="SourceAlpha"/><feGaussianBlur stdDeviation="7" result="b"/><feFlood flood-opacity="0.051"/><feComposite operator="in" in2="b"/><feComposite in="SourceGraphic"/></filter><clipPath id="d"><rect width="1680" height="1050"/></clipPath></defs><g id="c" class="b"><rect class="ai" width="1680" height="1050"/><rect class="c" width="1680" height="80"/><g transform="translate(32 26)"><path class="d" d="M395.183,104.442h-4.144l-2.4,10.119-.337,1.388c-.231.063-.463.126-.694.168a6.747,6.747,0,0,1-1.325.126,3,3,0,0,1-1.262-.231,1.312,1.312,0,0,1-.652-.652,2.09,2.09,0,0,1-.147-.989,6.743,6.743,0,0,1,.21-1.22l1.262-5.259.82-3.492h-4.228l-1.914,8.078a14.977,14.977,0,0,0-.4,2.777,5.2,5.2,0,0,0,.4,2.335,3.412,3.412,0,0,0,1.536,1.6,6.384,6.384,0,0,0,3.05.589,11.233,11.233,0,0,0,2.377-.231c.021,0,.063-.021.084-.021a3.736,3.736,0,0,1-1.157,2.041,3.973,3.973,0,0,1-2.672.8,9.47,9.47,0,0,1-1.388-.084l-.82,3.429a15.922,15.922,0,0,0,1.83.105,11.888,11.888,0,0,0,3.3-.421,6.806,6.806,0,0,0,2.44-1.3,7.734,7.734,0,0,0,1.7-2.188,12.694,12.694,0,0,0,1.094-3.134l2.861-12.033Z" transform="translate(-315.517 -97.815)"/><path class="d" d="M321.4,113.167a9.547,9.547,0,0,0-.231,3.177,12.655,12.655,0,0,0,.926,3.513h-4a5.053,5.053,0,0,1-.568-1.473,7.573,7.573,0,0,1-1.725,1.052,5.245,5.245,0,0,1-2.125.421,5.441,5.441,0,0,1-2.377-.484,4.491,4.491,0,0,1-1.62-1.3,5.2,5.2,0,0,1-.9-1.914,9.4,9.4,0,0,1-.273-2.356,9.873,9.873,0,0,1,.673-3.618,9.416,9.416,0,0,1,1.893-2.966,8.107,8.107,0,0,1,5.953-2.714h6.416Zm-2.924-5.154c-1.935,0-2.293,0-3.092.4a4.492,4.492,0,0,0-1.43,1.241,5.962,5.962,0,0,0-.968,1.767,6.373,6.373,0,0,0-.358,2.083,4.372,4.372,0,0,0,.442,2.125,1.707,1.707,0,0,0,1.641.778,2.6,2.6,0,0,0,1.157-.252,4.018,4.018,0,0,0,1.094-.841q.063-.694.189-1.452c.084-.5.189-.989.274-1.409l1.052-4.439" transform="translate(-259.084 -97.894)"/><path class="d" d="M241.746,110.759a10.222,10.222,0,0,1-.673,3.745,8.612,8.612,0,0,1-1.872,2.924,8.444,8.444,0,0,1-2.861,1.914,9.319,9.319,0,0,1-3.618.694,11.976,11.976,0,0,1-1.914-.168l-1.262,5.07H225.4l4.817-20.237h5.533a6.846,6.846,0,0,1,2.693.484,4.97,4.97,0,0,1,2.945,3.24A6.97,6.97,0,0,1,241.746,110.759ZM231.585,116.5a5.646,5.646,0,0,0,3.177-.295,4.568,4.568,0,0,0,1.536-1.136,5.639,5.639,0,0,0,.989-1.746,6.92,6.92,0,0,0,.358-2.251,3.683,3.683,0,0,0-.526-2.041,2.013,2.013,0,0,0-1.851-.862h-1.641Z" transform="translate(-193.466 -98.052)"/><path class="d" d="M189.842,99.761a3,3,0,0,1-1.262-.231,1.312,1.312,0,0,1-.652-.652,2.09,2.09,0,0,1-.147-.989,6.753,6.753,0,0,1,.21-1.22l1.262-5.259h4.712l.863-3.492h-4.733l1.094-4.418-4.418.694-2.8,11.823a14.974,14.974,0,0,0-.4,2.777,5.2,5.2,0,0,0,.4,2.335,3.413,3.413,0,0,0,1.536,1.6,6.385,6.385,0,0,0,3.05.589,11.233,11.233,0,0,0,2.377-.231c.063-.021.168-.042.231-.063l.863-3.6a4.673,4.673,0,0,1-.863.21A6.745,6.745,0,0,1,189.842,99.761Z" transform="translate(-160.433 -81.312)"/><g transform="translate(15.21 2.188)"><path class="d" d="M149.56,104.6l-3.66,15.357h4.144l3.639-15.357Z" transform="translate(-145.9 -100.161)"/><path class="d" d="M169.444,86.172l.631-2.672h-4.144l-.631,2.672Z" transform="translate(-161.219 -83.5)"/></g><path class="d" d="M83.3,79.748a5.283,5.283,0,0,1,2.314.484,4.621,4.621,0,0,1,1.62,1.283,5.717,5.717,0,0,1,.947,1.893,8.247,8.247,0,0,1,.316,2.335,9.281,9.281,0,0,1-.715,3.639,9.622,9.622,0,0,1-1.935,2.987A9.034,9.034,0,0,1,79.322,95.1c-.168,0-.463,0-.884-.021a9.2,9.2,0,0,1-1.431-.126c-.547-.084-1.115-.189-1.7-.337a8.591,8.591,0,0,1-1.7-.61l4.817-20.237L82.73,73.1l-1.7,7.174a5.63,5.63,0,0,1,1.094-.379A4.2,4.2,0,0,1,83.3,79.748ZM79.68,91.654a3.508,3.508,0,0,0,1.83-.484A5.032,5.032,0,0,0,83,89.908a6.179,6.179,0,0,0,.989-1.788,6.373,6.373,0,0,0,.358-2.083,4.142,4.142,0,0,0-.442-2.083,1.838,1.838,0,0,0-1.7-.736,3.648,3.648,0,0,0-.947.126,2.394,2.394,0,0,0-1.115.589L78.333,91.57A9.3,9.3,0,0,0,79.68,91.654Z" transform="translate(-73.6 -73.1)"/></g><rect class="e" width="1680" height="3" transform="translate(0 80)"/><rect class="f" width="840" height="3" transform="translate(0 80)"/><g transform="translate(-15845 -1323)"><g class="g" transform="translate(17373 1341)"><rect class="ah" width="119.6" height="44" rx="5"/><rect class="a" x="0.5" y="0.5" width="118.6" height="43" rx="4.5"/></g><text class="h" transform="translate(17476.811 1368.5)"><tspan x="-88.189" y="0">Save &amp; Exit</tspan></text></g><g transform="translate(1484 30)"><circle class="i" cx="10" cy="10" r="10"/><g transform="translate(7.2 4.8)"><path class="j" d="M2.7,7.2V5.4A2.865,2.865,0,0,0,5.6,2.7,2.865,2.865,0,0,0,2.7,0,3.152,3.152,0,0,0,0,1.729"/><circle class="c" cx="1.2" cy="1.2" r="1.2" transform="translate(1.6 9.2)"/></g></g><text class="k" transform="translate(840 48)"><tspan x="-45.135" y="0">Get Verified</tspan></text><g transform="translate(0 6)"><g class="aj" transform="matrix(1, 0, 0, 1, 0, -6)"><path class="c" d="M5,0H455c2.761,0,5,2.949,5,6.586V620.414c0,3.637-2.239,6.586-5,6.586H5c-2.761,0-5-2.949-5-6.586V6.586C0,2.949,2.239,0,5,0Z" transform="translate(610 189)"/></g><g transform="translate(636 734)"><path class="f" d="M4.425,0h399.15C406.019,0,408,1.6,408,3.571V46.429C408,48.4,406.019,50,403.575,50H4.425C1.981,50,0,48.4,0,46.429V3.571C0,1.6,1.981,0,4.425,0Z"/><text class="l" transform="translate(204 30)"><tspan x="-69.516" y="0">Review &amp; Continue </tspan></text></g><text class="m" transform="translate(840 265)"><tspan x="-137.82" y="0">Verify your Identity</tspan></text><text class="n" transform="translate(637 294)"><tspan x="27.035" y="15">Please enter the information below as it appears on your </tspan><tspan x="36.514" y="36">government ID. We prefilled information from your ID.</tspan></text><text class="o" transform="translate(636 377)"><tspan x="0" y="0">FULL NAME</tspan></text><g transform="translate(636 387)"><g class="p"><rect class="ah" width="408" height="49" rx="3"/><rect class="a" x="0.5" y="0.5" width="407" height="48" rx="2.5"/></g><text class="q" transform="translate(12 36.533)"><tspan x="0" y="0">Ashutosh</tspan></text><text class="q" transform="translate(148 36.533)"><tspan x="0" y="0">Wiggle</tspan></text><text class="q" transform="translate(284 36.533)"><tspan x="0" y="0">Bhimasani</tspan></text><text class="r" transform="translate(12 17.5)"><tspan x="0" y="0">First Name</tspan></text><text class="r" transform="translate(148 17.5)"><tspan x="0" y="0">Middle Name</tspan></text><text class="r" transform="translate(284 17.5)"><tspan x="0" y="0">Last Name</tspan></text><line class="s" y2="48" transform="translate(272 0.5)"/><line class="s" y2="48" transform="translate(136 0.5)"/></g><text class="t" transform="translate(1044 377)"><tspan x="-158.593" y="0">First name does not match ID</tspan></text><g transform="translate(636 454)"><text class="o" transform="translate(0 13)"><tspan x="0" y="0">DATE OF BIRTH</tspan></text><g transform="translate(0 23)"><g class="u"><rect class="ah" width="124" height="45" rx="3"/><rect class="a" x="0.5" y="0.5" width="123" height="44" rx="2.5"/></g><text class="v" transform="translate(12 27)"><tspan x="0" y="0">September</tspan></text><g transform="translate(104 20)"><path class="w" d="M11.757,14.343l-4-3.75,1.334-1.25,2.666,2.5,2.666-2.5,1.334,1.25Z" transform="translate(-7.757 -9.343)"/></g><g transform="translate(142)"><g class="u"><rect class="ah" width="124" height="45" rx="3"/><rect class="a" x="0.5" y="0.5" width="123" height="44" rx="2.5"/></g><text class="v" transform="translate(12 27)"><tspan x="0" y="0">28</tspan></text><g transform="translate(104 20)"><path class="w" d="M11.757,14.343l-4-3.75,1.334-1.25,2.666,2.5,2.666-2.5,1.334,1.25Z" transform="translate(-7.757 -9.343)"/></g></g><g transform="translate(284)"><g class="u"><rect class="ah" width="124" height="45" rx="3"/><rect class="a" x="0.5" y="0.5" width="123" height="44" rx="2.5"/></g><text class="v" transform="translate(12 27)"><tspan x="0" y="0">2049</tspan></text><g transform="translate(104 20)"><path class="w" d="M11.757,14.343l-4-3.75,1.334-1.25,2.666,2.5,2.666-2.5,1.334,1.25Z" transform="translate(-7.757 -9.343)"/></g></g></g></g><g transform="translate(636 540)"><text class="o" transform="translate(0 13)"><tspan x="0" y="0">NATIONALITY</tspan></text><g transform="translate(0 23)"><g class="u"><rect class="ah" width="408" height="45" rx="3"/><rect class="a" x="0.5" y="0.5" width="407" height="44" rx="2.5"/></g><text class="v" transform="translate(40 27)"><tspan x="0" y="0">United States</tspan></text><g transform="translate(388 20)"><path class="w" d="M11.757,14.343l-4-3.75,1.334-1.25,2.666,2.5,2.666-2.5,1.334,1.25Z" transform="translate(-7.757 -9.343)"/></g><g transform="translate(12 13.002)"><circle class="x" cx="9" cy="9" r="9" transform="translate(0 -0.002)"/><g transform="translate(0.31 1.957)"><path class="y" d="M244.87,191.565h9.391a9.011,9.011,0,0,0-.31-2.348H244.87Z" transform="translate(-236.571 -184.521)"/><path class="y" d="M244.87,58h8.07a9.047,9.047,0,0,0-2.077-2.348H244.87Z" transform="translate(-236.571 -55.652)"/><path class="y" d="M102.246,458.3a8.961,8.961,0,0,0,5.6-1.957h-11.2A8.961,8.961,0,0,0,102.246,458.3Z" transform="translate(-93.556 -442.261)"/><path class="y" d="M9.83,325.13H25.188a8.945,8.945,0,0,0,1.011-2.348H8.819A8.945,8.945,0,0,0,9.83,325.13Z" transform="translate(-8.819 -313.391)"/></g><path class="z" d="M4.169,1.405h.82l-.763.554.291.9L3.755,2.3l-.763.554.252-.775A9.049,9.049,0,0,0,1.5,4.027h.263l-.486.353q-.113.189-.218.385l.232.714L.857,5.164q-.161.342-.294.7l.255.786h.943L1,7.2l.291.9L.527,7.546.07,7.878A9.087,9.087,0,0,0,0,9H9V0A8.957,8.957,0,0,0,4.169,1.405ZM4.518,8.1l-.763-.554L2.992,8.1l.291-.9L2.52,6.649h.943l.291-.9.291.9h.943L4.226,7.2ZM4.226,4.581l.291.9-.763-.554-.763.554.291-.9L2.52,4.027h.943l.291-.9.291.9h.943ZM7.746,8.1l-.763-.554L6.22,8.1l.291-.9-.763-.554h.943l.291-.9.291.9h.943L7.454,7.2ZM7.454,4.581l.291.9-.763-.554-.763.554.291-.9-.763-.554h.943l.291-.9.291.9h.943Zm0-2.622.291.9L6.983,2.3l-.763.554.291-.9-.763-.554h.943l.291-.9.291.9h.943Z"/></g></g></g><g transform="translate(636 626)"><text class="o" transform="translate(0 13)"><tspan x="0" y="0">SSN</tspan></text><g transform="translate(0 23)"><g class="u"><rect class="ah" width="408" height="45" rx="3"/><rect class="a" x="0.5" y="0.5" width="407" height="44" rx="2.5"/></g><text class="v" transform="translate(12 27)"><tspan x="0" y="0">123 - 45 - 6789</tspan></text></g></g></g><g transform="translate(315 158)"><rect class="aa" width="460" height="85" rx="6" transform="translate(295 690)"/><g transform="translate(-8 1.5)"><text class="ab" transform="translate(349 715.5)"><tspan x="0" y="0">Having trouble?</tspan></text><text class="ac" transform="translate(349 721.5)"><tspan x="0" y="13">Make sure the information in the form matches your government </tspan><tspan x="0" y="31">issued identification document exactly to proceed.</tspan></text></g><g class="ad" transform="translate(735 700)"><path class="c" d="M10.707,1.293a1,1,0,0,0-1.414,0L6,4.586,2.707,1.293A1,1,0,1,0,1.293,2.707L4.586,6,1.293,9.293a1,1,0,1,0,1.414,1.414L6,7.414l3.293,3.293a1,1,0,1,0,1.414-1.414L7.414,6l3.293-3.293A1,1,0,0,0,10.707,1.293Z" transform="translate(-1 -1)"/></g><g transform="translate(309 704)"><circle class="ae" cx="9" cy="9" r="9"/><g transform="translate(8.029 5.051)"><path class="af" d="M.6,1.21a.6.6,0,1,1,.6-.6A.6.6,0,0,1,.6,1.21Z" transform="translate(1.21 1.21) rotate(180)"/><path class="ag" d="M.689,4.84H.521A.521.521,0,0,1,0,4.319V.521A.521.521,0,0,1,.521,0H.689A.521.521,0,0,1,1.21.521v3.8A.521.521,0,0,1,.689,4.84Z" transform="translate(1.21 7.743) rotate(180)"/></g></g></g></g></svg>