<svg xmlns="http://www.w3.org/2000/svg" xmlns:xlink="http://www.w3.org/1999/xlink" width="1680" height="1050" viewBox="0 0 1680 1050"><defs><style>.a,.g,.j,.l,.q,.r{fill:none;}.b{clip-path:url(#d);}.c,.n{fill:#fff;}.d{fill:#1a3b8b;}.e{fill:#e7e7e7;}.f,.m{fill:#4f6ef7;}.g,.l,.q,.r{stroke:#4f6ef7;}.h{fill:#4e6df7;font-size:18px;}.h,.p{font-family:Heebo-Regular, Heebo;}.i{fill:#9ba3ae;stroke:#9ba3ae;stroke-linecap:square;}.i,.j,.l{stroke-width:2px;}.j{stroke:#fff;fill-rule:evenodd;}.j,.q,.r{stroke-linecap:round;stroke-linejoin:round;}.k,.p{fill:#434d5a;}.k{font-size:17px;font-family:Heebo-Medium, Heebo;font-weight:500;}.m,.n{font-size:16px;}.m,.n,.o{font-family:Heebo-Bold, Heebo;font-weight:700;}.o{fill:#303133;font-size:32px;}.p{font-size:14px;letter-spacing:0.002em;}.q{stroke-width:4px;}.r{stroke-width:6px;}.s{stroke:none;}.t{fill:#f6f7fc;}.u{filter:url(#a);}</style><filter id="a" x="619" y="302" width="442" height="446" filterUnits="userSpaceOnUse"><feOffset input="SourceAlpha"/><feGaussianBlur stdDeviation="7" result="b"/><feFlood flood-opacity="0.051"/><feComposite operator="in" in2="b"/><feComposite in="SourceGraphic"/></filter><clipPath id="d"><rect width="1680" height="1050"/></clipPath></defs><g id="c" class="b"><rect class="t" width="1680" height="1050"/><rect class="c" width="1680" height="80"/><g transform="translate(32 26)"><path class="d" d="M395.183,104.442h-4.144l-2.4,10.119-.337,1.388c-.231.063-.463.126-.694.168a6.747,6.747,0,0,1-1.325.126,3,3,0,0,1-1.262-.231,1.312,1.312,0,0,1-.652-.652,2.09,2.09,0,0,1-.147-.989,6.743,6.743,0,0,1,.21-1.22l1.262-5.259.82-3.492h-4.228l-1.914,8.078a14.977,14.977,0,0,0-.4,2.777,5.2,5.2,0,0,0,.4,2.335,3.412,3.412,0,0,0,1.536,1.6,6.384,6.384,0,0,0,3.05.589,11.233,11.233,0,0,0,2.377-.231c.021,0,.063-.021.084-.021a3.736,3.736,0,0,1-1.157,2.041,3.973,3.973,0,0,1-2.672.8,9.47,9.47,0,0,1-1.388-.084l-.82,3.429a15.922,15.922,0,0,0,1.83.105,11.888,11.888,0,0,0,3.3-.421,6.806,6.806,0,0,0,2.44-1.3,7.734,7.734,0,0,0,1.7-2.188,12.694,12.694,0,0,0,1.094-3.134l2.861-12.033Z" transform="translate(-315.517 -97.815)"/><path class="d" d="M321.4,113.167a9.547,9.547,0,0,0-.231,3.177,12.655,12.655,0,0,0,.926,3.513h-4a5.053,5.053,0,0,1-.568-1.473,7.573,7.573,0,0,1-1.725,1.052,5.245,5.245,0,0,1-2.125.421,5.441,5.441,0,0,1-2.377-.484,4.491,4.491,0,0,1-1.62-1.3,5.2,5.2,0,0,1-.9-1.914,9.4,9.4,0,0,1-.273-2.356,9.873,9.873,0,0,1,.673-3.618,9.416,9.416,0,0,1,1.893-2.966,8.107,8.107,0,0,1,5.953-2.714h6.416Zm-2.924-5.154c-1.935,0-2.293,0-3.092.4a4.492,4.492,0,0,0-1.43,1.241,5.962,5.962,0,0,0-.968,1.767,6.373,6.373,0,0,0-.358,2.083,4.372,4.372,0,0,0,.442,2.125,1.707,1.707,0,0,0,1.641.778,2.6,2.6,0,0,0,1.157-.252,4.018,4.018,0,0,0,1.094-.841q.063-.694.189-1.452c.084-.5.189-.989.274-1.409l1.052-4.439" transform="translate(-259.084 -97.894)"/><path class="d" d="M241.746,110.759a10.222,10.222,0,0,1-.673,3.745,8.612,8.612,0,0,1-1.872,2.924,8.444,8.444,0,0,1-2.861,1.914,9.319,9.319,0,0,1-3.618.694,11.976,11.976,0,0,1-1.914-.168l-1.262,5.07H225.4l4.817-20.237h5.533a6.846,6.846,0,0,1,2.693.484,4.97,4.97,0,0,1,2.945,3.24A6.97,6.97,0,0,1,241.746,110.759ZM231.585,116.5a5.646,5.646,0,0,0,3.177-.295,4.568,4.568,0,0,0,1.536-1.136,5.639,5.639,0,0,0,.989-1.746,6.92,6.92,0,0,0,.358-2.251,3.683,3.683,0,0,0-.526-2.041,2.013,2.013,0,0,0-1.851-.862h-1.641Z" transform="translate(-193.466 -98.052)"/><path class="d" d="M189.842,99.761a3,3,0,0,1-1.262-.231,1.312,1.312,0,0,1-.652-.652,2.09,2.09,0,0,1-.147-.989,6.753,6.753,0,0,1,.21-1.22l1.262-5.259h4.712l.863-3.492h-4.733l1.094-4.418-4.418.694-2.8,11.823a14.974,14.974,0,0,0-.4,2.777,5.2,5.2,0,0,0,.4,2.335,3.413,3.413,0,0,0,1.536,1.6,6.385,6.385,0,0,0,3.05.589,11.233,11.233,0,0,0,2.377-.231c.063-.021.168-.042.231-.063l.863-3.6a4.673,4.673,0,0,1-.863.21A6.745,6.745,0,0,1,189.842,99.761Z" transform="translate(-160.433 -81.312)"/><g transform="translate(15.21 2.188)"><path class="d" d="M149.56,104.6l-3.66,15.357h4.144l3.639-15.357Z" transform="translate(-145.9 -100.161)"/><path class="d" d="M169.444,86.172l.631-2.672h-4.144l-.631,2.672Z" transform="translate(-161.219 -83.5)"/></g><path class="d" d="M83.3,79.748a5.283,5.283,0,0,1,2.314.484,4.621,4.621,0,0,1,1.62,1.283,5.717,5.717,0,0,1,.947,1.893,8.247,8.247,0,0,1,.316,2.335,9.281,9.281,0,0,1-.715,3.639,9.622,9.622,0,0,1-1.935,2.987A9.034,9.034,0,0,1,79.322,95.1c-.168,0-.463,0-.884-.021a9.2,9.2,0,0,1-1.431-.126c-.547-.084-1.115-.189-1.7-.337a8.591,8.591,0,0,1-1.7-.61l4.817-20.237L82.73,73.1l-1.7,7.174a5.63,5.63,0,0,1,1.094-.379A4.2,4.2,0,0,1,83.3,79.748ZM79.68,91.654a3.508,3.508,0,0,0,1.83-.484A5.032,5.032,0,0,0,83,89.908a6.179,6.179,0,0,0,.989-1.788,6.373,6.373,0,0,0,.358-2.083,4.142,4.142,0,0,0-.442-2.083,1.838,1.838,0,0,0-1.7-.736,3.648,3.648,0,0,0-.947.126,2.394,2.394,0,0,0-1.115.589L78.333,91.57A9.3,9.3,0,0,0,79.68,91.654Z" transform="translate(-73.6 -73.1)"/></g><rect class="e" width="1680" height="3" transform="translate(0 80)"/><rect class="f" width="1680" height="3" transform="translate(0 80)"/><g transform="translate(-15845 -1323)"><g class="g" transform="translate(17373 1341)"><rect class="s" width="119.6" height="44" rx="5"/><rect class="a" x="0.5" y="0.5" width="118.6" height="43" rx="4.5"/></g><text class="h" transform="translate(17388.811 1368.5)"><tspan x="0" y="0">Save &amp; Exit</tspan></text></g><g transform="translate(1484 30)"><circle class="i" cx="10" cy="10" r="10"/><g transform="translate(7.2 4.8)"><path class="j" d="M2.7,7.2V5.4A2.865,2.865,0,0,0,5.6,2.7,2.865,2.865,0,0,0,2.7,0,3.152,3.152,0,0,0,0,1.729"/><circle class="c" cx="1.2" cy="1.2" r="1.2" transform="translate(1.6 9.2)"/></g></g><text class="k" transform="translate(840 48)"><tspan x="-45.135" y="0">Get Verified</tspan></text><g class="u" transform="matrix(1, 0, 0, 1, 0, 0)"><path class="c" d="M4.348,0h391.3A4.3,4.3,0,0,1,400,4.244V399.756A4.3,4.3,0,0,1,395.652,404H4.348A4.3,4.3,0,0,1,0,399.756V4.244A4.3,4.3,0,0,1,4.348,0Z" transform="translate(640 323)"/></g><g transform="translate(30 -88)"><g transform="translate(636 739)"><path class="l" d="M3.774,0H344.226A3.677,3.677,0,0,1,348,3.571V46.429A3.677,3.677,0,0,1,344.226,50H3.774A3.677,3.677,0,0,1,0,46.429V3.571A3.677,3.677,0,0,1,3.774,0Z"/><text class="m" transform="translate(174 30)"><tspan x="-59.934" y="0">Go to Dashboard</tspan></text></g><g transform="translate(636 739)"><path class="f" d="M3.774,0H344.226A3.677,3.677,0,0,1,348,3.571V46.429A3.677,3.677,0,0,1,344.226,50H3.774A3.677,3.677,0,0,1,0,46.429V3.571A3.677,3.677,0,0,1,3.774,0Z"/><text class="n" transform="translate(174 30)"><tspan x="-59.934" y="0">Go to Dashboard</tspan></text></g></g><text class="o" transform="translate(840 513)"><tspan x="-115.086" y="0">Pending Review</tspan></text><text class="p" transform="translate(667 537)"><tspan x="6.552" y="15">Thanks for using BitPay! We’ll review your documents </tspan><tspan x="37.084" y="36">and send you a notification within 48 hours.</tspan></text><g transform="translate(800 371)"><circle class="q" cx="40" cy="40" r="40"/><line class="r" y2="21.818" transform="translate(40 21.818)"/><circle class="f" cx="4.25" cy="4.25" r="4.25" transform="translate(35.75 52.146)"/></g></g></svg>