<svg xmlns="http://www.w3.org/2000/svg" xmlns:xlink="http://www.w3.org/1999/xlink" width="1680" height="1050" viewBox="0 0 1680 1050"><defs><style>.a,.g,.j{fill:none;}.b{clip-path:url(#d);}.c,.m,.p{fill:#fff;}.d{fill:#1a3b8b;}.e{fill:#e7e7e7;}.f{fill:#4f6ef7;}.g{stroke:#4f6ef7;}.h{fill:#4e6df7;font-size:18px;}.h,.l,.q,.x{font-family:Heebo-Regular, Heebo;}.i{fill:#9ba3ae;stroke:#9ba3ae;stroke-linecap:square;}.i,.j{stroke-width:2px;}.j{stroke:#fff;stroke-linecap:round;stroke-linejoin:round;fill-rule:evenodd;}.k,.q,.s,.x{fill:#434d5a;}.k{font-size:17px;}.k,.o,.r,.s{font-family:Heebo-Medium, Heebo;font-weight:500;}.l{fill:#74818d;}.l,.o,.r{font-size:12px;}.l,.o,.q,.r,.s,.x{letter-spacing:0.002em;}.m{font-size:16px;}.m,.n{font-family:Heebo-Bold, Heebo;font-weight:700;}.n{fill:#303133;font-size:32px;}.o,.r,.t{fill:#73808c;}.p{stroke:#d5dade;}.q,.s,.x{font-size:14px;}.q,.r{opacity:0.5;}.u{fill:#f0f0f0;}.v{fill:#a2001d;}.w{fill:#0052b4;}.y{stroke:none;}.z{fill:#f6f7fc;}.aa{filter:url(#a);}</style><filter id="a" x="589" y="173" width="502" height="665" filterUnits="userSpaceOnUse"><feOffset input="SourceAlpha"/><feGaussianBlur stdDeviation="7" result="b"/><feFlood flood-opacity="0.051"/><feComposite operator="in" in2="b"/><feComposite in="SourceGraphic"/></filter><clipPath id="d"><rect width="1680" height="1050"/></clipPath></defs><g id="c" class="b"><rect class="z" width="1680" height="1050"/><rect class="c" width="1680" height="80"/><g transform="translate(32 26)"><path class="d" d="M395.183,104.442h-4.144l-2.4,10.119-.337,1.388c-.231.063-.463.126-.694.168a6.747,6.747,0,0,1-1.325.126,3,3,0,0,1-1.262-.231,1.312,1.312,0,0,1-.652-.652,2.09,2.09,0,0,1-.147-.989,6.743,6.743,0,0,1,.21-1.22l1.262-5.259.82-3.492h-4.228l-1.914,8.078a14.977,14.977,0,0,0-.4,2.777,5.2,5.2,0,0,0,.4,2.335,3.412,3.412,0,0,0,1.536,1.6,6.384,6.384,0,0,0,3.05.589,11.233,11.233,0,0,0,2.377-.231c.021,0,.063-.021.084-.021a3.736,3.736,0,0,1-1.157,2.041,3.973,3.973,0,0,1-2.672.8,9.47,9.47,0,0,1-1.388-.084l-.82,3.429a15.922,15.922,0,0,0,1.83.105,11.888,11.888,0,0,0,3.3-.421,6.806,6.806,0,0,0,2.44-1.3,7.734,7.734,0,0,0,1.7-2.188,12.694,12.694,0,0,0,1.094-3.134l2.861-12.033Z" transform="translate(-315.517 -97.815)"/><path class="d" d="M321.4,113.167a9.547,9.547,0,0,0-.231,3.177,12.655,12.655,0,0,0,.926,3.513h-4a5.053,5.053,0,0,1-.568-1.473,7.573,7.573,0,0,1-1.725,1.052,5.245,5.245,0,0,1-2.125.421,5.441,5.441,0,0,1-2.377-.484,4.491,4.491,0,0,1-1.62-1.3,5.2,5.2,0,0,1-.9-1.914,9.4,9.4,0,0,1-.273-2.356,9.873,9.873,0,0,1,.673-3.618,9.416,9.416,0,0,1,1.893-2.966,8.107,8.107,0,0,1,5.953-2.714h6.416Zm-2.924-5.154c-1.935,0-2.293,0-3.092.4a4.492,4.492,0,0,0-1.43,1.241,5.962,5.962,0,0,0-.968,1.767,6.373,6.373,0,0,0-.358,2.083,4.372,4.372,0,0,0,.442,2.125,1.707,1.707,0,0,0,1.641.778,2.6,2.6,0,0,0,1.157-.252,4.018,4.018,0,0,0,1.094-.841q.063-.694.189-1.452c.084-.5.189-.989.274-1.409l1.052-4.439" transform="translate(-259.084 -97.894)"/><path class="d" d="M241.746,110.759a10.222,10.222,0,0,1-.673,3.745,8.612,8.612,0,0,1-1.872,2.924,8.444,8.444,0,0,1-2.861,1.914,9.319,9.319,0,0,1-3.618.694,11.976,11.976,0,0,1-1.914-.168l-1.262,5.07H225.4l4.817-20.237h5.533a6.846,6.846,0,0,1,2.693.484,4.97,4.97,0,0,1,2.945,3.24A6.97,6.97,0,0,1,241.746,110.759ZM231.585,116.5a5.646,5.646,0,0,0,3.177-.295,4.568,4.568,0,0,0,1.536-1.136,5.639,5.639,0,0,0,.989-1.746,6.92,6.92,0,0,0,.358-2.251,3.683,3.683,0,0,0-.526-2.041,2.013,2.013,0,0,0-1.851-.862h-1.641Z" transform="translate(-193.466 -98.052)"/><path class="d" d="M189.842,99.761a3,3,0,0,1-1.262-.231,1.312,1.312,0,0,1-.652-.652,2.09,2.09,0,0,1-.147-.989,6.753,6.753,0,0,1,.21-1.22l1.262-5.259h4.712l.863-3.492h-4.733l1.094-4.418-4.418.694-2.8,11.823a14.974,14.974,0,0,0-.4,2.777,5.2,5.2,0,0,0,.4,2.335,3.413,3.413,0,0,0,1.536,1.6,6.385,6.385,0,0,0,3.05.589,11.233,11.233,0,0,0,2.377-.231c.063-.021.168-.042.231-.063l.863-3.6a4.673,4.673,0,0,1-.863.21A6.745,6.745,0,0,1,189.842,99.761Z" transform="translate(-160.433 -81.312)"/><g transform="translate(15.21 2.188)"><path class="d" d="M149.56,104.6l-3.66,15.357h4.144l3.639-15.357Z" transform="translate(-145.9 -100.161)"/><path class="d" d="M169.444,86.172l.631-2.672h-4.144l-.631,2.672Z" transform="translate(-161.219 -83.5)"/></g><path class="d" d="M83.3,79.748a5.283,5.283,0,0,1,2.314.484,4.621,4.621,0,0,1,1.62,1.283,5.717,5.717,0,0,1,.947,1.893,8.247,8.247,0,0,1,.316,2.335,9.281,9.281,0,0,1-.715,3.639,9.622,9.622,0,0,1-1.935,2.987A9.034,9.034,0,0,1,79.322,95.1c-.168,0-.463,0-.884-.021a9.2,9.2,0,0,1-1.431-.126c-.547-.084-1.115-.189-1.7-.337a8.591,8.591,0,0,1-1.7-.61l4.817-20.237L82.73,73.1l-1.7,7.174a5.63,5.63,0,0,1,1.094-.379A4.2,4.2,0,0,1,83.3,79.748ZM79.68,91.654a3.508,3.508,0,0,0,1.83-.484A5.032,5.032,0,0,0,83,89.908a6.179,6.179,0,0,0,.989-1.788,6.373,6.373,0,0,0,.358-2.083,4.142,4.142,0,0,0-.442-2.083,1.838,1.838,0,0,0-1.7-.736,3.648,3.648,0,0,0-.947.126,2.394,2.394,0,0,0-1.115.589L78.333,91.57A9.3,9.3,0,0,0,79.68,91.654Z" transform="translate(-73.6 -73.1)"/></g><rect class="e" width="1680" height="3" transform="translate(0 80)"/><rect class="f" width="940" height="3" transform="translate(0 80)"/><g transform="translate(-15845 -1323)"><g class="g" transform="translate(17373 1341)"><rect class="y" width="119.6" height="44" rx="5"/><rect class="a" x="0.5" y="0.5" width="118.6" height="43" rx="4.5"/></g><text class="h" transform="translate(17388.811 1368.5)"><tspan x="0" y="0">Save &amp; Exit</tspan></text></g><g transform="translate(1484 30)"><circle class="i" cx="10" cy="10" r="10"/><g transform="translate(7.2 4.8)"><path class="j" d="M2.7,7.2V5.4A2.865,2.865,0,0,0,5.6,2.7,2.865,2.865,0,0,0,2.7,0,3.152,3.152,0,0,0,0,1.729"/><circle class="c" cx="1.2" cy="1.2" r="1.2" transform="translate(1.6 9.2)"/></g></g><text class="k" transform="translate(840 48)"><tspan x="-45.135" y="0">Get Verified</tspan></text><g transform="translate(0 -21)"><text class="l" transform="translate(840 877)"><tspan x="-109.927" y="0" xml:space="preserve">Need to edit your personal info?  </tspan><tspan class="f" y="0">Go back</tspan></text><g transform="translate(-50 -24)"><g class="aa" transform="matrix(1, 0, 0, 1, 50, 45)"><path class="c" d="M5,0H455c2.761,0,5,2.93,5,6.544V616.456c0,3.614-2.239,6.544-5,6.544H5c-2.761,0-5-2.93-5-6.544V6.544C0,2.93,2.239,0,5,0Z" transform="translate(610 194)"/></g><g transform="translate(686 786)"><path class="f" d="M4.425,0h399.15C406.019,0,408,1.6,408,3.571V46.429C408,48.4,406.019,50,403.575,50H4.425C1.981,50,0,48.4,0,46.429V3.571C0,1.6,1.981,0,4.425,0Z"/><text class="m" transform="translate(204 30)"><tspan x="-62.801" y="0">Review &amp; Submit </tspan></text></g><text class="n" transform="translate(890 321)"><tspan x="-143.047" y="0">Verify your Address</tspan></text><g transform="translate(0 2)"><g transform="translate(686 418)"><text class="o" transform="translate(0 13)"><tspan x="0" y="0">ADDRESS 1</tspan></text><g transform="translate(0 23)"><g class="p"><rect class="y" width="408" height="45" rx="3"/><rect class="a" x="0.5" y="0.5" width="407" height="44" rx="2.5"/></g><text class="q" transform="translate(12 27)"><tspan x="0" y="0">Surinamestraat 27</tspan></text></g></g><g transform="translate(686 504)"><text class="o" transform="translate(0 13)"><tspan x="0" y="0">ADDRESS 2</tspan></text><g transform="translate(0 23)"><g class="p"><rect class="y" width="408" height="45" rx="3"/><rect class="a" x="0.5" y="0.5" width="407" height="44" rx="2.5"/></g><text class="q" transform="translate(12 27)"><tspan x="0" y="0">Apt, suite, etc.</tspan></text></g><text class="r" transform="translate(408.5 13)"><tspan x="-45.367" y="0">Optional</tspan></text></g><g transform="translate(686 590)"><text class="o" transform="translate(0 13)"><tspan x="0" y="0">POSTAL CODE</tspan></text><text class="o" transform="translate(213 13)"><tspan x="0" y="0">CITY</tspan></text><g transform="translate(0 23)"><g class="p"><rect class="y" width="195.25" height="45" rx="3"/><rect class="a" x="0.5" y="0.5" width="194.25" height="44" rx="2.5"/></g><text class="q" transform="translate(12 27)"><tspan x="0" y="0">1071 JA</tspan></text></g><g transform="translate(213 23)"><g class="p"><rect class="y" width="195.25" height="45" rx="3"/><rect class="a" x="0.5" y="0.5" width="194.25" height="44" rx="2.5"/></g><text class="q" transform="translate(12 27)"><tspan x="0" y="0">Amsterdam</tspan></text></g></g><g transform="translate(686 676)"><text class="o" transform="translate(0 13)"><tspan x="0" y="0">COUNTRY</tspan></text><g transform="translate(0 23)"><g class="p"><rect class="y" width="408" height="45" rx="3"/><rect class="a" x="0.5" y="0.5" width="407" height="44" rx="2.5"/></g><text class="s" transform="translate(40 27)"><tspan x="0" y="0">Netherlands</tspan></text><g transform="translate(388 20)"><path class="t" d="M11.757,14.343l-4-3.75,1.334-1.25,2.666,2.5,2.666-2.5,1.334,1.25Z" transform="translate(-7.757 -9.343)"/></g><g transform="translate(12 13)"><circle class="u" cx="9" cy="9" r="9"/><path class="v" d="M24.363,0a9,9,0,0,0-8.44,5.87H32.8A9,9,0,0,0,24.363,0Z" transform="translate(-15.363)"/><path class="w" d="M24.363,350.913a9,9,0,0,0,8.44-5.87H15.923A9,9,0,0,0,24.363,350.913Z" transform="translate(-15.363 -332.913)"/></g></g></g></g><text class="x" transform="translate(687 350)"><tspan x="27.035" y="15">Please enter the information below as it appears on your </tspan><tspan x="36.514" y="36">government ID. We prefilled information from your ID.</tspan></text></g></g></g></svg>