<svg xmlns="http://www.w3.org/2000/svg" width="234" height="234" viewBox="0 0 234 234">
  <g fill="none" fill-rule="evenodd">
    <g transform="translate(0 178)">
      <path fill="#1A2C57" d="M48,0 C52.418278,2.22441625e-15 56,3.581722 56,8 L56,48 C56,52.418278 52.418278,56 48,56 L8,56 C3.581722,56 3.57712375e-15,52.418278 0,48 L0,8 C-1.42926142e-15,3.581722 3.581722,-7.65539184e-17 8,0 L48,0 Z M44,8 L12,8 C9.790861,8 8,9.790861 8,12 L8,12 L8,44 C8,46.209139 9.790861,48 12,48 L12,48 L44,48 C46.209139,48 48,46.209139 48,44 L48,44 L48,12 C48,9.790861 46.209139,8 44,8 L44,8 Z"/>
      <rect width="24.857" height="24.85" x="15.286" y="15.424" fill="#4F6EF7" rx="4"/>
    </g>
    <g transform="translate(178)">
      <path fill="#1A2C57" d="M48,0 C52.418278,2.22441625e-15 56,3.581722 56,8 L56,48 C56,52.418278 52.418278,56 48,56 L8,56 C3.581722,56 3.57712375e-15,52.418278 0,48 L0,8 C-1.42926142e-15,3.581722 3.581722,-7.65539184e-17 8,0 L48,0 Z M44,8 L12,8 C9.790861,8 8,9.790861 8,12 L8,12 L8,44 C8,46.209139 9.790861,48 12,48 L12,48 L44,48 C46.209139,48 48,46.209139 48,44 L48,44 L48,12 C48,9.790861 46.209139,8 44,8 L44,8 Z"/>
      <rect width="24.857" height="24.85" x="15.286" y="15.424" fill="#4F6EF7" rx="4"/>
    </g>
    <path fill="#1A2C57" d="M48,0 C52.418278,2.22441625e-15 56,3.581722 56,8 L56,48 C56,52.418278 52.418278,56 48,56 L8,56 C3.581722,56 3.57712375e-15,52.418278 0,48 L0,8 C-1.42926142e-15,3.581722 3.581722,-7.65539184e-17 8,0 L48,0 Z M44,8 L12,8 C9.790861,8 8,9.790861 8,12 L8,12 L8,44 C8,46.209139 9.790861,48 12,48 L12,48 L44,48 C46.209139,48 48,46.209139 48,44 L48,44 L48,12 C48,9.790861 46.209139,8 44,8 L44,8 Z"/>
    <rect width="24.857" height="24.85" x="15.286" y="15.424" fill="#4F6EF7" rx="4"/>
    <g fill="#214497">
      <rect width="8.04" height="8.038" y="64.302" rx="4.019"/>
      <rect width="8.04" height="8.038" y="72.34" rx="4.019"/>
      <rect width="8.04" height="8.038" y="80.378" rx="4.019"/>
      <rect width="8.04" height="8.038" y="88.416" rx="4.019"/>
      <rect width="8.04" height="8.038" y="104.491" rx="4.019"/>
      <rect width="8.04" height="8.038" y="112.529" rx="4.019"/>
      <rect width="8.04" height="8.038" y="128.605" rx="4.019"/>
      <rect width="8.04" height="8.038" x="8.04" y="72.34" rx="4.019"/>
      <rect width="8.04" height="8.038" x="8.04" y="88.416" rx="4.019"/>
      <rect width="8.04" height="8.038" x="8.04" y="96.453" rx="4.019"/>
      <rect width="8.04" height="8.038" x="8.04" y="112.529" rx="4.019"/>
      <rect width="8.04" height="8.038" x="8.04" y="128.605" rx="4.019"/>
      <rect width="8.04" height="8.038" x="16.08" y="72.34" rx="4.019"/>
      <rect width="8.04" height="8.038" x="16.08" y="80.378" rx="4.019"/>
      <rect width="8.04" height="8.038" x="16.08" y="96.453" rx="4.019"/>
      <rect width="8.04" height="8.038" x="16.08" y="112.529" rx="4.019"/>
      <rect width="8.04" height="8.038" x="16.08" y="120.567" rx="4.019"/>
      <rect width="8.04" height="8.038" x="16.08" y="144.68" rx="4.019"/>
      <rect width="8.04" height="8.038" x="16.08" y="152.718" rx="4.019"/>
      <rect width="8.04" height="8.038" x="24" y="64" rx="4.019"/>
      <rect width="8.04" height="8.038" x="24.12" y="96.453" rx="4.019"/>
      <rect width="8.04" height="8.038" x="24.12" y="136.642" rx="4.019"/>
      <rect width="8.04" height="8.038" x="24.12" y="144.68" rx="4.019"/>
      <rect width="8.04" height="8.038" x="24.12" y="152.718" rx="4.019"/>
      <rect width="8.04" height="8.038" x="24.12" y="160.756" rx="4.019"/>
      <rect width="8.04" height="8.038" x="32.16" y="64.302" rx="4.019"/>
      <rect width="8.04" height="8.038" x="32.16" y="96.453" rx="4.019"/>
      <rect width="8.04" height="8.038" x="32.16" y="104.491" rx="4.019"/>
      <rect width="8.04" height="8.038" x="32.16" y="112.529" rx="4.019"/>
      <rect width="8.04" height="8.038" x="32.16" y="120.567" rx="4.019"/>
      <rect width="8.04" height="8.038" x="32.16" y="152.718" rx="4.019"/>
      <rect width="8.04" height="8.038" x="32.16" y="160.756" rx="4.019"/>
      <rect width="8.04" height="8.038" x="40.2" y="64.302" rx="4.019"/>
      <rect width="8.04" height="8.038" x="40.2" y="72.34" rx="4.019"/>
      <rect width="8.04" height="8.038" x="40.2" y="96.453" rx="4.019"/>
      <rect width="8.04" height="8.038" x="40.2" y="104.491" rx="4.019"/>
      <rect width="8.04" height="8.038" x="40.2" y="120.567" rx="4.019"/>
      <rect width="8.04" height="8.038" x="40.2" y="136.642" rx="4.019"/>
      <rect width="8.04" height="8.038" x="40.2" y="144.68" rx="4.019"/>
      <rect width="8.04" height="8.038" x="40.2" y="152.718" rx="4.019"/>
      <rect width="8.04" height="8.038" x="40.2" y="160.756" rx="4.019"/>
      <rect width="8.04" height="8.038" x="48.24" y="64.302" rx="4.019"/>
      <rect width="8.04" height="8.038" x="48.24" y="80.378" rx="4.019"/>
      <rect width="8.04" height="8.038" x="48.24" y="96.453" rx="4.019"/>
      <rect width="8.04" height="8.038" x="48.24" y="112.529" rx="4.019"/>
      <rect width="8.04" height="8.038" x="48.24" y="128.605" rx="4.019"/>
      <rect width="8.04" height="8.038" x="48.24" y="144.68" rx="4.019"/>
      <rect width="8.04" height="8.038" x="48.24" y="160.756" rx="4.019"/>
      <rect width="8.04" height="8.038" x="56.28" y="64.302" rx="4.019"/>
      <rect width="8.04" height="8.038" x="56.28" y="72.34" rx="4.019"/>
      <rect width="8.04" height="8.038" x="56.28" y="88.416" rx="4.019"/>
      <rect width="8.04" height="8.038" x="56.28" y="120.567" rx="4.019"/>
      <rect width="8.04" height="8.038" x="56.28" y="128.605" rx="4.019"/>
      <rect width="8.04" height="8.038" x="56.28" y="136.642" rx="4.019"/>
      <rect width="8.04" height="8.038" x="56.28" y="144.68" rx="4.019"/>
      <rect width="8.04" height="8.038" x="56.28" y="160.756" rx="4.019"/>
      <path d="M68.3386184 0L68.340795 0C70.5603691-1.29590757e-15 72.3596895 1.79932034 72.3596895 4.01889446 72.3596895 6.23846858 70.5603691 8.03778892 68.340795 8.03778892L68.3386184 8.03778892C66.1190443 8.03778892 64.319724 6.23846858 64.319724 4.01889446 64.319724 1.79932034 66.1190443-4.80449268e-16 68.3386184 0zM68.3386184 8.03778892L68.340795 8.03778892C70.5603691 8.03778892 72.3596895 9.83710926 72.3596895 12.0566834 72.3596895 14.2762575 70.5603691 16.0755778 68.340795 16.0755778L68.3386184 16.0755778C66.1190443 16.0755778 64.319724 14.2762575 64.319724 12.0566834 64.319724 9.83710926 66.1190443 8.03778892 68.3386184 8.03778892zM68.3386184 16.0755778L68.340795 16.0755778C70.5603691 16.0755778 72.3596895 17.8748982 72.3596895 20.0944723 72.3596895 22.3140464 70.5603691 24.1133668 68.340795 24.1133668L68.3386184 24.1133668C66.1190443 24.1133668 64.319724 22.3140464 64.319724 20.0944723 64.319724 17.8748982 66.1190443 16.0755778 68.3386184 16.0755778zM68.3386184 32.1511557L68.340795 32.1511557C70.5603691 32.1511557 72.3596895 33.950476 72.3596895 36.1700501 72.3596895 38.3896243 70.5603691 40.1889446 68.340795 40.1889446L68.3386184 40.1889446C66.1190443 40.1889446 64.319724 38.3896243 64.319724 36.1700501 64.319724 33.950476 66.1190443 32.1511557 68.3386184 32.1511557zM68.3386184 48.2267335L68.340795 48.2267335C70.5603691 48.2267335 72.3596895 50.0260539 72.3596895 52.245628 72.3596895 54.4652021 70.5603691 56.2645224 68.340795 56.2645224L68.3386184 56.2645224C66.1190443 56.2645224 64.319724 54.4652021 64.319724 52.245628 64.319724 50.0260539 66.1190443 48.2267335 68.3386184 48.2267335zM68.3386184 64.3023114L68.340795 64.3023114C70.5603691 64.3023114 72.3596895 66.1016317 72.3596895 68.3212058 72.3596895 70.5407799 70.5603691 72.3401003 68.340795 72.3401003L68.3386184 72.3401003C66.1190443 72.3401003 64.319724 70.5407799 64.319724 68.3212058 64.319724 66.1016317 66.1190443 64.3023114 68.3386184 64.3023114zM68.3386184 112.529045L68.340795 112.529045C70.5603691 112.529045 72.3596895 114.328365 72.3596895 116.547939 72.3596895 118.767513 70.5603691 120.566834 68.340795 120.566834L68.3386184 120.566834C66.1190443 120.566834 64.319724 118.767513 64.319724 116.547939 64.319724 114.328365 66.1190443 112.529045 68.3386184 112.529045zM68.3386184 120.566834L68.340795 120.566834C70.5603691 120.566834 72.3596895 122.366154 72.3596895 124.585728 72.3596895 126.805302 70.5603691 128.604623 68.340795 128.604623L68.3386184 128.604623C66.1190443 128.604623 64.319724 126.805302 64.319724 124.585728 64.319724 122.366154 66.1190443 120.566834 68.3386184 120.566834zM68.3386184 128.604623L68.340795 128.604623C70.5603691 128.604623 72.3596895 130.403943 72.3596895 132.623517 72.3596895 134.843091 70.5603691 136.642412 68.340795 136.642412L68.3386184 136.642412C66.1190443 136.642412 64.319724 134.843091 64.319724 132.623517 64.319724 130.403943 66.1190443 128.604623 68.3386184 128.604623zM68.3386184 152.717989L68.340795 152.717989C70.5603691 152.717989 72.3596895 154.51731 72.3596895 156.736884 72.3596895 158.956458 70.5603691 160.755778 68.340795 160.755778L68.3386184 160.755778C66.1190443 160.755778 64.319724 158.956458 64.319724 156.736884 64.319724 154.51731 66.1190443 152.717989 68.3386184 152.717989zM68.3386184 168.793567L68.340795 168.793567C70.5603691 168.793567 72.3596895 170.592888 72.3596895 172.812462 72.3596895 175.032036 70.5603691 176.831356 68.340795 176.831356L68.3386184 176.831356C66.1190443 176.831356 64.319724 175.032036 64.319724 172.812462 64.319724 170.592888 66.1190443 168.793567 68.3386184 168.793567zM68.3386184 176.831356L68.340795 176.831356C70.5603691 176.831356 72.3596895 178.630677 72.3596895 180.850251 72.3596895 183.069825 70.5603691 184.869145 68.340795 184.869145L68.3386184 184.869145C66.1190443 184.869145 64.319724 183.069825 64.319724 180.850251 64.319724 178.630677 66.1190443 176.831356 68.3386184 176.831356zM68.3386184 184.869145L68.340795 184.869145C70.5603691 184.869145 72.3596895 186.668466 72.3596895 188.88804 72.3596895 191.107614 70.5603691 192.906934 68.340795 192.906934L68.3386184 192.906934C66.1190443 192.906934 64.319724 191.107614 64.319724 188.88804 64.319724 186.668466 66.1190443 184.869145 68.3386184 184.869145zM68.3386184 192.906934L68.340795 192.906934C70.5603691 192.906934 72.3596895 194.706254 72.3596895 196.925829 72.3596895 199.145403 70.5603691 200.944723 68.340795 200.944723L68.3386184 200.944723C66.1190443 200.944723 64.319724 199.145403 64.319724 196.925829 64.319724 194.706254 66.1190443 192.906934 68.3386184 192.906934zM68.3386184 200.944723L68.340795 200.944723C70.5603691 200.944723 72.3596895 202.744043 72.3596895 204.963617 72.3596895 207.183192 70.5603691 208.982512 68.340795 208.982512L68.3386184 208.982512C66.1190443 208.982512 64.319724 207.183192 64.319724 204.963617 64.319724 202.744043 66.1190443 200.944723 68.3386184 200.944723zM68.3386184 225.05809L68.340795 225.05809C70.5603691 225.05809 72.3596895 226.85741 72.3596895 229.076984 72.3596895 231.296558 70.5603691 233.095879 68.340795 233.095879L68.3386184 233.095879C66.1190443 233.095879 64.319724 231.296558 64.319724 229.076984 64.319724 226.85741 66.1190443 225.05809 68.3386184 225.05809z"/>
      <rect width="8.04" height="8.038" x="72.36" y="16.076" rx="4.019"/>
      <rect width="8.04" height="8.038" x="72.36" y="24.113" rx="4.019"/>
      <rect width="8.04" height="8.038" x="72.36" y="56.265" rx="4.019"/>
      <rect width="8.04" height="8.038" x="72.36" y="72.34" rx="4.019"/>
      <rect width="8.04" height="8.038" x="72.36" y="80.378" rx="4.019"/>
      <rect width="8.04" height="8.038" x="72.36" y="96.453" rx="4.019"/>
      <rect width="8.04" height="8.038" x="72.36" y="104.491" rx="4.019"/>
      <rect width="8.04" height="8.038" x="72.36" y="112.529" rx="4.019"/>
      <rect width="8.04" height="8.038" x="72.36" y="120.567" rx="4.019"/>
      <rect width="8.04" height="8.038" x="72.36" y="128.605" rx="4.019"/>
      <rect width="8.04" height="8.038" x="72.36" y="144.68" rx="4.019"/>
      <rect width="8.04" height="8.038" x="72.36" y="152.718" rx="4.019"/>
      <rect width="8.04" height="8.038" x="72.36" y="160.756" rx="4.019"/>
      <rect width="8.04" height="8.038" x="72.36" y="168.794" rx="4.019"/>
      <rect width="8.04" height="8.038" x="72.36" y="192.907" rx="4.019"/>
      <rect width="8.04" height="8.038" x="72.36" y="200.945" rx="4.019"/>
      <rect width="8.04" height="8.038" x="72.36" y="217.02" rx="4.019"/>
      <rect width="8.04" height="8.038" x="72.36" y="225.058" rx="4.019"/>
      <rect width="8.04" height="8.038" x="80.4" rx="4.019"/>
      <rect width="8.04" height="8.038" x="80.4" y="16.076" rx="4.019"/>
      <rect width="8.04" height="8.038" x="80.4" y="48.227" rx="4.019"/>
      <rect width="8.04" height="8.038" x="80.4" y="56.265" rx="4.019"/>
      <rect width="8.04" height="8.038" x="80.4" y="64.302" rx="4.019"/>
      <rect width="8.04" height="8.038" x="80.4" y="80.378" rx="4.019"/>
      <rect width="8.04" height="8.038" x="80.4" y="88.416" rx="4.019"/>
      <rect width="8.04" height="8.038" x="80.4" y="96.453" rx="4.019"/>
      <rect width="8.04" height="8.038" x="80.4" y="104.491" rx="4.019"/>
      <rect width="8.04" height="8.038" x="80.4" y="120.567" rx="4.019"/>
      <rect width="8.04" height="8.038" x="80.4" y="136.642" rx="4.019"/>
      <rect width="8.04" height="8.038" x="80.4" y="152.718" rx="4.019"/>
      <rect width="8.04" height="8.038" x="80.4" y="160.756" rx="4.019"/>
      <rect width="8.04" height="8.038" x="80.4" y="168.794" rx="4.019"/>
      <rect width="8.04" height="8.038" x="80.4" y="192.907" rx="4.019"/>
      <rect width="8.04" height="8.038" x="80.4" y="200.945" rx="4.019"/>
      <rect width="8.04" height="8.038" x="80.4" y="208.983" rx="4.019"/>
      <rect width="8.04" height="8.038" x="80.4" y="217.02" rx="4.019"/>
      <rect width="8.04" height="8.038" x="88.44" rx="4.019"/>
      <rect width="8.04" height="8.038" x="88.44" y="32.151" rx="4.019"/>
      <rect width="8.04" height="8.038" x="88.44" y="56.265" rx="4.019"/>
      <rect width="8.04" height="8.038" x="88.44" y="144.68" rx="4.019"/>
      <rect width="8.04" height="8.038" x="88.44" y="176.831" rx="4.019"/>
      <rect width="8.04" height="8.038" x="88.44" y="192.907" rx="4.019"/>
      <rect width="8.04" height="8.038" x="88.44" y="208.983" rx="4.019"/>
      <rect width="8.04" height="8.038" x="96.48" y="24.113" rx="4.019"/>
      <rect width="8.04" height="8.038" x="96.48" y="48.227" rx="4.019"/>
      <rect width="8.04" height="8.038" x="96.48" y="64.302" rx="4.019"/>
      <rect width="8.04" height="8.038" x="96.48" y="72.34" rx="4.019"/>
      <rect width="8.04" height="8.038" x="96.48" y="80.378" rx="4.019"/>
      <rect width="8.04" height="8.038" x="96.48" y="152.718" rx="4.019"/>
      <rect width="8.04" height="8.038" x="96.48" y="160.756" rx="4.019"/>
      <rect width="8.04" height="8.038" x="96.48" y="176.831" rx="4.019"/>
      <rect width="8.04" height="8.038" x="96.48" y="200.945" rx="4.019"/>
      <rect width="8.04" height="8.038" x="96.48" y="208.983" rx="4.019"/>
      <rect width="8.04" height="8.038" x="96.48" y="217.02" rx="4.019"/>
      <rect width="8.04" height="8.038" x="96.48" y="225.058" rx="4.019"/>
      <rect width="8.04" height="8.038" x="104.52" y="56.265" rx="4.019"/>
      <rect width="8.04" height="8.038" x="104.52" y="64.302" rx="4.019"/>
      <rect width="8.04" height="8.038" x="104.52" y="72.34" rx="4.019"/>
      <rect width="8.04" height="8.038" x="104.52" y="80.378" rx="4.019"/>
      <rect width="8.04" height="8.038" x="104.52" y="160.756" rx="4.019"/>
      <rect width="8.04" height="8.038" x="104.52" y="192.907" rx="4.019"/>
      <rect width="8.04" height="8.038" x="104.52" y="200.945" rx="4.019"/>
      <rect width="8.04" height="8.038" x="104.52" y="217.02" rx="4.019"/>
      <rect width="8.04" height="8.038" x="112.56" y="32.151" rx="4.019"/>
      <rect width="8.04" height="8.038" x="112.56" y="48.227" rx="4.019"/>
      <rect width="8.04" height="8.038" x="112.56" y="152.718" rx="4.019"/>
      <rect width="8.04" height="8.038" x="112.56" y="160.756" rx="4.019"/>
      <rect width="8.04" height="8.038" x="112.56" y="168.794" rx="4.019"/>
      <rect width="8.04" height="8.038" x="112.56" y="176.831" rx="4.019"/>
      <rect width="8.04" height="8.038" x="112.56" y="184.869" rx="4.019"/>
      <rect width="8.04" height="8.038" x="112.56" y="192.907" rx="4.019"/>
      <rect width="8.04" height="8.038" x="112.56" y="208.983" rx="4.019"/>
      <rect width="8.04" height="8.038" x="120.599" rx="4.019"/>
      <rect width="8.04" height="8.038" x="120.599" y="16.076" rx="4.019"/>
      <rect width="8.04" height="8.038" x="120.599" y="32.151" rx="4.019"/>
      <rect width="8.04" height="8.038" x="120.599" y="40.189" rx="4.019"/>
      <rect width="8.04" height="8.038" x="120.599" y="56.265" rx="4.019"/>
      <rect width="8.04" height="8.038" x="120.599" y="80.378" rx="4.019"/>
      <rect width="8.04" height="8.038" x="120.599" y="144.68" rx="4.019"/>
      <rect width="8.04" height="8.038" x="120.599" y="160.756" rx="4.019"/>
      <rect width="8.04" height="8.038" x="120.599" y="184.869" rx="4.019"/>
      <rect width="8.04" height="8.038" x="120.599" y="208.983" rx="4.019"/>
      <rect width="8.04" height="8.038" x="120.599" y="225.058" rx="4.019"/>
      <rect width="8.04" height="8.038" x="128.639" rx="4.019"/>
      <rect width="8.04" height="8.038" x="128.639" y="8.038" rx="4.019"/>
      <rect width="8.04" height="8.038" x="128.639" y="16.076" rx="4.019"/>
      <rect width="8.04" height="8.038" x="128.639" y="24.113" rx="4.019"/>
      <rect width="8.04" height="8.038" x="128.639" y="32.151" rx="4.019"/>
      <rect width="8.04" height="8.038" x="128.639" y="40.189" rx="4.019"/>
      <rect width="8.04" height="8.038" x="128.639" y="48.227" rx="4.019"/>
      <rect width="8.04" height="8.038" x="128.639" y="56.265" rx="4.019"/>
      <rect width="8.04" height="8.038" x="128.639" y="72.34" rx="4.019"/>
      <rect width="8.04" height="8.038" x="128.639" y="80.378" rx="4.019"/>
      <rect width="8.04" height="8.038" x="128.639" y="160.756" rx="4.019"/>
      <rect width="8.04" height="8.038" x="128.639" y="217.02" rx="4.019"/>
      <rect width="8.04" height="8.038" x="136.679" rx="4.019"/>
      <rect width="8.04" height="8.038" x="136.679" y="24.113" rx="4.019"/>
      <rect width="8.04" height="8.038" x="136.679" y="64.302" rx="4.019"/>
      <rect width="8.04" height="8.038" x="144.719" y="88.416" rx="4.019"/>
      <rect width="8.04" height="8.038" x="144.719" y="96.453" rx="4.019"/>
      <rect width="8.04" height="8.038" x="136.679" y="144.68" rx="4.019"/>
      <rect width="8.04" height="8.038" x="136.679" y="160.756" rx="4.019"/>
      <rect width="8.04" height="8.038" x="136.679" y="184.869" rx="4.019"/>
      <rect width="8.04" height="8.038" x="136.679" y="192.907" rx="4.019"/>
      <rect width="8.04" height="8.038" x="136.679" y="200.945" rx="4.019"/>
      <rect width="8.04" height="8.038" x="136.679" y="208.983" rx="4.019"/>
      <rect width="8.04" height="8.038" x="136.679" y="217.02" rx="4.019"/>
      <rect width="8.04" height="8.038" x="136.679" y="225.058" rx="4.019"/>
      <rect width="8.04" height="8.038" x="144.719" rx="4.019"/>
      <rect width="8.04" height="8.038" x="144.719" y="8.038" rx="4.019"/>
      <rect width="8.04" height="8.038" x="144.719" y="24.113" rx="4.019"/>
      <rect width="8.04" height="8.038" x="144.719" y="48.227" rx="4.019"/>
      <rect width="8.04" height="8.038" x="144.719" y="80.378" rx="4.019"/>
      <rect width="8.04" height="8.038" x="144.719" y="144.68" rx="4.019"/>
      <rect width="8.04" height="8.038" x="144.719" y="176.831" rx="4.019"/>
      <rect width="8.04" height="8.038" x="144.719" y="184.869" rx="4.019"/>
      <rect width="8.04" height="8.038" x="144.719" y="192.907" rx="4.019"/>
      <rect width="8.04" height="8.038" x="144.719" y="200.945" rx="4.019"/>
      <rect width="8.04" height="8.038" x="144.719" y="217.02" rx="4.019"/>
      <path d="M156.778239 8.03778892L156.780415 8.03778892C158.99999 8.03778892 160.79931 9.83710926 160.79931 12.0566834 160.79931 14.2762575 158.99999 16.0755778 156.780415 16.0755778L156.778239 16.0755778C154.558665 16.0755778 152.759344 14.2762575 152.759344 12.0566834 152.759344 9.83710926 154.558665 8.03778892 156.778239 8.03778892zM156.778239 32.1511557L156.780415 32.1511557C158.99999 32.1511557 160.79931 33.950476 160.79931 36.1700501 160.79931 38.3896243 158.99999 40.1889446 156.780415 40.1889446L156.778239 40.1889446C154.558665 40.1889446 152.759344 38.3896243 152.759344 36.1700501 152.759344 33.950476 154.558665 32.1511557 156.778239 32.1511557zM156.778239 56.2645224L156.780415 56.2645224C158.99999 56.2645224 160.79931 58.0638428 160.79931 60.2834169 160.79931 62.502991 158.99999 64.3023114 156.780415 64.3023114L156.778239 64.3023114C154.558665 64.3023114 152.759344 62.502991 152.759344 60.2834169 152.759344 58.0638428 154.558665 56.2645224 156.778239 56.2645224zM156.778239 72.3401003L156.780415 72.3401003C158.99999 72.3401003 160.79931 74.1394206 160.79931 76.3589947 160.79931 78.5785689 158.99999 80.3778892 156.780415 80.3778892L156.778239 80.3778892C154.558665 80.3778892 152.759344 78.5785689 152.759344 76.3589947 152.759344 74.1394206 154.558665 72.3401003 156.778239 72.3401003zM156.778239 88.4156781L156.780415 88.4156781C158.99999 88.4156781 160.79931 90.2149985 160.79931 92.4345726 160.79931 94.6541467 158.99999 96.453467 156.780415 96.453467L156.778239 96.453467C154.558665 96.453467 152.759344 94.6541467 152.759344 92.4345726 152.759344 90.2149985 154.558665 88.4156781 156.778239 88.4156781zM156.778239 96.453467L156.780415 96.453467C158.99999 96.453467 160.79931 98.2527874 160.79931 100.472362 160.79931 102.691936 158.99999 104.491256 156.780415 104.491256L156.778239 104.491256C154.558665 104.491256 152.759344 102.691936 152.759344 100.472362 152.759344 98.2527874 154.558665 96.453467 156.778239 96.453467zM156.778239 112.529045L156.780415 112.529045C158.99999 112.529045 160.79931 114.328365 160.79931 116.547939 160.79931 118.767513 158.99999 120.566834 156.780415 120.566834L156.778239 120.566834C154.558665 120.566834 152.759344 118.767513 152.759344 116.547939 152.759344 114.328365 154.558665 112.529045 156.778239 112.529045zM156.778239 120.566834L156.780415 120.566834C158.99999 120.566834 160.79931 122.366154 160.79931 124.585728 160.79931 126.805302 158.99999 128.604623 156.780415 128.604623L156.778239 128.604623C154.558665 128.604623 152.759344 126.805302 152.759344 124.585728 152.759344 122.366154 154.558665 120.566834 156.778239 120.566834zM156.778239 128.604623L156.780415 128.604623C158.99999 128.604623 160.79931 130.403943 160.79931 132.623517 160.79931 134.843091 158.99999 136.642412 156.780415 136.642412L156.778239 136.642412C154.558665 136.642412 152.759344 134.843091 152.759344 132.623517 152.759344 130.403943 154.558665 128.604623 156.778239 128.604623zM156.778239 136.642412L156.780415 136.642412C158.99999 136.642412 160.79931 138.441732 160.79931 140.661306 160.79931 142.88088 158.99999 144.680201 156.780415 144.680201L156.778239 144.680201C154.558665 144.680201 152.759344 142.88088 152.759344 140.661306 152.759344 138.441732 154.558665 136.642412 156.778239 136.642412zM156.778239 144.680201L156.780415 144.680201C158.99999 144.680201 160.79931 146.479521 160.79931 148.699095 160.79931 150.918669 158.99999 152.717989 156.780415 152.717989L156.778239 152.717989C154.558665 152.717989 152.759344 150.918669 152.759344 148.699095 152.759344 146.479521 154.558665 144.680201 156.778239 144.680201zM156.778239 152.717989L156.780415 152.717989C158.99999 152.717989 160.79931 154.51731 160.79931 156.736884 160.79931 158.956458 158.99999 160.755778 156.780415 160.755778L156.778239 160.755778C154.558665 160.755778 152.759344 158.956458 152.759344 156.736884 152.759344 154.51731 154.558665 152.717989 156.778239 152.717989zM156.778239 176.831356L156.780415 176.831356C158.99999 176.831356 160.79931 178.630677 160.79931 180.850251 160.79931 183.069825 158.99999 184.869145 156.780415 184.869145L156.778239 184.869145C154.558665 184.869145 152.759344 183.069825 152.759344 180.850251 152.759344 178.630677 154.558665 176.831356 156.778239 176.831356zM156.778239 184.869145L156.780415 184.869145C158.99999 184.869145 160.79931 186.668466 160.79931 188.88804 160.79931 191.107614 158.99999 192.906934 156.780415 192.906934L156.778239 192.906934C154.558665 192.906934 152.759344 191.107614 152.759344 188.88804 152.759344 186.668466 154.558665 184.869145 156.778239 184.869145zM156.778239 192.906934L156.780415 192.906934C158.99999 192.906934 160.79931 194.706254 160.79931 196.925829 160.79931 199.145403 158.99999 200.944723 156.780415 200.944723L156.778239 200.944723C154.558665 200.944723 152.759344 199.145403 152.759344 196.925829 152.759344 194.706254 154.558665 192.906934 156.778239 192.906934zM156.778239 225.05809L156.780415 225.05809C158.99999 225.05809 160.79931 226.85741 160.79931 229.076984 160.79931 231.296558 158.99999 233.095879 156.780415 233.095879L156.778239 233.095879C154.558665 233.095879 152.759344 231.296558 152.759344 229.076984 152.759344 226.85741 154.558665 225.05809 156.778239 225.05809zM164.818204 40.1889446L164.820381 40.1889446C167.039955 40.1889446 168.839275 41.9882649 168.839275 44.2078391 168.839275 46.4274132 167.039955 48.2267335 164.820381 48.2267335L164.818204 48.2267335C162.59863 48.2267335 160.79931 46.4274132 160.79931 44.2078391 160.79931 41.9882649 162.59863 40.1889446 164.818204 40.1889446zM164.818204 48.2267335L164.820381 48.2267335C167.039955 48.2267335 168.839275 50.0260539 168.839275 52.245628 168.839275 54.4652021 167.039955 56.2645224 164.820381 56.2645224L164.818204 56.2645224C162.59863 56.2645224 160.79931 54.4652021 160.79931 52.245628 160.79931 50.0260539 162.59863 48.2267335 164.818204 48.2267335zM164.818204 56.2645224L164.820381 56.2645224C167.039955 56.2645224 168.839275 58.0638428 168.839275 60.2834169 168.839275 62.502991 167.039955 64.3023114 164.820381 64.3023114L164.818204 64.3023114C162.59863 64.3023114 160.79931 62.502991 160.79931 60.2834169 160.79931 58.0638428 162.59863 56.2645224 164.818204 56.2645224zM164.818204 80.3778892L164.820381 80.3778892C167.039955 80.3778892 168.839275 82.1772095 168.839275 84.3967837 168.839275 86.6163578 167.039955 88.4156781 164.820381 88.4156781L164.818204 88.4156781C162.59863 88.4156781 160.79931 86.6163578 160.79931 84.3967837 160.79931 82.1772095 162.59863 80.3778892 164.818204 80.3778892zM164.818204 88.4156781L164.820381 88.4156781C167.039955 88.4156781 168.839275 90.2149985 168.839275 92.4345726 168.839275 94.6541467 167.039955 96.453467 164.820381 96.453467L164.818204 96.453467C162.59863 96.453467 160.79931 94.6541467 160.79931 92.4345726 160.79931 90.2149985 162.59863 88.4156781 164.818204 88.4156781zM164.818204 112.529045L164.820381 112.529045C167.039955 112.529045 168.839275 114.328365 168.839275 116.547939 168.839275 118.767513 167.039955 120.566834 164.820381 120.566834L164.818204 120.566834C162.59863 120.566834 160.79931 118.767513 160.79931 116.547939 160.79931 114.328365 162.59863 112.529045 164.818204 112.529045zM164.818204 128.604623L164.820381 128.604623C167.039955 128.604623 168.839275 130.403943 168.839275 132.623517 168.839275 134.843091 167.039955 136.642412 164.820381 136.642412L164.818204 136.642412C162.59863 136.642412 160.79931 134.843091 160.79931 132.623517 160.79931 130.403943 162.59863 128.604623 164.818204 128.604623zM164.818204 160.755778L164.820381 160.755778C167.039955 160.755778 168.839275 162.555099 168.839275 164.774673 168.839275 166.994247 167.039955 168.793567 164.820381 168.793567L164.818204 168.793567C162.59863 168.793567 160.79931 166.994247 160.79931 164.774673 160.79931 162.555099 162.59863 160.755778 164.818204 160.755778zM164.818204 168.793567L164.820381 168.793567C167.039955 168.793567 168.839275 170.592888 168.839275 172.812462 168.839275 175.032036 167.039955 176.831356 164.820381 176.831356L164.818204 176.831356C162.59863 176.831356 160.79931 175.032036 160.79931 172.812462 160.79931 170.592888 162.59863 168.793567 164.818204 168.793567zM164.818204 176.831356L164.820381 176.831356C167.039955 176.831356 168.839275 178.630677 168.839275 180.850251 168.839275 183.069825 167.039955 184.869145 164.820381 184.869145L164.818204 184.869145C162.59863 184.869145 160.79931 183.069825 160.79931 180.850251 160.79931 178.630677 162.59863 176.831356 164.818204 176.831356zM164.818204 184.869145L164.820381 184.869145C167.039955 184.869145 168.839275 186.668466 168.839275 188.88804 168.839275 191.107614 167.039955 192.906934 164.820381 192.906934L164.818204 192.906934C162.59863 192.906934 160.79931 191.107614 160.79931 188.88804 160.79931 186.668466 162.59863 184.869145 164.818204 184.869145zM164.818204 192.906934L164.820381 192.906934C167.039955 192.906934 168.839275 194.706254 168.839275 196.925829 168.839275 199.145403 167.039955 200.944723 164.820381 200.944723L164.818204 200.944723C162.59863 200.944723 160.79931 199.145403 160.79931 196.925829 160.79931 194.706254 162.59863 192.906934 164.818204 192.906934zM164.818204 208.982512L164.820381 208.982512C167.039955 208.982512 168.839275 210.781832 168.839275 213.001406 168.839275 215.220981 167.039955 217.020301 164.820381 217.020301L164.818204 217.020301C162.59863 217.020301 160.79931 215.220981 160.79931 213.001406 160.79931 210.781832 162.59863 208.982512 164.818204 208.982512zM164.818204 225.05809L164.820381 225.05809C167.039955 225.05809 168.839275 226.85741 168.839275 229.076984 168.839275 231.296558 167.039955 233.095879 164.820381 233.095879L164.818204 233.095879C162.59863 233.095879 160.79931 231.296558 160.79931 229.076984 160.79931 226.85741 162.59863 225.05809 164.818204 225.05809zM172.85817 64.3023114L172.860346 64.3023114C175.079921 64.3023114 176.879241 66.1016317 176.879241 68.3212058 176.879241 70.5407799 175.079921 72.3401003 172.860346 72.3401003L172.85817 72.3401003C170.638596 72.3401003 168.839275 70.5407799 168.839275 68.3212058 168.839275 66.1016317 170.638596 64.3023114 172.85817 64.3023114zM172.85817 80.3778892L172.860346 80.3778892C175.079921 80.3778892 176.879241 82.1772095 176.879241 84.3967837 176.879241 86.6163578 175.079921 88.4156781 172.860346 88.4156781L172.85817 88.4156781C170.638596 88.4156781 168.839275 86.6163578 168.839275 84.3967837 168.839275 82.1772095 170.638596 80.3778892 172.85817 80.3778892zM172.85817 88.4156781L172.860346 88.4156781C175.079921 88.4156781 176.879241 90.2149985 176.879241 92.4345726 176.879241 94.6541467 175.079921 96.453467 172.860346 96.453467L172.85817 96.453467C170.638596 96.453467 168.839275 94.6541467 168.839275 92.4345726 168.839275 90.2149985 170.638596 88.4156781 172.85817 88.4156781zM172.85817 104.491256L172.860346 104.491256C175.079921 104.491256 176.879241 106.290576 176.879241 108.51015 176.879241 110.729725 175.079921 112.529045 172.860346 112.529045L172.85817 112.529045C170.638596 112.529045 168.839275 110.729725 168.839275 108.51015 168.839275 106.290576 170.638596 104.491256 172.85817 104.491256zM172.85817 112.529045L172.860346 112.529045C175.079921 112.529045 176.879241 114.328365 176.879241 116.547939 176.879241 118.767513 175.079921 120.566834 172.860346 120.566834L172.85817 120.566834C170.638596 120.566834 168.839275 118.767513 168.839275 116.547939 168.839275 114.328365 170.638596 112.529045 172.85817 112.529045zM172.85817 120.566834L172.860346 120.566834C175.079921 120.566834 176.879241 122.366154 176.879241 124.585728 176.879241 126.805302 175.079921 128.604623 172.860346 128.604623L172.85817 128.604623C170.638596 128.604623 168.839275 126.805302 168.839275 124.585728 168.839275 122.366154 170.638596 120.566834 172.85817 120.566834zM172.85817 128.604623L172.860346 128.604623C175.079921 128.604623 176.879241 130.403943 176.879241 132.623517 176.879241 134.843091 175.079921 136.642412 172.860346 136.642412L172.85817 136.642412C170.638596 136.642412 168.839275 134.843091 168.839275 132.623517 168.839275 130.403943 170.638596 128.604623 172.85817 128.604623zM172.85817 160.755778L172.860346 160.755778C175.079921 160.755778 176.879241 162.555099 176.879241 164.774673 176.879241 166.994247 175.079921 168.793567 172.860346 168.793567L172.85817 168.793567C170.638596 168.793567 168.839275 166.994247 168.839275 164.774673 168.839275 162.555099 170.638596 160.755778 172.85817 160.755778zM172.85817 192.906934L172.860346 192.906934C175.079921 192.906934 176.879241 194.706254 176.879241 196.925829 176.879241 199.145403 175.079921 200.944723 172.860346 200.944723L172.85817 200.944723C170.638596 200.944723 168.839275 199.145403 168.839275 196.925829 168.839275 194.706254 170.638596 192.906934 172.85817 192.906934zM172.85817 200.944723L172.860346 200.944723C175.079921 200.944723 176.879241 202.744043 176.879241 204.963617 176.879241 207.183192 175.079921 208.982512 172.860346 208.982512L172.85817 208.982512C170.638596 208.982512 168.839275 207.183192 168.839275 204.963617 168.839275 202.744043 170.638596 200.944723 172.85817 200.944723zM172.85817 208.982512L172.860346 208.982512C175.079921 208.982512 176.879241 210.781832 176.879241 213.001406 176.879241 215.220981 175.079921 217.020301 172.860346 217.020301L172.85817 217.020301C170.638596 217.020301 168.839275 215.220981 168.839275 213.001406 168.839275 210.781832 170.638596 208.982512 172.85817 208.982512z"/>
      <rect width="8.04" height="8.038" x="176.879" y="88.416" rx="4.019"/>
      <rect width="8.04" height="8.038" x="176.879" y="96.453" rx="4.019"/>
      <rect width="8.04" height="8.038" x="176.879" y="104.491" rx="4.019"/>
      <rect width="8.04" height="8.038" x="176.879" y="120.567" rx="4.019"/>
      <rect width="8.04" height="8.038" x="176.879" y="152.718" rx="4.019"/>
      <rect width="8.04" height="8.038" x="176.879" y="160.756" rx="4.019"/>
      <rect width="8.04" height="8.038" x="176.879" y="176.831" rx="4.019"/>
      <rect width="8.04" height="8.038" x="176.879" y="192.907" rx="4.019"/>
      <rect width="8.04" height="8.038" x="176.879" y="217.02" rx="4.019"/>
      <rect width="8.04" height="8.038" x="176.879" y="225.058" rx="4.019"/>
      <rect width="8.04" height="8.038" x="184.919" y="72.34" rx="4.019"/>
      <rect width="8.04" height="8.038" x="184.919" y="80.378" rx="4.019"/>
      <rect width="8.04" height="8.038" x="184.919" y="88.416" rx="4.019"/>
      <rect width="8.04" height="8.038" x="184.919" y="104.491" rx="4.019"/>
      <rect width="8.04" height="8.038" x="184.919" y="120.567" rx="4.019"/>
      <rect width="8.04" height="8.038" x="184.919" y="160.756" rx="4.019"/>
      <rect width="8.04" height="8.038" x="184.919" y="192.907" rx="4.019"/>
      <rect width="8.04" height="8.038" x="184.919" y="208.983" rx="4.019"/>
      <rect width="8.04" height="8.038" x="184.919" y="225.058" rx="4.019"/>
      <rect width="8.04" height="8.038" x="192.959" y="64.302" rx="4.019"/>
      <rect width="8.04" height="8.038" x="192.959" y="72.34" rx="4.019"/>
      <rect width="8.04" height="8.038" x="192.959" y="80.378" rx="4.019"/>
      <rect width="8.04" height="8.038" x="192.959" y="88.416" rx="4.019"/>
      <rect width="8.04" height="8.038" x="192.959" y="104.491" rx="4.019"/>
      <rect width="8.04" height="8.038" x="192.959" y="112.529" rx="4.019"/>
      <rect width="8.04" height="8.038" x="192.959" y="120.567" rx="4.019"/>
      <rect width="8.04" height="8.038" x="192.959" y="136.642" rx="4.019"/>
      <rect width="8.04" height="8.038" x="192.959" y="144.68" rx="4.019"/>
      <rect width="8.04" height="8.038" x="192.959" y="160.756" rx="4.019"/>
      <rect width="8.04" height="8.038" x="192.959" y="168.794" rx="4.019"/>
      <rect width="8.04" height="8.038" x="192.959" y="176.831" rx="4.019"/>
      <rect width="8.04" height="8.038" x="192.959" y="184.869" rx="4.019"/>
      <rect width="8.04" height="8.038" x="192.959" y="192.907" rx="4.019"/>
      <rect width="8.04" height="8.038" x="192.959" y="208.983" rx="4.019"/>
      <rect width="8.04" height="8.038" x="192.959" y="225.058" rx="4.019"/>
      <rect width="8.04" height="8.038" x="200.999" y="88.416" rx="4.019"/>
      <rect width="8.04" height="8.038" x="200.999" y="104.491" rx="4.019"/>
      <rect width="8.04" height="8.038" x="200.999" y="128.605" rx="4.019"/>
      <rect width="8.04" height="8.038" x="200.999" y="144.68" rx="4.019"/>
      <rect width="8.04" height="8.038" x="200.999" y="152.718" rx="4.019"/>
      <rect width="8.04" height="8.038" x="200.999" y="160.756" rx="4.019"/>
      <rect width="8.04" height="8.038" x="200.999" y="168.794" rx="4.019"/>
      <rect width="8.04" height="8.038" x="200.999" y="176.831" rx="4.019"/>
      <rect width="8.04" height="8.038" x="200.999" y="192.907" rx="4.019"/>
      <rect width="8.04" height="8.038" x="200.999" y="217.02" rx="4.019"/>
      <rect width="8.04" height="8.038" x="209.039" y="64.302" rx="4.019"/>
      <rect width="8.04" height="8.038" x="209.039" y="72.34" rx="4.019"/>
      <rect width="8.04" height="8.038" x="209.039" y="80.378" rx="4.019"/>
      <rect width="8.04" height="8.038" x="209.039" y="104.491" rx="4.019"/>
      <rect width="8.04" height="8.038" x="209.039" y="112.529" rx="4.019"/>
      <rect width="8.04" height="8.038" x="209.039" y="120.567" rx="4.019"/>
      <rect width="8.04" height="8.038" x="209.039" y="136.642" rx="4.019"/>
      <rect width="8.04" height="8.038" x="209.039" y="152.718" rx="4.019"/>
      <rect width="8.04" height="8.038" x="209.039" y="160.756" rx="4.019"/>
      <rect width="8.04" height="8.038" x="209.039" y="208.983" rx="4.019"/>
      <rect width="8.04" height="8.038" x="209.039" y="217.02" rx="4.019"/>
      <rect width="8.04" height="8.038" x="217.079" y="64.302" rx="4.019"/>
      <rect width="8.04" height="8.038" x="217.079" y="72.34" rx="4.019"/>
      <rect width="8.04" height="8.038" x="217.079" y="104.491" rx="4.019"/>
      <rect width="8.04" height="8.038" x="217.079" y="136.642" rx="4.019"/>
      <rect width="8.04" height="8.038" x="217.079" y="160.756" rx="4.019"/>
      <rect width="8.04" height="8.038" x="217.079" y="200.945" rx="4.019"/>
      <rect width="8.04" height="8.038" x="217.079" y="208.983" rx="4.019"/>
      <rect width="8.04" height="8.038" x="225.119" y="64.302" rx="4.019"/>
      <rect width="8.04" height="8.038" x="225.119" y="88.416" rx="4.019"/>
      <rect width="8.04" height="8.038" x="225.119" y="96.453" rx="4.019"/>
      <rect width="8.04" height="8.038" x="225.119" y="104.491" rx="4.019"/>
      <rect width="8.04" height="8.038" x="225.119" y="112.529" rx="4.019"/>
      <rect width="8.04" height="8.038" x="225.119" y="120.567" rx="4.019"/>
      <rect width="8.04" height="8.038" x="225.119" y="144.68" rx="4.019"/>
      <rect width="8.04" height="8.038" x="225.119" y="184.869" rx="4.019"/>
      <rect width="8.04" height="8.038" x="225.119" y="208.983" rx="4.019"/>
      <rect width="8.04" height="8.038" x="225.119" y="217.02" rx="4.019"/>
    </g>
    <path fill="#2A3F90" d="M120.912846,110.573614 C122.2715,110.573614 123.468409,110.8413 124.471225,111.343212 C125.474042,111.845124 126.282764,112.51434 126.962091,113.384321 C127.609069,114.254302 128.094303,115.258126 128.417792,116.395793 C128.741281,117.533461 128.903026,118.771511 128.903026,120.109943 C128.903026,122.151052 128.547188,124.058317 127.803163,125.898662 C127.059138,127.705545 126.088671,129.311663 124.827063,130.650096 C123.565456,131.988528 122.077406,133.059273 120.362914,133.828872 C118.648422,134.59847 116.804535,135 114.798902,135 C114.540111,135 114.087227,135 113.440248,134.966539 C112.79327,134.966539 112.049245,134.899618 111.240523,134.765774 C110.399451,134.631931 109.526031,134.464627 108.620261,134.230402 C107.682143,133.996176 106.808723,133.661568 106,133.260038 L113.4079,101.070746 L120.039425,100 L117.419164,111.410134 C118.001444,111.142447 118.519027,110.941683 119.101307,110.807839 C119.651238,110.640535 120.265868,110.573614 120.912846,110.573614 L120.912846,110.573614 Z M115.348834,129.512428 C116.35165,129.512428 117.289768,129.278203 118.163189,128.74283 C119.036609,128.240918 119.812983,127.571702 120.459961,126.735182 C121.106939,125.898662 121.624522,124.928298 121.98036,123.891013 C122.336198,122.820268 122.530291,121.716061 122.530291,120.578394 C122.530291,119.17304 122.303849,118.068834 121.850964,117.265774 C121.398079,116.462715 120.459961,116.094646 119.230703,116.094646 C118.842516,116.094646 118.42198,116.128107 117.775002,116.295411 C117.128024,116.429254 116.578092,116.763862 116.06051,117.232314 L113.278504,129.378585 C114.119575,129.512428 114.378367,129.545889 114.604809,129.545889 C114.766554,129.512428 115.025345,129.512428 115.348834,129.512428 L115.348834,129.512428 Z"/>
  </g>
</svg>
